999
DXF file: xxx.dxf
999
Pro/ENGINEER 2006460 by Parametric Technology Corporation
  0
SECTION
  2
HEADER
  9
$ACADVER
  1
AC1015
  9
$DWGCODEPAGE
  3
ANSI_936
  9
$EXTMAX
 10
594.0
 20
420.0
 30
0.0
  9
$EXTMIN
 10
0.0
 20
0.0
 30
0.0
  9
$LIMMIN
 10
0.0
 20
0.0
  9
$LIMMAX
 10
594.0
 20
420.0
  9
$VIEWCTR
 10
297.0
 20
210.0
  9
$VIEWSIZE
 40
420.0
  9
$CLAYER
  8
0
  9
$LTSCALE
 40
32.67
  9
$CELTYPE
  6
BYLAYER
  9
$DIMSCALE
 40
1.0
  9
$DIMASZ
 40
3.5
  9
$DIMEXO
 40
3.7125
  9
$DIMDLI
 40
22.572
  9
$DIMEXE
 40
10.692
  9
$DIMCEN
 40
5.346
  9
$DIMLFAC
 40
1.0
  9
$DIMBLK
  1
_FILLED
  9
$DIMTXT
 40
3.5
  9
$DIMTOL
 70
1
  9
$DIMLIM
 70
0
  9
$DIMTFAC
 40
1.0
  9
$DIMTP
 40
0.0001
  9
$DIMTM
 40
0.0001
  9
$PDMODE
 70
3
  9
$PDSIZE
 40
8.0
  9
$HANDSEED
  5
373
  9
$MEASUREMENT
 70
1
  9
$INSUNITS
 70
4
  0
ENDSEC
  0
SECTION
  2
CLASSES
  0
CLASS
  1
ACDBDICTIONARYWDFLT
  2
AcDbDictionaryWithDefault
  3
AutoCAD 2000
 90
0
280
0
281
0
  0
CLASS
  1
ACDBPLACEHOLDER
  2
AcDbPlaceHolder
  3
AutoCAD 2000
 90
0
280
0
281
0
  0
CLASS
  1
LAYOUT
  2
AcDbLayout
  3
AutoCAD 2000
 90
0
280
0
281
0
  0
ENDSEC
  0
SECTION
  2
TABLES
  0
TABLE
  2
VPORT
  5
8
100
AcDbSymbolTable
 70
2
  0
VPORT
  5
1F4
100
AcDbSymbolTableRecord
100
AcDbViewportTableRecord
  2
*ACTIVE
 70
0
 10
0.0
 20
0.0
 11
1.0
 21
1.0
 12
297.0
 22
210.0
 13
0.0
 23
0.0
 14
1.0
 24
1.0
 15
0.0
 25
0.0
 16
0.0
 26
0.0
 36
1.0
 17
0.0
 27
0.0
 37
0.0
 40
420.0
 41
1.4142857143
 42
50.0
 43
0.0
 44
0.0
 50
0.0
 51
0.0
 71
0
 72
100
 73
1
 74
1
 75
0
 76
0
 77
0
 78
0
  0
ENDTAB
  0
TABLE
  2
LTYPE
  5
5
100
AcDbSymbolTable
 70
6
  0
LTYPE
  5
14
100
AcDbSymbolTableRecord
100
AcDbLinetypeTableRecord
  2
BYBLOCK
 70
0
  3

 72
65
 73
0
 40
0.0
  0
LTYPE
  5
15
100
AcDbSymbolTableRecord
100
AcDbLinetypeTableRecord
  2
BYLAYER
 70
0
  3

 72
65
 73
0
 40
0.0
  0
LTYPE
  5
16
100
AcDbSymbolTableRecord
100
AcDbLinetypeTableRecord
  2
CONTINUOUS
 70
64
  3
Solid line
 72
65
 73
0
 40
0.0
  0
LTYPE
  5
1F5
100
AcDbSymbolTableRecord
100
AcDbLinetypeTableRecord
  2
CENTER
 70
64
  3
____ _ ____ _ ____ _ ____ _ ____ _ ____ _ ____
 72
65
 73
4
 40
0.6
 49
0.375
 74
0
 49
-0.075
 74
0
 49
0.075
 74
0
 49
-0.075
 74
0
  0
LTYPE
  5
1F6
100
AcDbSymbolTableRecord
100
AcDbLinetypeTableRecord
  2
HIDDEN
 70
64
  3
- - - - - - - - - - - - - - - - - - - -
 72
65
 73
2
 40
0.2
 49
0.1
 74
0
 49
-0.1
 74
0
  0
LTYPE
  5
1F7
100
AcDbSymbolTableRecord
100
AcDbLinetypeTableRecord
  2
PHANTOM
 70
64
  3
_____ _ _ _____ _ _ _____ _ _ _____
 72
65
 73
6
 40
0.8
 49
0.45
 74
0
 49
-0.05
 74
0
 49
0.1
 74
0
 49
-0.05
 74
0
 49
0.1
 74
0
 49
-0.05
 74
0
  0
LTYPE
  5
1F8
100
AcDbSymbolTableRecord
100
AcDbLinetypeTableRecord
  2
DOT
 70
64
  3
. . . . . . . . . . . . . . . . . . . .
 72
65
 73
2
 40
0.2
 49
0.1
 74
0
 49
-0.1
 74
0
  0
LTYPE
  5
1F9
100
AcDbSymbolTableRecord
100
AcDbLinetypeTableRecord
  2
DASHED
 70
64
  3
- - - - - - - - - - - - - - - - - - - -
 72
65
 73
2
 40
0.2
 49
0.1
 74
0
 49
-0.1
 74
0
  0
ENDTAB
  0
TABLE
  2
LAYER
  5
2
100
AcDbSymbolTable
 70
36
  0
LAYER
  5
10
100
AcDbSymbolTableRecord
100
AcDbLayerTableRecord
  2
0
 70
0
 62
7
  6
CONTINUOUS
370
-3
390
F
  0
LAYER
  5
1FA
100
AcDbSymbolTableRecord
100
AcDbLayerTableRecord
  2
DEFAULT_1
 70
0
 62
7
  6
CENTER
370
-3
390
F
  0
LAYER
  5
1FB
100
AcDbSymbolTableRecord
100
AcDbLayerTableRecord
  2
DEFAULT_2
 70
0
 62
8
  6
HIDDEN
370
-3
390
F
  0
LAYER
  5
1FC
100
AcDbSymbolTableRecord
100
AcDbLayerTableRecord
  2
DEFAULT_3
 70
0
 62
7
  6
PHANTOM
370
-3
390
F
  0
LAYER
  5
1FD
100
AcDbSymbolTableRecord
100
AcDbLayerTableRecord
  2
01_ALL_DTM_PLN
 70
0
 62
7
  6
CONTINUOUS
370
-3
390
F
  0
LAYER
  5
1FE
100
AcDbSymbolTableRecord
100
AcDbLayerTableRecord
  2
01__ASM_ALL_DTM_PLN
 70
0
 62
7
  6
CONTINUOUS
370
-3
390
F
  0
LAYER
  5
1FF
100
AcDbSymbolTableRecord
100
AcDbLayerTableRecord
  2
01__ASM_DEF_DTM_PLN
 70
0
 62
7
  6
CONTINUOUS
370
-3
390
F
  0
LAYER
  5
200
100
AcDbSymbolTableRecord
100
AcDbLayerTableRecord
  2
01___PRT_ALL_DTM_PLN
 70
0
 62
7
  6
CONTINUOUS
370
-3
390
F
  0
LAYER
  5
201
100
AcDbSymbolTableRecord
100
AcDbLayerTableRecord
  2
01___PRT_DEF_DTM_PLN
 70
0
 62
7
  6
CONTINUOUS
370
-3
390
F
  0
LAYER
  5
202
100
AcDbSymbolTableRecord
100
AcDbLayerTableRecord
  2
02_ALL_AXES
 70
0
 62
7
  6
CONTINUOUS
370
-3
390
F
  0
LAYER
  5
203
100
AcDbSymbolTableRecord
100
AcDbLayerTableRecord
  2
02__ASM_ALL_AXES
 70
0
 62
7
  6
CONTINUOUS
370
-3
390
F
  0
LAYER
  5
204
100
AcDbSymbolTableRecord
100
AcDbLayerTableRecord
  2
02___PRT_ALL_AXES
 70
0
 62
7
  6
CONTINUOUS
370
-3
390
F
  0
LAYER
  5
205
100
AcDbSymbolTableRecord
100
AcDbLayerTableRecord
  2
03_ALL_CURVES
 70
0
 62
7
  6
CONTINUOUS
370
-3
390
F
  0
LAYER
  5
206
100
AcDbSymbolTableRecord
100
AcDbLayerTableRecord
  2
03__ASM_ALL_CURVES
 70
0
 62
7
  6
CONTINUOUS
370
-3
390
F
  0
LAYER
  5
207
100
AcDbSymbolTableRecord
100
AcDbLayerTableRecord
  2
03___PRT_ALL_CURVES
 70
0
 62
7
  6
CONTINUOUS
370
-3
390
F
  0
LAYER
  5
208
100
AcDbSymbolTableRecord
100
AcDbLayerTableRecord
  2
04_ALL_DTM_PNT
 70
0
 62
7
  6
CONTINUOUS
370
-3
390
F
  0
LAYER
  5
209
100
AcDbSymbolTableRecord
100
AcDbLayerTableRecord
  2
04__ASM_ALL_DTM_PNT
 70
0
 62
7
  6
CONTINUOUS
370
-3
390
F
  0
LAYER
  5
20A
100
AcDbSymbolTableRecord
100
AcDbLayerTableRecord
  2
04___PRT_ALL_DTM_PNT
 70
0
 62
7
  6
CONTINUOUS
370
-3
390
F
  0
LAYER
  5
20B
100
AcDbSymbolTableRecord
100
AcDbLayerTableRecord
  2
05_ALL_DTM_CSYS
 70
0
 62
7
  6
CONTINUOUS
370
-3
390
F
  0
LAYER
  5
20C
100
AcDbSymbolTableRecord
100
AcDbLayerTableRecord
  2
05__ASM_ALL_DTM_CSYS
 70
0
 62
7
  6
CONTINUOUS
370
-3
390
F
  0
LAYER
  5
20D
100
AcDbSymbolTableRecord
100
AcDbLayerTableRecord
  2
05__ASM_DEF_DTM_CSYS
 70
0
 62
7
  6
CONTINUOUS
370
-3
390
F
  0
LAYER
  5
20E
100
AcDbSymbolTableRecord
100
AcDbLayerTableRecord
  2
05___PRT_ALL_DTM_CSYS
 70
0
 62
7
  6
CONTINUOUS
370
-3
390
F
  0
LAYER
  5
20F
100
AcDbSymbolTableRecord
100
AcDbLayerTableRecord
  2
05___PRT_DEF_DTM_CSYS
 70
0
 62
7
  6
CONTINUOUS
370
-3
390
F
  0
LAYER
  5
210
100
AcDbSymbolTableRecord
100
AcDbLayerTableRecord
  2
06_ALL_SURFS
 70
0
 62
7
  6
CONTINUOUS
370
-3
390
F
  0
LAYER
  5
211
100
AcDbSymbolTableRecord
100
AcDbLayerTableRecord
  2
06__ASM_ALL_SURFS
 70
0
 62
7
  6
CONTINUOUS
370
-3
390
F
  0
LAYER
  5
212
100
AcDbSymbolTableRecord
100
AcDbLayerTableRecord
  2
06___PRT_ALL_SURFS
 70
0
 62
7
  6
CONTINUOUS
370
-3
390
F
  0
LAYER
  5
213
100
AcDbSymbolTableRecord
100
AcDbLayerTableRecord
  2
07__ASM_ALL_SKELETONS
 70
0
 62
7
  6
CONTINUOUS
370
-3
390
F
  0
LAYER
  5
214
100
AcDbSymbolTableRecord
100
AcDbLayerTableRecord
  2
3_ALL_SYMBOLS
 70
0
 62
7
  6
CONTINUOUS
370
-3
390
F
  0
LAYER
  5
215
100
AcDbSymbolTableRecord
100
AcDbLayerTableRecord
  2
INTF_YELLOW
 70
0
 62
7
  6
CONTINUOUS
370
-3
390
F
  0
LAYER
  5
216
100
AcDbSymbolTableRecord
100
AcDbLayerTableRecord
  2
XXX_DXF_FORMAT
 70
0
 62
7
  6
CONTINUOUS
370
-3
390
F
  0
LAYER
  5
217
100
AcDbSymbolTableRecord
100
AcDbLayerTableRecord
  2
A1_DXF_CONTINUOUS_LINE
 70
0
 62
7
  6
CONTINUOUS
370
-3
390
F
  0
ENDTAB
  0
TABLE
  2
STYLE
  5
3
100
AcDbSymbolTable
 70
1
  0
STYLE
  5
11
100
AcDbSymbolTableRecord
100
AcDbTextStyleTableRecord
  2
STANDARD
 70
0
 40
0.0
 41
0.85
 50
0.0
 71
0
 42
0.2
  3
txt
  4

  0
ENDTAB
  0
TABLE
  2
VIEW
  5
6
100
AcDbSymbolTable
 70
0
  0
ENDTAB
  0
TABLE
  2
UCS
  5
7
100
AcDbSymbolTable
 70
0
  0
ENDTAB
  0
TABLE
  2
APPID
  5
9
100
AcDbSymbolTable
 70
1
  0
APPID
  5
218
100
AcDbSymbolTableRecord
100
AcDbRegAppTableRecord
  2
ACAD
 70
0
  0
ENDTAB
  0
TABLE
  2
BLOCK_RECORD
  5
1
100
AcDbSymbolTable
 70
0
  0
BLOCK_RECORD
  5
1F
100
AcDbSymbolTableRecord
100
AcDbBlockTableRecord
  2
*MODEL_SPACE
  0
BLOCK_RECORD
  5
1B
100
AcDbSymbolTableRecord
100
AcDbBlockTableRecord
  2
*PAPER_SPACE
  0
ENDTAB
  0
TABLE
  2
DIMSTYLE
  5
A
100
AcDbSymbolTable
 70
1
100
AcDbDimStyleTable
 71
0
  0
DIMSTYLE
105
219
100
AcDbSymbolTableRecord
100
AcDbDimStyleTableRecord
  2
STANDARD
 70
0
  3

  4

 40
1.0
 41
3.5
 42
0.0625
 43
0.38
 44
0.18
 45
0.0
 46
0.0
 47
0.0001
 48
0.0001
140
3.5
141
0.09
142
0.0
143
25.4
144
1.0
145
0.0
146
1.0
147
0.09
 71
1.0
 72
0.0
 73
0
 74
0
 75
0
 76
0
 77
1
 78
8
170
0
171
2
172
0
173
0
174
0
175
0
176
0
177
0
178
0
270
2
271
4
272
4
273
2
274
2
275
0
280
0
281
0
282
0
283
1
284
8
285
0
286
0
287
3
288
0
340
11
  0
ENDTAB
  0
ENDSEC
  0
SECTION
  2
BLOCKS
  0
BLOCK
  5
20
100
AcDbEntity
  8
0
100
AcDbBlockBegin
  2
*MODEL_SPACE
 70
0
 10
0.0
 20
0.0
 30
0.0
  3
*MODEL_SPACE
  1

  0
ENDBLK
  5
21
100
AcDbEntity
  8
0
100
AcDbBlockEnd
  0
BLOCK
  5
1C
100
AcDbEntity
  8
0
100
AcDbBlockBegin
  2
*PAPER_SPACE
 70
0
 10
0.0
 20
0.0
 30
0.0
  3
*PAPER_SPACE
  1

  0
ENDBLK
  5
1D
100
AcDbEntity
  8
0
100
AcDbBlockEnd
  0
ENDSEC
  0
SECTION
  2
ENTITIES
  0
LINE
  5
21A
100
AcDbEntity
  8
XXX_DXF_FORMAT
100
AcDbLine
 62
7
  6
CONTINUOUS
 10
0.0
 20
0.0
 11
0.0
 21
420.0
  0
LINE
  5
21B
100
AcDbEntity
  8
XXX_DXF_FORMAT
100
AcDbLine
 62
7
  6
CONTINUOUS
 10
0.0
 20
0.0
 11
594.0
 21
0.0
  0
LINE
  5
21C
100
AcDbEntity
  8
XXX_DXF_FORMAT
100
AcDbLine
 62
7
  6
CONTINUOUS
 10
0.0
 20
420.0
 11
594.0
 21
420.0
  0
LINE
  5
21D
100
AcDbEntity
  8
XXX_DXF_FORMAT
100
AcDbLine
 62
7
  6
CONTINUOUS
 10
594.0
 20
0.0
 11
594.0
 21
420.0
  0
LINE
  5
21E
100
AcDbEntity
  8
A1_DXF_CONTINUOUS_LINE
100
AcDbLine
 62
6
  6
CONTINUOUS
 10
137.4085574488
 20
173.2611470021
 11
137.4085574488
 21
166.0743298677
  0
LINE
  5
21F
100
AcDbEntity
  8
A1_DXF_CONTINUOUS_LINE
100
AcDbLine
 62
6
  6
CONTINUOUS
 10
137.4085574488
 20
157.8333299068
 11
137.4085574488
 21
150.6465127723
  0
LINE
  5
220
100
AcDbEntity
  8
A1_DXF_CONTINUOUS_LINE
100
AcDbLine
 62
6
  6
CONTINUOUS
 10
137.4730197179
 20
157.8333299068
 11
137.4730197179
 21
158.4363299039
  0
LINE
  5
221
100
AcDbEntity
  8
A1_DXF_CONTINUOUS_LINE
100
AcDbLine
 62
6
  6
CONTINUOUS
 10
137.4730197179
 20
165.4713298705
 11
137.4730197179
 21
166.0743298677
  0
LINE
  5
222
100
AcDbEntity
  8
A1_DXF_CONTINUOUS_LINE
100
AcDbLine
 62
6
  6
CONTINUOUS
 10
137.5316217806
 20
158.4363299039
 11
137.5316217806
 21
165.4713298705
  0
LINE
  5
223
100
AcDbEntity
  8
A1_DXF_CONTINUOUS_LINE
100
AcDbLine
 62
6
  6
CONTINUOUS
 10
137.6605463186
 20
173.0091581323
 11
137.6605463186
 21
150.8985016421
  0
LINE
  5
224
100
AcDbEntity
  8
A1_DXF_CONTINUOUS_LINE
100
AcDbLine
 62
6
  6
CONTINUOUS
 10
138.1623076682
 20
173.0088295793
 11
138.1623076682
 21
150.8988296842
  0
LINE
  5
225
100
AcDbEntity
  8
A1_DXF_CONTINUOUS_LINE
100
AcDbLine
 62
6
  6
CONTINUOUS
 10
138.4135574441
 20
151.1500799385
 11
138.4135574441
 21
172.757579836
  0
LINE
  5
226
100
AcDbEntity
  8
A1_DXF_CONTINUOUS_LINE
100
AcDbLine
 62
6
  6
CONTINUOUS
 10
139.0165574412
 20
149.7430799452
 11
139.0165574412
 21
157.8333299068
  0
LINE
  5
227
100
AcDbEntity
  8
A1_DXF_CONTINUOUS_LINE
100
AcDbLine
 62
6
  6
CONTINUOUS
 10
139.0165574412
 20
166.0743298677
 11
139.0165574412
 21
174.1645798293
  0
LINE
  5
228
100
AcDbEntity
  8
A1_DXF_CONTINUOUS_LINE
100
AcDbLine
 62
6
  6
CONTINUOUS
 10
139.078316263
 20
158.4363299039
 11
139.078316263
 21
157.8333299068
  0
LINE
  5
229
100
AcDbEntity
  8
A1_DXF_CONTINUOUS_LINE
100
AcDbLine
 62
6
  6
CONTINUOUS
 10
139.078316263
 20
165.4713298705
 11
139.078316263
 21
166.0743298677
  0
LINE
  5
22A
100
AcDbEntity
  8
A1_DXF_CONTINUOUS_LINE
100
AcDbLine
 62
6
  6
CONTINUOUS
 10
139.1344606464
 20
158.4363299039
 11
139.1344606464
 21
165.4713298705
  0
LINE
  5
22B
100
AcDbEntity
  8
A1_DXF_CONTINUOUS_LINE
100
AcDbLine
 62
6
  6
CONTINUOUS
 10
139.1673076634
 20
174.0138295745
 11
139.1673076634
 21
166.0743296122
  0
LINE
  5
22C
100
AcDbEntity
  8
A1_DXF_CONTINUOUS_LINE
100
AcDbLine
 62
6
  6
CONTINUOUS
 10
139.1673076634
 20
157.8333296513
 11
139.1673076634
 21
149.8938296889
  0
LINE
  5
22D
100
AcDbEntity
  8
A1_DXF_CONTINUOUS_LINE
100
AcDbLine
 62
6
  6
CONTINUOUS
 10
139.2832432625
 20
150.0097657664
 11
139.2832432625
 21
173.897894008
  0
LINE
  5
22E
100
AcDbEntity
  8
A1_DXF_CONTINUOUS_LINE
100
AcDbLine
 62
7
  6
CONTINUOUS
 10
140.1723109547
 20
175.0184219943
 11
140.1723100321
 21
173.0088271638
  0
LINE
  5
22F
100
AcDbEntity
  8
A1_DXF_CONTINUOUS_LINE
100
AcDbLine
 62
6
  6
CONTINUOUS
 10
140.1723076586
 20
173.0088295793
 11
140.1723076586
 21
150.8988296842
  0
LINE
  5
230
100
AcDbEntity
  8
A1_DXF_CONTINUOUS_LINE
100
AcDbLine
 62
7
  6
CONTINUOUS
 10
140.1723076586
 20
150.8989935203
 11
140.1723100321
 21
148.8892372691
  0
LINE
  5
231
100
AcDbEntity
  8
A1_DXF_CONTINUOUS_LINE
100
AcDbLine
 62
7
  6
CONTINUOUS
 10
140.4235574345
 20
151.1502437746
 11
140.4235574345
 21
149.1454028905
  0
LINE
  5
232
100
AcDbEntity
  8
A1_DXF_CONTINUOUS_LINE
100
AcDbLine
 62
6
  6
CONTINUOUS
 10
140.4235574345
 20
151.1500799385
 11
140.4235574345
 21
174.7622568839
  0
LINE
  5
233
100
AcDbEntity
  8
A1_DXF_CONTINUOUS_LINE
100
AcDbLine
 62
6
  6
CONTINUOUS
 10
146.7048074047
 20
149.1903747008
 11
146.7048074047
 21
149.8104532053
  0
LINE
  5
234
100
AcDbEntity
  8
A1_DXF_CONTINUOUS_LINE
100
AcDbLine
 62
6
  6
CONTINUOUS
 10
146.7048074047
 20
174.0972065692
 11
146.7048074047
 21
174.7172850737
  0
LINE
  5
235
100
AcDbEntity
  8
A1_DXF_CONTINUOUS_LINE
100
AcDbLine
 62
6
  6
CONTINUOUS
 10
146.9560576264
 20
149.3913296913
 11
146.9560576264
 21
149.8938296889
  0
LINE
  5
236
100
AcDbEntity
  8
A1_DXF_CONTINUOUS_LINE
100
AcDbLine
 62
6
  6
CONTINUOUS
 10
146.9560576264
 20
174.0138295745
 11
146.9560576264
 21
174.5163295721
  0
LINE
  5
237
100
AcDbEntity
  8
A1_DXF_CONTINUOUS_LINE
100
AcDbLine
 62
6
  6
CONTINUOUS
 10
139.9199902684
 20
148.1350799528
 11
184.6446243933
 21
148.1350799528
  0
LINE
  5
238
100
AcDbEntity
  8
A1_DXF_CONTINUOUS_LINE
100
AcDbLine
 62
6
  6
CONTINUOUS
 10
140.1719791382
 20
148.3870688226
 11
184.3926355235
 21
148.3870688226
  0
LINE
  5
239
100
AcDbEntity
  8
A1_DXF_CONTINUOUS_LINE
100
AcDbLine
 62
6
  6
CONTINUOUS
 10
184.3923074488
 20
148.8888296937
 11
140.1723076586
 21
148.8888296937
  0
LINE
  5
23A
100
AcDbEntity
  8
A1_DXF_CONTINUOUS_LINE
100
AcDbLine
 62
6
  6
CONTINUOUS
 10
140.1723076586
 20
148.8941526362
 11
184.3923074488
 21
148.8941526362
  0
LINE
  5
23B
100
AcDbEntity
  8
A1_DXF_CONTINUOUS_LINE
100
AcDbLine
 62
6
  6
CONTINUOUS
 10
184.1410572271
 20
149.140079948
 11
140.4235574345
 21
149.140079948
  0
LINE
  5
23C
100
AcDbEntity
  8
A1_DXF_CONTINUOUS_LINE
100
AcDbLine
 62
6
  6
CONTINUOUS
 10
184.1410572271
 20
149.1454028905
 11
140.4235574345
 21
149.1454028905
  0
LINE
  5
23D
100
AcDbEntity
  8
A1_DXF_CONTINUOUS_LINE
100
AcDbLine
 62
6
  6
CONTINUOUS
 10
146.7048074047
 20
149.1903747008
 11
153.7398073714
 21
149.1903747008
  0
LINE
  5
23E
100
AcDbEntity
  8
A1_DXF_CONTINUOUS_LINE
100
AcDbLine
 62
6
  6
CONTINUOUS
 10
170.8248072903
 20
149.1903747008
 11
177.8598072569
 21
149.1903747008
  0
LINE
  5
23F
100
AcDbEntity
  8
A1_DXF_CONTINUOUS_LINE
100
AcDbLine
 62
6
  6
CONTINUOUS
 10
146.9560576264
 20
149.3913296913
 11
153.4885575954
 21
149.3913296913
  0
LINE
  5
240
100
AcDbEntity
  8
A1_DXF_CONTINUOUS_LINE
100
AcDbLine
 62
6
  6
CONTINUOUS
 10
171.076057512
 20
149.3913296913
 11
177.608557481
 21
149.3913296913
  0
LINE
  5
241
100
AcDbEntity
  8
A1_DXF_CONTINUOUS_LINE
100
AcDbLine
 62
6
  6
CONTINUOUS
 10
185.5480572204
 20
149.7430799451
 11
139.0165574412
 21
149.7430799451
  0
LINE
  5
242
100
AcDbEntity
  8
A1_DXF_CONTINUOUS_LINE
100
AcDbLine
 62
6
  6
CONTINUOUS
 10
146.7048074047
 20
149.7767665752
 11
153.7398073714
 21
149.7767665752
  0
LINE
  5
243
100
AcDbEntity
  8
A1_DXF_CONTINUOUS_LINE
100
AcDbLine
 62
6
  6
CONTINUOUS
 10
170.8248072903
 20
149.7767665752
 11
177.8598072569
 21
149.7767665752
  0
LINE
  5
244
100
AcDbEntity
  8
A1_DXF_CONTINUOUS_LINE
100
AcDbLine
 62
6
  6
CONTINUOUS
 10
177.8598072569
 20
149.8104532053
 11
170.8248072903
 21
149.8104532053
  0
LINE
  5
245
100
AcDbEntity
  8
A1_DXF_CONTINUOUS_LINE
100
AcDbLine
 62
6
  6
CONTINUOUS
 10
153.7398073714
 20
149.8104532053
 11
146.7048074047
 21
149.8104532053
  0
LINE
  5
246
100
AcDbEntity
  8
A1_DXF_CONTINUOUS_LINE
100
AcDbLine
 62
7
  6
CONTINUOUS
 10
177.608557481
 20
149.8938296889
 11
171.076057512
 21
149.8938296889
  0
LINE
  5
247
100
AcDbEntity
  8
A1_DXF_CONTINUOUS_LINE
100
AcDbLine
 62
7
  6
CONTINUOUS
 10
153.4885575954
 20
149.8938296889
 11
146.9560576264
 21
149.8938296889
  0
LINE
  5
248
100
AcDbEntity
  8
A1_DXF_CONTINUOUS_LINE
100
AcDbLine
 62
6
  6
CONTINUOUS
 10
146.9560576264
 20
149.8938296889
 11
139.1673076634
 21
149.8938296889
  0
LINE
  5
249
100
AcDbEntity
  8
A1_DXF_CONTINUOUS_LINE
100
AcDbLine
 62
6
  6
CONTINUOUS
 10
177.608557481
 20
149.8938296889
 11
184.5933074479
 21
149.8938296889
  0
LINE
  5
24A
100
AcDbEntity
  8
A1_DXF_CONTINUOUS_LINE
100
AcDbLine
 62
6
  6
CONTINUOUS
 10
153.4885575954
 20
149.8938296889
 11
171.076057512
 21
149.8938296889
  0
LINE
  5
24B
100
AcDbEntity
  8
A1_DXF_CONTINUOUS_LINE
100
AcDbLine
 62
6
  6
CONTINUOUS
 10
185.2813713992
 20
150.0097657664
 11
139.2832432625
 21
150.0097657664
  0
LINE
  5
24C
100
AcDbEntity
  8
A1_DXF_CONTINUOUS_LINE
100
AcDbLine
 62
6
  6
CONTINUOUS
 10
137.4087614759
 20
150.6465138191
 11
137.6607503457
 21
150.8985026889
  0
LINE
  5
24D
100
AcDbEntity
  8
A1_DXF_CONTINUOUS_LINE
100
AcDbLine
 62
6
  6
CONTINUOUS
 10
186.402106071
 20
150.8988296842
 11
140.1723076586
 21
150.8988296842
  0
LINE
  5
24E
100
AcDbEntity
  8
A1_DXF_CONTINUOUS_LINE
100
AcDbLine
 62
7
  6
CONTINUOUS
 10
140.1723076586
 20
150.8988296842
 11
138.1623076682
 21
150.8988296842
  0
LINE
  5
24F
100
AcDbEntity
  8
A1_DXF_CONTINUOUS_LINE
100
AcDbLine
 62
7
  6
CONTINUOUS
 10
140.4235574345
 20
151.1500799385
 11
138.4135574441
 21
151.1500799385
  0
LINE
  5
250
100
AcDbEntity
  8
A1_DXF_CONTINUOUS_LINE
100
AcDbLine
 62
7
  6
CONTINUOUS
 10
184.1410572271
 20
151.1500799385
 11
186.1510572176
 21
151.1500799385
  0
LINE
  5
251
100
AcDbEntity
  8
A1_DXF_CONTINUOUS_LINE
100
AcDbLine
 62
6
  6
CONTINUOUS
 10
140.4235574345
 20
151.1502437746
 11
184.1410572271
 21
151.1502437746
  0
LINE
  5
252
100
AcDbEntity
  8
A1_DXF_CONTINUOUS_LINE
100
AcDbLine
 62
6
  6
CONTINUOUS
 10
187.1560572128
 20
151.6023299363
 11
184.3923074488
 21
151.6023296808
  0
LINE
  5
253
100
AcDbEntity
  8
A1_DXF_CONTINUOUS_LINE
100
AcDbLine
 62
6
  6
CONTINUOUS
 10
137.6607503457
 20
173.0091570855
 11
137.4087614759
 21
173.2611459553
  0
LINE
  5
254
100
AcDbEntity
  8
A1_DXF_CONTINUOUS_LINE
100
AcDbLine
 62
6
  6
CONTINUOUS
 10
153.4885575954
 20
149.3913296913
 11
153.4885575954
 21
149.8938296889
  0
LINE
  5
255
100
AcDbEntity
  8
A1_DXF_CONTINUOUS_LINE
100
AcDbLine
 62
6
  6
CONTINUOUS
 10
153.4885575954
 20
174.0138295745
 11
153.4885575954
 21
174.5163295721
  0
LINE
  5
256
100
AcDbEntity
  8
A1_DXF_CONTINUOUS_LINE
100
AcDbLine
 62
6
  6
CONTINUOUS
 10
153.7398073714
 20
149.1903747008
 11
153.7398073714
 21
149.8104532053
  0
LINE
  5
257
100
AcDbEntity
  8
A1_DXF_CONTINUOUS_LINE
100
AcDbLine
 62
6
  6
CONTINUOUS
 10
153.7398073714
 20
174.0972065692
 11
153.7398073714
 21
174.7172850737
  0
LINE
  5
258
100
AcDbEntity
  8
A1_DXF_CONTINUOUS_LINE
100
AcDbLine
 62
6
  6
CONTINUOUS
 10
139.0165574412
 20
149.7430799452
 11
139.2832432625
 21
150.0097657664
  0
LINE
  5
259
100
AcDbEntity
  8
A1_DXF_CONTINUOUS_LINE
100
AcDbLine
 62
6
  6
CONTINUOUS
 10
139.2832432625
 20
173.897894008
 11
139.0165574412
 21
174.1645798293
  0
LINE
  5
25A
100
AcDbEntity
  8
A1_DXF_CONTINUOUS_LINE
100
AcDbLine
 62
6
  6
CONTINUOUS
 10
140.171980185
 20
148.3872728496
 11
139.9199913152
 21
148.1352839798
  0
LINE
  5
25B
100
AcDbEntity
  8
A1_DXF_CONTINUOUS_LINE
100
AcDbLine
 62
6
  6
CONTINUOUS
 10
140.171980185
 20
175.5203869248
 11
139.9199913152
 21
175.7723757946
  0
LINE
  5
25C
100
AcDbEntity
  8
A1_DXF_CONTINUOUS_LINE
100
AcDbLine
 62
6
  6
CONTINUOUS
 10
140.1723076586
 20
157.8333296513
 11
139.1673076634
 21
157.8333296513
  0
LINE
  5
25D
100
AcDbEntity
  8
A1_DXF_CONTINUOUS_LINE
100
AcDbLine
 62
6
  6
CONTINUOUS
 10
139.078316263
 20
157.8333299068
 11
137.4085574488
 21
157.8333299068
  0
LINE
  5
25E
100
AcDbEntity
  8
A1_DXF_CONTINUOUS_LINE
100
AcDbLine
 62
6
  6
CONTINUOUS
 10
137.4730197179
 20
158.4363299039
 11
139.1344606464
 21
158.4363299039
  0
LINE
  5
25F
100
AcDbEntity
  8
A1_DXF_CONTINUOUS_LINE
100
AcDbLine
 62
6
  6
CONTINUOUS
 10
186.4023074393
 20
159.994079641
 11
185.2968074445
 21
159.994079641
  0
LINE
  5
260
100
AcDbEntity
  8
A1_DXF_CONTINUOUS_LINE
100
AcDbLine
 62
6
  6
CONTINUOUS
 10
185.2968074445
 20
163.9135796224
 11
186.4023074393
 21
163.9135796224
  0
LINE
  5
261
100
AcDbEntity
  8
A1_DXF_CONTINUOUS_LINE
100
AcDbLine
 62
6
  6
CONTINUOUS
 10
137.4730197179
 20
165.4713298705
 11
139.1344606464
 21
165.4713298705
  0
LINE
  5
262
100
AcDbEntity
  8
A1_DXF_CONTINUOUS_LINE
100
AcDbLine
 62
6
  6
CONTINUOUS
 10
140.1723076586
 20
166.0743296122
 11
139.1673076634
 21
166.0743296122
  0
LINE
  5
263
100
AcDbEntity
  8
A1_DXF_CONTINUOUS_LINE
100
AcDbLine
 62
6
  6
CONTINUOUS
 10
137.4085574489
 20
166.0743298677
 11
139.078316263
 21
166.0743298677
  0
LINE
  5
264
100
AcDbEntity
  8
A1_DXF_CONTINUOUS_LINE
100
AcDbLine
 62
6
  6
CONTINUOUS
 10
184.6446233464
 20
175.7723757946
 11
184.3926344766
 21
175.5203869248
  0
LINE
  5
265
100
AcDbEntity
  8
A1_DXF_CONTINUOUS_LINE
100
AcDbLine
 62
6
  6
CONTINUOUS
 10
185.2813713992
 20
173.897894008
 11
185.5480572204
 21
174.1645798293
  0
LINE
  5
266
100
AcDbEntity
  8
A1_DXF_CONTINUOUS_LINE
100
AcDbLine
 62
6
  6
CONTINUOUS
 10
184.6446233464
 20
148.1352839798
 11
184.3926344767
 21
148.3872728496
  0
LINE
  5
267
100
AcDbEntity
  8
A1_DXF_CONTINUOUS_LINE
100
AcDbLine
 62
6
  6
CONTINUOUS
 10
185.5480572204
 20
149.7430799452
 11
185.2813713992
 21
150.0097657664
  0
LINE
  5
268
100
AcDbEntity
  8
A1_DXF_CONTINUOUS_LINE
100
AcDbLine
 62
6
  6
CONTINUOUS
 10
170.8248072903
 20
149.1903747008
 11
170.8248072903
 21
149.8104532053
  0
LINE
  5
269
100
AcDbEntity
  8
A1_DXF_CONTINUOUS_LINE
100
AcDbLine
 62
6
  6
CONTINUOUS
 10
170.8248072903
 20
174.0972065692
 11
170.8248072903
 21
174.7172850737
  0
LINE
  5
26A
100
AcDbEntity
  8
A1_DXF_CONTINUOUS_LINE
100
AcDbLine
 62
6
  6
CONTINUOUS
 10
171.076057512
 20
149.3913296913
 11
171.076057512
 21
149.8938296889
  0
LINE
  5
26B
100
AcDbEntity
  8
A1_DXF_CONTINUOUS_LINE
100
AcDbLine
 62
6
  6
CONTINUOUS
 10
171.076057512
 20
174.0138295745
 11
171.076057512
 21
174.5163295721
  0
LINE
  5
26C
100
AcDbEntity
  8
A1_DXF_CONTINUOUS_LINE
100
AcDbLine
 62
6
  6
CONTINUOUS
 10
186.9038643159
 20
173.0091570855
 11
187.1558531857
 21
173.2611459553
  0
LINE
  5
26D
100
AcDbEntity
  8
A1_DXF_CONTINUOUS_LINE
100
AcDbLine
 62
6
  6
CONTINUOUS
 10
187.1558531858
 20
150.6465138191
 11
186.903864316
 21
150.8985026889
  0
LINE
  5
26E
100
AcDbEntity
  8
A1_DXF_CONTINUOUS_LINE
100
AcDbLine
 62
6
  6
CONTINUOUS
 10
184.3923074488
 20
172.3053295826
 11
187.1560572128
 21
172.3053298381
  0
LINE
  5
26F
100
AcDbEntity
  8
A1_DXF_CONTINUOUS_LINE
100
AcDbLine
 62
6
  6
CONTINUOUS
 10
184.1410572271
 20
172.7574159998
 11
140.4235574345
 21
172.7574159998
  0
LINE
  5
270
100
AcDbEntity
  8
A1_DXF_CONTINUOUS_LINE
100
AcDbLine
 62
7
  6
CONTINUOUS
 10
140.4235574345
 20
172.757579836
 11
138.4135574441
 21
172.757579836
  0
LINE
  5
271
100
AcDbEntity
  8
A1_DXF_CONTINUOUS_LINE
100
AcDbLine
 62
7
  6
CONTINUOUS
 10
184.1410572271
 20
172.757579836
 11
186.1510572176
 21
172.757579836
  0
LINE
  5
272
100
AcDbEntity
  8
A1_DXF_CONTINUOUS_LINE
100
AcDbLine
 62
7
  6
CONTINUOUS
 10
186.402106071
 20
173.0088295793
 11
184.3923062996
 21
173.0088295793
  0
LINE
  5
273
100
AcDbEntity
  8
A1_DXF_CONTINUOUS_LINE
100
AcDbLine
 62
6
  6
CONTINUOUS
 10
184.3923074488
 20
173.0088295793
 11
140.1723076586
 21
173.0088295793
  0
LINE
  5
274
100
AcDbEntity
  8
A1_DXF_CONTINUOUS_LINE
100
AcDbLine
 62
7
  6
CONTINUOUS
 10
140.1723076586
 20
173.0088295793
 11
138.1623076682
 21
173.0088295793
  0
LINE
  5
275
100
AcDbEntity
  8
A1_DXF_CONTINUOUS_LINE
100
AcDbLine
 62
6
  6
CONTINUOUS
 10
139.2832432625
 20
173.897894008
 11
185.2813713992
 21
173.897894008
  0
LINE
  5
276
100
AcDbEntity
  8
A1_DXF_CONTINUOUS_LINE
100
AcDbLine
 62
6
  6
CONTINUOUS
 10
184.5933074479
 20
174.0138295745
 11
177.608557481
 21
174.0138295745
  0
LINE
  5
277
100
AcDbEntity
  8
A1_DXF_CONTINUOUS_LINE
100
AcDbLine
 62
6
  6
CONTINUOUS
 10
146.9560576264
 20
174.0138295745
 11
139.1673076634
 21
174.0138295745
  0
LINE
  5
278
100
AcDbEntity
  8
A1_DXF_CONTINUOUS_LINE
100
AcDbLine
 62
6
  6
CONTINUOUS
 10
171.076057512
 20
174.0138295745
 11
153.4885575954
 21
174.0138295745
  0
LINE
  5
279
100
AcDbEntity
  8
A1_DXF_CONTINUOUS_LINE
100
AcDbLine
 62
7
  6
CONTINUOUS
 10
146.9560576264
 20
174.0138295745
 11
153.4885575954
 21
174.0138295745
  0
LINE
  5
27A
100
AcDbEntity
  8
A1_DXF_CONTINUOUS_LINE
100
AcDbLine
 62
7
  6
CONTINUOUS
 10
171.076057512
 20
174.0138295745
 11
177.608557481
 21
174.0138295745
  0
LINE
  5
27B
100
AcDbEntity
  8
A1_DXF_CONTINUOUS_LINE
100
AcDbLine
 62
6
  6
CONTINUOUS
 10
146.7048074047
 20
174.0972065692
 11
153.7398073714
 21
174.0972065692
  0
LINE
  5
27C
100
AcDbEntity
  8
A1_DXF_CONTINUOUS_LINE
100
AcDbLine
 62
6
  6
CONTINUOUS
 10
170.8248072903
 20
174.0972065692
 11
177.8598072569
 21
174.0972065692
  0
LINE
  5
27D
100
AcDbEntity
  8
A1_DXF_CONTINUOUS_LINE
100
AcDbLine
 62
6
  6
CONTINUOUS
 10
177.8598072569
 20
174.1308931992
 11
170.8248072903
 21
174.1308931992
  0
LINE
  5
27E
100
AcDbEntity
  8
A1_DXF_CONTINUOUS_LINE
100
AcDbLine
 62
6
  6
CONTINUOUS
 10
153.7398073714
 20
174.1308931992
 11
146.7048074047
 21
174.1308931992
  0
LINE
  5
27F
100
AcDbEntity
  8
A1_DXF_CONTINUOUS_LINE
100
AcDbLine
 62
6
  6
CONTINUOUS
 10
185.5480572204
 20
174.1645798293
 11
139.0165574412
 21
174.1645798293
  0
LINE
  5
280
100
AcDbEntity
  8
A1_DXF_CONTINUOUS_LINE
100
AcDbLine
 62
6
  6
CONTINUOUS
 10
146.9560576264
 20
174.5163295721
 11
153.4885575954
 21
174.5163295721
  0
LINE
  5
281
100
AcDbEntity
  8
A1_DXF_CONTINUOUS_LINE
100
AcDbLine
 62
6
  6
CONTINUOUS
 10
171.076057512
 20
174.5163295721
 11
177.608557481
 21
174.5163295721
  0
LINE
  5
282
100
AcDbEntity
  8
A1_DXF_CONTINUOUS_LINE
100
AcDbLine
 62
6
  6
CONTINUOUS
 10
146.7048074047
 20
174.7172850737
 11
153.7398073714
 21
174.7172850737
  0
LINE
  5
283
100
AcDbEntity
  8
A1_DXF_CONTINUOUS_LINE
100
AcDbLine
 62
6
  6
CONTINUOUS
 10
170.8248072903
 20
174.7172850737
 11
177.8598072569
 21
174.7172850737
  0
LINE
  5
284
100
AcDbEntity
  8
A1_DXF_CONTINUOUS_LINE
100
AcDbLine
 62
6
  6
CONTINUOUS
 10
140.4235574345
 20
174.7622568839
 11
184.1410572271
 21
174.7622568839
  0
LINE
  5
285
100
AcDbEntity
  8
A1_DXF_CONTINUOUS_LINE
100
AcDbLine
 62
6
  6
CONTINUOUS
 10
140.4235574345
 20
174.7675798264
 11
184.1410572271
 21
174.7675798264
  0
LINE
  5
286
100
AcDbEntity
  8
A1_DXF_CONTINUOUS_LINE
100
AcDbLine
 62
6
  6
CONTINUOUS
 10
184.3923074488
 20
175.0188295697
 11
140.1723076586
 21
175.0188295697
  0
LINE
  5
287
100
AcDbEntity
  8
A1_DXF_CONTINUOUS_LINE
100
AcDbLine
 62
6
  6
CONTINUOUS
 10
177.608557481
 20
149.3913296913
 11
177.608557481
 21
149.8938296889
  0
LINE
  5
288
100
AcDbEntity
  8
A1_DXF_CONTINUOUS_LINE
100
AcDbLine
 62
6
  6
CONTINUOUS
 10
177.608557481
 20
174.0138295745
 11
177.608557481
 21
174.5163295721
  0
LINE
  5
289
100
AcDbEntity
  8
A1_DXF_CONTINUOUS_LINE
100
AcDbLine
 62
6
  6
CONTINUOUS
 10
184.3926355235
 20
175.5205909519
 11
140.1719791382
 21
175.5205909519
  0
LINE
  5
28A
100
AcDbEntity
  8
A1_DXF_CONTINUOUS_LINE
100
AcDbLine
 62
6
  6
CONTINUOUS
 10
139.9199902684
 20
175.7725798217
 11
184.6446243933
 21
175.7725798217
  0
LINE
  5
28B
100
AcDbEntity
  8
A1_DXF_CONTINUOUS_LINE
100
AcDbLine
 62
6
  6
CONTINUOUS
 10
177.8598072569
 20
149.1903747008
 11
177.8598072569
 21
149.8104532053
  0
LINE
  5
28C
100
AcDbEntity
  8
A1_DXF_CONTINUOUS_LINE
100
AcDbLine
 62
6
  6
CONTINUOUS
 10
177.8598072569
 20
174.0972065692
 11
177.8598072569
 21
174.7172850737
  0
LINE
  5
28D
100
AcDbEntity
  8
A1_DXF_CONTINUOUS_LINE
100
AcDbLine
 62
6
  6
CONTINUOUS
 10
184.1410572271
 20
149.1454028905
 11
184.1410572271
 21
174.7622568839
  0
LINE
  5
28E
100
AcDbEntity
  8
A1_DXF_CONTINUOUS_LINE
100
AcDbLine
 62
7
  6
CONTINUOUS
 10
184.3923041527
 20
173.0088271638
 11
184.3923050754
 21
175.0184219943
  0
LINE
  5
28F
100
AcDbEntity
  8
A1_DXF_CONTINUOUS_LINE
100
AcDbLine
 62
6
  6
CONTINUOUS
 10
184.3923062996
 20
173.0088295793
 11
184.3923062996
 21
150.8988296842
  0
LINE
  5
290
100
AcDbEntity
  8
A1_DXF_CONTINUOUS_LINE
100
AcDbLine
 62
7
  6
CONTINUOUS
 10
184.3923074488
 20
150.8989935203
 11
184.3923074488
 21
148.8941526362
  0
LINE
  5
291
100
AcDbEntity
  8
A1_DXF_CONTINUOUS_LINE
100
AcDbLine
 62
6
  6
CONTINUOUS
 10
185.2813713992
 20
173.897894008
 11
185.2813713992
 21
150.0097657664
  0
LINE
  5
292
100
AcDbEntity
  8
A1_DXF_CONTINUOUS_LINE
100
AcDbLine
 62
6
  6
CONTINUOUS
 10
185.2954074951
 20
151.6023299363
 11
185.2954074951
 21
172.3053298381
  0
LINE
  5
293
100
AcDbEntity
  8
A1_DXF_CONTINUOUS_LINE
100
AcDbLine
 62
6
  6
CONTINUOUS
 10
185.3973074441
 20
173.2098295783
 11
185.3973074441
 21
172.3053295826
  0
LINE
  5
294
100
AcDbEntity
  8
A1_DXF_CONTINUOUS_LINE
100
AcDbLine
 62
6
  6
CONTINUOUS
 10
185.3973074441
 20
151.6023296808
 11
185.3973074441
 21
150.6978296851
  0
LINE
  5
295
100
AcDbEntity
  8
A1_DXF_CONTINUOUS_LINE
100
AcDbLine
 62
6
  6
CONTINUOUS
 10
185.5480572204
 20
149.7430799452
 11
185.5480572204
 21
151.6023299363
  0
LINE
  5
296
100
AcDbEntity
  8
A1_DXF_CONTINUOUS_LINE
100
AcDbLine
 62
6
  6
CONTINUOUS
 10
185.5480572204
 20
172.3053298381
 11
185.5480572204
 21
174.1645798293
  0
LINE
  5
297
100
AcDbEntity
  8
A1_DXF_CONTINUOUS_LINE
100
AcDbLine
 62
6
  6
CONTINUOUS
 10
186.1510572176
 20
172.757579836
 11
186.1510572176
 21
151.1500799385
  0
LINE
  5
298
100
AcDbEntity
  8
A1_DXF_CONTINUOUS_LINE
100
AcDbLine
 62
6
  6
CONTINUOUS
 10
186.3894152365
 20
163.9135796224
 11
186.3894152365
 21
159.994079641
  0
LINE
  5
299
100
AcDbEntity
  8
A1_DXF_CONTINUOUS_LINE
100
AcDbLine
 62
6
  6
CONTINUOUS
 10
186.402106071
 20
173.0088295793
 11
186.402106071
 21
163.9135796224
  0
LINE
  5
29A
100
AcDbEntity
  8
A1_DXF_CONTINUOUS_LINE
100
AcDbLine
 62
6
  6
CONTINUOUS
 10
186.402106071
 20
150.8988296842
 11
186.402106071
 21
159.994079641
  0
LINE
  5
29B
100
AcDbEntity
  8
A1_DXF_CONTINUOUS_LINE
100
AcDbLine
 62
6
  6
CONTINUOUS
 10
186.904068343
 20
150.8985016421
 11
186.904068343
 21
151.6023299363
  0
LINE
  5
29C
100
AcDbEntity
  8
A1_DXF_CONTINUOUS_LINE
100
AcDbLine
 62
6
  6
CONTINUOUS
 10
186.904068343
 20
172.3053298381
 11
186.904068343
 21
173.0091581323
  0
LINE
  5
29D
100
AcDbEntity
  8
A1_DXF_CONTINUOUS_LINE
100
AcDbLine
 62
6
  6
CONTINUOUS
 10
187.1560572128
 20
173.2611470021
 11
187.1560572128
 21
172.3053298381
  0
LINE
  5
29E
100
AcDbEntity
  8
A1_DXF_CONTINUOUS_LINE
100
AcDbLine
 62
6
  6
CONTINUOUS
 10
187.1560572128
 20
151.6023299363
 11
187.1560572128
 21
150.6465127723
  0
LINE
  5
29F
100
AcDbEntity
  8
A1_DXF_CONTINUOUS_LINE
100
AcDbLine
 62
6
  6
CONTINUOUS
 10
137.4085574488
 20
325.2861485689
 11
137.6607503457
 21
316.6431545889
  0
LINE
  5
2A0
100
AcDbEntity
  8
A1_DXF_CONTINUOUS_LINE
100
AcDbLine
 62
6
  6
CONTINUOUS
 10
138.1623076682
 20
326.1906483802
 11
138.1623076682
 21
325.2861483845
  0
LINE
  5
2A1
100
AcDbEntity
  8
A1_DXF_CONTINUOUS_LINE
100
AcDbLine
 62
6
  6
CONTINUOUS
 10
140.171980185
 20
316.6431545889
 11
139.9199913152
 21
325.2861545479
  0
LINE
  5
2A2
100
AcDbEntity
  8
A1_DXF_CONTINUOUS_LINE
100
AcDbLine
 62
6
  6
CONTINUOUS
 10
139.0165574412
 20
325.2861485689
 11
139.2832432625
 21
315.7386486142
  0
LINE
  5
2A3
100
AcDbEntity
  8
A1_DXF_CONTINUOUS_LINE
100
AcDbLine
 62
6
  6
CONTINUOUS
 10
138.4135574441
 20
316.6431486099
 11
138.4135574441
 21
316.1406486123
  0
LINE
  5
2A4
100
AcDbEntity
  8
A1_DXF_CONTINUOUS_LINE
100
AcDbLine
 62
6
  6
CONTINUOUS
 10
139.1673076634
 20
325.2861483845
 11
139.1673076634
 21
322.8741483959
  0
LINE
  5
2A5
100
AcDbEntity
  8
A1_DXF_CONTINUOUS_LINE
100
AcDbLine
 62
7
  6
CONTINUOUS
 10
140.1723076586
 20
328.2006483706
 11
140.1723076586
 21
326.1906483802
  0
LINE
  5
2A6
100
AcDbEntity
  8
A1_DXF_CONTINUOUS_LINE
100
AcDbLine
 62
6
  6
CONTINUOUS
 10
140.1723076586
 20
326.1906483802
 11
140.1723076586
 21
322.8741483959
  0
LINE
  5
2A7
100
AcDbEntity
  8
A1_DXF_CONTINUOUS_LINE
100
AcDbLine
 62
6
  6
CONTINUOUS
 10
140.4235574345
 20
316.6431486099
 11
140.4235574345
 21
316.1408124484
  0
LINE
  5
2A8
100
AcDbEntity
  8
A1_DXF_CONTINUOUS_LINE
100
AcDbLine
 62
7
  6
CONTINUOUS
 10
140.4235574345
 20
314.1359715644
 11
140.4235574345
 21
316.1408124484
  0
LINE
  5
2A9
100
AcDbEntity
  8
A1_DXF_CONTINUOUS_LINE
100
AcDbLine
 62
6
  6
CONTINUOUS
 10
146.7048074047
 20
324.0801485746
 11
146.7048074047
 21
322.873913388
  0
LINE
  5
2AA
100
AcDbEntity
  8
A1_DXF_CONTINUOUS_LINE
100
AcDbLine
 62
6
  6
CONTINUOUS
 10
146.9560576264
 20
323.8891983911
 11
146.9560576264
 21
322.8841983959
  0
LINE
  5
2AB
100
AcDbEntity
  8
A1_DXF_CONTINUOUS_LINE
100
AcDbLine
 62
7
  6
CONTINUOUS
 10
146.9560576264
 20
322.8741483959
 11
146.9560576264
 21
322.8841983959
  0
LINE
  5
2AC
100
AcDbEntity
  8
A1_DXF_CONTINUOUS_LINE
100
AcDbLine
 62
6
  6
CONTINUOUS
 10
153.4885575955
 20
323.8891983911
 11
153.4885575955
 21
322.8841983959
  0
LINE
  5
2AD
100
AcDbEntity
  8
A1_DXF_CONTINUOUS_LINE
100
AcDbLine
 62
7
  6
CONTINUOUS
 10
153.4885575954
 20
322.8841983959
 11
153.4885575954
 21
322.8741483959
  0
LINE
  5
2AE
100
AcDbEntity
  8
A1_DXF_CONTINUOUS_LINE
100
AcDbLine
 62
6
  6
CONTINUOUS
 10
153.7398073714
 20
324.0801485746
 11
153.7398073714
 21
322.873913388
  0
LINE
  5
2AF
100
AcDbEntity
  8
A1_DXF_CONTINUOUS_LINE
100
AcDbLine
 62
6
  6
CONTINUOUS
 10
184.1410572271
 20
314.1359715644
 11
140.4235574345
 21
314.1359715644
  0
LINE
  5
2B0
100
AcDbEntity
  8
A1_DXF_CONTINUOUS_LINE
100
AcDbLine
 62
6
  6
CONTINUOUS
 10
185.2813713992
 20
315.7386486142
 11
139.2832432625
 21
315.7386486142
  0
LINE
  5
2B1
100
AcDbEntity
  8
A1_DXF_CONTINUOUS_LINE
100
AcDbLine
 62
7
  6
CONTINUOUS
 10
186.1510572176
 20
316.1406486123
 11
184.1410572271
 21
316.1406486123
  0
LINE
  5
2B2
100
AcDbEntity
  8
A1_DXF_CONTINUOUS_LINE
100
AcDbLine
 62
7
  6
CONTINUOUS
 10
140.4235574345
 20
316.1406486123
 11
138.4135574441
 21
316.1406486123
  0
LINE
  5
2B3
100
AcDbEntity
  8
A1_DXF_CONTINUOUS_LINE
100
AcDbLine
 62
6
  6
CONTINUOUS
 10
184.1410572271
 20
316.1408124484
 11
140.4235574345
 21
316.1408124484
  0
LINE
  5
2B4
100
AcDbEntity
  8
A1_DXF_CONTINUOUS_LINE
100
AcDbLine
 62
6
  6
CONTINUOUS
 10
186.1510572176
 20
316.2411486118
 11
185.2954074951
 21
316.2411486118
  0
LINE
  5
2B5
100
AcDbEntity
  8
A1_DXF_CONTINUOUS_LINE
100
AcDbLine
 62
6
  6
CONTINUOUS
 10
186.904068343
 20
316.6431486099
 11
137.6605463186
 21
316.6431486099
  0
LINE
  5
2B6
100
AcDbEntity
  8
A1_DXF_CONTINUOUS_LINE
100
AcDbLine
 62
6
  6
CONTINUOUS
 10
137.5316217806
 20
321.0651485889
 11
139.1344606464
 21
321.0651485889
  0
LINE
  5
2B7
100
AcDbEntity
  8
A1_DXF_CONTINUOUS_LINE
100
AcDbLine
 62
7
  6
CONTINUOUS
 10
177.608557481
 20
322.8741483959
 11
171.076057512
 21
322.8741483959
  0
LINE
  5
2B8
100
AcDbEntity
  8
A1_DXF_CONTINUOUS_LINE
100
AcDbLine
 62
7
  6
CONTINUOUS
 10
153.4885575954
 20
322.8741483959
 11
146.9560576264
 21
322.8741483959
  0
LINE
  5
2B9
100
AcDbEntity
  8
A1_DXF_CONTINUOUS_LINE
100
AcDbLine
 62
6
  6
CONTINUOUS
 10
185.3973074441
 20
322.8741483959
 11
177.608557481
 21
322.8741483959
  0
LINE
  5
2BA
100
AcDbEntity
  8
A1_DXF_CONTINUOUS_LINE
100
AcDbLine
 62
6
  6
CONTINUOUS
 10
171.076057512
 20
322.8741483959
 11
153.4885575954
 21
322.8741483959
  0
LINE
  5
2BB
100
AcDbEntity
  8
A1_DXF_CONTINUOUS_LINE
100
AcDbLine
 62
6
  6
CONTINUOUS
 10
146.9560576264
 20
322.8741483959
 11
139.1673076634
 21
322.8741483959
  0
LINE
  5
2BC
100
AcDbEntity
  8
A1_DXF_CONTINUOUS_LINE
100
AcDbLine
 62
7
  6
CONTINUOUS
 10
146.9560576264
 20
322.8841983959
 11
153.4885575954
 21
322.8841983959
  0
LINE
  5
2BD
100
AcDbEntity
  8
A1_DXF_CONTINUOUS_LINE
100
AcDbLine
 62
7
  6
CONTINUOUS
 10
171.076057512
 20
322.8841983959
 11
177.608557481
 21
322.8841983959
  0
LINE
  5
2BE
100
AcDbEntity
  8
A1_DXF_CONTINUOUS_LINE
100
AcDbLine
 62
6
  6
CONTINUOUS
 10
139.078316263
 20
323.0751485794
 11
137.4730197179
 21
323.0751485794
  0
LINE
  5
2BF
100
AcDbEntity
  8
A1_DXF_CONTINUOUS_LINE
100
AcDbLine
 62
6
  6
CONTINUOUS
 10
177.608557481
 20
323.8891983911
 11
171.076057512
 21
323.8891983911
  0
LINE
  5
2C0
100
AcDbEntity
  8
A1_DXF_CONTINUOUS_LINE
100
AcDbLine
 62
6
  6
CONTINUOUS
 10
153.4885575954
 20
323.8891983911
 11
146.9560576264
 21
323.8891983911
  0
LINE
  5
2C1
100
AcDbEntity
  8
A1_DXF_CONTINUOUS_LINE
100
AcDbLine
 62
6
  6
CONTINUOUS
 10
177.8598072569
 20
324.0801485746
 11
170.8248072903
 21
324.0801485746
  0
LINE
  5
2C2
100
AcDbEntity
  8
A1_DXF_CONTINUOUS_LINE
100
AcDbLine
 62
6
  6
CONTINUOUS
 10
153.7398073714
 20
324.0801485746
 11
146.7048074047
 21
324.0801485746
  0
LINE
  5
2C3
100
AcDbEntity
  8
A1_DXF_CONTINUOUS_LINE
100
AcDbLine
 62
7
  6
CONTINUOUS
 10
187.1576855248
 20
325.2861485689
 11
184.6446243932
 21
325.2861485689
  0
LINE
  5
2C4
100
AcDbEntity
  8
A1_DXF_CONTINUOUS_LINE
100
AcDbLine
 62
7
  6
CONTINUOUS
 10
139.9199902684
 20
325.2861485689
 11
137.4069052238
 21
325.2861485689
  0
LINE
  5
2C5
100
AcDbEntity
  8
A1_DXF_CONTINUOUS_LINE
100
AcDbLine
 62
6
  6
CONTINUOUS
 10
139.9199902684
 20
325.2861485689
 11
184.6446243932
 21
325.2861485689
  0
LINE
  5
2C6
100
AcDbEntity
  8
A1_DXF_CONTINUOUS_LINE
100
AcDbLine
 62
6
  6
CONTINUOUS
 10
140.1723076586
 20
326.1904845441
 11
184.3923074488
 21
326.1904845441
  0
LINE
  5
2C7
100
AcDbEntity
  8
A1_DXF_CONTINUOUS_LINE
100
AcDbLine
 62
7
  6
CONTINUOUS
 10
186.4023074393
 20
326.1906483802
 11
184.3923074488
 21
326.1906483802
  0
LINE
  5
2C8
100
AcDbEntity
  8
A1_DXF_CONTINUOUS_LINE
100
AcDbLine
 62
7
  6
CONTINUOUS
 10
140.1723076586
 20
326.1906483802
 11
138.1623076682
 21
326.1906483802
  0
LINE
  5
2C9
100
AcDbEntity
  8
A1_DXF_CONTINUOUS_LINE
100
AcDbLine
 62
6
  6
CONTINUOUS
 10
186.3922321879
 20
326.3916483792
 11
185.2968074445
 21
326.3916483792
  0
LINE
  5
2CA
100
AcDbEntity
  8
A1_DXF_CONTINUOUS_LINE
100
AcDbLine
 62
6
  6
CONTINUOUS
 10
184.3923074488
 20
326.8941483768
 11
140.1723076586
 21
326.8941483768
  0
LINE
  5
2CB
100
AcDbEntity
  8
A1_DXF_CONTINUOUS_LINE
100
AcDbLine
 62
6
  6
CONTINUOUS
 10
184.3923074488
 20
328.1953254281
 11
140.1723076586
 21
328.1953254281
  0
LINE
  5
2CC
100
AcDbEntity
  8
A1_DXF_CONTINUOUS_LINE
100
AcDbLine
 62
6
  6
CONTINUOUS
 10
184.3923074488
 20
328.2006483706
 11
140.1723076586
 21
328.2006483706
  0
LINE
  5
2CD
100
AcDbEntity
  8
A1_DXF_CONTINUOUS_LINE
100
AcDbLine
 62
6
  6
CONTINUOUS
 10
170.8248072903
 20
324.0801485746
 11
170.8248072903
 21
322.873913388
  0
LINE
  5
2CE
100
AcDbEntity
  8
A1_DXF_CONTINUOUS_LINE
100
AcDbLine
 62
6
  6
CONTINUOUS
 10
171.076057512
 20
323.8891983911
 11
171.076057512
 21
322.8841983959
  0
LINE
  5
2CF
100
AcDbEntity
  8
A1_DXF_CONTINUOUS_LINE
100
AcDbLine
 62
7
  6
CONTINUOUS
 10
171.076057512
 20
322.8741483959
 11
171.076057512
 21
322.8841983959
  0
LINE
  5
2D0
100
AcDbEntity
  8
A1_DXF_CONTINUOUS_LINE
100
AcDbLine
 62
6
  6
CONTINUOUS
 10
177.3573074822
 20
328.2006483706
 11
177.3573074822
 21
326.8941483768
  0
LINE
  5
2D1
100
AcDbEntity
  8
A1_DXF_CONTINUOUS_LINE
100
AcDbLine
 62
6
  6
CONTINUOUS
 10
177.608557481
 20
323.8891983911
 11
177.608557481
 21
322.8841983959
  0
LINE
  5
2D2
100
AcDbEntity
  8
A1_DXF_CONTINUOUS_LINE
100
AcDbLine
 62
7
  6
CONTINUOUS
 10
177.608557481
 20
322.8841983959
 11
177.608557481
 21
322.8741483959
  0
LINE
  5
2D3
100
AcDbEntity
  8
A1_DXF_CONTINUOUS_LINE
100
AcDbLine
 62
6
  6
CONTINUOUS
 10
177.8598072569
 20
324.0801485746
 11
177.8598072569
 21
322.873913388
  0
LINE
  5
2D4
100
AcDbEntity
  8
A1_DXF_CONTINUOUS_LINE
100
AcDbLine
 62
6
  6
CONTINUOUS
 10
180.3723074679
 20
328.2006483706
 11
180.3723074679
 21
326.8941483768
  0
LINE
  5
2D5
100
AcDbEntity
  8
A1_DXF_CONTINUOUS_LINE
100
AcDbLine
 62
6
  6
CONTINUOUS
 10
184.1410572271
 20
314.1359715644
 11
184.1410572271
 21
316.6431486099
  0
LINE
  5
2D6
100
AcDbEntity
  8
A1_DXF_CONTINUOUS_LINE
100
AcDbLine
 62
7
  6
CONTINUOUS
 10
184.3923050754
 20
328.2002407952
 11
184.3923041527
 21
326.1906459647
  0
LINE
  5
2D7
100
AcDbEntity
  8
A1_DXF_CONTINUOUS_LINE
100
AcDbLine
 62
6
  6
CONTINUOUS
 10
184.3923041527
 20
326.1906459647
 11
184.3923074488
 21
322.8741483959
  0
LINE
  5
2D8
100
AcDbEntity
  8
A1_DXF_CONTINUOUS_LINE
100
AcDbLine
 62
6
  6
CONTINUOUS
 10
184.5933074479
 20
325.2861483845
 11
184.5933074479
 21
322.8741483959
  0
LINE
  5
2D9
100
AcDbEntity
  8
A1_DXF_CONTINUOUS_LINE
100
AcDbLine
 62
6
  6
CONTINUOUS
 10
184.6446233464
 20
325.2861545479
 11
184.3926344767
 21
316.6431545889
  0
LINE
  5
2DA
100
AcDbEntity
  8
A1_DXF_CONTINUOUS_LINE
100
AcDbLine
 62
6
  6
CONTINUOUS
 10
185.2968074445
 20
326.3916483792
 11
185.2968074445
 21
325.2861483845
  0
LINE
  5
2DB
100
AcDbEntity
  8
A1_DXF_CONTINUOUS_LINE
100
AcDbLine
 62
6
  6
CONTINUOUS
 10
185.3973074441
 20
325.2861483845
 11
185.3973074441
 21
322.8741483959
  0
LINE
  5
2DC
100
AcDbEntity
  8
A1_DXF_CONTINUOUS_LINE
100
AcDbLine
 62
6
  6
CONTINUOUS
 10
186.1510572176
 20
316.1406486123
 11
186.1510572176
 21
316.6431486099
  0
LINE
  5
2DD
100
AcDbEntity
  8
A1_DXF_CONTINUOUS_LINE
100
AcDbLine
 62
6
  6
CONTINUOUS
 10
186.4023074393
 20
325.2861483845
 11
186.4023074393
 21
326.1906483802
  0
LINE
  5
2DE
100
AcDbEntity
  8
A1_DXF_CONTINUOUS_LINE
100
AcDbLine
 62
6
  6
CONTINUOUS
 10
185.5480572204
 20
325.2861485689
 11
185.2813713992
 21
315.7386486142
  0
LINE
  5
2DF
100
AcDbEntity
  8
A1_DXF_CONTINUOUS_LINE
100
AcDbLine
 62
6
  6
CONTINUOUS
 10
187.1558531858
 20
325.2861545479
 11
186.903864316
 21
316.6431545889
  0
LINE
  5
2E0
100
AcDbEntity
  8
A1_DXF_CONTINUOUS_LINE
100
AcDbLine
 62
6
  6
CONTINUOUS
 10
382.1395380065
 20
148.1352839798
 11
373.4965380475
 21
148.3872728496
  0
LINE
  5
2E1
100
AcDbEntity
  8
A1_DXF_CONTINUOUS_LINE
100
AcDbLine
 62
6
  6
CONTINUOUS
 10
383.0440318388
 20
148.8888296937
 11
382.1395318431
 21
148.8888296937
  0
LINE
  5
2E2
100
AcDbEntity
  8
A1_DXF_CONTINUOUS_LINE
100
AcDbLine
 62
6
  6
CONTINUOUS
 10
373.4965320686
 20
149.140079948
 11
372.9940320709
 21
149.140079948
  0
LINE
  5
2E3
100
AcDbEntity
  8
A1_DXF_CONTINUOUS_LINE
100
AcDbLine
 62
7
  6
CONTINUOUS
 10
379.7375818545
 20
149.8938296889
 11
379.7275318546
 21
149.8938296889
  0
LINE
  5
2E4
100
AcDbEntity
  8
A1_DXF_CONTINUOUS_LINE
100
AcDbLine
 62
6
  6
CONTINUOUS
 10
382.1395318431
 20
149.8938296889
 11
379.7375818545
 21
149.8938296889
  0
LINE
  5
2E5
100
AcDbEntity
  8
A1_DXF_CONTINUOUS_LINE
100
AcDbLine
 62
6
  6
CONTINUOUS
 10
382.1395318431
 20
150.6978296851
 11
379.7275318546
 21
150.6978296851
  0
LINE
  5
2E6
100
AcDbEntity
  8
A1_DXF_CONTINUOUS_LINE
100
AcDbLine
 62
6
  6
CONTINUOUS
 10
382.1395320276
 20
149.7430799452
 11
372.5920320729
 21
150.0097657664
  0
LINE
  5
2E7
100
AcDbEntity
  8
A1_DXF_CONTINUOUS_LINE
100
AcDbLine
 62
7
  6
CONTINUOUS
 10
385.0540318293
 20
150.8988296842
 11
383.0440318388
 21
150.8988296842
  0
LINE
  5
2E8
100
AcDbEntity
  8
A1_DXF_CONTINUOUS_LINE
100
AcDbLine
 62
6
  6
CONTINUOUS
 10
383.0440318388
 20
150.8988296842
 11
379.7275318546
 21
150.8988296842
  0
LINE
  5
2E9
100
AcDbEntity
  8
A1_DXF_CONTINUOUS_LINE
100
AcDbLine
 62
7
  6
CONTINUOUS
 10
370.9840320805
 20
151.1500799385
 11
372.9940320709
 21
151.1500799385
  0
LINE
  5
2EA
100
AcDbEntity
  8
A1_DXF_CONTINUOUS_LINE
100
AcDbLine
 62
6
  6
CONTINUOUS
 10
372.9940320709
 20
151.1500799385
 11
373.4965320686
 21
151.1500799385
  0
LINE
  5
2EB
100
AcDbEntity
  8
A1_DXF_CONTINUOUS_LINE
100
AcDbLine
 62
6
  6
CONTINUOUS
 10
385.0540318293
 20
151.3008296823
 11
383.7475318355
 21
151.3008296823
  0
LINE
  5
2EC
100
AcDbEntity
  8
A1_DXF_CONTINUOUS_LINE
100
AcDbLine
 62
6
  6
CONTINUOUS
 10
382.1395320276
 20
151.6023299363
 11
373.0945320705
 21
151.6023299363
  0
LINE
  5
2ED
100
AcDbEntity
  8
A1_DXF_CONTINUOUS_LINE
100
AcDbLine
 62
6
  6
CONTINUOUS
 10
382.1395380065
 20
150.6465138191
 11
373.4965380475
 21
150.8985026889
  0
LINE
  5
2EE
100
AcDbEntity
  8
A1_DXF_CONTINUOUS_LINE
100
AcDbLine
 62
6
  6
CONTINUOUS
 10
385.0540318293
 20
154.3158296679
 11
383.7475318355
 21
154.3158296679
  0
LINE
  5
2EF
100
AcDbEntity
  8
A1_DXF_CONTINUOUS_LINE
100
AcDbLine
 62
6
  6
CONTINUOUS
 10
370.9840320805
 20
172.757579836
 11
370.9840320805
 21
151.1500799385
  0
LINE
  5
2F0
100
AcDbEntity
  8
A1_DXF_CONTINUOUS_LINE
100
AcDbLine
 62
6
  6
CONTINUOUS
 10
372.5920320729
 20
173.897894008
 11
372.5920320729
 21
150.0097657664
  0
LINE
  5
2F1
100
AcDbEntity
  8
A1_DXF_CONTINUOUS_LINE
100
AcDbLine
 62
7
  6
CONTINUOUS
 10
372.9940320709
 20
174.7675798264
 11
372.9940320709
 21
172.757579836
  0
LINE
  5
2F2
100
AcDbEntity
  8
A1_DXF_CONTINUOUS_LINE
100
AcDbLine
 62
6
  6
CONTINUOUS
 10
372.9940320709
 20
172.757579836
 11
372.9940320709
 21
151.1500799385
  0
LINE
  5
2F3
100
AcDbEntity
  8
A1_DXF_CONTINUOUS_LINE
100
AcDbLine
 62
7
  6
CONTINUOUS
 10
372.9940320709
 20
151.1500799385
 11
372.9940320709
 21
149.140079948
  0
LINE
  5
2F4
100
AcDbEntity
  8
A1_DXF_CONTINUOUS_LINE
100
AcDbLine
 62
6
  6
CONTINUOUS
 10
373.0945320705
 20
151.6023299363
 11
373.0945320705
 21
172.3053298381
  0
LINE
  5
2F5
100
AcDbEntity
  8
A1_DXF_CONTINUOUS_LINE
100
AcDbLine
 62
6
  6
CONTINUOUS
 10
373.4965320686
 20
175.5205909519
 11
373.4965320686
 21
148.3870688226
  0
LINE
  5
2F6
100
AcDbEntity
  8
A1_DXF_CONTINUOUS_LINE
100
AcDbLine
 62
6
  6
CONTINUOUS
 10
379.7275318546
 20
157.8333296513
 11
382.1395318431
 21
157.8333296513
  0
LINE
  5
2F7
100
AcDbEntity
  8
A1_DXF_CONTINUOUS_LINE
100
AcDbLine
 62
6
  6
CONTINUOUS
 10
379.928532038
 20
158.4363299039
 11
377.9185320476
 21
158.4363299039
  0
LINE
  5
2F8
100
AcDbEntity
  8
A1_DXF_CONTINUOUS_LINE
100
AcDbLine
 62
6
  6
CONTINUOUS
 10
383.2450318379
 20
159.994079641
 11
382.1395318431
 21
159.994079641
  0
LINE
  5
2F9
100
AcDbEntity
  8
A1_DXF_CONTINUOUS_LINE
100
AcDbLine
 62
6
  6
CONTINUOUS
 10
377.9185320476
 20
158.4363299039
 11
377.9185320476
 21
165.4713298705
  0
LINE
  5
2FA
100
AcDbEntity
  8
A1_DXF_CONTINUOUS_LINE
100
AcDbLine
 62
6
  6
CONTINUOUS
 10
379.7275318546
 20
157.8333296513
 11
379.7275318546
 21
149.8938296889
  0
LINE
  5
2FB
100
AcDbEntity
  8
A1_DXF_CONTINUOUS_LINE
100
AcDbLine
 62
6
  6
CONTINUOUS
 10
379.7275318546
 20
166.0743296122
 11
379.7275318546
 21
174.0138295745
  0
LINE
  5
2FC
100
AcDbEntity
  8
A1_DXF_CONTINUOUS_LINE
100
AcDbLine
 62
6
  6
CONTINUOUS
 10
379.928532038
 20
158.4363299039
 11
379.928532038
 21
157.8333299068
  0
LINE
  5
2FD
100
AcDbEntity
  8
A1_DXF_CONTINUOUS_LINE
100
AcDbLine
 62
6
  6
CONTINUOUS
 10
379.928532038
 20
165.4713298705
 11
379.928532038
 21
166.0743298677
  0
LINE
  5
2FE
100
AcDbEntity
  8
A1_DXF_CONTINUOUS_LINE
100
AcDbLine
 62
6
  6
CONTINUOUS
 10
383.2450318379
 20
163.9135796224
 11
382.1395318431
 21
163.9135796224
  0
LINE
  5
2FF
100
AcDbEntity
  8
A1_DXF_CONTINUOUS_LINE
100
AcDbLine
 62
7
  6
CONTINUOUS
 10
382.1395320276
 20
175.7728508234
 11
382.1395320276
 21
173.2611470021
  0
LINE
  5
300
100
AcDbEntity
  8
A1_DXF_CONTINUOUS_LINE
100
AcDbLine
 62
7
  6
CONTINUOUS
 10
382.1395320276
 20
150.6465127723
 11
382.1395320276
 21
148.1347296373
  0
LINE
  5
301
100
AcDbEntity
  8
A1_DXF_CONTINUOUS_LINE
100
AcDbLine
 62
6
  6
CONTINUOUS
 10
382.1395320276
 20
150.6465127723
 11
382.1395320276
 21
173.2611470021
  0
LINE
  5
302
100
AcDbEntity
  8
A1_DXF_CONTINUOUS_LINE
100
AcDbLine
 62
6
  6
CONTINUOUS
 10
379.928532038
 20
165.4713298705
 11
377.9185320476
 21
165.4713298705
  0
LINE
  5
303
100
AcDbEntity
  8
A1_DXF_CONTINUOUS_LINE
100
AcDbLine
 62
6
  6
CONTINUOUS
 10
382.1395318431
 20
166.0743296122
 11
379.7275318546
 21
166.0743296122
  0
LINE
  5
304
100
AcDbEntity
  8
A1_DXF_CONTINUOUS_LINE
100
AcDbLine
 62
7
  6
CONTINUOUS
 10
383.0440318388
 20
175.0188295697
 11
383.0440318388
 21
173.0088295793
  0
LINE
  5
305
100
AcDbEntity
  8
A1_DXF_CONTINUOUS_LINE
100
AcDbLine
 62
6
  6
CONTINUOUS
 10
383.0440306896
 20
173.0088295793
 11
383.0440318388
 21
150.8988296842
  0
LINE
  5
306
100
AcDbEntity
  8
A1_DXF_CONTINUOUS_LINE
100
AcDbLine
 62
7
  6
CONTINUOUS
 10
383.0440318388
 20
150.8988296842
 11
383.0440318388
 21
148.8888296937
  0
LINE
  5
307
100
AcDbEntity
  8
A1_DXF_CONTINUOUS_LINE
100
AcDbLine
 62
6
  6
CONTINUOUS
 10
383.2446921975
 20
163.9135796224
 11
383.2446921975
 21
159.994079641
  0
LINE
  5
308
100
AcDbEntity
  8
A1_DXF_CONTINUOUS_LINE
100
AcDbLine
 62
6
  6
CONTINUOUS
 10
383.7475318355
 20
173.0088295793
 11
383.7475318355
 21
150.8988296842
  0
LINE
  5
309
100
AcDbEntity
  8
A1_DXF_CONTINUOUS_LINE
100
AcDbLine
 62
6
  6
CONTINUOUS
 10
385.053830461
 20
173.0088295793
 11
385.053830461
 21
150.8988296842
  0
LINE
  5
30A
100
AcDbEntity
  8
A1_DXF_CONTINUOUS_LINE
100
AcDbLine
 62
6
  6
CONTINUOUS
 10
385.0540318293
 20
169.5918295955
 11
383.7475318355
 21
169.5918295955
  0
LINE
  5
30B
100
AcDbEntity
  8
A1_DXF_CONTINUOUS_LINE
100
AcDbLine
 62
6
  6
CONTINUOUS
 10
373.0945320705
 20
172.3053298381
 11
382.1395320276
 21
172.3053298381
  0
LINE
  5
30C
100
AcDbEntity
  8
A1_DXF_CONTINUOUS_LINE
100
AcDbLine
 62
6
  6
CONTINUOUS
 10
373.4965380475
 20
173.0091570855
 11
382.1395380065
 21
173.2611459553
  0
LINE
  5
30D
100
AcDbEntity
  8
A1_DXF_CONTINUOUS_LINE
100
AcDbLine
 62
6
  6
CONTINUOUS
 10
385.0540318293
 20
172.6068295812
 11
383.7475318355
 21
172.6068295812
  0
LINE
  5
30E
100
AcDbEntity
  8
A1_DXF_CONTINUOUS_LINE
100
AcDbLine
 62
6
  6
CONTINUOUS
 10
373.4965320686
 20
172.757579836
 11
372.9940320709
 21
172.757579836
  0
LINE
  5
30F
100
AcDbEntity
  8
A1_DXF_CONTINUOUS_LINE
100
AcDbLine
 62
7
  6
CONTINUOUS
 10
370.9840320805
 20
172.757579836
 11
372.9940320709
 21
172.757579836
  0
LINE
  5
310
100
AcDbEntity
  8
A1_DXF_CONTINUOUS_LINE
100
AcDbLine
 62
7
  6
CONTINUOUS
 10
385.0540318293
 20
173.0088295793
 11
383.0440318388
 21
173.0088295793
  0
LINE
  5
311
100
AcDbEntity
  8
A1_DXF_CONTINUOUS_LINE
100
AcDbLine
 62
6
  6
CONTINUOUS
 10
383.0440318388
 20
173.0088295793
 11
379.7275318546
 21
173.0088295793
  0
LINE
  5
312
100
AcDbEntity
  8
A1_DXF_CONTINUOUS_LINE
100
AcDbLine
 62
6
  6
CONTINUOUS
 10
379.7275318546
 20
173.2098295783
 11
382.1395318431
 21
173.2098295783
  0
LINE
  5
313
100
AcDbEntity
  8
A1_DXF_CONTINUOUS_LINE
100
AcDbLine
 62
6
  6
CONTINUOUS
 10
372.5920320729
 20
173.897894008
 11
382.1395320276
 21
174.1645798293
  0
LINE
  5
314
100
AcDbEntity
  8
A1_DXF_CONTINUOUS_LINE
100
AcDbLine
 62
7
  6
CONTINUOUS
 10
379.7375818545
 20
174.0138295745
 11
379.7275318546
 21
174.0138295745
  0
LINE
  5
315
100
AcDbEntity
  8
A1_DXF_CONTINUOUS_LINE
100
AcDbLine
 62
6
  6
CONTINUOUS
 10
382.1395318431
 20
174.0138295745
 11
379.7375818545
 21
174.0138295745
  0
LINE
  5
316
100
AcDbEntity
  8
A1_DXF_CONTINUOUS_LINE
100
AcDbLine
 62
6
  6
CONTINUOUS
 10
372.9940320709
 20
174.7675798264
 11
373.4965320686
 21
174.7675798264
  0
LINE
  5
317
100
AcDbEntity
  8
A1_DXF_CONTINUOUS_LINE
100
AcDbLine
 62
6
  6
CONTINUOUS
 10
383.0440318388
 20
175.0188295697
 11
382.1395318431
 21
175.0188295697
  0
LINE
  5
318
100
AcDbEntity
  8
A1_DXF_CONTINUOUS_LINE
100
AcDbLine
 62
6
  6
CONTINUOUS
 10
382.1395380065
 20
175.7723757946
 11
373.4965380475
 21
175.5203869248
  0
ARC
  5
319
100
AcDbEntity
  8
A1_DXF_CONTINUOUS_LINE
100
AcDbCircle
 62
7
  6
CONTINUOUS
 10
140.1723076586
 20
150.8988296842
 40
2.0099999905
100
AcDbArc
 50
180.0
 51
270.0
  0
ARC
  5
31A
100
AcDbEntity
  8
A1_DXF_CONTINUOUS_LINE
100
AcDbCircle
 62
7
  6
CONTINUOUS
 10
140.4235574345
 20
151.1500799385
 40
2.0099999905
100
AcDbArc
 50
180.0
 51
270.0
  0
ARC
  5
31B
100
AcDbEntity
  8
A1_DXF_CONTINUOUS_LINE
100
AcDbCircle
 62
7
  6
CONTINUOUS
 10
184.1410572271
 20
151.1500799385
 40
2.0099999905
100
AcDbArc
 50
270.0
 51
360.0
  0
ARC
  5
31C
100
AcDbEntity
  8
A1_DXF_CONTINUOUS_LINE
100
AcDbCircle
 62
7
  6
CONTINUOUS
 10
184.3923074488
 20
150.8988296842
 40
2.0099999905
100
AcDbArc
 50
270.0
 51
360.0
  0
ARC
  5
31D
100
AcDbEntity
  8
A1_DXF_CONTINUOUS_LINE
100
AcDbCircle
 62
7
  6
CONTINUOUS
 10
140.1723076586
 20
173.0088295793
 40
2.0099999905
100
AcDbArc
 50
90.0
 51
180.0
  0
ARC
  5
31E
100
AcDbEntity
  8
A1_DXF_CONTINUOUS_LINE
100
AcDbCircle
 62
7
  6
CONTINUOUS
 10
184.3923074488
 20
173.0088295793
 40
2.0099999905
100
AcDbArc
 50
0.0
 51
90.0
  0
ARC
  5
31F
100
AcDbEntity
  8
A1_DXF_CONTINUOUS_LINE
100
AcDbCircle
 62
7
  6
CONTINUOUS
 10
184.1410572271
 20
172.757579836
 40
2.0099999905
100
AcDbArc
 50
0.0
 51
90.0
  0
ARC
  5
320
100
AcDbEntity
  8
A1_DXF_CONTINUOUS_LINE
100
AcDbCircle
 62
7
  6
CONTINUOUS
 10
140.4235574345
 20
172.757579836
 40
2.0099999905
100
AcDbArc
 50
90.0
 51
180.0
  0
CIRCLE
  5
321
100
AcDbEntity
  8
A1_DXF_CONTINUOUS_LINE
100
AcDbCircle
 62
6
  6
CONTINUOUS
 10
178.864807475
 20
171.0993295883
 40
1.5074999929
  0
CIRCLE
  5
322
100
AcDbEntity
  8
A1_DXF_CONTINUOUS_LINE
100
AcDbCircle
 62
6
  6
CONTINUOUS
 10
178.864807475
 20
152.8083296751
 40
1.5074999928
  0
ARC
  5
323
100
AcDbEntity
  8
A1_DXF_CONTINUOUS_LINE
100
AcDbCircle
 62
6
  6
CONTINUOUS
 10
184.5933074479
 20
150.6978296851
 40
0.8039999962
100
AcDbArc
 50
270.0
 51
359.9999999998
  0
ARC
  5
324
100
AcDbEntity
  8
A1_DXF_CONTINUOUS_LINE
100
AcDbCircle
 62
6
  6
CONTINUOUS
 10
184.5933074479
 20
173.2098295783
 40
0.8039999962
100
AcDbArc
 50
0.0000000002
 51
90.0
  0
ARC
  5
325
100
AcDbEntity
  8
A1_DXF_CONTINUOUS_LINE
100
AcDbCircle
 62
7
  6
CONTINUOUS
 10
140.4235574345
 20
316.1406486123
 40
2.0099999905
100
AcDbArc
 50
180.0
 51
270.0
  0
ARC
  5
326
100
AcDbEntity
  8
A1_DXF_CONTINUOUS_LINE
100
AcDbCircle
 62
7
  6
CONTINUOUS
 10
184.1410572271
 20
316.1406486123
 40
2.0099999905
100
AcDbArc
 50
270.0
 51
360.0
  0
ARC
  5
327
100
AcDbEntity
  8
A1_DXF_CONTINUOUS_LINE
100
AcDbCircle
 62
7
  6
CONTINUOUS
 10
140.1723076586
 20
326.1906483802
 40
2.0099999905
100
AcDbArc
 50
90.0
 51
180.0
  0
ARC
  5
328
100
AcDbEntity
  8
A1_DXF_CONTINUOUS_LINE
100
AcDbCircle
 62
7
  6
CONTINUOUS
 10
383.0440318388
 20
173.0088295793
 40
2.0099999905
100
AcDbArc
 50
0.0
 51
90.0
  0
ARC
  5
329
100
AcDbEntity
  8
A1_DXF_CONTINUOUS_LINE
100
AcDbCircle
 62
6
  6
CONTINUOUS
 10
380.3305320361
 20
149.7936098902
 40
0.6032351895
100
AcDbArc
 50
178.4
 51
358.4000000005
  0
ARC
  5
32A
100
AcDbEntity
  8
A1_DXF_CONTINUOUS_LINE
100
AcDbCircle
 62
6
  6
CONTINUOUS
 10
380.3305320361
 20
174.1140498842
 40
0.6032351895
100
AcDbArc
 50
1.5999999991
 51
181.6000000003
  0
ARC
  5
32B
100
AcDbEntity
  8
A1_DXF_CONTINUOUS_LINE
100
AcDbCircle
 62
6
  6
CONTINUOUS
 10
380.2400818521
 20
174.0138295745
 40
0.5024999976
100
AcDbArc
 50
0.0000000001
 51
179.9999999999
  0
ARC
  5
32C
100
AcDbEntity
  8
A1_DXF_CONTINUOUS_LINE
100
AcDbCircle
 62
6
  6
CONTINUOUS
 10
380.2400818521
 20
149.8938296889
 40
0.5024999976
100
AcDbArc
 50
179.9999999993
 51
360.0
  0
SPLINE
  5
32D
100
AcDbEntity
  8
A1_DXF_CONTINUOUS_LINE
100
AcDbSpline
 62
7
  6
CONTINUOUS
 70
0
 71
3
 72
14
 73
10
 74
8
 42
0.0000001
 43
0.0000001
 44
0.0000000001
 12
-0.0181875376
 22
-3.1045011775
 32
0.0
 13
-3.1045061786
 23
-0.0173128417
 33
0.0
 40
0.0
 40
0.0
 40
0.0
 40
0.0
 40
0.1351059835
 40
0.2758032393
 40
0.4172954149
 40
0.5644269819
 40
0.7082352406
 40
0.8552309221
 40
1.0
 40
1.0
 40
1.0
 40
1.0
 10
186.402106071
 20
150.8988296842
 30
0.0
 10
186.4012869893
 20
150.7590174558
 30
0.0
 10
186.3641405313
 20
150.4729395726
 30
0.0
 10
186.2135183243
 20
150.0647257405
 30
0.0
 10
185.9731443787
 20
149.6871464934
 30
0.0
 10
185.6556127795
 20
149.3667389169
 30
0.0
 10
185.2715951163
 20
149.1193862761
 30
0.0
 10
184.8447232176
 20
148.9633899245
 30
0.0
 10
184.5419112839
 20
148.9262944465
 30
0.0
 10
184.3920991183
 20
148.9254589918
 30
0.0
 11
186.402106071
 21
150.8988296842
 31
0.0
 11
186.3499186442
 21
150.4826450578
 31
0.0
 11
186.1998491905
 21
150.0724312098
 31
0.0
 11
185.9642048425
 21
149.701715661
 31
0.0
 11
185.6425629914
 21
149.3773815346
 31
0.0
 11
185.2670550641
 21
149.13588446
 31
0.0
 11
184.8382575691
 21
148.9796999671
 31
0.0
 11
184.3920991183
 21
148.9254589918
 31
0.0
  0
SPLINE
  5
32E
100
AcDbEntity
  8
A1_DXF_CONTINUOUS_LINE
100
AcDbSpline
 62
7
  6
CONTINUOUS
 70
0
 71
3
 72
14
 73
10
 74
8
 42
0.0000001
 43
0.0000001
 44
0.0000000001
 12
-0.0777489642
 22
1.9721017058
 32
0.0
 13
0.0132922773
 23
1.9733578219
 33
0.0
 40
0.0
 40
0.0
 40
0.0
 40
0.0
 40
0.0246820044
 40
0.0983433043
 40
0.2174198043
 40
0.3869772879
 40
0.5840263587
 40
0.7966461567
 40
1.0
 40
1.0
 40
1.0
 40
1.0
 10
184.3920991183
 20
148.9254589918
 30
0.0
 10
184.3914594515
 20
148.9416841328
 30
0.0
 10
184.3895205426
 20
149.0063451576
 30
0.0
 10
184.3893258618
 20
149.1493840512
 30
0.0
 10
184.3898930348
 20
149.3876907367
 30
0.0
 10
184.3906680682
 20
149.7071770453
 30
0.0
 10
184.3925419363
 20
150.0881882421
 30
0.0
 10
184.3918070374
 20
150.4914347816
 30
0.0
 10
184.3914052877
 20
150.7650663851
 30
0.0
 10
184.3923062996
 20
150.8988296842
 30
0.0
 11
184.3920991183
 21
148.9254589918
 31
0.0
 11
184.3906027896
 21
148.9741435337
 31
0.0
 11
184.3894358072
 21
149.1195022491
 31
0.0
 11
184.3898154934
 21
149.3544878158
 31
0.0
 11
184.3907527591
 21
149.6890916803
 31
0.0
 11
184.3920713156
 21
150.0779465912
 31
0.0
 11
184.3918212519
 21
150.4975309764
 31
0.0
 11
184.3923062996
 21
150.8988296842
 31
0.0
  0
SPLINE
  5
32F
100
AcDbEntity
  8
A1_DXF_CONTINUOUS_LINE
100
AcDbSpline
 62
7
  6
CONTINUOUS
 70
0
 71
3
 72
14
 73
10
 74
8
 42
0.0000001
 43
0.0000001
 44
0.0000000001
 12
3.1044792234
 22
-0.0181956959
 32
0.0
 13
0.0173124372
 23
-3.1044842746
 33
0.0
 40
0.0
 40
0.0
 40
0.0
 40
0.0
 40
0.1350989747
 40
0.2758001227
 40
0.4172911872
 40
0.5644215789
 40
0.7082309785
 40
0.8552289017
 40
1.0
 40
1.0
 40
1.0
 40
1.0
 10
184.3923050754
 20
175.0184219943
 30
0.0
 10
184.5321090621
 20
175.0176025877
 30
0.0
 10
184.818225353
 20
174.9807871331
 30
0.0
 10
185.2263980773
 20
174.8299881483
 30
0.0
 10
185.6039928117
 20
174.5896771679
 30
0.0
 10
185.9244004059
 20
174.2721393078
 30
0.0
 10
186.171751652
 20
173.8881247302
 30
0.0
 10
186.3277470847
 20
173.4612491166
 30
0.0
 10
186.3648427065
 20
173.1584351486
 30
0.0
 10
186.3656781533
 20
173.0086219492
 30
0.0
 11
184.3923050754
 21
175.0184219943
 31
0.0
 11
184.8084922211
 21
174.9664537843
 31
0.0
 11
185.2187057731
 21
174.816357323
 31
0.0
 11
185.5894214553
 21
174.5807253937
 31
0.0
 11
185.9137556888
 21
174.2590934091
 31
0.0
 11
186.1552527663
 21
173.8835850182
 31
0.0
 11
186.3114372191
 21
173.4547835289
 31
0.0
 11
186.3656781533
 21
173.0086219492
 31
0.0
  0
SPLINE
  5
330
100
AcDbEntity
  8
A1_DXF_CONTINUOUS_LINE
100
AcDbSpline
 62
7
  6
CONTINUOUS
 70
0
 71
3
 72
14
 73
10
 74
8
 42
0.0000001
 43
0.0000001
 44
0.0000000001
 12
-1.97210671
 22
-0.0776655914
 32
0.0
 13
-1.9733601476
 23
0.0132923072
 33
0.0
 40
0.0
 40
0.0
 40
0.0
 40
0.0
 40
0.0246819322
 40
0.0983431229
 40
0.2174194806
 40
0.3869768144
 40
0.584025723
 40
0.7966451295
 40
1.0
 40
1.0
 40
1.0
 40
1.0
 10
186.3656781533
 20
173.0086219492
 30
0.0
 10
186.3494530186
 20
173.0079829702
 30
0.0
 10
186.2847919777
 20
173.0060460084
 30
0.0
 10
186.1417531785
 20
173.005850464
 30
0.0
 10
185.9034464465
 20
173.0064167498
 30
0.0
 10
185.5839600659
 20
173.0071896761
 30
0.0
 10
185.2029488792
 20
173.009063484
 30
0.0
 10
184.7997015545
 20
173.0083300508
 30
0.0
 10
184.5260692078
 20
173.0079261453
 30
0.0
 10
184.3923050754
 20
173.0088271638
 30
0.0
 11
186.3656781533
 21
173.0086219492
 31
0.0
 11
186.3169936499
 21
173.0071271392
 31
0.0
 11
186.1716349747
 21
173.0059606327
 31
0.0
 11
185.9366494103
 21
173.0063392391
 31
0.0
 11
185.6020454424
 21
173.0072748184
 31
0.0
 11
185.2131903922
 21
173.008593102
 31
0.0
 11
184.7936062848
 21
173.008343466
 31
0.0
 11
184.3923050754
 21
173.0088271638
 31
0.0
  0
SPLINE
  5
331
100
AcDbEntity
  8
A1_DXF_CONTINUOUS_LINE
100
AcDbSpline
 62
7
  6
CONTINUOUS
 70
0
 71
3
 72
14
 73
10
 74
8
 42
0.0000001
 43
0.0000001
 44
0.0000000001
 12
-3.1044792236
 22
0.018195696
 32
0.0
 13
-0.0173124371
 23
3.1044842748
 33
0.0
 40
0.0
 40
0.0
 40
0.0
 40
0.0
 40
0.1350989748
 40
0.275800123
 40
0.4172911875
 40
0.5644215792
 40
0.7082309786
 40
0.8552289016
 40
1.0
 40
1.0
 40
1.0
 40
1.0
 10
140.1723100321
 20
148.8892372691
 30
0.0
 10
140.0325060453
 20
148.8900566758
 30
0.0
 10
139.7463897541
 20
148.9268721304
 30
0.0
 10
139.3382170295
 20
149.0776711155
 30
0.0
 10
138.9606222949
 20
149.317982096
 30
0.0
 10
138.6402147008
 20
149.6355199559
 30
0.0
 10
138.3928634551
 20
150.0195345334
 30
0.0
 10
138.2368680227
 20
150.4464101469
 30
0.0
 10
138.199772401
 20
150.7492241148
 30
0.0
 10
138.1989369541
 20
150.8990373143
 30
0.0
 11
140.1723100321
 21
148.8892372691
 31
0.0
 11
139.7561228861
 21
148.9412054793
 31
0.0
 11
139.3459093335
 21
149.0913019408
 31
0.0
 11
138.9751936512
 21
149.3269338702
 31
0.0
 11
138.6508594179
 21
149.6485658546
 31
0.0
 11
138.4093623408
 21
150.0240742452
 31
0.0
 11
138.2531778883
 21
150.4528757344
 31
0.0
 11
138.1989369541
 21
150.8990373143
 31
0.0
  0
SPLINE
  5
332
100
AcDbEntity
  8
A1_DXF_CONTINUOUS_LINE
100
AcDbSpline
 62
7
  6
CONTINUOUS
 70
0
 71
3
 72
14
 73
10
 74
8
 42
0.0000001
 43
0.0000001
 44
0.0000000001
 12
1.9721067067
 22
0.0776656838
 32
0.0
 13
1.9733601479
 23
-0.0132922906
 33
0.0
 40
0.0
 40
0.0
 40
0.0
 40
0.0
 40
0.0246819322
 40
0.0983431229
 40
0.2174194805
 40
0.3869768144
 40
0.5840257231
 40
0.7966451295
 40
1.0
 40
1.0
 40
1.0
 40
1.0
 10
138.1989369541
 20
150.8990373143
 30
0.0
 10
138.2151620888
 20
150.899676294
 30
0.0
 10
138.2798231296
 20
150.9016132585
 30
0.0
 10
138.4228619289
 20
150.9018088064
 30
0.0
 10
138.6611686609
 20
150.9012425209
 30
0.0
 10
138.9806550416
 20
150.9004695924
 30
0.0
 10
139.3616662283
 20
150.89859578
 30
0.0
 10
139.764913553
 20
150.8993292104
 30
0.0
 10
140.0385458997
 20
150.899733117
 30
0.0
 10
140.1723100321
 20
150.8988320996
 30
0.0
 11
138.1989369541
 21
150.8990373143
 31
0.0
 11
138.2476214575
 21
150.9005321263
 31
0.0
 11
138.3929801327
 21
150.9016986365
 31
0.0
 11
138.627965697
 21
150.9013200313
 31
0.0
 11
138.9625696651
 21
150.90038445
 31
0.0
 11
139.3514247153
 21
150.8990661624
 31
0.0
 11
139.7710088227
 21
150.8993157959
 31
0.0
 11
140.1723100321
 21
150.8988320996
 31
0.0
  0
SPLINE
  5
333
100
AcDbEntity
  8
A1_DXF_CONTINUOUS_LINE
100
AcDbSpline
 62
7
  6
CONTINUOUS
 70
0
 71
3
 72
14
 73
10
 74
8
 42
0.0000001
 43
0.0000001
 44
0.0000000001
 12
0.0173215545
 22
3.1044814948
 32
0.0
 13
3.1044779541
 23
0.0179449253
 33
0.0
 40
0.0
 40
0.0
 40
0.0
 40
0.0
 40
0.1369304881
 40
0.2797942304
 40
0.4238003451
 40
0.5775303953
 40
0.7261729625
 40
0.8697997016
 40
1.0
 40
1.0
 40
1.0
 40
1.0
 10
138.1989369541
 20
173.0086219487
 30
0.0
 10
138.1997275704
 20
173.1503213374
 30
0.0
 10
138.2334335834
 20
173.4405985827
 30
0.0
 10
138.3787121219
 20
173.8580616277
 30
0.0
 10
138.6205558694
 20
174.2488479839
 30
0.0
 10
138.9473903577
 20
174.5810438272
 30
0.0
 10
139.3393395414
 20
174.83183646
 30
0.0
 10
139.7535775237
 20
174.9823686733
 30
0.0
 10
140.0375753801
 20
175.0176431828
 30
0.0
 10
140.1723100321
 20
175.0184219943
 30
0.0
 11
138.1989369541
 21
173.0086219487
 31
0.0
 11
138.2476180635
 21
173.430930161
 31
0.0
 11
138.3929837876
 21
173.8499564232
 31
0.0
 11
138.6279851658
 21
174.2302813878
 31
0.0
 11
138.9625749441
 21
174.5706140695
 31
0.0
 11
139.3514360277
 21
174.819083915
 31
0.0
 11
139.7710083838
 21
174.970014516
 31
0.0
 11
140.1723100321
 21
175.0184219943
 31
0.0
  0
SPLINE
  5
334
100
AcDbEntity
  8
A1_DXF_CONTINUOUS_LINE
100
AcDbSpline
 62
7
  6
CONTINUOUS
 70
0
 71
3
 72
14
 73
10
 74
8
 42
0.0000001
 43
0.0000001
 44
0.0000000001
 12
-1.9733604957
 22
0.0133595026
 32
0.0
 13
-1.9721231283
 23
0.0780841421
 33
0.0
 40
0.0
 40
0.0
 40
0.0
 40
0.0
 40
0.2109060016
 40
0.4187882711
 40
0.6066396778
 40
0.7709889992
 40
0.8933573384
 40
0.9724999405
 40
1.0
 40
1.0
 40
1.0
 40
1.0
 10
140.1723100321
 20
173.0088271638
 30
0.0
 10
140.0335788415
 20
173.0097663636
 30
0.0
 10
139.7580951477
 20
173.007531656
 30
0.0
 10
139.3590467797
 20
173.0091751719
 30
0.0
 10
138.9906270741
 20
173.00724424
 30
0.0
 10
138.678451122
 20
173.0065064949
 30
0.0
 10
138.4377998959
 20
173.0058627574
 30
0.0
 10
138.2871338513
 20
173.0058424205
 30
0.0
 10
138.2170147886
 20
173.0079061758
 30
0.0
 10
138.1989369541
 20
173.0086219487
 30
0.0
 11
140.1723100321
 21
173.0088271638
 31
0.0
 11
139.7561071739
 21
173.0083700519
 31
0.0
 11
139.3458711575
 21
173.0085571035
 31
0.0
 11
138.9751660735
 21
173.0073528829
 31
0.0
 11
138.6508395192
 21
173.0064219245
 31
0.0
 11
138.40935768
 21
173.0059108495
 31
0.0
 11
138.253180874
 21
173.0069796744
 31
0.0
 11
138.1989369541
 21
173.0086219487
 31
0.0
  0
SPLINE
  5
335
100
AcDbEntity
  8
A1_DXF_CONTINUOUS_LINE
100
AcDbSpline
 62
7
  6
CONTINUOUS
 70
0
 71
3
 72
14
 73
10
 74
8
 42
0.0000001
 43
0.0000001
 44
0.0000000001
 12
3.9370128752
 22
-0.0608261331
 32
0.0
 13
-0.1652724092
 23
3.9340126116
 33
0.0
 40
0.0
 40
0.0
 40
0.0
 40
0.0
 40
0.1383506538
 40
0.2829462455
 40
0.4305280188
 40
0.580530385
 40
0.7295942152
 40
0.8701036251
 40
1.0
 40
1.0
 40
1.0
 40
1.0
 10
184.6446243932
 20
148.1350799528
 30
0.0
 10
184.8261871617
 20
148.132274841
 30
0.0
 10
185.1993989661
 20
148.1730839496
 30
0.0
 10
185.7368849916
 20
148.3618451389
 30
0.0
 10
186.2314413535
 20
148.6754432913
 30
0.0
 10
186.6450153485
 20
149.0978958058
 30
0.0
 10
186.9509576579
 20
149.5929416917
 30
0.0
 10
187.1287250007
 20
150.118653832
 30
0.0
 10
187.1632133084
 20
150.47617478
 30
0.0
 10
187.1560572128
 20
150.6465127723
 30
0.0
 11
184.6446243932
 21
148.1350799528
 31
0.0
 11
185.186386748
 21
148.1920862581
 31
0.0
 11
185.7238554665
 21
148.3799117697
 31
0.0
 11
186.2146448142
 21
148.6910448923
 31
0.0
 11
186.6285832934
 21
149.1123532949
 31
0.0
 11
186.9360242709
 21
149.6123275086
 31
0.0
 11
187.1115930209
 21
150.1369844534
 31
0.0
 11
187.1560572128
 21
150.6465127723
 31
0.0
  0
SPLINE
  5
336
100
AcDbEntity
  8
A1_DXF_CONTINUOUS_LINE
100
AcDbSpline
 62
7
  6
CONTINUOUS
 70
0
 71
3
 72
14
 73
10
 74
8
 42
0.0000001
 43
0.0000001
 44
0.0000000001
 12
-0.1618629126
 22
-3.9348458166
 32
0.0
 13
3.9375619916
 23
0.0694029209
 33
0.0
 40
0.0
 40
0.0
 40
0.0
 40
0.0
 40
0.1304037942
 40
0.2711304556
 40
0.4202182756
 40
0.5702807789
 40
0.7178538528
 40
0.8621743139
 40
1.0
 40
1.0
 40
1.0
 40
1.0
 10
137.4085574489
 20
150.6465127723
 30
0.0
 10
137.4015216029
 20
150.4754731643
 30
0.0
 10
137.4361376182
 20
150.116945708
 30
0.0
 10
137.6145415641
 20
149.5902767004
 30
0.0
 10
137.9211070592
 20
149.0950191882
 30
0.0
 10
138.3352730744
 20
148.6728531112
 30
0.0
 10
138.8299795262
 20
148.3598389685
 30
0.0
 10
139.3667912343
 20
148.1720807133
 30
0.0
 10
139.7390912074
 20
148.1318914511
 30
0.0
 10
139.9199902684
 20
148.1350799528
 30
0.0
 11
137.4085574489
 21
150.6465127723
 31
0.0
 11
137.4534396727
 21
150.1349250067
 31
0.0
 11
137.6296047355
 21
149.6094631298
 31
0.0
 11
137.9375307508
 21
149.1095555702
 31
0.0
 11
138.3521255046
 21
148.6884150757
 31
0.0
 11
138.8433089278
 21
148.3777777748
 31
0.0
 11
139.3800952606
 21
148.1909826528
 31
0.0
 11
139.9199902684
 21
148.1350799528
 31
0.0
  0
SPLINE
  5
337
100
AcDbEntity
  8
A1_DXF_CONTINUOUS_LINE
100
AcDbSpline
 62
6
  6
CONTINUOUS
 70
0
 71
3
 72
14
 73
10
 74
8
 42
0.0000001
 43
0.0000001
 44
0.0000000001
 12
0.0200119441
 22
-3.9004556081
 32
0.0
 13
3.9004556081
 23
-0.0200119441
 33
0.0
 40
0.0
 40
0.0
 40
0.0
 40
0.0
 40
0.1317923072
 40
0.2729244023
 40
0.4225168222
 40
0.5761436065
 40
0.7263501747
 40
0.8681584348
 40
1.0
 40
1.0
 40
1.0
 40
1.0
 10
137.6605463186
 20
150.8985016421
 30
0.0
 10
137.6614254587
 20
150.7271516275
 30
0.0
 10
137.7061574009
 20
150.3713969072
 30
0.0
 10
137.8972675019
 20
149.8517155145
 30
0.0
 10
138.2122618706
 20
149.3619507751
 30
0.0
 10
138.6318807968
 20
148.9415488738
 30
0.0
 10
139.1226176263
 20
148.6248803414
 30
0.0
 10
139.6438665687
 20
148.4328141356
 30
0.0
 10
140.0005650807
 20
148.3879482912
 30
0.0
 10
140.1719791382
 20
148.3870688226
 30
0.0
 11
137.6605463186
 21
150.8985016421
 31
0.0
 11
137.7229816693
 21
150.3882504975
 31
0.0
 11
137.9110191963
 21
149.8708748952
 31
0.0
 11
138.2253839786
 21
149.3793151184
 31
0.0
 11
138.6486979572
 21
148.9552011156
 31
0.0
 11
139.1418007113
 21
148.6388040338
 31
0.0
 11
139.6615399316
 21
148.4495491354
 31
0.0
 11
140.1719791382
 21
148.3870688226
 31
0.0
  0
SPLINE
  5
338
100
AcDbEntity
  8
A1_DXF_CONTINUOUS_LINE
100
AcDbSpline
 62
7
  6
CONTINUOUS
 70
0
 71
3
 72
14
 73
10
 74
8
 42
0.0000001
 43
0.0000001
 44
0.0000000001
 12
-3.9004085318
 22
0.0199446792
 32
0.0
 13
-0.0199400095
 23
3.9004085557
 33
0.0
 40
0.0
 40
0.0
 40
0.0
 40
0.0
 40
0.1317878318
 40
0.2729216421
 40
0.4225158808
 40
0.5761445332
 40
0.7263529279
 40
0.8681629118
 40
1.0
 40
1.0
 40
1.0
 40
1.0
 10
139.9199913152
 20
148.1352839798
 30
0.0
 10
139.7486491874
 20
148.1361601352
 30
0.0
 10
139.3928658838
 20
148.1805948131
 30
0.0
 10
138.8732072261
 20
148.3718301607
 30
0.0
 10
138.3834405521
 20
148.6867875489
 30
0.0
 10
137.9630295463
 20
149.106415592
 30
0.0
 10
137.6463981308
 20
149.5971543617
 30
0.0
 10
137.4542061905
 20
150.1183804906
 30
0.0
 10
137.4096377535
 20
150.4751076502
 30
0.0
 10
137.4087614759
 20
150.6465138191
 30
0.0
 11
139.9199913152
 21
148.1352839798
 31
0.0
 11
139.4097391288
 21
148.1975153061
 31
0.0
 11
138.8923635292
 21
148.3855528347
 31
0.0
 11
138.4008037529
 21
148.6999176181
 31
0.0
 11
137.9766897487
 21
149.1232315976
 31
0.0
 11
137.6602926649
 21
149.6163343519
 31
0.0
 11
137.4710377644
 21
150.1360735704
 31
0.0
 11
137.4087614759
 21
150.6465138191
 31
0.0
  0
SPLINE
  5
339
100
AcDbEntity
  8
A1_DXF_CONTINUOUS_LINE
100
AcDbSpline
 62
6
  6
CONTINUOUS
 70
0
 71
3
 72
14
 73
10
 74
8
 42
0.0000001
 43
0.0000001
 44
0.0000000001
 12
3.9004556081
 22
0.0200119441
 32
0.0
 13
0.0200119441
 23
3.9004556081
 33
0.0
 40
0.0
 40
0.0
 40
0.0
 40
0.0
 40
0.1317923072
 40
0.2729244023
 40
0.4225168222
 40
0.5761436065
 40
0.7263501747
 40
0.8681584348
 40
1.0
 40
1.0
 40
1.0
 40
1.0
 10
184.3926355235
 20
148.3870688226
 30
0.0
 10
184.5639855381
 20
148.3879479627
 30
0.0
 10
184.9197402584
 20
148.4326799048
 30
0.0
 10
185.4394216511
 20
148.6237900058
 30
0.0
 10
185.9291863905
 20
148.9387843746
 30
0.0
 10
186.3495882918
 20
149.3584033007
 30
0.0
 10
186.6662568242
 20
149.8491401303
 30
0.0
 10
186.85832303
 20
150.3703890726
 30
0.0
 10
186.9031888743
 20
150.7270875847
 30
0.0
 10
186.904068343
 20
150.8985016421
 30
0.0
 11
184.3926355235
 21
148.3870688226
 31
0.0
 11
184.9028866681
 21
148.4495041732
 31
0.0
 11
185.4202622704
 21
148.6375417003
 31
0.0
 11
185.9118220472
 21
148.9519064825
 31
0.0
 11
186.33593605
 21
149.3752204611
 31
0.0
 11
186.6523331318
 21
149.8683232153
 31
0.0
 11
186.8415880302
 21
150.3880624356
 31
0.0
 11
186.904068343
 21
150.8985016421
 31
0.0
  0
SPLINE
  5
33A
100
AcDbEntity
  8
A1_DXF_CONTINUOUS_LINE
100
AcDbSpline
 62
7
  6
CONTINUOUS
 70
0
 71
3
 72
14
 73
10
 74
8
 42
0.0000001
 43
0.0000001
 44
0.0000000001
 12
-0.0199446815
 22
-3.900408531
 32
0.0
 13
-3.9004085549
 23
-0.0199400118
 33
0.0
 40
0.0
 40
0.0
 40
0.0
 40
0.0
 40
0.1317878317
 40
0.272921642
 40
0.4225158807
 40
0.5761445332
 40
0.7263529279
 40
0.8681629118
 40
1.0
 40
1.0
 40
1.0
 40
1.0
 10
187.1558531858
 20
150.6465138191
 30
0.0
 10
187.1549770303
 20
150.4751716915
 30
0.0
 10
187.1105423523
 20
150.119388388
 30
0.0
 10
186.9193070044
 20
149.5997297306
 30
0.0
 10
186.6043496162
 20
149.1099630567
 30
0.0
 10
186.184721573
 20
148.6895520508
 30
0.0
 10
185.6939828034
 20
148.3729206352
 30
0.0
 10
185.1727566746
 20
148.1807286948
 30
0.0
 10
184.8160295153
 20
148.1361602575
 30
0.0
 10
184.6446233464
 20
148.1352839798
 30
0.0
 11
187.1558531858
 21
150.6465138191
 31
0.0
 11
187.0936218593
 21
150.1362616332
 31
0.0
 11
186.9055843305
 21
149.6188860338
 31
0.0
 11
186.591219547
 21
149.1273262575
 31
0.0
 11
186.1679055674
 21
148.7032122533
 31
0.0
 11
185.6748028132
 21
148.3868151693
 31
0.0
 11
185.1550635948
 21
148.1975602686
 31
0.0
 11
184.6446233464
 21
148.1352839798
 31
0.0
  0
SPLINE
  5
33B
100
AcDbEntity
  8
A1_DXF_CONTINUOUS_LINE
100
AcDbSpline
 62
7
  6
CONTINUOUS
 70
0
 71
3
 72
14
 73
10
 74
8
 42
0.0000001
 43
0.0000001
 44
0.0000000001
 12
-3.9370574426
 22
0.0607169212
 32
0.0
 13
0.1632714173
 23
-3.9341390793
 33
0.0
 40
0.0
 40
0.0
 40
0.0
 40
0.0
 40
0.1383454577
 40
0.2829300572
 40
0.4305233606
 40
0.5804961386
 40
0.7294190614
 40
0.8699194386
 40
1.0
 40
1.0
 40
1.0
 40
1.0
 10
139.9199902684
 20
175.7725798217
 30
0.0
 10
139.7384322638
 20
175.7753797917
 30
0.0
 10
139.3652398777
 20
175.7345715208
 30
0.0
 10
138.8277461169
 20
175.5458270552
 30
0.0
 10
138.3332230527
 20
175.232246417
 30
0.0
 10
137.9196972721
 20
174.8100363357
 30
0.0
 10
137.6138034563
 20
174.3152330819
 30
0.0
 10
137.4359698647
 20
173.7894778269
 30
0.0
 10
137.4014779696
 20
173.4317320088
 30
0.0
 10
137.4085574489
 20
173.2611470021
 30
0.0
 11
139.9199902684
 21
175.7725798217
 31
0.0
 11
139.3782427411
 21
175.7155714305
 31
0.0
 11
138.8408048053
 21
175.5277702383
 31
0.0
 11
138.3499602936
 21
175.2166275228
 31
0.0
 11
137.9360326464
 21
174.7954627978
 31
0.0
 11
137.628802376
 21
174.2960028523
 31
0.0
 11
137.4531797169
 21
173.7713951035
 31
0.0
 11
137.4085574489
 21
173.2611470021
 31
0.0
  0
SPLINE
  5
33C
100
AcDbEntity
  8
A1_DXF_CONTINUOUS_LINE
100
AcDbSpline
 62
7
  6
CONTINUOUS
 70
0
 71
3
 72
14
 73
10
 74
8
 42
0.0000001
 43
0.0000001
 44
0.0000000001
 12
0.1617345961
 22
3.9348569794
 32
0.0
 13
-3.9375681304
 23
-0.0693883724
 33
0.0
 40
0.0
 40
0.0
 40
0.0
 40
0.0
 40
0.1304170881
 40
0.2711386527
 40
0.4202156557
 40
0.5702800733
 40
0.7178548461
 40
0.8621746989
 40
1.0
 40
1.0
 40
1.0
 40
1.0
 10
187.1560572128
 20
173.2611470021
 30
0.0
 10
187.1630881978
 20
173.4322045318
 30
0.0
 10
187.1284775031
 20
173.7907427621
 30
0.0
 10
186.9500770598
 20
174.3174116737
 30
0.0
 10
186.6435112472
 20
174.8126485602
 30
0.0
 10
186.2293450506
 20
175.2348014046
 30
0.0
 10
185.7346363396
 20
175.5478205268
 30
0.0
 10
185.1978221185
 20
175.7355776459
 30
0.0
 10
184.8255232309
 20
175.7757676461
 30
0.0
 10
184.6446243932
 20
175.7725798217
 30
0.0
 11
187.1560572128
 21
173.2611470021
 31
0.0
 11
187.1111685088
 21
173.7727875237
 31
0.0
 11
186.9350097848
 21
174.2982312287
 31
0.0
 11
186.6270989844
 21
174.7980991582
 31
0.0
 11
186.212493539
 21
175.2192409445
 31
0.0
 11
185.721303707
 21
175.529882253
 31
0.0
 11
185.1845185933
 21
175.716676172
 31
0.0
 11
184.6446243932
 21
175.7725798217
 31
0.0
  0
SPLINE
  5
33D
100
AcDbEntity
  8
A1_DXF_CONTINUOUS_LINE
100
AcDbSpline
 62
6
  6
CONTINUOUS
 70
0
 71
3
 72
14
 73
10
 74
8
 42
0.0000001
 43
0.0000001
 44
0.0000000001
 12
-0.0200119441
 22
3.9004556081
 32
0.0
 13
-3.9004556081
 23
0.0200119441
 33
0.0
 40
0.0
 40
0.0
 40
0.0
 40
0.0
 40
0.1317923072
 40
0.2729244023
 40
0.4225168222
 40
0.5761436065
 40
0.7263501747
 40
0.8681584348
 40
1.0
 40
1.0
 40
1.0
 40
1.0
 10
186.904068343
 20
173.0091581323
 30
0.0
 10
186.9031892029
 20
173.1805081469
 30
0.0
 10
186.8584572608
 20
173.5362628672
 30
0.0
 10
186.6673471598
 20
174.0559442599
 30
0.0
 10
186.352352791
 20
174.5457089993
 30
0.0
 10
185.9327338648
 20
174.9661109007
 30
0.0
 10
185.4419970353
 20
175.282779433
 30
0.0
 10
184.920748093
 20
175.4748456388
 30
0.0
 10
184.5640495809
 20
175.5197114832
 30
0.0
 10
184.3926355235
 20
175.5205909519
 30
0.0
 11
186.904068343
 21
173.0091581323
 31
0.0
 11
186.8416329923
 21
173.5194092769
 31
0.0
 11
186.6535954653
 21
174.0367848793
 31
0.0
 11
186.339230683
 21
174.528344656
 31
0.0
 11
185.9159167045
 21
174.9524586588
 31
0.0
 11
185.4228139503
 21
175.2688557407
 31
0.0
 11
184.90307473
 21
175.458110639
 31
0.0
 11
184.3926355235
 21
175.5205909519
 31
0.0
  0
SPLINE
  5
33E
100
AcDbEntity
  8
A1_DXF_CONTINUOUS_LINE
100
AcDbSpline
 62
7
  6
CONTINUOUS
 70
0
 71
3
 72
14
 73
10
 74
8
 42
0.0000001
 43
0.0000001
 44
0.0000000001
 12
3.9004085318
 22
-0.0199446791
 32
0.0
 13
0.0199400094
 23
-3.9004085557
 33
0.0
 40
0.0
 40
0.0
 40
0.0
 40
0.0
 40
0.1317878318
 40
0.2729216421
 40
0.4225158808
 40
0.5761445332
 40
0.7263529279
 40
0.8681629118
 40
1.0
 40
1.0
 40
1.0
 40
1.0
 10
184.6446233464
 20
175.7723757946
 30
0.0
 10
184.8159654742
 20
175.7714996392
 30
0.0
 10
185.1717487779
 20
175.7270649614
 30
0.0
 10
185.6914074356
 20
175.5358296137
 30
0.0
 10
186.1811741096
 20
175.2208722256
 30
0.0
 10
186.6015851154
 20
174.8012441824
 30
0.0
 10
186.9182165308
 20
174.3105054127
 30
0.0
 10
187.1104084711
 20
173.7892792838
 30
0.0
 10
187.1549769082
 20
173.4325521243
 30
0.0
 10
187.1558531857
 20
173.2611459553
 30
0.0
 11
184.6446233464
 21
175.7723757946
 31
0.0
 11
185.1548755328
 21
175.7101444683
 31
0.0
 11
185.6722511325
 21
175.5221069397
 31
0.0
 11
186.1638109088
 21
175.2077421563
 31
0.0
 11
186.5879249129
 21
174.7844281768
 31
0.0
 11
186.9043219967
 21
174.2913254226
 31
0.0
 11
187.0935768972
 21
173.771586204
 31
0.0
 11
187.1558531857
 21
173.2611459553
 31
0.0
  0
SPLINE
  5
33F
100
AcDbEntity
  8
A1_DXF_CONTINUOUS_LINE
100
AcDbSpline
 62
6
  6
CONTINUOUS
 70
0
 71
3
 72
14
 73
10
 74
8
 42
0.0000001
 43
0.0000001
 44
0.0000000001
 12
-3.9004556081
 22
-0.0200119441
 32
0.0
 13
-0.0200119441
 23
-3.9004556081
 33
0.0
 40
0.0
 40
0.0
 40
0.0
 40
0.0
 40
0.1317923072
 40
0.2729244023
 40
0.4225168222
 40
0.5761436065
 40
0.7263501747
 40
0.8681584348
 40
1.0
 40
1.0
 40
1.0
 40
1.0
 10
140.1719791382
 20
175.5205909519
 30
0.0
 10
140.0006291236
 20
175.5197118118
 30
0.0
 10
139.6448744033
 20
175.4749798696
 30
0.0
 10
139.1251930106
 20
175.2838697686
 30
0.0
 10
138.6354282712
 20
174.9688753999
 30
0.0
 10
138.2150263698
 20
174.5492564737
 30
0.0
 10
137.8983578375
 20
174.0585196442
 30
0.0
 10
137.7062916317
 20
173.5372707018
 30
0.0
 10
137.6614257873
 20
173.1805721898
 30
0.0
 10
137.6605463186
 20
173.0091581323
 30
0.0
 11
140.1719791382
 21
175.5205909519
 31
0.0
 11
139.6617279936
 21
175.4581556012
 31
0.0
 11
139.1443523912
 21
175.2701180741
 31
0.0
 11
138.6527926145
 21
174.9557532919
 31
0.0
 11
138.2286786117
 21
174.5324393133
 31
0.0
 11
137.9122815298
 21
174.0393365592
 31
0.0
 11
137.7230266315
 21
173.5195973389
 31
0.0
 11
137.6605463186
 21
173.0091581323
 31
0.0
  0
SPLINE
  5
340
100
AcDbEntity
  8
A1_DXF_CONTINUOUS_LINE
100
AcDbSpline
 62
7
  6
CONTINUOUS
 70
0
 71
3
 72
14
 73
10
 74
8
 42
0.0000001
 43
0.0000001
 44
0.0000000001
 12
0.019944679
 22
3.9004085319
 32
0.0
 13
3.9004085557
 23
0.0199400093
 33
0.0
 40
0.0
 40
0.0
 40
0.0
 40
0.0
 40
0.1317878318
 40
0.2729216421
 40
0.4225158808
 40
0.5761445332
 40
0.7263529279
 40
0.8681629118
 40
1.0
 40
1.0
 40
1.0
 40
1.0
 10
137.4087614759
 20
173.2611459553
 30
0.0
 10
137.4096376312
 20
173.4324880831
 30
0.0
 10
137.4540723091
 20
173.7882713868
 30
0.0
 10
137.6453076568
 20
174.3079300445
 30
0.0
 10
137.9602650449
 20
174.7976967185
 30
0.0
 10
138.379893088
 20
175.2181077242
 30
0.0
 10
138.8706318578
 20
175.5347391397
 30
0.0
 10
139.3918579867
 20
175.72693108
 30
0.0
 10
139.7485851462
 20
175.771499517
 30
0.0
 10
139.9199913152
 20
175.7723757946
 30
0.0
 11
137.4087614759
 21
173.2611459553
 31
0.0
 11
137.4709928021
 21
173.7713981417
 31
0.0
 11
137.6590303308
 21
174.2887737414
 31
0.0
 11
137.9733951142
 21
174.7803335176
 31
0.0
 11
138.3967090937
 21
175.2044475218
 31
0.0
 11
138.8898118479
 21
175.5208446056
 31
0.0
 11
139.4095510665
 21
175.7100995061
 31
0.0
 11
139.9199913152
 21
175.7723757946
 31
0.0
  0
SPLINE
  5
341
100
AcDbEntity
  8
A1_DXF_CONTINUOUS_LINE
100
AcDbSpline
 62
7
  6
CONTINUOUS
 70
0
 71
3
 72
14
 73
10
 74
8
 42
0.0000001
 43
0.0000001
 44
0.0000000001
 12
-3.1036111347
 22
-0.0196261059
 32
0.0
 13
-0.0186602098
 23
-3.1036170924
 33
0.0
 40
0.0
 40
0.0
 40
0.0
 40
0.0
 40
0.1350256306
 40
0.275684666
 40
0.4171823896
 40
0.5643386569
 40
0.7081991792
 40
0.8552230228
 40
1.0
 40
1.0
 40
1.0
 40
1.0
 10
140.4235604037
 20
174.7671072735
 30
0.0
 10
140.2838713867
 20
174.7662239311
 30
0.0
 10
139.9979723279
 20
174.7293140831
 30
0.0
 10
139.5900694329
 20
174.5784707647
 30
0.0
 10
139.2126353893
 20
174.338163527
 30
0.0
 10
138.8922732625
 20
174.0206406385
 30
0.0
 10
138.6448960182
 20
173.6366703785
 30
0.0
 10
138.4888114599
 20
173.2098751575
 30
0.0
 10
138.4516008511
 20
172.9071302724
 30
0.0
 10
138.4507003282
 20
172.7573528388
 30
0.0
 11
140.4235604037
 21
174.7671072735
 31
0.0
 11
140.0077357774
 21
174.7150102886
 31
0.0
 11
139.597803246
 21
174.5648781099
 31
0.0
 11
139.2272140922
 21
174.3292352696
 31
0.0
 11
138.9029256182
 21
174.0076226518
 31
0.0
 11
138.6613720694
 21
173.6321088676
 31
0.0
 11
138.5050999503
 21
173.203388147
 31
0.0
 11
138.4507003282
 21
172.7573528388
 31
0.0
  0
SPLINE
  5
342
100
AcDbEntity
  8
A1_DXF_CONTINUOUS_LINE
100
AcDbSpline
 62
7
  6
CONTINUOUS
 70
0
 71
3
 72
14
 73
10
 74
8
 42
0.0000001
 43
0.0000001
 44
0.0000000001
 12
1.9715865058
 22
-0.0778127583
 32
0.0
 13
1.9728477806
 23
0.013267103
 33
0.0
 40
0.0
 40
0.0
 40
0.0
 40
0.0
 40
0.0247771078
 40
0.0985249724
 40
0.2177020786
 40
0.3873336124
 40
0.584383441
 40
0.7968196513
 40
1.0
 40
1.0
 40
1.0
 40
1.0
 10
138.4507003282
 20
172.7573528388
 30
0.0
 10
138.466983732
 20
172.7567101804
 30
0.0
 10
138.5317473283
 20
172.7547636659
 30
0.0
 10
138.6749347183
 20
172.7545401781
 30
0.0
 10
138.913351702
 20
172.7551065131
 30
0.0
 10
139.2328706885
 20
172.7558942409
 30
0.0
 10
139.6137117693
 20
172.7577831554
 30
0.0
 10
140.0166197764
 20
172.7570761106
 30
0.0
 10
140.2899457703
 20
172.7566782721
 30
0.0
 10
140.4235604037
 20
172.7575768103
 30
0.0
 11
138.4507003282
 21
172.7573528388
 31
0.0
 11
138.4995597229
 21
172.7558478653
 31
0.0
 11
138.645051473
 21
172.7546597909
 31
0.0
 11
138.8801747864
 21
172.7550306141
 31
0.0
 11
139.2148382061
 21
172.7559785156
 31
0.0
 11
139.6035940186
 21
172.7573142548
 31
0.0
 11
140.0227077395
 21
172.7570868004
 31
0.0
 11
140.4235604037
 21
172.7575768103
 31
0.0
  0
SPLINE
  5
343
100
AcDbEntity
  8
A1_DXF_CONTINUOUS_LINE
100
AcDbSpline
 62
7
  6
CONTINUOUS
 70
0
 71
3
 72
14
 73
10
 74
8
 42
0.0000001
 43
0.0000001
 44
0.0000000001
 12
-0.0186700864
 22
3.1036142982
 32
0.0
 13
-3.1036100944
 23
0.0193562926
 33
0.0
 40
0.0
 40
0.0
 40
0.0
 40
0.0
 40
0.1369685543
 40
0.2798727753
 40
0.423954931
 40
0.5777397578
 40
0.7263876503
 40
0.8699034413
 40
1.0
 40
1.0
 40
1.0
 40
1.0
 10
186.1139143335
 20
172.7573528391
 30
0.0
 10
186.1130619286
 20
172.899052027
 30
0.0
 10
186.0792309636
 20
173.1893143893
 30
0.0
 10
185.9338077121
 20
173.6067633704
 30
0.0
 10
185.6918572213
 20
173.9975407784
 30
0.0
 10
185.3649861563
 20
174.3297125505
 30
0.0
 10
184.973202532
 20
174.5804193234
 30
0.0
 10
184.5593230223
 20
174.7309186892
 30
0.0
 10
184.2756439222
 20
174.7662678778
 30
0.0
 10
184.141054258
 20
174.7671072735
 30
0.0
 11
186.1139143335
 21
172.7573528391
 31
0.0
 11
186.0650582808
 21
173.1796413235
 31
0.0
 11
185.9195594799
 21
173.5986244236
 31
0.0
 11
185.6844205205
 21
173.9789963192
 31
0.0
 11
185.3497703432
 21
174.3193227639
 31
0.0
 11
184.9610088614
 21
174.5677419457
 31
0.0
 11
184.541906473
 21
174.7185970429
 31
0.0
 11
184.141054258
 21
174.7671072735
 31
0.0
  0
SPLINE
  5
344
100
AcDbEntity
  8
A1_DXF_CONTINUOUS_LINE
100
AcDbSpline
 62
7
  6
CONTINUOUS
 70
0
 71
3
 72
14
 73
10
 74
8
 42
0.0000001
 43
0.0000001
 44
0.0000000001
 12
1.9728485419
 22
0.0132741943
 32
0.0
 13
1.9716017693
 23
0.0782650669
 33
0.0
 40
0.0
 40
0.0
 40
0.0
 40
0.0
 40
0.2107773434
 40
0.4185710511
 40
0.6064072339
 40
0.7707758851
 40
0.8932045538
 40
0.9724122441
 40
1.0
 40
1.0
 40
1.0
 40
1.0
 10
184.141054258
 20
172.7575768103
 30
0.0
 10
184.2796648495
 20
172.7585094435
 30
0.0
 10
184.5549340665
 20
172.7562815117
 30
0.0
 10
184.9537260013
 20
172.7578949641
 30
0.0
 10
185.3219943963
 20
172.7559475645
 30
0.0
 10
185.6341315885
 20
172.7551961982
 30
0.0
 10
185.8748155669
 20
172.754551546
 30
0.0
 10
186.0255825849
 20
172.7545590471
 30
0.0
 10
186.095783644
 20
172.7566331199
 30
0.0
 10
186.1139143335
 20
172.7573528391
 30
0.0
 11
184.141054258
 21
172.7575768103
 31
0.0
 11
184.5568951866
 21
172.7571129862
 31
0.0
 11
184.966849946
 21
172.757278156
 31
0.0
 11
185.3374286573
 21
172.7560557355
 31
0.0
 11
185.661709081
 21
172.7551130113
 31
0.0
 11
185.9032472425
 21
172.7546087816
 31
0.0
 11
186.0595117478
 21
172.7556997287
 31
0.0
 11
186.1139143335
 21
172.7573528391
 31
0.0
  0
SPLINE
  5
345
100
AcDbEntity
  8
A1_DXF_CONTINUOUS_LINE
100
AcDbSpline
 62
7
  6
CONTINUOUS
 70
0
 71
3
 72
14
 73
10
 74
8
 42
0.0000001
 43
0.0000001
 44
0.0000000001
 12
3.1036111345
 22
0.0196261057
 32
0.0
 13
0.0186602099
 23
3.1036170922
 33
0.0
 40
0.0
 40
0.0
 40
0.0
 40
0.0
 40
0.1350256306
 40
0.2756846657
 40
0.4171823892
 40
0.5643386566
 40
0.7081991791
 40
0.8552230229
 40
1.0
 40
1.0
 40
1.0
 40
1.0
 10
184.141054258
 20
149.1405525009
 30
0.0
 10
184.2807432748
 20
149.1414358433
 30
0.0
 10
184.5666423333
 20
149.1783456913
 30
0.0
 10
184.974545228
 20
149.3291890094
 30
0.0
 10
185.3519792714
 20
149.5694962469
 30
0.0
 10
185.6723413984
 20
149.8870191356
 30
0.0
 10
185.919718643
 20
150.2709893958
 30
0.0
 10
186.0758032017
 20
150.6977846169
 30
0.0
 10
186.1130138105
 20
151.0005295021
 30
0.0
 10
186.1139143335
 20
151.1503069357
 30
0.0
 11
184.141054258
 21
149.1405525009
 31
0.0
 11
184.556878884
 21
149.1926494858
 31
0.0
 11
184.9668114147
 21
149.3427816641
 31
0.0
 11
185.3374005684
 21
149.5784245043
 31
0.0
 11
185.6616890426
 21
149.9000371222
 31
0.0
 11
185.9032425918
 21
150.2755509068
 31
0.0
 11
186.0595147113
 21
150.7042716276
 31
0.0
 11
186.1139143335
 21
151.1503069357
 31
0.0
  0
SPLINE
  5
346
100
AcDbEntity
  8
A1_DXF_CONTINUOUS_LINE
100
AcDbSpline
 62
7
  6
CONTINUOUS
 70
0
 71
3
 72
14
 73
10
 74
8
 42
0.0000001
 43
0.0000001
 44
0.0000000001
 12
-1.9715865093
 22
0.0778126602
 32
0.0
 13
-1.9728477804
 23
-0.0132671201
 33
0.0
 40
0.0
 40
0.0
 40
0.0
 40
0.0
 40
0.0247771078
 40
0.0985249724
 40
0.2177020786
 40
0.3873336124
 40
0.584383441
 40
0.7968196512
 40
1.0
 40
1.0
 40
1.0
 40
1.0
 10
186.1139143335
 20
151.1503069357
 30
0.0
 10
186.0976309297
 20
151.1509495932
 30
0.0
 10
186.0328673333
 20
151.1528961048
 30
0.0
 10
185.8896799433
 20
151.153119589
 30
0.0
 10
185.6512629596
 20
151.1525532536
 30
0.0
 10
185.3317439731
 20
151.1517655282
 30
0.0
 10
184.9509028924
 20
151.1498766184
 30
0.0
 10
184.5479948853
 20
151.1505836662
 30
0.0
 10
184.2746688914
 20
151.1509815034
 30
0.0
 10
184.141054258
 20
151.1500829641
 30
0.0
 11
186.1139143335
 21
151.1503069357
 31
0.0
 11
186.0650549388
 21
151.1518119069
 31
0.0
 11
185.9195631886
 21
151.1529999774
 31
0.0
 11
185.6844398751
 21
151.1526291529
 31
0.0
 11
185.3497764556
 21
151.1516812536
 31
0.0
 11
184.9610206431
 21
151.1503455186
 31
0.0
 11
184.5419069223
 21
151.1505729756
 31
0.0
 11
184.141054258
 21
151.1500829641
 31
0.0
  0
SPLINE
  5
347
100
AcDbEntity
  8
A1_DXF_CONTINUOUS_LINE
100
AcDbSpline
 62
7
  6
CONTINUOUS
 70
0
 71
3
 72
14
 73
10
 74
8
 42
0.0000001
 43
0.0000001
 44
0.0000000001
 12
0.0196261058
 22
-3.1036111342
 32
0.0
 13
3.1036170918
 23
-0.0186602105
 33
0.0
 40
0.0
 40
0.0
 40
0.0
 40
0.0
 40
0.1350256306
 40
0.2756846657
 40
0.4171823893
 40
0.5643386567
 40
0.7081991791
 40
0.8552230228
 40
1.0
 40
1.0
 40
1.0
 40
1.0
 10
138.414029997
 20
151.1500829076
 30
0.0
 10
138.4149133394
 20
151.0103938908
 30
0.0
 10
138.4518231873
 20
150.7244948323
 30
0.0
 10
138.6026665055
 20
150.3165919377
 30
0.0
 10
138.842973743
 20
149.9391578942
 30
0.0
 10
139.1604966316
 20
149.6187957673
 30
0.0
 10
139.5444668916
 20
149.3714185227
 30
0.0
 10
139.9712621126
 20
149.215333964
 30
0.0
 10
140.2740069978
 20
149.1781233551
 30
0.0
 10
140.4237844314
 20
149.1772228321
 30
0.0
 11
138.414029997
 21
151.1500829076
 31
0.0
 11
138.4661269818
 21
150.7342582816
 31
0.0
 11
138.6162591602
 21
150.324325751
 31
0.0
 11
138.8519020003
 21
149.9537365972
 31
0.0
 11
139.1735146182
 21
149.629448123
 31
0.0
 11
139.5490284026
 21
149.3878945738
 31
0.0
 11
139.9777491232
 21
149.2316224544
 31
0.0
 11
140.4237844314
 21
149.1772228321
 31
0.0
  0
SPLINE
  5
348
100
AcDbEntity
  8
A1_DXF_CONTINUOUS_LINE
100
AcDbSpline
 62
7
  6
CONTINUOUS
 70
0
 71
3
 72
14
 73
10
 74
8
 42
0.0000001
 43
0.0000001
 44
0.0000000001
 12
0.0778127707
 22
1.9715865054
 32
0.0
 13
-0.0132670941
 23
1.9728477807
 33
0.0
 40
0.0
 40
0.0
 40
0.0
 40
0.0
 40
0.0247771078
 40
0.0985249725
 40
0.2177020787
 40
0.3873336125
 40
0.5843834411
 40
0.7968196513
 40
1.0
 40
1.0
 40
1.0
 40
1.0
 10
140.4237844314
 20
149.1772228321
 30
0.0
 10
140.4244270898
 20
149.1935062359
 30
0.0
 10
140.4263736047
 20
149.2582698323
 30
0.0
 10
140.426597093
 20
149.4014572224
 30
0.0
 10
140.4260307575
 20
149.6398742061
 30
0.0
 10
140.425243029
 20
149.9593931926
 30
0.0
 10
140.4233541136
 20
150.3402342734
 30
0.0
 10
140.4240611585
 20
150.7431422803
 30
0.0
 10
140.4244589978
 20
151.0164682743
 30
0.0
 10
140.4235604602
 20
151.1500829076
 30
0.0
 11
140.4237844314
 21
149.1772228321
 31
0.0
 11
140.4252894051
 21
149.2260822269
 31
0.0
 11
140.4264774799
 21
149.3715739771
 31
0.0
 11
140.4261066565
 21
149.6066972906
 31
0.0
 11
140.4251587542
 21
149.9413607102
 31
0.0
 11
140.4238230144
 21
150.3301165226
 31
0.0
 11
140.4240504689
 21
150.7492302434
 31
0.0
 11
140.4235604602
 21
151.1500829076
 31
0.0
  0
SPLINE
  5
349
100
AcDbEntity
  8
A1_DXF_CONTINUOUS_LINE
100
AcDbSpline
 62
7
  6
CONTINUOUS
 70
0
 71
3
 72
8
 73
4
 74
2
 42
0.0000001
 43
0.0000001
 44
0.0000000001
 12
-0.0179429047
 22
3.1440880274
 32
0.0
 13
-3.1440880274
 23
0.0179429047
 33
0.0
 40
0.0
 40
0.0
 40
0.0
 40
0.0
 40
1.0
 40
1.0
 40
1.0
 40
1.0
 10
186.402106071
 20
326.190647231
 30
0.0
 10
186.3961251028
 20
327.2386765735
 30
0.0
 10
185.4403356421
 20
328.1944660341
 30
0.0
 10
184.3923062996
 20
328.2004470024
 30
0.0
 11
186.402106071
 21
326.190647231
 31
0.0
 11
184.3923062996
 21
328.2004470024
 31
0.0
  0
SPLINE
  5
34A
100
AcDbEntity
  8
A1_DXF_CONTINUOUS_LINE
100
AcDbSpline
 62
6
  6
CONTINUOUS
 70
0
 71
3
 72
8
 73
4
 74
2
 42
0.0000001
 43
0.0000001
 44
0.0000000001
 12
0.0240011683
 22
-0.1990638563
 32
0.0
 13
0.0011529684
 23
-0.2020316272
 33
0.0
 40
0.0
 40
0.0
 40
0.0
 40
0.0
 40
1.0
 40
1.0
 40
1.0
 40
1.0
 10
186.3894152365
 20
326.3913087388
 30
0.0
 10
186.397415626
 20
326.3249541201
 30
0.0
 10
186.4017217482
 20
326.2579911067
 30
0.0
 10
186.402106071
 20
326.190647231
 30
0.0
 11
186.3894152365
 21
326.3913087388
 31
0.0
 11
186.402106071
 21
326.190647231
 31
0.0
  0
SPLINE
  5
34B
100
AcDbEntity
  8
A1_DXF_CONTINUOUS_LINE
100
AcDbSpline
 62
7
  6
CONTINUOUS
 70
0
 71
3
 72
14
 73
10
 74
8
 42
0.0000001
 43
0.0000001
 44
0.0000000001
 12
-2.0098853237
 22
-0.0326979203
 32
0.0
 13
-2.0097563491
 23
0.0325650353
 33
0.0
 40
0.0
 40
0.0
 40
0.0
 40
0.0
 40
0.0259648439
 40
0.1006257925
 40
0.217862048
 40
0.3778822746
 40
0.5647005511
 40
0.778031373
 40
1.0
 40
1.0
 40
1.0
 40
1.0
 10
186.402106071
 20
326.190647231
 30
0.0
 10
186.3847106181
 20
326.1903642322
 30
0.0
 10
186.3172936402
 20
326.189772679
 30
0.0
 10
186.1713222198
 20
326.1912348537
 30
0.0
 10
185.9355405692
 20
326.188794877
 30
0.0
 10
185.6246086778
 20
326.1883317889
 30
0.0
 10
185.2492893819
 20
326.1868937442
 30
0.0
 10
184.832478276
 20
326.1897429942
 30
0.0
 10
184.5408000708
 20
326.1880305774
 30
0.0
 10
184.3920991183
 20
326.1904400495
 30
0.0
 11
186.402106071
 21
326.190647231
 31
0.0
 11
186.3499186442
 21
326.1901433029
 31
0.0
 11
186.1998491905
 21
326.1905527533
 31
0.0
 11
185.9642048425
 21
326.1893857532
 31
0.0
 11
185.6425629914
 21
326.1882426723
 31
0.0
 11
185.2670550641
 21
326.1875851758
 31
0.0
 11
184.8382575691
 21
326.1888133257
 31
0.0
 11
184.3920991183
 21
326.1904400495
 31
0.0
  0
SPLINE
  5
34C
100
AcDbEntity
  8
A1_DXF_CONTINUOUS_LINE
100
AcDbSpline
 62
7
  6
CONTINUOUS
 70
0
 71
3
 72
14
 73
10
 74
8
 42
0.0000001
 43
0.0000001
 44
0.0000000001
 12
-0.0322792491
 22
2.0097596279
 32
0.0
 13
0.0316963221
 23
2.0098744008
 33
0.0
 40
0.0
 40
0.0
 40
0.0
 40
0.0
 40
0.2101120287
 40
0.4185577306
 40
0.6077702013
 40
0.7771104997
 40
0.9007303691
 40
0.9758071014
 40
1.0
 40
1.0
 40
1.0
 40
1.0
 10
184.3920991183
 20
326.1904400495
 30
0.0
 10
184.3898383654
 20
326.3311982737
 30
0.0
 10
184.3914626625
 20
326.6116578534
 30
0.0
 10
184.3888291623
 20
327.0188561943
 30
0.0
 10
184.3899528362
 20
327.3987508574
 30
0.0
 10
184.3900549982
 20
327.721810024
 30
0.0
 10
184.3927200835
 20
327.9683898626
 30
0.0
 10
184.3914352426
 20
328.1177306388
 30
0.0
 10
184.392050691
 20
328.1842387732
 30
0.0
 10
184.3923062996
 20
328.2004470024
 30
0.0
 11
184.3920991183
 21
326.1904400495
 31
0.0
 11
184.3906027896
 21
326.6127665336
 31
0.0
 11
184.3894358072
 21
327.0317446949
 31
0.0
 11
184.3898154934
 21
327.4120651352
 31
0.0
 11
184.3907527591
 21
327.7524410338
 31
0.0
 11
184.3920713156
 21
328.0009158011
 31
0.0
 11
184.3918212519
 21
328.1518212398
 31
0.0
 11
184.3923062996
 21
328.2004470024
 31
0.0
  0
SPLINE
  5
34D
100
AcDbEntity
  8
A1_DXF_CONTINUOUS_LINE
100
AcDbSpline
 62
7
  6
CONTINUOUS
 70
0
 71
3
 72
14
 73
10
 74
8
 42
0.0000001
 43
0.0000001
 44
0.0000000001
 12
1.9733674607
 22
0.0125689714
 32
0.0
 13
1.9721602326
 23
0.0758692931
 33
0.0
 40
0.0
 40
0.0
 40
0.0
 40
0.0
 40
0.2108978767
 40
0.4187686578
 40
0.6066252057
 40
0.7709786117
 40
0.8933547407
 40
0.9725017388
 40
1.0
 40
1.0
 40
1.0
 40
1.0
 10
184.3923050754
 20
326.1906459647
 30
0.0
 10
184.5310314112
 20
326.1915295545
 30
0.0
 10
184.806501957
 20
326.1892295476
 30
0.0
 10
185.2055409022
 20
326.1912122219
 30
0.0
 10
185.5739601549
 20
326.189322812
 30
0.0
 10
185.8861460999
 20
326.1883949176
 30
0.0
 10
186.1268091599
 20
326.1874127658
 30
0.0
 10
186.2774797382
 20
326.1876951169
 30
0.0
 10
186.3476011609
 20
326.1897453255
 30
0.0
 10
186.3656781533
 20
326.1904407501
 30
0.0
 11
184.3923050754
 21
326.1906459647
 31
0.0
 11
184.8084922211
 21
326.1901434037
 31
0.0
 11
185.2187057731
 21
326.1905524013
 31
0.0
 11
185.5894214553
 21
326.1893856327
 31
0.0
 11
185.9137556888
 21
326.1882441477
 31
0.0
 11
186.1552527663
 21
326.1875878267
 31
0.0
 11
186.3114372191
 21
326.1888156092
 31
0.0
 11
186.3656781533
 21
326.1904407501
 31
0.0
  0
SPLINE
  5
34E
100
AcDbEntity
  8
A1_DXF_CONTINUOUS_LINE
100
AcDbSpline
 62
7
  6
CONTINUOUS
 70
0
 71
3
 72
14
 73
10
 74
8
 42
0.0000001
 43
0.0000001
 44
0.0000000001
 12
1.9721965505
 22
-0.0736475497
 32
0.0
 13
1.973354236
 23
0.0143271014
 33
0.0
 40
0.0
 40
0.0
 40
0.0
 40
0.0
 40
0.024679526
 40
0.0983450321
 40
0.2174294352
 40
0.3869798321
 40
0.5840315869
 40
0.7966449993
 40
1.0
 40
1.0
 40
1.0
 40
1.0
 10
138.1989369541
 20
326.1904407497
 30
0.0
 10
138.2151612461
 20
326.1898348875
 30
0.0
 10
138.2798252044
 20
326.187946021
 30
0.0
 10
138.4228664771
 20
326.1873798087
 30
0.0
 10
138.6611791153
 20
326.1882903008
 30
0.0
 10
138.9806661402
 20
326.1892746424
 30
0.0
 10
139.361672089
 20
326.191093121
 30
0.0
 10
139.7649167983
 20
326.1900023847
 30
0.0
 10
140.0385462147
 20
326.1896748021
 30
0.0
 10
140.1723100321
 20
326.1906459647
 30
0.0
 11
138.1989369541
 21
326.1904407497
 31
0.0
 11
138.2476180635
 21
326.188989695
 31
0.0
 11
138.3929837876
 21
326.1876421528
 31
0.0
 11
138.6279851658
 21
326.1881395785
 31
0.0
 11
138.9625749441
 21
326.1893061704
 31
0.0
 11
139.3514360277
 21
326.190578041
 31
0.0
 11
139.7710083838
 21
326.1900936893
 31
0.0
 11
140.1723100321
 21
326.1906459647
 31
0.0
  0
SPLINE
  5
34F
100
AcDbEntity
  8
A1_DXF_CONTINUOUS_LINE
100
AcDbSpline
 62
7
  6
CONTINUOUS
 70
0
 71
3
 72
14
 73
10
 74
8
 42
0.0000001
 43
0.0000001
 44
0.0000000001
 12
-3.1044805764
 22
-0.0182030747
 32
0.0
 13
-0.0173082828
 23
-3.104485694
 33
0.0
 40
0.0
 40
0.0
 40
0.0
 40
0.0
 40
0.1351041098
 40
0.275813042
 40
0.4173005978
 40
0.5644322853
 40
0.7082390946
 40
0.8552241034
 40
1.0
 40
1.0
 40
1.0
 40
1.0
 10
140.1723100321
 20
328.2002407952
 30
0.0
 10
140.0325006705
 20
328.1994210251
 30
0.0
 10
139.7463712248
 20
328.1626009114
 30
0.0
 10
139.3381894164
 20
328.0117984756
 30
0.0
 10
138.96058882
 20
327.7714844789
 30
0.0
 10
138.6401966707
 20
327.4539359101
 30
0.0
 10
138.3928691965
 20
327.0699255742
 30
0.0
 10
138.2368644074
 20
326.6430661036
 30
0.0
 10
138.1997722282
 20
326.340258983
 30
0.0
 10
138.1989369541
 20
326.1904407497
 30
0.0
 11
140.1723100321
 21
328.2002407952
 31
0.0
 11
139.7561071739
 21
328.148268232
 31
0.0
 11
139.3458711575
 21
327.9981622656
 31
0.0
 11
138.9751660735
 21
327.7625336005
 31
0.0
 11
138.6508395192
 21
327.4408878676
 31
0.0
 11
138.40935768
 21
327.0653789993
 31
0.0
 11
138.253180874
 21
326.6366171763
 31
0.0
 11
138.1989369541
 21
326.1904407497
 31
0.0
  0
SPLINE
  5
350
100
AcDbEntity
  8
A1_DXF_CONTINUOUS_LINE
100
AcDbSpline
 62
7
  6
CONTINUOUS
 70
0
 71
3
 72
14
 73
10
 74
8
 42
0.0000001
 43
0.0000001
 44
0.0000000001
 12
2.5112294077
 22
0.0014725274
 32
0.0
 13
2.511229834
 23
0.0001808647
 33
0.0
 40
0.0
 40
0.0
 40
0.0
 40
0.0
 40
0.2031881664
 40
0.4092129561
 40
0.6049575943
 40
0.7738445665
 40
0.8998374481
 40
0.9752008806
 40
1.0
 40
1.0
 40
1.0
 40
1.0
 10
184.6446233464
 20
325.2861545479
 30
0.0
 10
184.8147073793
 20
325.2862542813
 30
0.0
 10
185.1572500177
 20
325.2861033619
 30
0.0
 10
185.6636458545
 20
325.2861597937
 30
0.0
 10
186.1413289855
 20
325.2861429292
 30
0.0
 10
186.5520192727
 20
325.2861455034
 30
0.0
 10
186.8619412689
 20
325.2861476546
 30
0.0
 10
187.0512506933
 20
325.2861484313
 30
0.0
 10
187.1350944229
 20
325.2861530528
 30
0.0
 10
187.1558531857
 20
325.2861545479
 30
0.0
 11
184.6446233464
 21
325.2861545479
 31
0.0
 11
185.1548755328
 21
325.2861510279
 31
0.0
 11
185.6722511325
 21
325.2861477753
 31
0.0
 11
186.1638109088
 21
325.2861457923
 31
0.0
 11
186.5879249129
 21
325.286145783
 31
0.0
 11
186.9043219967
 21
325.2861477615
 31
0.0
 11
187.0935768972
 21
325.2861510266
 31
0.0
 11
187.1558531857
 21
325.2861545479
 31
0.0
  0
SPLINE
  5
351
100
AcDbEntity
  8
A1_DXF_CONTINUOUS_LINE
100
AcDbSpline
 62
7
  6
CONTINUOUS
 70
0
 71
3
 72
14
 73
10
 74
8
 42
0.0000001
 43
0.0000001
 44
0.0000000001
 12
2.5112298341
 22
-0.000181
 32
0.0
 13
2.5112293455
 23
-0.0015751294
 33
0.0
 40
0.0
 40
0.0
 40
0.0
 40
0.0
 40
0.0247812149
 40
0.0996598762
 40
0.2248434729
 40
0.3934118663
 40
0.5897709357
 40
0.7967369451
 40
1.0
 40
1.0
 40
1.0
 40
1.0
 10
137.4087614759
 20
325.2861545479
 30
0.0
 10
137.4295052513
 20
325.2861530528
 30
0.0
 10
137.5129282028
 20
325.2861484544
 30
0.0
 10
137.7011394157
 20
325.286147661
 30
0.0
 10
138.009711513
 20
325.286145544
 30
0.0
 10
138.4199720177
 20
325.2861427342
 30
0.0
 10
138.8986906734
 20
325.2861606875
 30
0.0
 10
139.406451394
 20
325.2860998317
 30
0.0
 10
139.7498445991
 20
325.2862612698
 30
0.0
 10
139.9199913152
 20
325.2861545479
 30
0.0
 11
137.4087614759
 21
325.2861545479
 31
0.0
 11
137.4709928021
 21
325.2861510285
 31
0.0
 11
137.6590303308
 21
325.2861477765
 31
0.0
 11
137.9733951142
 21
325.2861457937
 31
0.0
 11
138.3967090937
 21
325.2861457843
 31
0.0
 11
138.8898118479
 21
325.2861477626
 31
0.0
 11
139.4095510665
 21
325.2861510272
 31
0.0
 11
139.9199913152
 21
325.2861545479
 31
0.0
  0
SPLINE
  5
352
100
AcDbEntity
  8
A1_DXF_CONTINUOUS_LINE
100
AcDbSpline
 62
7
  6
CONTINUOUS
 70
0
 71
3
 72
14
 73
10
 74
8
 42
0.0000001
 43
0.0000001
 44
0.0000000001
 12
-1.9728555134
 22
-0.0124787739
 32
0.0
 13
-1.9716390616
 23
-0.0760525168
 33
0.0
 40
0.0
 40
0.0
 40
0.0
 40
0.0
 40
0.2107689174
 40
0.4185512467
 40
0.6063924907
 40
0.7707654185
 40
0.893201952
 40
0.9724140326
 40
1.0
 40
1.0
 40
1.0
 40
1.0
 10
140.4235604037
 20
316.1406516381
 30
0.0
 10
140.2849548634
 20
316.1397749255
 30
0.0
 10
140.0096989209
 20
316.1420683263
 30
0.0
 10
139.6109165661
 20
316.1401156033
 30
0.0
 10
139.2426484688
 20
316.1420210655
 30
0.0
 10
138.9305011834
 20
316.1429623974
 30
0.0
 10
138.6898051753
 20
316.1439453548
 30
0.0
 10
138.5390336066
 20
316.1436355469
 30
0.0
 10
138.4688301851
 20
316.1415749371
 30
0.0
 10
138.4507003282
 20
316.1408756097
 30
0.0
 11
140.4235604037
 21
316.1406516381
 31
0.0
 11
140.0077357774
 21
316.1411613456
 31
0.0
 11
139.597803246
 21
316.1407741262
 31
0.0
 11
139.2272140922
 21
316.1419587237
 31
0.0
 11
138.9029256182
 21
316.143111726
 31
0.0
 11
138.6613720694
 21
316.1437613208
 31
0.0
 11
138.5050999503
 21
316.1425115974
 31
0.0
 11
138.4507003282
 21
316.1408756097
 31
0.0
  0
SPLINE
  5
353
100
AcDbEntity
  8
A1_DXF_CONTINUOUS_LINE
100
AcDbSpline
 62
7
  6
CONTINUOUS
 70
0
 71
3
 72
14
 73
10
 74
8
 42
0.0000001
 43
0.0000001
 44
0.0000000001
 12
0.0186629604
 22
-3.1036157848
 32
0.0
 13
3.1036114727
 23
-0.019366784
 33
0.0
 40
0.0
 40
0.0
 40
0.0
 40
0.0
 40
0.1369753378
 40
0.2798652808
 40
0.4239438641
 40
0.5777392045
 40
0.726384155
 40
0.8699033226
 40
1.0
 40
1.0
 40
1.0
 40
1.0
 10
138.4507003282
 20
316.1408756097
 30
0.0
 10
138.45155245
 20
315.9991693362
 30
0.0
 10
138.4853794922
 20
315.7089131261
 30
0.0
 10
138.6308137571
 20
315.291480766
 30
0.0
 10
138.8727459678
 20
314.9007033266
 30
0.0
 10
139.1996085075
 20
314.5685142144
 30
0.0
 10
139.5914067793
 20
314.3178073212
 30
0.0
 10
140.0052881175
 20
314.1673124154
 30
0.0
 10
140.2889705568
 20
314.1319610262
 30
0.0
 10
140.4235604037
 20
314.1311211747
 30
0.0
 11
138.4507003282
 21
316.1408756097
 31
0.0
 11
138.4995597229
 21
315.7185661188
 31
0.0
 11
138.645051473
 21
315.2996272617
 31
0.0
 11
138.8801747864
 21
314.919258485
 31
0.0
 11
139.2148382061
 21
314.5788989872
 31
0.0
 11
139.6035940186
 21
314.330487492
 31
0.0
 11
140.0227077395
 21
314.1796323235
 31
0.0
 11
140.4235604037
 21
314.1311211747
 31
0.0
  0
SPLINE
  5
354
100
AcDbEntity
  8
A1_DXF_CONTINUOUS_LINE
100
AcDbSpline
 62
7
  6
CONTINUOUS
 70
0
 71
3
 72
14
 73
10
 74
8
 42
0.0000001
 43
0.0000001
 44
0.0000000001
 12
1.9728555134
 22
-0.0124787572
 32
0.0
 13
1.9716390655
 23
-0.0760524005
 33
0.0
 40
0.0
 40
0.0
 40
0.0
 40
0.0
 40
0.2107689172
 40
0.4185512463
 40
0.6063924902
 40
0.7707654181
 40
0.8932019519
 40
0.9724140326
 40
1.0
 40
1.0
 40
1.0
 40
1.0
 10
184.141054258
 20
316.1406516381
 30
0.0
 10
184.2796597981
 20
316.1397749267
 30
0.0
 10
184.5549157403
 20
316.1420683288
 30
0.0
 10
184.9536980948
 20
316.1401156027
 30
0.0
 10
185.321966192
 20
316.1420210603
 30
0.0
 10
185.6341134775
 20
316.1429623898
 30
0.0
 10
185.8748094859
 20
316.1439453474
 30
0.0
 10
186.0255810548
 20
316.1436355423
 30
0.0
 10
186.0957844765
 20
316.141574936
 30
0.0
 10
186.1139143335
 20
316.1408756097
 30
0.0
 11
184.141054258
 21
316.1406516381
 31
0.0
 11
184.556878884
 21
316.1411613472
 31
0.0
 11
184.9668114147
 21
316.1407741252
 31
0.0
 11
185.3374005684
 21
316.1419587186
 31
0.0
 11
185.6616890426
 21
316.1431117187
 31
0.0
 11
185.9032425918
 21
316.1437613144
 31
0.0
 11
186.0595147113
 21
316.1425115947
 31
0.0
 11
186.1139143335
 21
316.1408756097
 31
0.0
  0
SPLINE
  5
355
100
AcDbEntity
  8
A1_DXF_CONTINUOUS_LINE
100
AcDbSpline
 62
7
  6
CONTINUOUS
 70
0
 71
3
 72
14
 73
10
 74
8
 42
0.0000001
 43
0.0000001
 44
0.0000000001
 12
-0.0186629605
 22
-3.1036157846
 32
0.0
 13
-3.1036114725
 23
-0.0193667838
 33
0.0
 40
0.0
 40
0.0
 40
0.0
 40
0.0
 40
0.1369753377
 40
0.2798652807
 40
0.423943864
 40
0.5777392044
 40
0.726384155
 40
0.8699033226
 40
1.0
 40
1.0
 40
1.0
 40
1.0
 10
186.1139143335
 20
316.1408756097
 30
0.0
 10
186.1130622117
 20
315.9991693362
 30
0.0
 10
186.0792351694
 20
315.7089131263
 30
0.0
 10
185.9338009043
 20
315.2914807664
 30
0.0
 10
185.6918686937
 20
314.9007033271
 30
0.0
 10
185.3650061541
 20
314.5685142147
 30
0.0
 10
184.9732078825
 20
314.3178073212
 30
0.0
 10
184.5593265442
 20
314.1673124154
 30
0.0
 10
184.2756441049
 20
314.1319610261
 30
0.0
 10
184.141054258
 20
314.1311211747
 30
0.0
 11
186.1139143335
 21
316.1408756097
 31
0.0
 11
186.0650549388
 21
315.718566119
 31
0.0
 11
185.9195631886
 21
315.2996272622
 31
0.0
 11
185.6844398751
 21
314.9192584855
 31
0.0
 11
185.3497764556
 21
314.5788989875
 31
0.0
 11
184.9610206431
 21
314.3304874921
 31
0.0
 11
184.5419069223
 21
314.1796323235
 31
0.0
 11
184.141054258
 21
314.1311211747
 31
0.0
  0
SPLINE
  5
356
100
AcDbEntity
  8
A1_DXF_CONTINUOUS_LINE
100
AcDbSpline
 62
7
  6
CONTINUOUS
 70
0
 71
3
 72
14
 73
10
 74
8
 42
0.0000001
 43
0.0000001
 44
0.0000000001
 12
2.0096289143
 22
0.0328906958
 32
0.0
 13
2.0095039923
 23
-0.0325658721
 33
0.0
 40
0.0
 40
0.0
 40
0.0
 40
0.0
 40
0.0259231324
 40
0.1006246346
 40
0.2178749016
 40
0.3779006895
 40
0.564745327
 40
0.7780647614
 40
1.0
 40
1.0
 40
1.0
 40
1.0
 10
138.414029997
 20
316.1406516381
 30
0.0
 10
138.4313952891
 20
316.1409358481
 30
0.0
 10
138.4988029519
 20
316.1415363541
 30
0.0
 10
138.6447648516
 20
316.1400991318
 30
0.0
 10
138.8805569496
 20
316.1425514227
 30
0.0
 10
139.1914806151
 20
316.1430265776
 30
0.0
 10
139.5667665863
 20
316.144454468
 30
0.0
 10
139.9835129387
 20
316.1415786506
 30
0.0
 10
140.2751245154
 20
316.1432847807
 30
0.0
 10
140.4237844314
 20
316.1408756091
 30
0.0
 11
138.414029997
 21
316.1406516381
 31
0.0
 11
138.4661269818
 21
316.141161346
 31
0.0
 11
138.6162591602
 21
316.1407741239
 31
0.0
 11
138.8519020003
 21
316.141958718
 31
0.0
 11
139.1735146182
 21
316.1431117189
 31
0.0
 11
139.5490284026
 21
316.1437613151
 31
0.0
 11
139.9777491232
 21
316.1425115952
 31
0.0
 11
140.4237844314
 21
316.1408756091
 31
0.0
  0
SPLINE
  5
357
100
AcDbEntity
  8
A1_DXF_CONTINUOUS_LINE
100
AcDbSpline
 62
7
  6
CONTINUOUS
 70
0
 71
3
 72
8
 73
4
 74
2
 42
0.0000001
 43
0.0000001
 44
0.0000000001
 12
-3.1421700958
 22
0.0201182983
 32
0.0
 13
-0.020118298
 23
3.1421700958
 33
0.0
 40
0.0
 40
0.0
 40
0.0
 40
0.0
 40
1.0
 40
1.0
 40
1.0
 40
1.0
 10
140.4235604602
 20
314.1311211747
 30
0.0
 10
139.3761704282
 20
314.1378272742
 30
0.0
 10
138.4207360963
 20
315.0932616062
 30
0.0
 10
138.414029997
 20
316.1406516381
 30
0.0
 11
140.4235604602
 21
314.1311211747
 31
0.0
 11
138.414029997
 21
316.1406516381
 31
0.0
  0
SPLINE
  5
358
100
AcDbEntity
  8
A1_DXF_CONTINUOUS_LINE
100
AcDbSpline
 62
7
  6
CONTINUOUS
 70
0
 71
3
 72
14
 73
10
 74
8
 42
0.0000001
 43
0.0000001
 44
0.0000000001
 12
0.032273657
 22
-2.0095073902
 32
0.0
 13
-0.0318883331
 23
-2.0096182318
 33
0.0
 40
0.0
 40
0.0
 40
0.0
 40
0.0
 40
0.210129965
 40
0.4185823069
 40
0.6078425767
 40
0.7771959872
 40
0.9007999389
 40
0.9758610652
 40
1.0
 40
1.0
 40
1.0
 40
1.0
 10
140.4237844314
 20
316.1408756091
 30
0.0
 10
140.4260449855
 20
316.0001230366
 30
0.0
 10
140.4244265684
 20
315.719682218
 30
0.0
 10
140.4270856928
 20
315.3124865873
 30
0.0
 10
140.4259738758
 20
314.9325943353
 30
0.0
 10
140.4258578895
 20
314.6095455327
 30
0.0
 10
140.4231826033
 20
314.3630092117
 30
0.0
 10
140.4244407129
 20
314.2137442926
 30
0.0
 10
140.4238170436
 20
314.1472911892
 30
0.0
 10
140.4235604602
 20
314.1311211747
 30
0.0
 11
140.4237844314
 21
316.1408756091
 31
0.0
 11
140.4252894051
 21
315.7185661183
 31
0.0
 11
140.4264774799
 21
315.2996272613
 31
0.0
 11
140.4261066565
 21
314.9192584847
 31
0.0
 11
140.4251587542
 21
314.578898987
 31
0.0
 11
140.4238230144
 21
314.330487492
 31
0.0
 11
140.4240504689
 21
314.1796323235
 31
0.0
 11
140.4235604602
 21
314.1311211747
 31
0.0
  0
SPLINE
  5
359
100
AcDbEntity
  8
A1_DXF_CONTINUOUS_LINE
100
AcDbSpline
 62
7
  6
CONTINUOUS
 70
0
 71
3
 72
14
 73
10
 74
8
 42
0.0000001
 43
0.0000001
 44
0.0000000001
 12
-0.0173149325
 22
3.1044829127
 32
0.0
 13
-3.1044792804
 23
0.0179546389
 33
0.0
 40
0.0
 40
0.0
 40
0.0
 40
0.0
 40
0.1369373309
 40
0.2797868274
 40
0.4237892259
 40
0.5775301608
 40
0.726169627
 40
0.8697998844
 40
1.0
 40
1.0
 40
1.0
 40
1.0
 10
186.3656781533
 20
326.1904407501
 30
0.0
 10
186.3648877998
 20
326.3321472847
 30
0.0
 10
186.3311856523
 20
326.6224184479
 30
0.0
 10
186.1858962355
 20
327.0398648593
 30
0.0
 10
185.9440705139
 20
327.4306513994
 30
0.0
 10
185.6172443294
 20
327.7628644742
 30
0.0
 10
185.2252801584
 20
328.0136573092
 30
0.0
 10
184.8110406679
 20
328.1641849989
 30
0.0
 10
184.5270396274
 20
328.199461563
 30
0.0
 10
184.392305107
 20
328.200240795
 30
0.0
 11
186.3656781533
 21
326.1904407501
 31
0.0
 11
186.3169936499
 21
326.6127701459
 31
0.0
 11
186.1716349747
 21
327.0317522496
 31
0.0
 11
185.9366494103
 21
327.4120736579
 31
0.0
 11
185.6020454424
 21
327.752440074
 31
0.0
 11
185.2131903922
 21
328.0009018634
 31
0.0
 11
184.7936062848
 21
328.1518326516
 31
0.0
 11
184.392305107
 21
328.200240795
 31
0.0
  0
SPLINE
  5
35A
100
AcDbEntity
  8
A1_DXF_CONTINUOUS_LINE
100
AcDbSpline
 62
7
  6
CONTINUOUS
 70
0
 71
3
 72
8
 73
4
 74
2
 42
0.0000001
 43
0.0000001
 44
0.0000000001
 12
-0.0948889728
 22
-3.0828890289
 32
0.0
 13
-3.0828890289
 23
-0.0948889728
 33
0.0
 40
0.0
 40
0.0
 40
0.0
 40
0.0
 40
1.0
 40
1.0
 40
1.0
 40
1.0
 10
385.0487088868
 20
150.8989935203
 30
0.0
 10
385.0170792292
 20
149.871363844
 30
0.0
 10
384.071497679
 20
148.9257822938
 30
0.0
 10
383.0438680027
 20
148.8941526362
 30
0.0
 11
385.0487088868
 21
150.8989935203
 31
0.0
 11
383.0438680027
 21
148.8941526362
 31
0.0
  0
SPLINE
  5
35B
100
AcDbEntity
  8
A1_DXF_CONTINUOUS_LINE
100
AcDbSpline
 62
7
  6
CONTINUOUS
 70
0
 71
3
 72
14
 73
10
 74
8
 42
0.0000001
 43
0.0000001
 44
0.0000000001
 12
0.0125689798
 22
-1.973365137
 32
0.0
 13
0.0759485096
 23
-1.9721554335
 33
0.0
 40
0.0
 40
0.0
 40
0.0
 40
0.0
 40
0.2108968493
 40
0.4187680253
 40
0.6066247272
 40
0.7709782753
 40
0.8933545485
 40
0.9725016616
 40
1.0
 40
1.0
 40
1.0
 40
1.0
 10
383.0440306896
 20
150.8988296842
 30
0.0
 10
383.0449142757
 20
150.7601041876
 30
0.0
 10
383.0426121172
 20
150.4846343845
 30
0.0
 10
383.044596258
 20
150.0855962231
 30
0.0
 10
383.0427068013
 20
149.7171769521
 30
0.0
 10
383.041776934
 20
149.4049910815
 30
0.0
 10
383.0407938099
 20
149.1643280706
 30
0.0
 10
383.0410751781
 20
149.0136573992
 30
0.0
 10
383.0431273555
 20
148.943535991
 30
0.0
 10
383.0438235081
 20
148.9254589918
 30
0.0
 11
383.0440306896
 21
150.8988296842
 31
0.0
 11
383.0435267615
 21
150.4826450578
 31
0.0
 11
383.0439362119
 21
150.0724312098
 31
0.0
 11
383.0427692118
 21
149.701715661
 31
0.0
 11
383.041626131
 21
149.3773815346
 31
0.0
 11
383.0409686345
 21
149.13588446
 31
0.0
 11
383.0421967844
 21
148.9796999671
 31
0.0
 11
383.0438235081
 21
148.9254589918
 31
0.0
  0
SPLINE
  5
35C
100
AcDbEntity
  8
A1_DXF_CONTINUOUS_LINE
100
AcDbSpline
 62
7
  6
CONTINUOUS
 70
0
 71
3
 72
14
 73
10
 74
8
 42
0.0000001
 43
0.0000001
 44
0.0000000001
 12
3.1045043987
 22
0.0173153344
 32
0.0
 13
0.0179553509
 23
3.104500763
 33
0.0
 40
0.0
 40
0.0
 40
0.0
 40
0.0
 40
0.1369354528
 40
0.2797827651
 40
0.4237839021
 40
0.5775259276
 40
0.726166578
 40
0.869793162
 40
1.0
 40
1.0
 40
1.0
 40
1.0
 10
383.0438235081
 20
148.9254589918
 30
0.0
 10
383.1855290799
 20
148.9262493528
 30
0.0
 10
383.4757982725
 20
148.9599513655
 30
0.0
 10
383.8932409806
 20
149.1052415733
 30
0.0
 10
384.2840305399
 20
149.3470687879
 30
0.0
 10
384.6162356119
 20
149.6738952889
 30
0.0
 10
384.8670961971
 20
150.0658435488
 30
0.0
 10
385.0174409908
 20
150.4801234922
 30
0.0
 10
385.0530511579
 20
150.7640872749
 30
0.0
 10
385.053830461
 20
150.8988296842
 30
0.0
 11
383.0438235081
 21
148.9254589918
 31
0.0
 11
383.4661499922
 21
148.9741435337
 31
0.0
 11
383.8851281535
 21
149.1195022491
 31
0.0
 11
384.2654485938
 21
149.3544878158
 31
0.0
 11
384.6058244925
 21
149.6890916803
 31
0.0
 11
384.8542992597
 21
150.0779465912
 31
0.0
 11
385.0052046984
 21
150.4975309764
 31
0.0
 11
385.053830461
 21
150.8988296842
 31
0.0
  0
SPLINE
  5
35D
100
AcDbEntity
  8
A1_DXF_CONTINUOUS_LINE
100
AcDbSpline
 62
7
  6
CONTINUOUS
 70
0
 71
3
 72
14
 73
10
 74
8
 42
0.0000001
 43
0.0000001
 44
0.0000000001
 12
-0.0326852606
 22
-2.0096781351
 32
0.0
 13
0.0325545463
 23
-2.0095495644
 33
0.0
 40
0.0
 40
0.0
 40
0.0
 40
0.0
 40
0.0258584425
 40
0.1005405153
 40
0.2177826617
 40
0.3778144518
 40
0.5646521925
 40
0.7780069655
 40
1.0
 40
1.0
 40
1.0
 40
1.0
 10
383.0440294234
 20
175.0184219943
 30
0.0
 10
383.0437476934
 20
175.0010996121
 30
0.0
 10
383.0431553392
 20
174.9337467126
 30
0.0
 10
383.0446186184
 20
174.7878434883
 30
0.0
 10
383.0421777279
 20
174.5520602746
 30
0.0
 10
383.0417171056
 20
174.2411356482
 30
0.0
 10
383.0402801222
 20
173.8658181597
 30
0.0
 10
383.043128983
 20
173.4490045243
 30
0.0
 10
383.0414152479
 20
173.1573239511
 30
0.0
 10
383.0438242087
 20
173.0086219492
 30
0.0
 11
383.0440294234
 21
175.0184219943
 31
0.0
 11
383.0435268624
 21
174.9664537843
 31
0.0
 11
383.0439358599
 21
174.816357323
 31
0.0
 11
383.0427690914
 21
174.5807253937
 31
0.0
 11
383.0416276063
 21
174.2590934091
 31
0.0
 11
383.0409712853
 21
173.8835850182
 31
0.0
 11
383.0421990678
 21
173.4547835289
 31
0.0
 11
383.0438242087
 21
173.0086219492
 31
0.0
  0
SPLINE
  5
35E
100
AcDbEntity
  8
A1_DXF_CONTINUOUS_LINE
100
AcDbSpline
 62
7
  6
CONTINUOUS
 70
0
 71
3
 72
14
 73
10
 74
8
 42
0.0000001
 43
0.0000001
 44
0.0000000001
 12
2.0095528445
 22
-0.0322687818
 32
0.0
 13
2.0096671682
 23
0.0316936876
 33
0.0
 40
0.0
 40
0.0
 40
0.0
 40
0.0
 40
0.2101351074
 40
0.4186042311
 40
0.6078366638
 40
0.7771896766
 40
0.9008158157
 40
0.9759128902
 40
1.0
 40
1.0
 40
1.0
 40
1.0
 10
383.0438242087
 20
173.0086219492
 30
0.0
 10
383.1845834096
 20
173.0063616812
 30
0.0
 10
383.4650452675
 20
173.0079872389
 30
0.0
 10
383.8722462175
 20
173.0053542375
 30
0.0
 10
384.2521393514
 20
173.0064769951
 30
0.0
 10
384.5751913625
 20
173.0065765031
 30
0.0
 10
384.8217721525
 20
173.0092426489
 30
0.0
 10
384.9710445282
 20
173.0079563818
 30
0.0
 10
385.0374885626
 20
173.008572694
 30
0.0
 10
385.0536242539
 20
173.0088271638
 30
0.0
 11
383.0438242087
 21
173.0086219492
 31
0.0
 11
383.4661536046
 21
173.0071271392
 31
0.0
 11
383.8851357083
 21
173.0059606327
 31
0.0
 11
384.2654571165
 21
173.0063392391
 31
0.0
 11
384.6058235327
 21
173.0072748184
 31
0.0
 11
384.8542853221
 21
173.008593102
 31
0.0
 11
385.0052161103
 21
173.008343466
 31
0.0
 11
385.0536242539
 21
173.0088271638
 31
0.0
  0
SPLINE
  5
35F
100
AcDbEntity
  8
A1_DXF_CONTINUOUS_LINE
100
AcDbSpline
 62
7
  6
CONTINUOUS
 70
0
 71
3
 72
14
 73
10
 74
8
 42
0.0000001
 43
0.0000001
 44
0.0000000001
 12
-0.0326851553
 22
2.0096781359
 32
0.0
 13
0.0325545536
 23
2.0095495643
 33
0.0
 40
0.0
 40
0.0
 40
0.0
 40
0.0
 40
0.0258584425
 40
0.1005405154
 40
0.217782662
 40
0.377814452
 40
0.5646521925
 40
0.7780069654
 40
1.0
 40
1.0
 40
1.0
 40
1.0
 10
383.0440294233
 20
148.8892372691
 30
0.0
 10
383.0437476942
 20
148.9065596513
 30
0.0
 10
383.0431553419
 20
148.973912551
 30
0.0
 10
383.044618616
 20
149.1198157755
 30
0.0
 10
383.0421777225
 20
149.3555989892
 30
0.0
 10
383.0417170982
 20
149.6665236155
 30
0.0
 10
383.0402801158
 20
150.0418411039
 30
0.0
 10
383.0431289812
 20
150.4586547392
 30
0.0
 10
383.0414152473
 20
150.7503353123
 30
0.0
 10
383.0438242087
 20
150.8990373143
 30
0.0
 11
383.0440294233
 21
148.8892372691
 31
0.0
 11
383.0435268639
 21
148.9412054793
 31
0.0
 11
383.0439358589
 21
149.0913019408
 31
0.0
 11
383.0427690866
 21
149.3269338702
 31
0.0
 11
383.0416275995
 21
149.6485658546
 31
0.0
 11
383.0409712793
 21
150.0240742452
 31
0.0
 11
383.0421990655
 21
150.4528757344
 31
0.0
 11
383.0438242087
 21
150.8990373143
 31
0.0
  0
SPLINE
  5
360
100
AcDbEntity
  8
A1_DXF_CONTINUOUS_LINE
100
AcDbSpline
 62
7
  6
CONTINUOUS
 70
0
 71
3
 72
8
 73
4
 74
2
 42
0.0000001
 43
0.0000001
 44
0.0000000001
 12
-0.0186286641
 22
-3.1433258154
 32
0.0
 13
-3.1433258155
 23
-0.0186286639
 33
0.0
 40
0.0
 40
0.0
 40
0.0
 40
0.0
 40
1.0
 40
1.0
 40
1.0
 40
1.0
 10
385.0536242539
 20
150.8988320996
 30
0.0
 10
385.0474146992
 20
149.8510568278
 30
0.0
 10
384.0918046951
 20
148.8954468238
 30
0.0
 10
383.0440294233
 20
148.8892372691
 30
0.0
 11
385.0536242539
 21
150.8988320996
 31
0.0
 11
383.0440294233
 21
148.8892372691
 31
0.0
  0
SPLINE
  5
361
100
AcDbEntity
  8
A1_DXF_CONTINUOUS_LINE
100
AcDbSpline
 62
7
  6
CONTINUOUS
 70
0
 71
3
 72
14
 73
10
 74
8
 42
0.0000001
 43
0.0000001
 44
0.0000000001
 12
2.0095528444
 22
0.0322687874
 32
0.0
 13
2.009667169
 23
-0.0316935854
 33
0.0
 40
0.0
 40
0.0
 40
0.0
 40
0.0
 40
0.2101351075
 40
0.4186042314
 40
0.607836664
 40
0.7771896768
 40
0.9008158158
 40
0.9759128902
 40
1.0
 40
1.0
 40
1.0
 40
1.0
 10
383.0438242087
 20
150.8990373143
 30
0.0
 10
383.1845834097
 20
150.9012975826
 30
0.0
 10
383.4650452678
 20
150.899672026
 30
0.0
 10
383.8722462179
 20
150.9023050321
 30
0.0
 10
384.2521393518
 20
150.9011822759
 30
0.0
 10
384.5751913628
 20
150.9010827658
 30
0.0
 10
384.8217721526
 20
150.8984166171
 30
0.0
 10
384.9710445282
 20
150.8997028789
 30
0.0
 10
385.0374885626
 20
150.8990865686
 30
0.0
 10
385.0536242539
 20
150.8988320996
 30
0.0
 11
383.0438242087
 21
150.8990373143
 31
0.0
 11
383.4661536048
 21
150.9005321263
 31
0.0
 11
383.8851357088
 21
150.9016986365
 31
0.0
 11
384.265457117
 21
150.9013200313
 31
0.0
 11
384.605823533
 21
150.90038445
 31
0.0
 11
384.8542853221
 21
150.8990661624
 31
0.0
 11
385.0052161103
 21
150.8993157959
 31
0.0
 11
385.0536242539
 21
150.8988320996
 31
0.0
  0
SPLINE
  5
362
100
AcDbEntity
  8
A1_DXF_CONTINUOUS_LINE
100
AcDbSpline
 62
7
  6
CONTINUOUS
 70
0
 71
3
 72
14
 73
10
 74
8
 42
0.0000001
 43
0.0000001
 44
0.0000000001
 12
-0.0315117963
 22
2.0095671615
 32
0.0
 13
0.0373239795
 23
2.0096307353
 33
0.0
 40
0.0
 40
0.0
 40
0.0
 40
0.0
 40
0.2101242506
 40
0.4186153769
 40
0.6078494302
 40
0.7771858191
 40
0.9008157045
 40
0.9759128837
 40
1.0
 40
1.0
 40
1.0
 40
1.0
 10
383.0438242084
 20
173.0086219487
 30
0.0
 10
383.0416170775
 20
173.1493748799
 30
0.0
 10
383.0433089042
 20
173.4298437526
 30
0.0
 10
383.0403346218
 20
173.8370531026
 30
0.0
 10
383.0416339829
 20
174.2169517174
 30
0.0
 10
383.0419830596
 20
174.5399951931
 30
0.0
 10
383.0447821026
 20
174.7865683481
 30
0.0
 10
383.0430300077
 20
174.9358433915
 30
0.0
 10
383.0437297477
 20
175.0022865912
 30
0.0
 10
383.0440294233
 20
175.0184219943
 30
0.0
 11
383.0438242084
 21
173.0086219487
 31
0.0
 11
383.0423731537
 21
173.430930161
 31
0.0
 11
383.0410256115
 21
173.8499564232
 31
0.0
 11
383.0415230371
 21
174.2302813878
 31
0.0
 11
383.0426896291
 21
174.5706140695
 31
0.0
 11
383.0439614997
 21
174.819083915
 31
0.0
 11
383.043477148
 21
174.970014516
 31
0.0
 11
383.0440294233
 21
175.0184219943
 31
0.0
  0
SPLINE
  5
363
100
AcDbEntity
  8
A1_DXF_CONTINUOUS_LINE
100
AcDbSpline
 62
7
  6
CONTINUOUS
 70
0
 71
3
 72
14
 73
10
 74
8
 42
0.0000001
 43
0.0000001
 44
0.0000000001
 12
-2.009695861
 22
-0.0285124345
 32
0.0
 13
-2.009539873
 23
0.0330296319
 33
0.0
 40
0.0
 40
0.0
 40
0.0
 40
0.0
 40
0.0258604245
 40
0.1005470794
 40
0.2177878087
 40
0.3778262562
 40
0.5646643023
 40
0.777999333
 40
1.0
 40
1.0
 40
1.0
 40
1.0
 10
385.0536242539
 20
173.0088271638
 30
0.0
 10
385.0363003911
 20
173.0085813826
 30
0.0
 10
384.9689426214
 20
173.0080376239
 30
0.0
 10
384.8230357806
 20
173.0090987212
 30
0.0
 10
384.5872468679
 20
173.006765267
 30
0.0
 10
384.2763175335
 20
173.0065332938
 30
0.0
 10
383.9010091528
 20
173.0053066876
 30
0.0
 10
383.484203341
 20
173.0078396814
 30
0.0
 10
383.1925306058
 20
173.0061777485
 30
0.0
 10
383.0438242084
 20
173.0086219487
 30
0.0
 11
385.0536242539
 21
173.0088271638
 31
0.0
 11
385.0016516906
 21
173.0083700519
 31
0.0
 11
384.8515457243
 21
173.0085571035
 31
0.0
 11
384.6159170591
 21
173.0073528829
 31
0.0
 11
384.2942713262
 21
173.0064219245
 31
0.0
 11
383.918762458
 21
173.0059108495
 31
0.0
 11
383.4900006349
 21
173.0069796744
 31
0.0
 11
383.0438242084
 21
173.0086219487
 31
0.0
  0
SPLINE
  5
364
100
AcDbEntity
  8
A1_DXF_CONTINUOUS_LINE
100
AcDbSpline
 62
7
  6
CONTINUOUS
 70
0
 71
3
 72
8
 73
4
 74
2
 42
0.0000001
 43
0.0000001
 44
0.0000000001
 12
3.1433258154
 22
-0.0186286641
 32
0.0
 13
0.0186286641
 23
-3.1433258154
 33
0.0
 40
0.0
 40
0.0
 40
0.0
 40
0.0
 40
1.0
 40
1.0
 40
1.0
 40
1.0
 10
383.0440294233
 20
175.0184219943
 30
0.0
 10
384.0918046951
 20
175.0122124396
 30
0.0
 10
385.0474146992
 20
174.0566024356
 30
0.0
 10
385.0536242539
 20
173.0088271638
 30
0.0
 11
383.0440294233
 21
175.0184219943
 31
0.0
 11
385.0536242539
 21
173.0088271638
 31
0.0
  0
SPLINE
  5
365
100
AcDbEntity
  8
A1_DXF_CONTINUOUS_LINE
100
AcDbSpline
 62
7
  6
CONTINUOUS
 70
0
 71
3
 72
14
 73
10
 74
8
 42
0.0000001
 43
0.0000001
 44
0.0000000001
 12
-0.0001810364
 22
2.5112298341
 32
0.0
 13
-0.0015751254
 23
2.5112293455
 33
0.0
 40
0.0
 40
0.0
 40
0.0
 40
0.0
 40
0.0247812149
 40
0.0996598762
 40
0.2248434729
 40
0.3934118663
 40
0.5897709357
 40
0.7967369451
 40
1.0
 40
1.0
 40
1.0
 40
1.0
 10
382.1395380065
 20
148.1352839798
 30
0.0
 10
382.1395365111
 20
148.1560277553
 30
0.0
 10
382.1395319119
 20
148.2394507068
 30
0.0
 10
382.1395311185
 20
148.4276619197
 30
0.0
 10
382.139529001
 20
148.736234017
 30
0.0
 10
382.1395261914
 20
149.1464945217
 30
0.0
 10
382.1395441449
 20
149.6252131774
 30
0.0
 10
382.1394832896
 20
150.132973898
 30
0.0
 10
382.1396447281
 20
150.476367103
 30
0.0
 10
382.1395380065
 20
150.6465138191
 30
0.0
 11
382.1395380065
 21
148.1352839798
 31
0.0
 11
382.1395344865
 21
148.1975153061
 31
0.0
 11
382.1395312339
 21
148.3855528347
 31
0.0
 11
382.1395292508
 21
148.6999176181
 31
0.0
 11
382.1395292415
 21
149.1232315976
 31
0.0
 11
382.1395312201
 21
149.6163343519
 31
0.0
 11
382.1395344852
 21
150.1360735704
 31
0.0
 11
382.1395380065
 21
150.6465138191
 31
0.0
  0
SPLINE
  5
366
100
AcDbEntity
  8
A1_DXF_CONTINUOUS_LINE
100
AcDbSpline
 62
7
  6
CONTINUOUS
 70
0
 71
3
 72
14
 73
10
 74
8
 42
0.0000001
 43
0.0000001
 44
0.0000000001
 12
0.0014724756
 22
-2.5112294078
 32
0.0
 13
0.0001813442
 23
-2.511229834
 33
0.0
 40
0.0
 40
0.0
 40
0.0
 40
0.0
 40
0.2031881662
 40
0.4092129558
 40
0.604957594
 40
0.7738445663
 40
0.8998374479
 40
0.9752008805
 40
1.0
 40
1.0
 40
1.0
 40
1.0
 10
382.1395380065
 20
150.6465138191
 30
0.0
 10
382.1396377364
 20
150.4764297864
 30
0.0
 10
382.1394868111
 20
150.1338871482
 30
0.0
 10
382.139543236
 20
149.6274913117
 30
0.0
 10
382.1395263684
 20
149.1498081807
 30
0.0
 10
382.1395289408
 20
148.7391178935
 30
0.0
 10
382.1395310982
 20
148.429195897
 30
0.0
 10
382.1395318741
 20
148.2398864725
 30
0.0
 10
382.1395365075
 20
148.1560427427
 30
0.0
 10
382.1395380065
 20
148.1352839798
 30
0.0
 11
382.1395380065
 21
150.6465138191
 31
0.0
 11
382.1395344774
 21
150.1362616332
 31
0.0
 11
382.1395312182
 21
149.6188860338
 31
0.0
 11
382.1395292315
 21
149.1273262575
 31
0.0
 11
382.1395292222
 21
148.7032122533
 31
0.0
 11
382.1395312043
 21
148.3868151693
 31
0.0
 11
382.1395344761
 21
148.1975602686
 31
0.0
 11
382.1395380065
 21
148.1352839798
 31
0.0
  0
SPLINE
  5
367
100
AcDbEntity
  8
A1_DXF_CONTINUOUS_LINE
100
AcDbSpline
 62
7
  6
CONTINUOUS
 70
0
 71
3
 72
14
 73
10
 74
8
 42
0.0000001
 43
0.0000001
 44
0.0000000001
 12
-0.0001810343
 22
-2.511229834
 32
0.0
 13
-0.0015751257
 23
-2.5112293455
 33
0.0
 40
0.0
 40
0.0
 40
0.0
 40
0.0
 40
0.0247812149
 40
0.0996598762
 40
0.2248434729
 40
0.3934118663
 40
0.5897709357
 40
0.7967369451
 40
1.0
 40
1.0
 40
1.0
 40
1.0
 10
382.1395380065
 20
175.7723757946
 30
0.0
 10
382.1395365111
 20
175.7516320192
 30
0.0
 10
382.1395319119
 20
175.6682090676
 30
0.0
 10
382.1395311186
 20
175.4799978548
 30
0.0
 10
382.1395290011
 20
175.1714257575
 30
0.0
 10
382.1395261915
 20
174.7611652528
 30
0.0
 10
382.1395441449
 20
174.2824465971
 30
0.0
 10
382.1394832896
 20
173.7746858765
 30
0.0
 10
382.1396447282
 20
173.4312926714
 30
0.0
 10
382.1395380065
 20
173.2611459553
 30
0.0
 11
382.1395380065
 21
175.7723757946
 31
0.0
 11
382.1395344865
 21
175.7101444683
 31
0.0
 11
382.139531234
 21
175.5221069397
 31
0.0
 11
382.1395292509
 21
175.2077421563
 31
0.0
 11
382.1395292416
 21
174.7844281768
 31
0.0
 11
382.1395312201
 21
174.2913254226
 31
0.0
 11
382.1395344852
 21
173.771586204
 31
0.0
 11
382.1395380065
 21
173.2611459553
 31
0.0
  0
SPLINE
  5
368
100
AcDbEntity
  8
A1_DXF_CONTINUOUS_LINE
100
AcDbSpline
 62
7
  6
CONTINUOUS
 70
0
 71
3
 72
14
 73
10
 74
8
 42
0.0000001
 43
0.0000001
 44
0.0000000001
 12
0.0014725311
 22
2.5112294077
 32
0.0
 13
0.0001808305
 23
2.511229834
 33
0.0
 40
0.0
 40
0.0
 40
0.0
 40
0.0
 40
0.2031881664
 40
0.4092129561
 40
0.6049575943
 40
0.7738445665
 40
0.8998374481
 40
0.9752008806
 40
1.0
 40
1.0
 40
1.0
 40
1.0
 10
382.1395380065
 20
173.2611459553
 30
0.0
 10
382.1396377402
 20
173.4312299882
 30
0.0
 10
382.1394868212
 20
173.7737726266
 30
0.0
 10
382.1395432535
 20
174.2801684634
 30
0.0
 10
382.1395263893
 20
174.7578515944
 30
0.0
 10
382.1395289635
 20
175.1685418815
 30
0.0
 10
382.1395311144
 20
175.4784638778
 30
0.0
 10
382.1395318911
 20
175.6677733022
 30
0.0
 10
382.1395365117
 20
175.7516170318
 30
0.0
 10
382.1395380065
 20
175.7723757946
 30
0.0
 11
382.1395380065
 21
173.2611459553
 31
0.0
 11
382.1395344872
 21
173.7713981417
 31
0.0
 11
382.1395312351
 21
174.2887737414
 31
0.0
 11
382.1395292523
 21
174.7803335176
 31
0.0
 11
382.139529243
 21
175.2044475218
 31
0.0
 11
382.1395312213
 21
175.5208446056
 31
0.0
 11
382.1395344859
 21
175.7100995061
 31
0.0
 11
382.1395380065
 21
175.7723757946
 31
0.0
  0
SPLINE
  5
369
100
AcDbEntity
  8
A1_DXF_CONTINUOUS_LINE
100
AcDbSpline
 62
6
  6
CONTINUOUS
 70
0
 71
3
 72
8
 73
4
 74
2
 42
0.0000001
 43
0.0000001
 44
0.0000000001
 12
0.0948889728
 22
3.0828890289
 32
0.0
 13
3.0828890289
 23
0.0948889728
 33
0.0
 40
0.0
 40
0.0
 40
0.0
 40
0.0
 40
1.0
 40
1.0
 40
1.0
 40
1.0
 10
370.989355023
 20
172.7574159998
 30
0.0
 10
371.0209846806
 20
173.7850456762
 30
0.0
 10
371.9665662307
 20
174.7306272263
 30
0.0
 10
372.9941959071
 20
174.7622568839
 30
0.0
 11
370.989355023
 21
172.7574159998
 31
0.0
 11
372.9941959071
 21
174.7622568839
 31
0.0
  0
SPLINE
  5
36A
100
AcDbEntity
  8
A1_DXF_CONTINUOUS_LINE
100
AcDbSpline
 62
7
  6
CONTINUOUS
 70
0
 71
3
 72
14
 73
10
 74
8
 42
0.0000001
 43
0.0000001
 44
0.0000000001
 12
0.032890653
 22
-2.0096289148
 32
0.0
 13
-0.0325658752
 23
-2.0095039926
 33
0.0
 40
0.0
 40
0.0
 40
0.0
 40
0.0
 40
0.0259231324
 40
0.1006246348
 40
0.2178749018
 40
0.3779006897
 40
0.5647453271
 40
0.7780647614
 40
1.0
 40
1.0
 40
1.0
 40
1.0
 10
372.9940350968
 20
174.7671072735
 30
0.0
 10
372.9943193063
 20
174.7497419813
 30
0.0
 10
372.9949198118
 20
174.6823343185
 30
0.0
 10
372.993482594
 20
174.5363724185
 30
0.0
 10
372.9959348877
 20
174.3005803205
 30
0.0
 10
372.9964100438
 20
173.989656655
 30
0.0
 10
372.9978379326
 20
173.6143706839
 30
0.0
 10
372.9949621108
 20
173.1976243315
 30
0.0
 10
372.9966682401
 20
172.9060127548
 30
0.0
 10
372.9942590683
 20
172.7573528388
 30
0.0
 11
372.9940350968
 21
174.7671072735
 31
0.0
 11
372.9945448042
 21
174.7150102886
 31
0.0
 11
372.9941575848
 21
174.5648781099
 31
0.0
 11
372.9953421824
 21
174.3292352696
 31
0.0
 11
372.9964951846
 21
174.0076226518
 31
0.0
 11
372.9971447795
 21
173.6321088676
 31
0.0
 11
372.995895056
 21
173.203388147
 31
0.0
 11
372.9942590683
 21
172.7573528388
 31
0.0
  0
SPLINE
  5
36B
100
AcDbEntity
  8
A1_DXF_CONTINUOUS_LINE
100
AcDbSpline
 62
7
  6
CONTINUOUS
 70
0
 71
3
 72
14
 73
10
 74
8
 42
0.0000001
 43
0.0000001
 44
0.0000000001
 12
-2.0095073908
 22
-0.0322736561
 32
0.0
 13
-2.0096182316
 23
0.0318884043
 33
0.0
 40
0.0
 40
0.0
 40
0.0
 40
0.0
 40
0.210129965
 40
0.4185823068
 40
0.6078425766
 40
0.7771959872
 40
0.9007999389
 40
0.9758610652
 40
1.0
 40
1.0
 40
1.0
 40
1.0
 10
372.9942590683
 20
172.7573528388
 30
0.0
 10
372.8535064958
 20
172.7550922847
 30
0.0
 10
372.5730656771
 20
172.756710702
 30
0.0
 10
372.1658700464
 20
172.7540515782
 30
0.0
 10
371.7859777943
 20
172.7551633951
 30
0.0
 10
371.4629289915
 20
172.7552793803
 30
0.0
 10
371.2163926704
 20
172.7579546663
 30
0.0
 10
371.0671277512
 20
172.7566965555
 30
0.0
 10
371.0006746479
 20
172.7573202263
 30
0.0
 10
370.9845046334
 20
172.7575768103
 30
0.0
 11
372.9942590683
 21
172.7573528388
 31
0.0
 11
372.5719495774
 21
172.7558478653
 31
0.0
 11
372.1530107204
 21
172.7546597909
 31
0.0
 11
371.7726419436
 21
172.7550306141
 31
0.0
 11
371.4322824458
 21
172.7559785156
 31
0.0
 11
371.1838709507
 21
172.7573142548
 31
0.0
 11
371.0330157821
 21
172.7570868004
 31
0.0
 11
370.9845046334
 21
172.7575768103
 31
0.0
  0
SPLINE
  5
36C
100
AcDbEntity
  8
A1_DXF_CONTINUOUS_LINE
100
AcDbSpline
 62
7
  6
CONTINUOUS
 70
0
 71
3
 72
14
 73
10
 74
8
 42
0.0000001
 43
0.0000001
 44
0.0000000001
 12
0.0315180814
 22
2.0095216718
 32
0.0
 13
-0.0375414272
 23
2.0095808994
 33
0.0
 40
0.0
 40
0.0
 40
0.0
 40
0.0
 40
0.2101191973
 40
0.4185935903
 40
0.6078552636
 40
0.7771923938
 40
0.900799906
 40
0.9758611782
 40
1.0
 40
1.0
 40
1.0
 40
1.0
 10
372.9942590678
 20
172.7573528391
 30
0.0
 10
372.9964665858
 20
172.8980991993
 30
0.0
 10
372.9947819682
 20
173.1785471294
 30
0.0
 10
372.9977821307
 20
173.5857510862
 30
0.0
 10
372.9964932269
 20
173.9656489409
 30
0.0
 10
372.9961279562
 20
174.288689164
 30
0.0
 10
372.9933204612
 20
174.5352179554
 30
0.0
 10
372.9950446042
 20
174.6844854326
 30
0.0
 10
372.9943371652
 20
174.7509376351
 30
0.0
 10
372.9940350966
 20
174.7671072735
 30
0.0
 11
372.9942590678
 21
172.7573528391
 31
0.0
 11
372.9957203946
 21
173.1796413235
 31
0.0
 11
372.9970892616
 21
173.5986244236
 31
0.0
 11
372.9965993124
 21
173.9789963192
 31
0.0
 11
372.9954207009
 21
174.3193227639
 31
0.0
 11
372.9941319343
 21
174.5677419457
 31
0.0
 11
372.9945941122
 21
174.7185970429
 31
0.0
 11
372.9940350966
 21
174.7671072735
 31
0.0
  0
SPLINE
  5
36D
100
AcDbEntity
  8
A1_DXF_CONTINUOUS_LINE
100
AcDbSpline
 62
7
  6
CONTINUOUS
 70
0
 71
3
 72
14
 73
10
 74
8
 42
0.0000001
 43
0.0000001
 44
0.0000000001
 12
2.0096473521
 22
-0.0286955306
 32
0.0
 13
2.0094943196
 23
0.0330406024
 33
0.0
 40
0.0
 40
0.0
 40
0.0
 40
0.0
 40
0.0259252
 40
0.1006312493
 40
0.2178801831
 40
0.3779125727
 40
0.5647575079
 40
0.7780571688
 40
1.0
 40
1.0
 40
1.0
 40
1.0
 10
370.9845046334
 20
172.7575768103
 30
0.0
 10
371.0018714699
 20
172.7573288312
 30
0.0
 10
371.0692840462
 20
172.7567773224
 30
0.0
 10
371.2152495932
 20
172.7578119672
 30
0.0
 10
371.4510474101
 20
172.755466684
 30
0.0
 10
371.7619758024
 20
172.7552199482
 30
0.0
 10
372.1372525976
 20
172.7540026434
 30
0.0
 10
372.5539910925
 20
172.7565628239
 30
0.0
 10
372.8455947816
 20
172.7549084642
 30
0.0
 10
372.9942590678
 20
172.7573528391
 30
0.0
 11
370.9845046334
 21
172.7575768103
 31
0.0
 11
371.0366061527
 21
172.7571129862
 31
0.0
 11
371.1867477346
 21
172.757278156
 31
0.0
 11
371.4223874765
 21
172.7560557355
 31
0.0
 11
371.7440137397
 21
172.7551130113
 31
0.0
 11
372.1195279864
 21
172.7546087816
 31
0.0
 11
372.54820899
 21
172.7556997287
 31
0.0
 11
372.9942590678
 21
172.7573528391
 31
0.0
  0
SPLINE
  5
36E
100
AcDbEntity
  8
A1_DXF_CONTINUOUS_LINE
100
AcDbSpline
 62
7
  6
CONTINUOUS
 70
0
 71
3
 72
8
 73
4
 74
2
 42
0.0000001
 43
0.0000001
 44
0.0000000001
 12
0.0948889728
 22
-3.0828890289
 32
0.0
 13
3.0828890289
 23
-0.0948889728
 33
0.0
 40
0.0
 40
0.0
 40
0.0
 40
0.0
 40
1.0
 40
1.0
 40
1.0
 40
1.0
 10
370.989355023
 20
151.1502437746
 30
0.0
 10
371.0209846806
 20
150.1226140983
 30
0.0
 10
371.9665662307
 20
149.1770325482
 30
0.0
 10
372.9941959071
 20
149.1454028905
 30
0.0
 11
370.989355023
 21
151.1502437746
 31
0.0
 11
372.9941959071
 21
149.1454028905
 31
0.0
  0
SPLINE
  5
36F
100
AcDbEntity
  8
A1_DXF_CONTINUOUS_LINE
100
AcDbSpline
 62
7
  6
CONTINUOUS
 70
0
 71
3
 72
14
 73
10
 74
8
 42
0.0000001
 43
0.0000001
 44
0.0000000001
 12
0.0328907604
 22
2.009628914
 32
0.0
 13
-0.0325658655
 23
2.0095039928
 33
0.0
 40
0.0
 40
0.0
 40
0.0
 40
0.0
 40
0.0259231324
 40
0.1006246346
 40
0.2178749015
 40
0.3779006895
 40
0.564745327
 40
0.7780647615
 40
1.0
 40
1.0
 40
1.0
 40
1.0
 10
372.9940350968
 20
149.1405525009
 30
0.0
 10
372.9943193073
 20
149.1579177931
 30
0.0
 10
372.9949198147
 20
149.2253254558
 30
0.0
 10
372.9934825914
 20
149.3712873555
 30
0.0
 10
372.9959348821
 20
149.6070794535
 30
0.0
 10
372.9964100359
 20
149.9180031191
 30
0.0
 10
372.9978379257
 20
150.2932890905
 30
0.0
 10
372.9949621086
 20
150.710035443
 30
0.0
 10
372.9966682394
 20
151.0016470197
 30
0.0
 10
372.9942590683
 20
151.1503069357
 30
0.0
 11
372.9940350968
 21
149.1405525009
 31
0.0
 11
372.9945448059
 21
149.1926494858
 31
0.0
 11
372.9941575838
 21
149.3427816641
 31
0.0
 11
372.9953421773
 21
149.5784245043
 31
0.0
 11
372.9964951774
 21
149.9000371222
 31
0.0
 11
372.997144773
 21
150.2755509068
 31
0.0
 11
372.9958950533
 21
150.7042716276
 31
0.0
 11
372.9942590683
 21
151.1503069357
 31
0.0
  0
SPLINE
  5
370
100
AcDbEntity
  8
A1_DXF_CONTINUOUS_LINE
100
AcDbSpline
 62
7
  6
CONTINUOUS
 70
0
 71
3
 72
14
 73
10
 74
8
 42
0.0000001
 43
0.0000001
 44
0.0000000001
 12
-2.0095073908
 22
0.0322736501
 32
0.0
 13
-2.0096182307
 23
-0.031888509
 33
0.0
 40
0.0
 40
0.0
 40
0.0
 40
0.0
 40
0.2101299649
 40
0.4185823066
 40
0.6078425764
 40
0.777195987
 40
0.9007999389
 40
0.9758610652
 40
1.0
 40
1.0
 40
1.0
 40
1.0
 10
372.9942590683
 20
151.1503069357
 30
0.0
 10
372.8535064958
 20
151.1525674893
 30
0.0
 10
372.5730656774
 20
151.1509490709
 30
0.0
 10
372.1658700468
 20
151.1536081896
 30
0.0
 10
371.7859777947
 20
151.1524963714
 30
0.0
 10
371.4629289918
 20
151.1523803883
 30
0.0
 10
371.2163926705
 20
151.1497051054
 30
0.0
 10
371.0671277512
 20
151.1509632218
 30
0.0
 10
371.0006746479
 20
151.150339549
 30
0.0
 10
370.9845046334
 20
151.1500829641
 30
0.0
 11
372.9942590683
 21
151.1503069357
 31
0.0
 11
372.5719495776
 21
151.1518119069
 31
0.0
 11
372.1530107209
 21
151.1529999774
 31
0.0
 11
371.7726419441
 21
151.1526291529
 31
0.0
 11
371.4322824461
 21
151.1516812536
 31
0.0
 11
371.1838709507
 21
151.1503455186
 31
0.0
 11
371.0330157821
 21
151.1505729756
 31
0.0
 11
370.9845046334
 21
151.1500829641
 31
0.0
  0
SPLINE
  5
371
100
AcDbEntity
  8
A1_DXF_CONTINUOUS_LINE
100
AcDbSpline
 62
7
  6
CONTINUOUS
 70
0
 71
3
 72
14
 73
10
 74
8
 42
0.0000001
 43
0.0000001
 44
0.0000000001
 12
-0.0124787651
 22
-1.9728555134
 32
0.0
 13
-0.0760524531
 23
-1.9716390639
 33
0.0
 40
0.0
 40
0.0
 40
0.0
 40
0.0
 40
0.2107689172
 40
0.4185512462
 40
0.6063924902
 40
0.770765418
 40
0.8932019518
 40
0.9724140326
 40
1.0
 40
1.0
 40
1.0
 40
1.0
 10
372.9940350968
 20
151.1500829076
 30
0.0
 10
372.9931583848
 20
151.0114773675
 30
0.0
 10
372.9954517861
 20
150.7362214253
 30
0.0
 10
372.9934990599
 20
150.3374390709
 30
0.0
 10
372.9954045181
 20
149.9691709737
 30
0.0
 10
372.9963458487
 20
149.6570236881
 30
0.0
 10
372.9973288066
 20
149.4163276797
 30
0.0
 10
372.9970190022
 20
149.2655561108
 30
0.0
 10
372.9949583946
 20
149.1953526891
 30
0.0
 10
372.9942590678
 20
149.1772228321
 30
0.0
 11
372.9940350968
 21
151.1500829076
 31
0.0
 11
372.9945448047
 21
150.7342582816
 31
0.0
 11
372.9941575825
 21
150.324325751
 31
0.0
 11
372.9953421766
 21
149.9537365972
 31
0.0
 11
372.9964951775
 21
149.629448123
 31
0.0
 11
372.9971447738
 21
149.3878945738
 31
0.0
 11
372.9958950538
 21
149.2316224544
 31
0.0
 11
372.9942590678
 21
149.1772228321
 31
0.0
  0
SPLINE
  5
372
100
AcDbEntity
  8
A1_DXF_CONTINUOUS_LINE
100
AcDbSpline
 62
7
  6
CONTINUOUS
 70
0
 71
3
 72
14
 73
10
 74
8
 42
0.0000001
 43
0.0000001
 44
0.0000000001
 12
-3.1036157843
 22
0.0186629614
 32
0.0
 13
-0.0193667841
 23
3.1036114722
 33
0.0
 40
0.0
 40
0.0
 40
0.0
 40
0.0
 40
0.1369753378
 40
0.2798652809
 40
0.4239438641
 40
0.5777392045
 40
0.726384155
 40
0.8699033226
 40
1.0
 40
1.0
 40
1.0
 40
1.0
 10
372.9942590678
 20
149.1772228321
 30
0.0
 10
372.8525527943
 20
149.1780749539
 30
0.0
 10
372.5622965842
 20
149.2119019963
 30
0.0
 10
372.1448642242
 20
149.3573362613
 30
0.0
 10
371.754086785
 20
149.599268472
 30
0.0
 10
371.4218976729
 20
149.9261310117
 30
0.0
 10
371.1711907798
 20
150.3179292834
 30
0.0
 10
371.020695874
 20
150.7318106215
 30
0.0
 10
370.9853444848
 20
151.0154930608
 30
0.0
 10
370.9845046334
 20
151.1500829076
 30
0.0
 11
372.9942590678
 21
149.1772228321
 31
0.0
 11
372.5719495769
 21
149.2260822269
 31
0.0
 11
372.1530107199
 21
149.3715739771
 31
0.0
 11
371.7726419433
 21
149.6066972906
 31
0.0
 11
371.4322824457
 21
149.9413607102
 31
0.0
 11
371.1838709506
 21
150.3301165226
 31
0.0
 11
371.0330157821
 21
150.7492302434
 31
0.0
 11
370.9845046334
 21
151.1500829076
 31
0.0
  0
ENDSEC
  0
SECTION
  2
OBJECTS
  0
DICTIONARY
  5
C
100
AcDbDictionary
280
0
281
1
  3
ACAD_GROUP
350
D
  3
ACAD_MLINESTYLE
350
17
  3
ACAD_LAYOUT
350
1A
  3
ACAD_PLOTSETTINGS
350
19
  3
ACAD_PLOTSTYLENAME
350
E
  0
DICTIONARY
  5
D
102
{ACAD_REACTORS
330
C
102
}
100
AcDbDictionary
280
0
281
1
  0
ACDBDICTIONARYWDFLT
  5
E
102
{ACAD_REACTORS
330
C
102
}
100
AcDbDictionary
281
1
  3
Normal
350
F
100
AcDbDictionaryWithDefault
340
F
  0
DICTIONARY
  5
17
102
{ACAD_REACTORS
330
C
102
}
100
AcDbDictionary
280
0
281
1
  3
Standard
350
18
  0
DICTIONARY
  5
19
102
{ACAD_REACTORS
330
C
102
}
100
AcDbDictionary
281
1
  0
DICTIONARY
  5
1A
102
{ACAD_REACTORS
330
C
102
}
100
AcDbDictionary
281
1
  3
Layout1
350
1E
  3
Model
350
22
  0
ACDBPLACEHOLDER
  5
F
102
{ACAD_REACTORS
330
E
102
}
  0
MLINESTYLE
  5
18
102
{ACAD_REACTORS
330
17
102
}
100
AcDbMlineStyle
  2
STANDARD
 70
0
  3

 62
256
 51
90.0
 52
90.0
 71
2
 49
0.5
 62
256
  6
BYLAYER
 49
-0.5
 62
256
  6
BYLAYER
  0
LAYOUT
  5
1E
102
{ACAD_REACTORS
330
1A
102
}
100
AcDbPlotSettings
  1

  2

  4

  6

 40
0.0
 41
0.0
 42
0.0
 43
0.0
 44
0.0
 45
0.0
 46
0.0
 47
0.0
 48
0.0
 49
0.0
140
0.0
141
0.0
142
1.0
143
1.0
 70
0
 72
0
 73
0
 74
0
  7

 75
0
147
1.0
148
0.0
149
0.0
100
AcDbLayout
  1
Layout1
 70
0
 71
0
 10
0.0
 20
0.0
 11
0.0
 21
0.0
 12
0.0
 22
0.0
 32
0.0
 14
0.0
 24
0.0
 34
0.0
 15
0.0
 25
0.0
 35
0.0
146
0.0
 13
0.0
 23
0.0
 33
0.0
 16
0.0
 26
0.0
 36
0.0
 17
0.0
 27
0.0
 37
0.0
 76
0
330
1B
331
0
345
0
346
0
  0
LAYOUT
  5
22
102
{ACAD_REACTORS
330
1A
102
}
100
AcDbPlotSettings
  1

  2

  4

  6

 40
0.0
 41
0.0
 42
0.0
 43
0.0
 44
0.0
 45
0.0
 46
0.0
 47
0.0
 48
0.0
 49
0.0
140
0.0
141
0.0
142
1.0
143
1.0
 70
0
 72
0
 73
0
 74
0
  7

 75
0
147
1.0
148
0.0
149
0.0
100
AcDbLayout
  1
Model
 70
0
 71
0
 10
0.0
 20
0.0
 11
0.0
 21
0.0
 12
0.0
 22
0.0
 32
0.0
 14
0.0
 24
0.0
 34
0.0
 15
0.0
 25
0.0
 35
0.0
146
0.0
 13
0.0
 23
0.0
 33
0.0
 16
0.0
 26
0.0
 36
0.0
 17
0.0
 27
0.0
 37
0.0
 76
0
330
1F
331
0
345
0
346
0
  0
ENDSEC
  0
EOF
