  0
SECTION
  2
HEADER
  9
$ACADVER
  1
AC1014
  9
$ACADMAINTVER
 70
     9
  9
$DWGCODEPAGE
  3
ANSI_936
  9
$INSBASE
 10
0.0
 20
0.0
 30
0.0
  9
$EXTMIN
 10
131.0346315706847
 20
171.3568132029934
 30
0.0
  9
$EXTMAX
 10
457.5952958996855
 20
404.4708874316954
 30
0.0
  9
$LIMMIN
 10
-105.0
 20
-148.5
  9
$LIMMAX
 10
105.0
 20
148.5
  9
$ORTHOMODE
 70
     0
  9
$REGENMODE
 70
     1
  9
$FILLMODE
 70
     1
  9
$QTEXTMODE
 70
     0
  9
$MIRRTEXT
 70
     1
  9
$DRAGMODE
 70
     2
  9
$LTSCALE
 40
1.0
  9
$OSMODE
 70
    37
  9
$ATTMODE
 70
     1
  9
$TEXTSIZE
 40
2.5
  9
$TRACEWID
 40
1.0
  9
$TEXTSTYLE
  7
STANDARD
  9
$CLAYER
  8
0
  9
$CELTYPE
  6
BYLAYER
  9
$CECOLOR
 62
   256
  9
$CELTSCALE
 40
1.0
  9
$DELOBJ
 70
     1
  9
$DISPSILH
 70
     0
  9
$DIMSCALE
 40
1.0
  9
$DIMASZ
 40
4.0
  9
$DIMEXO
 40
0.0
  9
$DIMDLI
 40
0.38
  9
$DIMRND
 40
0.0
  9
$DIMDLE
 40
6.0
  9
$DIMEXE
 40
2.0
  9
$DIMTP
 40
0.0
  9
$DIMTM
 40
0.0
  9
$DIMTXT
 40
7.0
  9
$DIMCEN
 40
0.0
  9
$DIMTSZ
 40
0.0
  9
$DIMTOL
 70
     0
  9
$DIMLIM
 70
     0
  9
$DIMTIH
 70
     0
  9
$DIMTOH
 70
     0
  9
$DIMSE1
 70
     0
  9
$DIMSE2
 70
     0
  9
$DIMTAD
 70
     1
  9
$DIMZIN
 70
     8
  9
$DIMBLK
  1

  9
$DIMASO
 70
     1
  9
$DIMSHO
 70
     1
  9
$DIMPOST
  1

  9
$DIMAPOST
  1

  9
$DIMALT
 70
     0
  9
$DIMALTD
 70
     2
  9
$DIMALTF
 40
25.4
  9
$DIMLFAC
 40
1.0
  9
$DIMTOFL
 70
     1
  9
$DIMTVP
 40
0.0
  9
$DIMTIX
 70
     0
  9
$DIMSOXD
 70
     0
  9
$DIMSAH
 70
     0
  9
$DIMBLK1
  1

  9
$DIMBLK2
  1

  9
$DIMSTYLE
  2
标准
  9
$DIMCLRD
 70
     0
  9
$DIMCLRE
 70
     0
  9
$DIMCLRT
 70
     0
  9
$DIMTFAC
 40
1.0
  9
$DIMGAP
 40
0.625
  9
$DIMJUST
 70
     0
  9
$DIMSD1
 70
     0
  9
$DIMSD2
 70
     0
  9
$DIMTOLJ
 70
     1
  9
$DIMTZIN
 70
     0
  9
$DIMALTZ
 70
     0
  9
$DIMALTTZ
 70
     0
  9
$DIMFIT
 70
     3
  9
$DIMUPT
 70
     0
  9
$DIMUNIT
 70
     2
  9
$DIMDEC
 70
     1
  9
$DIMTDEC
 70
     3
  9
$DIMALTU
 70
     2
  9
$DIMALTTD
 70
     2
  9
$DIMTXSTY
  7
标准
  9
$DIMAUNIT
 70
     0
  9
$LUNITS
 70
     2
  9
$LUPREC
 70
     4
  9
$SKETCHINC
 40
1.0
  9
$FILLETRAD
 40
10.0
  9
$AUNITS
 70
     0
  9
$AUPREC
 70
     0
  9
$MENU
  1
.
  9
$ELEVATION
 40
0.0
  9
$PELEVATION
 40
0.0
  9
$THICKNESS
 40
0.0
  9
$LIMCHECK
 70
     0
  9
$CHAMFERA
 40
10.0
  9
$CHAMFERB
 40
10.0
  9
$CHAMFERC
 40
20.0
  9
$CHAMFERD
 40
0.0
  9
$SKPOLY
 70
     0
  9
$TDCREATE
 40
2456186.490886319
  9
$TDUPDATE
 40
2456186.490886331
  9
$TDINDWG
 40
0.0000000116
  9
$TDUSRTIMER
 40
0.0000000116
  9
$USRTIMER
 70
     1
  9
$ANGBASE
 50
0.0
  9
$ANGDIR
 70
     0
  9
$PDMODE
 70
     3
  9
$PDSIZE
 40
8.0
  9
$PLINEWID
 40
0.0
  9
$COORDS
 70
     1
  9
$SPLFRAME
 70
     0
  9
$SPLINETYPE
 70
     6
  9
$SPLINESEGS
 70
     8
  9
$ATTDIA
 70
     0
  9
$ATTREQ
 70
     1
  9
$HANDLING
 70
     1
  9
$HANDSEED
  5
279
  9
$SURFTAB1
 70
     6
  9
$SURFTAB2
 70
     6
  9
$SURFTYPE
 70
     6
  9
$SURFU
 70
     6
  9
$SURFV
 70
     6
  9
$UCSNAME
  2

  9
$UCSORG
 10
0.0
 20
0.0
 30
0.0
  9
$UCSXDIR
 10
1.0
 20
0.0
 30
0.0
  9
$UCSYDIR
 10
0.0
 20
1.0
 30
0.0
  9
$PUCSNAME
  2

  9
$PUCSORG
 10
0.0
 20
0.0
 30
0.0
  9
$PUCSXDIR
 10
1.0
 20
0.0
 30
0.0
  9
$PUCSYDIR
 10
0.0
 20
1.0
 30
0.0
  9
$USERI1
 70
     0
  9
$USERI2
 70
     0
  9
$USERI3
 70
     0
  9
$USERI4
 70
     0
  9
$USERI5
 70
     0
  9
$USERR1
 40
0.0
  9
$USERR2
 40
0.0
  9
$USERR3
 40
0.0
  9
$USERR4
 40
0.0
  9
$USERR5
 40
0.0
  9
$WORLDVIEW
 70
     1
  9
$SHADEDGE
 70
     3
  9
$SHADEDIF
 70
    70
  9
$TILEMODE
 70
     1
  9
$MAXACTVP
 70
    64
  9
$PINSBASE
 10
0.0
 20
0.0
 30
0.0
  9
$PLIMCHECK
 70
     0
  9
$PEXTMIN
 10
1.000000000000000E+20
 20
1.000000000000000E+20
 30
1.000000000000000E+20
  9
$PEXTMAX
 10
-1.000000000000000E+20
 20
-1.000000000000000E+20
 30
-1.000000000000000E+20
  9
$PLIMMIN
 10
0.0
 20
0.0
  9
$PLIMMAX
 10
420.0
 20
297.0
  9
$UNITMODE
 70
     0
  9
$VISRETAIN
 70
     1
  9
$PLINEGEN
 70
     0
  9
$PSLTSCALE
 70
     1
  9
$TREEDEPTH
 70
  3020
  9
$PICKSTYLE
 70
     1
  9
$CMLSTYLE
  2
STANDARD
  9
$CMLJUST
 70
     0
  9
$CMLSCALE
 40
20.0
  9
$PROXYGRAPHICS
 70
     1
  9
$MEASUREMENT
 70
     1
  0
ENDSEC
  0
SECTION
  2
CLASSES
  0
CLASS
  1
ACDBDICTIONARYWDFLT
  2
AcDbDictionaryWithDefault
  3
ObjectDBX Classes
 90
        0
280
     0
281
     0
  0
CLASS
  1
VISUALSTYLE
  2
AcDbVisualStyle
  3
ObjectDBX Classes
 90
     4095
280
     0
281
     0
  0
CLASS
  1
SCALE
  2
AcDbScale
  3
ObjectDBX Classes
 90
     1153
280
     0
281
     0
  0
CLASS
  1
DICTIONARYVAR
  2
AcDbDictionaryVar
  3
ObjectDBX Classes
 90
        0
280
     0
281
     0
  0
CLASS
  1
XRECORD
  2
AcDbXrecord
  3
AutoCAD 2000
 90
        0
280
     0
281
     0
  0
CLASS
  1
LWPOLYLINE
  2
AcDbPolyline
  3
AutoCAD 2000
 90
        0
280
     0
281
     1
  0
CLASS
  1
HATCH
  2
AcDbHatch
  3
AutoCAD 2000
 90
        0
280
     0
281
     1
  0
CLASS
  1
ACDBPLACEHOLDER
  2
AcDbPlaceHolder
  3
ObjectDBX Classes
 90
        0
280
     0
281
     0
  0
CLASS
  1
LAYOUT
  2
AcDbLayout
  3
ObjectDBX Classes
 90
        0
280
     0
281
     0
  0
ENDSEC
  0
SECTION
  2
TABLES
  0
TABLE
  2
VPORT
  5
8
330
0
100
AcDbSymbolTable
 70
     1
  0
VPORT
  5
29
330
8
100
AcDbSymbolTableRecord
100
AcDbViewportTableRecord
  2
*ACTIVE
 70
     0
 10
0.0
 20
0.0
 11
1.0
 21
1.0
 12
294.3149637351851
 22
287.9138503173444
 13
0.0
 23
0.0
 14
10.0
 24
10.0
 15
10.0
 25
10.0
 16
0.0
 26
0.0
 36
1.0
 17
0.0
 27
0.0
 37
0.0
 40
233.1140742287021
 41
1.400862068965518
 42
50.0
 43
0.0
 44
0.0
 50
0.0
 51
0.0
 71
     0
 72
   100
 73
     1
 74
     3
 75
     0
 76
     0
 77
     0
 78
     0
  0
ENDTAB
  0
TABLE
  2
LTYPE
  5
5
330
0
100
AcDbSymbolTable
 70
     4
  0
LTYPE
  5
14
330
5
100
AcDbSymbolTableRecord
100
AcDbLinetypeTableRecord
  2
BYBLOCK
 70
     0
  3

 72
    65
 73
     0
 40
0.0
  0
LTYPE
  5
15
330
5
100
AcDbSymbolTableRecord
100
AcDbLinetypeTableRecord
  2
BYLAYER
 70
     0
  3

 72
    65
 73
     0
 40
0.0
  0
LTYPE
  5
16
330
5
100
AcDbSymbolTableRecord
100
AcDbLinetypeTableRecord
  2
CONTINUOUS
 70
     0
  3
Solid line
 72
    65
 73
     0
 40
0.0
  0
LTYPE
  5
5D
330
5
100
AcDbSymbolTableRecord
100
AcDbLinetypeTableRecord
  2
EB_DASH
 70
     0
  3
__ __ __ __ __ __ __ __ __ __ __ __ __ __ __ __
 72
    65
 73
     2
 40
6.0
 49
3.0
 74
     0
 49
-3.0
 74
     0
  0
LTYPE
  5
5E
330
5
100
AcDbSymbolTableRecord
100
AcDbLinetypeTableRecord
  2
EB_DASHDOT
 70
     0
  3
______ _ ______ _ ______ _ ______ _ ______ _ ______ _ ______
 72
    65
 73
     4
 40
39.0
 49
30.0
 74
     0
 49
-3.0
 74
     0
 49
3.0
 74
     0
 49
-3.0
 74
     0
  0
LTYPE
  5
5F
330
5
100
AcDbSymbolTableRecord
100
AcDbLinetypeTableRecord
  2
EB_DASHDOTDOT
 70
     0
  3
______ _ _ ____________ _ _ ____________ _ _ ____________ _ _ ______
 72
    65
 73
     6
 40
45.0
 49
30.0
 74
     0
 49
-3.0
 74
     0
 49
3.0
 74
     0
 49
-3.0
 74
     0
 49
3.0
 74
     0
 49
-3.0
 74
     0
  0
ENDTAB
  0
TABLE
  2
LAYER
  5
2
330
0
100
AcDbSymbolTable
 70
    22
  0
LAYER
  5
10
330
2
100
AcDbSymbolTableRecord
100
AcDbLayerTableRecord
  2
0
 70
     0
 62
     7
  6
CONTINUOUS
  0
LAYER
  5
60
330
2
100
AcDbSymbolTableRecord
100
AcDbLayerTableRecord
  2
CAXA0
 70
     0
 62
     7
  6
CONTINUOUS
  0
LAYER
  5
61
330
2
100
AcDbSymbolTableRecord
100
AcDbLayerTableRecord
  2
CAXA1
 70
     0
 62
     1
  6
EB_DASHDOT
  0
LAYER
  5
62
330
2
100
AcDbSymbolTableRecord
100
AcDbLayerTableRecord
  2
CAXA2
 70
     0
 62
     6
  6
EB_DASH
  0
LAYER
  5
63
330
2
100
AcDbSymbolTableRecord
100
AcDbLayerTableRecord
  2
CAXA3
 70
     0
 62
     7
  6
CONTINUOUS
  0
LAYER
  5
64
330
2
100
AcDbSymbolTableRecord
100
AcDbLayerTableRecord
  2
CAXA4
 70
     0
 62
     3
  6
CONTINUOUS
  0
LAYER
  5
65
330
2
100
AcDbSymbolTableRecord
100
AcDbLayerTableRecord
  2
CAXA5
 70
     0
 62
     4
  6
CONTINUOUS
  0
LAYER
  5
66
330
2
100
AcDbSymbolTableRecord
100
AcDbLayerTableRecord
  2
CAXA6
 70
     0
 62
    -7
  6
CONTINUOUS
  0
LAYER
  5
67
330
2
100
AcDbSymbolTableRecord
100
AcDbLayerTableRecord
  2
DEFAULT_1
 70
     0
 62
     7
  6
EB_DASHDOT
  0
LAYER
  5
68
330
2
100
AcDbSymbolTableRecord
100
AcDbLayerTableRecord
  2
DEFAULT_2
 70
     0
 62
     8
  6
EB_DASH
  0
LAYER
  5
69
330
2
100
AcDbSymbolTableRecord
100
AcDbLayerTableRecord
  2
DEFAULT_3
 70
     0
 62
     7
  6
EB_DASHDOTDOT
  0
LAYER
  5
6A
330
2
100
AcDbSymbolTableRecord
100
AcDbLayerTableRecord
  2
01___PRT_ALL_DTM_PLN
 70
     0
 62
     7
  6
CONTINUOUS
  0
LAYER
  5
6B
330
2
100
AcDbSymbolTableRecord
100
AcDbLayerTableRecord
  2
01___PRT_DEF_DTM_PLN
 70
     0
 62
     7
  6
CONTINUOUS
  0
LAYER
  5
6C
330
2
100
AcDbSymbolTableRecord
100
AcDbLayerTableRecord
  2
02___PRT_ALL_AXES
 70
     0
 62
     7
  6
CONTINUOUS
  0
LAYER
  5
6D
330
2
100
AcDbSymbolTableRecord
100
AcDbLayerTableRecord
  2
03___PRT_ALL_CURVES
 70
     0
 62
     7
  6
CONTINUOUS
  0
LAYER
  5
6E
330
2
100
AcDbSymbolTableRecord
100
AcDbLayerTableRecord
  2
04___PRT_ALL_DTM_PNT
 70
     0
 62
     7
  6
CONTINUOUS
  0
LAYER
  5
6F
330
2
100
AcDbSymbolTableRecord
100
AcDbLayerTableRecord
  2
05___PRT_ALL_DTM_CSYS
 70
     0
 62
     7
  6
CONTINUOUS
  0
LAYER
  5
70
330
2
100
AcDbSymbolTableRecord
100
AcDbLayerTableRecord
  2
05___PRT_DEF_DTM_CSYS
 70
     0
 62
     7
  6
CONTINUOUS
  0
LAYER
  5
71
330
2
100
AcDbSymbolTableRecord
100
AcDbLayerTableRecord
  2
06___PRT_ALL_SURFS
 70
     0
 62
     7
  6
CONTINUOUS
  0
LAYER
  5
72
330
2
100
AcDbSymbolTableRecord
100
AcDbLayerTableRecord
  2
INTF_YELLOW
 70
     0
 62
     7
  6
CONTINUOUS
  0
LAYER
  5
73
330
2
100
AcDbSymbolTableRecord
100
AcDbLayerTableRecord
  2
DRW0004_DXF_FORMAT
 70
     0
 62
     7
  6
CONTINUOUS
  0
LAYER
  5
74
330
2
100
AcDbSymbolTableRecord
100
AcDbLayerTableRecord
  2
03_DXF_CONTINUOUS_LINE
 70
     0
 62
     7
  6
CONTINUOUS
  0
ENDTAB
  0
TABLE
  2
STYLE
  5
3
330
0
100
AcDbSymbolTable
 70
     3
  0
STYLE
  5
11
330
3
100
AcDbSymbolTableRecord
100
AcDbTextStyleTableRecord
  2
STANDARD
 70
     0
 40
0.0
 41
0.8
 50
0.0
 71
     0
 42
0.0
  3
txt
  4

1001
ACAD
1000
仿宋_GB2312
1071
       34
  0
STYLE
  5
75
330
3
100
AcDbSymbolTableRecord
100
AcDbTextStyleTableRecord
  2
标准
 70
     0
 40
0.0
 41
0.667
 50
0.0
 71
     0
 42
0.0
  3

  4

1001
ACAD
1000
仿宋_GB2312
1071
       34
  0
STYLE
  5
76
330
3
100
AcDbSymbolTableRecord
100
AcDbTextStyleTableRecord
  2
机械
 70
     0
 40
0.0
 41
0.667
 50
0.0
 71
     0
 42
0.0
  3
txt
  4
gbcbig.shx
  0
ENDTAB
  0
TABLE
  2
VIEW
  5
6
330
0
100
AcDbSymbolTable
 70
     0
  0
ENDTAB
  0
TABLE
  2
UCS
  5
7
330
0
100
AcDbSymbolTable
 70
     0
  0
ENDTAB
  0
TABLE
  2
APPID
  5
9
330
0
100
AcDbSymbolTable
 70
     1
  0
APPID
  5
12
330
9
100
AcDbSymbolTableRecord
100
AcDbRegAppTableRecord
  2
ACAD
 70
     0
  0
ENDTAB
  0
TABLE
  2
DIMSTYLE
  5
A
330
0
100
AcDbSymbolTable
 70
     4
  0
DIMSTYLE
105
27
330
A
100
AcDbSymbolTableRecord
100
AcDbDimStyleTableRecord
  2
ISO-25
 70
     0
  3

  4

  5

  6

  7

 40
1.0
 41
2.5
 42
0.625
 43
3.75
 44
1.25
 45
0.0
 46
0.0
 47
0.0
 48
0.0
140
2.5
141
2.5
142
0.0
143
0.03937007874016
144
1.0
145
0.0
146
1.0
147
0.625
 71
     0
 72
     0
 73
     0
 74
     0
 75
     0
 76
     0
 77
     1
 78
     8
170
     0
171
     3
172
     1
173
     0
174
     0
175
     0
176
     0
177
     0
178
     0
270
     2
271
     2
272
     2
273
     2
274
     3
340
11
275
     0
280
     0
281
     0
282
     0
283
     0
284
     8
285
     0
286
     0
287
     3
288
     0
  0
DIMSTYLE
105
77
102
{ACAD_REACTORS
330
20A
330
214
330
21F
330
22A
330
234
330
23E
330
248
330
252
102
}
330
A
100
AcDbSymbolTableRecord
100
AcDbDimStyleTableRecord
  2
标准
 70
     0
  3

  4

  5

  6

  7

 40
1.0
 41
4.0
 42
0.0
 43
0.38
 44
2.0
 45
0.0
 46
6.0
 47
0.0
 48
0.0
140
7.0
141
0.0
142
0.0
143
25.4
144
1.0
145
0.0
146
1.0
147
0.625
 71
     0
 72
     0
 73
     0
 74
     0
 75
     0
 76
     0
 77
     1
 78
     8
170
     0
171
     2
172
     1
173
     0
174
     0
175
     0
176
     0
177
     0
178
     0
179
     2
270
     2
271
     1
272
     3
273
     2
274
     2
340
75
275
     0
280
     0
281
     0
282
     0
283
     1
284
     0
285
     0
286
     0
287
     3
288
     0
  0
DIMSTYLE
105
78
330
A
100
AcDbSymbolTableRecord
100
AcDbDimStyleTableRecord
  2
机械
 70
     0
  3

  4

  5

  6

  7

 40
1.0
 41
4.0
 42
0.0
 43
0.38
 44
2.0
 45
0.0
 46
6.0
 47
0.0
 48
0.0
140
3.5
141
0.0
142
0.0
143
25.4
144
1.0
145
0.0
146
1.0
147
0.625
 71
     0
 72
     0
 73
     0
 74
     0
 75
     0
 76
     0
 77
     1
 78
     8
170
     0
171
     2
172
     1
173
     0
174
     0
175
     0
176
     0
177
     0
178
     0
179
     2
270
     2
271
     1
272
     3
273
     2
274
     2
340
76
275
     0
280
     0
281
     0
282
     0
283
     1
284
     0
285
     0
286
     0
287
     3
288
     0
  0
DIMSTYLE
105
79
330
A
100
AcDbSymbolTableRecord
100
AcDbDimStyleTableRecord
  2
STANDARD
 70
     0
  3

  4

  5

  6

  7

 40
1.0
 41
2.5
 42
0.0625
 43
0.38
 44
0.18
 45
0.0
 46
5.0
 47
0.0
 48
0.0
140
0.15625
141
0.0
142
0.0
143
25.4
144
1.0
145
0.0
146
1.0
147
0.09
 71
     0
 72
     0
 73
     0
 74
     0
 75
     0
 76
     0
 77
     1
 78
     0
170
     0
171
     2
172
     0
173
     0
174
     0
175
     0
176
     0
177
     0
178
     0
270
     2
271
     4
272
     4
273
     2
274
     2
340
11
275
     0
280
     0
281
     0
282
     0
283
     1
284
     0
285
     0
286
     0
287
     3
288
     0
  0
ENDTAB
  0
TABLE
  2
BLOCK_RECORD
  5
1
330
0
100
AcDbSymbolTable
 70
     9
  0
BLOCK_RECORD
  5
1F
330
1
100
AcDbSymbolTableRecord
100
AcDbBlockTableRecord
  2
*MODEL_SPACE
  0
BLOCK_RECORD
  5
1B
330
1
100
AcDbSymbolTableRecord
100
AcDbBlockTableRecord
  2
*PAPER_SPACE
  0
BLOCK_RECORD
  5
201
330
1
100
AcDbSymbolTableRecord
100
AcDbBlockTableRecord
  2
*D1
  0
BLOCK_RECORD
  5
20B
330
1
100
AcDbSymbolTableRecord
100
AcDbBlockTableRecord
  2
*D2
  0
BLOCK_RECORD
  5
215
330
1
100
AcDbSymbolTableRecord
100
AcDbBlockTableRecord
  2
*D3
  0
BLOCK_RECORD
  5
220
330
1
100
AcDbSymbolTableRecord
100
AcDbBlockTableRecord
  2
*D4
  0
BLOCK_RECORD
  5
22B
330
1
100
AcDbSymbolTableRecord
100
AcDbBlockTableRecord
  2
*D5
  0
BLOCK_RECORD
  5
235
330
1
100
AcDbSymbolTableRecord
100
AcDbBlockTableRecord
  2
*D6
  0
BLOCK_RECORD
  5
23F
330
1
100
AcDbSymbolTableRecord
100
AcDbBlockTableRecord
  2
*D7
  0
BLOCK_RECORD
  5
249
330
1
100
AcDbSymbolTableRecord
100
AcDbBlockTableRecord
  2
*D8
  0
ENDTAB
  0
ENDSEC
  0
SECTION
  2
BLOCKS
  0
BLOCK
  5
20
330
1F
100
AcDbEntity
  8
0
100
AcDbBlockBegin
  2
*MODEL_SPACE
 70
     0
 10
0.0
 20
0.0
 30
0.0
  3
*MODEL_SPACE
  1

  0
ENDBLK
  5
21
330
1F
100
AcDbEntity
  8
0
100
AcDbBlockEnd
  0
BLOCK
  5
1C
330
1B
100
AcDbEntity
 67
     1
  8
0
100
AcDbBlockBegin
  2
*PAPER_SPACE
 70
     0
 10
0.0
 20
0.0
 30
0.0
  3
*PAPER_SPACE
  1

  0
ENDBLK
  5
1D
330
1B
100
AcDbEntity
 67
     1
  8
0
100
AcDbBlockEnd
  0
BLOCK
  5
208
330
201
100
AcDbEntity
  8
0
100
AcDbBlockBegin
  2
*D1
 70
     1
 10
0.0
 20
0.0
 30
0.0
  3
*D1
  1

  0
LINE
  5
202
330
201
100
AcDbEntity
  8
CAXA4
  6
CONTINUOUS
 62
     0
100
AcDbLine
 10
184.9996233522
 20
318.3204690032639
 30
0.0
 11
216.9996233522
 21
318.3204690032639
 31
0.0
  0
HATCH
  5
203
330
201
100
AcDbEntity
  8
CAXA4
  6
CONTINUOUS
 62
     0
100
AcDbHatch
 10
0.0
 20
0.0
 30
0.0
210
0.0
220
0.0
230
1.0
  2
SOLID
 70
     1
 71
     0
 91
        1
 92
        2
 72
     0
 73
     1
 93
        3
 10
184.9996233522
 20
318.3204690032639
 10
188.9996233522
 20
317.8204690032639
 10
188.9996233522
 20
318.8204690032639
 97
        0
 75
     0
 76
     1
 98
        1
 10
184.9996233522
 20
318.3204690032639
  0
HATCH
  5
204
330
201
100
AcDbEntity
  8
CAXA4
  6
CONTINUOUS
 62
     0
100
AcDbHatch
 10
0.0
 20
0.0
 30
0.0
210
0.0
220
0.0
230
1.0
  2
SOLID
 70
     1
 71
     0
 91
        1
 92
        2
 72
     0
 73
     1
 93
        3
 10
216.9996233522
 20
318.3204690032639
 10
212.9996233522
 20
317.8204690032639
 10
212.9996233522
 20
318.8204690032639
 97
        0
 75
     0
 76
     1
 98
        1
 10
216.9996233522
 20
318.3204690032639
  0
LINE
  5
205
330
201
100
AcDbEntity
  8
CAXA4
  6
CONTINUOUS
 62
     0
100
AcDbLine
 10
184.9996233522
 20
341.3657250471
 30
0.0
 11
184.9996233522
 21
316.3204690032639
 31
0.0
  0
LINE
  5
206
330
201
100
AcDbEntity
  8
CAXA4
  6
CONTINUOUS
 62
     0
100
AcDbLine
 10
216.9996233522
 20
341.3657250471
 30
0.0
 11
216.9996233522
 21
316.3204690032639
 31
0.0
  0
MTEXT
  5
207
330
201
100
AcDbEntity
  8
CAXA4
  6
CONTINUOUS
 62
     0
100
AcDbMText
 10
197.4513633522
 20
328.5354690032639
 30
0.0
 40
7.0
 41
0.0
 71
     1
 72
     1
  1
\f仿宋_GB2312|b0|i0|p34;32
  7
标准
  0
ENDBLK
  5
209
330
201
100
AcDbEntity
  8
0
100
AcDbBlockEnd
  0
BLOCK
  5
212
330
20B
100
AcDbEntity
  8
0
100
AcDbBlockBegin
  2
*D2
 70
     1
 10
0.0
 20
0.0
 30
0.0
  3
*D2
  1

  0
LINE
  5
20C
330
20B
100
AcDbEntity
  8
CAXA4
  6
CONTINUOUS
 62
     0
100
AcDbLine
 10
271.0855047429579
 20
283.7656308851
 30
0.0
 11
271.0855047429579
 21
229.0656308851
 31
0.0
  0
HATCH
  5
20D
330
20B
100
AcDbEntity
  8
CAXA4
  6
CONTINUOUS
 62
     0
100
AcDbHatch
 10
0.0
 20
0.0
 30
0.0
210
0.0
220
0.0
230
1.0
  2
SOLID
 70
     1
 71
     0
 91
        1
 92
        2
 72
     0
 73
     1
 93
        3
 10
271.0855047429579
 20
283.7656308851
 10
270.5855047429579
 20
279.7656308851
 10
271.5855047429579
 20
279.7656308851
 97
        0
 75
     0
 76
     1
 98
        1
 10
271.0855047429579
 20
283.7656308851
  0
HATCH
  5
20E
330
20B
100
AcDbEntity
  8
CAXA4
  6
CONTINUOUS
 62
     0
100
AcDbHatch
 10
0.0
 20
0.0
 30
0.0
210
0.0
220
0.0
230
1.0
  2
SOLID
 70
     1
 71
     0
 91
        1
 92
        2
 72
     0
 73
     1
 93
        3
 10
271.0855047429579
 20
229.0656308851
 10
270.5855047429579
 20
233.0656308851
 10
271.5855047429579
 20
233.0656308851
 97
        0
 75
     0
 76
     1
 98
        1
 10
271.0855047429579
 20
229.0656308851
  0
LINE
  5
20F
330
20B
100
AcDbEntity
  8
CAXA4
  6
CONTINUOUS
 62
     0
100
AcDbLine
 10
295.4209039548
 20
283.7656308851
 30
0.0
 11
269.0855047429579
 21
283.7656308851
 31
0.0
  0
LINE
  5
210
330
20B
100
AcDbEntity
  8
CAXA4
  6
CONTINUOUS
 62
     0
100
AcDbLine
 10
295.4209039548
 20
229.0656308851
 30
0.0
 11
269.0855047429579
 21
229.0656308851
 31
0.0
  0
MTEXT
  5
211
330
20B
100
AcDbEntity
  8
CAXA4
  6
CONTINUOUS
 62
     0
100
AcDbMText
 10
260.8705047429578
 20
248.9690958851
 30
0.0
 40
7.0
 41
0.0
 71
     1
 72
     1
  1
\f仿宋_GB2312|b0|i0|p34;54.7
  7
标准
 11
6.123031769111886E-17
 21
1.0
 31
0.0
  0
ENDBLK
  5
213
330
20B
100
AcDbEntity
  8
0
100
AcDbBlockEnd
  0
BLOCK
  5
21D
330
215
100
AcDbEntity
  8
0
100
AcDbBlockBegin
  2
*D3
 70
     1
 10
0.0
 20
0.0
 30
0.0
  3
*D3
  1

  0
ARC
  5
216
330
215
100
AcDbEntity
  8
CAXA4
  6
CONTINUOUS
 62
     0
100
AcDbCircle
 10
1444.120903954798
 20
256.4156308851
 30
0.0
 40
1119.571609418059
100
AcDbArc
 50
178.6360724683974
 51
180.0000000000003
  0
ARC
  5
217
330
215
100
AcDbEntity
  8
CAXA4
  6
CONTINUOUS
 62
     0
100
AcDbCircle
 10
1444.120903954798
 20
256.4156308851
 30
0.0
 40
1119.571609418059
100
AcDbArc
 50
180.0
 51
181.3639275316029
  0
HATCH
  5
218
330
215
100
AcDbEntity
  8
CAXA4
  6
CONTINUOUS
 62
     0
100
AcDbHatch
 10
0.0
 20
0.0
 30
0.0
210
0.0
220
0.0
230
1.0
  2
SOLID
 70
     1
 71
     0
 91
        1
 92
        2
 72
     0
 73
     1
 93
        3
 10
324.8664985690063
 20
283.0645452990474
 10
324.2785335502218
 20
279.0756324522253
 10
325.2783288856168
 20
279.0554016014684
 97
        0
 75
     0
 76
     1
 98
        1
 10
324.8664985690063
 20
283.0645452990474
  0
HATCH
  5
219
330
215
100
AcDbEntity
  8
CAXA4
  6
CONTINUOUS
 62
     0
100
AcDbHatch
 10
0.0
 20
0.0
 30
0.0
210
0.0
220
0.0
230
1.0
  2
SOLID
 70
     1
 71
     0
 91
        1
 92
        2
 72
     0
 73
     1
 93
        3
 10
324.8664985690063
 20
229.7667164711525
 10
324.2785335502218
 20
233.7556293179747
 10
325.2783288856168
 20
233.7758601687315
 97
        0
 75
     0
 76
     1
 98
        1
 10
324.8664985690063
 20
229.7667164711525
  0
LINE
  5
21A
330
215
100
AcDbEntity
  8
CAXA4
  6
CONTINUOUS
 62
     0
100
AcDbLine
 10
305.9209039548
 20
283.5156308851
 30
0.0
 11
326.8659319164946
 21
283.0169397431549
 31
0.0
  0
LINE
  5
21B
330
215
100
AcDbEntity
  8
CAXA4
  6
CONTINUOUS
 62
     0
100
AcDbLine
 10
305.9209039548
 20
229.3156308851
 30
0.0
 11
326.8659319164946
 21
229.8143220270451
 31
0.0
  0
MTEXT
  5
21C
330
215
100
AcDbEntity
  8
CAXA4
  6
CONTINUOUS
 62
     0
100
AcDbMText
 10
325.1742945367384
 20
245.4208358851
 30
0.0
 40
7.0
 41
0.0
 71
     1
 72
     1
  1
\f仿宋_GB2312|b0|i0|p34;2.73{%%D}
  7
标准
 11
6.123031769111886E-17
 21
1.0
 31
0.0
  0
ENDBLK
  5
21E
330
215
100
AcDbEntity
  8
0
100
AcDbBlockEnd
  0
BLOCK
  5
228
330
220
100
AcDbEntity
  8
0
100
AcDbBlockBegin
  2
*D4
 70
     1
 10
0.0
 20
0.0
 30
0.0
  3
*D4
  1

  0
ARC
  5
221
330
220
100
AcDbEntity
  8
CAXA4
  6
CONTINUOUS
 62
     0
100
AcDbCircle
 10
200.9996233522
 20
1013.365725047101
 30
0.0
 40
639.0876280316985
100
AcDbArc
 50
268.6360724683972
 51
270.0000000000001
  0
ARC
  5
222
330
220
100
AcDbEntity
  8
CAXA4
  6
CONTINUOUS
 62
     0
100
AcDbCircle
 10
200.9996233522
 20
1013.365725047101
 30
0.0
 40
639.0876280316985
100
AcDbArc
 50
270.0
 51
271.3639275316029
  0
HATCH
  5
223
330
220
100
AcDbEntity
  8
CAXA4
  6
CONTINUOUS
 62
     0
100
AcDbHatch
 10
0.0
 20
0.0
 30
0.0
210
0.0
220
0.0
230
1.0
  2
SOLID
 70
     1
 71
     0
 91
        1
 92
        2
 72
     0
 73
     1
 93
        3
 10
185.787562453941
 20
374.4591673202211
 10
189.7779283971658
 20
373.8765480522507
 10
189.7954736004549
 20
374.8763941233244
 97
        0
 75
     0
 76
     1
 98
        1
 10
185.787562453941
 20
374.4591673202211
  0
HATCH
  5
224
330
220
100
AcDbEntity
  8
CAXA4
  6
CONTINUOUS
 62
     0
100
AcDbHatch
 10
0.0
 20
0.0
 30
0.0
210
0.0
220
0.0
230
1.0
  2
SOLID
 70
     1
 71
     0
 91
        1
 92
        2
 72
     0
 73
     1
 93
        3
 10
216.211684250459
 20
374.4591673202211
 10
212.2213183072342
 20
373.8765480522507
 10
212.2037731039451
 20
374.8763941233244
 97
        0
 75
     0
 76
     1
 98
        1
 10
216.211684250459
 20
374.4591673202211
  0
LINE
  5
225
330
220
100
AcDbEntity
  8
CAXA4
  6
CONTINUOUS
 62
     0
100
AcDbLine
 10
185.2496233522
 20
351.8657250471
 30
0.0
 11
185.8351680098336
 21
376.4586006677094
 31
0.0
  0
LINE
  5
226
330
220
100
AcDbEntity
  8
CAXA4
  6
CONTINUOUS
 62
     0
100
AcDbLine
 10
216.7496233522
 20
351.8657250471
 30
0.0
 11
216.1640786945665
 21
376.4586006677094
 31
0.0
  0
MTEXT
  5
227
330
220
100
AcDbEntity
  8
CAXA4
  6
CONTINUOUS
 62
     0
100
AcDbMText
 10
190.0048283521997
 20
384.4930970154021
 30
0.0
 40
7.0
 41
0.0
 71
     1
 72
     1
  1
\f仿宋_GB2312|b0|i0|p34;2.73{%%D}
  7
标准
  0
ENDBLK
  5
229
330
220
100
AcDbEntity
  8
0
100
AcDbBlockEnd
  0
BLOCK
  5
232
330
22B
100
AcDbEntity
  8
0
100
AcDbBlockBegin
  2
*D5
 70
     1
 10
0.0
 20
0.0
 30
0.0
  3
*D5
  1

  0
LINE
  5
22C
330
22B
100
AcDbEntity
  8
CAXA4
  6
CONTINUOUS
 62
     0
100
AcDbLine
 10
233.6558820728516
 20
357.8657250470999
 30
0.0
 11
233.6558820728516
 21
318.8726550470998
 31
0.0
  0
HATCH
  5
22D
330
22B
100
AcDbEntity
  8
CAXA4
  6
CONTINUOUS
 62
     0
100
AcDbHatch
 10
0.0
 20
0.0
 30
0.0
210
0.0
220
0.0
230
1.0
  2
SOLID
 70
     1
 71
     0
 91
        1
 92
        2
 72
     0
 73
     1
 93
        3
 10
233.6558820728516
 20
351.8657250470999
 10
233.1558820728516
 20
355.8657250470999
 10
234.1558820728516
 20
355.8657250470999
 97
        0
 75
     0
 76
     1
 98
        1
 10
233.6558820728516
 20
351.8657250470999
  0
HATCH
  5
22E
330
22B
100
AcDbEntity
  8
CAXA4
  6
CONTINUOUS
 62
     0
100
AcDbHatch
 10
0.0
 20
0.0
 30
0.0
210
0.0
220
0.0
230
1.0
  2
SOLID
 70
     1
 71
     0
 91
        1
 92
        2
 72
     0
 73
     1
 93
        3
 10
233.6558820728516
 20
341.3657250470999
 10
233.1558820728516
 20
337.3657250470999
 10
234.1558820728516
 20
337.3657250470999
 97
        0
 75
     0
 76
     1
 98
        1
 10
233.6558820728516
 20
341.3657250470999
  0
LINE
  5
22F
330
22B
100
AcDbEntity
  8
CAXA4
  6
CONTINUOUS
 62
     0
100
AcDbLine
 10
216.7496233522
 20
351.8657250471
 30
0.0
 11
235.6558820728516
 21
351.8657250470999
 31
0.0
  0
LINE
  5
230
330
22B
100
AcDbEntity
  8
CAXA4
  6
CONTINUOUS
 62
     0
100
AcDbLine
 10
218.7496233522
 20
341.3657250471
 30
0.0
 11
235.6558820728516
 21
341.3657250470999
 31
0.0
  0
MTEXT
  5
231
330
22B
100
AcDbEntity
  8
CAXA4
  6
CONTINUOUS
 62
     0
100
AcDbMText
 10
223.4408820728516
 20
319.2226550470998
 30
0.0
 40
7.0
 41
0.0
 71
     1
 72
     1
  1
\f仿宋_GB2312|b0|i0|p34;10.5
  7
标准
 11
6.123031769111886E-17
 21
1.0
 31
0.0
  0
ENDBLK
  5
233
330
22B
100
AcDbEntity
  8
0
100
AcDbBlockEnd
  0
BLOCK
  5
23C
330
235
100
AcDbEntity
  8
0
100
AcDbBlockBegin
  2
*D6
 70
     1
 10
0.0
 20
0.0
 30
0.0
  3
*D6
  1

  0
LINE
  5
236
330
235
100
AcDbEntity
  8
CAXA4
  6
CONTINUOUS
 62
     0
100
AcDbLine
 10
183.2496233522
 20
298.3416538199906
 30
0.0
 11
218.7496233522
 21
298.3416538199906
 31
0.0
  0
HATCH
  5
237
330
235
100
AcDbEntity
  8
CAXA4
  6
CONTINUOUS
 62
     0
100
AcDbHatch
 10
0.0
 20
0.0
 30
0.0
210
0.0
220
0.0
230
1.0
  2
SOLID
 70
     1
 71
     0
 91
        1
 92
        2
 72
     0
 73
     1
 93
        3
 10
183.2496233522
 20
298.3416538199906
 10
187.2496233522
 20
297.8416538199906
 10
187.2496233522
 20
298.8416538199906
 97
        0
 75
     0
 76
     1
 98
        1
 10
183.2496233522
 20
298.3416538199906
  0
HATCH
  5
238
330
235
100
AcDbEntity
  8
CAXA4
  6
CONTINUOUS
 62
     0
100
AcDbHatch
 10
0.0
 20
0.0
 30
0.0
210
0.0
220
0.0
230
1.0
  2
SOLID
 70
     1
 71
     0
 91
        1
 92
        2
 72
     0
 73
     1
 93
        3
 10
218.7496233522
 20
298.3416538199906
 10
214.7496233522
 20
297.8416538199906
 10
214.7496233522
 20
298.8416538199906
 97
        0
 75
     0
 76
     1
 98
        1
 10
218.7496233522
 20
298.3416538199906
  0
LINE
  5
239
330
235
100
AcDbEntity
  8
CAXA4
  6
CONTINUOUS
 62
     0
100
AcDbLine
 10
183.2496233522
 20
283.0156308852
 30
0.0
 11
183.2496233522
 21
300.3416538199906
 31
0.0
  0
LINE
  5
23A
330
235
100
AcDbEntity
  8
CAXA4
  6
CONTINUOUS
 62
     0
100
AcDbLine
 10
218.7496233522
 20
283.0156308851
 30
0.0
 11
218.7496233522
 21
300.3416538199906
 31
0.0
  0
MTEXT
  5
23B
330
235
100
AcDbEntity
  8
CAXA4
  6
CONTINUOUS
 62
     0
100
AcDbMText
 10
193.5530983522
 20
308.5566538199906
 30
0.0
 40
7.0
 41
0.0
 71
     1
 72
     1
  1
\f仿宋_GB2312|b0|i0|p34;35.5
  7
标准
  0
ENDBLK
  5
23D
330
235
100
AcDbEntity
  8
0
100
AcDbBlockEnd
  0
BLOCK
  5
246
330
23F
100
AcDbEntity
  8
0
100
AcDbBlockBegin
  2
*D7
 70
     1
 10
0.0
 20
0.0
 30
0.0
  3
*D7
  1

  0
LINE
  5
240
330
23F
100
AcDbEntity
  8
CAXA4
  6
CONTINUOUS
 62
     0
100
AcDbLine
 10
165.7924672637822
 20
285.5156308851
 30
0.0
 11
165.7924672637822
 21
227.3156308851
 31
0.0
  0
HATCH
  5
241
330
23F
100
AcDbEntity
  8
CAXA4
  6
CONTINUOUS
 62
     0
100
AcDbHatch
 10
0.0
 20
0.0
 30
0.0
210
0.0
220
0.0
230
1.0
  2
SOLID
 70
     1
 71
     0
 91
        1
 92
        2
 72
     0
 73
     1
 93
        3
 10
165.7924672637822
 20
285.5156308851
 10
165.2924672637822
 20
281.5156308851
 10
166.2924672637822
 20
281.5156308851
 97
        0
 75
     0
 76
     1
 98
        1
 10
165.7924672637822
 20
285.5156308851
  0
HATCH
  5
242
330
23F
100
AcDbEntity
  8
CAXA4
  6
CONTINUOUS
 62
     0
100
AcDbHatch
 10
0.0
 20
0.0
 30
0.0
210
0.0
220
0.0
230
1.0
  2
SOLID
 70
     1
 71
     0
 91
        1
 92
        2
 72
     0
 73
     1
 93
        3
 10
165.7924672637822
 20
227.3156308851
 10
165.2924672637822
 20
231.3156308851
 10
166.2924672637822
 20
231.3156308851
 97
        0
 75
     0
 76
     1
 98
        1
 10
165.7924672637822
 20
227.3156308851
  0
LINE
  5
243
330
23F
100
AcDbEntity
  8
CAXA4
  6
CONTINUOUS
 62
     0
100
AcDbLine
 10
185.7496233521
 20
285.5156308851
 30
0.0
 11
163.7924672637822
 21
285.5156308851
 31
0.0
  0
LINE
  5
244
330
23F
100
AcDbEntity
  8
CAXA4
  6
CONTINUOUS
 62
     0
100
AcDbLine
 10
185.7496233524
 20
227.3156308851
 30
0.0
 11
163.7924672637822
 21
227.3156308851
 31
0.0
  0
MTEXT
  5
245
330
23F
100
AcDbEntity
  8
CAXA4
  6
CONTINUOUS
 62
     0
100
AcDbMText
 10
155.5774672637822
 20
248.9690958851
 30
0.0
 40
7.0
 41
0.0
 71
     1
 72
     1
  1
\f仿宋_GB2312|b0|i0|p34;58.2
  7
标准
 11
6.123031769111886E-17
 21
1.0
 31
0.0
  0
ENDBLK
  5
247
330
23F
100
AcDbEntity
  8
0
100
AcDbBlockEnd
  0
BLOCK
  5
250
330
249
100
AcDbEntity
  8
0
100
AcDbBlockBegin
  2
*D8
 70
     1
 10
0.0
 20
0.0
 30
0.0
  3
*D8
  1

  0
LINE
  5
24A
330
249
100
AcDbEntity
  8
CAXA4
  6
CONTINUOUS
 62
     0
100
AcDbLine
 10
174.401250276004
 20
338.3657250471
 30
0.0
 11
174.401250276004
 21
353.3657250466
 31
0.0
  0
HATCH
  5
24B
330
249
100
AcDbEntity
  8
CAXA4
  6
CONTINUOUS
 62
     0
100
AcDbHatch
 10
0.0
 20
0.0
 30
0.0
210
0.0
220
0.0
230
1.0
  2
SOLID
 70
     1
 71
     0
 91
        1
 92
        2
 72
     0
 73
     1
 93
        3
 10
174.401250276004
 20
338.3657250471
 10
174.901250276004
 20
342.3657250471
 10
173.901250276004
 20
342.3657250471
 97
        0
 75
     0
 76
     1
 98
        1
 10
174.401250276004
 20
338.3657250471
  0
HATCH
  5
24C
330
249
100
AcDbEntity
  8
CAXA4
  6
CONTINUOUS
 62
     0
100
AcDbHatch
 10
0.0
 20
0.0
 30
0.0
210
0.0
220
0.0
230
1.0
  2
SOLID
 70
     1
 71
     0
 91
        1
 92
        2
 72
     0
 73
     1
 93
        3
 10
174.401250276004
 20
353.3657250466
 10
174.901250276004
 20
349.3657250466
 10
173.901250276004
 20
349.3657250466
 97
        0
 75
     0
 76
     1
 98
        1
 10
174.401250276004
 20
353.3657250466
  0
LINE
  5
24D
330
249
100
AcDbEntity
  8
CAXA4
  6
CONTINUOUS
 62
     0
100
AcDbLine
 10
186.0496233524
 20
338.3657250471
 30
0.0
 11
172.401250276004
 21
338.3657250471
 31
0.0
  0
LINE
  5
24E
330
249
100
AcDbEntity
  8
CAXA4
  6
CONTINUOUS
 62
     0
100
AcDbLine
 10
186.2496279345
 20
353.3657250466
 30
0.0
 11
172.401250276004
 21
353.3657250466
 31
0.0
  0
MTEXT
  5
24F
330
249
100
AcDbEntity
  8
CAXA4
  6
CONTINUOUS
 62
     0
100
AcDbMText
 10
164.186250276004
 20
342.31746504685
 30
0.0
 40
7.0
 41
0.0
 71
     1
 72
     1
  1
\f仿宋_GB2312|b0|i0|p34;15
  7
标准
 11
6.123031769111886E-17
 21
1.0
 31
0.0
  0
ENDBLK
  5
251
330
249
100
AcDbEntity
  8
0
100
AcDbBlockEnd
  0
ENDSEC
  0
SECTION
  2
ENTITIES
  0
LWPOLYLINE
  5
7A
330
1F
100
AcDbEntity
  8
03_DXF_CONTINUOUS_LINE
  6
CONTINUOUS
 62
     6
100
AcDbPolyline
 90
        3
 70
     0
 43
0.0
 10
216.3412560628
 20
228.0531905302
 10
216.5902192856
 20
228.1205762095
 10
216.8320208183
 20
228.2211215754
  0
LWPOLYLINE
  5
7B
330
1F
100
AcDbEntity
  8
03_DXF_CONTINUOUS_LINE
  6
CONTINUOUS
 62
     6
100
AcDbPolyline
 90
        8
 70
     0
 43
0.0
 10
216.2498917642
 20
228.3145559832
 10
216.5848761641
 20
228.3529815822
 10
216.9011003499
 20
228.4641548412
 10
217.1851315963
 20
228.6428570218
 10
217.4223774309
 20
228.8800979845
 10
217.601068342
 20
229.1640902892
 10
217.7122526466
 20
229.4802943553
 10
217.7506970043
 20
229.8153621582
  0
LINE
  5
7C
330
1F
100
AcDbEntity
  8
03_DXF_CONTINUOUS_LINE
  6
CONTINUOUS
 62
     6
100
AcDbLine
 10
215.9496233526
 20
228.0156308851
 30
0.0
 11
216.3412560628
 21
228.0531905302
 31
0.0
  0
LINE
  5
7D
330
1F
100
AcDbEntity
  8
03_DXF_CONTINUOUS_LINE
  6
CONTINUOUS
 62
     6
100
AcDbLine
 10
185.6667444583
 20
228.051447743
 30
0.0
 11
186.0496233524
 21
228.0156308851
 31
0.0
  0
LINE
  5
7E
330
1F
100
AcDbEntity
  8
03_DXF_CONTINUOUS_LINE
  6
CONTINUOUS
 62
     6
100
AcDbLine
 10
216.2496233524
 20
227.3156308851
 30
0.0
 11
185.7496233524
 21
227.3156308851
 31
0.0
  0
LINE
  5
7F
330
1F
100
AcDbEntity
  8
03_DXF_CONTINUOUS_LINE
  6
CONTINUOUS
 62
     6
100
AcDbLine
 10
216.2496233525
 20
227.5579438323
 30
0.0
 11
185.7496233524
 21
227.5579438323
 31
0.0
  0
LINE
  5
80
330
1F
100
AcDbEntity
  8
03_DXF_CONTINUOUS_LINE
  6
CONTINUOUS
 62
     6
100
AcDbLine
 10
216.2496233525
 20
227.85784002
 30
0.0
 11
185.7496233524
 21
227.85784002
 31
0.0
  0
LINE
  5
81
330
1F
100
AcDbEntity
  8
03_DXF_CONTINUOUS_LINE
  6
CONTINUOUS
 62
     7
100
AcDbLine
 10
215.9496233526
 20
228.0156308851
 30
0.0
 11
186.0496233523
 21
228.0156308851
 31
0.0
  0
LINE
  5
82
330
1F
100
AcDbEntity
  8
03_DXF_CONTINUOUS_LINE
  6
CONTINUOUS
 62
     6
100
AcDbLine
 10
216.2496225369
 20
228.3156308851
 30
0.0
 11
185.749623351
 21
228.3156308851
 31
0.0
  0
LINE
  5
83
330
1F
100
AcDbEntity
  8
03_DXF_CONTINUOUS_LINE
  6
CONTINUOUS
 62
     6
100
AcDbLine
 10
185.7496233524
 20
229.0656308853
 30
0.0
 11
216.2496233525
 21
229.0656308851
 31
0.0
  0
LINE
  5
84
330
1F
100
AcDbEntity
  8
03_DXF_CONTINUOUS_LINE
  6
CONTINUOUS
 62
     6
100
AcDbLine
 10
185.7496233524
 20
229.1656025541
 30
0.0
 11
216.2496233525
 21
229.165602554
 31
0.0
  0
LINE
  5
85
330
1F
100
AcDbEntity
  8
03_DXF_CONTINUOUS_LINE
  6
CONTINUOUS
 62
     6
100
AcDbLine
 10
216.2496233526
 20
229.2251830368
 30
0.0
 11
185.7496233524
 21
229.2251830369
 31
0.0
  0
LINE
  5
86
330
1F
100
AcDbEntity
  8
03_DXF_CONTINUOUS_LINE
  6
CONTINUOUS
 62
     6
100
AcDbLine
 10
185.7496233524
 20
229.3156308853
 30
0.0
 11
216.2496233525
 21
229.3156308851
 31
0.0
  0
LWPOLYLINE
  5
87
330
1F
100
AcDbEntity
  8
03_DXF_CONTINUOUS_LINE
  6
CONTINUOUS
 62
     6
100
AcDbPolyline
 90
        3
 70
     0
 43
0.0
 10
184.2511292059
 20
283.6899122343
 10
184.1516884036
 20
283.4477338618
 10
184.08544021
 20
283.1985097791
  0
LINE
  5
88
330
1F
100
AcDbEntity
  8
03_DXF_CONTINUOUS_LINE
  6
CONTINUOUS
 62
     6
100
AcDbLine
 10
218.7496233522
 20
229.8156308848
 30
0.0
 11
218.2074142173
 21
229.8156308848
 31
0.0
  0
LINE
  5
89
330
1F
100
AcDbEntity
  8
03_DXF_CONTINUOUS_LINE
  6
CONTINUOUS
 62
     6
100
AcDbLine
 10
183.7918324871
 20
229.8156308854
 30
0.0
 11
183.2496233522
 21
229.8156308854
 31
0.0
  0
LINE
  5
8A
330
1F
100
AcDbEntity
  8
03_DXF_CONTINUOUS_LINE
  6
CONTINUOUS
 62
     6
100
AcDbLine
 10
184.9996233522
 20
229.8156308854
 30
0.0
 11
185.2496233522
 21
229.8156308854
 31
0.0
  0
LINE
  5
8B
330
1F
100
AcDbEntity
  8
03_DXF_CONTINUOUS_LINE
  6
CONTINUOUS
 62
     6
100
AcDbLine
 10
216.7496233522
 20
229.8156308848
 30
0.0
 11
216.9996233522
 21
229.8156308848
 31
0.0
  0
LINE
  5
8C
330
1F
100
AcDbEntity
  8
03_DXF_CONTINUOUS_LINE
  6
CONTINUOUS
 62
     7
100
AcDbLine
 10
217.9496233521
 20
230.0156308846
 30
0.0
 11
215.9496233521
 21
230.0156316482
 31
0.0
  0
LINE
  5
8D
330
1F
100
AcDbEntity
  8
03_DXF_CONTINUOUS_LINE
  6
CONTINUOUS
 62
     7
100
AcDbLine
 10
184.0497233444
 20
230.0156308855
 30
0.0
 11
186.0496233521
 21
230.0156308855
 31
0.0
  0
LINE
  5
8E
330
1F
100
AcDbEntity
  8
03_DXF_CONTINUOUS_LINE
  6
CONTINUOUS
 62
     6
100
AcDbLine
 10
186.0496233523
 20
230.0156308851
 30
0.0
 11
215.9496233524
 21
230.0156308851
 31
0.0
  0
LINE
  5
8F
330
1F
100
AcDbEntity
  8
03_DXF_CONTINUOUS_LINE
  6
CONTINUOUS
 62
     6
100
AcDbLine
 10
186.0091755277
 20
230.0751830606
 30
0.0
 11
215.9900711767
 21
230.0751830606
 31
0.0
  0
LINE
  5
90
330
1F
100
AcDbEntity
  8
03_DXF_CONTINUOUS_LINE
  6
CONTINUOUS
 62
     6
100
AcDbLine
 10
215.8400711707
 20
230.2251830666
 30
0.0
 11
186.1591755336
 21
230.2251830666
 31
0.0
  0
LINE
  5
91
330
1F
100
AcDbEntity
  8
03_DXF_CONTINUOUS_LINE
  6
CONTINUOUS
 62
     6
100
AcDbLine
 10
186.2496230182
 20
230.3156295809
 30
0.0
 11
215.7496345428
 21
230.3156295809
 31
0.0
  0
LWPOLYLINE
  5
92
330
1F
100
AcDbEntity
  8
03_DXF_CONTINUOUS_LINE
  6
CONTINUOUS
 62
     6
100
AcDbPolyline
 90
        6
 70
     0
 43
0.0
 10
184.1475157697
 20
229.3960589766
 10
184.3207387455
 20
229.01099059
 10
184.574215481
 20
228.6654468223
 10
184.8969271159
 20
228.3816482864
 10
185.2689602248
 20
228.1743288852
 10
185.6667444583
 20
228.051447743
  0
LINE
  5
93
330
1F
100
AcDbEntity
  8
03_DXF_CONTINUOUS_LINE
  6
CONTINUOUS
 62
     7
100
AcDbLine
 10
184.2496181915
 20
229.8156295954
 30
0.0
 11
186.2496233514
 21
230.3156308851
 31
0.0
  0
LINE
  5
94
330
1F
100
AcDbEntity
  8
03_DXF_CONTINUOUS_LINE
  6
CONTINUOUS
 62
     7
100
AcDbLine
 10
217.3994589276
 20
236.1656308851
 30
0.0
 11
216.9448398393
 21
236.1656308851
 31
0.0
  0
LINE
  5
95
330
1F
100
AcDbEntity
  8
03_DXF_CONTINUOUS_LINE
  6
CONTINUOUS
 62
     6
100
AcDbLine
 10
216.9448398393
 20
236.1656308851
 30
0.0
 11
216.8472140572
 21
236.1656308851
 31
0.0
  0
LINE
  5
96
330
1F
100
AcDbEntity
  8
03_DXF_CONTINUOUS_LINE
  6
CONTINUOUS
 62
     7
100
AcDbLine
 10
184.5997877767
 20
236.1656308851
 30
0.0
 11
185.054406865
 21
236.1656308851
 31
0.0
  0
LINE
  5
97
330
1F
100
AcDbEntity
  8
03_DXF_CONTINUOUS_LINE
  6
CONTINUOUS
 62
     6
100
AcDbLine
 10
185.054406865
 20
236.1656308851
 30
0.0
 11
185.1520326471
 21
236.1656308851
 31
0.0
  0
LINE
  5
98
330
1F
100
AcDbEntity
  8
03_DXF_CONTINUOUS_LINE
  6
CONTINUOUS
 62
     6
100
AcDbLine
 10
184.0496233521
 20
230.0156308854
 30
0.0
 11
184.0871829972
 21
229.6239981751
 31
0.0
  0
LINE
  5
99
330
1F
100
AcDbEntity
  8
03_DXF_CONTINUOUS_LINE
  6
CONTINUOUS
 62
     6
100
AcDbLine
 10
184.2524494997
 20
283.1076659759
 30
0.0
 11
184.2512997457
 21
283.0865301661
 31
0.0
  0
LINE
  5
9A
330
1F
100
AcDbEntity
  8
03_DXF_CONTINUOUS_LINE
  6
CONTINUOUS
 62
     6
100
AcDbLine
 10
184.08544021
 20
283.1985097791
 30
0.0
 11
184.0496233521
 21
282.8156308851
 31
0.0
  0
LWPOLYLINE
  5
9B
330
1F
100
AcDbEntity
  8
03_DXF_CONTINUOUS_LINE
  6
CONTINUOUS
 62
     6
100
AcDbPolyline
 90
        7
 70
     0
 43
0.0
 10
184.2496180066
 20
229.8156295492
 10
184.3009006751
 20
229.4265765864
 10
184.4506801622
 20
229.0652670373
 10
184.6889017387
 20
228.7548658377
 10
184.9993081875
 20
228.5166595796
 10
185.3606231581
 20
228.3668936877
 10
185.7496220146
 20
228.315625538
  0
LINE
  5
9C
330
1F
100
AcDbEntity
  8
03_DXF_CONTINUOUS_LINE
  6
CONTINUOUS
 62
     6
100
AcDbLine
 10
183.2496233522
 20
229.8156308855
 30
0.0
 11
183.2496233522
 21
283.0156308852
 31
0.0
  0
LINE
  5
9D
330
1F
100
AcDbEntity
  8
03_DXF_CONTINUOUS_LINE
  6
CONTINUOUS
 62
     6
100
AcDbLine
 10
183.4919362993
 20
229.8156308854
 30
0.0
 11
183.4919362993
 21
283.0156308852
 31
0.0
  0
LINE
  5
9E
330
1F
100
AcDbEntity
  8
03_DXF_CONTINUOUS_LINE
  6
CONTINUOUS
 62
     6
100
AcDbLine
 10
183.7918324871
 20
229.8156308854
 30
0.0
 11
183.7918324871
 21
283.0156308852
 31
0.0
  0
LINE
  5
9F
330
1F
100
AcDbEntity
  8
03_DXF_CONTINUOUS_LINE
  6
CONTINUOUS
 62
     6
100
AcDbLine
 10
184.0496233521
 20
230.0156308855
 30
0.0
 11
184.0496233521
 21
282.815630885
 31
0.0
  0
LINE
  5
A0
330
1F
100
AcDbEntity
  8
03_DXF_CONTINUOUS_LINE
  6
CONTINUOUS
 62
     6
100
AcDbLine
 10
184.2496233514
 20
283.0156308852
 30
0.0
 11
184.2496233522
 21
229.8156308854
 31
0.0
  0
LINE
  5
A1
330
1F
100
AcDbEntity
  8
03_DXF_CONTINUOUS_LINE
  6
CONTINUOUS
 62
     6
100
AcDbLine
 10
184.6723039921
 20
243.6656308851
 30
0.0
 11
184.6723039921
 21
236.1656308851
 31
0.0
  0
LINE
  5
A2
330
1F
100
AcDbEntity
  8
03_DXF_CONTINUOUS_LINE
  6
CONTINUOUS
 62
     6
100
AcDbLine
 10
184.6802944366
 20
276.6656308851
 30
0.0
 11
184.6802944366
 21
269.1656308851
 31
0.0
  0
LINE
  5
A3
330
1F
100
AcDbEntity
  8
03_DXF_CONTINUOUS_LINE
  6
CONTINUOUS
 62
     6
100
AcDbLine
 10
184.6996221858
 20
236.1656308851
 30
0.0
 11
184.6996221858
 21
243.6656308851
 31
0.0
  0
LINE
  5
A4
330
1F
100
AcDbEntity
  8
03_DXF_CONTINUOUS_LINE
  6
CONTINUOUS
 62
     6
100
AcDbLine
 10
184.6996221858
 20
269.1656308851
 30
0.0
 11
184.6996221858
 21
276.6656308851
 31
0.0
  0
LINE
  5
A5
330
1F
100
AcDbEntity
  8
03_DXF_CONTINUOUS_LINE
  6
CONTINUOUS
 62
     6
100
AcDbLine
 10
184.9996233522
 20
283.0156308852
 30
0.0
 11
184.9996233522
 21
229.8156308854
 31
0.0
  0
LINE
  5
A6
330
1F
100
AcDbEntity
  8
03_DXF_CONTINUOUS_LINE
  6
CONTINUOUS
 62
     6
100
AcDbLine
 10
185.0306674713
 20
243.6656308851
 30
0.0
 11
185.0306674713
 21
236.1656308851
 31
0.0
  0
LINE
  5
A7
330
1F
100
AcDbEntity
  8
03_DXF_CONTINUOUS_LINE
  6
CONTINUOUS
 62
     6
100
AcDbLine
 10
185.0306674713
 20
269.1656308851
 30
0.0
 11
185.0306674713
 21
276.6656308851
 31
0.0
  0
LINE
  5
A8
330
1F
100
AcDbEntity
  8
03_DXF_CONTINUOUS_LINE
  6
CONTINUOUS
 62
     6
100
AcDbLine
 10
185.0544068659
 20
276.6656308851
 30
0.0
 11
185.0544068659
 21
269.1656308851
 31
0.0
  0
LINE
  5
A9
330
1F
100
AcDbEntity
  8
03_DXF_CONTINUOUS_LINE
  6
CONTINUOUS
 62
     6
100
AcDbLine
 10
185.0544068659
 20
236.1656308851
 30
0.0
 11
185.0544068659
 21
243.6656308851
 31
0.0
  0
LINE
  5
AA
330
1F
100
AcDbEntity
  8
03_DXF_CONTINUOUS_LINE
  6
CONTINUOUS
 62
     6
100
AcDbLine
 10
185.099595021
 20
283.0156308852
 30
0.0
 11
185.099595021
 21
229.8156308854
 31
0.0
  0
LINE
  5
AB
330
1F
100
AcDbEntity
  8
03_DXF_CONTINUOUS_LINE
  6
CONTINUOUS
 62
     6
100
AcDbLine
 10
185.1329850278
 20
243.6656308851
 30
0.0
 11
185.1329850278
 21
236.1656308851
 31
0.0
  0
LINE
  5
AC
330
1F
100
AcDbEntity
  8
03_DXF_CONTINUOUS_LINE
  6
CONTINUOUS
 62
     6
100
AcDbLine
 10
185.1329850278
 20
269.1656308851
 30
0.0
 11
185.1329850278
 21
276.6656308851
 31
0.0
  0
LINE
  5
AD
330
1F
100
AcDbEntity
  8
03_DXF_CONTINUOUS_LINE
  6
CONTINUOUS
 62
     6
100
AcDbLine
 10
185.1520326471
 20
276.6656308851
 30
0.0
 11
185.1520326471
 21
269.1656308851
 31
0.0
  0
LINE
  5
AE
330
1F
100
AcDbEntity
  8
03_DXF_CONTINUOUS_LINE
  6
CONTINUOUS
 62
     6
100
AcDbLine
 10
185.1520326471
 20
236.1656308851
 30
0.0
 11
185.1520326471
 21
243.6656308851
 31
0.0
  0
LINE
  5
AF
330
1F
100
AcDbEntity
  8
03_DXF_CONTINUOUS_LINE
  6
CONTINUOUS
 62
     6
100
AcDbLine
 10
185.1591755038
 20
229.8156308854
 30
0.0
 11
185.1591755038
 21
283.0156308852
 31
0.0
  0
LINE
  5
B0
330
1F
100
AcDbEntity
  8
03_DXF_CONTINUOUS_LINE
  6
CONTINUOUS
 62
     6
100
AcDbLine
 10
185.2496233522
 20
283.0156308852
 30
0.0
 11
185.2496233522
 21
229.8156308854
 31
0.0
  0
LINE
  5
B1
330
1F
100
AcDbEntity
  8
03_DXF_CONTINUOUS_LINE
  6
CONTINUOUS
 62
     6
100
AcDbLine
 10
185.7496233521
 20
283.7656308851
 30
0.0
 11
185.7496233521
 21
283.5156308851
 31
0.0
  0
LINE
  5
B2
330
1F
100
AcDbEntity
  8
03_DXF_CONTINUOUS_LINE
  6
CONTINUOUS
 62
     6
100
AcDbLine
 10
185.7496233524
 20
229.3156308851
 30
0.0
 11
185.7496233524
 21
229.0656308851
 31
0.0
  0
LINE
  5
B3
330
1F
100
AcDbEntity
  8
03_DXF_CONTINUOUS_LINE
  6
CONTINUOUS
 62
     6
100
AcDbLine
 10
185.7496233524
 20
227.3156308851
 30
0.0
 11
185.7496233524
 21
227.85784002
 31
0.0
  0
LINE
  5
B4
330
1F
100
AcDbEntity
  8
03_DXF_CONTINUOUS_LINE
  6
CONTINUOUS
 62
     6
100
AcDbLine
 10
185.7496233521
 20
284.9734217502
 30
0.0
 11
185.7496233521
 21
285.5156308851
 31
0.0
  0
LINE
  5
B5
330
1F
100
AcDbEntity
  8
03_DXF_CONTINUOUS_LINE
  6
CONTINUOUS
 62
     6
100
AcDbLine
 10
186.0091755277
 20
282.7560787096
 30
0.0
 11
186.0091755277
 21
230.0751830606
 31
0.0
  0
LINE
  5
B6
330
1F
100
AcDbEntity
  8
03_DXF_CONTINUOUS_LINE
  6
CONTINUOUS
 62
     7
100
AcDbLine
 10
186.0496237337
 20
284.8156308851
 30
0.0
 11
186.0496237337
 21
282.8156308851
 31
0.0
  0
LINE
  5
B7
330
1F
100
AcDbEntity
  8
03_DXF_CONTINUOUS_LINE
  6
CONTINUOUS
 62
     6
100
AcDbLine
 10
186.0496233521
 20
282.815630885
 30
0.0
 11
186.0496233521
 21
230.0156308855
 31
0.0
  0
LINE
  5
B8
330
1F
100
AcDbEntity
  8
03_DXF_CONTINUOUS_LINE
  6
CONTINUOUS
 62
     7
100
AcDbLine
 10
186.0496233523
 20
228.0157308774
 30
0.0
 11
186.0496233523
 21
230.0156308851
 31
0.0
  0
LINE
  5
B9
330
1F
100
AcDbEntity
  8
03_DXF_CONTINUOUS_LINE
  6
CONTINUOUS
 62
     6
100
AcDbLine
 10
186.1591755336
 20
230.2251830666
 30
0.0
 11
186.1591755336
 21
282.6060787037
 31
0.0
  0
LINE
  5
BA
330
1F
100
AcDbEntity
  8
03_DXF_CONTINUOUS_LINE
  6
CONTINUOUS
 62
     6
100
AcDbLine
 10
186.2496233514
 20
282.5156463939
 30
0.0
 11
186.2496233514
 21
230.3156308871
 31
0.0
  0
LINE
  5
BB
330
1F
100
AcDbEntity
  8
03_DXF_CONTINUOUS_LINE
  6
CONTINUOUS
 62
     7
100
AcDbLine
 10
217.3994589265
 20
243.6656308851
 30
0.0
 11
216.9448398383
 21
243.6656308851
 31
0.0
  0
LINE
  5
BC
330
1F
100
AcDbEntity
  8
03_DXF_CONTINUOUS_LINE
  6
CONTINUOUS
 62
     6
100
AcDbLine
 10
216.9448398383
 20
243.6656308851
 30
0.0
 11
216.8472140572
 21
243.6656308851
 31
0.0
  0
LINE
  5
BD
330
1F
100
AcDbEntity
  8
03_DXF_CONTINUOUS_LINE
  6
CONTINUOUS
 62
     7
100
AcDbLine
 10
184.5997877778
 20
243.6656308851
 30
0.0
 11
185.054406866
 21
243.6656308851
 31
0.0
  0
LINE
  5
BE
330
1F
100
AcDbEntity
  8
03_DXF_CONTINUOUS_LINE
  6
CONTINUOUS
 62
     6
100
AcDbLine
 10
185.054406866
 20
243.6656308851
 30
0.0
 11
185.1520326471
 21
243.6656308851
 31
0.0
  0
LINE
  5
BF
330
1F
100
AcDbEntity
  8
03_DXF_CONTINUOUS_LINE
  6
CONTINUOUS
 62
     6
100
AcDbLine
 10
191.0496233521
 20
284.7275010216
 30
0.0
 11
191.0496233521
 21
283.6656358036
 31
0.0
  0
LINE
  5
C0
330
1F
100
AcDbEntity
  8
03_DXF_CONTINUOUS_LINE
  6
CONTINUOUS
 62
     7
100
AcDbLine
 10
191.0496233521
 20
284.7275010216
 30
0.0
 11
191.0496233521
 21
284.8156308851
 31
0.0
  0
LINE
  5
C1
330
1F
100
AcDbEntity
  8
03_DXF_CONTINUOUS_LINE
  6
CONTINUOUS
 62
     7
100
AcDbLine
 10
185.7496220614
 20
228.3156257254
 30
0.0
 11
186.2496233514
 21
230.3156308851
 31
0.0
  0
LINE
  5
C2
330
1F
100
AcDbEntity
  8
03_DXF_CONTINUOUS_LINE
  6
CONTINUOUS
 62
     6
100
AcDbLine
 10
215.9900711767
 20
282.7560787096
 30
0.0
 11
215.8400711707
 21
282.6060787037
 31
0.0
  0
LINE
  5
C3
330
1F
100
AcDbEntity
  8
03_DXF_CONTINUOUS_LINE
  6
CONTINUOUS
 62
     6
100
AcDbLine
 10
215.9900711767
 20
230.0751830606
 30
0.0
 11
215.8400711707
 21
230.2251830666
 31
0.0
  0
LINE
  5
C4
330
1F
100
AcDbEntity
  8
03_DXF_CONTINUOUS_LINE
  6
CONTINUOUS
 62
     7
100
AcDbLine
 10
194.8496233521
 20
284.8159922804
 30
0.0
 11
194.8496233521
 21
284.7275010216
 31
0.0
  0
LINE
  5
C5
330
1F
100
AcDbEntity
  8
03_DXF_CONTINUOUS_LINE
  6
CONTINUOUS
 62
     6
100
AcDbLine
 10
194.8496233521
 20
283.6656308851
 30
0.0
 11
194.8496233521
 21
284.7275010216
 31
0.0
  0
LINE
  5
C6
330
1F
100
AcDbEntity
  8
03_DXF_CONTINUOUS_LINE
  6
CONTINUOUS
 62
     6
100
AcDbLine
 10
207.1496233521
 20
284.7275010216
 30
0.0
 11
207.1496233521
 21
283.6656507618
 31
0.0
  0
LINE
  5
C7
330
1F
100
AcDbEntity
  8
03_DXF_CONTINUOUS_LINE
  6
CONTINUOUS
 62
     7
100
AcDbLine
 10
207.1496233521
 20
284.7275010216
 30
0.0
 11
207.1496233521
 21
284.8156308851
 31
0.0
  0
LINE
  5
C8
330
1F
100
AcDbEntity
  8
03_DXF_CONTINUOUS_LINE
  6
CONTINUOUS
 62
     6
100
AcDbLine
 10
186.0091755277
 20
230.0751830606
 30
0.0
 11
186.1591755336
 21
230.2251830666
 31
0.0
  0
LINE
  5
C9
330
1F
100
AcDbEntity
  8
03_DXF_CONTINUOUS_LINE
  6
CONTINUOUS
 62
     6
100
AcDbLine
 10
186.0091755277
 20
282.7560787096
 30
0.0
 11
186.1591755336
 21
282.6060787037
 31
0.0
  0
LINE
  5
CA
330
1F
100
AcDbEntity
  8
03_DXF_CONTINUOUS_LINE
  6
CONTINUOUS
 62
     7
100
AcDbLine
 10
210.9496233521
 20
284.8159922804
 30
0.0
 11
210.9496233521
 21
284.7275010166
 31
0.0
  0
LINE
  5
CB
330
1F
100
AcDbEntity
  8
03_DXF_CONTINUOUS_LINE
  6
CONTINUOUS
 62
     6
100
AcDbLine
 10
210.9496233521
 20
283.6656308851
 30
0.0
 11
210.9496233521
 21
284.7275010166
 31
0.0
  0
LINE
  5
CC
330
1F
100
AcDbEntity
  8
03_DXF_CONTINUOUS_LINE
  6
CONTINUOUS
 62
     7
100
AcDbLine
 10
217.3994589265
 20
269.1656308851
 30
0.0
 11
216.9448398383
 21
269.1656308851
 31
0.0
  0
LINE
  5
CD
330
1F
100
AcDbEntity
  8
03_DXF_CONTINUOUS_LINE
  6
CONTINUOUS
 62
     6
100
AcDbLine
 10
216.9448398383
 20
269.1656308851
 30
0.0
 11
216.8472140572
 21
269.1656308851
 31
0.0
  0
LINE
  5
CE
330
1F
100
AcDbEntity
  8
03_DXF_CONTINUOUS_LINE
  6
CONTINUOUS
 62
     7
100
AcDbLine
 10
184.5997877778
 20
269.1656308851
 30
0.0
 11
185.054406866
 21
269.1656308851
 31
0.0
  0
LINE
  5
CF
330
1F
100
AcDbEntity
  8
03_DXF_CONTINUOUS_LINE
  6
CONTINUOUS
 62
     6
100
AcDbLine
 10
185.054406866
 20
269.1656308851
 30
0.0
 11
185.1520326471
 21
269.1656308851
 31
0.0
  0
LINE
  5
D0
330
1F
100
AcDbEntity
  8
03_DXF_CONTINUOUS_LINE
  6
CONTINUOUS
 62
     6
100
AcDbLine
 10
215.7496240585
 20
230.315641585
 30
0.0
 11
215.7496240585
 21
282.5156470196
 31
0.0
  0
LINE
  5
D1
330
1F
100
AcDbEntity
  8
03_DXF_CONTINUOUS_LINE
  6
CONTINUOUS
 62
     6
100
AcDbLine
 10
215.8400711707
 20
282.6060787037
 30
0.0
 11
215.8400711707
 21
230.2251830666
 31
0.0
  0
LINE
  5
D2
330
1F
100
AcDbEntity
  8
03_DXF_CONTINUOUS_LINE
  6
CONTINUOUS
 62
     7
100
AcDbLine
 10
215.9496233524
 20
230.0156308851
 30
0.0
 11
215.9496233524
 21
228.0157308774
 31
0.0
  0
LINE
  5
D3
330
1F
100
AcDbEntity
  8
03_DXF_CONTINUOUS_LINE
  6
CONTINUOUS
 62
     6
100
AcDbLine
 10
215.9496233521
 20
230.0156316482
 30
0.0
 11
215.9496233521
 21
282.8156308852
 31
0.0
  0
LINE
  5
D4
330
1F
100
AcDbEntity
  8
03_DXF_CONTINUOUS_LINE
  6
CONTINUOUS
 62
     7
100
AcDbLine
 10
215.9496233522
 20
282.8156308851
 30
0.0
 11
215.9496233522
 21
284.8154730241
 31
0.0
  0
LINE
  5
D5
330
1F
100
AcDbEntity
  8
03_DXF_CONTINUOUS_LINE
  6
CONTINUOUS
 62
     6
100
AcDbLine
 10
215.9900711767
 20
230.0751830606
 30
0.0
 11
215.9900711767
 21
282.7560787096
 31
0.0
  0
LINE
  5
D6
330
1F
100
AcDbEntity
  8
03_DXF_CONTINUOUS_LINE
  6
CONTINUOUS
 62
     6
100
AcDbLine
 10
216.2496233521
 20
285.5156308851
 30
0.0
 11
216.2496233521
 21
284.9734217502
 31
0.0
  0
LINE
  5
D7
330
1F
100
AcDbEntity
  8
03_DXF_CONTINUOUS_LINE
  6
CONTINUOUS
 62
     6
100
AcDbLine
 10
216.2496233525
 20
227.85784002
 30
0.0
 11
216.2496233525
 21
227.3156308851
 31
0.0
  0
LINE
  5
D8
330
1F
100
AcDbEntity
  8
03_DXF_CONTINUOUS_LINE
  6
CONTINUOUS
 62
     6
100
AcDbLine
 10
216.2496233525
 20
229.0656308851
 30
0.0
 11
216.2496233525
 21
229.3156308851
 31
0.0
  0
LINE
  5
D9
330
1F
100
AcDbEntity
  8
03_DXF_CONTINUOUS_LINE
  6
CONTINUOUS
 62
     6
100
AcDbLine
 10
216.2496233521
 20
283.5156308851
 30
0.0
 11
216.2496233521
 21
283.7656308851
 31
0.0
  0
LINE
  5
DA
330
1F
100
AcDbEntity
  8
03_DXF_CONTINUOUS_LINE
  6
CONTINUOUS
 62
     6
100
AcDbLine
 10
216.7496233522
 20
229.8156308848
 30
0.0
 11
216.7496233522
 21
283.0156308851
 31
0.0
  0
LINE
  5
DB
330
1F
100
AcDbEntity
  8
03_DXF_CONTINUOUS_LINE
  6
CONTINUOUS
 62
     6
100
AcDbLine
 10
216.8400712005
 20
283.0156308851
 30
0.0
 11
216.8400712005
 21
229.8156308848
 31
0.0
  0
LINE
  5
DC
330
1F
100
AcDbEntity
  8
03_DXF_CONTINUOUS_LINE
  6
CONTINUOUS
 62
     6
100
AcDbLine
 10
216.8472140572
 20
276.6656308851
 30
0.0
 11
216.8472140572
 21
269.1656308851
 31
0.0
  0
LINE
  5
DD
330
1F
100
AcDbEntity
  8
03_DXF_CONTINUOUS_LINE
  6
CONTINUOUS
 62
     6
100
AcDbLine
 10
216.8472140572
 20
236.1656308851
 30
0.0
 11
216.8472140572
 21
243.6656308851
 31
0.0
  0
LINE
  5
DE
330
1F
100
AcDbEntity
  8
03_DXF_CONTINUOUS_LINE
  6
CONTINUOUS
 62
     6
100
AcDbLine
 10
216.8662616765
 20
243.6656308851
 30
0.0
 11
216.8662616765
 21
236.1656308851
 31
0.0
  0
LINE
  5
DF
330
1F
100
AcDbEntity
  8
03_DXF_CONTINUOUS_LINE
  6
CONTINUOUS
 62
     6
100
AcDbLine
 10
216.8662616765
 20
269.1656308851
 30
0.0
 11
216.8662616765
 21
276.6656308851
 31
0.0
  0
LINE
  5
E0
330
1F
100
AcDbEntity
  8
03_DXF_CONTINUOUS_LINE
  6
CONTINUOUS
 62
     6
100
AcDbLine
 10
216.8996516833
 20
229.8156308848
 30
0.0
 11
216.8996516833
 21
283.0156308851
 31
0.0
  0
LINE
  5
E1
330
1F
100
AcDbEntity
  8
03_DXF_CONTINUOUS_LINE
  6
CONTINUOUS
 62
     6
100
AcDbLine
 10
216.9448398384
 20
276.6656308851
 30
0.0
 11
216.9448398384
 21
269.1656308851
 31
0.0
  0
LINE
  5
E2
330
1F
100
AcDbEntity
  8
03_DXF_CONTINUOUS_LINE
  6
CONTINUOUS
 62
     6
100
AcDbLine
 10
216.9448398384
 20
236.1656308851
 30
0.0
 11
216.9448398384
 21
243.6656308851
 31
0.0
  0
LINE
  5
E3
330
1F
100
AcDbEntity
  8
03_DXF_CONTINUOUS_LINE
  6
CONTINUOUS
 62
     6
100
AcDbLine
 10
216.9685792331
 20
243.6656308851
 30
0.0
 11
216.9685792331
 21
236.1656308851
 31
0.0
  0
LINE
  5
E4
330
1F
100
AcDbEntity
  8
03_DXF_CONTINUOUS_LINE
  6
CONTINUOUS
 62
     6
100
AcDbLine
 10
216.9685792331
 20
269.1656308851
 30
0.0
 11
216.9685792331
 21
276.6656308851
 31
0.0
  0
LINE
  5
E5
330
1F
100
AcDbEntity
  8
03_DXF_CONTINUOUS_LINE
  6
CONTINUOUS
 62
     6
100
AcDbLine
 10
216.9996233522
 20
229.8156308848
 30
0.0
 11
216.9996233522
 21
283.0156308851
 31
0.0
  0
LINE
  5
E6
330
1F
100
AcDbEntity
  8
03_DXF_CONTINUOUS_LINE
  6
CONTINUOUS
 62
     6
100
AcDbLine
 10
217.7496245118
 20
283.0157912882
 30
0.0
 11
217.7475489214
 21
283.094491461
 31
0.0
  0
LINE
  5
E7
330
1F
100
AcDbEntity
  8
03_DXF_CONTINUOUS_LINE
  6
CONTINUOUS
 62
     6
100
AcDbLine
 10
217.2996245186
 20
276.6656308851
 30
0.0
 11
217.2996245186
 21
269.1656308851
 31
0.0
  0
LINE
  5
E8
330
1F
100
AcDbEntity
  8
03_DXF_CONTINUOUS_LINE
  6
CONTINUOUS
 62
     6
100
AcDbLine
 10
217.2996245186
 20
243.6656308851
 30
0.0
 11
217.2996245186
 21
236.1656308851
 31
0.0
  0
LINE
  5
E9
330
1F
100
AcDbEntity
  8
03_DXF_CONTINUOUS_LINE
  6
CONTINUOUS
 62
     6
100
AcDbLine
 10
217.3189522677
 20
236.1656308851
 30
0.0
 11
217.3189522677
 21
243.6656308851
 31
0.0
  0
LINE
  5
EA
330
1F
100
AcDbEntity
  8
03_DXF_CONTINUOUS_LINE
  6
CONTINUOUS
 62
     6
100
AcDbLine
 10
217.3269427122
 20
269.1656308851
 30
0.0
 11
217.3269427122
 21
276.6656308851
 31
0.0
  0
LINE
  5
EB
330
1F
100
AcDbEntity
  8
03_DXF_CONTINUOUS_LINE
  6
CONTINUOUS
 62
     6
100
AcDbLine
 10
217.7496233529
 20
283.0156340764
 30
0.0
 11
217.7496233529
 21
229.8156328055
 31
0.0
  0
LINE
  5
EC
330
1F
100
AcDbEntity
  8
03_DXF_CONTINUOUS_LINE
  6
CONTINUOUS
 62
     6
100
AcDbLine
 10
217.9496233521
 20
282.8156308852
 30
0.0
 11
217.9496233521
 21
230.0156308844
 31
0.0
  0
LINE
  5
ED
330
1F
100
AcDbEntity
  8
03_DXF_CONTINUOUS_LINE
  6
CONTINUOUS
 62
     6
100
AcDbLine
 10
218.2074142173
 20
283.0156308851
 30
0.0
 11
218.2074142173
 21
229.8156308848
 31
0.0
  0
LINE
  5
EE
330
1F
100
AcDbEntity
  8
03_DXF_CONTINUOUS_LINE
  6
CONTINUOUS
 62
     6
100
AcDbLine
 10
218.507310405
 20
283.0156308851
 30
0.0
 11
218.507310405
 21
229.8156308848
 31
0.0
  0
LINE
  5
EF
330
1F
100
AcDbEntity
  8
03_DXF_CONTINUOUS_LINE
  6
CONTINUOUS
 62
     6
100
AcDbLine
 10
218.7496233522
 20
283.0156308851
 30
0.0
 11
218.7496233522
 21
229.8156308848
 31
0.0
  0
LINE
  5
F0
330
1F
100
AcDbEntity
  8
03_DXF_CONTINUOUS_LINE
  6
CONTINUOUS
 62
     6
100
AcDbLine
 10
217.9496233521
 20
282.8156308852
 30
0.0
 11
217.912063707
 21
283.2072635955
 31
0.0
  0
LINE
  5
F1
330
1F
100
AcDbEntity
  8
03_DXF_CONTINUOUS_LINE
  6
CONTINUOUS
 62
     6
100
AcDbLine
 10
217.9138064942
 20
229.6327519907
 30
0.0
 11
217.9496233521
 21
230.0156308846
 31
0.0
  0
LINE
  5
F2
330
1F
100
AcDbEntity
  8
03_DXF_CONTINUOUS_LINE
  6
CONTINUOUS
 62
     7
100
AcDbLine
 10
217.3994589276
 20
276.6656308851
 30
0.0
 11
216.9448398393
 21
276.6656308851
 31
0.0
  0
LINE
  5
F3
330
1F
100
AcDbEntity
  8
03_DXF_CONTINUOUS_LINE
  6
CONTINUOUS
 62
     6
100
AcDbLine
 10
216.9448398393
 20
276.6656308851
 30
0.0
 11
216.8472140572
 21
276.6656308851
 31
0.0
  0
LINE
  5
F4
330
1F
100
AcDbEntity
  8
03_DXF_CONTINUOUS_LINE
  6
CONTINUOUS
 62
     7
100
AcDbLine
 10
184.5997877767
 20
276.6656308851
 30
0.0
 11
185.054406865
 21
276.6656308851
 31
0.0
  0
LINE
  5
F5
330
1F
100
AcDbEntity
  8
03_DXF_CONTINUOUS_LINE
  6
CONTINUOUS
 62
     6
100
AcDbLine
 10
185.054406865
 20
276.6656308851
 30
0.0
 11
185.1520326471
 21
276.6656308851
 31
0.0
  0
LWPOLYLINE
  5
F6
330
1F
100
AcDbEntity
  8
03_DXF_CONTINUOUS_LINE
  6
CONTINUOUS
 62
     6
100
AcDbPolyline
 90
        7
 70
     0
 43
0.0
 10
217.7475489214
 20
283.094491461
 10
217.6838356924
 20
283.4551128392
 10
217.535170885
 20
283.7886879904
 10
217.3102302231
 20
284.0764892258
 10
217.022378633
 20
284.3013597881
 10
216.6887736062
 20
284.449944728
 10
216.328314938
 20
284.5135653416
  0
LWPOLYLINE
  5
F7
330
1F
100
AcDbEntity
  8
03_DXF_CONTINUOUS_LINE
  6
CONTINUOUS
 62
     6
100
AcDbPolyline
 90
        3
 70
     0
 43
0.0
 10
217.912063707
 20
283.2072635955
 10
217.8009730954
 20
283.5723372304
 10
217.6186566978
 20
283.9168744994
  0
LINE
  5
F8
330
1F
100
AcDbEntity
  8
03_DXF_CONTINUOUS_LINE
  6
CONTINUOUS
 62
     6
100
AcDbLine
 10
215.7496181857
 20
282.5156740538
 30
0.0
 11
186.2496279345
 21
282.5156740538
 31
0.0
  0
LINE
  5
F9
330
1F
100
AcDbEntity
  8
03_DXF_CONTINUOUS_LINE
  6
CONTINUOUS
 62
     6
100
AcDbLine
 10
186.1591755336
 20
282.6060787037
 30
0.0
 11
215.8400711707
 21
282.6060787037
 31
0.0
  0
LINE
  5
FA
330
1F
100
AcDbEntity
  8
03_DXF_CONTINUOUS_LINE
  6
CONTINUOUS
 62
     6
100
AcDbLine
 10
215.9900711767
 20
282.7560787096
 30
0.0
 11
186.0091755277
 21
282.7560787096
 31
0.0
  0
LINE
  5
FB
330
1F
100
AcDbEntity
  8
03_DXF_CONTINUOUS_LINE
  6
CONTINUOUS
 62
     7
100
AcDbLine
 10
217.9496233521
 20
282.8156308852
 30
0.0
 11
215.9496233521
 21
282.8156308852
 31
0.0
  0
LINE
  5
FC
330
1F
100
AcDbEntity
  8
03_DXF_CONTINUOUS_LINE
  6
CONTINUOUS
 62
     6
100
AcDbLine
 10
215.9496233522
 20
282.8156308851
 30
0.0
 11
186.0496237337
 21
282.8156308851
 31
0.0
  0
LINE
  5
FD
330
1F
100
AcDbEntity
  8
03_DXF_CONTINUOUS_LINE
  6
CONTINUOUS
 62
     7
100
AcDbLine
 10
184.0496233521
 20
282.815630885
 30
0.0
 11
186.0496233521
 21
282.815630885
 31
0.0
  0
LINE
  5
FE
330
1F
100
AcDbEntity
  8
03_DXF_CONTINUOUS_LINE
  6
CONTINUOUS
 62
     6
100
AcDbLine
 10
216.9996233522
 20
283.0156308851
 30
0.0
 11
216.7496233522
 21
283.0156308851
 31
0.0
  0
LINE
  5
FF
330
1F
100
AcDbEntity
  8
03_DXF_CONTINUOUS_LINE
  6
CONTINUOUS
 62
     6
100
AcDbLine
 10
185.2496233522
 20
283.0156308852
 30
0.0
 11
184.9996233522
 21
283.0156308852
 31
0.0
  0
LINE
  5
100
330
1F
100
AcDbEntity
  8
03_DXF_CONTINUOUS_LINE
  6
CONTINUOUS
 62
     6
100
AcDbLine
 10
183.2496233522
 20
283.0156308852
 30
0.0
 11
183.7918324871
 21
283.0156308852
 31
0.0
  0
LINE
  5
101
330
1F
100
AcDbEntity
  8
03_DXF_CONTINUOUS_LINE
  6
CONTINUOUS
 62
     7
100
AcDbLine
 10
184.2496233514
 20
283.0156308852
 30
0.0
 11
184.2549914624
 21
283.0156308852
 31
0.0
  0
LINE
  5
102
330
1F
100
AcDbEntity
  8
03_DXF_CONTINUOUS_LINE
  6
CONTINUOUS
 62
     6
100
AcDbLine
 10
218.2074142173
 20
283.0156308851
 30
0.0
 11
218.7496233522
 21
283.0156308851
 31
0.0
  0
LINE
  5
103
330
1F
100
AcDbEntity
  8
03_DXF_CONTINUOUS_LINE
  6
CONTINUOUS
 62
     6
100
AcDbLine
 10
216.2496233521
 20
283.5156308853
 30
0.0
 11
185.7496233521
 21
283.5156308851
 31
0.0
  0
LINE
  5
104
330
1F
100
AcDbEntity
  8
03_DXF_CONTINUOUS_LINE
  6
CONTINUOUS
 62
     6
100
AcDbLine
 10
185.7496233521
 20
283.6060787335
 30
0.0
 11
216.2496233521
 21
283.6060787336
 31
0.0
  0
LINE
  5
105
330
1F
100
AcDbEntity
  8
03_DXF_CONTINUOUS_LINE
  6
CONTINUOUS
 62
     6
100
AcDbLine
 10
216.2496233521
 20
283.6656592164
 30
0.0
 11
210.9496233521
 21
283.6656542923
 31
0.0
  0
LINE
  5
106
330
1F
100
AcDbEntity
  8
03_DXF_CONTINUOUS_LINE
  6
CONTINUOUS
 62
     7
100
AcDbLine
 10
210.9496233521
 20
283.6656308851
 30
0.0
 11
191.0496233521
 21
283.6656308851
 31
0.0
  0
LINE
  5
107
330
1F
100
AcDbEntity
  8
03_DXF_CONTINUOUS_LINE
  6
CONTINUOUS
 62
     6
100
AcDbLine
 10
191.0496233521
 20
283.6656358036
 30
0.0
 11
185.7556922221
 21
283.6656308851
 31
0.0
  0
LINE
  5
108
330
1F
100
AcDbEntity
  8
03_DXF_CONTINUOUS_LINE
  6
CONTINUOUS
 62
     6
100
AcDbLine
 10
216.2496233521
 20
283.7656308853
 30
0.0
 11
185.7496233521
 21
283.7656308851
 31
0.0
  0
LINE
  5
109
330
1F
100
AcDbEntity
  8
03_DXF_CONTINUOUS_LINE
  6
CONTINUOUS
 62
     6
100
AcDbLine
 10
217.6192820545
 20
228.9153368559
 30
0.0
 11
217.7481174984
 21
229.1413495356
 31
0.0
  0
LINE
  5
10A
330
1F
100
AcDbEntity
  8
03_DXF_CONTINUOUS_LINE
  6
CONTINUOUS
 62
     6
100
AcDbLine
 10
186.0496233522
 20
284.8156308851
 30
0.0
 11
185.6579906419
 21
284.77807124
 31
0.0
  0
LINE
  5
10B
330
1F
100
AcDbEntity
  8
03_DXF_CONTINUOUS_LINE
  6
CONTINUOUS
 62
     6
100
AcDbLine
 10
185.6783864665
 20
284.5139384777
 30
0.0
 11
185.6572458379
 21
284.512783648
 31
0.0
  0
LINE
  5
10C
330
1F
100
AcDbEntity
  8
03_DXF_CONTINUOUS_LINE
  6
CONTINUOUS
 62
     6
100
AcDbLine
 10
216.2496233521
 20
284.5156308851
 30
0.0
 11
185.7496233521
 21
284.5156308851
 31
0.0
  0
LINE
  5
10D
330
1F
100
AcDbEntity
  8
03_DXF_CONTINUOUS_LINE
  6
CONTINUOUS
 62
     7
100
AcDbLine
 10
210.9496233521
 20
284.7275010166
 30
0.0
 11
207.1496233521
 21
284.7275010216
 31
0.0
  0
LINE
  5
10E
330
1F
100
AcDbEntity
  8
03_DXF_CONTINUOUS_LINE
  6
CONTINUOUS
 62
     7
100
AcDbLine
 10
194.8496233521
 20
284.7275010216
 30
0.0
 11
191.0496233521
 21
284.7275010216
 31
0.0
  0
LINE
  5
10F
330
1F
100
AcDbEntity
  8
03_DXF_CONTINUOUS_LINE
  6
CONTINUOUS
 62
     7
100
AcDbLine
 10
210.9496233521
 20
284.7521225582
 30
0.0
 11
207.1496233521
 21
284.7521225582
 31
0.0
  0
LINE
  5
110
330
1F
100
AcDbEntity
  8
03_DXF_CONTINUOUS_LINE
  6
CONTINUOUS
 62
     7
100
AcDbLine
 10
194.8496233521
 20
284.7521225582
 30
0.0
 11
191.0496233521
 21
284.7521225582
 31
0.0
  0
LINE
  5
111
330
1F
100
AcDbEntity
  8
03_DXF_CONTINUOUS_LINE
  6
CONTINUOUS
 62
     6
100
AcDbLine
 10
215.9496233522
 20
284.8156308851
 30
0.0
 11
210.9496233521
 21
284.8156308851
 31
0.0
  0
LINE
  5
112
330
1F
100
AcDbEntity
  8
03_DXF_CONTINUOUS_LINE
  6
CONTINUOUS
 62
     6
100
AcDbLine
 10
207.1496233521
 20
284.8156308851
 30
0.0
 11
194.8496233521
 21
284.8156308851
 31
0.0
  0
LINE
  5
113
330
1F
100
AcDbEntity
  8
03_DXF_CONTINUOUS_LINE
  6
CONTINUOUS
 62
     6
100
AcDbLine
 10
191.0496233521
 20
284.8156308851
 30
0.0
 11
186.0496237337
 21
284.8156308851
 31
0.0
  0
LINE
  5
114
330
1F
100
AcDbEntity
  8
03_DXF_CONTINUOUS_LINE
  6
CONTINUOUS
 62
     6
100
AcDbLine
 10
185.7496233521
 20
284.9734217502
 30
0.0
 11
216.2496233521
 21
284.9734217502
 31
0.0
  0
LINE
  5
115
330
1F
100
AcDbEntity
  8
03_DXF_CONTINUOUS_LINE
  6
CONTINUOUS
 62
     6
100
AcDbLine
 10
185.7496233521
 20
285.2733179379
 30
0.0
 11
216.2496233521
 21
285.2733179379
 31
0.0
  0
LINE
  5
116
330
1F
100
AcDbEntity
  8
03_DXF_CONTINUOUS_LINE
  6
CONTINUOUS
 62
     6
100
AcDbLine
 10
185.7496233521
 20
285.5156308851
 30
0.0
 11
216.2496233521
 21
285.5156308851
 31
0.0
  0
LINE
  5
117
330
1F
100
AcDbEntity
  8
03_DXF_CONTINUOUS_LINE
  6
CONTINUOUS
 62
     6
100
AcDbLine
 10
216.328314938
 20
284.5135653416
 30
0.0
 11
216.249790429
 21
284.515632031
 31
0.0
  0
LINE
  5
118
330
1F
100
AcDbEntity
  8
03_DXF_CONTINUOUS_LINE
  6
CONTINUOUS
 62
     6
100
AcDbLine
 10
216.3325022462
 20
284.7798140272
 30
0.0
 11
215.9496233522
 21
284.8156308851
 31
0.0
  0
LWPOLYLINE
  5
119
330
1F
100
AcDbEntity
  8
03_DXF_CONTINUOUS_LINE
  6
CONTINUOUS
 62
     6
100
AcDbPolyline
 90
        3
 70
     0
 43
0.0
 10
185.6579906419
 20
284.77807124
 10
185.409027419
 20
284.7106855607
 10
185.1672258863
 20
284.6101401948
  0
LWPOLYLINE
  5
11A
330
1F
100
AcDbEntity
  8
03_DXF_CONTINUOUS_LINE
  6
CONTINUOUS
 62
     6
100
AcDbPolyline
 90
        6
 70
     0
 43
0.0
 10
185.6572458379
 20
284.512783648
 10
185.2332599816
 20
284.4239932016
 10
184.8527971356
 20
284.2181061785
 10
184.5469331473
 20
283.9121688767
 10
184.3411353084
 20
283.5316512151
 10
184.2524494997
 20
283.1076659759
  0
LWPOLYLINE
  5
11B
330
1F
100
AcDbEntity
  8
03_DXF_CONTINUOUS_LINE
  6
CONTINUOUS
 62
     6
100
AcDbPolyline
 90
        3
 70
     0
 43
0.0
 10
216.8239047014
 20
284.6141250314
 10
216.5817263289
 20
284.7135658337
 10
216.3325022462
 20
284.7798140272
  0
LINE
  5
11C
330
1F
100
AcDbEntity
  8
03_DXF_CONTINUOUS_LINE
  6
CONTINUOUS
 62
     7
100
AcDbLine
 10
184.0496233521
 20
341.3657250471
 30
0.0
 11
184.0496233521
 21
340.3457250662
 31
0.0
  0
LINE
  5
11D
330
1F
100
AcDbEntity
  8
03_DXF_CONTINUOUS_LINE
  6
CONTINUOUS
 62
     6
100
AcDbLine
 10
184.2496233522
 20
351.3657250471
 30
0.0
 11
184.2496233522
 21
350.8657250471
 31
0.0
  0
LINE
  5
11E
330
1F
100
AcDbEntity
  8
03_DXF_CONTINUOUS_LINE
  6
CONTINUOUS
 62
     6
100
AcDbLine
 10
183.4919362993
 20
350.5736170401
 30
0.0
 11
183.2496233522
 21
341.3657250471
 31
0.0
  0
LWPOLYLINE
  5
11F
330
1F
100
AcDbEntity
  8
03_DXF_CONTINUOUS_LINE
  6
CONTINUOUS
 62
     6
100
AcDbPolyline
 90
        4
 70
     0
 43
0.0
 10
184.5128100382
 20
352.3582845823
 10
184.3730768362
 20
352.0584768744
 10
184.282539502
 20
351.7257437962
 10
184.2496240278
 20
351.3657636899
  0
LWPOLYLINE
  5
120
330
1F
100
AcDbEntity
  8
03_DXF_CONTINUOUS_LINE
  6
CONTINUOUS
 62
     6
100
AcDbPolyline
 90
        3
 70
     0
 43
0.0
 10
183.5518358684
 20
350.7459310464
 10
183.5083885834
 20
350.6644517987
 10
183.4917811339
 20
350.5736253176
  0
LWPOLYLINE
  5
121
330
1F
100
AcDbEntity
  8
03_DXF_CONTINUOUS_LINE
  6
CONTINUOUS
 62
     6
100
AcDbPolyline
 90
        4
 70
     0
 43
0.0
 10
184.0495362516
 20
340.3457250662
 10
184.1034699467
 20
339.8867484398
 10
184.2612263938
 20
339.4549682802
 10
184.514678715
 20
339.070756325
  0
LINE
  5
122
330
1F
100
AcDbEntity
  8
03_DXF_CONTINUOUS_LINE
  6
CONTINUOUS
 62
     6
100
AcDbLine
 10
185.7496233524
 20
351.8657250471
 30
0.0
 11
185.7496233524
 21
341.3657250471
 31
0.0
  0
LINE
  5
123
330
1F
100
AcDbEntity
  8
03_DXF_CONTINUOUS_LINE
  6
CONTINUOUS
 62
     6
100
AcDbLine
 10
185.2496233522
 20
351.8657250471
 30
0.0
 11
184.9996233522
 21
341.3657250471
 31
0.0
  0
LINE
  5
124
330
1F
100
AcDbEntity
  8
03_DXF_CONTINUOUS_LINE
  6
CONTINUOUS
 62
     6
100
AcDbLine
 10
185.1591755038
 20
343.8657250471
 30
0.0
 11
185.0996516622
 21
341.3657236985
 31
0.0
  0
LWPOLYLINE
  5
125
330
1F
100
AcDbEntity
  8
03_DXF_CONTINUOUS_LINE
  6
CONTINUOUS
 62
     6
100
AcDbPolyline
 90
        7
 70
     0
 43
0.0
 10
184.9640803372
 20
352.8971935915
 10
184.7768194956
 20
352.7179813822
 10
184.6050738167
 20
352.5040255877
 10
184.459530849
 20
352.2580155585
 10
184.3473466804
 20
351.9832573528
 10
184.2749717127
 20
351.6837768466
 10
184.2496234235
 20
351.3657394745
  0
LWPOLYLINE
  5
126
330
1F
100
AcDbEntity
  8
03_DXF_CONTINUOUS_LINE
  6
CONTINUOUS
 62
     6
100
AcDbPolyline
 90
        3
 70
     0
 43
0.0
 10
184.5146784907
 20
339.0707565915
 10
184.8501561495
 20
338.7553224869
 10
185.2493435311
 20
338.5259399601
  0
LINE
  5
127
330
1F
100
AcDbEntity
  8
03_DXF_CONTINUOUS_LINE
  6
CONTINUOUS
 62
     6
100
AcDbLine
 10
186.0091755277
 20
343.8657250471
 30
0.0
 11
186.1591755336
 21
339.8657250471
 31
0.0
  0
LINE
  5
128
330
1F
100
AcDbEntity
  8
03_DXF_CONTINUOUS_LINE
  6
CONTINUOUS
 62
     7
100
AcDbLine
 10
186.0496233522
 20
341.3657250471
 30
0.0
 11
186.0496237337
 21
338.3657250471
 31
0.0
  0
LWPOLYLINE
  5
129
330
1F
100
AcDbEntity
  8
03_DXF_CONTINUOUS_LINE
  6
CONTINUOUS
 62
     6
100
AcDbPolyline
 90
        5
 70
     0
 43
0.0
 10
185.2571138721
 20
353.1006661066
 10
185.0547639409
 20
352.9662200926
 10
184.8578130739
 20
352.7984058524
 10
184.6739130643
 20
352.5957777611
 10
184.5128100382
 20
352.3582845823
  0
LWPOLYLINE
  5
12A
330
1F
100
AcDbEntity
  8
03_DXF_CONTINUOUS_LINE
  6
CONTINUOUS
 62
     6
100
AcDbPolyline
 90
        3
 70
     0
 43
0.0
 10
183.7007503154
 20
350.8515833364
 10
183.6180465126
 20
350.8103065725
 10
183.5519236126
 20
350.7459321566
  0
LINE
  5
12B
330
1F
100
AcDbEntity
  8
03_DXF_CONTINUOUS_LINE
  6
CONTINUOUS
 62
     6
100
AcDbLine
 10
185.2493435311
 20
338.5259399601
 30
0.0
 11
185.6321972907
 21
338.4060170895
 31
0.0
  0
LINE
  5
12C
330
1F
100
AcDbEntity
  8
03_DXF_CONTINUOUS_LINE
  6
CONTINUOUS
 62
     7
100
AcDbLine
 10
191.0496233521
 20
341.3657250471
 30
0.0
 11
191.0496233521
 21
339.8657250471
 31
0.0
  0
LINE
  5
12D
330
1F
100
AcDbEntity
  8
03_DXF_CONTINUOUS_LINE
  6
CONTINUOUS
 62
     6
100
AcDbLine
 10
215.9696242041
 20
338.3657250471
 30
0.0
 11
216.3670490891
 21
338.406017023
 31
0.0
  0
LINE
  5
12E
330
1F
100
AcDbEntity
  8
03_DXF_CONTINUOUS_LINE
  6
CONTINUOUS
 62
     6
100
AcDbLine
 10
185.6321975501
 20
338.4060170363
 30
0.0
 11
186.0296225002
 21
338.3657250471
 31
0.0
  0
LINE
  5
12F
330
1F
100
AcDbEntity
  8
03_DXF_CONTINUOUS_LINE
  6
CONTINUOUS
 62
     7
100
AcDbLine
 10
215.9696241454
 20
338.3657250471
 30
0.0
 11
215.9496233526
 21
338.3657250471
 31
0.0
  0
LINE
  5
130
330
1F
100
AcDbEntity
  8
03_DXF_CONTINUOUS_LINE
  6
CONTINUOUS
 62
     7
100
AcDbLine
 10
186.0496233524
 20
338.3657250471
 30
0.0
 11
186.0296225588
 21
338.3657250471
 31
0.0
  0
LINE
  5
131
330
1F
100
AcDbEntity
  8
03_DXF_CONTINUOUS_LINE
  6
CONTINUOUS
 62
     6
100
AcDbLine
 10
186.0496233524
 20
338.3657250471
 30
0.0
 11
215.9496233522
 21
338.3657250471
 31
0.0
  0
LINE
  5
132
330
1F
100
AcDbEntity
  8
03_DXF_CONTINUOUS_LINE
  6
CONTINUOUS
 62
     7
100
AcDbLine
 10
194.8496233521
 20
341.3657250471
 30
0.0
 11
194.8496233521
 21
339.8657250471
 31
0.0
  0
LINE
  5
133
330
1F
100
AcDbEntity
  8
03_DXF_CONTINUOUS_LINE
  6
CONTINUOUS
 62
     7
100
AcDbLine
 10
210.9496233521
 20
339.8657250471
 30
0.0
 11
207.1496233521
 21
339.8657250471
 31
0.0
  0
LINE
  5
134
330
1F
100
AcDbEntity
  8
03_DXF_CONTINUOUS_LINE
  6
CONTINUOUS
 62
     7
100
AcDbLine
 10
194.8496233521
 20
339.8657250471
 30
0.0
 11
191.0496233521
 21
339.8657250471
 31
0.0
  0
LINE
  5
135
330
1F
100
AcDbEntity
  8
03_DXF_CONTINUOUS_LINE
  6
CONTINUOUS
 62
     6
100
AcDbLine
 10
215.8400711707
 20
339.8657250471
 30
0.0
 11
210.9496233521
 21
339.8657250471
 31
0.0
  0
LINE
  5
136
330
1F
100
AcDbEntity
  8
03_DXF_CONTINUOUS_LINE
  6
CONTINUOUS
 62
     6
100
AcDbLine
 10
207.1496233521
 20
339.8657250471
 30
0.0
 11
194.8496233521
 21
339.8657250471
 31
0.0
  0
LINE
  5
137
330
1F
100
AcDbEntity
  8
03_DXF_CONTINUOUS_LINE
  6
CONTINUOUS
 62
     6
100
AcDbLine
 10
191.0496233521
 20
339.8657250471
 30
0.0
 11
186.1591755336
 21
339.8657250471
 31
0.0
  0
LINE
  5
138
330
1F
100
AcDbEntity
  8
03_DXF_CONTINUOUS_LINE
  6
CONTINUOUS
 62
     7
100
AcDbLine
 10
210.9496233521
 20
339.8742870335
 30
0.0
 11
207.1496233521
 21
339.8742870479
 31
0.0
  0
LINE
  5
139
330
1F
100
AcDbEntity
  8
03_DXF_CONTINUOUS_LINE
  6
CONTINUOUS
 62
     7
100
AcDbLine
 10
194.8496233521
 20
339.8742870479
 30
0.0
 11
191.0496233521
 21
339.8742870479
 31
0.0
  0
LINE
  5
13A
330
1F
100
AcDbEntity
  8
03_DXF_CONTINUOUS_LINE
  6
CONTINUOUS
 62
     6
100
AcDbLine
 10
217.9496233521
 20
340.3457250662
 30
0.0
 11
215.9496233526
 21
340.3457250662
 31
0.0
  0
LINE
  5
13B
330
1F
100
AcDbEntity
  8
03_DXF_CONTINUOUS_LINE
  6
CONTINUOUS
 62
     6
100
AcDbLine
 10
186.0496233524
 20
340.3457250662
 30
0.0
 11
184.0496233521
 21
340.3457250662
 31
0.0
  0
LINE
  5
13C
330
1F
100
AcDbEntity
  8
03_DXF_CONTINUOUS_LINE
  6
CONTINUOUS
 62
     6
100
AcDbLine
 10
215.9496233522
 20
340.3657250471
 30
0.0
 11
186.0496233523
 21
340.3657250471
 31
0.0
  0
LINE
  5
13D
330
1F
100
AcDbEntity
  8
03_DXF_CONTINUOUS_LINE
  6
CONTINUOUS
 62
     7
100
AcDbLine
 10
215.9496233526
 20
341.3657250471
 30
0.0
 11
186.0496233523
 21
341.3657250471
 31
0.0
  0
LINE
  5
13E
330
1F
100
AcDbEntity
  8
03_DXF_CONTINUOUS_LINE
  6
CONTINUOUS
 62
     6
100
AcDbLine
 10
186.0496233523
 20
341.3657250471
 30
0.0
 11
183.2496233522
 21
341.3657250471
 31
0.0
  0
LINE
  5
13F
330
1F
100
AcDbEntity
  8
03_DXF_CONTINUOUS_LINE
  6
CONTINUOUS
 62
     6
100
AcDbLine
 10
215.9496233526
 20
341.3657250471
 30
0.0
 11
218.7496233522
 21
341.3657250471
 31
0.0
  0
LINE
  5
140
330
1F
100
AcDbEntity
  8
03_DXF_CONTINUOUS_LINE
  6
CONTINUOUS
 62
     6
100
AcDbLine
 10
216.8400712005
 20
343.8657250471
 30
0.0
 11
185.1591755038
 21
343.8657250471
 31
0.0
  0
LINE
  5
141
330
1F
100
AcDbEntity
  8
03_DXF_CONTINUOUS_LINE
  6
CONTINUOUS
 62
     6
100
AcDbLine
 10
218.507310405
 20
350.5736170401
 30
0.0
 11
183.4919362993
 21
350.5736170401
 31
0.0
  0
LINE
  5
142
330
1F
100
AcDbEntity
  8
03_DXF_CONTINUOUS_LINE
  6
CONTINUOUS
 62
     6
100
AcDbLine
 10
218.2075540706
 20
350.8657250471
 30
0.0
 11
183.7917646379
 21
350.8657250471
 31
0.0
  0
LINE
  5
143
330
1F
100
AcDbEntity
  8
03_DXF_CONTINUOUS_LINE
  6
CONTINUOUS
 62
     7
100
AcDbLine
 10
207.1496233521
 20
341.3657250471
 30
0.0
 11
207.1496233521
 21
339.8657250471
 31
0.0
  0
LINE
  5
144
330
1F
100
AcDbEntity
  8
03_DXF_CONTINUOUS_LINE
  6
CONTINUOUS
 62
     6
100
AcDbLine
 10
217.7496233522
 20
351.3657250471
 30
0.0
 11
184.2496233522
 21
351.3657250471
 31
0.0
  0
LINE
  5
145
330
1F
100
AcDbEntity
  8
03_DXF_CONTINUOUS_LINE
  6
CONTINUOUS
 62
     6
100
AcDbLine
 10
216.7496233522
 20
351.8657250471
 30
0.0
 11
185.2496233522
 21
351.8657250471
 31
0.0
  0
LINE
  5
146
330
1F
100
AcDbEntity
  8
03_DXF_CONTINUOUS_LINE
  6
CONTINUOUS
 62
     6
100
AcDbLine
 10
183.7916977438
 20
350.8657250471
 30
0.0
 11
183.7006664814
 21
350.8515824418
 31
0.0
  0
LINE
  5
147
330
1F
100
AcDbEntity
  8
03_DXF_CONTINUOUS_LINE
  6
CONTINUOUS
 62
     6
100
AcDbLine
 10
215.7496181857
 20
353.3657250466
 30
0.0
 11
186.2496279345
 21
353.3657250466
 31
0.0
  0
LINE
  5
148
330
1F
100
AcDbEntity
  8
03_DXF_CONTINUOUS_LINE
  6
CONTINUOUS
 62
     6
100
AcDbLine
 10
215.7521700469
 20
353.3657140007
 30
0.0
 11
215.7577239767
 21
353.3656629624
 31
0.0
  0
LWPOLYLINE
  5
149
330
1F
100
AcDbEntity
  8
03_DXF_CONTINUOUS_LINE
  6
CONTINUOUS
 62
     6
100
AcDbPolyline
 90
        5
 70
     0
 43
0.0
 10
215.7521914894
 20
353.3656946006
 10
215.7693515879
 20
353.3653428281
 10
215.7803990303
 20
353.3649360123
 10
215.7818395476
 20
353.3648735424
 10
215.7724650149
 20
353.3657177749
  0
LWPOLYLINE
  5
14A
330
1F
100
AcDbEntity
  8
03_DXF_CONTINUOUS_LINE
  6
CONTINUOUS
 62
     6
100
AcDbPolyline
 90
        5
 70
     0
 43
0.0
 10
186.2222177646
 20
353.3656036503
 10
186.2110990649
 20
353.3643555772
 10
186.2130934739
 20
353.364470688
 10
186.2264714847
 20
353.3651044629
 10
186.2470778356
 20
353.3656795509
  0
LWPOLYLINE
  5
14B
330
1F
100
AcDbEntity
  8
03_DXF_CONTINUOUS_LINE
  6
CONTINUOUS
 62
     6
100
AcDbPolyline
 90
        5
 70
     0
 43
0.0
 10
186.2279181489
 20
353.3657592881
 10
186.218840401
 20
353.3649946894
 10
186.2201073822
 20
353.3650438031
 10
186.2306323421
 20
353.3653999058
 10
186.2470408344
 20
353.3656994151
  0
LINE
  5
14C
330
1F
100
AcDbEntity
  8
03_DXF_CONTINUOUS_LINE
  6
CONTINUOUS
 62
     7
100
AcDbLine
 10
210.9496233521
 20
341.3657250471
 30
0.0
 11
210.9496233521
 21
339.8657250471
 31
0.0
  0
LINE
  5
14D
330
1F
100
AcDbEntity
  8
03_DXF_CONTINUOUS_LINE
  6
CONTINUOUS
 62
     6
100
AcDbLine
 10
216.3670409541
 20
338.4060153564
 30
0.0
 11
216.7498935781
 21
338.5259358463
 31
0.0
  0
LWPOLYLINE
  5
14E
330
1F
100
AcDbEntity
  8
03_DXF_CONTINUOUS_LINE
  6
CONTINUOUS
 62
     6
100
AcDbPolyline
 90
        4
 70
     0
 43
0.0
 10
216.7498935781
 20
338.5259358463
 10
217.1490800349
 20
338.7553146859
 10
217.4845612462
 20
339.0707483136
 10
217.7380176628
 20
339.4549630245
  0
LINE
  5
14F
330
1F
100
AcDbEntity
  8
03_DXF_CONTINUOUS_LINE
  6
CONTINUOUS
 62
     6
100
AcDbLine
 10
215.9496233522
 20
341.3657250471
 30
0.0
 11
215.9496233522
 21
340.3457250662
 31
0.0
  0
LINE
  5
150
330
1F
100
AcDbEntity
  8
03_DXF_CONTINUOUS_LINE
  6
CONTINUOUS
 62
     7
100
AcDbLine
 10
215.9496233522
 20
340.3457250662
 30
0.0
 11
215.9496233522
 21
338.3657250471
 31
0.0
  0
LINE
  5
151
330
1F
100
AcDbEntity
  8
03_DXF_CONTINUOUS_LINE
  6
CONTINUOUS
 62
     6
100
AcDbLine
 10
216.2496233521
 20
351.8657250471
 30
0.0
 11
216.2496233521
 21
341.3657250471
 31
0.0
  0
LINE
  5
152
330
1F
100
AcDbEntity
  8
03_DXF_CONTINUOUS_LINE
  6
CONTINUOUS
 62
     6
100
AcDbLine
 10
215.9900711767
 20
343.8657250471
 30
0.0
 11
215.8400711707
 21
339.8657250471
 31
0.0
  0
LINE
  5
153
330
1F
100
AcDbEntity
  8
03_DXF_CONTINUOUS_LINE
  6
CONTINUOUS
 62
     6
100
AcDbLine
 10
216.8400712005
 20
343.8657250471
 30
0.0
 11
216.8995950421
 21
341.3657236985
 31
0.0
  0
LINE
  5
154
330
1F
100
AcDbEntity
  8
03_DXF_CONTINUOUS_LINE
  6
CONTINUOUS
 62
     6
100
AcDbLine
 10
216.7496233522
 20
351.8657250471
 30
0.0
 11
216.9996233522
 21
341.3657250471
 31
0.0
  0
LINE
  5
155
330
1F
100
AcDbEntity
  8
03_DXF_CONTINUOUS_LINE
  6
CONTINUOUS
 62
     6
100
AcDbLine
 10
217.7496233522
 20
351.3657250471
 30
0.0
 11
217.7496233522
 21
350.8657250471
 31
0.0
  0
LWPOLYLINE
  5
156
330
1F
100
AcDbEntity
  8
03_DXF_CONTINUOUS_LINE
  6
CONTINUOUS
 62
     6
100
AcDbPolyline
 90
        7
 70
     0
 43
0.0
 10
217.7496253336
 20
351.3658860508
 10
217.7188216379
 20
351.7465003652
 10
217.612179711
 20
352.1018912457
 10
217.4517913466
 20
352.4149655227
 10
217.2533669053
 20
352.6823076765
 10
217.0283294004
 20
352.9028080498
 10
216.7833722547
 20
353.0778826762
  0
LWPOLYLINE
  5
157
330
1F
100
AcDbEntity
  8
03_DXF_CONTINUOUS_LINE
  6
CONTINUOUS
 62
     6
100
AcDbPolyline
 90
        5
 70
     0
 43
0.0
 10
217.7496228456
 20
351.3657605574
 10
217.730992376
 20
351.6362658709
 10
217.6787420273
 20
351.8931897786
 10
217.5968135768
 20
352.1333357274
 10
217.4885566069
 20
352.354421122
  0
LINE
  5
158
330
1F
100
AcDbEntity
  8
03_DXF_CONTINUOUS_LINE
  6
CONTINUOUS
 62
     6
100
AcDbLine
 10
218.507310405
 20
350.5736170401
 30
0.0
 11
218.7496233522
 21
341.3657250471
 31
0.0
  0
LINE
  5
159
330
1F
100
AcDbEntity
  8
03_DXF_CONTINUOUS_LINE
  6
CONTINUOUS
 62
     7
100
AcDbLine
 10
217.9496233521
 20
341.3657250471
 30
0.0
 11
217.9496233521
 21
340.3457250662
 31
0.0
  0
LWPOLYLINE
  5
15A
330
1F
100
AcDbEntity
  8
03_DXF_CONTINUOUS_LINE
  6
CONTINUOUS
 62
     6
100
AcDbPolyline
 90
        3
 70
     0
 43
0.0
 10
217.7380202887
 20
339.4549682371
 10
217.8957767549
 20
339.8867484284
 10
217.9497104527
 20
340.3457250662
  0
LWPOLYLINE
  5
15B
330
1F
100
AcDbEntity
  8
03_DXF_CONTINUOUS_LINE
  6
CONTINUOUS
 62
     6
100
AcDbPolyline
 90
        4
 70
     0
 43
0.0
 10
217.4885566069
 20
352.354421122
 10
217.341723914
 20
352.574994569
 10
217.1748102437
 20
352.7660416607
 10
216.9958298226
 20
352.927216155
  0
LWPOLYLINE
  5
15C
330
1F
100
AcDbEntity
  8
03_DXF_CONTINUOUS_LINE
  6
CONTINUOUS
 62
     6
100
AcDbPolyline
 90
        5
 70
     0
 43
0.0
 10
218.4908581194
 20
350.6644518031
 10
218.4474108305
 20
350.7459310536
 10
218.3812869925
 20
350.8103047928
 10
218.298580217
 20
350.8515824437
 10
218.2075489605
 20
350.8657250471
  0
LINE
  5
15D
330
1F
100
AcDbEntity
  8
03_DXF_CONTINUOUS_LINE
  6
CONTINUOUS
 62
     6
100
AcDbLine
 10
218.5073764113
 20
350.5736205446
 30
0.0
 11
218.4907698901
 21
350.6644506589
 31
0.0
  0
LWPOLYLINE
  5
15E
330
1F
100
AcDbEntity
  8
03_DXF_CONTINUOUS_LINE
  6
CONTINUOUS
 62
     6
100
AcDbPolyline
 90
        6
 70
     0
 43
0.0
 10
304.6288042253
 20
227.5577886669
 10
304.71963071
 20
227.5743961176
 10
304.8011099598
 20
227.6178434057
 10
304.8654836994
 20
227.6839672432
 10
304.9067613511
 20
227.7666740191
 10
304.9209039548
 20
227.8577052768
  0
LWPOLYLINE
  5
15F
330
1F
100
AcDbEntity
  8
03_DXF_CONTINUOUS_LINE
  6
CONTINUOUS
 62
     6
100
AcDbPolyline
 90
        7
 70
     0
 43
0.0
 10
305.4209180999
 20
228.3156309536
 10
305.7386099989
 20
228.3409233613
 10
306.0379358837
 20
228.4131919582
 10
306.3126347672
 20
228.5252598634
 10
306.5586643754
 20
228.6707064038
 10
306.7726094178
 20
228.8423195609
 10
306.9517678696
 20
229.0293720594
  0
LWPOLYLINE
  5
160
330
1F
100
AcDbEntity
  8
03_DXF_CONTINUOUS_LINE
  6
CONTINUOUS
 62
     6
100
AcDbPolyline
 90
       10
 70
     0
 43
0.0
 10
305.4210450566
 20
228.3156283014
 10
305.7518075323
 20
228.3374357333
 10
306.0656268548
 20
228.4183892347
 10
306.3498935582
 20
228.543773235
 10
306.599937753
 20
228.7015424769
 10
306.8154166699
 20
228.8836564509
 10
306.9956359848
 20
229.0832752256
 10
307.1424550793
 20
229.2976063034
 10
307.2558639484
 20
229.5204001106
 10
307.3371958421
 20
229.7431880963
  0
LINE
  5
161
330
1F
100
AcDbEntity
  8
03_DXF_CONTINUOUS_LINE
  6
CONTINUOUS
 62
     6
100
AcDbLine
 10
304.6287959478
 20
227.5579438323
 30
0.0
 11
295.4209039548
 21
227.3156308851
 31
0.0
  0
LINE
  5
162
330
1F
100
AcDbEntity
  8
03_DXF_CONTINUOUS_LINE
  6
CONTINUOUS
 62
     6
100
AcDbLine
 10
295.4209039548
 20
228.0156308851
 30
0.0
 11
294.4009039739
 21
228.0156308851
 31
0.0
  0
LINE
  5
163
330
1F
100
AcDbEntity
  8
03_DXF_CONTINUOUS_LINE
  6
CONTINUOUS
 62
     6
100
AcDbLine
 10
305.4209039548
 20
228.3156308851
 30
0.0
 11
304.9209039548
 21
228.3156308851
 31
0.0
  0
LINE
  5
164
330
1F
100
AcDbEntity
  8
03_DXF_CONTINUOUS_LINE
  6
CONTINUOUS
 62
     6
100
AcDbLine
 10
305.9209039548
 20
229.3156308851
 30
0.0
 11
295.4209039548
 21
229.0656308851
 31
0.0
  0
LINE
  5
165
330
1F
100
AcDbEntity
  8
03_DXF_CONTINUOUS_LINE
  6
CONTINUOUS
 62
     6
100
AcDbLine
 10
297.9209039548
 20
229.2251830368
 30
0.0
 11
295.4209026062
 21
229.1656591952
 31
0.0
  0
LINE
  5
166
330
1F
100
AcDbEntity
  8
03_DXF_CONTINUOUS_LINE
  6
CONTINUOUS
 62
     6
100
AcDbLine
 10
305.9209039548
 20
229.8156308848
 30
0.0
 11
295.4209039548
 21
229.8156308848
 31
0.0
  0
LINE
  5
167
330
1F
100
AcDbEntity
  8
03_DXF_CONTINUOUS_LINE
  6
CONTINUOUS
 62
     7
100
AcDbLine
 10
295.4209039548
 20
230.0156308846
 30
0.0
 11
292.4209039548
 21
230.0156308855
 31
0.0
  0
LINE
  5
168
330
1F
100
AcDbEntity
  8
03_DXF_CONTINUOUS_LINE
  6
CONTINUOUS
 62
     6
100
AcDbLine
 10
297.9209039548
 20
230.0751830606
 30
0.0
 11
293.9209039548
 21
230.2251830666
 31
0.0
  0
LINE
  5
169
330
1F
100
AcDbEntity
  8
03_DXF_CONTINUOUS_LINE
  6
CONTINUOUS
 62
     6
100
AcDbLine
 10
292.8104962486
 20
284.0150911482
 30
0.0
 11
292.5811160473
 21
283.6159041275
 31
0.0
  0
LINE
  5
16A
330
1F
100
AcDbEntity
  8
03_DXF_CONTINUOUS_LINE
  6
CONTINUOUS
 62
     7
100
AcDbLine
 10
297.7218115326
 20
236.1656308851
 30
0.0
 11
296.7247569565
 21
236.1656308851
 31
0.0
  0
LWPOLYLINE
  5
16B
330
1F
100
AcDbEntity
  8
03_DXF_CONTINUOUS_LINE
  6
CONTINUOUS
 62
     6
100
AcDbPolyline
 90
        6
 70
     0
 43
0.0
 10
292.5811159063
 20
229.2153579717
 10
292.8104959875
 20
228.8161709741
 10
293.1259297401
 20
228.4806908711
 10
293.5101435849
 20
228.2272357419
 10
293.9419263962
 20
228.0694777064
 10
294.4009039739
 20
228.0155437846
  0
LWPOLYLINE
  5
16C
330
1F
100
AcDbEntity
  8
03_DXF_CONTINUOUS_LINE
  6
CONTINUOUS
 62
     6
100
AcDbPolyline
 90
        3
 70
     0
 43
0.0
 10
292.5811186395
 20
283.6159101738
 10
292.4611959029
 20
283.233056486
 10
292.4209039548
 20
282.8356317371
  0
LINE
  5
16D
330
1F
100
AcDbEntity
  8
03_DXF_CONTINUOUS_LINE
  6
CONTINUOUS
 62
     7
100
AcDbLine
 10
296.7247569565
 20
243.6656308851
 30
0.0
 11
297.7218115326
 21
243.6656308851
 31
0.0
  0
LWPOLYLINE
  5
16E
330
1F
100
AcDbEntity
  8
03_DXF_CONTINUOUS_LINE
  6
CONTINUOUS
 62
     6
100
AcDbPolyline
 90
        3
 70
     0
 43
0.0
 10
292.4209039548
 20
229.9956300332
 10
292.4611947129
 20
229.5982110924
 10
292.5811159063
 20
229.2153579717
  0
LINE
  5
16F
330
1F
100
AcDbEntity
  8
03_DXF_CONTINUOUS_LINE
  6
CONTINUOUS
 62
     7
100
AcDbLine
 10
292.4209039548
 20
282.8356316784
 30
0.0
 11
292.4209039548
 21
282.8156308852
 31
0.0
  0
LINE
  5
170
330
1F
100
AcDbEntity
  8
03_DXF_CONTINUOUS_LINE
  6
CONTINUOUS
 62
     7
100
AcDbLine
 10
292.4209039548
 20
230.0156308846
 30
0.0
 11
292.4209039548
 21
229.9956300918
 31
0.0
  0
LINE
  5
171
330
1F
100
AcDbEntity
  8
03_DXF_CONTINUOUS_LINE
  6
CONTINUOUS
 62
     6
100
AcDbLine
 10
292.4209039548
 20
282.815630885
 30
0.0
 11
292.4209039548
 21
230.0156308846
 31
0.0
  0
LINE
  5
172
330
1F
100
AcDbEntity
  8
03_DXF_CONTINUOUS_LINE
  6
CONTINUOUS
 62
     6
100
AcDbLine
 10
293.9209039548
 20
284.7521225582
 30
0.0
 11
293.9209039548
 21
283.6656308851
 31
0.0
  0
LINE
  5
173
330
1F
100
AcDbEntity
  8
03_DXF_CONTINUOUS_LINE
  6
CONTINUOUS
 62
     6
100
AcDbLine
 10
293.9209039548
 20
282.6060787037
 30
0.0
 11
293.9209039548
 21
230.2251830666
 31
0.0
  0
LINE
  5
174
330
1F
100
AcDbEntity
  8
03_DXF_CONTINUOUS_LINE
  6
CONTINUOUS
 62
     6
100
AcDbLine
 10
294.4009039739
 20
284.8156308851
 30
0.0
 11
294.4009039739
 21
282.8156308852
 31
0.0
  0
LINE
  5
175
330
1F
100
AcDbEntity
  8
03_DXF_CONTINUOUS_LINE
  6
CONTINUOUS
 62
     6
100
AcDbLine
 10
294.4009039739
 20
230.0156308846
 30
0.0
 11
294.4009039739
 21
228.0156308851
 31
0.0
  0
LINE
  5
176
330
1F
100
AcDbEntity
  8
03_DXF_CONTINUOUS_LINE
  6
CONTINUOUS
 62
     6
100
AcDbLine
 10
294.4209039548
 20
282.8156308852
 30
0.0
 11
294.4209039548
 21
230.0156316482
 31
0.0
  0
LINE
  5
177
330
1F
100
AcDbEntity
  8
03_DXF_CONTINUOUS_LINE
  6
CONTINUOUS
 62
     6
100
AcDbLine
 10
295.4209039548
 20
285.5156308851
 30
0.0
 11
295.4209039548
 21
227.3156308851
 31
0.0
  0
LINE
  5
178
330
1F
100
AcDbEntity
  8
03_DXF_CONTINUOUS_LINE
  6
CONTINUOUS
 62
     6
100
AcDbLine
 10
296.7247569565
 20
243.6656308851
 30
0.0
 11
296.7247569565
 21
236.1656308851
 31
0.0
  0
LINE
  5
179
330
1F
100
AcDbEntity
  8
03_DXF_CONTINUOUS_LINE
  6
CONTINUOUS
 62
     6
100
AcDbLine
 10
296.7247569565
 20
269.1656308851
 30
0.0
 11
296.7247569565
 21
276.6656308851
 31
0.0
  0
LINE
  5
17A
330
1F
100
AcDbEntity
  8
03_DXF_CONTINUOUS_LINE
  6
CONTINUOUS
 62
     6
100
AcDbLine
 10
296.819693258
 20
276.6656308851
 30
0.0
 11
296.819693258
 21
269.1656308851
 31
0.0
  0
LINE
  5
17B
330
1F
100
AcDbEntity
  8
03_DXF_CONTINUOUS_LINE
  6
CONTINUOUS
 62
     6
100
AcDbLine
 10
296.819693258
 20
243.6656308851
 30
0.0
 11
296.819693258
 21
236.1656308851
 31
0.0
  0
LINE
  5
17C
330
1F
100
AcDbEntity
  8
03_DXF_CONTINUOUS_LINE
  6
CONTINUOUS
 62
     6
100
AcDbLine
 10
297.6209039727
 20
276.6656308851
 30
0.0
 11
297.6209039727
 21
269.1656308851
 31
0.0
  0
LINE
  5
17D
330
1F
100
AcDbEntity
  8
03_DXF_CONTINUOUS_LINE
  6
CONTINUOUS
 62
     6
100
AcDbLine
 10
297.6209039727
 20
236.1656308851
 30
0.0
 11
297.6209039727
 21
243.6656308851
 31
0.0
  0
LINE
  5
17E
330
1F
100
AcDbEntity
  8
03_DXF_CONTINUOUS_LINE
  6
CONTINUOUS
 62
     6
100
AcDbLine
 10
297.6240530914
 20
276.6656308851
 30
0.0
 11
297.6240530914
 21
269.1656308851
 31
0.0
  0
LINE
  5
17F
330
1F
100
AcDbEntity
  8
03_DXF_CONTINUOUS_LINE
  6
CONTINUOUS
 62
     6
100
AcDbLine
 10
297.6240530914
 20
243.6656308851
 30
0.0
 11
297.6240530914
 21
236.1656308851
 31
0.0
  0
LINE
  5
180
330
1F
100
AcDbEntity
  8
03_DXF_CONTINUOUS_LINE
  6
CONTINUOUS
 62
     6
100
AcDbLine
 10
297.7218115326
 20
276.6656308851
 30
0.0
 11
297.7218115326
 21
269.1656308851
 31
0.0
  0
LINE
  5
181
330
1F
100
AcDbEntity
  8
03_DXF_CONTINUOUS_LINE
  6
CONTINUOUS
 62
     6
100
AcDbLine
 10
297.7218115326
 20
236.1656308851
 30
0.0
 11
297.7218115326
 21
243.6656308851
 31
0.0
  0
LINE
  5
182
330
1F
100
AcDbEntity
  8
03_DXF_CONTINUOUS_LINE
  6
CONTINUOUS
 62
     6
100
AcDbLine
 10
297.9209039548
 20
283.6060787336
 30
0.0
 11
297.9209039548
 21
229.2251830368
 31
0.0
  0
LINE
  5
183
330
1F
100
AcDbEntity
  8
03_DXF_CONTINUOUS_LINE
  6
CONTINUOUS
 62
     6
100
AcDbLine
 10
304.6287959478
 20
285.2733179379
 30
0.0
 11
304.6287959478
 21
227.5579438323
 31
0.0
  0
LINE
  5
184
330
1F
100
AcDbEntity
  8
03_DXF_CONTINUOUS_LINE
  6
CONTINUOUS
 62
     6
100
AcDbLine
 10
304.9209039548
 20
284.9735616035
 30
0.0
 11
304.9209039548
 21
227.8577721709
 31
0.0
  0
LINE
  5
185
330
1F
100
AcDbEntity
  8
03_DXF_CONTINUOUS_LINE
  6
CONTINUOUS
 62
     6
100
AcDbLine
 10
305.4209039548
 20
284.5156308851
 30
0.0
 11
305.4209039548
 21
228.3156308851
 31
0.0
  0
LINE
  5
186
330
1F
100
AcDbEntity
  8
03_DXF_CONTINUOUS_LINE
  6
CONTINUOUS
 62
     6
100
AcDbLine
 10
305.9209039548
 20
283.5156308851
 30
0.0
 11
305.9209039548
 21
229.3156308851
 31
0.0
  0
LINE
  5
187
330
1F
100
AcDbEntity
  8
03_DXF_CONTINUOUS_LINE
  6
CONTINUOUS
 62
     6
100
AcDbLine
 10
307.4209039548
 20
282.5156463939
 30
0.0
 11
307.4209039548
 21
230.3156308871
 31
0.0
  0
LINE
  5
188
330
1F
100
AcDbEntity
  8
03_DXF_CONTINUOUS_LINE
  6
CONTINUOUS
 62
     6
100
AcDbLine
 10
307.4208929081
 20
230.3131382671
 30
0.0
 11
307.4208418415
 21
230.307580218
 31
0.0
  0
LWPOLYLINE
  5
189
330
1F
100
AcDbEntity
  8
03_DXF_CONTINUOUS_LINE
  6
CONTINUOUS
 62
     6
100
AcDbPolyline
 90
        5
 70
     0
 43
0.0
 10
307.4208584586
 20
230.3130853694
 10
307.4202846026
 20
230.2925114083
 10
307.4196507638
 20
230.2791204988
 10
307.4195345384
 20
230.2771072127
 10
307.4207825123
 20
230.2882249505
  0
LWPOLYLINE
  5
18A
330
1F
100
AcDbEntity
  8
03_DXF_CONTINUOUS_LINE
  6
CONTINUOUS
 62
     6
100
AcDbPolyline
 90
        3
 70
     0
 43
0.0
 10
307.4208969973
 20
282.5385166775
 10
307.4200526923
 20
282.5478909485
 10
307.4201143174
 20
282.5464680796
  0
LINE
  5
18B
330
1F
100
AcDbEntity
  8
03_DXF_CONTINUOUS_LINE
  6
CONTINUOUS
 62
     6
100
AcDbLine
 10
307.4209383877
 20
282.5373814528
 30
0.0
 11
307.4201737456
 21
282.5464589579
 31
0.0
  0
LWPOLYLINE
  5
18C
330
1F
100
AcDbEntity
  8
03_DXF_CONTINUOUS_LINE
  6
CONTINUOUS
 62
     6
100
AcDbPolyline
 90
        3
 70
     0
 43
0.0
 10
307.4201737456
 20
282.5464589579
 10
307.4205210129
 20
282.5354353181
 10
307.4208735085
 20
282.5182534701
  0
LINE
  5
18D
330
1F
100
AcDbEntity
  8
03_DXF_CONTINUOUS_LINE
  6
CONTINUOUS
 62
     6
100
AcDbLine
 10
307.4202235059
 20
282.5451775534
 30
0.0
 11
307.4205795188
 21
282.5346465204
 31
0.0
  0
LWPOLYLINE
  5
18E
330
1F
100
AcDbEntity
  8
03_DXF_CONTINUOUS_LINE
  6
CONTINUOUS
 62
     6
100
AcDbPolyline
 90
        5
 70
     0
 43
0.0
 10
304.9209039548
 20
284.9735564935
 10
304.9067613499
 20
285.0645877548
 10
304.8654836959
 20
285.147294532
 10
304.8011099555
 20
285.2134183679
 10
304.7196307072
 20
285.2568656536
  0
LINE
  5
18F
330
1F
100
AcDbEntity
  8
03_DXF_CONTINUOUS_LINE
  6
CONTINUOUS
 62
     7
100
AcDbLine
 10
296.7247569565
 20
269.1656308851
 30
0.0
 11
297.7218115374
 21
269.1656308851
 31
0.0
  0
LINE
  5
190
330
1F
100
AcDbEntity
  8
03_DXF_CONTINUOUS_LINE
  6
CONTINUOUS
 62
     7
100
AcDbLine
 10
297.7218115326
 20
276.6656308851
 30
0.0
 11
296.7247569565
 21
276.6656308851
 31
0.0
  0
LWPOLYLINE
  5
191
330
1F
100
AcDbEntity
  8
03_DXF_CONTINUOUS_LINE
  6
CONTINUOUS
 62
     6
100
AcDbPolyline
 90
        5
 70
     0
 43
0.0
 10
307.1161635608
 20
283.5748324544
 10
306.9837379338
 20
283.7601547568
 10
306.8225430996
 20
283.9395048025
 10
306.6314970519
 20
284.1067121654
 10
306.4108598908
 20
284.2538450169
  0
LWPOLYLINE
  5
192
330
1F
100
AcDbEntity
  8
03_DXF_CONTINUOUS_LINE
  6
CONTINUOUS
 62
     6
100
AcDbPolyline
 90
        5
 70
     0
 43
0.0
 10
307.1542693419
 20
283.5108272797
 10
307.0197566091
 20
283.7126669128
 10
306.8519892873
 20
283.909088413
 10
306.6494283062
 20
284.0925483014
 10
306.4121161944
 20
284.2532180421
  0
LWPOLYLINE
  5
193
330
1F
100
AcDbEntity
  8
03_DXF_CONTINUOUS_LINE
  6
CONTINUOUS
 62
     6
100
AcDbPolyline
 90
        5
 70
     0
 43
0.0
 10
294.4009039739
 20
284.8157179857
 10
293.9419273124
 20
284.7617842822
 10
293.5101470549
 20
284.6040277764
 10
293.12593503
 20
284.3505753515
 10
292.8105009513
 20
284.01509749
  0
LINE
  5
194
330
1F
100
AcDbEntity
  8
03_DXF_CONTINUOUS_LINE
  6
CONTINUOUS
 62
     6
100
AcDbLine
 10
297.9209039548
 20
282.7560787096
 30
0.0
 11
293.9209039548
 21
282.6060787037
 31
0.0
  0
LINE
  5
195
330
1F
100
AcDbEntity
  8
03_DXF_CONTINUOUS_LINE
  6
CONTINUOUS
 62
     7
100
AcDbLine
 10
295.4209039548
 20
282.8156308852
 30
0.0
 11
292.4209039548
 21
282.8156308852
 31
0.0
  0
LINE
  5
196
330
1F
100
AcDbEntity
  8
03_DXF_CONTINUOUS_LINE
  6
CONTINUOUS
 62
     6
100
AcDbLine
 10
305.9209039548
 20
283.0156308852
 30
0.0
 11
305.5386756557
 21
283.0156308852
 31
0.0
  0
LINE
  5
197
330
1F
100
AcDbEntity
  8
03_DXF_CONTINUOUS_LINE
  6
CONTINUOUS
 62
     6
100
AcDbLine
 10
305.4209039548
 20
283.0156308852
 30
0.0
 11
295.4209039548
 21
283.0156308852
 31
0.0
  0
LINE
  5
198
330
1F
100
AcDbEntity
  8
03_DXF_CONTINUOUS_LINE
  6
CONTINUOUS
 62
     7
100
AcDbLine
 10
305.4209039548
 20
283.0156308852
 30
0.0
 11
305.5386756557
 21
283.0156308852
 31
0.0
  0
LINE
  5
199
330
1F
100
AcDbEntity
  8
03_DXF_CONTINUOUS_LINE
  6
CONTINUOUS
 62
     6
100
AcDbLine
 10
295.4209039548
 20
283.6656308851
 30
0.0
 11
293.9209039548
 21
283.6656308851
 31
0.0
  0
LINE
  5
19A
330
1F
100
AcDbEntity
  8
03_DXF_CONTINUOUS_LINE
  6
CONTINUOUS
 62
     6
100
AcDbLine
 10
305.4209039548
 20
284.5156308851
 30
0.0
 11
304.9209039548
 21
284.5156308851
 31
0.0
  0
LINE
  5
19B
330
1F
100
AcDbEntity
  8
03_DXF_CONTINUOUS_LINE
  6
CONTINUOUS
 62
     7
100
AcDbLine
 10
295.4209039548
 20
284.8156308851
 30
0.0
 11
294.4009039739
 21
284.8156308851
 31
0.0
  0
LINE
  5
19C
330
1F
100
AcDbEntity
  8
03_DXF_CONTINUOUS_LINE
  6
CONTINUOUS
 62
     6
100
AcDbLine
 10
297.9209039548
 20
283.6060787335
 30
0.0
 11
295.4209026062
 21
283.6656025751
 31
0.0
  0
LINE
  5
19D
330
1F
100
AcDbEntity
  8
03_DXF_CONTINUOUS_LINE
  6
CONTINUOUS
 62
     6
100
AcDbLine
 10
305.9209039548
 20
283.5156308851
 30
0.0
 11
295.4209039548
 21
283.7656308851
 31
0.0
  0
LINE
  5
19E
330
1F
100
AcDbEntity
  8
03_DXF_CONTINUOUS_LINE
  6
CONTINUOUS
 62
     6
100
AcDbLine
 10
304.6287959478
 20
285.2733179379
 30
0.0
 11
295.4209039548
 21
285.5156308851
 31
0.0
  0
LINE
  5
19F
330
1F
100
AcDbEntity
  8
03_DXF_CONTINUOUS_LINE
  6
CONTINUOUS
 62
     6
100
AcDbLine
 10
304.7196295658
 20
285.2567774234
 30
0.0
 11
304.6287994523
 21
285.2733839442
 31
0.0
  0
LWPOLYLINE
  5
1A0
330
1F
100
AcDbEntity
  8
03_DXF_CONTINUOUS_LINE
  6
CONTINUOUS
 62
     6
100
AcDbPolyline
 90
        4
 70
     0
 43
0.0
 10
306.4121161944
 20
284.2532180421
 10
306.1125890124
 20
284.3925692021
 10
305.7802827278
 20
284.4828306832
 10
305.4209422441
 20
284.515630225
  0
LWPOLYLINE
  5
1A1
330
1F
100
AcDbEntity
  8
03_DXF_CONTINUOUS_LINE
  6
CONTINUOUS
 62
     6
100
AcDbPolyline
 90
        5
 70
     0
 43
0.0
 10
306.4108598908
 20
284.2538450169
 10
306.1896100214
 20
284.3623677752
 10
305.9492022439
 20
284.4445226033
 10
305.6919271176
 20
284.496933159
 10
305.4209399074
 20
284.5156303631
  0
ARC
  5
1A2
330
1F
100
AcDbEntity
  8
03_DXF_CONTINUOUS_LINE
  6
CONTINUOUS
 62
     6
100
AcDbCircle
 10
185.7496233524
 20
229.8156308854
 30
0.0
 40
0.7500000003
100
AcDbArc
 50
180.0
 51
270.0
  0
ARC
  5
1A3
330
1F
100
AcDbEntity
  8
03_DXF_CONTINUOUS_LINE
  6
CONTINUOUS
 62
     6
100
AcDbCircle
 10
216.2496233521
 20
283.0156308851
 30
0.0
 40
0.75
100
AcDbArc
 50
0.0
 51
89.99999999990013
  0
ARC
  5
1A4
330
1F
100
AcDbEntity
  8
03_DXF_CONTINUOUS_LINE
  6
CONTINUOUS
 62
     6
100
AcDbCircle
 10
185.7496233521
 20
283.0156308852
 30
0.0
 40
0.75
100
AcDbArc
 50
90.0
 51
180.0
  0
ARC
  5
1A5
330
1F
100
AcDbEntity
  8
03_DXF_CONTINUOUS_LINE
  6
CONTINUOUS
 62
     6
100
AcDbCircle
 10
216.2496233525
 20
229.8156308848
 30
0.0
 40
0.7499999996
100
AcDbArc
 50
270.0
 51
359.9999999999001
  0
ARC
  5
1A6
330
1F
100
AcDbEntity
  8
03_DXF_CONTINUOUS_LINE
  6
CONTINUOUS
 62
     6
100
AcDbCircle
 10
185.7496233524
 20
229.8156308854
 30
0.0
 40
0.5000000003
100
AcDbArc
 50
180.0
 51
270.000000000101
  0
ARC
  5
1A7
330
1F
100
AcDbEntity
  8
03_DXF_CONTINUOUS_LINE
  6
CONTINUOUS
 62
     6
100
AcDbCircle
 10
216.2496233521
 20
283.0156308851
 30
0.0
 40
0.5
100
AcDbArc
 50
0.0
 51
90.0
  0
ARC
  5
1A8
330
1F
100
AcDbEntity
  8
03_DXF_CONTINUOUS_LINE
  6
CONTINUOUS
 62
     6
100
AcDbCircle
 10
185.7496233521
 20
283.0156308852
 30
0.0
 40
0.5
100
AcDbArc
 50
90.0
 51
180.0
  0
ARC
  5
1A9
330
1F
100
AcDbEntity
  8
03_DXF_CONTINUOUS_LINE
  6
CONTINUOUS
 62
     6
100
AcDbCircle
 10
216.2496233525
 20
229.8156308848
 30
0.0
 40
0.4999999996
100
AcDbArc
 50
270.0
 51
0.0
  0
ARC
  5
1AA
330
1F
100
AcDbEntity
  8
03_DXF_CONTINUOUS_LINE
  6
CONTINUOUS
 62
     7
100
AcDbCircle
 10
186.0496233521
 20
340.3657250471
 30
0.0
 40
2.0
100
AcDbArc
 50
180.0
 51
270.0
  0
ARC
  5
1AB
330
1F
100
AcDbEntity
  8
03_DXF_CONTINUOUS_LINE
  6
CONTINUOUS
 62
     6
100
AcDbCircle
 10
185.1018021024
 20
343.166694267
 30
0.0
 40
0.4021799167
100
AcDbArc
 50
82.82526701459979
 51
274.4468779227006
  0
ARC
  5
1AC
330
1F
100
AcDbEntity
  8
03_DXF_CONTINUOUS_LINE
  6
CONTINUOUS
 62
     6
100
AcDbCircle
 10
216.8974446019
 20
343.166694267
 30
0.0
 40
0.4021799167
100
AcDbArc
 50
265.5531220773028
 51
97.17473298539518
  0
ARC
  5
1AD
330
1F
100
AcDbEntity
  8
03_DXF_CONTINUOUS_LINE
  6
CONTINUOUS
 62
     6
100
AcDbCircle
 10
183.7918324871
 20
350.5657250352
 30
0.0
 40
0.3000000119
100
AcDbArc
 50
90.0
 51
178.4925642412953
  0
ARC
  5
1AE
330
1F
100
AcDbEntity
  8
03_DXF_CONTINUOUS_LINE
  6
CONTINUOUS
 62
     6
100
AcDbCircle
 10
218.2074142173
 20
350.5657250352
 30
0.0
 40
0.3000000119
100
AcDbArc
 50
1.507435758693859
 51
90.0
  0
ARC
  5
1AF
330
1F
100
AcDbEntity
  8
03_DXF_CONTINUOUS_LINE
  6
CONTINUOUS
 62
     7
100
AcDbCircle
 10
294.4209039548
 20
230.0156308851
 30
0.0
 40
2.0
100
AcDbArc
 50
180.0
 51
269.4270618487008
  0
ARC
  5
1B0
330
1F
100
AcDbEntity
  8
03_DXF_CONTINUOUS_LINE
  6
CONTINUOUS
 62
     6
100
AcDbCircle
 10
305.4209039548
 20
282.5156308851
 30
0.0
 40
2.0
100
AcDbArc
 50
0.0
 51
89.99876330950026
  0
ARC
  5
1B1
330
1F
100
AcDbEntity
  8
03_DXF_CONTINUOUS_LINE
  6
CONTINUOUS
 62
     6
100
AcDbCircle
 10
304.6209039429
 20
284.9734217502
 30
0.0
 40
0.3000000119
100
AcDbArc
 50
0.0
 51
88.49256424119763
  0
ARC
  5
1B2
330
1F
100
AcDbEntity
  8
03_DXF_CONTINUOUS_LINE
  6
CONTINUOUS
 62
     6
100
AcDbCircle
 10
304.6209039429
 20
227.85784002
 30
0.0
 40
0.3000000119
100
AcDbArc
 50
271.5074357586832
 51
0.0000000000054281
  0
SPLINE
  5
1B3
330
1F
100
AcDbEntity
  8
03_DXF_CONTINUOUS_LINE
  6
CONTINUOUS
 62
     6
100
AcDbSpline
210
0.0
220
0.0
230
1.0
 70
    12
 71
     3
 72
     8
 73
     4
 74
     0
 42
0.000000001
 43
0.1
 40
0.0
 40
0.0
 40
0.0
 40
0.0
 40
3.818720293106395
 40
3.818720293106395
 40
3.818720293106395
 40
3.818720293106395
 10
185.7496233524
 20
227.3156308851
 30
0.0
 41
1.0
 10
184.5711120503046
 20
227.3156308851
 30
0.0
 41
1.0
 10
183.2496233522
 20
228.6371195833046
 30
0.0
 41
1.0
 10
183.2496233522
 20
229.8156308854
 30
0.0
 41
1.0
  0
SPLINE
  5
1B4
330
1F
100
AcDbEntity
  8
03_DXF_CONTINUOUS_LINE
  6
CONTINUOUS
 62
     6
100
AcDbSpline
210
0.0
220
0.0
230
1.0
 70
    12
 71
     3
 72
     8
 73
     4
 74
     0
 42
0.000000001
 43
0.1
 40
0.0
 40
0.0
 40
0.0
 40
0.0
 40
3.818720292571799
 40
3.818720292571799
 40
3.818720292571799
 40
3.818720292571799
 10
183.2496233522
 20
283.0156308852
 30
0.0
 41
1.0
 10
183.2496233522
 20
284.1941421871304
 30
0.0
 41
1.0
 10
184.5711120501695
 20
285.5156308851
 30
0.0
 41
1.0
 10
185.7496233521
 20
285.5156308851
 30
0.0
 41
1.0
  0
SPLINE
  5
1B5
330
1F
100
AcDbEntity
  8
03_DXF_CONTINUOUS_LINE
  6
CONTINUOUS
 62
     6
100
AcDbSpline
210
0.0
220
0.0
230
1.0
 70
    12
 71
     3
 72
     8
 73
     4
 74
     0
 42
0.000000001
 43
0.1
 40
0.0
 40
0.0
 40
0.0
 40
0.0
 40
3.818720292800897
 40
3.818720292800897
 40
3.818720292800897
 40
3.818720292800897
 10
216.2496233521
 20
285.5156308851
 30
0.0
 41
1.0
 10
217.4281346541011
 20
285.5156308851
 30
0.0
 41
1.0
 10
218.7496233522
 20
284.1941421871011
 30
0.0
 41
1.0
 10
218.7496233522
 20
283.0156308851
 30
0.0
 41
1.0
  0
SPLINE
  5
1B6
330
1F
100
AcDbEntity
  8
03_DXF_CONTINUOUS_LINE
  6
CONTINUOUS
 62
     6
100
AcDbSpline
210
0.0
220
0.0
230
1.0
 70
    12
 71
     3
 72
     8
 73
     4
 74
     0
 42
0.000000001
 43
0.1
 40
0.0
 40
0.0
 40
0.0
 40
0.0
 40
3.818720292266263
 40
3.818720292266263
 40
3.818720292266263
 40
3.818720292266263
 10
218.7496233522
 20
229.8156308848
 30
0.0
 41
1.0
 10
218.7496233522
 20
228.6371195829638
 30
0.0
 41
1.0
 10
217.4281346543362
 20
227.3156308851
 30
0.0
 41
1.0
 10
216.2496233525
 20
227.3156308851
 30
0.0
 41
1.0
  0
SPLINE
  5
1B7
330
1F
100
AcDbEntity
  8
03_DXF_CONTINUOUS_LINE
  6
CONTINUOUS
 62
     6
100
AcDbSpline
210
0.0
220
0.0
230
1.0
 70
    12
 71
     3
 72
     8
 73
     4
 74
     0
 42
0.000000001
 43
0.1
 40
0.0
 40
0.0
 40
0.0
 40
0.0
 40
3.448590144801265
 40
3.448590144801265
 40
3.448590144801265
 40
3.448590144801265
 10
218.507310405
 20
229.8156308848
 30
0.0
 41
1.0
 10
218.507310405
 20
228.7513470017201
 30
0.0
 41
1.0
 10
217.3139072355799
 20
227.5579438323
 30
0.0
 41
1.0
 10
216.2496233525
 20
227.5579438323
 30
0.0
 41
1.0
  0
SPLINE
  5
1B8
330
1F
100
AcDbEntity
  8
03_DXF_CONTINUOUS_LINE
  6
CONTINUOUS
 62
     6
100
AcDbSpline
210
0.0
220
0.0
230
1.0
 70
    12
 71
     3
 72
     8
 73
     4
 74
     0
 42
0.000000001
 43
0.1
 40
0.0
 40
0.0
 40
0.0
 40
0.0
 40
3.448590145335916
 40
3.448590145335916
 40
3.448590145335916
 40
3.448590145335916
 10
216.2496233521
 20
285.2733179379
 30
0.0
 41
1.0
 10
217.3139072353449
 20
285.2733179379
 30
0.0
 41
1.0
 10
218.507310405
 20
284.0799147683448
 30
0.0
 41
1.0
 10
218.507310405
 20
283.0156308851
 30
0.0
 41
1.0
  0
SPLINE
  5
1B9
330
1F
100
AcDbEntity
  8
03_DXF_CONTINUOUS_LINE
  6
CONTINUOUS
 62
     6
100
AcDbSpline
210
0.0
220
0.0
230
1.0
 70
    12
 71
     3
 72
     8
 73
     4
 74
     0
 42
0.000000001
 43
0.1
 40
0.0
 40
0.0
 40
0.0
 40
0.0
 40
3.448590145183171
 40
3.448590145183171
 40
3.448590145183171
 40
3.448590145183171
 10
183.4919362993
 20
283.0156308852
 30
0.0
 41
1.0
 10
183.4919362993
 20
284.0799147683977
 30
0.0
 41
1.0
 10
184.6853394689023
 20
285.2733179379
 30
0.0
 41
1.0
 10
185.7496233521
 20
285.2733179379
 30
0.0
 41
1.0
  0
SPLINE
  5
1BA
330
1F
100
AcDbEntity
  8
03_DXF_CONTINUOUS_LINE
  6
CONTINUOUS
 62
     6
100
AcDbSpline
210
0.0
220
0.0
230
1.0
 70
    12
 71
     3
 72
     8
 73
     4
 74
     0
 42
0.000000001
 43
0.1
 40
0.0
 40
0.0
 40
0.0
 40
0.0
 40
3.448590145717769
 40
3.448590145717769
 40
3.448590145717769
 40
3.448590145717769
 10
185.7496233524
 20
227.5579438323
 30
0.0
 41
1.0
 10
184.6853394690373
 20
227.5579438323
 30
0.0
 41
1.0
 10
183.4919362993
 20
228.7513470020373
 30
0.0
 41
1.0
 10
183.4919362993
 20
229.8156308854
 30
0.0
 41
1.0
  0
SPLINE
  5
1BB
330
1F
100
AcDbEntity
  8
03_DXF_CONTINUOUS_LINE
  6
CONTINUOUS
 62
     6
100
AcDbSpline
210
0.0
220
0.0
230
1.0
 70
    12
 71
     3
 72
    13
 73
     9
 74
     0
 42
0.000000001
 43
0.1
 40
0.0
 40
0.0
 40
0.0
 40
0.0
 40
0.5014516356026081
 40
1.019206717164597
 40
1.5418891410635
 40
2.069314317256894
 40
2.58322083688147
 40
3.067419096852263
 40
3.067419096852263
 40
3.067419096852263
 40
3.067419096852263
 10
216.2496233521
 20
284.9734217502
 30
0.0
 41
1.0
 10
216.4167612157053
 20
284.975480708772
 30
0.0
 41
1.0
 10
216.75842853883
 20
284.9305815232514
 30
0.0
 41
1.0
 10
217.2386838545915
 20
284.7321902654199
 30
0.0
 41
1.0
 10
217.6570030106382
 20
284.4083740682679
 30
0.0
 41
1.0
 10
217.974945596965
 20
283.9878953200406
 30
0.0
 41
1.0
 10
218.1710541867545
 20
283.5120683074066
 30
0.0
 41
1.0
 10
218.2086982163671
 20
283.1770251976379
 30
0.0
 41
1.0
 10
218.2074142173
 20
283.0156308851
 30
0.0
 41
1.0
  0
SPLINE
  5
1BC
330
1F
100
AcDbEntity
  8
03_DXF_CONTINUOUS_LINE
  6
CONTINUOUS
 62
     6
100
AcDbSpline
210
0.0
220
0.0
230
1.0
 70
    12
 71
     3
 72
    13
 73
     9
 74
     0
 42
0.000000001
 43
0.1
 40
0.0
 40
0.0
 40
0.0
 40
0.0
 40
0.5014516355034003
 40
1.019206717065414
 40
1.541889140824002
 40
2.069314317077778
 40
2.583220836702368
 40
3.067419096661431
 40
3.067419096661431
 40
3.067419096661431
 40
3.067419096661431
 10
183.7918324871
 20
283.0156308852
 30
0.0
 41
1.0
 10
183.7897735285283
 20
283.1827687487722
 30
0.0
 41
1.0
 10
183.8346727140662
 20
283.5244360718598
 30
0.0
 41
1.0
 10
184.033063971858
 20
284.0046913875515
 30
0.0
 41
1.0
 10
184.3568801689926
 20
284.4230105435689
 30
0.0
 41
1.0
 10
184.7773589171277
 20
284.740953129963
 30
0.0
 41
1.0
 10
185.2531859297878
 20
284.9370617197968
 30
0.0
 41
1.0
 10
185.588229039566
 20
284.9747057492671
 30
0.0
 41
1.0
 10
185.7496233521
 20
284.9734217502
 30
0.0
 41
1.0
  0
SPLINE
  5
1BD
330
1F
100
AcDbEntity
  8
03_DXF_CONTINUOUS_LINE
  6
CONTINUOUS
 62
     6
100
AcDbSpline
210
0.0
220
0.0
230
1.0
 70
    12
 71
     3
 72
    13
 73
     9
 74
     0
 42
0.000000001
 43
0.1
 40
0.0
 40
0.0
 40
0.0
 40
0.0
 40
0.501451635602598
 40
1.01920671720277
 40
1.541889141180777
 40
2.069314317453833
 40
2.583220837116007
 40
3.067419097174407
 40
3.067419097174407
 40
3.067419097174407
 40
3.067419097174407
 10
185.7496233524
 20
227.85784002
 30
0.0
 41
1.0
 10
185.5824854887947
 20
227.8557810614282
 30
0.0
 41
1.0
 10
185.240818165638
 20
227.9006802469123
 30
0.0
 41
1.0
 10
184.7605628499305
 20
228.0990715049396
 30
0.0
 41
1.0
 10
184.3422436937114
 20
228.4228877019858
 30
0.0
 41
1.0
 10
184.02430110751
 20
228.8433664503812
 30
0.0
 41
1.0
 10
183.8281925174463
 20
229.3191934629841
 30
0.0
 41
1.0
 10
183.7905484880328
 20
229.6542365728329
 30
0.0
 41
1.0
 10
183.7918324871
 20
229.8156308854
 30
0.0
 41
1.0
  0
SPLINE
  5
1BE
330
1F
100
AcDbEntity
  8
03_DXF_CONTINUOUS_LINE
  6
CONTINUOUS
 62
     6
100
AcDbSpline
210
0.0
220
0.0
230
1.0
 70
    12
 71
     3
 72
    13
 73
     9
 74
     0
 42
0.000000001
 43
0.1
 40
0.0
 40
0.0
 40
0.0
 40
0.0
 40
0.5014516355033755
 40
1.019206716972952
 40
1.541889140731566
 40
2.06931431684521
 40
2.583220836377143
 40
3.067419096336216
 40
3.067419096336216
 40
3.067419096336216
 40
3.067419096336216
 10
218.2074142173
 20
229.8156308848
 30
0.0
 41
1.0
 10
218.209473175872
 20
229.6484930212278
 30
0.0
 41
1.0
 10
218.1645739903543
 20
229.3068256981641
 30
0.0
 41
1.0
 10
217.9661827325097
 20
228.8265703825312
 30
0.0
 41
1.0
 10
217.6423665354475
 20
228.4082512265559
 30
0.0
 41
1.0
 10
217.2218877873461
 20
228.0903086402515
 30
0.0
 41
1.0
 10
216.746060774788
 20
227.8942000503838
 30
0.0
 41
1.0
 10
216.411017665034
 20
227.8565560209326
 30
0.0
 41
1.0
 10
216.2496233525
 20
227.85784002
 30
0.0
 41
1.0
  0
SPLINE
  5
1BF
330
1F
100
AcDbEntity
  8
03_DXF_CONTINUOUS_LINE
  6
CONTINUOUS
 62
     6
100
AcDbSpline
210
0.0
220
0.0
230
1.0
 70
    12
 71
     3
 72
     8
 73
     4
 74
     0
 42
0.000000001
 43
0.1
 40
0.0
 40
0.0
 40
0.0
 40
0.0
 40
2.291232175711057
 40
2.291232175711057
 40
2.291232175711057
 40
2.291232175711057
 10
216.2496233521
 20
284.5156308851
 30
0.0
 41
1.0
 10
216.9567301333101
 20
284.5156308851
 30
0.0
 41
1.0
 10
217.7496233522
 20
283.7227376663101
 30
0.0
 41
1.0
 10
217.7496233522
 20
283.0156308851
 30
0.0
 41
1.0
  0
SPLINE
  5
1C0
330
1F
100
AcDbEntity
  8
03_DXF_CONTINUOUS_LINE
  6
CONTINUOUS
 62
     6
100
AcDbSpline
210
0.0
220
0.0
230
1.0
 70
    12
 71
     3
 72
     8
 73
     4
 74
     0
 42
0.000000001
 43
0.1
 40
0.0
 40
0.0
 40
0.0
 40
0.0
 40
2.291232175482004
 40
2.291232175482004
 40
2.291232175482004
 40
2.291232175482004
 10
184.2496233522
 20
283.0156308852
 30
0.0
 41
1.0
 10
184.2496233522
 20
283.7227376663394
 30
0.0
 41
1.0
 10
185.0425165709606
 20
284.5156308851
 30
0.0
 41
1.0
 10
185.7496233521
 20
284.5156308851
 30
0.0
 41
1.0
  0
SPLINE
  5
1C1
330
1F
100
AcDbEntity
  8
03_DXF_CONTINUOUS_LINE
  6
CONTINUOUS
 62
     6
100
AcDbSpline
210
0.0
220
0.0
230
1.0
 70
    12
 71
     3
 72
     8
 73
     4
 74
     0
 42
0.000000001
 43
0.1
 40
0.0
 40
0.0
 40
0.0
 40
0.0
 40
2.291232176016595
 40
2.291232176016595
 40
2.291232176016595
 40
2.291232176016595
 10
185.7496233524
 20
228.3156308851
 30
0.0
 41
1.0
 10
185.0425165710956
 20
228.3156308851
 30
0.0
 41
1.0
 10
184.2496233522
 20
229.1085241040956
 30
0.0
 41
1.0
 10
184.2496233522
 20
229.8156308854
 30
0.0
 41
1.0
  0
SPLINE
  5
1C2
330
1F
100
AcDbEntity
  8
03_DXF_CONTINUOUS_LINE
  6
CONTINUOUS
 62
     6
100
AcDbSpline
210
0.0
220
0.0
230
1.0
 70
    12
 71
     3
 72
     8
 73
     4
 74
     0
 42
0.000000001
 43
0.1
 40
0.0
 40
0.0
 40
0.0
 40
0.0
 40
2.291232175176444
 40
2.291232175176444
 40
2.291232175176444
 40
2.291232175176444
 10
217.7496233522
 20
229.8156308848
 30
0.0
 41
1.0
 10
217.7496233522
 20
229.1085241037549
 30
0.0
 41
1.0
 10
216.9567301335451
 20
228.3156308851
 30
0.0
 41
1.0
 10
216.2496233525
 20
228.3156308851
 30
0.0
 41
1.0
  0
SPLINE
  5
1C3
330
1F
100
AcDbEntity
  8
03_DXF_CONTINUOUS_LINE
  6
CONTINUOUS
 62
     7
100
AcDbSpline
210
0.0
220
0.0
230
1.0
 70
    12
 71
     3
 72
    14
 73
    10
 74
     0
 42
0.000000001
 43
0.1
 40
0.0
 40
0.0
 40
0.0
 40
0.0
 40
0.3896474656300102
 40
0.8177922850304314
 40
1.236938674240247
 40
1.596813497808799
 40
1.859110090558171
 40
2.013311539033689
 40
2.062262867032406
 40
2.062262867032406
 40
2.062262867032406
 40
2.062262867032406
 10
215.7496240585
 20
282.5156470196
 30
0.0
 41
1.0
 10
215.8752384445542
 20
282.5486695398919
 30
0.0
 41
1.0
 10
216.1393307037617
 20
282.6162305799962
 30
0.0
 41
1.0
 10
216.5382053214988
 20
282.7206948661192
 30
0.0
 41
1.0
 10
216.9277658495428
 20
282.8212960025132
 30
0.0
 41
1.0
 10
217.2637620438391
 20
282.908976966684
 30
0.0
 41
1.0
 10
217.5154533121358
 20
282.9679982757288
 30
0.0
 41
1.0
 10
217.6657352896639
 20
283.0086853689579
 30
0.0
 41
1.0
 10
217.7333181636523
 20
283.0150104895347
 30
0.0
 41
1.0
 10
217.7496233529
 20
283.0156340764
 30
0.0
 41
1.0
  0
SPLINE
  5
1C4
330
1F
100
AcDbEntity
  8
03_DXF_CONTINUOUS_LINE
  6
CONTINUOUS
 62
     7
100
AcDbSpline
210
0.0
220
0.0
230
1.0
 70
    12
 71
     3
 72
    14
 73
    10
 74
     0
 42
0.000000001
 43
0.1
 40
0.0
 40
0.0
 40
0.0
 40
0.0
 40
0.0488338806879202
 40
0.2038659936151791
 40
0.4681187614641837
 40
0.8295658722077959
 40
1.24777533225957
 40
1.673540683653855
 40
2.062361643173021
 40
2.062361643173021
 40
2.062361643173021
 40
2.062361643173021
 10
217.7496233529
 20
229.8156328055
 30
0.0
 41
1.0
 10
217.7333495904849
 20
229.8160024622126
 30
0.0
 41
1.0
 10
217.6654352781636
 20
229.8215907592752
 30
0.0
 41
1.0
 10
217.5143485304011
 20
229.863111784444
 30
0.0
 41
1.0
 10
217.2612987705289
 20
229.922474729477
 30
0.0
 41
1.0
 10
216.9245985005109
 20
230.0109772412393
 30
0.0
 41
1.0
 10
216.5356913373049
 20
230.1117494544987
 30
0.0
 41
1.0
 10
216.138162172565
 20
230.2159117907657
 30
0.0
 41
1.0
 10
215.8750344535813
 20
230.282927616167
 30
0.0
 41
1.0
 10
215.7496240585
 20
230.315641585
 30
0.0
 41
1.0
  0
SPLINE
  5
1C5
330
1F
100
AcDbEntity
  8
03_DXF_CONTINUOUS_LINE
  6
CONTINUOUS
 62
     6
100
AcDbSpline
210
0.0
220
0.0
230
1.0
 70
    12
 71
     3
 72
    13
 73
     9
 74
     0
 42
0.000000001
 43
0.1
 40
0.0
 40
0.0
 40
0.0
 40
0.0
 40
0.5623629036104423
 40
1.08911447695177
 40
1.533551257373769
 40
1.842327346656423
 40
2.010146299404236
 40
2.061525702952736
 40
2.061525702952736
 40
2.061525702952736
 40
2.061525702952736
 10
215.7496181857
 20
282.5156740538
 30
0.0
 41
1.0
 10
215.7962400934683
 20
282.6972381272169
 30
0.0
 41
1.0
 10
215.8813488091465
 20
283.0486946336353
 30
0.0
 41
1.0
 10
216.0115925619803
 20
283.5490482379594
 30
0.0
 41
1.0
 10
216.0991123857606
 20
283.950281357852
 30
0.0
 41
1.0
 10
216.206890118242
 20
284.2766965780911
 30
0.0
 41
1.0
 10
216.1969356642695
 20
284.4015337516925
 30
0.0
 41
1.0
 10
216.2667498199495
 20
284.5156308850991
 30
0.0
 41
1.0
 10
216.2496233521
 20
284.5156308851
 30
0.0
 41
1.0
  0
SPLINE
  5
1C6
330
1F
100
AcDbEntity
  8
03_DXF_CONTINUOUS_LINE
  6
CONTINUOUS
 62
     6
100
AcDbSpline
210
0.0
220
0.0
230
1.0
 70
    12
 71
     3
 72
    13
 73
     9
 74
     0
 42
0.000000001
 43
0.1
 40
0.0
 40
0.0
 40
0.0
 40
0.0
 40
0.0556072517061849
 40
0.2308153295948368
 40
0.5460559549588884
 40
0.987273301108278
 40
1.509878728461329
 40
2.061523114241986
 40
2.061523114241986
 40
2.061523114241986
 40
2.061523114241986
 10
185.7496233521
 20
284.5156308851
 30
0.0
 41
1.0
 10
185.7310876015313
 20
284.5156308850991
 30
0.0
 41
1.0
 10
185.8052822154004
 20
284.3953479113702
 30
0.0
 41
1.0
 10
185.7946444336422
 20
284.2659292293568
 30
0.0
 41
1.0
 10
185.9036371717594
 20
283.9361289695248
 30
0.0
 41
1.0
 10
185.9913643269543
 20
283.5348237087409
 30
0.0
 41
1.0
 10
186.1199708311424
 20
283.0404890536522
 30
0.0
 41
1.0
 10
186.2039282364696
 20
282.6937861803953
 30
0.0
 41
1.0
 10
186.2496279345
 20
282.5156740538
 30
0.0
 41
1.0
  0
SPLINE
  5
1C7
330
1F
100
AcDbEntity
  8
03_DXF_CONTINUOUS_LINE
  6
CONTINUOUS
 62
     7
100
AcDbSpline
210
0.0
220
0.0
230
1.0
 70
    12
 71
     3
 72
    13
 73
     9
 74
     0
 42
0.000000001
 43
0.1
 40
0.0
 40
0.0
 40
0.0
 40
0.0
 40
0.5044895790488834
 40
0.9934328000528084
 40
1.439690809709291
 40
1.780494435954431
 40
1.993886390439827
 40
2.06153949550873
 40
2.06153949550873
 40
2.06153949550873
 40
2.06153949550873
 10
215.7496233529
 20
282.5156857962
 30
0.0
 41
1.0
 10
215.9127690464661
 20
282.556457626626
 30
0.0
 41
1.0
 10
216.2340313099265
 20
282.6367513592136
 30
0.0
 41
1.0
 10
216.699603487451
 20
282.7531284071865
 30
0.0
 41
1.0
 10
217.1122399344821
 20
282.8562835537169
 30
0.0
 41
1.0
 10
217.435766993337
 20
282.9371672605164
 30
0.0
 41
1.0
 10
217.6368610723288
 20
282.9874402161182
 30
0.0
 41
1.0
 10
217.7277456450123
 20
283.0101614140842
 30
0.0
 41
1.0
 10
217.7496233521
 20
283.0156308851
 30
0.0
 41
1.0
  0
SPLINE
  5
1C8
330
1F
100
AcDbEntity
  8
03_DXF_CONTINUOUS_LINE
  6
CONTINUOUS
 62
     7
100
AcDbSpline
210
0.0
220
0.0
230
1.0
 70
    12
 71
     3
 72
    13
 73
     9
 74
     0
 42
0.000000001
 43
0.1
 40
0.0
 40
0.0
 40
0.0
 40
0.0
 40
0.5037099444892551
 40
0.9925556842890246
 40
1.43892382529513
 40
1.780015842018356
 40
1.993647520122243
 40
2.061539496393902
 40
2.061539496393902
 40
2.061539496393902
 40
2.061539496393902
 10
186.2496233514
 20
282.515685796
 30
0.0
 41
1.0
 10
186.0867296978102
 20
282.5563942809998
 30
0.0
 41
1.0
 10
185.7657509922564
 20
282.6366167648378
 30
0.0
 41
1.0
 10
185.3004268566905
 20
282.752931861415
 30
0.0
 41
1.0
 10
184.8876931388618
 20
282.856111665535
 30
0.0
 41
1.0
 10
184.5639597671478
 20
282.937047305354
 30
0.0
 41
1.0
 10
184.3626176592418
 20
282.9873822657671
 30
0.0
 41
1.0
 10
184.2715783078571
 20
283.0101421145949
 30
0.0
 41
1.0
 10
184.2496233514
 20
283.0156308852
 30
0.0
 41
1.0
  0
SPLINE
  5
1C9
330
1F
100
AcDbEntity
  8
03_DXF_CONTINUOUS_LINE
  6
CONTINUOUS
 62
     7
100
AcDbSpline
210
0.0
220
0.0
230
1.0
 70
    12
 71
     3
 72
    14
 73
    10
 74
     0
 42
0.000000001
 43
0.1
 40
0.0
 40
0.0
 40
0.0
 40
0.0
 40
0.3895911062947228
 40
0.8176079382193904
 40
1.236660343467803
 40
1.596536694685002
 40
1.858886666495869
 40
2.013180946720512
 40
2.062201749985511
 40
2.062201749985511
 40
2.062201749985511
 40
2.062201749985511
 10
186.2496233514
 20
230.3156308871
 30
0.0
 41
1.0
 10
186.1240937019325
 20
230.282360957325
 30
0.0
 41
1.0
 10
185.8601438200415
 20
230.2144888987749
 30
0.0
 41
1.0
 10
185.4613648877416
 20
230.1100344436654
 30
0.0
 41
1.0
 10
185.071801408478
 20
230.0097138078596
 30
0.0
 41
1.0
 10
184.7357009173749
 20
229.9225560432038
 30
0.0
 41
1.0
 10
184.483909539301
 20
229.8635888690845
 30
0.0
 41
1.0
 10
184.3335002206043
 20
229.8233788068071
 30
0.0
 41
1.0
 10
184.2659426003414
 20
229.8164594168067
 30
0.0
 41
1.0
 10
184.2496233514
 20
229.8156308854
 30
0.0
 41
1.0
  0
SPLINE
  5
1CA
330
1F
100
AcDbEntity
  8
03_DXF_CONTINUOUS_LINE
  6
CONTINUOUS
 62
     7
100
AcDbSpline
210
0.0
220
0.0
230
1.0
 70
    12
 71
     3
 72
    13
 73
     9
 74
     0
 42
0.000000001
 43
0.1
 40
0.0
 40
0.0
 40
0.0
 40
0.0
 40
0.1010192019463475
 40
0.3384670163109605
 40
0.707115792283255
 40
1.159058083830002
 40
1.623659553932829
 40
2.056769453121144
 40
2.056769453121144
 40
2.056769453121144
 40
2.056769453121144
 10
184.2549914624
 20
283.0156308852
 30
0.0
 41
1.0
 10
184.2885687883708
 20
283.0181683333436
 30
0.0
 41
1.0
 10
184.3995635075956
 20
282.9850488602095
 30
0.0
 41
1.0
 10
184.6283282177468
 20
282.9382816209629
 30
0.0
 41
1.0
 10
184.9702260350659
 20
282.8466886300759
 30
0.0
 41
1.0
 10
185.3847710237915
 20
282.7404783627441
 30
0.0
 41
1.0
 10
185.8199663550575
 20
282.6259085881605
 30
0.0
 41
1.0
 10
186.1099763956022
 20
282.552271725757
 30
0.0
 41
1.0
 10
186.2496233514
 20
282.5156463939
 30
0.0
 41
1.0
  0
SPLINE
  5
1CB
330
1F
100
AcDbEntity
  8
03_DXF_CONTINUOUS_LINE
  6
CONTINUOUS
 62
     7
100
AcDbSpline
210
0.0
220
0.0
230
1.0
 70
    12
 71
     3
 72
    14
 73
    10
 74
     0
 42
0.000000001
 43
0.1
 40
0.0
 40
0.0
 40
0.0
 40
0.0
 40
0.0532676894425478
 40
0.2227695782987045
 40
0.4862995700685879
 40
0.833442589378004
 40
1.231654322830987
 40
1.658379898062964
 40
2.061983776397491
 40
2.061983776397491
 40
2.061983776397491
 40
2.061983776397491
 10
185.749623351
 20
228.3156308851
 30
0.0
 41
1.0
 10
185.7521280002336
 20
228.3332092408836
 30
0.0
 41
1.0
 10
185.7640622323785
 20
228.406523905279
 30
0.0
 41
1.0
 10
185.800200919105
 20
228.5646306590684
 30
0.0
 41
1.0
 10
185.8584874488566
 20
228.8180381862137
 30
0.0
 41
1.0
 10
185.9422676884408
 20
229.1437810976934
 30
0.0
 41
1.0
 10
186.0436405452566
 20
229.5210793993362
 30
0.0
 41
1.0
 10
186.1499252174283
 20
229.9165756066893
 30
0.0
 41
1.0
 10
186.2169441779657
 20
230.1851241824527
 30
0.0
 41
1.0
 10
186.2496230182
 20
230.3156295809
 30
0.0
 41
1.0
  0
SPLINE
  5
1CC
330
1F
100
AcDbEntity
  8
03_DXF_CONTINUOUS_LINE
  6
CONTINUOUS
 62
     7
100
AcDbSpline
210
0.0
220
0.0
230
1.0
 70
    12
 71
     3
 72
    14
 73
    10
 74
     0
 42
0.000000001
 43
0.1
 40
0.0
 40
0.0
 40
0.0
 40
0.0
 40
0.3896844707803446
 40
0.8178928807641211
 40
1.237086671141016
 40
1.596956227965617
 40
1.859217386731825
 40
2.013372582586367
 40
2.062293899689224
 40
2.062293899689224
 40
2.062293899689224
 40
2.062293899689224
 10
215.7496345428
 20
230.3156295809
 30
0.0
 41
1.0
 10
215.7825648734665
 20
230.1899782437859
 30
0.0
 41
1.0
 10
215.8500144403293
 20
229.9258231765788
 30
0.0
 41
1.0
 10
215.954502878531
 20
229.5269028084541
 30
0.0
 41
1.0
 10
216.055228075895
 20
229.1373408833299
 30
0.0
 41
1.0
 10
216.1431236998923
 20
228.8013900341963
 30
0.0
 41
1.0
 10
216.2021506256476
 20
228.5497466562308
 30
0.0
 41
1.0
 10
216.243027493862
 20
228.3995204455191
 30
0.0
 41
1.0
 10
216.2490889151292
 20
228.3319292575386
 30
0.0
 41
1.0
 10
216.2496225369
 20
228.3156308851
 30
0.0
 41
1.0
  0
SPLINE
  5
1CD
330
1F
100
AcDbEntity
  8
03_DXF_CONTINUOUS_LINE
  6
CONTINUOUS
 62
     7
100
AcDbSpline
210
0.0
220
0.0
230
1.0
 70
    12
 71
     3
 72
    13
 73
     9
 74
     0
 42
0.000000001
 43
0.1
 40
0.0
 40
0.0
 40
0.0
 40
0.0
 40
0.0523451159010155
 40
0.2527222035935045
 40
0.5747668897774734
 40
1.015884157282611
 40
1.523432221513284
 40
2.061499541422117
 40
2.061499541422117
 40
2.061499541422117
 40
2.061499541422117
 10
217.7496233529
 20
229.8156308851
 30
0.0
 41
1.0
 10
217.7326958205388
 20
229.8198622362389
 30
0.0
 41
1.0
 10
217.6509699020064
 20
229.840292008523
 30
0.0
 41
1.0
 10
217.4651020773601
 20
229.8867622421825
 30
0.0
 41
1.0
 10
217.1535119991593
 20
229.9646596766977
 30
0.0
 41
1.0
 10
216.7425884397307
 20
230.0673893134638
 30
0.0
 41
1.0
 10
216.2618068525432
 20
230.1875815512507
 30
0.0
 41
1.0
 10
215.9236767935772
 20
230.2721222064017
 30
0.0
 41
1.0
 10
215.749678264
 20
230.3156308851
 30
0.0
 41
1.0
  0
SPLINE
  5
1CE
330
1F
100
AcDbEntity
  8
03_DXF_CONTINUOUS_LINE
  6
CONTINUOUS
 62
     7
100
AcDbSpline
210
0.0
220
0.0
230
1.0
 70
    12
 71
     3
 72
    13
 73
     9
 74
     0
 42
0.000000001
 43
0.1
 40
0.0
 40
0.0
 40
0.0
 40
0.0
 40
0.0523349105112561
 40
0.2527024157667028
 40
0.5747397134666322
 40
1.015854238039294
 40
1.523402096149908
 40
2.061539497076972
 40
2.061539497076972
 40
2.061539497076972
 40
2.061539497076972
 10
216.2496233529
 20
228.3156308851
 30
0.0
 41
1.0
 10
216.2453918258561
 20
228.3325548669933
 30
0.0
 41
1.0
 10
216.2249604388284
 20
228.414273582898
 30
0.0
 41
1.0
 10
216.178498559477
 20
228.6001341585549
 30
0.0
 41
1.0
 10
216.100602661055
 20
228.9117178472544
 30
0.0
 41
1.0
 10
215.9978709147383
 20
229.322637327395
 30
0.0
 41
1.0
 10
215.8776701525106
 20
229.8034398495078
 30
0.0
 41
1.0
 10
215.7931581736118
 20
230.1416010857942
 30
0.0
 41
1.0
 10
215.749678264
 20
230.3156308851
 30
0.0
 41
1.0
  0
SPLINE
  5
1CF
330
1F
100
AcDbEntity
  8
03_DXF_CONTINUOUS_LINE
  6
CONTINUOUS
 62
     6
100
AcDbSpline
210
0.0
220
0.0
230
1.0
 70
    12
 71
     3
 72
     8
 73
     4
 74
     0
 42
0.000000001
 43
0.1
 40
0.0
 40
0.0
 40
0.0
 40
0.0
 40
0.8856717724500452
 40
0.8856717724500452
 40
0.8856717724500452
 40
0.8856717724500452
 10
185.1591755038
 20
283.0156308852
 30
0.0
 41
1.0
 10
185.1591755038
 20
283.2939706701799
 30
0.0
 41
1.0
 10
185.47128356712
 20
283.6060787335
 30
0.0
 41
1.0
 10
185.7496233521
 20
283.6060787335
 30
0.0
 41
1.0
  0
SPLINE
  5
1D0
330
1F
100
AcDbEntity
  8
03_DXF_CONTINUOUS_LINE
  6
CONTINUOUS
 62
     6
100
AcDbSpline
210
0.0
220
0.0
230
1.0
 70
    12
 71
     3
 72
     8
 73
     4
 74
     0
 42
0.000000001
 43
0.1
 40
0.0
 40
0.0
 40
0.0
 40
0.0
 40
0.8856717725999891
 40
0.8856717725999891
 40
0.8856717725999891
 40
0.8856717725999891
 10
216.2496233521
 20
283.6060787335
 30
0.0
 41
1.0
 10
216.5279631371271
 20
283.6060787335
 30
0.0
 41
1.0
 10
216.8400712005
 20
283.2939706701271
 30
0.0
 41
1.0
 10
216.8400712005
 20
283.0156308851
 30
0.0
 41
1.0
  0
SPLINE
  5
1D1
330
1F
100
AcDbEntity
  8
03_DXF_CONTINUOUS_LINE
  6
CONTINUOUS
 62
     6
100
AcDbSpline
210
0.0
220
0.0
230
1.0
 70
    12
 71
     3
 72
     8
 73
     4
 74
     0
 42
0.000000001
 43
0.1
 40
0.0
 40
0.0
 40
0.0
 40
0.0
 40
0.8856717719999772
 40
0.8856717719999772
 40
0.8856717719999772
 40
0.8856717719999772
 10
216.8400712005
 20
229.8156308848
 30
0.0
 41
1.0
 10
216.8400712005
 20
229.5372910999615
 30
0.0
 41
1.0
 10
216.5279631373385
 20
229.2251830368
 30
0.0
 41
1.0
 10
216.2496233525
 20
229.2251830368
 30
0.0
 41
1.0
  0
SPLINE
  5
1D2
330
1F
100
AcDbEntity
  8
03_DXF_CONTINUOUS_LINE
  6
CONTINUOUS
 62
     6
100
AcDbSpline
210
0.0
220
0.0
230
1.0
 70
    12
 71
     3
 72
     8
 73
     4
 74
     0
 42
0.000000001
 43
0.1
 40
0.0
 40
0.0
 40
0.0
 40
0.0
 40
0.8856717729000353
 40
0.8856717729000353
 40
0.8856717729000353
 40
0.8856717729000353
 10
185.7496233524
 20
229.2251830368
 30
0.0
 41
1.0
 10
185.4712835672786
 20
229.2251830368
 30
0.0
 41
1.0
 10
185.1591755038
 20
229.5372911002786
 30
0.0
 41
1.0
 10
185.1591755038
 20
229.8156308854
 30
0.0
 41
1.0
  0
SPLINE
  5
1D3
330
1F
100
AcDbEntity
  8
03_DXF_CONTINUOUS_LINE
  6
CONTINUOUS
 62
     6
100
AcDbSpline
210
0.0
220
0.0
230
1.0
 70
    12
 71
     3
 72
    12
 73
     8
 74
     0
 42
0.000000001
 43
0.1
 40
0.0
 40
0.0
 40
0.0
 40
0.0
 40
0.1971376521425818
 40
0.403530997125222
 40
0.6105881536694326
 40
0.8173951819399508
 40
1.014973666861239
 40
1.014973666861239
 40
1.014973666861239
 40
1.014973666861239
 10
185.7556922221
 20
283.6656308851
 30
0.0
 41
1.0
 10
185.6899796713858
 20
283.6656308851
 30
0.0
 41
1.0
 10
185.5543726814078
 20
283.6437306435595
 30
0.0
 41
1.0
 10
185.3721114883995
 20
283.5460791971313
 30
0.0
 41
1.0
 10
185.2231919882815
 20
283.3986822754305
 30
0.0
 41
1.0
 10
185.1240545731836
 20
283.2171186899438
 30
0.0
 41
1.0
 10
185.099595021
 20
283.0814903801738
 30
0.0
 41
1.0
 10
185.099595021
 20
283.0156308852
 30
0.0
 41
1.0
  0
SPLINE
  5
1D4
330
1F
100
AcDbEntity
  8
03_DXF_CONTINUOUS_LINE
  6
CONTINUOUS
 62
     6
100
AcDbSpline
210
0.0
220
0.0
230
1.0
 70
    12
 71
     3
 72
    12
 73
     8
 74
     0
 42
0.000000001
 43
0.1
 40
0.0
 40
0.0
 40
0.0
 40
0.0
 40
0.1962323754669109
 40
0.4025056274612214
 40
0.6082117199368682
 40
0.8126906878595405
 40
1.008987079517825
 40
1.008987079517825
 40
1.008987079517825
 40
1.008987079517825
 10
185.099595021
 20
229.8156308854
 30
0.0
 41
1.0
 10
185.099595021
 20
229.7502200935777
 30
0.0
 41
1.0
 10
185.1237680075509
 20
229.6152257252083
 30
0.0
 41
1.0
 10
185.2219387959213
 20
229.4344168502587
 30
0.0
 41
1.0
 10
185.3694041677846
 20
229.2873084779172
 30
0.0
 41
1.0
 10
185.5497724986089
 20
229.1896814433517
 30
0.0
 41
1.0
 10
185.6841912218472
 20
229.1656025541
 30
0.0
 41
1.0
 10
185.7496233524
 20
229.1656025541
 30
0.0
 41
1.0
  0
SPLINE
  5
1D5
330
1F
100
AcDbEntity
  8
03_DXF_CONTINUOUS_LINE
  6
CONTINUOUS
 62
     6
100
AcDbSpline
210
0.0
220
0.0
230
1.0
 70
    12
 71
     3
 72
    12
 73
     8
 74
     0
 42
0.000000001
 43
0.1
 40
0.0
 40
0.0
 40
0.0
 40
0.0
 40
0.1962323758780417
 40
0.4025056274724418
 40
0.6082117190289216
 40
0.8126906866398077
 40
1.008987078644596
 40
1.008987078644596
 40
1.008987078644596
 40
1.008987078644596
 10
216.2496233525
 20
229.165602554
 30
0.0
 41
1.0
 10
216.3150341444594
 20
229.165602554
 30
0.0
 41
1.0
 10
216.450028512844
 20
229.1897755405504
 30
0.0
 41
1.0
 10
216.6308373874847
 20
229.287946328845
 30
0.0
 41
1.0
 10
216.7779457593864
 20
229.4354117003773
 30
0.0
 41
1.0
 10
216.8755727937236
 20
229.615780030927
 30
0.0
 41
1.0
 10
216.8996516833
 20
229.7501987541317
 30
0.0
 41
1.0
 10
216.8996516833
 20
229.8156308848
 30
0.0
 41
1.0
  0
SPLINE
  5
1D6
330
1F
100
AcDbEntity
  8
03_DXF_CONTINUOUS_LINE
  6
CONTINUOUS
 62
     6
100
AcDbSpline
210
0.0
220
0.0
230
1.0
 70
    12
 71
     3
 72
    12
 73
     8
 74
     0
 42
0.000000001
 43
0.1
 40
0.0
 40
0.0
 40
0.0
 40
0.0
 40
0.1962323741009834
 40
0.4025056262656355
 40
0.6082117207211937
 40
0.8126906888558607
 40
1.008987079215998
 40
1.008987079215998
 40
1.008987079215998
 40
1.008987079215998
 10
216.8996516833
 20
283.0156308851
 30
0.0
 41
1.0
 10
216.8996516833
 20
283.081041676467
 30
0.0
 41
1.0
 10
216.8754786970912
 20
283.2160360444539
 30
0.0
 41
1.0
 10
216.7773079087877
 20
283.3968449197512
 30
0.0
 41
1.0
 10
216.6298425363765
 20
283.5439532928104
 30
0.0
 41
1.0
 10
216.4494742049816
 20
283.6415803268582
 30
0.0
 41
1.0
 10
216.3150554822201
 20
283.6656592164
 30
0.0
 41
1.0
 10
216.2496233521
 20
283.6656592164
 30
0.0
 41
1.0
  0
SPLINE
  5
1D7
330
1F
100
AcDbEntity
  8
03_DXF_CONTINUOUS_LINE
  6
CONTINUOUS
 62
     6
100
AcDbSpline
210
0.0
220
0.0
230
1.0
 70
    12
 71
     3
 72
     8
 73
     4
 74
     0
 42
0.000000001
 43
0.1
 40
0.0
 40
0.0
 40
0.0
 40
0.0
 40
3.05497623402688
 40
3.05497623402688
 40
3.05497623402688
 40
3.05497623402688
 10
215.9496233522
 20
284.8156308851
 30
0.0
 41
1.0
 10
216.8924323937349
 20
284.8156308851
 30
0.0
 41
1.0
 10
217.9496233521
 20
283.7584399267349
 30
0.0
 41
1.0
 10
217.9496233521
 20
282.8156308852
 30
0.0
 41
1.0
  0
SPLINE
  5
1D8
330
1F
100
AcDbEntity
  8
03_DXF_CONTINUOUS_LINE
  6
CONTINUOUS
 62
     7
100
AcDbSpline
210
0.0
220
0.0
230
1.0
 70
    12
 71
     3
 72
    10
 73
     6
 74
     0
 42
0.000000001
 43
0.1
 40
0.0
 40
0.0
 40
0.0
 40
0.0
 40
0.0102367791317216
 40
0.0208188341448997
 40
0.0310537438156981
 40
0.0310537438156981
 40
0.0310537438156981
 40
0.0310537438156981
 10
215.9496233522
 20
282.835630866
 30
0.0
 41
1.0
 10
215.9530354498045
 20
282.8356641266315
 30
0.0
 41
1.0
 10
215.9601076607027
 20
282.8337503605368
 30
0.0
 41
1.0
 10
215.9677433740359
 20
282.8261138798747
 30
0.0
 41
1.0
 10
215.9696565875574
 20
282.8190423596805
 30
0.0
 41
1.0
 10
215.969623333
 20
282.8156308852
 30
0.0
 41
1.0
  0
SPLINE
  5
1D9
330
1F
100
AcDbEntity
  8
03_DXF_CONTINUOUS_LINE
  6
CONTINUOUS
 62
     6
100
AcDbSpline
210
0.0
220
0.0
230
1.0
 70
    12
 71
     3
 72
     8
 73
     4
 74
     0
 42
0.000000001
 43
0.1
 40
0.0
 40
0.0
 40
0.0
 40
0.0
 40
3.054976234637857
 40
3.054976234637857
 40
3.054976234637857
 40
3.054976234637857
 10
186.0496233524
 20
228.0156308851
 30
0.0
 41
1.0
 10
185.1068143106765
 20
228.0156308851
 30
0.0
 41
1.0
 10
184.0496233521
 20
229.0728218436765
 30
0.0
 41
1.0
 10
184.0496233521
 20
230.0156308854
 30
0.0
 41
1.0
  0
SPLINE
  5
1DA
330
1F
100
AcDbEntity
  8
03_DXF_CONTINUOUS_LINE
  6
CONTINUOUS
 62
     6
100
AcDbSpline
210
0.0
220
0.0
230
1.0
 70
    12
 71
     3
 72
     8
 73
     4
 74
     0
 42
0.000000001
 43
0.1
 40
0.0
 40
0.0
 40
0.0
 40
0.0
 40
3.054976233415863
 40
3.054976233415863
 40
3.054976233415863
 40
3.054976233415863
 10
217.9496233521
 20
230.0156308846
 30
0.0
 41
1.0
 10
217.9496233521
 20
229.0728218432536
 30
0.0
 41
1.0
 10
216.8924323939464
 20
228.0156308851
 30
0.0
 41
1.0
 10
215.9496233526
 20
228.0156308851
 30
0.0
 41
1.0
  0
SPLINE
  5
1DB
330
1F
100
AcDbEntity
  8
03_DXF_CONTINUOUS_LINE
  6
CONTINUOUS
 62
     7
100
AcDbSpline
210
0.0
220
0.0
230
1.0
 70
    12
 71
     3
 72
    10
 73
     6
 74
     0
 42
0.000000001
 43
0.1
 40
0.0
 40
0.0
 40
0.0
 40
0.0
 40
0.0102367789127747
 40
0.0208188337138544
 40
0.0310537431913045
 40
0.0310537431913045
 40
0.0310537431913045
 40
0.0310537431913045
 10
215.969623333
 20
230.0156308846
 30
0.0
 41
1.0
 10
215.9696565936314
 20
230.0122187870685
 30
0.0
 41
1.0
 10
215.9677428276613
 20
230.0051465762735
 30
0.0
 41
1.0
 10
215.960106347028
 20
229.9975108632217
 30
0.0
 41
1.0
 10
215.953034827016
 20
229.9955976496426
 30
0.0
 41
1.0
 10
215.9496233526
 20
229.9956309042
 30
0.0
 41
1.0
  0
SPLINE
  5
1DC
330
1F
100
AcDbEntity
  8
03_DXF_CONTINUOUS_LINE
  6
CONTINUOUS
 62
     7
100
AcDbSpline
210
0.0
220
0.0
230
1.0
 70
    12
 71
     3
 72
    10
 73
     6
 74
     0
 42
0.000000001
 43
0.1
 40
0.0
 40
0.0
 40
0.0
 40
0.0
 40
0.01023677932508
 40
0.0208188346211628
 40
0.0310537444142425
 40
0.0310537444142425
 40
0.0310537444142425
 40
0.0310537444142425
 10
186.0496233524
 20
229.9956309042
 30
0.0
 41
1.0
 10
186.046211254731
 20
229.9955976435685
 30
0.0
 41
1.0
 10
186.0391390436072
 20
229.9975114095955
 30
0.0
 41
1.0
 10
186.0315033303498
 20
230.005147890624
 30
0.0
 41
1.0
 10
186.0295901166429
 20
230.0122194108787
 30
0.0
 41
1.0
 10
186.0296233712
 20
230.0156308854
 30
0.0
 41
1.0
  0
SPLINE
  5
1DD
330
1F
100
AcDbEntity
  8
03_DXF_CONTINUOUS_LINE
  6
CONTINUOUS
 62
     6
100
AcDbSpline
210
0.0
220
0.0
230
1.0
 70
    12
 71
     3
 72
     8
 73
     4
 74
     0
 42
0.000000001
 43
0.1
 40
0.0
 40
0.0
 40
0.0
 40
0.0
 40
3.054976234255994
 40
3.054976234255994
 40
3.054976234255994
 40
3.054976234255994
 10
184.0496233521
 20
282.8156308851
 30
0.0
 41
1.0
 10
184.0496233521
 20
283.7584399267056
 30
0.0
 41
1.0
 10
185.1068143105944
 20
284.8156308851
 30
0.0
 41
1.0
 10
186.0496233522
 20
284.8156308851
 30
0.0
 41
1.0
  0
SPLINE
  5
1DE
330
1F
100
AcDbEntity
  8
03_DXF_CONTINUOUS_LINE
  6
CONTINUOUS
 62
     7
100
AcDbSpline
210
0.0
220
0.0
230
1.0
 70
    12
 71
     3
 72
    10
 73
     6
 74
     0
 42
0.000000001
 43
0.1
 40
0.0
 40
0.0
 40
0.0
 40
0.0
 40
0.0102367791317273
 40
0.0208188343571016
 40
0.0310537440279187
 40
0.0310537440279187
 40
0.0310537440279187
 40
0.0310537440279187
 10
186.0296233712
 20
282.8156308851
 30
0.0
 41
1.0
 10
186.0295901105688
 20
282.8190429827045
 30
0.0
 41
1.0
 10
186.031503876673
 20
282.8261151936868
 30
0.0
 41
1.0
 10
186.0391403574799
 20
282.8337509069875
 30
0.0
 41
1.0
 10
186.0462118777195
 20
282.8356641205571
 30
0.0
 41
1.0
 10
186.0496233522
 20
282.835630866
 30
0.0
 41
1.0
  0
SPLINE
  5
1DF
330
1F
100
AcDbEntity
  8
03_DXF_CONTINUOUS_LINE
  6
CONTINUOUS
 62
     7
100
AcDbSpline
210
0.0
220
0.0
230
1.0
 70
    12
 71
     3
 72
     8
 73
     4
 74
     0
 42
0.000000001
 43
0.1
 40
0.0
 40
0.0
 40
0.0
 40
0.0
 40
3.054975563006528
 40
3.054975563006528
 40
3.054975563006528
 40
3.054975563006528
 10
217.7496233529
 20
351.3657250471
 30
0.0
 41
1.0
 10
217.7496233529
 20
352.3085339223705
 30
0.0
 41
1.0
 10
216.6924329337704
 20
353.3657245196
 30
0.0
 41
1.0
 10
215.7496240585
 20
353.3657250471
 30
0.0
 41
1.0
  0
SPLINE
  5
1E0
330
1F
100
AcDbEntity
  8
03_DXF_CONTINUOUS_LINE
  6
CONTINUOUS
 62
     6
100
AcDbSpline
210
0.0
220
0.0
230
1.0
 70
    12
 71
     3
 72
    13
 73
     9
 74
     0
 42
0.000000001
 43
0.1
 40
0.0
 40
0.0
 40
0.0
 40
0.0
 40
0.1561472169450405
 40
0.4157900102241965
 40
0.7930142936183224
 40
1.238559771738352
 40
1.693072601001982
 40
2.137925269898408
 40
2.137925269898408
 40
2.137925269898408
 40
2.137925269898408
 10
215.7496181857
 20
353.3657250466
 30
0.0
 41
1.0
 10
215.8016672578311
 20
353.3657206714669
 30
0.0
 41
1.0
 10
215.9270801622517
 20
353.2705053206073
 30
0.0
 41
1.0
 10
216.0342645980064
 20
353.0302548636378
 30
0.0
 41
1.0
 10
216.1343673728843
 20
352.6813914426558
 30
0.0
 41
1.0
 10
216.2014994674705
 20
352.2606612838753
 30
0.0
 41
1.0
 10
216.2427654888489
 20
351.8139479841151
 30
0.0
 41
1.0
 10
216.2508708353353
 20
351.5140040225687
 30
0.0
 41
1.0
 10
216.2496233521
 20
351.3657250471
 30
0.0
 41
1.0
  0
SPLINE
  5
1E1
330
1F
100
AcDbEntity
  8
03_DXF_CONTINUOUS_LINE
  6
CONTINUOUS
 62
     6
100
AcDbSpline
210
0.0
220
0.0
230
1.0
 70
    12
 71
     3
 72
    13
 73
     9
 74
     0
 42
0.000000001
 43
0.1
 40
0.0
 40
0.0
 40
0.0
 40
0.0
 40
0.4624155853891853
 40
0.9216203668151863
 40
1.364652061879434
 40
1.731709368669804
 40
1.985666429645513
 40
2.138080993093517
 40
2.138080993093517
 40
2.138080993093517
 40
2.138080993093517
 10
185.7496233521
 20
351.3657250471
 30
0.0
 41
1.0
 10
185.7486575912284
 20
351.5198605500274
 30
0.0
 41
1.0
 10
185.7569967918906
 20
351.8272334604416
 30
0.0
 41
1.0
 10
185.8001881567309
 20
352.2803834327439
 30
0.0
 41
1.0
 10
185.8686786167814
 20
352.6982828983618
 30
0.0
 41
1.0
 10
185.9689694749116
 20
353.0404904812997
 30
0.0
 41
1.0
 10
186.0755210863445
 20
353.2744117177573
 30
0.0
 41
1.0
 10
186.1988230801971
 20
353.3657207727049
 30
0.0
 41
1.0
 10
186.2496279345
 20
353.3657250466
 30
0.0
 41
1.0
  0
SPLINE
  5
1E2
330
1F
100
AcDbEntity
  8
03_DXF_CONTINUOUS_LINE
  6
CONTINUOUS
 62
     7
100
AcDbSpline
210
0.0
220
0.0
230
1.0
 70
    12
 71
     3
 72
    13
 73
     9
 74
     0
 42
0.000000001
 43
0.1
 40
0.0
 40
0.0
 40
0.0
 40
0.0
 40
0.4926407705934446
 40
1.004194349302417
 40
1.544885297090182
 40
2.079206568049915
 40
2.621248405064185
 40
3.133240838086197
 40
3.133240838086197
 40
3.133240838086197
 40
3.133240838086197
 10
215.7496233529
 20
353.3657250461
 30
0.0
 41
1.0
 10
215.9137798015868
 20
353.3700567386317
 30
0.0
 41
1.0
 10
216.2512977430504
 20
353.3301038575224
 30
0.0
 41
1.0
 10
216.7329416402443
 20
353.1328484613954
 30
0.0
 41
1.0
 10
217.1609078431478
 20
352.8123952677198
 30
0.0
 41
1.0
 10
217.5002677946596
 20
352.3851663922401
 30
0.0
 41
1.0
 10
217.7037914144464
 20
351.8890971727287
 30
0.0
 41
1.0
 10
217.7494156192214
 20
351.5363890650141
 30
0.0
 41
1.0
 10
217.7496233521
 20
351.3657250471
 30
0.0
 41
1.0
  0
SPLINE
  5
1E3
330
1F
100
AcDbEntity
  8
03_DXF_CONTINUOUS_LINE
  6
CONTINUOUS
 62
     7
100
AcDbSpline
210
0.0
220
0.0
230
1.0
 70
    12
 71
     3
 72
     8
 73
     4
 74
     0
 42
0.000000001
 43
0.1
 40
0.0
 40
0.0
 40
0.0
 40
0.0
 40
3.054976234179643
 40
3.054976234179643
 40
3.054976234179643
 40
3.054976234179643
 10
186.2496233514
 20
353.3657250471
 30
0.0
 41
1.0
 10
185.306814309818
 20
353.3657250471
 30
0.0
 41
1.0
 10
184.2496233514
 20
352.3085340886821
 30
0.0
 41
1.0
 10
184.2496233514
 20
351.3657250471
 30
0.0
 41
1.0
  0
SPLINE
  5
1E4
330
1F
100
AcDbEntity
  8
03_DXF_CONTINUOUS_LINE
  6
CONTINUOUS
 62
     7
100
AcDbSpline
210
0.0
220
0.0
230
1.0
 70
    12
 71
     3
 72
     8
 73
     4
 74
     0
 42
0.000000001
 43
0.1
 40
0.0
 40
0.0
 40
0.0
 40
0.0
 40
0.1178939784237761
 40
0.1178939784237761
 40
0.1178939784237761
 40
0.1178939784237761
 10
184.2496233514
 20
351.3657250471
 30
0.0
 41
1.0
 10
184.2496233514
 20
351.4050230399079
 30
0.0
 41
1.0
 10
184.2514638810282
 20
351.4443574019605
 30
0.0
 41
1.0
 10
184.2549914624
 20
351.483496748
 30
0.0
 41
1.0
  0
SPLINE
  5
1E5
330
1F
100
AcDbEntity
  8
03_DXF_CONTINUOUS_LINE
  6
CONTINUOUS
 62
     7
100
AcDbSpline
210
0.0
220
0.0
230
1.0
 70
    12
 71
     3
 72
    14
 73
    10
 74
     0
 42
0.000000001
 43
0.1
 40
0.0
 40
0.0
 40
0.0
 40
0.0
 40
0.3768134180744322
 40
0.786429467043304
 40
1.170861271425969
 40
1.521919392411085
 40
1.80718503807546
 40
2.011186951820799
 40
2.125205778079142
 40
2.125205778079142
 40
2.125205778079142
 40
2.125205778079142
 10
185.749623351
 20
351.3657250471
 30
0.0
 41
1.0
 10
185.7479062679927
 20
351.4913177825032
 30
0.0
 41
1.0
 10
185.7549867460013
 20
351.7535972240001
 30
0.0
 41
1.0
 10
185.7876300296779
 20
352.1426980696222
 30
0.0
 41
1.0
 10
185.8461499677257
 20
352.5204315771633
 30
0.0
 41
1.0
 10
185.92540590097
 20
352.8512399523406
 30
0.0
 41
1.0
 10
186.0256657814382
 20
353.1158910142336
 30
0.0
 41
1.0
 10
186.1187453180891
 20
353.2895136457258
 30
0.0
 41
1.0
 10
186.2116167427809
 20
353.3657248901448
 30
0.0
 41
1.0
 10
186.2496230182
 20
353.3657250471
 30
0.0
 41
1.0
  0
SPLINE
  5
1E6
330
1F
100
AcDbEntity
  8
03_DXF_CONTINUOUS_LINE
  6
CONTINUOUS
 62
     7
100
AcDbSpline
210
0.0
220
0.0
230
1.0
 70
    12
 71
     3
 72
    14
 73
    10
 74
     0
 42
0.000000001
 43
0.1
 40
0.0
 40
0.0
 40
0.0
 40
0.0
 40
0.110914616189825
 40
0.311719045799846
 40
0.6112072884141907
 40
0.9811150767079184
 40
1.37597847960111
 40
1.763767905642454
 40
2.126104356808029
 40
2.126104356808029
 40
2.126104356808029
 40
2.126104356808029
 10
215.7496345428
 20
353.3657250471
 30
0.0
 41
1.0
 10
215.7866060815297
 20
353.3657249012192
 30
0.0
 41
1.0
 10
215.8799175185689
 20
353.2953027811829
 30
0.0
 41
1.0
 10
215.9730305408586
 20
353.1165699998828
 30
0.0
 41
1.0
 10
216.0736878270149
 20
352.8422715092784
 30
0.0
 41
1.0
 10
216.1559293929346
 20
352.4970940194362
 30
0.0
 41
1.0
 10
216.2167750383741
 20
352.1172996416101
 30
0.0
 41
1.0
 10
216.2494737437203
 20
351.7367698964753
 30
0.0
 41
1.0
 10
216.2532512116863
 20
351.4864493419563
 30
0.0
 41
1.0
 10
216.2496225369
 20
351.3657250471
 30
0.0
 41
1.0
  0
SPLINE
  5
1E7
330
1F
100
AcDbEntity
  8
03_DXF_CONTINUOUS_LINE
  6
CONTINUOUS
 62
     7
100
AcDbSpline
210
0.0
220
0.0
230
1.0
 70
    12
 71
     3
 72
    13
 73
     9
 74
     0
 42
0.000000001
 43
0.1
 40
0.0
 40
0.0
 40
0.0
 40
0.0
 40
0.4711632367599144
 40
0.9626725344870168
 40
1.393380899779192
 40
1.74979916494988
 40
1.990681334054346
 40
2.138415323076502
 40
2.138415323076502
 40
2.138415323076502
 40
2.138415323076502
 10
216.2496233529
 20
351.3657250471
 30
0.0
 41
1.0
 10
216.2510864871875
 20
351.5227726438542
 30
0.0
 41
1.0
 10
216.2421036174557
 20
351.8438343480526
 30
0.0
 41
1.0
 10
216.1966891523626
 20
352.3065391139127
 30
0.0
 41
1.0
 10
216.1239047062904
 20
352.7266927736731
 30
0.0
 41
1.0
 10
216.0241819545896
 20
353.0569962007643
 30
0.0
 41
1.0
 10
215.9178167323448
 20
353.2797367253565
 30
0.0
 41
1.0
 10
215.7989095758718
 20
353.3668716790993
 30
0.0
 41
1.0
 10
215.749678264
 20
353.3657250466
 30
0.0
 41
1.0
  0
SPLINE
  5
1E8
330
1F
100
AcDbEntity
  8
03_DXF_CONTINUOUS_LINE
  6
CONTINUOUS
 62
     7
100
AcDbSpline
210
0.0
220
0.0
230
1.0
 70
    12
 71
     3
 72
    13
 73
     9
 74
     0
 42
0.000000001
 43
0.1
 40
0.0
 40
0.0
 40
0.0
 40
0.0
 40
0.5109412756364736
 40
1.010235995213907
 40
1.433372798854839
 40
1.774497688252989
 40
2.002903323793526
 40
2.141637084034626
 40
2.141637084034626
 40
2.141637084034626
 40
2.141637084034626
 10
185.7496233514
 20
351.3657250471
 30
0.0
 41
1.0
 10
185.7495226731304
 20
351.5360387758883
 30
0.0
 41
1.0
 10
185.7601821296042
 20
351.8729006033344
 30
0.0
 41
1.0
 10
185.8079860235902
 20
352.3487120388961
 30
0.0
 41
1.0
 10
185.8832830943156
 20
352.76368487338
 30
0.0
 41
1.0
 10
185.9859434549954
 20
353.0802230249222
 30
0.0
 41
1.0
 10
186.0850371676386
 20
353.2930804474266
 30
0.0
 41
1.0
 10
186.2037257828119
 20
353.3713796913068
 30
0.0
 41
1.0
 10
186.2496233514
 20
353.3657250471
 30
0.0
 41
1.0
  0
SPLINE
  5
1E9
330
1F
100
AcDbEntity
  8
03_DXF_CONTINUOUS_LINE
  6
CONTINUOUS
 62
     7
100
AcDbSpline
210
0.0
220
0.0
230
1.0
 70
    12
 71
     3
 72
    13
 73
     9
 74
     0
 42
0.000000001
 43
0.1
 40
0.0
 40
0.0
 40
0.0
 40
0.0
 40
0.5149573962480091
 40
1.05250466922133
 40
1.578834399541222
 40
2.11444641365102
 40
2.627375477575572
 40
3.134649581307083
 40
3.134649581307083
 40
3.134649581307083
 40
3.134649581307083
 10
184.2496233514
 20
351.3657250471
 30
0.0
 41
1.0
 10
184.2492174739727
 20
351.5373770326606
 30
0.0
 41
1.0
 10
184.2956228049322
 20
351.8897391959487
 30
0.0
 41
1.0
 10
184.4986451434373
 20
352.3820948452856
 30
0.0
 41
1.0
 10
184.8310144015559
 20
352.8069511657365
 30
0.0
 41
1.0
 10
185.2536276118761
 20
353.1280607744033
 30
0.0
 41
1.0
 10
185.7373315252159
 20
353.3300377229432
 30
0.0
 41
1.0
 10
186.0806121316951
 20
353.3709306513587
 30
0.0
 41
1.0
 10
186.2496233514
 20
353.3657250471
 30
0.0
 41
1.0
  0
SPLINE
  5
1EA
330
1F
100
AcDbEntity
  8
03_DXF_CONTINUOUS_LINE
  6
CONTINUOUS
 62
     7
100
AcDbSpline
210
0.0
220
0.0
230
1.0
 70
    12
 71
     3
 72
     8
 73
     4
 74
     0
 42
0.000000001
 43
0.1
 40
0.0
 40
0.0
 40
0.0
 40
0.0
 40
1.08973222202843
 40
1.08973222202843
 40
1.08973222202843
 40
1.08973222202843
 10
185.0306674713
 20
342.6695780487
 30
0.0
 41
1.0
 10
184.7417469103089
 20
342.8340318827171
 30
0.0
 41
1.0
 10
184.7579869956015
 20
343.5161154678095
 30
0.0
 41
1.0
 10
185.0544068659
 20
343.6666326249
 30
0.0
 41
1.0
  0
SPLINE
  5
1EB
330
1F
100
AcDbEntity
  8
03_DXF_CONTINUOUS_LINE
  6
CONTINUOUS
 62
     7
100
AcDbSpline
210
0.0
220
0.0
230
1.0
 70
    12
 71
     3
 72
    15
 73
    11
 74
     0
 42
0.000000001
 43
0.1
 40
0.0
 40
0.0
 40
0.0
 40
0.0
 40
0.1645076338724685
 40
0.3350906826937944
 40
0.5143481002522097
 40
0.6876762780615352
 40
0.8708624123459362
 40
1.073845277778542
 40
1.276388449267259
 40
1.452419481580805
 40
1.452419481580805
 40
1.452419481580805
 40
1.452419481580805
 10
185.0306674713
 20
342.6695780487
 30
0.0
 41
1.0
 10
184.9760731294949
 20
342.6747191919806
 30
0.0
 41
1.0
 10
184.8654574648407
 20
342.705945389346
 30
0.0
 41
1.0
 10
184.7279142250022
 20
342.8145145412213
 30
0.0
 41
1.0
 10
184.6326503087617
 20
342.9641928787706
 30
0.0
 41
1.0
 10
184.5887474341298
 20
343.1410812589797
 30
0.0
 41
1.0
 10
184.6155444271853
 20
343.330313839762
 30
0.0
 41
1.0
 10
184.7149858001312
 20
343.5051228834392
 30
0.0
 41
1.0
 10
184.8699038424779
 20
343.6291691564335
 30
0.0
 41
1.0
 10
184.9957471946387
 20
343.6652062535853
 30
0.0
 41
1.0
 10
185.054406866
 20
343.6666326297
 30
0.0
 41
1.0
  0
SPLINE
  5
1EC
330
1F
100
AcDbEntity
  8
03_DXF_CONTINUOUS_LINE
  6
CONTINUOUS
 62
     7
100
AcDbSpline
210
0.0
220
0.0
230
1.0
 70
    12
 71
     3
 72
     8
 73
     4
 74
     0
 42
0.000000001
 43
0.1
 40
0.0
 40
0.0
 40
0.0
 40
0.0
 40
1.113501856254218
 40
1.113501856254218
 40
1.113501856254218
 40
1.113501856254218
 10
185.0306674713
 20
342.6695780487
 30
0.0
 41
1.0
 10
184.7015739509575
 20
342.7166695442696
 30
0.0
 41
1.0
 10
184.7234450744047
 20
343.6352567319796
 30
0.0
 41
1.0
 10
185.0544068659
 20
343.6666326249
 30
0.0
 41
1.0
  0
SPLINE
  5
1ED
330
1F
100
AcDbEntity
  8
03_DXF_CONTINUOUS_LINE
  6
CONTINUOUS
 62
     7
100
AcDbSpline
210
0.0
220
0.0
230
1.0
 70
    12
 71
     3
 72
     8
 73
     4
 74
     0
 42
0.000000001
 43
0.1
 40
0.0
 40
0.0
 40
0.0
 40
0.0
 40
1.089732222031032
 40
1.089732222031032
 40
1.089732222031032
 40
1.089732222031032
 10
216.9685792331
 20
342.6695780487
 30
0.0
 41
1.0
 10
217.2574997940918
 20
342.8340318827175
 30
0.0
 41
1.0
 10
217.2412597086992
 20
343.5161154678092
 30
0.0
 41
1.0
 10
216.9448398384
 20
343.6666326249
 30
0.0
 41
1.0
  0
SPLINE
  5
1EE
330
1F
100
AcDbEntity
  8
03_DXF_CONTINUOUS_LINE
  6
CONTINUOUS
 62
     7
100
AcDbSpline
210
0.0
220
0.0
230
1.0
 70
    12
 71
     3
 72
    15
 73
    11
 74
     0
 42
0.000000001
 43
0.1
 40
0.0
 40
0.0
 40
0.0
 40
0.0
 40
0.1645076337763643
 40
0.3350906825976821
 40
0.5143481002100285
 40
0.6876762779961778
 40
0.8708624122805944
 40
1.073845277713231
 40
1.276388449123395
 40
1.45241948153368
 40
1.45241948153368
 40
1.45241948153368
 40
1.45241948153368
 10
216.9685792331
 20
342.6695780487
 30
0.0
 41
1.0
 10
217.0231735748733
 20
342.6747191919776
 30
0.0
 41
1.0
 10
217.1337892394924
 20
342.7059453893712
 30
0.0
 41
1.0
 10
217.271332479277
 20
342.814514541249
 30
0.0
 41
1.0
 10
217.3665963956898
 20
342.9641928787233
 30
0.0
 41
1.0
 10
217.4104992701263
 20
343.1410812589991
 30
0.0
 41
1.0
 10
217.3837022771308
 20
343.3303138397627
 30
0.0
 41
1.0
 10
217.2842609041655
 20
343.5051228833976
 30
0.0
 41
1.0
 10
217.1293428618878
 20
343.6291691564909
 30
0.0
 41
1.0
 10
217.0034995096936
 20
343.6652062535845
 30
0.0
 41
1.0
 10
216.9448398383
 20
343.6666326297
 30
0.0
 41
1.0
  0
SPLINE
  5
1EF
330
1F
100
AcDbEntity
  8
03_DXF_CONTINUOUS_LINE
  6
CONTINUOUS
 62
     7
100
AcDbSpline
210
0.0
220
0.0
230
1.0
 70
    12
 71
     3
 72
     8
 73
     4
 74
     0
 42
0.000000001
 43
0.1
 40
0.0
 40
0.0
 40
0.0
 40
0.0
 40
1.113501856256867
 40
1.113501856256867
 40
1.113501856256867
 40
1.113501856256867
 10
216.9685792331
 20
342.6695780487
 30
0.0
 41
1.0
 10
217.2976727534432
 20
342.7166695442697
 30
0.0
 41
1.0
 10
217.2758016298961
 20
343.6352567319795
 30
0.0
 41
1.0
 10
216.9448398384
 20
343.6666326249
 30
0.0
 41
1.0
  0
SPLINE
  5
1F0
330
1F
100
AcDbEntity
  8
03_DXF_CONTINUOUS_LINE
  6
CONTINUOUS
 62
     7
100
AcDbSpline
210
0.0
220
0.0
230
1.0
 70
    12
 71
     3
 72
    13
 73
     9
 74
     0
 42
0.000000001
 43
0.1
 40
0.0
 40
0.0
 40
0.0
 40
0.0
 40
0.5156949121862974
 40
1.013868619918049
 40
1.520727032981644
 40
2.039995189851457
 40
2.56577352102935
 40
3.101287541948521
 40
3.101287541948521
 40
3.101287541948521
 40
3.101287541948521
 10
217.9496233521
 20
340.3457250662
 30
0.0
 41
1.0
 10
217.9496233521
 20
340.1738267621379
 30
0.0
 41
1.0
 10
217.9050925865714
 20
339.8341858298422
 30
0.0
 41
1.0
 10
217.7115845086633
 20
339.3601460012202
 30
0.0
 41
1.0
 10
217.4040908367254
 20
338.9485664359207
 30
0.0
 41
1.0
 10
216.9935492376831
 20
338.6239685889143
 30
0.0
 41
1.0
 10
216.5037735724807
 20
338.4141628823558
 30
0.0
 41
1.0
 10
216.1481280066397
 20
338.3657250471
 30
0.0
 41
1.0
 10
215.969623333
 20
338.3657250471
 30
0.0
 41
1.0
  0
SPLINE
  5
1F1
330
1F
100
AcDbEntity
  8
03_DXF_CONTINUOUS_LINE
  6
CONTINUOUS
 62
     7
100
AcDbSpline
210
0.0
220
0.0
230
1.0
 70
    12
 71
     3
 72
     8
 73
     4
 74
     0
 42
0.000000001
 43
0.1
 40
0.0
 40
0.0
 40
0.0
 40
0.0
 40
3.054976234179619
 40
3.054976234179619
 40
3.054976234179619
 40
3.054976234179619
 10
217.9496233521
 20
340.3657250471
 30
0.0
 41
1.0
 10
217.9496233521
 20
339.4229160055179
 30
0.0
 41
1.0
 10
216.892432393682
 20
338.3657250471
 30
0.0
 41
1.0
 10
215.9496233521
 20
338.3657250471
 30
0.0
 41
1.0
  0
SPLINE
  5
1F2
330
1F
100
AcDbEntity
  8
03_DXF_CONTINUOUS_LINE
  6
CONTINUOUS
 62
     7
100
AcDbSpline
210
0.0
220
0.0
230
1.0
 70
    12
 71
     3
 72
    13
 73
     9
 74
     0
 42
0.000000001
 43
0.1
 40
0.0
 40
0.0
 40
0.0
 40
0.0
 40
0.5156949121993243
 40
1.013868619893304
 40
1.520727032956922
 40
2.039995189905168
 40
2.565773520991146
 40
3.101287541910295
 40
3.101287541910295
 40
3.101287541910295
 40
3.101287541910295
 10
184.0496233521
 20
340.3457250662
 30
0.0
 41
1.0
 10
184.0496233521
 20
340.1738267621336
 30
0.0
 41
1.0
 10
184.0941541178022
 20
339.8341858298771
 30
0.0
 41
1.0
 10
184.2876621955027
 20
339.3601460011999
 30
0.0
 41
1.0
 10
184.5951558674895
 20
338.9485664358851
 30
0.0
 41
1.0
 10
185.0056974665849
 20
338.6239685889738
 30
0.0
 41
1.0
 10
185.4954731317394
 20
338.4141628823289
 30
0.0
 41
1.0
 10
185.8511186975603
 20
338.3657250471
 30
0.0
 41
1.0
 10
186.0296233712
 20
338.3657250471
 30
0.0
 41
1.0
  0
SPLINE
  5
1F3
330
1F
100
AcDbEntity
  8
03_DXF_CONTINUOUS_LINE
  6
CONTINUOUS
 62
     7
100
AcDbSpline
210
0.0
220
0.0
230
1.0
 70
    12
 71
     3
 72
    14
 73
    10
 74
     0
 42
0.000000001
 43
0.1
 40
0.0
 40
0.0
 40
0.0
 40
0.0
 40
0.1110545637724222
 40
0.3118046431957753
 40
0.6111923052024972
 40
0.9810561487523638
 40
1.375942856183324
 40
1.763787002491624
 40
2.126175053011761
 40
2.126175053011761
 40
2.126175053011761
 40
2.126175053011761
 10
307.4209039548
 20
282.5156470196
 30
0.0
 41
1.0
 10
307.4209038760148
 20
282.5526652075241
 30
0.0
 41
1.0
 10
307.3506278780641
 20
282.6460940136279
 30
0.0
 41
1.0
 10
307.171819336623
 20
282.7392071794629
 30
0.0
 41
1.0
 10
306.8975696634851
 20
282.8397151657333
 30
0.0
 41
1.0
 10
306.5523828946434
 20
282.9217899897088
 30
0.0
 41
1.0
 10
306.1725668277027
 20
282.9825328078731
 30
0.0
 41
1.0
 10
305.7919981250999
 20
283.0152557437103
 30
0.0
 41
1.0
 10
305.541648345844
 20
283.0191653248802
 30
0.0
 41
1.0
 10
305.4209039548
 20
283.0156340764
 30
0.0
 41
1.0
  0
SPLINE
  5
1F4
330
1F
100
AcDbEntity
  8
03_DXF_CONTINUOUS_LINE
  6
CONTINUOUS
 62
     7
100
AcDbSpline
210
0.0
220
0.0
230
1.0
 70
    12
 71
     3
 72
    14
 73
    10
 74
     0
 42
0.000000001
 43
0.1
 40
0.0
 40
0.0
 40
0.0
 40
0.0
 40
0.3621131163631889
 40
0.7516930778446249
 40
1.148442032697688
 40
1.518660423888794
 40
1.816448873230265
 40
2.015666922036994
 40
2.12606801544759
 40
2.12606801544759
 40
2.12606801544759
 40
2.12606801544759
 10
305.4209039548
 20
229.8156328055
 30
0.0
 41
1.0
 10
305.5415465928991
 20
229.8117728415598
 30
0.0
 41
1.0
 10
305.7924034081224
 20
229.8153911993878
 30
0.0
 41
1.0
 10
306.1740868365186
 20
229.848159574757
 30
0.0
 41
1.0
 10
306.5551522457434
 20
229.9095811157663
 30
0.0
 41
1.0
 10
306.9003424030931
 20
229.9924328648758
 30
0.0
 41
1.0
 10
307.1735476163449
 20
230.0932972445363
 30
0.0
 41
1.0
 10
307.3508735860145
 20
230.1862115374968
 30
0.0
 41
1.0
 10
307.4209038758687
 20
230.2788412205299
 30
0.0
 41
1.0
 10
307.4209039548
 20
230.315641585
 30
0.0
 41
1.0
  0
SPLINE
  5
1F5
330
1F
100
AcDbEntity
  8
03_DXF_CONTINUOUS_LINE
  6
CONTINUOUS
 62
     7
100
AcDbSpline
210
0.0
220
0.0
230
1.0
 70
    12
 71
     3
 72
    13
 73
     9
 74
     0
 42
0.000000001
 43
0.1
 40
0.0
 40
0.0
 40
0.0
 40
0.0
 40
0.1345621722971402
 40
0.3598995220429024
 40
0.7008973326600664
 40
1.127871681379345
 40
1.631314847346314
 40
2.140456349567629
 40
2.140456349567629
 40
2.140456349567629
 40
2.140456349567629
 10
307.4209039543
 20
282.515685796
 30
0.0
 41
1.0
 10
307.4254896933033
 20
282.5603048218292
 30
0.0
 41
1.0
 10
307.3498483333744
 20
282.6759358487358
 30
0.0
 41
1.0
 10
307.1398054725512
 20
282.7764390508628
 30
0.0
 41
1.0
 10
306.8235600351109
 20
282.8802431233242
 30
0.0
 41
1.0
 10
306.4061715066761
 20
282.9573985495238
 30
0.0
 41
1.0
 10
305.9282480344427
 20
283.0050363082928
 30
0.0
 41
1.0
 10
305.5906177715719
 20
283.0155542515101
 30
0.0
 41
1.0
 10
305.4209039548
 20
283.0156308852
 30
0.0
 41
1.0
  0
SPLINE
  5
1F6
330
1F
100
AcDbEntity
  8
03_DXF_CONTINUOUS_LINE
  6
CONTINUOUS
 62
     7
100
AcDbSpline
210
0.0
220
0.0
230
1.0
 70
    12
 71
     3
 72
    13
 73
     9
 74
     0
 42
0.000000001
 43
0.1
 40
0.0
 40
0.0
 40
0.0
 40
0.0
 40
0.4206329289680807
 40
0.8645844837001503
 40
1.295028834410642
 40
1.647930801252889
 40
1.881028353435737
 40
2.007202755121174
 40
2.007202755121174
 40
2.007202755121174
 40
2.007202755121174
 10
305.5386756557
 20
283.0156308852
 30
0.0
 41
1.0
 10
305.6788833799069
 20
283.016585848066
 30
0.0
 41
1.0
 10
305.967219990244
 20
283.0045670134404
 30
0.0
 41
1.0
 10
306.3962627105419
 20
282.951528910026
 30
0.0
 41
1.0
 10
306.7967390162146
 20
282.8690460509496
 30
0.0
 41
1.0
 10
307.1215014067554
 20
282.7608327231538
 30
0.0
 41
1.0
 10
307.3316111662611
 20
282.661374194123
 30
0.0
 41
1.0
 10
307.4209036437852
 20
282.557705153494
 30
0.0
 41
1.0
 10
307.4209039548
 20
282.5156470196
 30
0.0
 41
1.0
  0
SPLINE
  5
1F7
330
1F
100
AcDbEntity
  8
03_DXF_CONTINUOUS_LINE
  6
CONTINUOUS
 62
     7
100
AcDbSpline
210
0.0
220
0.0
230
1.0
 70
    12
 71
     3
 72
     8
 73
     4
 74
     0
 42
0.000000001
 43
0.1
 40
0.0
 40
0.0
 40
0.0
 40
0.0
 40
3.054974993623187
 40
3.054974993623187
 40
3.054974993623187
 40
3.054974993623187
 10
307.4209039548
 20
230.3156295809
 30
0.0
 41
1.0
 10
307.4209029798333
 20
229.3728208467213
 30
0.0
 41
1.0
 10
306.3637126889792
 20
228.3156308851
 30
0.0
 41
1.0
 10
305.4209039548
 20
228.3156308851
 30
0.0
 41
1.0
  0
SPLINE
  5
1F8
330
1F
100
AcDbEntity
  8
03_DXF_CONTINUOUS_LINE
  6
CONTINUOUS
 62
     7
100
AcDbSpline
210
0.0
220
0.0
230
1.0
 70
    12
 71
     3
 72
    13
 73
     9
 74
     0
 42
0.000000001
 43
0.1
 40
0.0
 40
0.0
 40
0.0
 40
0.0
 40
0.4711874654534939
 40
0.9627066802509029
 40
1.393412668086081
 40
1.749816470301856
 40
1.990693251765704
 40
2.13846220570683
 40
2.13846220570683
 40
2.13846220570683
 40
2.13846220570683
 10
305.4209039548
 20
229.8156308851
 30
0.0
 41
1.0
 10
305.5779596187489
 20
229.8141667435426
 30
0.0
 41
1.0
 10
305.8990330121894
 20
229.8231500425572
 30
0.0
 41
1.0
 10
306.3617471078371
 20
229.8685686158595
 30
0.0
 41
1.0
 10
306.781900730246
 20
229.9413571448854
 30
0.0
 41
1.0
 10
307.1121882007193
 20
230.0410792308208
 30
0.0
 41
1.0
 10
307.3349502681335
 20
230.1474498955558
 30
0.0
 41
1.0
 10
307.4220501332965
 20
230.2663879045374
 30
0.0
 41
1.0
 10
307.4209039543
 20
230.3156308851
 30
0.0
 41
1.0
  0
SPLINE
  5
1F9
330
1F
100
AcDbEntity
  8
03_DXF_CONTINUOUS_LINE
  6
CONTINUOUS
 62
     7
100
AcDbSpline
210
0.0
220
0.0
230
1.0
 70
    12
 71
     3
 72
    13
 73
     9
 74
     0
 42
0.000000001
 43
0.1
 40
0.0
 40
0.0
 40
0.0
 40
0.0
 40
0.4737208642149349
 40
1.000034001030985
 40
1.526358093620793
 40
2.072914113272953
 40
2.607072763067299
 40
3.133733678538502
 40
3.133733678538502
 40
3.133733678538502
 40
3.133733678538502
 10
305.4209039548
 20
228.3156308851
 30
0.0
 41
1.0
 10
305.5787012370894
 20
228.3097466640972
 30
0.0
 41
1.0
 10
305.9149031864719
 20
228.3489658026769
 30
0.0
 41
1.0
 10
306.3918236875276
 20
228.5414599636239
 30
0.0
 41
1.0
 10
306.8257302838155
 20
228.8606063357393
 30
0.0
 41
1.0
 10
307.1641971781013
 20
229.2848973083358
 30
0.0
 41
1.0
 10
307.3732808349563
 20
229.7847789545842
 30
0.0
 41
1.0
 10
307.421925482437
 20
230.1400802187171
 30
0.0
 41
1.0
 10
307.4209039543
 20
230.3156308851
 30
0.0
 41
1.0
  0
SPLINE
  5
1FA
330
1F
100
AcDbEntity
  8
03_DXF_CONTINUOUS_LINE
  6
CONTINUOUS
 62
     7
100
AcDbSpline
210
0.0
220
0.0
230
1.0
 70
    12
 71
     3
 72
    13
 73
     9
 74
     0
 42
0.000000001
 43
0.1
 40
0.0
 40
0.0
 40
0.0
 40
0.0
 40
0.5149573957998504
 40
1.052504668604276
 40
1.578834399081988
 40
2.114446413252324
 40
2.62737547743792
 40
3.1346495812688
 40
3.1346495812688
 40
3.1346495812688
 40
3.1346495812688
 10
305.4209039548
 20
228.3156308854
 30
0.0
 41
1.0
 10
305.5925559402109
 20
228.3152250078306
 30
0.0
 41
1.0
 10
305.9449181033441
 20
228.3616303385126
 30
0.0
 41
1.0
 10
306.4372737525683
 20
228.564652676904
 30
0.0
 41
1.0
 10
306.8621300731297
 20
228.8970219349135
 30
0.0
 41
1.0
 10
307.1832396819174
 20
229.3196351453374
 30
0.0
 41
1.0
 10
307.3852166306758
 20
229.8033390587481
 30
0.0
 41
1.0
 10
307.4261095590599
 20
230.146619665362
 30
0.0
 41
1.0
 10
307.4209039548
 20
230.3156308851
 30
0.0
 41
1.0
  0
SPLINE
  5
1FB
330
1F
100
AcDbEntity
  8
03_DXF_CONTINUOUS_LINE
  6
CONTINUOUS
 62
     7
100
AcDbSpline
210
0.0
220
0.0
230
1.0
 70
    12
 71
     3
 72
    13
 73
     9
 74
     0
 42
0.000000001
 43
0.1
 40
0.0
 40
0.0
 40
0.0
 40
0.0
 40
0.5109412761264751
 40
1.010235995714207
 40
1.433372799256992
 40
1.774497688433881
 40
2.002903323888962
 40
2.141637084088192
 40
2.141637084088192
 40
2.141637084088192
 40
2.141637084088192
 10
305.4209039548
 20
229.8156308854
 30
0.0
 41
1.0
 10
305.5912176837516
 20
229.8155302069872
 30
0.0
 41
1.0
 10
305.9280795113835
 20
229.8261896631759
 30
0.0
 41
1.0
 10
306.403890947057
 20
229.8739935574189
 30
0.0
 41
1.0
 10
306.8188637814408
 20
229.9492906281244
 30
0.0
 41
1.0
 10
307.1354019328493
 20
230.0519509886953
 30
0.0
 41
1.0
 10
307.3482593552937
 20
230.1510447013368
 30
0.0
 41
1.0
 10
307.426558599003
 20
230.2697333165255
 30
0.0
 41
1.0
 10
307.4209039548
 20
230.3156308851
 30
0.0
 41
1.0
  0
SPLINE
  5
1FC
330
1F
100
AcDbEntity
  8
03_DXF_CONTINUOUS_LINE
  6
CONTINUOUS
 62
     7
100
AcDbSpline
210
0.0
220
0.0
230
1.0
 70
    12
 71
     3
 72
    10
 73
     6
 74
     0
 42
0.000000001
 43
0.1
 40
0.0
 40
0.0
 40
0.0
 40
0.0
 40
0.1906849826425941
 40
0.3750690749932142
 40
0.5589389083447772
 40
0.5589389083447772
 40
0.5589389083447772
 40
0.5589389083447772
 10
294.4746644557
 20
284.8156308851
 30
0.0
 41
1.0
 10
294.4111127560197
 20
284.8167561413712
 30
0.0
 41
1.0
 10
294.2859332455973
 20
284.8138879621945
 30
0.0
 41
1.0
 10
294.1005841072493
 20
284.7927181084158
 30
0.0
 41
1.0
 10
293.9802446114128
 20
284.7674569562483
 30
0.0
 41
1.0
 10
293.9209039548
 20
284.7521225582
 30
0.0
 41
1.0
  0
SPLINE
  5
1FD
330
1F
100
AcDbEntity
  8
03_DXF_CONTINUOUS_LINE
  6
CONTINUOUS
 62
     7
100
AcDbSpline
210
0.0
220
0.0
230
1.0
 70
    12
 71
     3
 72
     8
 73
     4
 74
     0
 42
0.000000001
 43
0.1
 40
0.0
 40
0.0
 40
0.0
 40
0.0
 40
0.4992776730784603
 40
0.4992776730784603
 40
0.4992776730784603
 40
0.4992776730784603
 10
294.4209039548
 20
284.8156308851
 30
0.0
 41
1.0
 10
294.2544780637738
 20
284.8156308851
 30
0.0
 41
1.0
 10
294.0866586473605
 20
284.7821638958255
 30
0.0
 41
1.0
 10
293.9294659413
 20
284.7275010166
 30
0.0
 41
1.0
  0
SPLINE
  5
1FE
330
1F
100
AcDbEntity
  8
03_DXF_CONTINUOUS_LINE
  6
CONTINUOUS
 62
     7
100
AcDbSpline
210
0.0
220
0.0
230
1.0
 70
    12
 71
     3
 72
     8
 73
     4
 74
     0
 42
0.000000001
 43
0.1
 40
0.0
 40
0.0
 40
0.0
 40
0.0
 40
3.054976234179613
 40
3.054976234179613
 40
3.054976234179613
 40
3.054976234179613
 10
294.4209039548
 20
284.8156308851
 30
0.0
 41
1.0
 10
293.4780949132179
 20
284.8156308851
 30
0.0
 41
1.0
 10
292.4209039548
 20
283.7584399266821
 30
0.0
 41
1.0
 10
292.4209039548
 20
282.8156308851
 30
0.0
 41
1.0
  0
SPLINE
  5
1FF
330
1F
100
AcDbEntity
  8
03_DXF_CONTINUOUS_LINE
  6
CONTINUOUS
 62
     7
100
AcDbSpline
210
0.0
220
0.0
230
1.0
 70
    12
 71
     3
 72
    13
 73
     9
 74
     0
 42
0.000000001
 43
0.1
 40
0.0
 40
0.0
 40
0.0
 40
0.0
 40
0.5156949121001372
 40
1.013868619886752
 40
1.520727032950354
 40
2.039995189898624
 40
2.565773520984604
 40
3.101287541903755
 40
3.101287541903755
 40
3.101287541903755
 40
3.101287541903755
 10
294.4009039739
 20
228.0156308851
 30
0.0
 41
1.0
 10
294.2290056698666
 20
228.0156308851
 30
0.0
 41
1.0
 10
293.889364737622
 20
228.0601616508396
 30
0.0
 41
1.0
 10
293.4153249089205
 20
228.2536697284719
 30
0.0
 41
1.0
 10
293.0037453435862
 20
228.5611634004927
 30
0.0
 41
1.0
 10
292.6791474966736
 20
228.9717049995841
 30
0.0
 41
1.0
 10
292.469341790029
 20
229.4614806647396
 30
0.0
 41
1.0
 10
292.4209039548
 20
229.8171262305603
 30
0.0
 41
1.0
 10
292.4209039548
 20
229.9956309042
 30
0.0
 41
1.0
  0
SPLINE
  5
200
330
1F
100
AcDbEntity
  8
03_DXF_CONTINUOUS_LINE
  6
CONTINUOUS
 62
     7
100
AcDbSpline
210
0.0
220
0.0
230
1.0
 70
    12
 71
     3
 72
    13
 73
     9
 74
     0
 42
0.000000001
 43
0.1
 40
0.0
 40
0.0
 40
0.0
 40
0.0
 40
0.5156949120871129
 40
1.013868619911491
 40
1.52072703297509
 40
2.03999518984493
 40
2.565773521022827
 40
3.101287541942003
 40
3.101287541942003
 40
3.101287541942003
 40
3.101287541942003
 10
294.4009039739
 20
284.8156308851
 30
0.0
 41
1.0
 10
294.229005669871
 20
284.8156308851
 30
0.0
 41
1.0
 10
293.889364737587
 20
284.7711001195339
 30
0.0
 41
1.0
 10
293.4153249089411
 20
284.5775920416942
 30
0.0
 41
1.0
 10
293.0037453436217
 20
284.2700983697219
 30
0.0
 41
1.0
 10
292.679147496614
 20
283.859556770684
 30
0.0
 41
1.0
 10
292.4693417900559
 20
283.3697811054805
 30
0.0
 41
1.0
 10
292.4209039548
 20
283.0141355396397
 30
0.0
 41
1.0
 10
292.4209039548
 20
282.835630866
 30
0.0
 41
1.0
  0
DIMENSION
  5
20A
330
1F
100
AcDbEntity
  8
CAXA4
100
AcDbDimension
  2
*D1
 10
200.9996233522
 20
318.3204690032639
 30
0.0
 11
200.9996283522
 21
323.7404690032639
 31
0.0
 70
    32
  1
\f仿宋_GB2312;32
  3
标准
100
AcDbAlignedDimension
 13
184.9996233522
 23
341.3657250471
 33
0.0
 14
216.9996233522
 24
341.3657250471
 34
0.0
100
AcDbRotatedDimension
  0
DIMENSION
  5
214
330
1F
100
AcDbEntity
  8
CAXA4
100
AcDbDimension
  2
*D2
 10
271.0855047429579
 20
256.4156308851
 30
0.0
 11
265.6655047429579
 21
256.4156258851
 31
0.0
 70
    32
  1
\f仿宋_GB2312;54.7
  3
标准
100
AcDbAlignedDimension
 13
295.4209039548
 23
283.7656308851
 33
0.0
 14
295.4209039548
 24
229.0656308851
 34
0.0
 50
90.0
100
AcDbRotatedDimension
  0
DIMENSION
  5
21F
330
1F
100
AcDbEntity
  8
CAXA4
100
AcDbDimension
  2
*D3
 10
295.4209039548
 20
283.7656308851
 30
0.0
 11
329.9692945367384
 21
256.4156308851
 31
0.0
 70
    34
  1
\f仿宋_GB2312;2.73{%%D}
  3
标准
100
AcDb2LineAngularDimension
 13
305.9209039548
 23
229.3156308851
 33
0.0
 14
295.4209039548
 24
229.0656308851
 34
0.0
 15
305.9209039548
 25
283.5156308851
 35
0.0
 16
324.5492945367384
 26
256.4156308851
 36
0.0
  0
DIMENSION
  5
22A
330
1F
100
AcDbEntity
  8
CAXA4
100
AcDbDimension
  2
*D4
 10
216.9996233522
 20
341.3657250471
 30
0.0
 11
200.9996233521997
 21
379.6980970154021
 31
0.0
 70
    34
  1
\f仿宋_GB2312;2.73{%%D}
  3
标准
100
AcDb2LineAngularDimension
 13
185.2496233522
 23
351.8657250471
 33
0.0
 14
184.9996233522
 24
341.3657250471
 34
0.0
 15
216.7496233522
 25
351.8657250471
 35
0.0
 16
200.9996233521997
 26
374.2780970154021
 36
0.0
  0
DIMENSION
  5
234
330
1F
100
AcDbEntity
  8
CAXA4
100
AcDbDimension
  2
*D5
 10
233.6558820728512
 20
326.6691850470998
 30
0.0
 11
228.2358820728516
 21
326.6691850470998
 31
0.0
 70
    32
  1
\f仿宋_GB2312;10.5
  3
标准
100
AcDbAlignedDimension
 13
216.7496233522
 23
351.8657250471
 33
0.0
 14
218.7496233522
 24
341.3657250471
 34
0.0
 50
270.0
100
AcDbRotatedDimension
  0
DIMENSION
  5
23E
330
1F
100
AcDbEntity
  8
CAXA4
100
AcDbDimension
  2
*D6
 10
200.9996233522
 20
298.3416538199906
 30
0.0
 11
200.9996283522
 21
303.7616538199906
 31
0.0
 70
    32
  1
\f仿宋_GB2312;35.5
  3
标准
100
AcDbAlignedDimension
 13
183.2496233522
 23
283.0156308852
 33
0.0
 14
218.7496233522
 24
283.0156308851
 34
0.0
 50
180.0
100
AcDbRotatedDimension
  0
DIMENSION
  5
248
330
1F
100
AcDbEntity
  8
CAXA4
100
AcDbDimension
  2
*D7
 10
165.7924672637822
 20
256.4156308851
 30
0.0
 11
160.3724672637822
 21
256.4156258851
 31
0.0
 70
    32
  1
\f仿宋_GB2312;58.2
  3
标准
100
AcDbAlignedDimension
 13
185.7496233521
 23
285.5156308851
 33
0.0
 14
185.7496233524
 24
227.3156308851
 34
0.0
 50
90.0
100
AcDbRotatedDimension
  0
DIMENSION
  5
252
330
1F
100
AcDbEntity
  8
CAXA4
100
AcDbDimension
  2
*D8
 10
174.401250276004
 20
345.86572504685
 30
0.0
 11
168.981250276004
 21
345.86573004685
 31
0.0
 70
    32
  1
\f仿宋_GB2312;15
  3
标准
100
AcDbAlignedDimension
 13
186.0496233524
 23
338.3657250471
 33
0.0
 14
186.2496279345
 24
353.3657250466
 34
0.0
 50
90.0
100
AcDbRotatedDimension
  0
ENDSEC
  0
SECTION
  2
OBJECTS
  0
DICTIONARY
  5
C
330
0
100
AcDbDictionary
  3
ACAD_GROUP
350
D
  3
ACAD_LAYOUT
350
1A
  3
ACAD_MLEADERSTYLE
350
276
  3
ACAD_MLINESTYLE
350
17
  3
ACAD_PLOTSETTINGS
350
19
  3
ACAD_SCALELIST
350
3B
  3
ACAD_TABLESTYLE
350
275
  3
ACAD_VISUALSTYLE
350
2A
  3
ACDBHEADERROUNDTRIPXREC
350
253
  3
ACDBVARIABLEDICTIONARY
350
273
  0
DICTIONARY
  5
D
102
{ACAD_REACTORS
330
C
102
}
330
C
100
AcDbDictionary
  0
DICTIONARY
  5
1A
102
{ACAD_REACTORS
330
C
102
}
330
C
100
AcDbDictionary
  0
DICTIONARY
  5
276
102
{ACAD_REACTORS
330
C
102
}
330
C
100
AcDbDictionary
  0
DICTIONARY
  5
17
102
{ACAD_REACTORS
330
C
102
}
330
C
100
AcDbDictionary
  3
STANDARD
350
18
  0
DICTIONARY
  5
19
102
{ACAD_REACTORS
330
C
102
}
330
C
100
AcDbDictionary
  0
DICTIONARY
  5
3B
102
{ACAD_REACTORS
330
C
102
}
330
C
100
AcDbDictionary
  3
A0
350
3C
  3
A1
350
3D
  3
A2
350
3E
  3
A3
350
3F
  3
A4
350
40
  3
A5
350
41
  3
A6
350
42
  3
A7
350
43
  3
A8
350
44
  3
A9
350
45
  3
B0
350
46
  3
B1
350
47
  3
B2
350
48
  3
B3
350
49
  3
B4
350
4A
  3
B5
350
4B
  3
B6
350
4C
  3
B7
350
4D
  3
B8
350
4E
  3
B9
350
4F
  3
C0
350
50
  3
C1
350
51
  3
C2
350
52
  3
C3
350
53
  3
C4
350
54
  3
C5
350
55
  3
C6
350
56
  3
C7
350
57
  3
C8
350
58
  3
C9
350
59
  3
D0
350
5A
  3
D1
350
5B
  3
D2
350
5C
  0
DICTIONARY
  5
275
102
{ACAD_REACTORS
330
C
102
}
330
C
100
AcDbDictionary
  0
DICTIONARY
  5
2A
102
{ACAD_REACTORS
330
C
102
}
330
C
100
AcDbDictionary
  3
2DWIREFRAME
350
2F
  3
3D_HIDDEN
350
31
  3
3DWIREFRAME
350
30
  3
BASIC
350
32
  3
BRIGHTEN
350
36
  3
COLORCHANGE
350
3A
  3
CONCEPTUAL
350
34
  3
DIM
350
35
  3
FACEPATTERN
350
39
  3
FLAT
350
2B
  3
FLATWITHEDGES
350
2C
  3
GOURAUD
350
2D
  3
GOURAUDWITHEDGES
350
2E
  3
LINEPATTERN
350
38
  3
REALISTIC
350
33
  3
THICKEN
350
37
  0
DICTIONARY
  5
253
102
{ACAD_REACTORS
330
C
102
}
330
C
100
AcDbDictionary
  3
CEPSNTYPE
350
25C
  3
DIMSTYLEDATA
350
272
  3
FINGERPRINTGUID
350
25D
  3
HYPERLINKBASE
350
256
  3
INSUNITS
350
25B
  3
LAYOUTDICT
350
258
  3
LWETCUNION
350
25A
  3
PLOTSETDICT
350
259
  3
PSVPSCALE
350
25F
  3
PUCSBASE
350
262
  3
PUCSORGBACK
350
268
  3
PUCSORGBOTTOM
350
264
  3
PUCSORGFRONT
350
267
  3
PUCSORGLEFT
350
265
  3
PUCSORGRIGHT
350
266
  3
PUCSORGTOP
350
263
  3
PUCSORTHOREF
350
260
  3
PUCSORTHOVIEW
350
261
  3
STYLESHEET
350
257
  3
TSTACKALIGN
350
254
  3
TSTACKSIZE
350
255
  3
UCSBASE
350
26B
  3
UCSORGBACK
350
271
  3
UCSORGBOTTOM
350
26D
  3
UCSORGFRONT
350
270
  3
UCSORGLEFT
350
26E
  3
UCSORGRIGHT
350
26F
  3
UCSORGTOP
350
26C
  3
UCSORTHOREF
350
269
  3
UCSORTHOVIEW
350
26A
  3
VERSIONGUID
350
25E
  0
DICTIONARY
  5
273
102
{ACAD_REACTORS
330
C
102
}
330
C
100
AcDbDictionary
  3
CANNOSCALE
350
274
  3
PSOLHEIGHT
350
278
  3
PSOLWIDTH
350
277
  0
MLINESTYLE
  5
18
102
{ACAD_REACTORS
330
17
102
}
330
17
100
AcDbMlineStyle
  2
Standard
 70
     0
  3

 62
   256
 51
90.0
 52
90.0
 71
     2
 49
0.5
 62
   256
  6
BYLAYER
 49
-0.5
 62
   256
  6
BYLAYER
  0
SCALE
  5
3C
102
{ACAD_REACTORS
330
3B
102
}
330
3B
100
AcDbScale
 70
     0
300
1:1
140
1.0
141
1.0
290
     1
  0
SCALE
  5
3D
102
{ACAD_REACTORS
330
3B
102
}
330
3B
100
AcDbScale
 70
     0
300
1:2
140
1.0
141
2.0
290
     0
  0
SCALE
  5
3E
102
{ACAD_REACTORS
330
3B
102
}
330
3B
100
AcDbScale
 70
     0
300
1:4
140
1.0
141
4.0
290
     0
  0
SCALE
  5
3F
102
{ACAD_REACTORS
330
3B
102
}
330
3B
100
AcDbScale
 70
     0
300
1:5
140
1.0
141
5.0
290
     0
  0
SCALE
  5
40
102
{ACAD_REACTORS
330
3B
102
}
330
3B
100
AcDbScale
 70
     0
300
1:8
140
1.0
141
8.0
290
     0
  0
SCALE
  5
41
102
{ACAD_REACTORS
330
3B
102
}
330
3B
100
AcDbScale
 70
     0
300
1:10
140
1.0
141
10.0
290
     0
  0
SCALE
  5
42
102
{ACAD_REACTORS
330
3B
102
}
330
3B
100
AcDbScale
 70
     0
300
1:16
140
1.0
141
16.0
290
     0
  0
SCALE
  5
43
102
{ACAD_REACTORS
330
3B
102
}
330
3B
100
AcDbScale
 70
     0
300
1:20
140
1.0
141
20.0
290
     0
  0
SCALE
  5
44
102
{ACAD_REACTORS
330
3B
102
}
330
3B
100
AcDbScale
 70
     0
300
1:30
140
1.0
141
30.0
290
     0
  0
SCALE
  5
45
102
{ACAD_REACTORS
330
3B
102
}
330
3B
100
AcDbScale
 70
     0
300
1:40
140
1.0
141
40.0
290
     0
  0
SCALE
  5
46
102
{ACAD_REACTORS
330
3B
102
}
330
3B
100
AcDbScale
 70
     0
300
1:50
140
1.0
141
50.0
290
     0
  0
SCALE
  5
47
102
{ACAD_REACTORS
330
3B
102
}
330
3B
100
AcDbScale
 70
     0
300
1:100
140
1.0
141
100.0
290
     0
  0
SCALE
  5
48
102
{ACAD_REACTORS
330
3B
102
}
330
3B
100
AcDbScale
 70
     0
300
2:1
140
2.0
141
1.0
290
     0
  0
SCALE
  5
49
102
{ACAD_REACTORS
330
3B
102
}
330
3B
100
AcDbScale
 70
     0
300
4:1
140
4.0
141
1.0
290
     0
  0
SCALE
  5
4A
102
{ACAD_REACTORS
330
3B
102
}
330
3B
100
AcDbScale
 70
     0
300
8:1
140
8.0
141
1.0
290
     0
  0
SCALE
  5
4B
102
{ACAD_REACTORS
330
3B
102
}
330
3B
100
AcDbScale
 70
     0
300
10:1
140
10.0
141
1.0
290
     0
  0
SCALE
  5
4C
102
{ACAD_REACTORS
330
3B
102
}
330
3B
100
AcDbScale
 70
     0
300
100:1
140
100.0
141
1.0
290
     0
  0
SCALE
  5
4D
102
{ACAD_REACTORS
330
3B
102
}
330
3B
100
AcDbScale
 70
     0
300
1/128" = 1'-0"
140
0.0078125
141
12.0
290
     0
  0
SCALE
  5
4E
102
{ACAD_REACTORS
330
3B
102
}
330
3B
100
AcDbScale
 70
     0
300
1/64" = 1'-0"
140
0.015625
141
12.0
290
     0
  0
SCALE
  5
4F
102
{ACAD_REACTORS
330
3B
102
}
330
3B
100
AcDbScale
 70
     0
300
1/32" = 1'-0"
140
0.03125
141
12.0
290
     0
  0
SCALE
  5
50
102
{ACAD_REACTORS
330
3B
102
}
330
3B
100
AcDbScale
 70
     0
300
1/16" = 1'-0"
140
0.0625
141
12.0
290
     0
  0
SCALE
  5
51
102
{ACAD_REACTORS
330
3B
102
}
330
3B
100
AcDbScale
 70
     0
300
3/32" = 1'-0"
140
0.09375
141
12.0
290
     0
  0
SCALE
  5
52
102
{ACAD_REACTORS
330
3B
102
}
330
3B
100
AcDbScale
 70
     0
300
1/8" = 1'-0"
140
0.125
141
12.0
290
     0
  0
SCALE
  5
53
102
{ACAD_REACTORS
330
3B
102
}
330
3B
100
AcDbScale
 70
     0
300
3/16" = 1'-0"
140
0.1875
141
12.0
290
     0
  0
SCALE
  5
54
102
{ACAD_REACTORS
330
3B
102
}
330
3B
100
AcDbScale
 70
     0
300
1/4" = 1'-0"
140
0.25
141
12.0
290
     0
  0
SCALE
  5
55
102
{ACAD_REACTORS
330
3B
102
}
330
3B
100
AcDbScale
 70
     0
300
3/8" = 1'-0"
140
0.375
141
12.0
290
     0
  0
SCALE
  5
56
102
{ACAD_REACTORS
330
3B
102
}
330
3B
100
AcDbScale
 70
     0
300
1/2" = 1'-0"
140
0.5
141
12.0
290
     0
  0
SCALE
  5
57
102
{ACAD_REACTORS
330
3B
102
}
330
3B
100
AcDbScale
 70
     0
300
3/4" = 1'-0"
140
0.75
141
12.0
290
     0
  0
SCALE
  5
58
102
{ACAD_REACTORS
330
3B
102
}
330
3B
100
AcDbScale
 70
     0
300
1" = 1'-0"
140
1.0
141
12.0
290
     0
  0
SCALE
  5
59
102
{ACAD_REACTORS
330
3B
102
}
330
3B
100
AcDbScale
 70
     0
300
1-1/2" = 1'-0"
140
1.5
141
12.0
290
     0
  0
SCALE
  5
5A
102
{ACAD_REACTORS
330
3B
102
}
330
3B
100
AcDbScale
 70
     0
300
3" = 1'-0"
140
3.0
141
12.0
290
     0
  0
SCALE
  5
5B
102
{ACAD_REACTORS
330
3B
102
}
330
3B
100
AcDbScale
 70
     0
300
6" = 1'-0"
140
6.0
141
12.0
290
     0
  0
SCALE
  5
5C
102
{ACAD_REACTORS
330
3B
102
}
330
3B
100
AcDbScale
 70
     0
300
1'-0" = 1'-0"
140
12.0
141
12.0
290
     0
  0
VISUALSTYLE
  5
2F
102
{ACAD_REACTORS
330
2A
102
}
330
2A
100
AcDbVisualStyle
  2
2dWireframe
 70
     4
 71
     0
 72
     2
 73
     0
 90
        0
 40
-0.6
 41
-30.0
 62
     5
 63
     7
 74
     1
 91
        4
 64
     7
 65
   257
 75
     1
175
     1
 42
1.0
 92
        0
 66
   257
 43
1.0
 76
     1
 77
     6
 78
     2
 67
     7
 79
     5
170
     0
171
     0
290
     0
174
     0
 93
        1
 44
0.0
173
     0
291
     0
 45
0.0
1001
ACAD
1000
AcDbSavedByObjectVersion
1070
     0
  0
VISUALSTYLE
  5
31
102
{ACAD_REACTORS
330
2A
102
}
330
2A
100
AcDbVisualStyle
  2
3D Hidden
 70
     6
 71
     1
 72
     2
 73
     2
 90
        0
 40
-0.6
 41
-30.0
 62
     5
 63
     7
 74
     2
 91
        2
 64
     7
 65
   257
 75
     2
175
     1
 42
40.0
 92
        0
 66
   257
 43
1.0
 76
     1
 77
     6
 78
     2
 67
     7
 79
     3
170
     0
171
     0
290
     0
174
     0
 93
        1
 44
0.0
173
     0
291
     0
 45
0.0
1001
ACAD
1000
AcDbSavedByObjectVersion
1070
     0
  0
VISUALSTYLE
  5
30
102
{ACAD_REACTORS
330
2A
102
}
330
2A
100
AcDbVisualStyle
  2
3dWireframe
 70
     5
 71
     0
 72
     2
 73
     0
 90
        0
 40
-0.6
 41
-30.0
 62
     5
 63
     7
 74
     1
 91
        4
 64
     7
 65
   257
 75
     1
175
     1
 42
1.0
 92
        0
 66
   257
 43
1.0
 76
     1
 77
     6
 78
     2
 67
     7
 79
     5
170
     0
171
     0
290
     0
174
     0
 93
        1
 44
0.0
173
     0
291
     0
 45
0.0
1001
ACAD
1000
AcDbSavedByObjectVersion
1070
     0
  0
VISUALSTYLE
  5
32
102
{ACAD_REACTORS
330
2A
102
}
330
2A
100
AcDbVisualStyle
  2
Basic
 70
     7
 71
     1
 72
     0
 73
     1
 90
        0
 40
-0.6
 41
-30.0
 62
     5
 63
     7
 74
     0
 91
        4
 64
     7
 65
   257
 75
     1
175
     1
 42
1.0
 92
        8
 66
     7
 43
1.0
 76
     1
 77
     6
 78
     2
 67
     7
 79
     5
170
     0
171
     0
290
     0
174
     0
 93
        1
 44
0.0
173
     0
291
     1
 45
0.0
1001
ACAD
1000
AcDbSavedByObjectVersion
1070
     0
  0
VISUALSTYLE
  5
36
102
{ACAD_REACTORS
330
2A
102
}
330
2A
100
AcDbVisualStyle
  2
Brighten
 70
    12
 71
     2
 72
     2
 73
     0
 90
        0
 40
-0.6
 41
-30.0
 62
     5
 63
     7
 74
     1
 91
        4
 64
     7
 65
   257
 75
     1
175
     1
 42
1.0
 92
        8
 66
     7
 43
1.0
 76
     1
 77
     6
 78
     2
 67
     7
 79
     5
170
     0
171
     0
290
     0
174
     0
 93
        1
 44
50.0
173
     0
291
     1
 45
0.0
1001
ACAD
1000
AcDbSavedByObjectVersion
1070
     0
  0
VISUALSTYLE
  5
3A
102
{ACAD_REACTORS
330
2A
102
}
330
2A
100
AcDbVisualStyle
  2
ColorChange
 70
    16
 71
     2
 72
     2
 73
     3
 90
        0
 40
-0.6
 41
-30.0
 62
     5
 63
     8
 74
     1
 91
        4
 64
     7
 65
   257
 75
     1
175
     1
 42
1.0
 92
        8
 66
     8
 43
1.0
 76
     1
 77
     6
 78
     2
 67
     7
 79
     5
170
     0
171
     0
290
     0
174
     0
 93
        1
 44
0.0
173
     0
291
     1
 45
0.0
1001
ACAD
1000
AcDbSavedByObjectVersion
1070
     0
  0
VISUALSTYLE
  5
34
102
{ACAD_REACTORS
330
2A
102
}
330
2A
100
AcDbVisualStyle
  2
Conceptual
 70
     9
 71
     3
 72
     2
 73
     0
 90
        0
 40
-0.6
 41
-30.0
 62
     5
 63
     7
 74
     2
 91
        2
 64
     7
 65
   257
 75
     1
175
     1
 42
40.0
 92
        8
 66
     7
 43
1.0
 76
     1
 77
     6
 78
     2
 67
     7
 79
     3
170
     0
171
     0
290
     0
174
     0
 93
        1
 44
0.0
173
     0
291
     0
 45
0.0
1001
ACAD
1000
AcDbSavedByObjectVersion
1070
     0
  0
VISUALSTYLE
  5
35
102
{ACAD_REACTORS
330
2A
102
}
330
2A
100
AcDbVisualStyle
  2
Dim
 70
    11
 71
     2
 72
     2
 73
     0
 90
        0
 40
-0.6
 41
-30.0
 62
     5
 63
     7
 74
     1
 91
        4
 64
     7
 65
   257
 75
     1
175
     1
 42
1.0
 92
        8
 66
     7
 43
1.0
 76
     1
 77
     6
 78
     2
 67
     7
 79
     5
170
     0
171
     0
290
     0
174
     0
 93
        1
 44
-50.0
173
     0
291
     1
 45
0.0
1001
ACAD
1000
AcDbSavedByObjectVersion
1070
     0
  0
VISUALSTYLE
  5
39
102
{ACAD_REACTORS
330
2A
102
}
330
2A
100
AcDbVisualStyle
  2
Facepattern
 70
    15
 71
     2
 72
     2
 73
     0
 90
        0
 40
-0.6
 41
-30.0
 62
     5
 63
     7
 74
     1
 91
        4
 64
     7
 65
   257
 75
     1
175
     1
 42
1.0
 92
        8
 66
     7
 43
1.0
 76
     1
 77
     6
 78
     2
 67
     7
 79
     5
170
     0
171
     0
290
     0
174
     0
 93
        1
 44
0.0
173
     0
291
     1
 45
0.0
1001
ACAD
1000
AcDbSavedByObjectVersion
1070
     0
  0
VISUALSTYLE
  5
2B
102
{ACAD_REACTORS
330
2A
102
}
330
2A
100
AcDbVisualStyle
  2
Flat
 70
     0
 71
     2
 72
     1
 73
     1
 90
        2
 40
-0.6
 41
30.0
 62
     5
 63
     7
 74
     0
 91
        4
 64
     7
 65
   257
 75
     1
175
     1
 42
1.0
 92
        8
 66
     7
 43
1.0
 76
     1
 77
     6
 78
     2
 67
     7
 79
     5
170
     0
171
     0
290
     0
174
     0
 93
       13
 44
0.0
173
     0
291
     1
 45
0.0
1001
ACAD
1000
AcDbSavedByObjectVersion
1070
     0
  0
VISUALSTYLE
  5
2C
102
{ACAD_REACTORS
330
2A
102
}
330
2A
100
AcDbVisualStyle
  2
FlatWithEdges
 70
     1
 71
     2
 72
     1
 73
     1
 90
        2
 40
-0.6
 41
30.0
 62
     5
 63
     7
 74
     1
 91
        4
 64
     7
 65
   257
 75
     1
175
     1
 42
1.0
 92
        0
 66
   257
 43
1.0
 76
     1
 77
     6
 78
     2
 67
     7
 79
     5
170
     0
171
     0
290
     0
174
     0
 93
       13
 44
0.0
173
     0
291
     1
 45
0.0
1001
ACAD
1000
AcDbSavedByObjectVersion
1070
     0
  0
VISUALSTYLE
  5
2D
102
{ACAD_REACTORS
330
2A
102
}
330
2A
100
AcDbVisualStyle
  2
Gouraud
 70
     2
 71
     2
 72
     2
 73
     1
 90
        2
 40
-0.6
 41
30.0
 62
     5
 63
     7
 74
     0
 91
        4
 64
     7
 65
   257
 75
     1
175
     1
 42
1.0
 92
        0
 66
     7
 43
1.0
 76
     1
 77
     6
 78
     2
 67
     7
 79
     5
170
     0
171
     0
290
     0
174
     0
 93
       13
 44
0.0
173
     0
291
     1
 45
0.0
1001
ACAD
1000
AcDbSavedByObjectVersion
1070
     0
  0
VISUALSTYLE
  5
2E
102
{ACAD_REACTORS
330
2A
102
}
330
2A
100
AcDbVisualStyle
  2
GouraudWithEdges
 70
     3
 71
     2
 72
     2
 73
     1
 90
        2
 40
-0.6
 41
30.0
 62
     5
 63
     7
 74
     1
 91
        4
 64
     7
 65
   257
 75
     1
175
     1
 42
1.0
 92
        0
 66
   257
 43
1.0
 76
     1
 77
     6
 78
     2
 67
     7
 79
     5
170
     0
171
     0
290
     0
174
     0
 93
       13
 44
0.0
173
     0
291
     1
 45
0.0
1001
ACAD
1000
AcDbSavedByObjectVersion
1070
     0
  0
VISUALSTYLE
  5
38
102
{ACAD_REACTORS
330
2A
102
}
330
2A
100
AcDbVisualStyle
  2
Linepattern
 70
    14
 71
     2
 72
     2
 73
     0
 90
        0
 40
-0.6
 41
-30.0
 62
     5
 63
     7
 74
     1
 91
        4
 64
     7
 65
   257
 75
     7
175
     7
 42
1.0
 92
        8
 66
     7
 43
1.0
 76
     1
 77
     6
 78
     2
 67
     7
 79
     5
170
     0
171
     0
290
     0
174
     0
 93
        1
 44
0.0
173
     0
291
     1
 45
0.0
1001
ACAD
1000
AcDbSavedByObjectVersion
1070
     0
  0
VISUALSTYLE
  5
33
102
{ACAD_REACTORS
330
2A
102
}
330
2A
100
AcDbVisualStyle
  2
Realistic
 70
     8
 71
     2
 72
     2
 73
     0
 90
        0
 40
-0.6
 41
-30.0
 62
     5
 63
     7
 74
     1
 91
        0
 64
     7
 65
   257
 75
     1
175
     1
 42
1.0
 92
        8
 66
     8
 43
1.0
 76
     1
 77
     6
 78
     2
 67
     7
 79
     5
170
     0
171
     0
290
     0
174
     0
 93
       13
 44
0.0
173
     0
291
     0
 45
0.0
1001
ACAD
1000
AcDbSavedByObjectVersion
1070
     0
  0
VISUALSTYLE
  5
37
102
{ACAD_REACTORS
330
2A
102
}
330
2A
100
AcDbVisualStyle
  2
Thicken
 70
    13
 71
     2
 72
     2
 73
     0
 90
        0
 40
-0.6
 41
-30.0
 62
     5
 63
     7
 74
     1
 91
        4
 64
     7
 65
   257
 75
     1
175
     1
 42
1.0
 92
       12
 66
     7
 43
1.0
 76
     1
 77
     6
 78
     2
 67
     7
 79
     5
170
     0
171
     0
290
     0
174
     0
 93
        1
 44
0.0
173
     0
291
     1
 45
0.0
1001
ACAD
1000
AcDbSavedByObjectVersion
1070
     0
  0
XRECORD
  5
25C
102
{ACAD_REACTORS
330
253
102
}
330
253
100
AcDbXrecord
 90
        0
  0
XRECORD
  5
272
102
{ACAD_REACTORS
330
253
102
}
330
253
100
AcDbXrecord
1000
DSTYLE
1002
{
1070
   179
 70
     2
1070
   171
 70
     2
1070
   143
 40
25.4
1070
   274
 70
     2
1070
    41
 40
4.0
1070
    79
 70
     2
1070
   141
 40
0.0
1070
   271
 70
     1
1070
    46
 40
6.0
1070
    43
 40
0.38
1070
   278
 70
    46
1070
    44
 40
2.0
1070
    42
 40
0.0
1070
   272
 70
     3
1070
   283
 70
     1
1070
   340
340
75
1070
   140
 40
7.0
1070
   284
 70
     0
1002
}
  0
XRECORD
  5
25D
102
{ACAD_REACTORS
330
253
102
}
330
253
100
AcDbXrecord
  1
{DDF9B5BB-95AA-4FDC-9703-866A822B6679}
  0
XRECORD
  5
256
102
{ACAD_REACTORS
330
253
102
}
330
253
100
AcDbXrecord
  1

  0
XRECORD
  5
25B
102
{ACAD_REACTORS
330
253
102
}
330
253
100
AcDbXrecord
 90
        4
  0
XRECORD
  5
258
102
{ACAD_REACTORS
330
253
102
}
330
253
100
AcDbXrecord
340
1A
  0
XRECORD
  5
25A
102
{ACAD_REACTORS
330
253
102
}
330
253
100
AcDbXrecord
 90
    10781
  0
XRECORD
  5
259
102
{ACAD_REACTORS
330
253
102
}
330
253
100
AcDbXrecord
340
19
  0
XRECORD
  5
25F
102
{ACAD_REACTORS
330
253
102
}
330
253
100
AcDbXrecord
 40
0.0
  0
XRECORD
  5
262
102
{ACAD_REACTORS
330
253
102
}
330
253
100
AcDbXrecord
340
0
  0
XRECORD
  5
268
102
{ACAD_REACTORS
330
253
102
}
330
253
100
AcDbXrecord
 10
0.0
 20
0.0
 30
0.0
  0
XRECORD
  5
264
102
{ACAD_REACTORS
330
253
102
}
330
253
100
AcDbXrecord
 10
0.0
 20
0.0
 30
0.0
  0
XRECORD
  5
267
102
{ACAD_REACTORS
330
253
102
}
330
253
100
AcDbXrecord
 10
0.0
 20
0.0
 30
0.0
  0
XRECORD
  5
265
102
{ACAD_REACTORS
330
253
102
}
330
253
100
AcDbXrecord
 10
0.0
 20
0.0
 30
0.0
  0
XRECORD
  5
266
102
{ACAD_REACTORS
330
253
102
}
330
253
100
AcDbXrecord
 10
0.0
 20
0.0
 30
0.0
  0
XRECORD
  5
263
102
{ACAD_REACTORS
330
253
102
}
330
253
100
AcDbXrecord
 10
0.0
 20
0.0
 30
0.0
  0
XRECORD
  5
260
102
{ACAD_REACTORS
330
253
102
}
330
253
100
AcDbXrecord
340
0
  0
XRECORD
  5
261
102
{ACAD_REACTORS
330
253
102
}
330
253
100
AcDbXrecord
 70
     0
  0
XRECORD
  5
257
102
{ACAD_REACTORS
330
253
102
}
330
253
100
AcDbXrecord
  1

  0
XRECORD
  5
254
102
{ACAD_REACTORS
330
253
102
}
330
253
100
AcDbXrecord
 90
        1
  0
XRECORD
  5
255
102
{ACAD_REACTORS
330
253
102
}
330
253
100
AcDbXrecord
 90
       70
  0
XRECORD
  5
26B
102
{ACAD_REACTORS
330
253
102
}
330
253
100
AcDbXrecord
340
0
  0
XRECORD
  5
271
102
{ACAD_REACTORS
330
253
102
}
330
253
100
AcDbXrecord
 10
0.0
 20
0.0
 30
0.0
  0
XRECORD
  5
26D
102
{ACAD_REACTORS
330
253
102
}
330
253
100
AcDbXrecord
 10
0.0
 20
0.0
 30
0.0
  0
XRECORD
  5
270
102
{ACAD_REACTORS
330
253
102
}
330
253
100
AcDbXrecord
 10
0.0
 20
0.0
 30
0.0
  0
XRECORD
  5
26E
102
{ACAD_REACTORS
330
253
102
}
330
253
100
AcDbXrecord
 10
0.0
 20
0.0
 30
0.0
  0
XRECORD
  5
26F
102
{ACAD_REACTORS
330
253
102
}
330
253
100
AcDbXrecord
 10
0.0
 20
0.0
 30
0.0
  0
XRECORD
  5
26C
102
{ACAD_REACTORS
330
253
102
}
330
253
100
AcDbXrecord
 10
0.0
 20
0.0
 30
0.0
  0
XRECORD
  5
269
102
{ACAD_REACTORS
330
253
102
}
330
253
100
AcDbXrecord
340
0
  0
XRECORD
  5
26A
102
{ACAD_REACTORS
330
253
102
}
330
253
100
AcDbXrecord
 70
     0
  0
XRECORD
  5
25E
102
{ACAD_REACTORS
330
253
102
}
330
253
100
AcDbXrecord
  1
{FAEB1C32-E019-11D5-929B-00C0DF256EC4}
  0
DICTIONARYVAR
  5
274
102
{ACAD_REACTORS
330
273
102
}
330
273
100
DictionaryVariables
280
     0
  1
1:1
  0
DICTIONARYVAR
  5
278
102
{ACAD_REACTORS
330
273
102
}
330
273
100
DictionaryVariables
280
     0
  1
80.000000
  0
DICTIONARYVAR
  5
277
102
{ACAD_REACTORS
330
273
102
}
330
273
100
DictionaryVariables
280
     0
  1
5.000000
  0
ENDSEC
  0
EOF
