999
DXF file: B-006.dxf
999
Pro/ENGINEER 2009360 by Parametric Technology Corporation
  0
SECTION
  2
HEADER
  9
$ACADVER
  1
AC1014
  9
$DWGCODEPAGE
  3
ANSI_936
  9
$EXTMAX
 10
841.0
 20
594.0
 30
0.0
  9
$EXTMIN
 10
0.0
 20
0.0
 30
0.0
  9
$LIMMIN
 10
0.0
 20
0.0
  9
$LIMMAX
 10
841.0
 20
594.0
  9
$VIEWCTR
 10
420.5
 20
297.0
  9
$VIEWSIZE
 40
594.0
  9
$CLAYER
  8
0
  9
$LTSCALE
 40
46.255
  9
$CELTYPE
  6
BYLAYER
  9
$DIMSCALE
 40
1.0
  9
$DIMASZ
 40
3.5
  9
$DIMEXO
 40
5.25625
  9
$DIMDLI
 40
31.958
  9
$DIMEXE
 40
15.138
  9
$DIMCEN
 40
7.569
  9
$DIMLFAC
 40
1.0
  9
$DIMBLK
  1
_ARROW_FILLED
  9
$DIMTXT
 40
3.5
  9
$DIMTOL
 70
1
  9
$DIMLIM
 70
0
  9
$DIMTFAC
 40
1.0
  9
$DIMTP
 40
0.01
  9
$DIMTM
 40
0.01
  9
$PDMODE
 70
3
  9
$PDSIZE
 40
8.0
  9
$HANDSEED
  5
55C
  9
$TILEMODE
 70
1
  9
$MEASUREMENT
 70
1
  0
ENDSEC
  0
SECTION
  2
CLASSES
  0
ENDSEC
  0
SECTION
  2
TABLES
  0
TABLE
  2
VPORT
  5
8
100
AcDbSymbolTable
 70
2
  0
VPORT
  5
1F4
100
AcDbSymbolTableRecord
100
AcDbViewportTableRecord
  2
*ACTIVE
 70
0
 10
0.0
 20
0.0
 11
1.0
 21
1.0
 12
420.5
 22
297.0
 13
0.0
 23
0.0
 14
1.0
 24
1.0
 15
0.0
 25
0.0
 16
0.0
 26
0.0
 36
1.0
 17
0.0
 27
0.0
 37
0.0
 40
594.0
 41
1.4158249158
 42
50.0
 43
0.0
 44
0.0
 50
0.0
 51
0.0
 71
0
 72
100
 73
1
 74
1
 75
0
 76
0
 77
0
 78
0
  0
ENDTAB
  0
TABLE
  2
LTYPE
  5
5
100
AcDbSymbolTable
 70
6
  0
LTYPE
  5
14
100
AcDbSymbolTableRecord
100
AcDbLinetypeTableRecord
  2
BYBLOCK
 70
0
  3

 72
65
 73
0
 40
0.0
  0
LTYPE
  5
15
100
AcDbSymbolTableRecord
100
AcDbLinetypeTableRecord
  2
BYLAYER
 70
0
  3

 72
65
 73
0
 40
0.0
  0
LTYPE
  5
16
100
AcDbSymbolTableRecord
100
AcDbLinetypeTableRecord
  2
CONTINUOUS
 70
64
  3
Solid line
 72
65
 73
0
 40
0.0
  0
LTYPE
  5
1F5
100
AcDbSymbolTableRecord
100
AcDbLinetypeTableRecord
  2
CENTER
 70
64
  3
____ _ ____ _ ____ _ ____ _ ____ _ ____ _ ____
 72
65
 73
4
 40
0.6
 49
0.375
 74
0
 49
-0.075
 74
0
 49
0.075
 74
0
 49
-0.075
 74
0
  0
LTYPE
  5
1F6
100
AcDbSymbolTableRecord
100
AcDbLinetypeTableRecord
  2
HIDDEN
 70
64
  3
- - - - - - - - - - - - - - - - - - - -
 72
65
 73
2
 40
0.2
 49
0.1
 74
0
 49
-0.1
 74
0
  0
LTYPE
  5
1F7
100
AcDbSymbolTableRecord
100
AcDbLinetypeTableRecord
  2
PHANTOM
 70
64
  3
_____ _ _ _____ _ _ _____ _ _ _____
 72
65
 73
6
 40
0.8
 49
0.45
 74
0
 49
-0.05
 74
0
 49
0.1
 74
0
 49
-0.05
 74
0
 49
0.1
 74
0
 49
-0.05
 74
0
  0
LTYPE
  5
1F8
100
AcDbSymbolTableRecord
100
AcDbLinetypeTableRecord
  2
DOT
 70
64
  3
. . . . . . . . . . . . . . . . . . . .
 72
65
 73
2
 40
0.2
 49
0.1
 74
0
 49
-0.1
 74
0
  0
LTYPE
  5
1F9
100
AcDbSymbolTableRecord
100
AcDbLinetypeTableRecord
  2
DASHED
 70
64
  3
- - - - - - - - - - - - - - - - - - - -
 72
65
 73
2
 40
0.2
 49
0.1
 74
0
 49
-0.1
 74
0
  0
ENDTAB
  0
TABLE
  2
LAYER
  5
2
100
AcDbSymbolTable
 70
36
  0
LAYER
  5
10
100
AcDbSymbolTableRecord
100
AcDbLayerTableRecord
  2
0
 70
0
 62
7
  6
CONTINUOUS
  0
LAYER
  5
1FA
100
AcDbSymbolTableRecord
100
AcDbLayerTableRecord
  2
DEFAULT_1
 70
0
 62
7
  6
CENTER
  0
LAYER
  5
1FB
100
AcDbSymbolTableRecord
100
AcDbLayerTableRecord
  2
DEFAULT_2
 70
0
 62
8
  6
HIDDEN
  0
LAYER
  5
1FC
100
AcDbSymbolTableRecord
100
AcDbLayerTableRecord
  2
DEFAULT_3
 70
0
 62
7
  6
PHANTOM
  0
LAYER
  5
1FD
100
AcDbSymbolTableRecord
100
AcDbLayerTableRecord
  2
06___PRT_ALL_SURFS
 70
0
 62
7
  6
CONTINUOUS
  0
LAYER
  5
1FE
100
AcDbSymbolTableRecord
100
AcDbLayerTableRecord
  2
3_ALL_SYMBOLS
 70
0
 62
7
  6
CONTINUOUS
  0
ENDTAB
  0
TABLE
  2
STYLE
  5
3
100
AcDbSymbolTable
 70
1
  0
STYLE
  5
11
100
AcDbSymbolTableRecord
100
AcDbTextStyleTableRecord
  2
STANDARD
 70
0
 40
0.0
 41
0.85
 50
0.0
 71
0
 42
0.2
  3
txt
  4

  0
STYLE
  5
1FF
100
AcDbSymbolTableRecord
100
AcDbTextStyleTableRecord
  2
TEXTSTYLE_1
 70
0
 40
0.0
 41
0.8
 50
0.0
 71
0
 42
0.2
  3
gdt
  4

  0
STYLE
  5
200
100
AcDbSymbolTableRecord
100
AcDbTextStyleTableRecord
  2
TEXTSTYLE_2
 70
0
 40
0.0
 41
0.8
 50
0.0
 71
0
 42
0.2
  3
txt
  4

  0
ENDTAB
  0
TABLE
  2
VIEW
  5
6
100
AcDbSymbolTable
 70
0
  0
ENDTAB
  0
TABLE
  2
UCS
  5
7
100
AcDbSymbolTable
 70
0
  0
ENDTAB
  0
TABLE
  2
APPID
  5
9
100
AcDbSymbolTable
 70
1
  0
APPID
  5
201
100
AcDbSymbolTableRecord
100
AcDbRegAppTableRecord
  2
ACAD
 70
0
  0
ENDTAB
  0
TABLE
  2
BLOCK_RECORD
  5
1
100
AcDbSymbolTable
 70
0
  0
BLOCK_RECORD
  5
1F
100
AcDbSymbolTableRecord
100
AcDbBlockTableRecord
  2
*MODEL_SPACE
  0
BLOCK_RECORD
  5
1B
100
AcDbSymbolTableRecord
100
AcDbBlockTableRecord
  2
*PAPER_SPACE
  0
BLOCK_RECORD
  5
202
100
AcDbSymbolTableRecord
100
AcDbBlockTableRecord
  2
SYMBOL_5_BL2
  0
BLOCK_RECORD
  5
203
100
AcDbSymbolTableRecord
100
AcDbBlockTableRecord
  2
SYMBOL_3_BL1
  0
BLOCK_RECORD
  5
204
100
AcDbSymbolTableRecord
100
AcDbBlockTableRecord
  2
SYMBOL_1_BL0
  0
ENDTAB
  0
TABLE
  2
DIMSTYLE
  5
A
100
AcDbSymbolTable
 70
1
  0
DIMSTYLE
105
205
100
AcDbSymbolTableRecord
100
AcDbDimStyleTableRecord
  2
STANDARD
 70
0
  3

  4

  5
_ARROW_FILLED
  6
_ARROW_FILLED
  7
_ARROW_FILLED
 40
1.0
 41
3.5
 42
0.0625
 43
0.38
 44
0.18
 45
0.0
 46
0.0
 47
0.01
 48
0.01
140
3.5
141
0.09
142
0.0
143
25.4
144
1.0
145
0.0
146
1.0
147
0.09
 71
1.0
 72
0.0
 73
0
 74
0
 75
0
 76
0
 77
1
 78
8
170
0
171
2
172
0
173
0
174
0
175
0
176
0
177
0
178
0
270
2
271
2
272
2
273
2
274
2
275
0
280
0
281
0
282
0
283
1
284
8
285
0
286
0
287
3
288
0
340
11
  0
ENDTAB
  0
ENDSEC
  0
SECTION
  2
BLOCKS
  0
BLOCK
  5
20
100
AcDbEntity
  8
0
100
AcDbBlockBegin
  2
*MODEL_SPACE
 70
0
 10
0.0
 20
0.0
 30
0.0
  3
*MODEL_SPACE
  1

  0
ENDBLK
  5
21
100
AcDbEntity
  8
0
100
AcDbBlockEnd
  0
BLOCK
  5
1C
100
AcDbEntity
  8
0
100
AcDbBlockBegin
  2
*PAPER_SPACE
 70
0
 10
0.0
 20
0.0
 30
0.0
  3
*PAPER_SPACE
  1

  0
ENDBLK
  5
1D
100
AcDbEntity
  8
0
100
AcDbBlockEnd
  0
BLOCK
  5
206
100
AcDbEntity
  8
3_ALL_SYMBOLS
100
AcDbBlockBegin
 62
2
  6
CONTINUOUS
  2
SYMBOL_5_BL2
 70
64
 10
562.110469004
 20
214.8244875279
  3
SYMBOL_5_BL2
  1

  0
LINE
  5
207
100
AcDbEntity
  8
3_ALL_SYMBOLS
100
AcDbLine
 62
7
  6
CONTINUOUS
 10
540.5330257833
 20
200.8788194092
 11
563.3930257833
 21
200.8788194092
  0
LINE
  5
208
100
AcDbEntity
  8
3_ALL_SYMBOLS
100
AcDbLine
 62
7
  6
CONTINUOUS
 10
540.5330257833
 20
208.4988194092
 11
540.5330257833
 21
200.8788194092
  0
LINE
  5
209
100
AcDbEntity
  8
3_ALL_SYMBOLS
100
AcDbLine
 62
7
  6
CONTINUOUS
 10
555.7730257833
 20
208.4988194092
 11
540.5330257833
 21
208.4988194092
  0
LINE
  5
20A
100
AcDbEntity
  8
3_ALL_SYMBOLS
100
AcDbLine
 62
7
  6
CONTINUOUS
 10
555.7730257833
 20
238.9788194092
 11
555.7730257833
 21
208.4988194092
  0
LINE
  5
20B
100
AcDbEntity
  8
3_ALL_SYMBOLS
100
AcDbLine
 62
7
  6
CONTINUOUS
 10
563.3930257833
 20
200.8788194092
 11
563.3930257833
 21
238.9788194092
  0
LINE
  5
20C
100
AcDbEntity
  8
3_ALL_SYMBOLS
100
AcDbLine
 62
7
  6
CONTINUOUS
 10
563.3930257833
 20
238.9788194092
 11
555.7730257833
 21
238.9788194092
  0
MTEXT
  5
20D
100
AcDbEntity
  8
3_ALL_SYMBOLS
100
AcDbMText
 62
2
  6
CONTINUOUS
  7
STANDARD
 71
1
 72
1
 10
536.809687754
 20
194.6389056467
 30
0.0
 11
1.0
 21
0.0
 31
0.0
  1
VIEW_TEMPLATE_3
 40
3.96875
 41
50.6015625
  0
ENDBLK
  5
20E
100
AcDbEntity
  8
0
  6
BYBLOCK
 62
0
100
AcDbBlockEnd
  0
BLOCK
  5
20F
100
AcDbEntity
  8
3_ALL_SYMBOLS
100
AcDbBlockBegin
 62
2
  6
CONTINUOUS
  2
SYMBOL_3_BL1
 70
64
 10
246.9215669233
 20
444.8928088266
  3
SYMBOL_3_BL1
  1

  0
LINE
  5
210
100
AcDbEntity
  8
3_ALL_SYMBOLS
100
AcDbLine
 62
7
  6
CONTINUOUS
 10
221.2961289821
 20
461.2847190807
 11
221.2961289821
 21
438.4247190807
  0
LINE
  5
211
100
AcDbEntity
  8
3_ALL_SYMBOLS
100
AcDbLine
 62
7
  6
CONTINUOUS
 10
228.9161289821
 20
461.2847190807
 11
228.9161289821
 21
453.6647190807
  0
LINE
  5
212
100
AcDbEntity
  8
3_ALL_SYMBOLS
100
AcDbLine
 62
7
  6
CONTINUOUS
 10
221.2961289821
 20
438.4247190807
 11
259.3961289821
 21
438.4247190807
  0
LINE
  5
213
100
AcDbEntity
  8
3_ALL_SYMBOLS
100
AcDbLine
 62
7
  6
CONTINUOUS
 10
221.2961289821
 20
453.6647190807
 11
259.3961289821
 21
453.6647190807
  0
LINE
  5
214
100
AcDbEntity
  8
3_ALL_SYMBOLS
100
AcDbLine
 62
7
  6
CONTINUOUS
 10
221.2961289821
 20
461.2847190807
 11
259.3961289821
 21
461.2847190807
  0
LINE
  5
215
100
AcDbEntity
  8
3_ALL_SYMBOLS
100
AcDbLine
 62
7
  6
CONTINUOUS
 10
259.3961289821
 20
461.2847190807
 11
259.3961289821
 21
438.4247190807
  0
MTEXT
  5
216
100
AcDbEntity
  8
3_ALL_SYMBOLS
100
AcDbMText
 62
2
  6
CONTINUOUS
  7
STANDARD
 71
1
 72
1
 10
221.9454423644
 20
432.4696485724
 30
0.0
 11
1.0
 21
0.0
 31
0.0
  1
VIEW_TEMPLATE_2
 40
3.96875
 41
50.6015625
  0
ENDBLK
  5
217
100
AcDbEntity
  8
0
  6
BYBLOCK
 62
0
100
AcDbBlockEnd
  0
BLOCK
  5
218
100
AcDbEntity
  8
3_ALL_SYMBOLS
100
AcDbBlockBegin
 62
2
  6
CONTINUOUS
  2
SYMBOL_1_BL0
 70
64
 10
239.0827409732
 20
218.2000723938
  3
SYMBOL_1_BL0
  1

  0
LINE
  5
219
100
AcDbEntity
  8
3_ALL_SYMBOLS
100
AcDbLine
 62
7
  6
CONTINUOUS
 10
213.4573030321
 20
235.4423434642
 11
221.0773030321
 21
243.0623434642
  0
LINE
  5
21A
100
AcDbEntity
  8
3_ALL_SYMBOLS
100
AcDbLine
 62
7
  6
CONTINUOUS
 10
213.4573030321
 20
235.4423434642
 11
213.4573030321
 21
204.9623434642
  0
LINE
  5
21B
100
AcDbEntity
  8
3_ALL_SYMBOLS
100
AcDbLine
 62
7
  6
CONTINUOUS
 10
213.4573030321
 20
204.9623434642
 11
251.5573030321
 21
204.9623434642
  0
LINE
  5
21C
100
AcDbEntity
  8
3_ALL_SYMBOLS
100
AcDbLine
 62
7
  6
CONTINUOUS
 10
213.4573030321
 20
212.5823434642
 11
251.5573030321
 21
212.5823434642
  0
LINE
  5
21D
100
AcDbEntity
  8
3_ALL_SYMBOLS
100
AcDbLine
 62
7
  6
CONTINUOUS
 10
251.5573030321
 20
243.0623434642
 11
251.5573030321
 21
204.9623434642
  0
LINE
  5
21E
100
AcDbEntity
  8
3_ALL_SYMBOLS
100
AcDbLine
 62
7
  6
CONTINUOUS
 10
221.0773030321
 20
243.0623434642
 11
251.5573030321
 21
243.0623434642
  0
CIRCLE
  5
21F
100
AcDbEntity
  8
3_ALL_SYMBOLS
100
AcDbCircle
 62
7
  6
CONTINUOUS
 10
232.5073030321
 20
227.8223434642
 40
3.81
  0
MTEXT
  5
220
100
AcDbEntity
  8
3_ALL_SYMBOLS
100
AcDbMText
 62
2
  6
CONTINUOUS
  7
STANDARD
 71
1
 72
1
 10
214.1066164143
 20
197.3065513234
 30
0.0
 11
1.0
 21
0.0
 31
0.0
  1
VIEW_TEMPLATE_1
 40
3.96875
 41
50.6015625
  0
ENDBLK
  5
221
100
AcDbEntity
  8
0
  6
BYBLOCK
 62
0
100
AcDbBlockEnd
  0
ENDSEC
  0
SECTION
  2
ENTITIES
  0
LINE
  5
222
100
AcDbEntity
  8
0
100
AcDbLine
 62
7
  6
CONTINUOUS
 10
176.0485525885
 20
343.0352432831
 11
117.1785525885
 21
343.0352432831
  0
LINE
  5
223
100
AcDbEntity
  8
0
100
AcDbLine
 62
7
  6
CONTINUOUS
 10
146.6135525885
 20
372.4702432831
 11
146.6135525885
 21
313.6002432831
  0
MTEXT
  5
224
100
AcDbEntity
  8
0
100
AcDbMText
 62
9
  6
CONTINUOUS
  7
TEXTSTYLE_2
 71
1
 72
1
 10
173.007436517
 20
346.8366383724
 30
0.0
 11
1.0
 21
0.0
 31
0.0
  1
x
 40
7.6027901786
 41
6.0822321429
  0
MTEXT
  5
225
100
AcDbEntity
  8
0
100
AcDbMText
 62
9
  6
CONTINUOUS
  7
TEXTSTYLE_2
 71
1
 72
1
 10
143.572436517
 20
376.2716383724
 30
0.0
 11
1.0
 21
0.0
 31
0.0
  1
y
 40
7.6027901786
 41
6.0822321429
  0
MTEXT
  5
226
100
AcDbEntity
  8
0
100
AcDbMText
 62
9
  6
CONTINUOUS
  7
TEXTSTYLE_2
 71
1
 72
1
 10
143.572436517
 20
346.8366383724
 30
0.0
 11
1.0
 21
0.0
 31
0.0
  1
z
 40
7.6027901786
 41
6.0822321429
  0
MTEXT
  5
227
100
AcDbEntity
  8
0
100
AcDbMText
 62
7
  6
CONTINUOUS
  7
STANDARD
 71
1
 72
1
 10
155.0235525885
 20
353.2632432831
 30
0.0
 11
1.0
 21
0.0
 31
0.0
  1
0823-50-35-25
 40
3.5
 41
38.675
  0
LINE
  5
228
100
AcDbEntity
  8
0
100
AcDbLine
 62
7
  6
CONTINUOUS
 10
176.0485525885
 20
452.8458208168
 11
117.1785525885
 21
452.8458208168
  0
LINE
  5
229
100
AcDbEntity
  8
0
100
AcDbLine
 62
7
  6
CONTINUOUS
 10
146.6135525885
 20
482.2808208168
 11
146.6135525885
 21
423.4108208168
  0
MTEXT
  5
22A
100
AcDbEntity
  8
0
100
AcDbMText
 62
9
  6
CONTINUOUS
  7
TEXTSTYLE_2
 71
1
 72
1
 10
173.007436517
 20
456.6472159061
 30
0.0
 11
1.0
 21
0.0
 31
0.0
  1
x
 40
7.6027901786
 41
6.0822321429
  0
MTEXT
  5
22B
100
AcDbEntity
  8
0
100
AcDbMText
 62
9
  6
CONTINUOUS
  7
TEXTSTYLE_2
 71
1
 72
1
 10
143.572436517
 20
456.6472159061
 30
0.0
 11
1.0
 21
0.0
 31
0.0
  1
y
 40
7.6027901786
 41
6.0822321429
  0
MTEXT
  5
22C
100
AcDbEntity
  8
0
100
AcDbMText
 62
9
  6
CONTINUOUS
  7
TEXTSTYLE_2
 71
1
 72
1
 10
143.572436517
 20
486.0822159061
 30
0.0
 11
1.0
 21
0.0
 31
0.0
  1
z
 40
7.6027901786
 41
6.0822321429
  0
MTEXT
  5
22D
100
AcDbEntity
  8
0
100
AcDbMText
 62
7
  6
CONTINUOUS
  7
STANDARD
 71
1
 72
1
 10
155.0235525885
 20
463.0738208168
 30
0.0
 11
1.0
 21
0.0
 31
0.0
  1
0823-50-35-25
 40
3.5
 41
38.675
  0
LINE
  5
22E
100
AcDbEntity
  8
0
100
AcDbLine
 62
7
  6
CONTINUOUS
 10
176.0485525885
 20
260.264805865
 11
117.1785525885
 21
260.264805865
  0
LINE
  5
22F
100
AcDbEntity
  8
0
100
AcDbLine
 62
7
  6
CONTINUOUS
 10
146.6135525885
 20
289.699805865
 11
146.6135525885
 21
230.829805865
  0
MTEXT
  5
230
100
AcDbEntity
  8
0
100
AcDbMText
 62
9
  6
CONTINUOUS
  7
TEXTSTYLE_2
 71
1
 72
1
 10
173.007436517
 20
264.0662009543
 30
0.0
 11
1.0
 21
0.0
 31
0.0
  1
x
 40
7.6027901786
 41
6.0822321429
  0
MTEXT
  5
231
100
AcDbEntity
  8
0
100
AcDbMText
 62
9
  6
CONTINUOUS
  7
TEXTSTYLE_2
 71
1
 72
1
 10
143.572436517
 20
293.5012009543
 30
0.0
 11
1.0
 21
0.0
 31
0.0
  1
y
 40
7.6027901786
 41
6.0822321429
  0
MTEXT
  5
232
100
AcDbEntity
  8
0
100
AcDbMText
 62
9
  6
CONTINUOUS
  7
TEXTSTYLE_2
 71
1
 72
1
 10
143.572436517
 20
264.0662009543
 30
0.0
 11
1.0
 21
0.0
 31
0.0
  1
z
 40
7.6027901786
 41
6.0822321429
  0
MTEXT
  5
233
100
AcDbEntity
  8
0
100
AcDbMText
 62
7
  6
CONTINUOUS
  7
STANDARD
 71
1
 72
1
 10
155.0235525885
 20
270.492805865
 30
0.0
 11
1.0
 21
0.0
 31
0.0
  1
0823-50-35-25
 40
3.5
 41
38.675
  0
LINE
  5
234
100
AcDbEntity
  8
0
100
AcDbLine
 62
7
  6
CONTINUOUS
 10
300.1343611182
 20
289.699805865
 11
300.1343611182
 21
230.829805865
  0
LINE
  5
235
100
AcDbEntity
  8
0
100
AcDbLine
 62
7
  6
CONTINUOUS
 10
329.5693611182
 20
260.264805865
 11
270.6993611182
 21
260.264805865
  0
MTEXT
  5
236
100
AcDbEntity
  8
0
100
AcDbMText
 62
9
  6
CONTINUOUS
  7
TEXTSTYLE_2
 71
1
 72
1
 10
297.0932450468
 20
264.0662009543
 30
0.0
 11
1.0
 21
0.0
 31
0.0
  1
x
 40
7.6027901786
 41
6.0822321429
  0
MTEXT
  5
237
100
AcDbEntity
  8
0
100
AcDbMText
 62
9
  6
CONTINUOUS
  7
TEXTSTYLE_2
 71
1
 72
1
 10
297.0932450468
 20
293.5012009543
 30
0.0
 11
1.0
 21
0.0
 31
0.0
  1
y
 40
7.6027901786
 41
6.0822321429
  0
MTEXT
  5
238
100
AcDbEntity
  8
0
100
AcDbMText
 62
9
  6
CONTINUOUS
  7
TEXTSTYLE_2
 71
1
 72
1
 10
326.5282450468
 20
264.0662009543
 30
0.0
 11
1.0
 21
0.0
 31
0.0
  1
z
 40
7.6027901786
 41
6.0822321429
  0
MTEXT
  5
239
100
AcDbEntity
  8
0
100
AcDbMText
 62
7
  6
CONTINUOUS
  7
STANDARD
 71
1
 72
1
 10
308.5443611182
 20
270.492805865
 30
0.0
 11
1.0
 21
0.0
 31
0.0
  1
0823-50-35-25
 40
3.5
 41
38.675
  0
MTEXT
  5
23A
100
AcDbEntity
  8
0
100
AcDbMText
 62
2
  6
CONTINUOUS
  7
STANDARD
 71
3
 72
1
 10
146.6135525885
 20
319.5802432831
 30
0.0
 11
1.0
 21
0.0
 31
0.0
  1
±ÈÀý 1,000
 40
3.5
 41
23.8
  0
INSERT
  5
23B
100
AcDbEntity
  8
3_ALL_SYMBOLS
100
AcDbBlockReference
 62
2
  6
CONTINUOUS
  2
SYMBOL_1_BL0
 10
239.0827409732
 20
218.2000723938
  0
INSERT
  5
23C
100
AcDbEntity
  8
3_ALL_SYMBOLS
100
AcDbBlockReference
 62
2
  6
CONTINUOUS
  2
SYMBOL_3_BL1
 10
246.9215669233
 20
444.8928088266
  0
INSERT
  5
23D
100
AcDbEntity
  8
3_ALL_SYMBOLS
100
AcDbBlockReference
 62
2
  6
CONTINUOUS
  2
SYMBOL_5_BL2
 10
562.110469004
 20
214.8244875279
  0
LINE
  5
23E
100
AcDbEntity
  8
0
100
AcDbLine
 62
7
  6
CONTINUOUS
 10
0.0
 20
0.0
 11
0.0
 21
594.0
  0
LINE
  5
23F
100
AcDbEntity
  8
0
100
AcDbLine
 62
7
  6
CONTINUOUS
 10
0.0
 20
0.0
 11
841.0
 21
0.0
  0
LINE
  5
240
100
AcDbEntity
  8
0
100
AcDbLine
 62
7
  6
CONTINUOUS
 10
0.0
 20
594.0
 11
841.0
 21
594.0
  0
LINE
  5
241
100
AcDbEntity
  8
0
100
AcDbLine
 62
7
  6
CONTINUOUS
 10
841.0
 20
0.0
 11
841.0
 21
594.0
  0
LINE
  5
242
100
AcDbEntity
  8
0
100
AcDbLine
 62
7
  6
CONTINUOUS
 10
121.6135525885
 20
357.0352432831
 11
121.6135525885
 21
329.0352432845
  0
LINE
  5
243
100
AcDbEntity
  8
DEFAULT_2
100
AcDbLine
 62
8
  6
HIDDEN
 10
122.1916992655
 20
356.4582959686
 11
122.1916992655
 21
329.6121905976
  0
LINE
  5
244
100
AcDbEntity
  8
DEFAULT_2
100
AcDbLine
 62
8
  6
HIDDEN
 10
123.6135525885
 20
329.0352432831
 11
123.6135525885
 21
357.0352432831
  0
LINE
  5
245
100
AcDbEntity
  8
DEFAULT_2
100
AcDbLine
 62
8
  6
HIDDEN
 10
123.7135525885
 20
329.0352432831
 11
123.7135525885
 21
357.0352432831
  0
LINE
  5
246
100
AcDbEntity
  8
DEFAULT_2
100
AcDbLine
 62
8
  6
HIDDEN
 10
123.7524529218
 20
357.0352432831
 11
123.7524529218
 21
329.0352432831
  0
LINE
  5
247
100
AcDbEntity
  8
DEFAULT_2
100
AcDbLine
 62
8
  6
HIDDEN
 10
124.1522092526
 20
329.0352432831
 11
124.1522092526
 21
357.0352432831
  0
LINE
  5
248
100
AcDbEntity
  8
DEFAULT_2
100
AcDbLine
 62
8
  6
HIDDEN
 10
124.2030785575
 20
357.0352432831
 11
124.2030785575
 21
329.0352432831
  0
LINE
  5
249
100
AcDbEntity
  8
DEFAULT_2
100
AcDbLine
 62
8
  6
HIDDEN
 10
124.3748959243
 20
357.0352432831
 11
124.3748959243
 21
329.0352432831
  0
LINE
  5
24A
100
AcDbEntity
  8
0
100
AcDbLine
 62
7
  6
CONTINUOUS
 10
124.6135525885
 20
357.0352432831
 11
124.6135525885
 21
329.0352432831
  0
LINE
  5
24B
100
AcDbEntity
  8
DEFAULT_2
100
AcDbLine
 62
8
  6
HIDDEN
 10
124.70290722
 20
329.4079319237
 11
124.70290722
 21
330.1661825114
  0
LINE
  5
24C
100
AcDbEntity
  8
DEFAULT_2
100
AcDbLine
 62
8
  6
HIDDEN
 10
124.70290722
 20
332.9043501125
 11
124.70290722
 21
357.0352432831
  0
LINE
  5
24D
100
AcDbEntity
  8
DEFAULT_2
100
AcDbLine
 62
8
  6
HIDDEN
 10
124.7746522551
 20
329.0352432831
 11
124.7746522551
 21
357.0352432831
  0
LINE
  5
24E
100
AcDbEntity
  8
DEFAULT_2
100
AcDbLine
 62
8
  6
HIDDEN
 10
124.848473358
 20
357.0352432831
 11
124.848473358
 21
329.0352432831
  0
LINE
  5
24F
100
AcDbEntity
  8
0
100
AcDbLine
 62
7
  6
CONTINUOUS
 10
125.1135525899
 20
360.5352432831
 11
125.1135525885
 21
357.5352432831
  0
LINE
  5
250
100
AcDbEntity
  8
0
100
AcDbLine
 62
7
  6
CONTINUOUS
 10
125.1135525885
 20
328.5352432831
 11
125.1135525885
 21
325.5352432831
  0
LINE
  5
251
100
AcDbEntity
  8
DEFAULT_2
100
AcDbLine
 62
8
  6
HIDDEN
 10
125.1135525885
 20
328.5352432831
 11
125.1135525885
 21
328.7701640526
  0
LINE
  5
252
100
AcDbEntity
  8
DEFAULT_2
100
AcDbLine
 62
8
  6
HIDDEN
 10
125.1135525885
 20
357.3003225136
 11
125.1135525885
 21
357.5352432831
  0
LINE
  5
253
100
AcDbEntity
  8
DEFAULT_2
100
AcDbLine
 62
8
  6
HIDDEN
 10
125.1906712405
 20
329.6121905976
 11
125.1906712405
 21
356.4582959686
  0
LINE
  5
254
100
AcDbEntity
  8
DEFAULT_2
100
AcDbLine
 62
8
  6
HIDDEN
 10
125.6135525885
 20
330.5352432831
 11
125.6135525885
 21
355.5352432831
  0
LINE
  5
255
100
AcDbEntity
  8
DEFAULT_2
100
AcDbLine
 62
8
  6
HIDDEN
 10
125.690499903
 20
359.957096606
 11
125.690499903
 21
356.9581246311
  0
LINE
  5
256
100
AcDbEntity
  8
DEFAULT_2
100
AcDbLine
 62
8
  6
HIDDEN
 10
125.690499903
 20
329.1123619351
 11
125.6904999036
 21
326.1133899602
  0
LINE
  5
257
100
AcDbEntity
  8
DEFAULT_2
100
AcDbLine
 62
8
  6
HIDDEN
 10
126.8635525885
 20
335.5352432831
 11
126.8635525885
 21
334.6631395153
  0
LINE
  5
258
100
AcDbEntity
  8
DEFAULT_2
100
AcDbLine
 62
8
  6
HIDDEN
 10
126.9159177832
 20
335.5352432831
 11
126.9159177832
 21
334.62156981
  0
LINE
  5
259
100
AcDbEntity
  8
DEFAULT_2
100
AcDbLine
 62
8
  6
HIDDEN
 10
128.3111873937
 20
334.62156981
 11
128.3111873937
 21
335.5352432831
  0
LINE
  5
25A
100
AcDbEntity
  8
DEFAULT_2
100
AcDbLine
 62
8
  6
HIDDEN
 10
128.3635525885
 20
334.6631395153
 11
128.3635525885
 21
335.5352432831
  0
LINE
  5
25B
100
AcDbEntity
  8
0
100
AcDbLine
 62
7
  6
CONTINUOUS
 10
168.1135525885
 20
325.5352432831
 11
125.1135525885
 21
325.5352432831
  0
LINE
  5
25C
100
AcDbEntity
  8
DEFAULT_2
100
AcDbLine
 62
8
  6
HIDDEN
 10
148.1135525885
 20
325.9352432831
 11
145.1135525885
 21
325.9352432831
  0
LINE
  5
25D
100
AcDbEntity
  8
DEFAULT_2
100
AcDbLine
 62
8
  6
HIDDEN
 10
125.6904999029
 20
326.1133899602
 11
167.536605274
 21
326.1133899602
  0
LINE
  5
25E
100
AcDbEntity
  8
DEFAULT_2
100
AcDbLine
 62
8
  6
HIDDEN
 10
131.6135525885
 20
330.7852432831
 11
131.6135525885
 21
330.8376084779
  0
LINE
  5
25F
100
AcDbEntity
  8
DEFAULT_2
100
AcDbLine
 62
8
  6
HIDDEN
 10
131.6135525885
 20
332.2328780883
 11
131.6135525885
 21
332.2852432831
  0
LINE
  5
260
100
AcDbEntity
  8
DEFAULT_2
100
AcDbLine
 62
8
  6
HIDDEN
 10
168.1135525885
 20
327.5352432831
 11
125.1135525885
 21
327.5352432831
  0
LINE
  5
261
100
AcDbEntity
  8
DEFAULT_2
100
AcDbLine
 62
8
  6
HIDDEN
 10
125.1135525885
 20
327.6352432831
 11
168.1135525885
 21
327.6352432831
  0
LINE
  5
262
100
AcDbEntity
  8
DEFAULT_2
100
AcDbLine
 62
8
  6
HIDDEN
 10
125.1135525885
 20
327.6741436164
 11
168.1135525885
 21
327.6741436164
  0
LINE
  5
263
100
AcDbEntity
  8
DEFAULT_2
100
AcDbLine
 62
8
  6
HIDDEN
 10
168.1135525885
 20
328.0738999473
 11
125.1135525885
 21
328.0738999473
  0
LINE
  5
264
100
AcDbEntity
  8
DEFAULT_2
100
AcDbLine
 62
8
  6
HIDDEN
 10
125.1135525885
 20
328.1247692522
 11
168.1135525885
 21
328.1247692522
  0
LINE
  5
265
100
AcDbEntity
  8
DEFAULT_2
100
AcDbLine
 62
8
  6
HIDDEN
 10
125.1135525885
 20
328.2965866189
 11
168.1135525885
 21
328.2965866189
  0
LINE
  5
266
100
AcDbEntity
  8
0
100
AcDbLine
 62
7
  6
CONTINUOUS
 10
125.1135525885
 20
328.5352432831
 11
168.1135525885
 21
328.5352432831
  0
LINE
  5
267
100
AcDbEntity
  8
DEFAULT_2
100
AcDbLine
 62
8
  6
HIDDEN
 10
168.1135525885
 20
328.6245979146
 11
128.9826319794
 21
328.6245979146
  0
LINE
  5
268
100
AcDbEntity
  8
DEFAULT_2
100
AcDbLine
 62
8
  6
HIDDEN
 10
126.2444776404
 20
328.6245979146
 11
125.486241229
 21
328.6245979146
  0
LINE
  5
269
100
AcDbEntity
  8
DEFAULT_2
100
AcDbLine
 62
8
  6
HIDDEN
 10
168.1135525885
 20
328.6963429497
 11
125.1135525885
 21
328.6963429497
  0
LINE
  5
26A
100
AcDbEntity
  8
DEFAULT_2
100
AcDbLine
 62
8
  6
HIDDEN
 10
125.1135525885
 20
328.7701640526
 11
168.1135525885
 21
328.7701640526
  0
LINE
  5
26B
100
AcDbEntity
  8
0
100
AcDbLine
 62
7
  6
CONTINUOUS
 10
121.6135525885
 20
329.0352432845
 11
124.6135525885
 21
329.0352432831
  0
LINE
  5
26C
100
AcDbEntity
  8
DEFAULT_2
100
AcDbLine
 62
8
  6
HIDDEN
 10
124.6135525885
 20
329.0352432831
 11
124.848473358
 21
329.0352432831
  0
LINE
  5
26D
100
AcDbEntity
  8
DEFAULT_2
100
AcDbLine
 62
8
  6
HIDDEN
 10
168.378631819
 20
329.0352432831
 11
168.6135525885
 21
329.0352432831
  0
LINE
  5
26E
100
AcDbEntity
  8
0
100
AcDbLine
 62
7
  6
CONTINUOUS
 10
168.6135525885
 20
329.0352432831
 11
171.6135525885
 21
329.0352432831
  0
LINE
  5
26F
100
AcDbEntity
  8
DEFAULT_2
100
AcDbLine
 62
8
  6
HIDDEN
 10
167.536605274
 20
329.1123619351
 11
125.6904999029
 21
329.1123619351
  0
LINE
  5
270
100
AcDbEntity
  8
DEFAULT_2
100
AcDbLine
 62
8
  6
HIDDEN
 10
166.6135525885
 20
329.5352432831
 11
126.6135525885
 21
329.5352432831
  0
LINE
  5
271
100
AcDbEntity
  8
DEFAULT_2
100
AcDbLine
 62
8
  6
HIDDEN
 10
122.1916992655
 20
329.6121905976
 11
125.1906712405
 21
329.6121905976
  0
LINE
  5
272
100
AcDbEntity
  8
DEFAULT_2
100
AcDbLine
 62
8
  6
HIDDEN
 10
168.0364339365
 20
329.6121905976
 11
171.0354059114
 21
329.6121905983
  0
LINE
  5
273
100
AcDbEntity
  8
DEFAULT_2
100
AcDbLine
 62
8
  6
HIDDEN
 10
130.7414488207
 20
330.7852432831
 11
131.6135525885
 21
330.7852432831
  0
LINE
  5
274
100
AcDbEntity
  8
DEFAULT_2
100
AcDbLine
 62
8
  6
HIDDEN
 10
131.6135525885
 20
330.8376084779
 11
130.6998791154
 21
330.8376084779
  0
LINE
  5
275
100
AcDbEntity
  8
DEFAULT_2
100
AcDbLine
 62
8
  6
HIDDEN
 10
130.6998791154
 20
332.2328780883
 11
131.6135525885
 21
332.2328780883
  0
LINE
  5
276
100
AcDbEntity
  8
DEFAULT_2
100
AcDbLine
 62
8
  6
HIDDEN
 10
131.6135525885
 20
332.2852432831
 11
130.7414488207
 21
332.2852432831
  0
LINE
  5
277
100
AcDbEntity
  8
DEFAULT_2
100
AcDbLine
 62
8
  6
HIDDEN
 10
122.1916992655
 20
329.6121905976
 11
121.6135525885
 21
329.0340439205
  0
LINE
  5
278
100
AcDbEntity
  8
DEFAULT_2
100
AcDbLine
 62
8
  6
HIDDEN
 10
124.70290722
 20
329.4079319237
 11
124.9814136744
 21
329.6864383781
  0
LINE
  5
279
100
AcDbEntity
  8
DEFAULT_2
100
AcDbLine
 62
8
  6
HIDDEN
 10
128.3635525885
 20
335.5352432831
 11
128.3111873937
 21
335.5352432831
  0
LINE
  5
27A
100
AcDbEntity
  8
DEFAULT_2
100
AcDbLine
 62
8
  6
HIDDEN
 10
126.9159177832
 20
335.5352432831
 11
126.8635525885
 21
335.5352432831
  0
LINE
  5
27B
100
AcDbEntity
  8
DEFAULT_2
100
AcDbLine
 62
8
  6
HIDDEN
 10
121.6135525885
 20
357.0364426457
 11
122.1916992655
 21
356.4582959686
  0
LINE
  5
27C
100
AcDbEntity
  8
DEFAULT_2
100
AcDbLine
 62
8
  6
HIDDEN
 10
125.3444291995
 20
329.7964499801
 11
123.8692894328
 21
328.3213102133
  0
LINE
  5
27D
100
AcDbEntity
  8
DEFAULT_2
100
AcDbLine
 62
8
  6
HIDDEN
 10
124.3996195187
 20
327.7909801274
 11
125.8747592854
 21
329.2661198942
  0
LINE
  5
27E
100
AcDbEntity
  8
DEFAULT_2
100
AcDbLine
 62
8
  6
HIDDEN
 10
125.7647476835
 20
328.9031043691
 11
125.486241229
 21
328.6245979146
  0
LINE
  5
27F
100
AcDbEntity
  8
DEFAULT_2
100
AcDbLine
 62
8
  6
HIDDEN
 10
125.1123532259
 20
325.5352432831
 11
125.6904999029
 21
326.1133899602
  0
LINE
  5
280
100
AcDbEntity
  8
DEFAULT_2
100
AcDbLine
 62
8
  6
HIDDEN
 10
125.6904999029
 20
359.957096606
 11
125.1123532259
 21
360.5352432831
  0
LINE
  5
281
100
AcDbEntity
  8
DEFAULT_2
100
AcDbLine
 62
8
  6
HIDDEN
 10
145.1135525885
 20
325.9352432831
 11
145.1135525885
 21
327.6352432831
  0
LINE
  5
282
100
AcDbEntity
  8
DEFAULT_2
100
AcDbLine
 62
8
  6
HIDDEN
 10
145.1135525885
 20
358.4352432831
 11
145.1135525885
 21
360.1352432831
  0
LINE
  5
283
100
AcDbEntity
  8
DEFAULT_2
100
AcDbLine
 62
8
  6
HIDDEN
 10
148.1135525885
 20
360.1352432831
 11
148.1135525885
 21
358.4352432831
  0
LINE
  5
284
100
AcDbEntity
  8
DEFAULT_2
100
AcDbLine
 62
8
  6
HIDDEN
 10
148.1135525885
 20
327.6352432831
 11
148.1135525885
 21
325.9352432831
  0
LINE
  5
285
100
AcDbEntity
  8
DEFAULT_2
100
AcDbLine
 62
8
  6
HIDDEN
 10
168.1147519511
 20
360.5352432831
 11
167.536605274
 21
359.957096606
  0
LINE
  5
286
100
AcDbEntity
  8
DEFAULT_2
100
AcDbLine
 62
8
  6
HIDDEN
 10
167.536605274
 20
326.1133899602
 11
168.1147519511
 21
325.5352432831
  0
LINE
  5
287
100
AcDbEntity
  8
DEFAULT_2
100
AcDbLine
 62
8
  6
HIDDEN
 10
167.4623574935
 20
357.1673821971
 11
167.7408639479
 21
357.4458886515
  0
LINE
  5
288
100
AcDbEntity
  8
DEFAULT_2
100
AcDbLine
 62
8
  6
HIDDEN
 10
168.8274856583
 20
358.2795064388
 11
167.3523458915
 21
356.804366672
  0
LINE
  5
289
100
AcDbEntity
  8
DEFAULT_2
100
AcDbLine
 62
8
  6
HIDDEN
 10
167.8826759774
 20
356.2740365861
 11
169.3578157442
 21
357.7491763529
  0
LINE
  5
28A
100
AcDbEntity
  8
DEFAULT_2
100
AcDbLine
 62
8
  6
HIDDEN
 10
168.5241979569
 20
356.6625546425
 11
168.2456915025
 21
356.3840481881
  0
LINE
  5
28B
100
AcDbEntity
  8
DEFAULT_2
100
AcDbLine
 62
8
  6
HIDDEN
 10
171.0354059114
 20
356.4582959686
 11
171.6135525885
 21
357.0364426457
  0
LINE
  5
28C
100
AcDbEntity
  8
DEFAULT_2
100
AcDbLine
 62
8
  6
HIDDEN
 10
164.8635525885
 20
350.5352432831
 11
164.9159177832
 21
350.5352432831
  0
LINE
  5
28D
100
AcDbEntity
  8
DEFAULT_2
100
AcDbLine
 62
8
  6
HIDDEN
 10
166.3111873937
 20
350.5352432831
 11
166.3635525885
 21
350.5352432831
  0
LINE
  5
28E
100
AcDbEntity
  8
DEFAULT_2
100
AcDbLine
 62
8
  6
HIDDEN
 10
171.6135525885
 20
329.0340439205
 11
171.0354059114
 21
329.6121905976
  0
LINE
  5
28F
100
AcDbEntity
  8
DEFAULT_2
100
AcDbLine
 62
8
  6
HIDDEN
 10
161.6135525885
 20
353.7852432831
 11
162.4856563563
 21
353.7852432831
  0
LINE
  5
290
100
AcDbEntity
  8
DEFAULT_2
100
AcDbLine
 62
8
  6
HIDDEN
 10
162.5272260616
 20
353.8376084779
 11
161.6135525885
 21
353.8376084779
  0
LINE
  5
291
100
AcDbEntity
  8
DEFAULT_2
100
AcDbLine
 62
8
  6
HIDDEN
 10
161.6135525885
 20
355.2328780883
 11
162.5272260616
 21
355.2328780883
  0
LINE
  5
292
100
AcDbEntity
  8
DEFAULT_2
100
AcDbLine
 62
8
  6
HIDDEN
 10
162.4856563563
 20
355.2852432831
 11
161.6135525885
 21
355.2852432831
  0
LINE
  5
293
100
AcDbEntity
  8
DEFAULT_2
100
AcDbLine
 62
8
  6
HIDDEN
 10
171.0354059114
 20
356.4582959686
 11
168.0364339365
 21
356.4582959686
  0
LINE
  5
294
100
AcDbEntity
  8
DEFAULT_2
100
AcDbLine
 62
8
  6
HIDDEN
 10
125.1906712405
 20
356.4582959686
 11
122.1916992655
 21
356.4582959679
  0
LINE
  5
295
100
AcDbEntity
  8
DEFAULT_2
100
AcDbLine
 62
8
  6
HIDDEN
 10
126.6135525885
 20
356.5352432831
 11
166.6135525885
 21
356.5352432831
  0
LINE
  5
296
100
AcDbEntity
  8
DEFAULT_2
100
AcDbLine
 62
8
  6
HIDDEN
 10
125.6904999029
 20
356.9581246311
 11
167.536605274
 21
356.9581246311
  0
LINE
  5
297
100
AcDbEntity
  8
0
100
AcDbLine
 62
7
  6
CONTINUOUS
 10
171.6135525885
 20
357.0352432817
 11
168.6135525885
 21
357.0352432831
  0
LINE
  5
298
100
AcDbEntity
  8
0
100
AcDbLine
 62
7
  6
CONTINUOUS
 10
124.6135525885
 20
357.0352432831
 11
121.6135525885
 21
357.0352432831
  0
LINE
  5
299
100
AcDbEntity
  8
DEFAULT_2
100
AcDbLine
 62
8
  6
HIDDEN
 10
124.6135525885
 20
357.0352432831
 11
124.848473358
 21
357.0352432831
  0
LINE
  5
29A
100
AcDbEntity
  8
DEFAULT_2
100
AcDbLine
 62
8
  6
HIDDEN
 10
168.378631819
 20
357.0352432831
 11
168.6135525885
 21
357.0352432831
  0
LINE
  5
29B
100
AcDbEntity
  8
DEFAULT_2
100
AcDbLine
 62
8
  6
HIDDEN
 10
168.1135525885
 20
357.3003225136
 11
125.1135525885
 21
357.3003225136
  0
LINE
  5
29C
100
AcDbEntity
  8
DEFAULT_2
100
AcDbLine
 62
8
  6
HIDDEN
 10
125.1135525885
 20
357.3741436164
 11
168.1135525885
 21
357.3741436164
  0
LINE
  5
29D
100
AcDbEntity
  8
DEFAULT_2
100
AcDbLine
 62
8
  6
HIDDEN
 10
125.1135525885
 20
357.4458886515
 11
164.2444731975
 21
357.4458886515
  0
LINE
  5
29E
100
AcDbEntity
  8
DEFAULT_2
100
AcDbLine
 62
8
  6
HIDDEN
 10
166.9826275365
 20
357.4458886515
 11
167.7408639479
 21
357.4458886515
  0
LINE
  5
29F
100
AcDbEntity
  8
0
100
AcDbLine
 62
7
  6
CONTINUOUS
 10
168.1135525885
 20
357.5352432831
 11
125.1135525885
 21
357.5352432831
  0
LINE
  5
2A0
100
AcDbEntity
  8
DEFAULT_2
100
AcDbLine
 62
8
  6
HIDDEN
 10
161.6135525885
 20
355.2852432831
 11
161.6135525885
 21
355.2328780883
  0
LINE
  5
2A1
100
AcDbEntity
  8
DEFAULT_2
100
AcDbLine
 62
8
  6
HIDDEN
 10
161.6135525885
 20
353.8376084779
 11
161.6135525885
 21
353.7852432831
  0
LINE
  5
2A2
100
AcDbEntity
  8
DEFAULT_2
100
AcDbLine
 62
8
  6
HIDDEN
 10
168.1135525885
 20
357.7738999473
 11
125.1135525885
 21
357.7738999473
  0
LINE
  5
2A3
100
AcDbEntity
  8
DEFAULT_2
100
AcDbLine
 62
8
  6
HIDDEN
 10
168.1135525885
 20
357.945717314
 11
125.1135525885
 21
357.945717314
  0
LINE
  5
2A4
100
AcDbEntity
  8
DEFAULT_2
100
AcDbLine
 62
8
  6
HIDDEN
 10
125.1135525885
 20
357.9965866189
 11
168.1135525885
 21
357.9965866189
  0
LINE
  5
2A5
100
AcDbEntity
  8
DEFAULT_2
100
AcDbLine
 62
8
  6
HIDDEN
 10
168.1135525885
 20
358.3963429497
 11
125.1135525885
 21
358.3963429497
  0
LINE
  5
2A6
100
AcDbEntity
  8
DEFAULT_2
100
AcDbLine
 62
8
  6
HIDDEN
 10
125.1135525885
 20
358.4352432831
 11
168.1135525885
 21
358.4352432831
  0
LINE
  5
2A7
100
AcDbEntity
  8
DEFAULT_2
100
AcDbLine
 62
8
  6
HIDDEN
 10
125.1135525885
 20
358.5352432831
 11
168.1135525885
 21
358.5352432831
  0
LINE
  5
2A8
100
AcDbEntity
  8
DEFAULT_2
100
AcDbLine
 62
8
  6
HIDDEN
 10
164.8635525885
 20
351.4073470509
 11
164.8635525885
 21
350.5352432831
  0
LINE
  5
2A9
100
AcDbEntity
  8
DEFAULT_2
100
AcDbLine
 62
8
  6
HIDDEN
 10
164.9159177832
 20
351.4489167562
 11
164.9159177832
 21
350.5352432831
  0
LINE
  5
2AA
100
AcDbEntity
  8
DEFAULT_2
100
AcDbLine
 62
8
  6
HIDDEN
 10
167.536605274
 20
359.957096606
 11
125.6904999029
 21
359.957096606
  0
LINE
  5
2AB
100
AcDbEntity
  8
DEFAULT_2
100
AcDbLine
 62
8
  6
HIDDEN
 10
145.1135525885
 20
360.1352432831
 11
148.1135525885
 21
360.1352432831
  0
LINE
  5
2AC
100
AcDbEntity
  8
0
100
AcDbLine
 62
7
  6
CONTINUOUS
 10
168.1135525885
 20
360.5352432831
 11
125.1135525899
 21
360.5352432831
  0
LINE
  5
2AD
100
AcDbEntity
  8
DEFAULT_2
100
AcDbLine
 62
8
  6
HIDDEN
 10
166.3111873937
 20
350.5352432831
 11
166.3111873937
 21
351.4489167562
  0
LINE
  5
2AE
100
AcDbEntity
  8
DEFAULT_2
100
AcDbLine
 62
8
  6
HIDDEN
 10
166.3635525885
 20
350.5352432831
 11
166.3635525885
 21
351.4073470509
  0
LINE
  5
2AF
100
AcDbEntity
  8
DEFAULT_2
100
AcDbLine
 62
8
  6
HIDDEN
 10
167.536605274
 20
326.1133899602
 11
167.536605274
 21
329.1123619351
  0
LINE
  5
2B0
100
AcDbEntity
  8
DEFAULT_2
100
AcDbLine
 62
8
  6
HIDDEN
 10
167.536605274
 20
356.9581246311
 11
167.5366052733
 21
359.957096606
  0
LINE
  5
2B1
100
AcDbEntity
  8
DEFAULT_2
100
AcDbLine
 62
8
  6
HIDDEN
 10
167.6135525885
 20
355.5352432831
 11
167.6135525885
 21
330.5352432831
  0
LINE
  5
2B2
100
AcDbEntity
  8
DEFAULT_2
100
AcDbLine
 62
8
  6
HIDDEN
 10
168.0364339365
 20
356.4582959686
 11
168.0364339365
 21
329.6121905976
  0
LINE
  5
2B3
100
AcDbEntity
  8
DEFAULT_2
100
AcDbLine
 62
8
  6
HIDDEN
 10
168.1135525885
 20
328.5352432831
 11
168.1135525885
 21
328.7701640526
  0
LINE
  5
2B4
100
AcDbEntity
  8
0
100
AcDbLine
 62
7
  6
CONTINUOUS
 10
168.1135525871
 20
325.5352432831
 11
168.1135525885
 21
328.5352432831
  0
LINE
  5
2B5
100
AcDbEntity
  8
DEFAULT_2
100
AcDbLine
 62
8
  6
HIDDEN
 10
168.1135525885
 20
357.3003225136
 11
168.1135525885
 21
357.5352432831
  0
LINE
  5
2B6
100
AcDbEntity
  8
0
100
AcDbLine
 62
7
  6
CONTINUOUS
 10
168.1135525885
 20
357.5352432831
 11
168.1135525885
 21
360.5352432831
  0
LINE
  5
2B7
100
AcDbEntity
  8
DEFAULT_2
100
AcDbLine
 62
8
  6
HIDDEN
 10
168.378631819
 20
329.0352432831
 11
168.378631819
 21
357.0352432831
  0
LINE
  5
2B8
100
AcDbEntity
  8
DEFAULT_2
100
AcDbLine
 62
8
  6
HIDDEN
 10
168.4524529218
 20
357.0352432831
 11
168.4524529218
 21
329.0352432831
  0
LINE
  5
2B9
100
AcDbEntity
  8
DEFAULT_2
100
AcDbLine
 62
8
  6
HIDDEN
 10
168.5241979569
 20
356.6625546425
 11
168.5241979569
 21
355.9043040547
  0
LINE
  5
2BA
100
AcDbEntity
  8
DEFAULT_2
100
AcDbLine
 62
8
  6
HIDDEN
 10
168.5241979569
 20
353.1661364537
 11
168.5241979569
 21
329.0352432831
  0
LINE
  5
2BB
100
AcDbEntity
  8
0
100
AcDbLine
 62
7
  6
CONTINUOUS
 10
168.6135525885
 20
329.0352432831
 11
168.6135525885
 21
357.0352432831
  0
LINE
  5
2BC
100
AcDbEntity
  8
DEFAULT_2
100
AcDbLine
 62
8
  6
HIDDEN
 10
168.8522092526
 20
329.0352432831
 11
168.8522092526
 21
357.0352432831
  0
LINE
  5
2BD
100
AcDbEntity
  8
DEFAULT_2
100
AcDbLine
 62
8
  6
HIDDEN
 10
169.0240266194
 20
329.0352432831
 11
169.0240266194
 21
357.0352432831
  0
LINE
  5
2BE
100
AcDbEntity
  8
DEFAULT_2
100
AcDbLine
 62
8
  6
HIDDEN
 10
169.0748959243
 20
357.0352432831
 11
169.0748959243
 21
329.0352432831
  0
LINE
  5
2BF
100
AcDbEntity
  8
DEFAULT_2
100
AcDbLine
 62
8
  6
HIDDEN
 10
169.4746522551
 20
329.0352432831
 11
169.4746522551
 21
357.0352432831
  0
LINE
  5
2C0
100
AcDbEntity
  8
DEFAULT_2
100
AcDbLine
 62
8
  6
HIDDEN
 10
169.5135525885
 20
357.0352432831
 11
169.5135525885
 21
329.0352432831
  0
LINE
  5
2C1
100
AcDbEntity
  8
DEFAULT_2
100
AcDbLine
 62
8
  6
HIDDEN
 10
169.6135525885
 20
357.0352432831
 11
169.6135525885
 21
329.0352432831
  0
LINE
  5
2C2
100
AcDbEntity
  8
DEFAULT_2
100
AcDbLine
 62
8
  6
HIDDEN
 10
171.0354059114
 20
329.6121905976
 11
171.0354059114
 21
356.4582959686
  0
LINE
  5
2C3
100
AcDbEntity
  8
0
100
AcDbLine
 62
7
  6
CONTINUOUS
 10
171.6135525885
 20
357.0352432831
 11
171.6135525885
 21
329.0352432831
  0
LINE
  5
2C4
100
AcDbEntity
  8
DEFAULT_2
100
AcDbLine
 62
8
  6
HIDDEN
 10
130.6135525793
 20
475.8458208065
 11
129.3635525831
 21
474.4458208108
  0
LINE
  5
2C5
100
AcDbEntity
  8
0
100
AcDbLine
 62
7
  6
CONTINUOUS
 10
122.1916992655
 20
430.7672899719
 11
121.6135525885
 21
452.8458208168
  0
LINE
  5
2C6
100
AcDbEntity
  8
DEFAULT_2
100
AcDbLine
 62
8
  6
HIDDEN
 10
123.6135525885
 20
452.8458208168
 11
124.2030785575
 21
430.3327323426
  0
LINE
  5
2C7
100
AcDbEntity
  8
0
100
AcDbLine
 62
7
  6
CONTINUOUS
 10
125.1906715809
 20
427.8458208168
 11
168.0364336005
 21
427.8458208168
  0
LINE
  5
2C8
100
AcDbEntity
  8
DEFAULT_2
100
AcDbLine
 62
8
  6
HIDDEN
 10
167.6135525885
 20
428.3458208168
 11
125.6135525885
 21
428.3458208168
  0
LINE
  5
2C9
100
AcDbEntity
  8
0
100
AcDbLine
 62
7
  6
CONTINUOUS
 10
123.7524529218
 20
471.7318610181
 11
123.7135525885
 21
472.8458208168
  0
LINE
  5
2CA
100
AcDbEntity
  8
0
100
AcDbLine
 62
7
  6
CONTINUOUS
 10
125.1123532259
 20
452.8458208168
 11
125.6904999029
 21
430.7672899719
  0
LINE
  5
2CB
100
AcDbEntity
  8
DEFAULT_2
100
AcDbLine
 62
8
  6
HIDDEN
 10
125.1135525885
 20
473.8458208168
 11
125.1571769593
 21
471.346582283
  0
LINE
  5
2CC
100
AcDbEntity
  8
0
100
AcDbLine
 62
7
  6
CONTINUOUS
 10
125.1571769593
 20
471.346582283
 11
125.1659177832
 21
470.8458208168
  0
LINE
  5
2CD
100
AcDbEntity
  8
0
100
AcDbLine
 62
7
  6
CONTINUOUS
 10
125.1135525885
 20
475.8458208168
 11
125.1135525885
 21
471.3458208168
  0
LINE
  5
2CE
100
AcDbEntity
  8
DEFAULT_2
100
AcDbLine
 62
8
  6
HIDDEN
 10
125.1135525885
 20
429.8458208168
 11
125.1135525885
 21
452.8458208168
  0
LINE
  5
2CF
100
AcDbEntity
  8
DEFAULT_2
100
AcDbLine
 62
8
  6
HIDDEN
 10
125.6135525885
 20
428.3458208168
 11
125.6135525885
 21
427.8458208168
  0
LINE
  5
2D0
100
AcDbEntity
  8
0
100
AcDbLine
 62
7
  6
CONTINUOUS
 10
125.690499903
 20
427.8458208168
 11
125.6904999036
 21
430.7672899718
  0
LINE
  5
2D1
100
AcDbEntity
  8
DEFAULT_2
100
AcDbLine
 62
8
  6
HIDDEN
 10
125.8635525885
 20
474.4458208168
 11
125.8635525885
 21
470.8458208168
  0
LINE
  5
2D2
100
AcDbEntity
  8
DEFAULT_2
100
AcDbLine
 62
8
  6
HIDDEN
 10
124.3986294905
 20
429.9393905369
 11
124.7635525885
 21
450.8458208168
  0
LINE
  5
2D3
100
AcDbEntity
  8
DEFAULT_2
100
AcDbLine
 62
8
  6
HIDDEN
 10
124.848473358
 20
473.8458208168
 11
124.7746522551
 21
471.7318610181
  0
LINE
  5
2D4
100
AcDbEntity
  8
DEFAULT_2
100
AcDbLine
 62
8
  6
HIDDEN
 10
124.70290722
 20
429.8458208168
 11
168.5241979569
 21
429.8458208168
  0
LINE
  5
2D5
100
AcDbEntity
  8
DEFAULT_2
100
AcDbLine
 62
8
  6
HIDDEN
 10
124.2030785575
 20
430.3327323426
 11
169.0240266194
 21
430.3327323426
  0
LINE
  5
2D6
100
AcDbEntity
  8
0
100
AcDbLine
 62
7
  6
CONTINUOUS
 10
125.6904999029
 20
430.7672899719
 11
167.536605274
 21
430.7672899719
  0
LINE
  5
2D7
100
AcDbEntity
  8
DEFAULT_2
100
AcDbLine
 62
8
  6
HIDDEN
 10
128.3111873937
 20
432.8458208168
 11
128.3635525885
 21
429.8458208168
  0
LINE
  5
2D8
100
AcDbEntity
  8
DEFAULT_2
100
AcDbLine
 62
8
  6
HIDDEN
 10
126.3635525885
 20
429.8458208168
 11
126.3635525885
 21
450.5458208168
  0
LINE
  5
2D9
100
AcDbEntity
  8
DEFAULT_2
100
AcDbLine
 62
8
  6
HIDDEN
 10
126.6135525885
 20
428.3458208168
 11
126.6135525885
 21
427.8458208168
  0
LINE
  5
2DA
100
AcDbEntity
  8
DEFAULT_2
100
AcDbLine
 62
8
  6
HIDDEN
 10
126.9159177832
 20
432.8458208168
 11
126.8635525885
 21
429.8458208168
  0
LINE
  5
2DB
100
AcDbEntity
  8
DEFAULT_2
100
AcDbLine
 62
8
  6
HIDDEN
 10
126.9159177832
 20
432.8458208168
 11
128.3111873937
 21
432.8458208168
  0
LINE
  5
2DC
100
AcDbEntity
  8
DEFAULT_2
100
AcDbLine
 62
8
  6
HIDDEN
 10
130.6998791154
 20
432.8458208168
 11
136.0611722784
 21
432.8458208168
  0
LINE
  5
2DD
100
AcDbEntity
  8
DEFAULT_2
100
AcDbLine
 62
8
  6
HIDDEN
 10
157.1659328985
 20
432.8458208168
 11
162.5272260616
 21
432.8458208168
  0
LINE
  5
2DE
100
AcDbEntity
  8
DEFAULT_2
100
AcDbLine
 62
8
  6
HIDDEN
 10
164.9159177832
 20
432.8458208168
 11
166.3111873937
 21
432.8458208168
  0
LINE
  5
2DF
100
AcDbEntity
  8
DEFAULT_2
100
AcDbLine
 62
8
  6
HIDDEN
 10
130.7777437572
 20
432.8458208168
 11
130.4635525885
 21
450.8458208168
  0
LINE
  5
2E0
100
AcDbEntity
  8
DEFAULT_2
100
AcDbLine
 62
8
  6
HIDDEN
 10
128.8635525885
 20
429.8458208168
 11
128.8635525885
 21
450.5458208168
  0
LINE
  5
2E1
100
AcDbEntity
  8
DEFAULT_2
100
AcDbLine
 62
8
  6
HIDDEN
 10
129.3635525885
 20
474.4458208168
 11
129.3635525885
 21
470.8458208168
  0
LINE
  5
2E2
100
AcDbEntity
  8
DEFAULT_2
100
AcDbLine
 62
8
  6
HIDDEN
 10
130.1135525885
 20
473.8458208168
 11
130.0699149261
 21
471.3458208168
  0
LINE
  5
2E3
100
AcDbEntity
  8
0
100
AcDbLine
 62
7
  6
CONTINUOUS
 10
130.0699149261
 20
471.3458208168
 11
130.0611873937
 21
470.8458208168
  0
LINE
  5
2E4
100
AcDbEntity
  8
DEFAULT_2
100
AcDbLine
 62
8
  6
HIDDEN
 10
132.3635525885
 20
429.8458208168
 11
132.3111873937
 21
432.8458208168
  0
LINE
  5
2E5
100
AcDbEntity
  8
DEFAULT_2
100
AcDbLine
 62
8
  6
HIDDEN
 10
131.6135525885
 20
432.8458208168
 11
131.6135525885
 21
429.8458208168
  0
LINE
  5
2E6
100
AcDbEntity
  8
DEFAULT_2
100
AcDbLine
 62
8
  6
HIDDEN
 10
132.1135525885
 20
429.8458208168
 11
132.1659177832
 21
432.8458208168
  0
LINE
  5
2E7
100
AcDbEntity
  8
DEFAULT_2
100
AcDbLine
 62
8
  6
HIDDEN
 10
126.3635526013
 20
450.5458208039
 11
126.0635526044
 21
450.8458208008
  0
LINE
  5
2E8
100
AcDbEntity
  8
DEFAULT_2
100
AcDbLine
 62
8
  6
HIDDEN
 10
133.3635525885
 20
429.8458208168
 11
133.3635525885
 21
432.8458208168
  0
LINE
  5
2E9
100
AcDbEntity
  8
DEFAULT_2
100
AcDbLine
 62
8
  6
HIDDEN
 10
134.8635525885
 20
429.8458208168
 11
134.8635525885
 21
432.8458208168
  0
LINE
  5
2EA
100
AcDbEntity
  8
DEFAULT_2
100
AcDbLine
 62
8
  6
HIDDEN
 10
128.8635525756
 20
450.5458208039
 11
129.1635525725
 21
450.8458208008
  0
LINE
  5
2EB
100
AcDbEntity
  8
DEFAULT_2
100
AcDbLine
 62
8
  6
HIDDEN
 10
136.1135525885
 20
429.8458208168
 11
136.0611873937
 21
432.8458208168
  0
LINE
  5
2EC
100
AcDbEntity
  8
DEFAULT_2
100
AcDbLine
 62
8
  6
HIDDEN
 10
145.1135525885
 20
473.1958208168
 11
145.1135525885
 21
472.8458208168
  0
LINE
  5
2ED
100
AcDbEntity
  8
DEFAULT_2
100
AcDbLine
 62
8
  6
HIDDEN
 10
123.8692894328
 20
450.3458208168
 11
125.8747592854
 21
450.3458208168
  0
LINE
  5
2EE
100
AcDbEntity
  8
DEFAULT_2
100
AcDbLine
 62
8
  6
HIDDEN
 10
167.3523458915
 20
450.3458208168
 11
169.3578157442
 21
450.3458208168
  0
LINE
  5
2EF
100
AcDbEntity
  8
DEFAULT_2
100
AcDbLine
 62
8
  6
HIDDEN
 10
166.8635525885
 20
450.5458208168
 11
164.3635525885
 21
450.5458208168
  0
LINE
  5
2F0
100
AcDbEntity
  8
DEFAULT_2
100
AcDbLine
 62
8
  6
HIDDEN
 10
128.8635525885
 20
450.5458208168
 11
126.3635525885
 21
450.5458208168
  0
LINE
  5
2F1
100
AcDbEntity
  8
DEFAULT_2
100
AcDbLine
 62
8
  6
HIDDEN
 10
124.7637975033
 20
450.8458208168
 11
130.4633076736
 21
450.8458208168
  0
LINE
  5
2F2
100
AcDbEntity
  8
DEFAULT_2
100
AcDbLine
 62
8
  6
HIDDEN
 10
162.7637975033
 20
450.8458208168
 11
168.4633076736
 21
450.8458208168
  0
LINE
  5
2F3
100
AcDbEntity
  8
DEFAULT_2
100
AcDbLine
 62
8
  6
HIDDEN
 10
125.8635525938
 20
474.4458208108
 11
124.6135525977
 21
475.8458208065
  0
LINE
  5
2F4
100
AcDbEntity
  8
DEFAULT_2
100
AcDbLine
 62
8
  6
HIDDEN
 10
148.1135525885
 20
473.1958208168
 11
148.1135525885
 21
472.8458208168
  0
LINE
  5
2F5
100
AcDbEntity
  8
DEFAULT_2
100
AcDbLine
 62
8
  6
HIDDEN
 10
168.6135525793
 20
475.8458208065
 11
167.3635525831
 21
474.4458208108
  0
LINE
  5
2F6
100
AcDbEntity
  8
0
100
AcDbLine
 62
7
  6
CONTINUOUS
 10
121.6135525885
 20
452.8458208168
 11
171.6135525885
 21
452.8458208168
  0
LINE
  5
2F7
100
AcDbEntity
  8
DEFAULT_2
100
AcDbLine
 62
8
  6
HIDDEN
 10
158.3635525885
 20
429.8458208168
 11
158.3635525885
 21
432.8458208168
  0
LINE
  5
2F8
100
AcDbEntity
  8
DEFAULT_2
100
AcDbLine
 62
8
  6
HIDDEN
 10
157.1135525885
 20
429.8458208168
 11
157.1659177833
 21
432.8458208168
  0
LINE
  5
2F9
100
AcDbEntity
  8
DEFAULT_2
100
AcDbLine
 62
8
  6
HIDDEN
 10
164.3635526013
 20
450.5458208039
 11
164.0635526044
 21
450.8458208008
  0
LINE
  5
2FA
100
AcDbEntity
  8
DEFAULT_2
100
AcDbLine
 62
8
  6
HIDDEN
 10
161.1135525885
 20
429.8458208168
 11
161.0611873937
 21
432.8458208168
  0
LINE
  5
2FB
100
AcDbEntity
  8
DEFAULT_2
100
AcDbLine
 62
8
  6
HIDDEN
 10
159.8635525885
 20
429.8458208168
 11
159.8635525885
 21
432.8458208168
  0
LINE
  5
2FC
100
AcDbEntity
  8
DEFAULT_2
100
AcDbLine
 62
8
  6
HIDDEN
 10
161.6135525885
 20
432.8458208168
 11
161.6135525885
 21
429.8458208168
  0
LINE
  5
2FD
100
AcDbEntity
  8
DEFAULT_2
100
AcDbLine
 62
8
  6
HIDDEN
 10
160.8635525885
 20
429.8458208168
 11
160.9159177832
 21
432.8458208168
  0
LINE
  5
2FE
100
AcDbEntity
  8
DEFAULT_2
100
AcDbLine
 62
8
  6
HIDDEN
 10
162.4493614198
 20
432.8458208168
 11
162.7635525885
 21
450.8458208168
  0
LINE
  5
2FF
100
AcDbEntity
  8
DEFAULT_2
100
AcDbLine
 62
8
  6
HIDDEN
 10
166.8635525756
 20
450.5458208039
 11
167.1635525725
 21
450.8458208008
  0
LINE
  5
300
100
AcDbEntity
  8
DEFAULT_2
100
AcDbLine
 62
8
  6
HIDDEN
 10
163.1135525885
 20
473.8458208168
 11
163.1571902508
 21
471.3458208168
  0
LINE
  5
301
100
AcDbEntity
  8
0
100
AcDbLine
 62
7
  6
CONTINUOUS
 10
163.1571902508
 20
471.3458208168
 11
163.1659177832
 21
470.8458208168
  0
LINE
  5
302
100
AcDbEntity
  8
DEFAULT_2
100
AcDbLine
 62
8
  6
HIDDEN
 10
163.8635525885
 20
474.4458208168
 11
163.8635525885
 21
470.8458208168
  0
LINE
  5
303
100
AcDbEntity
  8
DEFAULT_2
100
AcDbLine
 62
8
  6
HIDDEN
 10
164.3635525885
 20
429.8458208168
 11
164.3635525885
 21
450.5458208168
  0
LINE
  5
304
100
AcDbEntity
  8
DEFAULT_2
100
AcDbLine
 62
8
  6
HIDDEN
 10
164.8635525885
 20
429.8458208168
 11
164.9159177832
 21
432.8458208168
  0
LINE
  5
305
100
AcDbEntity
  8
DEFAULT_2
100
AcDbLine
 62
8
  6
HIDDEN
 10
166.3111873937
 20
432.8458208168
 11
166.3635525885
 21
429.8458208168
  0
LINE
  5
306
100
AcDbEntity
  8
DEFAULT_2
100
AcDbLine
 62
8
  6
HIDDEN
 10
166.6135525885
 20
428.3458208168
 11
166.6135525885
 21
427.8458208168
  0
LINE
  5
307
100
AcDbEntity
  8
DEFAULT_2
100
AcDbLine
 62
8
  6
HIDDEN
 10
166.8635525885
 20
429.8458208168
 11
166.8635525885
 21
450.5458208168
  0
LINE
  5
308
100
AcDbEntity
  8
DEFAULT_2
100
AcDbLine
 62
8
  6
HIDDEN
 10
167.3635525885
 20
474.4458208168
 11
167.3635525885
 21
470.8458208168
  0
LINE
  5
309
100
AcDbEntity
  8
0
100
AcDbLine
 62
7
  6
CONTINUOUS
 10
167.536605274
 20
430.7672899718
 11
167.536605274
 21
427.8458208168
  0
LINE
  5
30A
100
AcDbEntity
  8
DEFAULT_2
100
AcDbLine
 62
8
  6
HIDDEN
 10
167.6135525885
 20
428.3458208168
 11
167.6135525885
 21
427.8458208168
  0
LINE
  5
30B
100
AcDbEntity
  8
0
100
AcDbLine
 62
7
  6
CONTINUOUS
 10
168.0611873937
 20
470.8458208168
 11
163.1659177832
 21
470.8458208168
  0
LINE
  5
30C
100
AcDbEntity
  8
0
100
AcDbLine
 62
7
  6
CONTINUOUS
 10
130.0611873937
 20
470.8458208168
 11
125.1659177832
 21
470.8458208168
  0
LINE
  5
30D
100
AcDbEntity
  8
0
100
AcDbLine
 62
7
  6
CONTINUOUS
 10
169.0748959243
 20
471.3458208168
 11
124.1522092526
 21
471.3458208168
  0
LINE
  5
30E
100
AcDbEntity
  8
0
100
AcDbLine
 62
7
  6
CONTINUOUS
 10
123.7524529218
 20
471.7318610181
 11
169.4746522551
 21
471.7318610181
  0
LINE
  5
30F
100
AcDbEntity
  8
0
100
AcDbLine
 62
7
  6
CONTINUOUS
 10
121.6135525885
 20
472.8458208168
 11
171.6135525885
 21
472.8458208168
  0
LINE
  5
310
100
AcDbEntity
  8
DEFAULT_2
100
AcDbLine
 62
8
  6
HIDDEN
 10
168.378631819
 20
473.8458208168
 11
168.4524529218
 21
471.7318610181
  0
LINE
  5
311
100
AcDbEntity
  8
DEFAULT_2
100
AcDbLine
 62
8
  6
HIDDEN
 10
168.8284820405
 20
429.9390265114
 11
168.4635525885
 21
450.8458208168
  0
LINE
  5
312
100
AcDbEntity
  8
DEFAULT_2
100
AcDbLine
 62
8
  6
HIDDEN
 10
168.1135525885
 20
452.8458208168
 11
168.1135525885
 21
429.8458208168
  0
LINE
  5
313
100
AcDbEntity
  8
0
100
AcDbLine
 62
7
  6
CONTINUOUS
 10
168.1135525885
 20
471.3458208168
 11
168.1135525885
 21
475.8458208168
  0
LINE
  5
314
100
AcDbEntity
  8
DEFAULT_2
100
AcDbLine
 62
8
  6
HIDDEN
 10
168.1135525885
 20
473.8458208168
 11
168.0699282176
 21
471.346582283
  0
LINE
  5
315
100
AcDbEntity
  8
0
100
AcDbLine
 62
7
  6
CONTINUOUS
 10
168.0699282176
 20
471.346582283
 11
168.0611873937
 21
470.8458208168
  0
LINE
  5
316
100
AcDbEntity
  8
0
100
AcDbLine
 62
7
  6
CONTINUOUS
 10
167.536605274
 20
430.7672899719
 11
168.1147519511
 21
452.8458208168
  0
LINE
  5
317
100
AcDbEntity
  8
DEFAULT_2
100
AcDbLine
 62
8
  6
HIDDEN
 10
169.6135525885
 20
452.8458208168
 11
169.0240266194
 21
430.3327323426
  0
LINE
  5
318
100
AcDbEntity
  8
0
100
AcDbLine
 62
7
  6
CONTINUOUS
 10
169.5135525885
 20
472.8458208168
 11
169.4746522551
 21
471.7318610181
  0
LINE
  5
319
100
AcDbEntity
  8
DEFAULT_2
100
AcDbLine
 62
8
  6
HIDDEN
 10
148.1135525885
 20
473.1958208168
 11
145.1135525885
 21
473.1958208168
  0
LINE
  5
31A
100
AcDbEntity
  8
DEFAULT_2
100
AcDbLine
 62
8
  6
HIDDEN
 10
124.848473358
 20
473.8458208168
 11
168.378631819
 21
473.8458208168
  0
LINE
  5
31B
100
AcDbEntity
  8
DEFAULT_2
100
AcDbLine
 62
8
  6
HIDDEN
 10
167.3635525885
 20
474.4458208168
 11
163.8635525885
 21
474.4458208168
  0
LINE
  5
31C
100
AcDbEntity
  8
DEFAULT_2
100
AcDbLine
 62
8
  6
HIDDEN
 10
129.3635525885
 20
474.4458208168
 11
125.8635525885
 21
474.4458208168
  0
LINE
  5
31D
100
AcDbEntity
  8
0
100
AcDbLine
 62
7
  6
CONTINUOUS
 10
171.6135525885
 20
452.8458208168
 11
171.0354059114
 21
430.7672899719
  0
LINE
  5
31E
100
AcDbEntity
  8
0
100
AcDbLine
 62
7
  6
CONTINUOUS
 10
124.6135525885
 20
475.8458208168
 11
168.6135525885
 21
475.8458208168
  0
LINE
  5
31F
100
AcDbEntity
  8
DEFAULT_2
100
AcDbLine
 62
8
  6
HIDDEN
 10
163.8635525938
 20
474.4458208108
 11
162.6135525977
 21
475.8458208065
  0
LINE
  5
320
100
AcDbEntity
  8
0
100
AcDbLine
 62
7
  6
CONTINUOUS
 10
121.6135525885
 20
274.264805865
 11
121.6135525885
 21
246.2648058664
  0
LINE
  5
321
100
AcDbEntity
  8
DEFAULT_2
100
AcDbLine
 62
8
  6
HIDDEN
 10
122.1916992655
 20
273.6878585505
 11
122.1916992655
 21
246.8417531795
  0
LINE
  5
322
100
AcDbEntity
  8
DEFAULT_2
100
AcDbLine
 62
8
  6
HIDDEN
 10
123.6135525885
 20
246.264805865
 11
123.6135525885
 21
274.264805865
  0
LINE
  5
323
100
AcDbEntity
  8
DEFAULT_2
100
AcDbLine
 62
8
  6
HIDDEN
 10
123.7135525885
 20
246.264805865
 11
123.7135525885
 21
274.264805865
  0
LINE
  5
324
100
AcDbEntity
  8
DEFAULT_2
100
AcDbLine
 62
8
  6
HIDDEN
 10
123.7524529218
 20
274.264805865
 11
123.7524529218
 21
246.264805865
  0
LINE
  5
325
100
AcDbEntity
  8
DEFAULT_2
100
AcDbLine
 62
8
  6
HIDDEN
 10
124.1522092526
 20
246.264805865
 11
124.1522092526
 21
274.264805865
  0
LINE
  5
326
100
AcDbEntity
  8
DEFAULT_2
100
AcDbLine
 62
8
  6
HIDDEN
 10
124.2030785575
 20
274.264805865
 11
124.2030785575
 21
246.264805865
  0
LINE
  5
327
100
AcDbEntity
  8
DEFAULT_2
100
AcDbLine
 62
8
  6
HIDDEN
 10
124.3748959243
 20
274.264805865
 11
124.3748959243
 21
246.264805865
  0
LINE
  5
328
100
AcDbEntity
  8
0
100
AcDbLine
 62
7
  6
CONTINUOUS
 10
124.6135525885
 20
274.264805865
 11
124.6135525885
 21
246.264805865
  0
LINE
  5
329
100
AcDbEntity
  8
DEFAULT_2
100
AcDbLine
 62
8
  6
HIDDEN
 10
124.70290722
 20
246.6374945056
 11
124.70290722
 21
247.3957450934
  0
LINE
  5
32A
100
AcDbEntity
  8
DEFAULT_2
100
AcDbLine
 62
8
  6
HIDDEN
 10
124.70290722
 20
250.1339126944
 11
124.70290722
 21
274.264805865
  0
LINE
  5
32B
100
AcDbEntity
  8
DEFAULT_2
100
AcDbLine
 62
8
  6
HIDDEN
 10
124.7746522551
 20
246.264805865
 11
124.7746522551
 21
274.264805865
  0
LINE
  5
32C
100
AcDbEntity
  8
DEFAULT_2
100
AcDbLine
 62
8
  6
HIDDEN
 10
124.848473358
 20
274.264805865
 11
124.848473358
 21
246.264805865
  0
LINE
  5
32D
100
AcDbEntity
  8
0
100
AcDbLine
 62
7
  6
CONTINUOUS
 10
125.1135525899
 20
277.764805865
 11
125.1135525885
 21
274.764805865
  0
LINE
  5
32E
100
AcDbEntity
  8
0
100
AcDbLine
 62
7
  6
CONTINUOUS
 10
125.1135525885
 20
245.764805865
 11
125.1135525885
 21
242.764805865
  0
LINE
  5
32F
100
AcDbEntity
  8
DEFAULT_2
100
AcDbLine
 62
8
  6
HIDDEN
 10
125.1135525885
 20
245.764805865
 11
125.1135525885
 21
245.9997266345
  0
LINE
  5
330
100
AcDbEntity
  8
DEFAULT_2
100
AcDbLine
 62
8
  6
HIDDEN
 10
125.1135525885
 20
274.5298850955
 11
125.1135525885
 21
274.764805865
  0
LINE
  5
331
100
AcDbEntity
  8
DEFAULT_2
100
AcDbLine
 62
8
  6
HIDDEN
 10
125.1906712405
 20
246.8417531795
 11
125.1906712405
 21
273.6878585505
  0
LINE
  5
332
100
AcDbEntity
  8
DEFAULT_2
100
AcDbLine
 62
8
  6
HIDDEN
 10
125.6135525885
 20
247.764805865
 11
125.6135525885
 21
272.764805865
  0
LINE
  5
333
100
AcDbEntity
  8
DEFAULT_2
100
AcDbLine
 62
8
  6
HIDDEN
 10
125.690499903
 20
277.1866591879
 11
125.690499903
 21
274.187687213
  0
LINE
  5
334
100
AcDbEntity
  8
DEFAULT_2
100
AcDbLine
 62
8
  6
HIDDEN
 10
125.690499903
 20
246.341924517
 11
125.6904999036
 21
243.3429525421
  0
LINE
  5
335
100
AcDbEntity
  8
DEFAULT_2
100
AcDbLine
 62
8
  6
HIDDEN
 10
126.8635525885
 20
252.764805865
 11
126.8635525885
 21
251.8927020972
  0
LINE
  5
336
100
AcDbEntity
  8
DEFAULT_2
100
AcDbLine
 62
8
  6
HIDDEN
 10
126.9159177832
 20
252.764805865
 11
126.9159177832
 21
251.8511323919
  0
LINE
  5
337
100
AcDbEntity
  8
DEFAULT_2
100
AcDbLine
 62
8
  6
HIDDEN
 10
128.3111873937
 20
251.8511323919
 11
128.3111873937
 21
252.764805865
  0
LINE
  5
338
100
AcDbEntity
  8
DEFAULT_2
100
AcDbLine
 62
8
  6
HIDDEN
 10
128.3635525885
 20
251.8927020972
 11
128.3635525885
 21
252.764805865
  0
LINE
  5
339
100
AcDbEntity
  8
0
100
AcDbLine
 62
7
  6
CONTINUOUS
 10
168.1135525885
 20
242.764805865
 11
125.1135525885
 21
242.764805865
  0
LINE
  5
33A
100
AcDbEntity
  8
DEFAULT_2
100
AcDbLine
 62
8
  6
HIDDEN
 10
148.1135525885
 20
243.164805865
 11
145.1135525885
 21
243.164805865
  0
LINE
  5
33B
100
AcDbEntity
  8
DEFAULT_2
100
AcDbLine
 62
8
  6
HIDDEN
 10
125.6904999029
 20
243.3429525421
 11
167.536605274
 21
243.3429525421
  0
LINE
  5
33C
100
AcDbEntity
  8
DEFAULT_2
100
AcDbLine
 62
8
  6
HIDDEN
 10
131.6135525885
 20
248.014805865
 11
131.6135525885
 21
248.0671710598
  0
LINE
  5
33D
100
AcDbEntity
  8
DEFAULT_2
100
AcDbLine
 62
8
  6
HIDDEN
 10
131.6135525885
 20
249.4624406702
 11
131.6135525885
 21
249.514805865
  0
LINE
  5
33E
100
AcDbEntity
  8
DEFAULT_2
100
AcDbLine
 62
8
  6
HIDDEN
 10
168.1135525885
 20
244.764805865
 11
125.1135525885
 21
244.764805865
  0
LINE
  5
33F
100
AcDbEntity
  8
DEFAULT_2
100
AcDbLine
 62
8
  6
HIDDEN
 10
125.1135525885
 20
244.864805865
 11
168.1135525885
 21
244.864805865
  0
LINE
  5
340
100
AcDbEntity
  8
DEFAULT_2
100
AcDbLine
 62
8
  6
HIDDEN
 10
125.1135525885
 20
244.9037061984
 11
168.1135525885
 21
244.9037061984
  0
LINE
  5
341
100
AcDbEntity
  8
DEFAULT_2
100
AcDbLine
 62
8
  6
HIDDEN
 10
168.1135525885
 20
245.3034625292
 11
125.1135525885
 21
245.3034625292
  0
LINE
  5
342
100
AcDbEntity
  8
DEFAULT_2
100
AcDbLine
 62
8
  6
HIDDEN
 10
125.1135525885
 20
245.3543318341
 11
168.1135525885
 21
245.3543318341
  0
LINE
  5
343
100
AcDbEntity
  8
DEFAULT_2
100
AcDbLine
 62
8
  6
HIDDEN
 10
125.1135525885
 20
245.5261492008
 11
168.1135525885
 21
245.5261492008
  0
LINE
  5
344
100
AcDbEntity
  8
0
100
AcDbLine
 62
7
  6
CONTINUOUS
 10
125.1135525885
 20
245.764805865
 11
168.1135525885
 21
245.764805865
  0
LINE
  5
345
100
AcDbEntity
  8
DEFAULT_2
100
AcDbLine
 62
8
  6
HIDDEN
 10
168.1135525885
 20
245.8541604966
 11
128.9826319794
 21
245.8541604966
  0
LINE
  5
346
100
AcDbEntity
  8
DEFAULT_2
100
AcDbLine
 62
8
  6
HIDDEN
 10
126.2444776404
 20
245.8541604966
 11
125.486241229
 21
245.8541604966
  0
LINE
  5
347
100
AcDbEntity
  8
DEFAULT_2
100
AcDbLine
 62
8
  6
HIDDEN
 10
168.1135525885
 20
245.9259055317
 11
125.1135525885
 21
245.9259055317
  0
LINE
  5
348
100
AcDbEntity
  8
DEFAULT_2
100
AcDbLine
 62
8
  6
HIDDEN
 10
125.1135525885
 20
245.9997266345
 11
168.1135525885
 21
245.9997266345
  0
LINE
  5
349
100
AcDbEntity
  8
0
100
AcDbLine
 62
7
  6
CONTINUOUS
 10
121.6135525885
 20
246.2648058664
 11
124.6135525885
 21
246.264805865
  0
LINE
  5
34A
100
AcDbEntity
  8
DEFAULT_2
100
AcDbLine
 62
8
  6
HIDDEN
 10
124.6135525885
 20
246.264805865
 11
124.848473358
 21
246.264805865
  0
LINE
  5
34B
100
AcDbEntity
  8
DEFAULT_2
100
AcDbLine
 62
8
  6
HIDDEN
 10
168.378631819
 20
246.264805865
 11
168.6135525885
 21
246.264805865
  0
LINE
  5
34C
100
AcDbEntity
  8
0
100
AcDbLine
 62
7
  6
CONTINUOUS
 10
168.6135525885
 20
246.264805865
 11
171.6135525885
 21
246.264805865
  0
LINE
  5
34D
100
AcDbEntity
  8
DEFAULT_2
100
AcDbLine
 62
8
  6
HIDDEN
 10
167.536605274
 20
246.341924517
 11
125.6904999029
 21
246.341924517
  0
LINE
  5
34E
100
AcDbEntity
  8
DEFAULT_2
100
AcDbLine
 62
8
  6
HIDDEN
 10
166.6135525885
 20
246.764805865
 11
126.6135525885
 21
246.764805865
  0
LINE
  5
34F
100
AcDbEntity
  8
DEFAULT_2
100
AcDbLine
 62
8
  6
HIDDEN
 10
122.1916992655
 20
246.8417531795
 11
125.1906712405
 21
246.8417531795
  0
LINE
  5
350
100
AcDbEntity
  8
DEFAULT_2
100
AcDbLine
 62
8
  6
HIDDEN
 10
168.0364339365
 20
246.8417531795
 11
171.0354059114
 21
246.8417531802
  0
LINE
  5
351
100
AcDbEntity
  8
DEFAULT_2
100
AcDbLine
 62
8
  6
HIDDEN
 10
130.7414488207
 20
248.014805865
 11
131.6135525885
 21
248.014805865
  0
LINE
  5
352
100
AcDbEntity
  8
DEFAULT_2
100
AcDbLine
 62
8
  6
HIDDEN
 10
131.6135525885
 20
248.0671710598
 11
130.6998791154
 21
248.0671710598
  0
LINE
  5
353
100
AcDbEntity
  8
DEFAULT_2
100
AcDbLine
 62
8
  6
HIDDEN
 10
130.6998791154
 20
249.4624406702
 11
131.6135525885
 21
249.4624406702
  0
LINE
  5
354
100
AcDbEntity
  8
DEFAULT_2
100
AcDbLine
 62
8
  6
HIDDEN
 10
131.6135525885
 20
249.514805865
 11
130.7414488207
 21
249.514805865
  0
LINE
  5
355
100
AcDbEntity
  8
DEFAULT_2
100
AcDbLine
 62
8
  6
HIDDEN
 10
122.1916992655
 20
246.8417531795
 11
121.6135525885
 21
246.2636065024
  0
LINE
  5
356
100
AcDbEntity
  8
DEFAULT_2
100
AcDbLine
 62
8
  6
HIDDEN
 10
124.70290722
 20
246.6374945056
 11
124.9814136744
 21
246.91600096
  0
LINE
  5
357
100
AcDbEntity
  8
DEFAULT_2
100
AcDbLine
 62
8
  6
HIDDEN
 10
128.3635525885
 20
252.764805865
 11
128.3111873937
 21
252.764805865
  0
LINE
  5
358
100
AcDbEntity
  8
DEFAULT_2
100
AcDbLine
 62
8
  6
HIDDEN
 10
126.9159177832
 20
252.764805865
 11
126.8635525885
 21
252.764805865
  0
LINE
  5
359
100
AcDbEntity
  8
DEFAULT_2
100
AcDbLine
 62
8
  6
HIDDEN
 10
121.6135525885
 20
274.2660052276
 11
122.1916992655
 21
273.6878585505
  0
LINE
  5
35A
100
AcDbEntity
  8
DEFAULT_2
100
AcDbLine
 62
8
  6
HIDDEN
 10
125.3444291995
 20
247.026012562
 11
123.8692894328
 21
245.5508727952
  0
LINE
  5
35B
100
AcDbEntity
  8
DEFAULT_2
100
AcDbLine
 62
8
  6
HIDDEN
 10
124.3996195187
 20
245.0205427093
 11
125.8747592854
 21
246.4956824761
  0
LINE
  5
35C
100
AcDbEntity
  8
DEFAULT_2
100
AcDbLine
 62
8
  6
HIDDEN
 10
125.7647476835
 20
246.132666951
 11
125.486241229
 21
245.8541604966
  0
LINE
  5
35D
100
AcDbEntity
  8
DEFAULT_2
100
AcDbLine
 62
8
  6
HIDDEN
 10
125.1123532259
 20
242.764805865
 11
125.6904999029
 21
243.3429525421
  0
LINE
  5
35E
100
AcDbEntity
  8
DEFAULT_2
100
AcDbLine
 62
8
  6
HIDDEN
 10
125.6904999029
 20
277.1866591879
 11
125.1123532259
 21
277.764805865
  0
LINE
  5
35F
100
AcDbEntity
  8
DEFAULT_2
100
AcDbLine
 62
8
  6
HIDDEN
 10
145.1135525885
 20
243.164805865
 11
145.1135525885
 21
244.864805865
  0
LINE
  5
360
100
AcDbEntity
  8
DEFAULT_2
100
AcDbLine
 62
8
  6
HIDDEN
 10
145.1135525885
 20
275.664805865
 11
145.1135525885
 21
277.364805865
  0
LINE
  5
361
100
AcDbEntity
  8
DEFAULT_2
100
AcDbLine
 62
8
  6
HIDDEN
 10
148.1135525885
 20
277.364805865
 11
148.1135525885
 21
275.664805865
  0
LINE
  5
362
100
AcDbEntity
  8
DEFAULT_2
100
AcDbLine
 62
8
  6
HIDDEN
 10
148.1135525885
 20
244.864805865
 11
148.1135525885
 21
243.164805865
  0
LINE
  5
363
100
AcDbEntity
  8
DEFAULT_2
100
AcDbLine
 62
8
  6
HIDDEN
 10
168.1147519511
 20
277.764805865
 11
167.536605274
 21
277.1866591879
  0
LINE
  5
364
100
AcDbEntity
  8
DEFAULT_2
100
AcDbLine
 62
8
  6
HIDDEN
 10
167.536605274
 20
243.3429525421
 11
168.1147519511
 21
242.764805865
  0
LINE
  5
365
100
AcDbEntity
  8
DEFAULT_2
100
AcDbLine
 62
8
  6
HIDDEN
 10
167.4623574935
 20
274.396944779
 11
167.7408639479
 21
274.6754512335
  0
LINE
  5
366
100
AcDbEntity
  8
DEFAULT_2
100
AcDbLine
 62
8
  6
HIDDEN
 10
168.8274856583
 20
275.5090690207
 11
167.3523458915
 21
274.0339292539
  0
LINE
  5
367
100
AcDbEntity
  8
DEFAULT_2
100
AcDbLine
 62
8
  6
HIDDEN
 10
167.8826759774
 20
273.503599168
 11
169.3578157442
 21
274.9787389348
  0
LINE
  5
368
100
AcDbEntity
  8
DEFAULT_2
100
AcDbLine
 62
8
  6
HIDDEN
 10
168.5241979569
 20
273.8921172244
 11
168.2456915025
 21
273.61361077
  0
LINE
  5
369
100
AcDbEntity
  8
DEFAULT_2
100
AcDbLine
 62
8
  6
HIDDEN
 10
171.0354059114
 20
273.6878585505
 11
171.6135525885
 21
274.2660052276
  0
LINE
  5
36A
100
AcDbEntity
  8
DEFAULT_2
100
AcDbLine
 62
8
  6
HIDDEN
 10
164.8635525885
 20
267.764805865
 11
164.9159177832
 21
267.764805865
  0
LINE
  5
36B
100
AcDbEntity
  8
DEFAULT_2
100
AcDbLine
 62
8
  6
HIDDEN
 10
166.3111873937
 20
267.764805865
 11
166.3635525885
 21
267.764805865
  0
LINE
  5
36C
100
AcDbEntity
  8
DEFAULT_2
100
AcDbLine
 62
8
  6
HIDDEN
 10
171.6135525885
 20
246.2636065024
 11
171.0354059114
 21
246.8417531795
  0
LINE
  5
36D
100
AcDbEntity
  8
DEFAULT_2
100
AcDbLine
 62
8
  6
HIDDEN
 10
161.6135525885
 20
271.014805865
 11
162.4856563563
 21
271.014805865
  0
LINE
  5
36E
100
AcDbEntity
  8
DEFAULT_2
100
AcDbLine
 62
8
  6
HIDDEN
 10
162.5272260616
 20
271.0671710598
 11
161.6135525885
 21
271.0671710598
  0
LINE
  5
36F
100
AcDbEntity
  8
DEFAULT_2
100
AcDbLine
 62
8
  6
HIDDEN
 10
161.6135525885
 20
272.4624406702
 11
162.5272260616
 21
272.4624406702
  0
LINE
  5
370
100
AcDbEntity
  8
DEFAULT_2
100
AcDbLine
 62
8
  6
HIDDEN
 10
162.4856563563
 20
272.514805865
 11
161.6135525885
 21
272.514805865
  0
LINE
  5
371
100
AcDbEntity
  8
DEFAULT_2
100
AcDbLine
 62
8
  6
HIDDEN
 10
171.0354059114
 20
273.6878585505
 11
168.0364339365
 21
273.6878585505
  0
LINE
  5
372
100
AcDbEntity
  8
DEFAULT_2
100
AcDbLine
 62
8
  6
HIDDEN
 10
125.1906712405
 20
273.6878585505
 11
122.1916992655
 21
273.6878585498
  0
LINE
  5
373
100
AcDbEntity
  8
DEFAULT_2
100
AcDbLine
 62
8
  6
HIDDEN
 10
126.6135525885
 20
273.764805865
 11
166.6135525885
 21
273.764805865
  0
LINE
  5
374
100
AcDbEntity
  8
DEFAULT_2
100
AcDbLine
 62
8
  6
HIDDEN
 10
125.6904999029
 20
274.187687213
 11
167.536605274
 21
274.187687213
  0
LINE
  5
375
100
AcDbEntity
  8
0
100
AcDbLine
 62
7
  6
CONTINUOUS
 10
171.6135525885
 20
274.2648058636
 11
168.6135525885
 21
274.264805865
  0
LINE
  5
376
100
AcDbEntity
  8
0
100
AcDbLine
 62
7
  6
CONTINUOUS
 10
124.6135525885
 20
274.264805865
 11
121.6135525885
 21
274.264805865
  0
LINE
  5
377
100
AcDbEntity
  8
DEFAULT_2
100
AcDbLine
 62
8
  6
HIDDEN
 10
124.6135525885
 20
274.264805865
 11
124.848473358
 21
274.264805865
  0
LINE
  5
378
100
AcDbEntity
  8
DEFAULT_2
100
AcDbLine
 62
8
  6
HIDDEN
 10
168.378631819
 20
274.264805865
 11
168.6135525885
 21
274.264805865
  0
LINE
  5
379
100
AcDbEntity
  8
DEFAULT_2
100
AcDbLine
 62
8
  6
HIDDEN
 10
168.1135525885
 20
274.5298850955
 11
125.1135525885
 21
274.5298850955
  0
LINE
  5
37A
100
AcDbEntity
  8
DEFAULT_2
100
AcDbLine
 62
8
  6
HIDDEN
 10
125.1135525885
 20
274.6037061984
 11
168.1135525885
 21
274.6037061984
  0
LINE
  5
37B
100
AcDbEntity
  8
DEFAULT_2
100
AcDbLine
 62
8
  6
HIDDEN
 10
125.1135525885
 20
274.6754512335
 11
164.2444731975
 21
274.6754512335
  0
LINE
  5
37C
100
AcDbEntity
  8
DEFAULT_2
100
AcDbLine
 62
8
  6
HIDDEN
 10
166.9826275365
 20
274.6754512335
 11
167.7408639479
 21
274.6754512335
  0
LINE
  5
37D
100
AcDbEntity
  8
0
100
AcDbLine
 62
7
  6
CONTINUOUS
 10
168.1135525885
 20
274.764805865
 11
125.1135525885
 21
274.764805865
  0
LINE
  5
37E
100
AcDbEntity
  8
DEFAULT_2
100
AcDbLine
 62
8
  6
HIDDEN
 10
161.6135525885
 20
272.514805865
 11
161.6135525885
 21
272.4624406702
  0
LINE
  5
37F
100
AcDbEntity
  8
DEFAULT_2
100
AcDbLine
 62
8
  6
HIDDEN
 10
161.6135525885
 20
271.0671710598
 11
161.6135525885
 21
271.014805865
  0
LINE
  5
380
100
AcDbEntity
  8
DEFAULT_2
100
AcDbLine
 62
8
  6
HIDDEN
 10
168.1135525885
 20
275.0034625292
 11
125.1135525885
 21
275.0034625292
  0
LINE
  5
381
100
AcDbEntity
  8
DEFAULT_2
100
AcDbLine
 62
8
  6
HIDDEN
 10
168.1135525885
 20
275.1752798959
 11
125.1135525885
 21
275.1752798959
  0
LINE
  5
382
100
AcDbEntity
  8
DEFAULT_2
100
AcDbLine
 62
8
  6
HIDDEN
 10
125.1135525885
 20
275.2261492008
 11
168.1135525885
 21
275.2261492008
  0
LINE
  5
383
100
AcDbEntity
  8
DEFAULT_2
100
AcDbLine
 62
8
  6
HIDDEN
 10
168.1135525885
 20
275.6259055317
 11
125.1135525885
 21
275.6259055317
  0
LINE
  5
384
100
AcDbEntity
  8
DEFAULT_2
100
AcDbLine
 62
8
  6
HIDDEN
 10
125.1135525885
 20
275.664805865
 11
168.1135525885
 21
275.664805865
  0
LINE
  5
385
100
AcDbEntity
  8
DEFAULT_2
100
AcDbLine
 62
8
  6
HIDDEN
 10
125.1135525885
 20
275.764805865
 11
168.1135525885
 21
275.764805865
  0
LINE
  5
386
100
AcDbEntity
  8
DEFAULT_2
100
AcDbLine
 62
8
  6
HIDDEN
 10
164.8635525885
 20
268.6369096328
 11
164.8635525885
 21
267.764805865
  0
LINE
  5
387
100
AcDbEntity
  8
DEFAULT_2
100
AcDbLine
 62
8
  6
HIDDEN
 10
164.9159177832
 20
268.6784793381
 11
164.9159177832
 21
267.764805865
  0
LINE
  5
388
100
AcDbEntity
  8
DEFAULT_2
100
AcDbLine
 62
8
  6
HIDDEN
 10
167.536605274
 20
277.1866591879
 11
125.6904999029
 21
277.1866591879
  0
LINE
  5
389
100
AcDbEntity
  8
DEFAULT_2
100
AcDbLine
 62
8
  6
HIDDEN
 10
145.1135525885
 20
277.364805865
 11
148.1135525885
 21
277.364805865
  0
LINE
  5
38A
100
AcDbEntity
  8
0
100
AcDbLine
 62
7
  6
CONTINUOUS
 10
168.1135525885
 20
277.764805865
 11
125.1135525899
 21
277.764805865
  0
LINE
  5
38B
100
AcDbEntity
  8
DEFAULT_2
100
AcDbLine
 62
8
  6
HIDDEN
 10
166.3111873937
 20
267.764805865
 11
166.3111873937
 21
268.6784793381
  0
LINE
  5
38C
100
AcDbEntity
  8
DEFAULT_2
100
AcDbLine
 62
8
  6
HIDDEN
 10
166.3635525885
 20
267.764805865
 11
166.3635525885
 21
268.6369096328
  0
LINE
  5
38D
100
AcDbEntity
  8
DEFAULT_2
100
AcDbLine
 62
8
  6
HIDDEN
 10
167.536605274
 20
243.3429525421
 11
167.536605274
 21
246.341924517
  0
LINE
  5
38E
100
AcDbEntity
  8
DEFAULT_2
100
AcDbLine
 62
8
  6
HIDDEN
 10
167.536605274
 20
274.187687213
 11
167.5366052733
 21
277.1866591879
  0
LINE
  5
38F
100
AcDbEntity
  8
DEFAULT_2
100
AcDbLine
 62
8
  6
HIDDEN
 10
167.6135525885
 20
272.764805865
 11
167.6135525885
 21
247.764805865
  0
LINE
  5
390
100
AcDbEntity
  8
DEFAULT_2
100
AcDbLine
 62
8
  6
HIDDEN
 10
168.0364339365
 20
273.6878585505
 11
168.0364339365
 21
246.8417531795
  0
LINE
  5
391
100
AcDbEntity
  8
0
100
AcDbLine
 62
7
  6
CONTINUOUS
 10
168.1135525871
 20
242.764805865
 11
168.1135525885
 21
245.764805865
  0
LINE
  5
392
100
AcDbEntity
  8
DEFAULT_2
100
AcDbLine
 62
8
  6
HIDDEN
 10
168.1135525885
 20
245.764805865
 11
168.1135525885
 21
245.9997266345
  0
LINE
  5
393
100
AcDbEntity
  8
DEFAULT_2
100
AcDbLine
 62
8
  6
HIDDEN
 10
168.1135525885
 20
274.5298850955
 11
168.1135525885
 21
274.764805865
  0
LINE
  5
394
100
AcDbEntity
  8
0
100
AcDbLine
 62
7
  6
CONTINUOUS
 10
168.1135525885
 20
274.764805865
 11
168.1135525885
 21
277.764805865
  0
LINE
  5
395
100
AcDbEntity
  8
DEFAULT_2
100
AcDbLine
 62
8
  6
HIDDEN
 10
168.378631819
 20
246.264805865
 11
168.378631819
 21
274.264805865
  0
LINE
  5
396
100
AcDbEntity
  8
DEFAULT_2
100
AcDbLine
 62
8
  6
HIDDEN
 10
168.4524529218
 20
274.264805865
 11
168.4524529218
 21
246.264805865
  0
LINE
  5
397
100
AcDbEntity
  8
DEFAULT_2
100
AcDbLine
 62
8
  6
HIDDEN
 10
168.5241979569
 20
273.8921172244
 11
168.5241979569
 21
273.1338666367
  0
LINE
  5
398
100
AcDbEntity
  8
DEFAULT_2
100
AcDbLine
 62
8
  6
HIDDEN
 10
168.5241979569
 20
270.3956990356
 11
168.5241979569
 21
246.264805865
  0
LINE
  5
399
100
AcDbEntity
  8
0
100
AcDbLine
 62
7
  6
CONTINUOUS
 10
168.6135525885
 20
246.264805865
 11
168.6135525885
 21
274.264805865
  0
LINE
  5
39A
100
AcDbEntity
  8
DEFAULT_2
100
AcDbLine
 62
8
  6
HIDDEN
 10
168.8522092526
 20
246.264805865
 11
168.8522092526
 21
274.264805865
  0
LINE
  5
39B
100
AcDbEntity
  8
DEFAULT_2
100
AcDbLine
 62
8
  6
HIDDEN
 10
169.0240266194
 20
246.264805865
 11
169.0240266194
 21
274.264805865
  0
LINE
  5
39C
100
AcDbEntity
  8
DEFAULT_2
100
AcDbLine
 62
8
  6
HIDDEN
 10
169.0748959243
 20
274.264805865
 11
169.0748959243
 21
246.264805865
  0
LINE
  5
39D
100
AcDbEntity
  8
DEFAULT_2
100
AcDbLine
 62
8
  6
HIDDEN
 10
169.4746522551
 20
246.264805865
 11
169.4746522551
 21
274.264805865
  0
LINE
  5
39E
100
AcDbEntity
  8
DEFAULT_2
100
AcDbLine
 62
8
  6
HIDDEN
 10
169.5135525885
 20
274.264805865
 11
169.5135525885
 21
246.264805865
  0
LINE
  5
39F
100
AcDbEntity
  8
DEFAULT_2
100
AcDbLine
 62
8
  6
HIDDEN
 10
169.6135525885
 20
274.264805865
 11
169.6135525885
 21
246.264805865
  0
LINE
  5
3A0
100
AcDbEntity
  8
DEFAULT_2
100
AcDbLine
 62
8
  6
HIDDEN
 10
171.0354059114
 20
246.8417531795
 11
171.0354059114
 21
273.6878585505
  0
LINE
  5
3A1
100
AcDbEntity
  8
0
100
AcDbLine
 62
7
  6
CONTINUOUS
 10
171.6135525885
 20
274.264805865
 11
171.6135525885
 21
246.264805865
  0
LINE
  5
3A2
100
AcDbEntity
  8
0
100
AcDbLine
 62
7
  6
CONTINUOUS
 10
275.1343611182
 20
246.3419248528
 11
275.1343611182
 21
274.1876868725
  0
LINE
  5
3A3
100
AcDbEntity
  8
DEFAULT_2
100
AcDbLine
 62
8
  6
HIDDEN
 10
275.6343611182
 20
246.764805865
 11
275.6343611182
 21
273.764805865
  0
LINE
  5
3A4
100
AcDbEntity
  8
DEFAULT_2
100
AcDbLine
 62
8
  6
HIDDEN
 10
277.1343611182
 20
245.8541604966
 11
277.1343611182
 21
274.6754512335
  0
LINE
  5
3A5
100
AcDbEntity
  8
DEFAULT_2
100
AcDbLine
 62
8
  6
HIDDEN
 10
277.6212726441
 20
245.3543318341
 11
277.6212726441
 21
275.1752798959
  0
LINE
  5
3A6
100
AcDbEntity
  8
0
100
AcDbLine
 62
7
  6
CONTINUOUS
 10
278.0558302733
 20
273.6878585505
 11
278.0558302733
 21
246.8417531795
  0
LINE
  5
3A7
100
AcDbEntity
  8
DEFAULT_2
100
AcDbLine
 62
8
  6
HIDDEN
 10
280.1343611182
 20
273.7124406702
 11
280.1343611182
 21
269.8171710598
  0
LINE
  5
3A8
100
AcDbEntity
  8
DEFAULT_2
100
AcDbLine
 62
8
  6
HIDDEN
 10
280.1343611182
 20
268.6784793381
 11
280.1343611182
 21
267.067414771
  0
LINE
  5
3A9
100
AcDbEntity
  8
DEFAULT_2
100
AcDbLine
 62
8
  6
HIDDEN
 10
280.1343611182
 20
253.462196959
 11
280.1343611182
 21
251.8511323919
  0
LINE
  5
3AA
100
AcDbEntity
  8
DEFAULT_2
100
AcDbLine
 62
8
  6
HIDDEN
 10
280.1343611182
 20
250.7124406702
 11
280.1343611182
 21
246.8171710598
  0
LINE
  5
3AB
100
AcDbEntity
  8
DEFAULT_2
100
AcDbLine
 62
8
  6
HIDDEN
 10
320.4843611182
 20
243.164805865
 11
320.1343611182
 21
243.164805865
  0
LINE
  5
3AC
100
AcDbEntity
  8
0
100
AcDbLine
 62
7
  6
CONTINUOUS
 10
300.1343611182
 20
242.764805865
 11
278.0558302733
 21
243.3429525421
  0
LINE
  5
3AD
100
AcDbEntity
  8
DEFAULT_2
100
AcDbLine
 62
8
  6
HIDDEN
 10
321.1343611182
 20
245.9997266345
 11
319.0204013195
 21
245.9259055317
  0
LINE
  5
3AE
100
AcDbEntity
  8
DEFAULT_2
100
AcDbLine
 62
8
  6
HIDDEN
 10
277.2374777022
 20
245.5500494082
 11
298.1343611182
 21
245.914805865
  0
LINE
  5
3AF
100
AcDbEntity
  8
DEFAULT_2
100
AcDbLine
 62
8
  6
HIDDEN
 10
320.4843611182
 20
244.864805865
 11
320.1343611182
 21
244.864805865
  0
LINE
  5
3B0
100
AcDbEntity
  8
DEFAULT_2
100
AcDbLine
 62
8
  6
HIDDEN
 10
300.1343611182
 20
246.264805865
 11
277.1343611182
 21
246.264805865
  0
LINE
  5
3B1
100
AcDbEntity
  8
0
100
AcDbLine
 62
7
  6
CONTINUOUS
 10
318.6343611182
 20
246.264805865
 11
323.1343611182
 21
246.264805865
  0
LINE
  5
3B2
100
AcDbEntity
  8
DEFAULT_2
100
AcDbLine
 62
8
  6
HIDDEN
 10
321.1343611182
 20
246.264805865
 11
318.6351225844
 21
246.3084302359
  0
LINE
  5
3B3
100
AcDbEntity
  8
0
100
AcDbLine
 62
7
  6
CONTINUOUS
 10
318.6351225844
 20
246.3084302359
 11
318.1343611182
 21
246.3171710598
  0
LINE
  5
3B4
100
AcDbEntity
  8
DEFAULT_2
100
AcDbLine
 62
8
  6
HIDDEN
 10
300.1343611182
 20
244.764805865
 11
277.6212726441
 21
245.3543318341
  0
LINE
  5
3B5
100
AcDbEntity
  8
0
100
AcDbLine
 62
7
  6
CONTINUOUS
 10
278.0558302733
 20
246.8417531795
 11
300.1343611182
 21
246.2636065024
  0
LINE
  5
3B6
100
AcDbEntity
  8
0
100
AcDbLine
 62
7
  6
CONTINUOUS
 10
320.1343611182
 20
244.864805865
 11
319.0204013195
 21
244.9037061984
  0
LINE
  5
3B7
100
AcDbEntity
  8
DEFAULT_2
100
AcDbLine
 62
8
  6
HIDDEN
 10
280.1343611182
 20
246.8171710598
 11
277.1343611182
 21
246.764805865
  0
LINE
  5
3B8
100
AcDbEntity
  8
DEFAULT_2
100
AcDbLine
 62
8
  6
HIDDEN
 10
280.1343611182
 20
248.0671710598
 11
277.1343611182
 21
248.014805865
  0
LINE
  5
3B9
100
AcDbEntity
  8
DEFAULT_2
100
AcDbLine
 62
8
  6
HIDDEN
 10
275.6343611182
 20
246.764805865
 11
275.1343611182
 21
246.764805865
  0
LINE
  5
3BA
100
AcDbEntity
  8
0
100
AcDbLine
 62
7
  6
CONTINUOUS
 10
278.0558302733
 20
246.8417531795
 11
275.1343611182
 21
246.8417531795
  0
LINE
  5
3BB
100
AcDbEntity
  8
DEFAULT_2
100
AcDbLine
 62
8
  6
HIDDEN
 10
321.7343611182
 20
247.014805865
 11
318.1343611182
 21
247.014805865
  0
LINE
  5
3BC
100
AcDbEntity
  8
DEFAULT_2
100
AcDbLine
 62
8
  6
HIDDEN
 10
297.8343611182
 20
247.514805865
 11
277.1343611182
 21
247.514805865
  0
LINE
  5
3BD
100
AcDbEntity
  8
DEFAULT_2
100
AcDbLine
 62
8
  6
HIDDEN
 10
275.6343611182
 20
247.764805865
 11
275.1343611182
 21
247.764805865
  0
LINE
  5
3BE
100
AcDbEntity
  8
DEFAULT_2
100
AcDbLine
 62
8
  6
HIDDEN
 10
280.1343611182
 20
248.014805865
 11
277.1343611182
 21
248.014805865
  0
LINE
  5
3BF
100
AcDbEntity
  8
DEFAULT_2
100
AcDbLine
 62
8
  6
HIDDEN
 10
298.1343610997
 20
273.3148058465
 11
297.8343611033
 21
273.0148058501
  0
LINE
  5
3C0
100
AcDbEntity
  8
DEFAULT_2
100
AcDbLine
 62
8
  6
HIDDEN
 10
277.1343611182
 20
249.514805865
 11
280.1343611182
 21
249.514805865
  0
LINE
  5
3C1
100
AcDbEntity
  8
DEFAULT_2
100
AcDbLine
 62
8
  6
HIDDEN
 10
277.1343611182
 20
250.014805865
 11
297.8343611182
 21
250.014805865
  0
LINE
  5
3C2
100
AcDbEntity
  8
DEFAULT_2
100
AcDbLine
 62
8
  6
HIDDEN
 10
321.7343611182
 20
250.514805865
 11
318.1343611182
 21
250.514805865
  0
LINE
  5
3C3
100
AcDbEntity
  8
DEFAULT_2
100
AcDbLine
 62
8
  6
HIDDEN
 10
280.1343611182
 20
249.4624406702
 11
277.1343611182
 21
249.514805865
  0
LINE
  5
3C4
100
AcDbEntity
  8
DEFAULT_2
100
AcDbLine
 62
8
  6
HIDDEN
 10
277.1343611182
 20
250.764805865
 11
280.1343611182
 21
250.7124406702
  0
LINE
  5
3C5
100
AcDbEntity
  8
DEFAULT_2
100
AcDbLine
 62
8
  6
HIDDEN
 10
297.8343611074
 20
247.5148058759
 11
298.1343611048
 21
247.2148058785
  0
LINE
  5
3C6
100
AcDbEntity
  8
DEFAULT_2
100
AcDbLine
 62
8
  6
HIDDEN
 10
321.1343611182
 20
251.264805865
 11
318.6343611182
 21
251.2211682027
  0
LINE
  5
3C7
100
AcDbEntity
  8
0
100
AcDbLine
 62
7
  6
CONTINUOUS
 10
318.6343611182
 20
251.2211682027
 11
318.1343611182
 21
251.2124406702
  0
LINE
  5
3C8
100
AcDbEntity
  8
DEFAULT_2
100
AcDbLine
 62
8
  6
HIDDEN
 10
298.1343611182
 20
251.614805865
 11
280.1343611182
 21
251.9289970337
  0
LINE
  5
3C9
100
AcDbEntity
  8
DEFAULT_2
100
AcDbLine
 62
8
  6
HIDDEN
 10
280.1343611182
 20
252.764805865
 11
277.1343611182
 21
252.764805865
  0
LINE
  5
3CA
100
AcDbEntity
  8
DEFAULT_2
100
AcDbLine
 62
8
  6
HIDDEN
 10
277.1343611182
 20
253.514805865
 11
280.1343611182
 21
253.4624406702
  0
LINE
  5
3CB
100
AcDbEntity
  8
DEFAULT_2
100
AcDbLine
 62
8
  6
HIDDEN
 10
297.6343611182
 20
275.5090690207
 11
297.6343611182
 21
273.503599168
  0
LINE
  5
3CC
100
AcDbEntity
  8
DEFAULT_2
100
AcDbLine
 62
8
  6
HIDDEN
 10
297.6343611182
 20
247.026012562
 11
297.6343611182
 21
245.0205427093
  0
LINE
  5
3CD
100
AcDbEntity
  8
DEFAULT_2
100
AcDbLine
 62
8
  6
HIDDEN
 10
297.8343611182
 20
273.014805865
 11
297.8343611182
 21
270.514805865
  0
LINE
  5
3CE
100
AcDbEntity
  8
DEFAULT_2
100
AcDbLine
 62
8
  6
HIDDEN
 10
297.8343611182
 20
250.014805865
 11
297.8343611182
 21
247.514805865
  0
LINE
  5
3CF
100
AcDbEntity
  8
DEFAULT_2
100
AcDbLine
 62
8
  6
HIDDEN
 10
298.1343611182
 20
274.614805865
 11
298.1343611182
 21
268.914805865
  0
LINE
  5
3D0
100
AcDbEntity
  8
DEFAULT_2
100
AcDbLine
 62
8
  6
HIDDEN
 10
298.1343611182
 20
251.614805865
 11
298.1343611182
 21
245.914805865
  0
LINE
  5
3D1
100
AcDbEntity
  8
0
100
AcDbLine
 62
7
  6
CONTINUOUS
 10
300.1343611182
 20
242.764805865
 11
300.1343611182
 21
277.764805865
  0
LINE
  5
3D2
100
AcDbEntity
  8
DEFAULT_2
100
AcDbLine
 62
8
  6
HIDDEN
 10
321.7343611121
 20
273.5148058595
 11
323.1343611182
 21
274.764805865
  0
LINE
  5
3D3
100
AcDbEntity
  8
DEFAULT_2
100
AcDbLine
 62
8
  6
HIDDEN
 10
321.7343611121
 20
247.0148058705
 11
323.1343611182
 21
245.764805865
  0
LINE
  5
3D4
100
AcDbEntity
  8
DEFAULT_2
100
AcDbLine
 62
8
  6
HIDDEN
 10
298.1343610997
 20
250.3148058465
 11
297.8343611033
 21
250.0148058501
  0
LINE
  5
3D5
100
AcDbEntity
  8
DEFAULT_2
100
AcDbLine
 62
8
  6
HIDDEN
 10
277.1343611182
 20
267.014805865
 11
280.1343611182
 21
267.0671710598
  0
LINE
  5
3D6
100
AcDbEntity
  8
DEFAULT_2
100
AcDbLine
 62
8
  6
HIDDEN
 10
280.1343611182
 20
267.764805865
 11
277.1343611182
 21
267.764805865
  0
LINE
  5
3D7
100
AcDbEntity
  8
DEFAULT_2
100
AcDbLine
 62
8
  6
HIDDEN
 10
297.8343611074
 20
270.5148058759
 11
298.1343611048
 21
270.2148058785
  0
LINE
  5
3D8
100
AcDbEntity
  8
DEFAULT_2
100
AcDbLine
 62
8
  6
HIDDEN
 10
280.1343611182
 20
268.6006146963
 11
298.1343611182
 21
268.914805865
  0
LINE
  5
3D9
100
AcDbEntity
  8
DEFAULT_2
100
AcDbLine
 62
8
  6
HIDDEN
 10
280.1343611182
 20
269.8171710598
 11
277.1343611182
 21
269.764805865
  0
LINE
  5
3DA
100
AcDbEntity
  8
DEFAULT_2
100
AcDbLine
 62
8
  6
HIDDEN
 10
321.7343611182
 20
270.014805865
 11
318.1343611182
 21
270.014805865
  0
LINE
  5
3DB
100
AcDbEntity
  8
DEFAULT_2
100
AcDbLine
 62
8
  6
HIDDEN
 10
321.1343611182
 20
269.264805865
 11
318.6343611182
 21
269.3084435273
  0
LINE
  5
3DC
100
AcDbEntity
  8
0
100
AcDbLine
 62
7
  6
CONTINUOUS
 10
318.6343611182
 20
269.3084435273
 11
318.1343611182
 21
269.3171710598
  0
LINE
  5
3DD
100
AcDbEntity
  8
DEFAULT_2
100
AcDbLine
 62
8
  6
HIDDEN
 10
280.1343611182
 20
271.0671710598
 11
277.1343611182
 21
271.014805865
  0
LINE
  5
3DE
100
AcDbEntity
  8
DEFAULT_2
100
AcDbLine
 62
8
  6
HIDDEN
 10
297.8343611182
 20
270.514805865
 11
277.1343611182
 21
270.514805865
  0
LINE
  5
3DF
100
AcDbEntity
  8
DEFAULT_2
100
AcDbLine
 62
8
  6
HIDDEN
 10
280.1343611182
 20
271.014805865
 11
277.1343611182
 21
271.014805865
  0
LINE
  5
3E0
100
AcDbEntity
  8
DEFAULT_2
100
AcDbLine
 62
8
  6
HIDDEN
 10
277.1343611182
 20
272.514805865
 11
280.1343611182
 21
272.4624406702
  0
LINE
  5
3E1
100
AcDbEntity
  8
0
100
AcDbLine
 62
7
  6
CONTINUOUS
 10
300.1343611182
 20
274.2660052276
 11
278.0558302733
 21
273.6878585505
  0
LINE
  5
3E2
100
AcDbEntity
  8
DEFAULT_2
100
AcDbLine
 62
8
  6
HIDDEN
 10
321.1343611182
 20
274.264805865
 11
318.6351225844
 21
274.2211814941
  0
LINE
  5
3E3
100
AcDbEntity
  8
0
100
AcDbLine
 62
7
  6
CONTINUOUS
 10
318.6351225844
 20
274.2211814941
 11
318.1343611182
 21
274.2124406702
  0
LINE
  5
3E4
100
AcDbEntity
  8
DEFAULT_2
100
AcDbLine
 62
8
  6
HIDDEN
 10
277.1343611182
 20
272.514805865
 11
280.1343611182
 21
272.514805865
  0
LINE
  5
3E5
100
AcDbEntity
  8
DEFAULT_2
100
AcDbLine
 62
8
  6
HIDDEN
 10
275.6343611182
 20
272.764805865
 11
275.1343611182
 21
272.764805865
  0
LINE
  5
3E6
100
AcDbEntity
  8
DEFAULT_2
100
AcDbLine
 62
8
  6
HIDDEN
 10
277.1343611182
 20
273.014805865
 11
297.8343611182
 21
273.014805865
  0
LINE
  5
3E7
100
AcDbEntity
  8
DEFAULT_2
100
AcDbLine
 62
8
  6
HIDDEN
 10
321.7343611182
 20
273.514805865
 11
318.1343611182
 21
273.514805865
  0
LINE
  5
3E8
100
AcDbEntity
  8
0
100
AcDbLine
 62
7
  6
CONTINUOUS
 10
275.1343611182
 20
273.6878585505
 11
278.0558302733
 21
273.6878585498
  0
LINE
  5
3E9
100
AcDbEntity
  8
DEFAULT_2
100
AcDbLine
 62
8
  6
HIDDEN
 10
275.6343611182
 20
273.764805865
 11
275.1343611182
 21
273.764805865
  0
LINE
  5
3EA
100
AcDbEntity
  8
0
100
AcDbLine
 62
7
  6
CONTINUOUS
 10
323.1343611182
 20
274.264805865
 11
318.6343611182
 21
274.264805865
  0
LINE
  5
3EB
100
AcDbEntity
  8
DEFAULT_2
100
AcDbLine
 62
8
  6
HIDDEN
 10
300.1343611182
 20
274.264805865
 11
277.1343611182
 21
274.264805865
  0
LINE
  5
3EC
100
AcDbEntity
  8
DEFAULT_2
100
AcDbLine
 62
8
  6
HIDDEN
 10
277.1343611182
 20
273.764805865
 11
280.1343611182
 21
273.7124406702
  0
LINE
  5
3ED
100
AcDbEntity
  8
0
100
AcDbLine
 62
7
  6
CONTINUOUS
 10
320.1343611182
 20
275.664805865
 11
319.0204013195
 21
275.6259055317
  0
LINE
  5
3EE
100
AcDbEntity
  8
DEFAULT_2
100
AcDbLine
 62
8
  6
HIDDEN
 10
300.1343611182
 20
275.764805865
 11
277.6212726441
 21
275.1752798959
  0
LINE
  5
3EF
100
AcDbEntity
  8
DEFAULT_2
100
AcDbLine
 62
8
  6
HIDDEN
 10
320.4843611182
 20
275.664805865
 11
320.1343611182
 21
275.664805865
  0
LINE
  5
3F0
100
AcDbEntity
  8
DEFAULT_2
100
AcDbLine
 62
8
  6
HIDDEN
 10
298.1343611182
 20
274.614805865
 11
277.2374777022
 21
274.9795623218
  0
LINE
  5
3F1
100
AcDbEntity
  8
DEFAULT_2
100
AcDbLine
 62
8
  6
HIDDEN
 10
321.1343611182
 20
274.5298850955
 11
319.0204013195
 21
274.6037061984
  0
LINE
  5
3F2
100
AcDbEntity
  8
0
100
AcDbLine
 62
7
  6
CONTINUOUS
 10
278.0558302733
 20
277.1866591879
 11
300.1343611182
 21
277.764805865
  0
LINE
  5
3F3
100
AcDbEntity
  8
DEFAULT_2
100
AcDbLine
 62
8
  6
HIDDEN
 10
320.1343611182
 20
277.364805865
 11
320.4843611182
 21
277.364805865
  0
LINE
  5
3F4
100
AcDbEntity
  8
0
100
AcDbLine
 62
7
  6
CONTINUOUS
 10
318.1343611182
 20
246.3173674278
 11
318.1343611182
 21
251.2122443022
  0
LINE
  5
3F5
100
AcDbEntity
  8
0
100
AcDbLine
 62
7
  6
CONTINUOUS
 10
318.1343611182
 20
269.3173674278
 11
318.1343611182
 21
274.2122443022
  0
LINE
  5
3F6
100
AcDbEntity
  8
0
100
AcDbLine
 62
7
  6
CONTINUOUS
 10
318.6343611182
 20
245.3034625292
 11
318.6343611182
 21
275.2261492008
  0
LINE
  5
3F7
100
AcDbEntity
  8
0
100
AcDbLine
 62
7
  6
CONTINUOUS
 10
319.0204013195
 20
275.6259055317
 11
319.0204013195
 21
244.9037061984
  0
LINE
  5
3F8
100
AcDbEntity
  8
0
100
AcDbLine
 62
7
  6
CONTINUOUS
 10
320.1343611182
 20
242.764805865
 11
320.1343611182
 21
277.764805865
  0
LINE
  5
3F9
100
AcDbEntity
  8
DEFAULT_2
100
AcDbLine
 62
8
  6
HIDDEN
 10
320.4843611182
 20
243.164805865
 11
320.4843611182
 21
244.864805865
  0
LINE
  5
3FA
100
AcDbEntity
  8
DEFAULT_2
100
AcDbLine
 62
8
  6
HIDDEN
 10
320.4843611182
 20
275.664805865
 11
320.4843611182
 21
277.364805865
  0
LINE
  5
3FB
100
AcDbEntity
  8
DEFAULT_2
100
AcDbLine
 62
8
  6
HIDDEN
 10
321.1343611182
 20
245.9997266345
 11
321.1343611182
 21
274.5298850955
  0
LINE
  5
3FC
100
AcDbEntity
  8
DEFAULT_2
100
AcDbLine
 62
8
  6
HIDDEN
 10
321.7343611182
 20
273.514805865
 11
321.7343611182
 21
270.014805865
  0
LINE
  5
3FD
100
AcDbEntity
  8
DEFAULT_2
100
AcDbLine
 62
8
  6
HIDDEN
 10
321.7343611182
 20
250.514805865
 11
321.7343611182
 21
247.014805865
  0
LINE
  5
3FE
100
AcDbEntity
  8
0
100
AcDbLine
 62
7
  6
CONTINUOUS
 10
323.1343611182
 20
274.764805865
 11
323.1343611182
 21
245.764805865
  0
LINE
  5
3FF
100
AcDbEntity
  8
DEFAULT_2
100
AcDbLine
 62
8
  6
HIDDEN
 10
321.7343611121
 20
250.5148058595
 11
323.1343611077
 21
251.7648058556
  0
LINE
  5
400
100
AcDbEntity
  8
DEFAULT_2
100
AcDbLine
 62
8
  6
HIDDEN
 10
321.7343611121
 20
270.0148058705
 11
323.1343611077
 21
268.7648058744
  0
ARC
  5
401
100
AcDbEntity
  8
DEFAULT_2
100
AcDbCircle
 62
8
  6
HIDDEN
 10
120.5092533128
 20
326.6048866659
 40
10.262190715
100
AcDbArc
 50
51.3693237275
 51
51.7426121863
  0
ARC
  5
402
100
AcDbEntity
  8
DEFAULT_2
100
AcDbCircle
 62
8
  6
HIDDEN
 10
122.6831959713
 20
324.4309440074
 40
10.262190715
100
AcDbArc
 50
38.2573878137
 51
38.6306762725
  0
ARC
  5
403
100
AcDbEntity
  8
DEFAULT_2
100
AcDbCircle
 62
8
  6
HIDDEN
 10
125.6928935607
 20
329.6145842554
 40
3.5012006845
100
AcDbArc
 50
180.0391713468
 51
269.96082866
  0
ARC
  5
404
100
AcDbEntity
  8
0
100
AcDbCircle
 62
7
  6
CONTINUOUS
 10
125.1135525885
 20
329.0352432831
 40
3.5
100
AcDbArc
 50
180.0
 51
270.0
  0
ARC
  5
405
100
AcDbEntity
  8
DEFAULT_2
100
AcDbCircle
 62
8
  6
HIDDEN
 10
125.1135525885
 20
329.0352432831
 40
1.5
100
AcDbArc
 50
180.0
 51
270.0
  0
ARC
  5
406
100
AcDbEntity
  8
DEFAULT_2
100
AcDbCircle
 62
8
  6
HIDDEN
 10
125.1135525885
 20
329.0352432831
 40
1.4345351961
100
AcDbArc
 50
209.846333358
 51
240.153666642
  0
ARC
  5
407
100
AcDbEntity
  8
DEFAULT_2
100
AcDbCircle
 62
8
  6
HIDDEN
 10
125.1135525885
 20
329.0352432831
 40
1.4
100
AcDbArc
 50
180.0
 51
270.0
  0
ARC
  5
408
100
AcDbEntity
  8
DEFAULT_2
100
AcDbCircle
 62
8
  6
HIDDEN
 10
125.1135525885
 20
329.0352432831
 40
1.3610996666
100
AcDbArc
 50
180.0
 51
270.0
  0
ARC
  5
409
100
AcDbEntity
  8
DEFAULT_2
100
AcDbCircle
 62
8
  6
HIDDEN
 10
126.6135525885
 20
330.5352432831
 40
1.0
100
AcDbArc
 50
180.0
 51
270.0
  0
ARC
  5
40A
100
AcDbEntity
  8
DEFAULT_2
100
AcDbCircle
 62
8
  6
HIDDEN
 10
125.1135525885
 20
329.0352432831
 40
0.9613433358
100
AcDbArc
 50
180.0
 51
270.0
  0
ARC
  5
40B
100
AcDbEntity
  8
DEFAULT_2
100
AcDbCircle
 62
8
  6
HIDDEN
 10
125.1135525885
 20
329.0352432831
 40
0.9104740309
100
AcDbArc
 50
262.1352268501
 51
270.0
  0
ARC
  5
40C
100
AcDbEntity
  8
DEFAULT_2
100
AcDbCircle
 62
8
  6
HIDDEN
 10
125.1135525885
 20
329.0352432831
 40
0.9104740309
100
AcDbArc
 50
180.0
 51
187.8647731499
  0
ARC
  5
40D
100
AcDbEntity
  8
DEFAULT_2
100
AcDbCircle
 62
8
  6
HIDDEN
 10
125.1135525885
 20
329.0352432831
 40
0.7386566641
100
AcDbArc
 50
180.0
 51
270.0
  0
ARC
  5
40E
100
AcDbEntity
  8
0
100
AcDbCircle
 62
7
  6
CONTINUOUS
 10
125.1135525885
 20
329.0352432831
 40
0.5
100
AcDbArc
 50
180.0
 51
270.0
  0
ARC
  5
40F
100
AcDbEntity
  8
DEFAULT_2
100
AcDbCircle
 62
8
  6
HIDDEN
 10
125.6904424841
 20
329.6121342485
 40
0.4997716892
100
AcDbArc
 50
179.9935399108
 51
270.0065827103
  0
ARC
  5
410
100
AcDbEntity
  8
DEFAULT_2
100
AcDbCircle
 62
8
  6
HIDDEN
 10
125.1135525885
 20
329.0352432831
 40
0.3389003334
100
AcDbArc
 50
180.0
 51
270.0
  0
ARC
  5
411
100
AcDbEntity
  8
DEFAULT_2
100
AcDbCircle
 62
8
  6
HIDDEN
 10
125.1135525885
 20
329.0352432831
 40
0.2650792305
100
AcDbArc
 50
180.0
 51
270.0
  0
ARC
  5
412
100
AcDbEntity
  8
DEFAULT_2
100
AcDbCircle
 62
8
  6
HIDDEN
 10
122.6831959713
 20
338.6395425588
 40
10.262190715
100
AcDbArc
 50
321.3693237275
 51
321.7426121863
  0
ARC
  5
413
100
AcDbEntity
  8
DEFAULT_2
100
AcDbCircle
 62
8
  6
HIDDEN
 10
127.6096938438
 20
331.5369037079
 40
3.2164191963
100
AcDbArc
 50
244.8839182185
 51
270.0687378802
  0
ARC
  5
414
100
AcDbEntity
  8
DEFAULT_2
100
AcDbCircle
 62
8
  6
HIDDEN
 10
134.7178518642
 20
326.6048866659
 40
10.262190715
100
AcDbArc
 50
128.2573878137
 51
128.6306762725
  0
ARC
  5
415
100
AcDbEntity
  8
DEFAULT_2
100
AcDbCircle
 62
8
  6
HIDDEN
 10
127.6135525885
 20
331.5352432831
 40
3.2165563635
100
AcDbArc
 50
205.1905716718
 51
215.0840666716
  0
ARC
  5
416
100
AcDbEntity
  8
DEFAULT_2
100
AcDbCircle
 62
8
  6
HIDDEN
 10
127.6135525885
 20
331.5352432831
 40
3.2165563635
100
AcDbArc
 50
295.1908717908
 51
346.516306411
  0
ARC
  5
417
100
AcDbEntity
  8
DEFAULT_2
100
AcDbCircle
 62
8
  6
HIDDEN
 10
127.6135525885
 20
331.5352432831
 40
3.2165563635
100
AcDbArc
 50
13.483693589
 51
76.516306411
  0
ARC
  5
418
100
AcDbEntity
  8
DEFAULT_2
100
AcDbCircle
 62
8
  6
HIDDEN
 10
127.6135525885
 20
331.5352432831
 40
3.2165563635
100
AcDbArc
 50
103.483693589
 51
154.8086859386
  0
ARC
  5
419
100
AcDbEntity
  8
DEFAULT_2
100
AcDbCircle
 62
8
  6
HIDDEN
 10
127.6135525885
 20
331.5352432831
 40
3.2165563635
100
AcDbArc
 50
234.9159333284
 51
244.8091998226
  0
ARC
  5
41A
100
AcDbEntity
  8
DEFAULT_2
100
AcDbCircle
 62
8
  6
HIDDEN
 10
127.6174112057
 20
331.5369042819
 40
3.2164197701
100
AcDbArc
 50
269.9312644032
 51
295.116079498
  0
ARC
  5
41B
100
AcDbEntity
  8
DEFAULT_2
100
AcDbCircle
 62
8
  6
HIDDEN
 10
127.6135525885
 20
331.5352432831
 40
3.1641911687
100
AcDbArc
 50
77.2628853092
 51
102.7371146908
  0
ARC
  5
41C
100
AcDbEntity
  8
DEFAULT_2
100
AcDbCircle
 62
8
  6
HIDDEN
 10
127.6135525885
 20
331.5352432831
 40
3.1641911687
100
AcDbArc
 50
347.2628853093
 51
12.7371146907
  0
CIRCLE
  5
41D
100
AcDbEntity
  8
0
100
AcDbCircle
 62
7
  6
CONTINUOUS
 10
127.6135525885
 20
331.5352432831
 40
2.9999999906
  0
ARC
  5
41E
100
AcDbEntity
  8
DEFAULT_2
100
AcDbCircle
 62
8
  6
HIDDEN
 10
127.6135525885
 20
331.5352432831
 40
2.8587275325
100
AcDbArc
 50
217.4623739505
 51
232.5376260495
  0
CIRCLE
  5
41F
100
AcDbEntity
  8
DEFAULT_2
100
AcDbCircle
 62
8
  6
HIDDEN
 10
127.6135525885
 20
331.5352432831
 40
2.85
  0
CIRCLE
  5
420
100
AcDbEntity
  8
DEFAULT_2
100
AcDbCircle
 62
8
  6
HIDDEN
 10
127.6135525885
 20
331.5352432831
 40
2.5
  0
CIRCLE
  5
421
100
AcDbEntity
  8
DEFAULT_2
100
AcDbCircle
 62
8
  6
HIDDEN
 10
127.6135525885
 20
331.5352432831
 40
2.4476348052
  0
CIRCLE
  5
422
100
AcDbEntity
  8
0
100
AcDbCircle
 62
7
  6
CONTINUOUS
 10
127.6135525885
 20
331.5352432831
 40
1.7499999945
  0
CIRCLE
  5
423
100
AcDbEntity
  8
0
100
AcDbCircle
 62
7
  6
CONTINUOUS
 10
127.6135525885
 20
331.5352432831
 40
1.549999984
  0
CIRCLE
  5
424
100
AcDbEntity
  8
0
100
AcDbCircle
 62
7
  6
CONTINUOUS
 10
127.6135525885
 20
331.5352432831
 40
1.25
  0
ARC
  5
425
100
AcDbEntity
  8
DEFAULT_2
100
AcDbCircle
 62
8
  6
HIDDEN
 10
131.6135525885
 20
331.5352432831
 40
0.75
100
AcDbArc
 50
270.0
 51
90.0
  0
ARC
  5
426
100
AcDbEntity
  8
DEFAULT_2
100
AcDbCircle
 62
8
  6
HIDDEN
 10
127.6135525885
 20
335.5352432831
 40
0.75
100
AcDbArc
 50
0.0
 51
180.0
  0
ARC
  5
427
100
AcDbEntity
  8
DEFAULT_2
100
AcDbCircle
 62
8
  6
HIDDEN
 10
127.6135525885
 20
335.5352432831
 40
0.6976348052
100
AcDbArc
 50
0.0
 51
180.0
  0
ARC
  5
428
100
AcDbEntity
  8
DEFAULT_2
100
AcDbCircle
 62
8
  6
HIDDEN
 10
131.6135525885
 20
331.5352432831
 40
0.6976348052
100
AcDbArc
 50
270.0
 51
90.0
  0
ARC
  5
429
100
AcDbEntity
  8
DEFAULT_2
100
AcDbCircle
 62
8
  6
HIDDEN
 10
125.6929353342
 20
356.4558605374
 40
3.5012514605
100
AcDbArc
 50
90.0398544787
 51
179.9601455281
  0
ARC
  5
42A
100
AcDbEntity
  8
0
100
AcDbCircle
 62
7
  6
CONTINUOUS
 10
125.1135525885
 20
357.0352432831
 40
3.5
100
AcDbArc
 50
90.0
 51
180.0
  0
CIRCLE
  5
42B
100
AcDbEntity
  8
DEFAULT_2
100
AcDbCircle
 62
8
  6
HIDDEN
 10
134.1135525885
 20
354.5352432831
 40
2.0
  0
CIRCLE
  5
42C
100
AcDbEntity
  8
DEFAULT_2
100
AcDbCircle
 62
8
  6
HIDDEN
 10
134.1135525885
 20
354.5352432831
 40
1.9476348052
  0
ARC
  5
42D
100
AcDbEntity
  8
DEFAULT_2
100
AcDbCircle
 62
8
  6
HIDDEN
 10
125.1135525885
 20
357.0352432831
 40
1.5
100
AcDbArc
 50
90.0
 51
180.0
  0
ARC
  5
42E
100
AcDbEntity
  8
DEFAULT_2
100
AcDbCircle
 62
8
  6
HIDDEN
 10
125.1135525885
 20
357.0352432831
 40
1.4
100
AcDbArc
 50
90.0
 51
180.0
  0
ARC
  5
42F
100
AcDbEntity
  8
DEFAULT_2
100
AcDbCircle
 62
8
  6
HIDDEN
 10
125.1135525885
 20
357.0352432831
 40
1.3610996666
100
AcDbArc
 50
90.0
 51
180.0
  0
ARC
  5
430
100
AcDbEntity
  8
DEFAULT_2
100
AcDbCircle
 62
8
  6
HIDDEN
 10
126.6135525885
 20
355.5352432831
 40
1.0
100
AcDbArc
 50
90.0
 51
180.0
  0
ARC
  5
431
100
AcDbEntity
  8
DEFAULT_2
100
AcDbCircle
 62
8
  6
HIDDEN
 10
125.1135525885
 20
357.0352432831
 40
0.9613433358
100
AcDbArc
 50
90.0
 51
180.0
  0
ARC
  5
432
100
AcDbEntity
  8
DEFAULT_2
100
AcDbCircle
 62
8
  6
HIDDEN
 10
125.1135525885
 20
357.0352432831
 40
0.9104740309
100
AcDbArc
 50
90.0
 51
180.0
  0
CIRCLE
  5
433
100
AcDbEntity
  8
DEFAULT_2
100
AcDbCircle
 62
8
  6
HIDDEN
 10
134.1135525885
 20
354.5352432831
 40
0.75
  0
ARC
  5
434
100
AcDbEntity
  8
DEFAULT_2
100
AcDbCircle
 62
8
  6
HIDDEN
 10
125.1135525885
 20
357.0352432831
 40
0.7386566641
100
AcDbArc
 50
90.0
 51
180.0
  0
ARC
  5
435
100
AcDbEntity
  8
0
100
AcDbCircle
 62
7
  6
CONTINUOUS
 10
125.1135525885
 20
357.0352432831
 40
0.5
100
AcDbArc
 50
90.0
 51
180.0
  0
ARC
  5
436
100
AcDbEntity
  8
DEFAULT_2
100
AcDbCircle
 62
8
  6
HIDDEN
 10
125.6904435411
 20
356.4583534002
 40
0.4997716718
100
AcDbArc
 50
89.99353845
 51
180.0065841686
  0
ARC
  5
437
100
AcDbEntity
  8
DEFAULT_2
100
AcDbCircle
 62
8
  6
HIDDEN
 10
125.1135525885
 20
357.0352432831
 40
0.4106453684
100
AcDbArc
 50
90.0
 51
180.0
  0
ARC
  5
438
100
AcDbEntity
  8
DEFAULT_2
100
AcDbCircle
 62
8
  6
HIDDEN
 10
125.1135525885
 20
357.0352432831
 40
0.3389003334
100
AcDbArc
 50
90.0
 51
180.0
  0
ARC
  5
439
100
AcDbEntity
  8
DEFAULT_2
100
AcDbCircle
 62
8
  6
HIDDEN
 10
125.1135525885
 20
357.0352432831
 40
0.2650792305
100
AcDbArc
 50
90.0
 51
180.0
  0
ARC
  5
43A
100
AcDbEntity
  8
DEFAULT_2
100
AcDbCircle
 62
8
  6
HIDDEN
 10
167.534169794
 20
329.6146260776
 40
3.501251472
100
AcDbArc
 50
270.0398552761
 51
359.9601447307
  0
ARC
  5
43B
100
AcDbEntity
  8
0
100
AcDbCircle
 62
7
  6
CONTINUOUS
 10
168.1135525885
 20
329.0352432831
 40
3.5
100
AcDbArc
 50
270.0
 51
360.0
  0
CIRCLE
  5
43C
100
AcDbEntity
  8
DEFAULT_2
100
AcDbCircle
 62
8
  6
HIDDEN
 10
159.1135525885
 20
331.5352432831
 40
2.0
  0
CIRCLE
  5
43D
100
AcDbEntity
  8
DEFAULT_2
100
AcDbCircle
 62
8
  6
HIDDEN
 10
159.1135525885
 20
331.5352432831
 40
1.9476348052
  0
ARC
  5
43E
100
AcDbEntity
  8
DEFAULT_2
100
AcDbCircle
 62
8
  6
HIDDEN
 10
168.1135525885
 20
329.0352432831
 40
1.5
100
AcDbArc
 50
270.0
 51
360.0
  0
ARC
  5
43F
100
AcDbEntity
  8
DEFAULT_2
100
AcDbCircle
 62
8
  6
HIDDEN
 10
168.1135525885
 20
329.0352432831
 40
1.4
100
AcDbArc
 50
270.0
 51
360.0
  0
ARC
  5
440
100
AcDbEntity
  8
DEFAULT_2
100
AcDbCircle
 62
8
  6
HIDDEN
 10
168.1135525885
 20
329.0352432831
 40
1.3610996666
100
AcDbArc
 50
270.0
 51
360.0
  0
ARC
  5
441
100
AcDbEntity
  8
DEFAULT_2
100
AcDbCircle
 62
8
  6
HIDDEN
 10
166.6135525885
 20
330.5352432831
 40
1.0
100
AcDbArc
 50
270.0
 51
360.0
  0
ARC
  5
442
100
AcDbEntity
  8
DEFAULT_2
100
AcDbCircle
 62
8
  6
HIDDEN
 10
168.1135525885
 20
329.0352432831
 40
0.9613433358
100
AcDbArc
 50
270.0
 51
360.0
  0
ARC
  5
443
100
AcDbEntity
  8
DEFAULT_2
100
AcDbCircle
 62
8
  6
HIDDEN
 10
168.1135525885
 20
329.0352432831
 40
0.9104740309
100
AcDbArc
 50
270.0
 51
360.0
  0
CIRCLE
  5
444
100
AcDbEntity
  8
DEFAULT_2
100
AcDbCircle
 62
8
  6
HIDDEN
 10
159.1135525885
 20
331.5352432831
 40
0.75
  0
ARC
  5
445
100
AcDbEntity
  8
DEFAULT_2
100
AcDbCircle
 62
8
  6
HIDDEN
 10
168.1135525885
 20
329.0352432831
 40
0.7386566641
100
AcDbArc
 50
270.0
 51
360.0
  0
ARC
  5
446
100
AcDbEntity
  8
0
100
AcDbCircle
 62
7
  6
CONTINUOUS
 10
168.1135525885
 20
329.0352432831
 40
0.5
100
AcDbArc
 50
270.0
 51
360.0
  0
ARC
  5
447
100
AcDbEntity
  8
DEFAULT_2
100
AcDbCircle
 62
8
  6
HIDDEN
 10
167.5366616449
 20
329.6121331565
 40
0.4997716599
100
AcDbArc
 50
269.9935374094
 51
0.0065852653
  0
ARC
  5
448
100
AcDbEntity
  8
DEFAULT_2
100
AcDbCircle
 62
8
  6
HIDDEN
 10
168.1135525885
 20
329.0352432831
 40
0.4106453684
100
AcDbArc
 50
270.0
 51
360.0
  0
ARC
  5
449
100
AcDbEntity
  8
DEFAULT_2
100
AcDbCircle
 62
8
  6
HIDDEN
 10
168.1135525885
 20
329.0352432831
 40
0.3389003334
100
AcDbArc
 50
270.0
 51
360.0
  0
ARC
  5
44A
100
AcDbEntity
  8
DEFAULT_2
100
AcDbCircle
 62
8
  6
HIDDEN
 10
168.1135525885
 20
329.0352432831
 40
0.2650792305
100
AcDbArc
 50
270.0
 51
360.0
  0
ARC
  5
44B
100
AcDbEntity
  8
DEFAULT_2
100
AcDbCircle
 62
8
  6
HIDDEN
 10
165.6096939713
 20
354.5335822842
 40
3.2164197702
100
AcDbArc
 50
89.9312644035
 51
115.1160794977
  0
ARC
  5
44C
100
AcDbEntity
  8
DEFAULT_2
100
AcDbCircle
 62
8
  6
HIDDEN
 10
158.5092533128
 20
359.4655999003
 40
10.262190715
100
AcDbArc
 50
308.2573878137
 51
308.6306762725
  0
ARC
  5
44D
100
AcDbEntity
  8
DEFAULT_2
100
AcDbCircle
 62
8
  6
HIDDEN
 10
161.6135525885
 20
354.5352432831
 40
0.75
100
AcDbArc
 50
90.0
 51
270.0
  0
ARC
  5
44E
100
AcDbEntity
  8
DEFAULT_2
100
AcDbCircle
 62
8
  6
HIDDEN
 10
161.6135525885
 20
354.5352432831
 40
0.6976348052
100
AcDbArc
 50
90.0
 51
270.0
  0
ARC
  5
44F
100
AcDbEntity
  8
DEFAULT_2
100
AcDbCircle
 62
8
  6
HIDDEN
 10
170.5439092056
 20
347.4309440074
 40
10.262190715
100
AcDbArc
 50
141.3693237275
 51
141.7426121863
  0
ARC
  5
450
100
AcDbEntity
  8
DEFAULT_2
100
AcDbCircle
 62
8
  6
HIDDEN
 10
165.6174113331
 20
354.5335828582
 40
3.2164191964
100
AcDbArc
 50
64.8839182188
 51
90.0687378799
  0
ARC
  5
451
100
AcDbEntity
  8
DEFAULT_2
100
AcDbCircle
 62
8
  6
HIDDEN
 10
165.6135525885
 20
350.5352432831
 40
0.75
100
AcDbArc
 50
180.0
 51
360.0
  0
ARC
  5
452
100
AcDbEntity
  8
DEFAULT_2
100
AcDbCircle
 62
8
  6
HIDDEN
 10
165.6135525885
 20
350.5352432831
 40
0.6976348052
100
AcDbArc
 50
180.0
 51
360.0
  0
ARC
  5
453
100
AcDbEntity
  8
DEFAULT_2
100
AcDbCircle
 62
8
  6
HIDDEN
 10
167.5341698908
 20
356.4558605855
 40
3.5012514116
100
AcDbArc
 50
0.0398536919
 51
89.9601463149
  0
ARC
  5
454
100
AcDbEntity
  8
0
100
AcDbCircle
 62
7
  6
CONTINUOUS
 10
168.1135525885
 20
357.0352432831
 40
3.5
100
AcDbArc
 50
0.0
 51
90.0
  0
ARC
  5
455
100
AcDbEntity
  8
DEFAULT_2
100
AcDbCircle
 62
8
  6
HIDDEN
 10
165.6135525885
 20
354.5352432831
 40
3.2165563635
100
AcDbArc
 50
283.483693589
 51
334.8086859386
  0
ARC
  5
456
100
AcDbEntity
  8
DEFAULT_2
100
AcDbCircle
 62
8
  6
HIDDEN
 10
165.6135525885
 20
354.5352432831
 40
3.2165563635
100
AcDbArc
 50
115.1908717908
 51
166.516306411
  0
ARC
  5
457
100
AcDbEntity
  8
DEFAULT_2
100
AcDbCircle
 62
8
  6
HIDDEN
 10
165.6135525885
 20
354.5352432831
 40
3.2165563635
100
AcDbArc
 50
193.483693589
 51
256.516306411
  0
ARC
  5
458
100
AcDbEntity
  8
DEFAULT_2
100
AcDbCircle
 62
8
  6
HIDDEN
 10
165.6135525885
 20
354.5352432831
 40
3.2165563635
100
AcDbArc
 50
25.1905716718
 51
35.0840666716
  0
ARC
  5
459
100
AcDbEntity
  8
DEFAULT_2
100
AcDbCircle
 62
8
  6
HIDDEN
 10
165.6135525885
 20
354.5352432831
 40
3.2165563635
100
AcDbArc
 50
54.9159333284
 51
64.8091998226
  0
ARC
  5
45A
100
AcDbEntity
  8
DEFAULT_2
100
AcDbCircle
 62
8
  6
HIDDEN
 10
165.6135525885
 20
354.5352432831
 40
3.1641911687
100
AcDbArc
 50
257.2628853092
 51
282.7371146908
  0
ARC
  5
45B
100
AcDbEntity
  8
DEFAULT_2
100
AcDbCircle
 62
8
  6
HIDDEN
 10
165.6135525885
 20
354.5352432831
 40
3.1641911687
100
AcDbArc
 50
167.2628853093
 51
192.7371146907
  0
CIRCLE
  5
45C
100
AcDbEntity
  8
0
100
AcDbCircle
 62
7
  6
CONTINUOUS
 10
165.6135525885
 20
354.5352432831
 40
2.9999999906
  0
ARC
  5
45D
100
AcDbEntity
  8
DEFAULT_2
100
AcDbCircle
 62
8
  6
HIDDEN
 10
165.6135525885
 20
354.5352432831
 40
2.8587275325
100
AcDbArc
 50
37.4623739505
 51
52.5376260495
  0
CIRCLE
  5
45E
100
AcDbEntity
  8
DEFAULT_2
100
AcDbCircle
 62
8
  6
HIDDEN
 10
165.6135525885
 20
354.5352432831
 40
2.85
  0
CIRCLE
  5
45F
100
AcDbEntity
  8
DEFAULT_2
100
AcDbCircle
 62
8
  6
HIDDEN
 10
165.6135525885
 20
354.5352432831
 40
2.5
  0
CIRCLE
  5
460
100
AcDbEntity
  8
DEFAULT_2
100
AcDbCircle
 62
8
  6
HIDDEN
 10
165.6135525885
 20
354.5352432831
 40
2.4476348052
  0
CIRCLE
  5
461
100
AcDbEntity
  8
0
100
AcDbCircle
 62
7
  6
CONTINUOUS
 10
165.6135525885
 20
354.5352432831
 40
1.7499999945
  0
CIRCLE
  5
462
100
AcDbEntity
  8
0
100
AcDbCircle
 62
7
  6
CONTINUOUS
 10
165.6135525885
 20
354.5352432831
 40
1.549999984
  0
ARC
  5
463
100
AcDbEntity
  8
DEFAULT_2
100
AcDbCircle
 62
8
  6
HIDDEN
 10
168.1135525885
 20
357.0352432831
 40
1.5
100
AcDbArc
 50
0.0
 51
90.0
  0
ARC
  5
464
100
AcDbEntity
  8
DEFAULT_2
100
AcDbCircle
 62
8
  6
HIDDEN
 10
168.1135525885
 20
357.0352432831
 40
1.4345351961
100
AcDbArc
 50
29.846333358
 51
60.153666642
  0
ARC
  5
465
100
AcDbEntity
  8
DEFAULT_2
100
AcDbCircle
 62
8
  6
HIDDEN
 10
168.1135525885
 20
357.0352432831
 40
1.4
100
AcDbArc
 50
0.0
 51
90.0
  0
ARC
  5
466
100
AcDbEntity
  8
DEFAULT_2
100
AcDbCircle
 62
8
  6
HIDDEN
 10
168.1135525885
 20
357.0352432831
 40
1.3610996666
100
AcDbArc
 50
0.0
 51
90.0
  0
CIRCLE
  5
467
100
AcDbEntity
  8
0
100
AcDbCircle
 62
7
  6
CONTINUOUS
 10
165.6135525885
 20
354.5352432831
 40
1.25
  0
ARC
  5
468
100
AcDbEntity
  8
DEFAULT_2
100
AcDbCircle
 62
8
  6
HIDDEN
 10
166.6135525885
 20
355.5352432831
 40
1.0
100
AcDbArc
 50
0.0
 51
90.0
  0
ARC
  5
469
100
AcDbEntity
  8
DEFAULT_2
100
AcDbCircle
 62
8
  6
HIDDEN
 10
168.1135525885
 20
357.0352432831
 40
0.9613433358
100
AcDbArc
 50
0.0
 51
90.0
  0
ARC
  5
46A
100
AcDbEntity
  8
DEFAULT_2
100
AcDbCircle
 62
8
  6
HIDDEN
 10
168.1135525885
 20
357.0352432831
 40
0.9104740309
100
AcDbArc
 50
0.0
 51
7.8647731499
  0
ARC
  5
46B
100
AcDbEntity
  8
DEFAULT_2
100
AcDbCircle
 62
8
  6
HIDDEN
 10
168.1135525885
 20
357.0352432831
 40
0.9104740309
100
AcDbArc
 50
82.1352268501
 51
90.0
  0
ARC
  5
46C
100
AcDbEntity
  8
DEFAULT_2
100
AcDbCircle
 62
8
  6
HIDDEN
 10
168.1135525885
 20
357.0352432831
 40
0.7386566641
100
AcDbArc
 50
0.0
 51
90.0
  0
ARC
  5
46D
100
AcDbEntity
  8
0
100
AcDbCircle
 62
7
  6
CONTINUOUS
 10
168.1135525885
 20
357.0352432831
 40
0.5
100
AcDbArc
 50
0.0
 51
90.0
  0
ARC
  5
46E
100
AcDbEntity
  8
DEFAULT_2
100
AcDbCircle
 62
8
  6
HIDDEN
 10
167.5366627087
 20
356.4583523341
 40
0.4997716672
100
AcDbArc
 50
359.9935380308
 51
90.0065845371
  0
ARC
  5
46F
100
AcDbEntity
  8
DEFAULT_2
100
AcDbCircle
 62
8
  6
HIDDEN
 10
168.1135525885
 20
357.0352432831
 40
0.3389003334
100
AcDbArc
 50
0.0
 51
90.0
  0
ARC
  5
470
100
AcDbEntity
  8
DEFAULT_2
100
AcDbCircle
 62
8
  6
HIDDEN
 10
168.1135525885
 20
357.0352432831
 40
0.2650792305
100
AcDbArc
 50
0.0
 51
90.0
  0
ARC
  5
471
100
AcDbEntity
  8
DEFAULT_2
100
AcDbCircle
 62
8
  6
HIDDEN
 10
170.5439092056
 20
361.6395425588
 40
10.262190715
100
AcDbArc
 50
218.2573878137
 51
218.6306762725
  0
ARC
  5
472
100
AcDbEntity
  8
DEFAULT_2
100
AcDbCircle
 62
8
  6
HIDDEN
 10
172.7178518598
 20
359.4655998947
 40
10.2621907079
100
AcDbArc
 50
231.3693237274
 51
231.7426121865
  0
ARC
  5
473
100
AcDbEntity
  8
0
100
AcDbCircle
 62
7
  6
CONTINUOUS
 10
125.1906996523
 20
430.8458165038
 40
2.9999930818
100
AcDbArc
 50
181.4999686884
 51
269.999457309
  0
ARC
  5
474
100
AcDbEntity
  8
DEFAULT_2
100
AcDbCircle
 62
8
  6
HIDDEN
 10
124.70290722
 20
430.3458208168
 40
0.5
100
AcDbArc
 50
181.5
 51
270.0
  0
ARC
  5
475
100
AcDbEntity
  8
0
100
AcDbCircle
 62
7
  6
CONTINUOUS
 10
124.6135525885
 20
472.8458208168
 40
3.0
100
AcDbArc
 50
90.0
 51
180.0
  0
ARC
  5
476
100
AcDbEntity
  8
DEFAULT_2
100
AcDbCircle
 62
8
  6
HIDDEN
 10
124.3748959243
 20
471.7458208168
 40
0.4
100
AcDbArc
 50
269.9999999997
 51
358.0
  0
ARC
  5
477
100
AcDbEntity
  8
0
100
AcDbCircle
 62
7
  6
CONTINUOUS
 10
124.1522092526
 20
471.7458208168
 40
0.4
100
AcDbArc
 50
182.0
 51
270.0
  0
ARC
  5
478
100
AcDbEntity
  8
0
100
AcDbCircle
 62
7
  6
CONTINUOUS
 10
168.0364158603
 20
430.8458077083
 40
2.9999857186
100
AcDbArc
 50
270.0003452945
 51
358.4999989415
  0
ARC
  5
479
100
AcDbEntity
  8
DEFAULT_2
100
AcDbCircle
 62
8
  6
HIDDEN
 10
168.5241979569
 20
430.3458208168
 40
0.5
100
AcDbArc
 50
270.0000000004
 51
358.5
  0
ARC
  5
47A
100
AcDbEntity
  8
DEFAULT_2
100
AcDbCircle
 62
8
  6
HIDDEN
 10
168.5464440231
 20
430.3162485716
 40
0.4642151666
100
AcDbArc
 50
328.6496805879
 51
335.9705759446
  0
ARC
  5
47B
100
AcDbEntity
  8
DEFAULT_2
100
AcDbCircle
 62
8
  6
HIDDEN
 10
168.5698053376
 20
430.3020808541
 40
0.4368935263
100
AcDbArc
 50
321.2953487622
 51
328.6424790951
  0
ARC
  5
47C
100
AcDbEntity
  8
DEFAULT_2
100
AcDbCircle
 62
8
  6
HIDDEN
 10
168.5891793569
 20
430.2868703367
 40
0.4122632807
100
AcDbArc
 50
317.8561932373
 51
321.261338961
  0
ARC
  5
47D
100
AcDbEntity
  8
0
100
AcDbCircle
 62
7
  6
CONTINUOUS
 10
168.6135525885
 20
472.8458208168
 40
3.0
100
AcDbArc
 50
0.0
 51
90.0
  0
ARC
  5
47E
100
AcDbEntity
  8
DEFAULT_2
100
AcDbCircle
 62
8
  6
HIDDEN
 10
168.8522092526
 20
471.7458208168
 40
0.4
100
AcDbArc
 50
182.0
 51
270.0000000003
  0
ARC
  5
47F
100
AcDbEntity
  8
0
100
AcDbCircle
 62
7
  6
CONTINUOUS
 10
169.0748959243
 20
471.7458208168
 40
0.4
100
AcDbArc
 50
270.0
 51
357.9999999931
  0
ARC
  5
480
100
AcDbEntity
  8
DEFAULT_2
100
AcDbCircle
 62
8
  6
HIDDEN
 10
120.5092533128
 20
243.8344492478
 40
10.262190715
100
AcDbArc
 50
51.3693237275
 51
51.7426121863
  0
ARC
  5
481
100
AcDbEntity
  8
DEFAULT_2
100
AcDbCircle
 62
8
  6
HIDDEN
 10
122.6831959713
 20
241.6605065893
 40
10.262190715
100
AcDbArc
 50
38.2573878137
 51
38.6306762725
  0
ARC
  5
482
100
AcDbEntity
  8
DEFAULT_2
100
AcDbCircle
 62
8
  6
HIDDEN
 10
125.6928935607
 20
246.8441468373
 40
3.5012006845
100
AcDbArc
 50
180.0391713468
 51
269.96082866
  0
ARC
  5
483
100
AcDbEntity
  8
0
100
AcDbCircle
 62
7
  6
CONTINUOUS
 10
125.1135525885
 20
246.264805865
 40
3.5
100
AcDbArc
 50
180.0
 51
270.0
  0
ARC
  5
484
100
AcDbEntity
  8
DEFAULT_2
100
AcDbCircle
 62
8
  6
HIDDEN
 10
125.1135525885
 20
246.264805865
 40
1.5
100
AcDbArc
 50
180.0
 51
270.0
  0
ARC
  5
485
100
AcDbEntity
  8
DEFAULT_2
100
AcDbCircle
 62
8
  6
HIDDEN
 10
125.1135525885
 20
246.264805865
 40
1.4345351961
100
AcDbArc
 50
209.846333358
 51
240.153666642
  0
ARC
  5
486
100
AcDbEntity
  8
DEFAULT_2
100
AcDbCircle
 62
8
  6
HIDDEN
 10
125.1135525885
 20
246.264805865
 40
1.4
100
AcDbArc
 50
180.0
 51
270.0
  0
ARC
  5
487
100
AcDbEntity
  8
DEFAULT_2
100
AcDbCircle
 62
8
  6
HIDDEN
 10
125.1135525885
 20
246.264805865
 40
1.3610996666
100
AcDbArc
 50
180.0
 51
270.0
  0
ARC
  5
488
100
AcDbEntity
  8
DEFAULT_2
100
AcDbCircle
 62
8
  6
HIDDEN
 10
126.6135525885
 20
247.764805865
 40
1.0
100
AcDbArc
 50
180.0
 51
270.0
  0
ARC
  5
489
100
AcDbEntity
  8
DEFAULT_2
100
AcDbCircle
 62
8
  6
HIDDEN
 10
125.1135525885
 20
246.264805865
 40
0.9613433358
100
AcDbArc
 50
180.0
 51
270.0
  0
ARC
  5
48A
100
AcDbEntity
  8
DEFAULT_2
100
AcDbCircle
 62
8
  6
HIDDEN
 10
125.1135525885
 20
246.264805865
 40
0.9104740309
100
AcDbArc
 50
262.1352268501
 51
270.0
  0
ARC
  5
48B
100
AcDbEntity
  8
DEFAULT_2
100
AcDbCircle
 62
8
  6
HIDDEN
 10
125.1135525885
 20
246.264805865
 40
0.9104740309
100
AcDbArc
 50
180.0
 51
187.8647731499
  0
ARC
  5
48C
100
AcDbEntity
  8
DEFAULT_2
100
AcDbCircle
 62
8
  6
HIDDEN
 10
125.1135525885
 20
246.264805865
 40
0.7386566641
100
AcDbArc
 50
180.0
 51
270.0
  0
ARC
  5
48D
100
AcDbEntity
  8
0
100
AcDbCircle
 62
7
  6
CONTINUOUS
 10
125.1135525885
 20
246.264805865
 40
0.5
100
AcDbArc
 50
180.0
 51
270.0
  0
ARC
  5
48E
100
AcDbEntity
  8
DEFAULT_2
100
AcDbCircle
 62
8
  6
HIDDEN
 10
125.6904424841
 20
246.8416968304
 40
0.4997716892
100
AcDbArc
 50
179.9935399108
 51
270.0065827103
  0
ARC
  5
48F
100
AcDbEntity
  8
DEFAULT_2
100
AcDbCircle
 62
8
  6
HIDDEN
 10
125.1135525885
 20
246.264805865
 40
0.3389003334
100
AcDbArc
 50
180.0
 51
270.0
  0
ARC
  5
490
100
AcDbEntity
  8
DEFAULT_2
100
AcDbCircle
 62
8
  6
HIDDEN
 10
125.1135525885
 20
246.264805865
 40
0.2650792305
100
AcDbArc
 50
180.0
 51
270.0
  0
ARC
  5
491
100
AcDbEntity
  8
DEFAULT_2
100
AcDbCircle
 62
8
  6
HIDDEN
 10
122.6831959713
 20
255.8691051407
 40
10.262190715
100
AcDbArc
 50
321.3693237275
 51
321.7426121863
  0
ARC
  5
492
100
AcDbEntity
  8
DEFAULT_2
100
AcDbCircle
 62
8
  6
HIDDEN
 10
127.6096938438
 20
248.7664662898
 40
3.2164191963
100
AcDbArc
 50
244.8839182185
 51
270.0687378802
  0
ARC
  5
493
100
AcDbEntity
  8
DEFAULT_2
100
AcDbCircle
 62
8
  6
HIDDEN
 10
134.7178518642
 20
243.8344492478
 40
10.262190715
100
AcDbArc
 50
128.2573878137
 51
128.6306762725
  0
ARC
  5
494
100
AcDbEntity
  8
DEFAULT_2
100
AcDbCircle
 62
8
  6
HIDDEN
 10
127.6135525885
 20
248.764805865
 40
3.2165563635
100
AcDbArc
 50
205.1905716718
 51
215.0840666716
  0
ARC
  5
495
100
AcDbEntity
  8
DEFAULT_2
100
AcDbCircle
 62
8
  6
HIDDEN
 10
127.6135525885
 20
248.764805865
 40
3.2165563635
100
AcDbArc
 50
295.1908717908
 51
346.516306411
  0
ARC
  5
496
100
AcDbEntity
  8
DEFAULT_2
100
AcDbCircle
 62
8
  6
HIDDEN
 10
127.6135525885
 20
248.764805865
 40
3.2165563635
100
AcDbArc
 50
13.483693589
 51
76.516306411
  0
ARC
  5
497
100
AcDbEntity
  8
DEFAULT_2
100
AcDbCircle
 62
8
  6
HIDDEN
 10
127.6135525885
 20
248.764805865
 40
3.2165563635
100
AcDbArc
 50
103.483693589
 51
154.8086859386
  0
ARC
  5
498
100
AcDbEntity
  8
DEFAULT_2
100
AcDbCircle
 62
8
  6
HIDDEN
 10
127.6135525885
 20
248.764805865
 40
3.2165563635
100
AcDbArc
 50
234.9159333284
 51
244.8091998226
  0
ARC
  5
499
100
AcDbEntity
  8
DEFAULT_2
100
AcDbCircle
 62
8
  6
HIDDEN
 10
127.6174112057
 20
248.7664668638
 40
3.2164197701
100
AcDbArc
 50
269.9312644032
 51
295.116079498
  0
ARC
  5
49A
100
AcDbEntity
  8
DEFAULT_2
100
AcDbCircle
 62
8
  6
HIDDEN
 10
127.6135525885
 20
248.764805865
 40
3.1641911687
100
AcDbArc
 50
77.2628853092
 51
102.7371146908
  0
ARC
  5
49B
100
AcDbEntity
  8
DEFAULT_2
100
AcDbCircle
 62
8
  6
HIDDEN
 10
127.6135525885
 20
248.764805865
 40
3.1641911687
100
AcDbArc
 50
347.2628853093
 51
12.7371146907
  0
CIRCLE
  5
49C
100
AcDbEntity
  8
0
100
AcDbCircle
 62
7
  6
CONTINUOUS
 10
127.6135525885
 20
248.764805865
 40
2.9999999906
  0
ARC
  5
49D
100
AcDbEntity
  8
DEFAULT_2
100
AcDbCircle
 62
8
  6
HIDDEN
 10
127.6135525885
 20
248.764805865
 40
2.8587275325
100
AcDbArc
 50
217.4623739505
 51
232.5376260495
  0
CIRCLE
  5
49E
100
AcDbEntity
  8
DEFAULT_2
100
AcDbCircle
 62
8
  6
HIDDEN
 10
127.6135525885
 20
248.764805865
 40
2.85
  0
CIRCLE
  5
49F
100
AcDbEntity
  8
DEFAULT_2
100
AcDbCircle
 62
8
  6
HIDDEN
 10
127.6135525885
 20
248.764805865
 40
2.5
  0
CIRCLE
  5
4A0
100
AcDbEntity
  8
DEFAULT_2
100
AcDbCircle
 62
8
  6
HIDDEN
 10
127.6135525885
 20
248.764805865
 40
2.4476348052
  0
CIRCLE
  5
4A1
100
AcDbEntity
  8
0
100
AcDbCircle
 62
7
  6
CONTINUOUS
 10
127.6135525885
 20
248.764805865
 40
1.7499999945
  0
CIRCLE
  5
4A2
100
AcDbEntity
  8
0
100
AcDbCircle
 62
7
  6
CONTINUOUS
 10
127.6135525885
 20
248.764805865
 40
1.549999984
  0
CIRCLE
  5
4A3
100
AcDbEntity
  8
0
100
AcDbCircle
 62
7
  6
CONTINUOUS
 10
127.6135525885
 20
248.764805865
 40
1.25
  0
ARC
  5
4A4
100
AcDbEntity
  8
DEFAULT_2
100
AcDbCircle
 62
8
  6
HIDDEN
 10
131.6135525885
 20
248.764805865
 40
0.75
100
AcDbArc
 50
270.0
 51
90.0
  0
ARC
  5
4A5
100
AcDbEntity
  8
DEFAULT_2
100
AcDbCircle
 62
8
  6
HIDDEN
 10
127.6135525885
 20
252.764805865
 40
0.75
100
AcDbArc
 50
0.0
 51
180.0
  0
ARC
  5
4A6
100
AcDbEntity
  8
DEFAULT_2
100
AcDbCircle
 62
8
  6
HIDDEN
 10
127.6135525885
 20
252.764805865
 40
0.6976348052
100
AcDbArc
 50
0.0
 51
180.0
  0
ARC
  5
4A7
100
AcDbEntity
  8
DEFAULT_2
100
AcDbCircle
 62
8
  6
HIDDEN
 10
131.6135525885
 20
248.764805865
 40
0.6976348052
100
AcDbArc
 50
270.0
 51
90.0
  0
ARC
  5
4A8
100
AcDbEntity
  8
DEFAULT_2
100
AcDbCircle
 62
8
  6
HIDDEN
 10
125.6929353342
 20
273.6854231193
 40
3.5012514605
100
AcDbArc
 50
90.0398544787
 51
179.9601455281
  0
ARC
  5
4A9
100
AcDbEntity
  8
0
100
AcDbCircle
 62
7
  6
CONTINUOUS
 10
125.1135525885
 20
274.264805865
 40
3.5
100
AcDbArc
 50
90.0
 51
180.0
  0
CIRCLE
  5
4AA
100
AcDbEntity
  8
DEFAULT_2
100
AcDbCircle
 62
8
  6
HIDDEN
 10
134.1135525885
 20
271.764805865
 40
2.0
  0
CIRCLE
  5
4AB
100
AcDbEntity
  8
DEFAULT_2
100
AcDbCircle
 62
8
  6
HIDDEN
 10
134.1135525885
 20
271.764805865
 40
1.9476348052
  0
ARC
  5
4AC
100
AcDbEntity
  8
DEFAULT_2
100
AcDbCircle
 62
8
  6
HIDDEN
 10
125.1135525885
 20
274.264805865
 40
1.5
100
AcDbArc
 50
90.0
 51
180.0
  0
ARC
  5
4AD
100
AcDbEntity
  8
DEFAULT_2
100
AcDbCircle
 62
8
  6
HIDDEN
 10
125.1135525885
 20
274.264805865
 40
1.4
100
AcDbArc
 50
90.0
 51
180.0
  0
ARC
  5
4AE
100
AcDbEntity
  8
DEFAULT_2
100
AcDbCircle
 62
8
  6
HIDDEN
 10
125.1135525885
 20
274.264805865
 40
1.3610996666
100
AcDbArc
 50
90.0
 51
180.0
  0
ARC
  5
4AF
100
AcDbEntity
  8
DEFAULT_2
100
AcDbCircle
 62
8
  6
HIDDEN
 10
126.6135525885
 20
272.764805865
 40
1.0
100
AcDbArc
 50
90.0
 51
180.0
  0
ARC
  5
4B0
100
AcDbEntity
  8
DEFAULT_2
100
AcDbCircle
 62
8
  6
HIDDEN
 10
125.1135525885
 20
274.264805865
 40
0.9613433358
100
AcDbArc
 50
90.0
 51
180.0
  0
ARC
  5
4B1
100
AcDbEntity
  8
DEFAULT_2
100
AcDbCircle
 62
8
  6
HIDDEN
 10
125.1135525885
 20
274.264805865
 40
0.9104740309
100
AcDbArc
 50
90.0
 51
180.0
  0
CIRCLE
  5
4B2
100
AcDbEntity
  8
DEFAULT_2
100
AcDbCircle
 62
8
  6
HIDDEN
 10
134.1135525885
 20
271.764805865
 40
0.75
  0
ARC
  5
4B3
100
AcDbEntity
  8
DEFAULT_2
100
AcDbCircle
 62
8
  6
HIDDEN
 10
125.1135525885
 20
274.264805865
 40
0.7386566641
100
AcDbArc
 50
90.0
 51
180.0
  0
ARC
  5
4B4
100
AcDbEntity
  8
0
100
AcDbCircle
 62
7
  6
CONTINUOUS
 10
125.1135525885
 20
274.264805865
 40
0.5
100
AcDbArc
 50
90.0
 51
180.0
  0
ARC
  5
4B5
100
AcDbEntity
  8
DEFAULT_2
100
AcDbCircle
 62
8
  6
HIDDEN
 10
125.6904435411
 20
273.6879159821
 40
0.4997716718
100
AcDbArc
 50
89.99353845
 51
180.0065841686
  0
ARC
  5
4B6
100
AcDbEntity
  8
DEFAULT_2
100
AcDbCircle
 62
8
  6
HIDDEN
 10
125.1135525885
 20
274.264805865
 40
0.4106453684
100
AcDbArc
 50
90.0
 51
180.0
  0
ARC
  5
4B7
100
AcDbEntity
  8
DEFAULT_2
100
AcDbCircle
 62
8
  6
HIDDEN
 10
125.1135525885
 20
274.264805865
 40
0.3389003334
100
AcDbArc
 50
90.0
 51
180.0
  0
ARC
  5
4B8
100
AcDbEntity
  8
DEFAULT_2
100
AcDbCircle
 62
8
  6
HIDDEN
 10
125.1135525885
 20
274.264805865
 40
0.2650792305
100
AcDbArc
 50
90.0
 51
180.0
  0
ARC
  5
4B9
100
AcDbEntity
  8
DEFAULT_2
100
AcDbCircle
 62
8
  6
HIDDEN
 10
167.534169794
 20
246.8441886595
 40
3.501251472
100
AcDbArc
 50
270.0398552761
 51
359.9601447307
  0
ARC
  5
4BA
100
AcDbEntity
  8
0
100
AcDbCircle
 62
7
  6
CONTINUOUS
 10
168.1135525885
 20
246.264805865
 40
3.5
100
AcDbArc
 50
270.0
 51
360.0
  0
CIRCLE
  5
4BB
100
AcDbEntity
  8
DEFAULT_2
100
AcDbCircle
 62
8
  6
HIDDEN
 10
159.1135525885
 20
248.764805865
 40
2.0
  0
CIRCLE
  5
4BC
100
AcDbEntity
  8
DEFAULT_2
100
AcDbCircle
 62
8
  6
HIDDEN
 10
159.1135525885
 20
248.764805865
 40
1.9476348052
  0
ARC
  5
4BD
100
AcDbEntity
  8
DEFAULT_2
100
AcDbCircle
 62
8
  6
HIDDEN
 10
168.1135525885
 20
246.264805865
 40
1.5
100
AcDbArc
 50
270.0
 51
360.0
  0
ARC
  5
4BE
100
AcDbEntity
  8
DEFAULT_2
100
AcDbCircle
 62
8
  6
HIDDEN
 10
168.1135525885
 20
246.264805865
 40
1.4
100
AcDbArc
 50
270.0
 51
360.0
  0
ARC
  5
4BF
100
AcDbEntity
  8
DEFAULT_2
100
AcDbCircle
 62
8
  6
HIDDEN
 10
168.1135525885
 20
246.264805865
 40
1.3610996666
100
AcDbArc
 50
270.0
 51
360.0
  0
ARC
  5
4C0
100
AcDbEntity
  8
DEFAULT_2
100
AcDbCircle
 62
8
  6
HIDDEN
 10
166.6135525885
 20
247.764805865
 40
1.0
100
AcDbArc
 50
270.0
 51
360.0
  0
ARC
  5
4C1
100
AcDbEntity
  8
DEFAULT_2
100
AcDbCircle
 62
8
  6
HIDDEN
 10
168.1135525885
 20
246.264805865
 40
0.9613433358
100
AcDbArc
 50
270.0
 51
360.0
  0
ARC
  5
4C2
100
AcDbEntity
  8
DEFAULT_2
100
AcDbCircle
 62
8
  6
HIDDEN
 10
168.1135525885
 20
246.264805865
 40
0.9104740309
100
AcDbArc
 50
270.0
 51
360.0
  0
CIRCLE
  5
4C3
100
AcDbEntity
  8
DEFAULT_2
100
AcDbCircle
 62
8
  6
HIDDEN
 10
159.1135525885
 20
248.764805865
 40
0.75
  0
ARC
  5
4C4
100
AcDbEntity
  8
DEFAULT_2
100
AcDbCircle
 62
8
  6
HIDDEN
 10
168.1135525885
 20
246.264805865
 40
0.7386566641
100
AcDbArc
 50
270.0
 51
360.0
  0
ARC
  5
4C5
100
AcDbEntity
  8
0
100
AcDbCircle
 62
7
  6
CONTINUOUS
 10
168.1135525885
 20
246.264805865
 40
0.5
100
AcDbArc
 50
270.0
 51
360.0
  0
ARC
  5
4C6
100
AcDbEntity
  8
DEFAULT_2
100
AcDbCircle
 62
8
  6
HIDDEN
 10
167.5366616449
 20
246.8416957384
 40
0.4997716599
100
AcDbArc
 50
269.9935374094
 51
0.0065852653
  0
ARC
  5
4C7
100
AcDbEntity
  8
DEFAULT_2
100
AcDbCircle
 62
8
  6
HIDDEN
 10
168.1135525885
 20
246.264805865
 40
0.4106453684
100
AcDbArc
 50
270.0
 51
360.0
  0
ARC
  5
4C8
100
AcDbEntity
  8
DEFAULT_2
100
AcDbCircle
 62
8
  6
HIDDEN
 10
168.1135525885
 20
246.264805865
 40
0.3389003334
100
AcDbArc
 50
270.0
 51
360.0
  0
ARC
  5
4C9
100
AcDbEntity
  8
DEFAULT_2
100
AcDbCircle
 62
8
  6
HIDDEN
 10
168.1135525885
 20
246.264805865
 40
0.2650792305
100
AcDbArc
 50
270.0
 51
360.0
  0
ARC
  5
4CA
100
AcDbEntity
  8
DEFAULT_2
100
AcDbCircle
 62
8
  6
HIDDEN
 10
165.6096939713
 20
271.7631448661
 40
3.2164197702
100
AcDbArc
 50
89.9312644035
 51
115.1160794977
  0
ARC
  5
4CB
100
AcDbEntity
  8
DEFAULT_2
100
AcDbCircle
 62
8
  6
HIDDEN
 10
158.5092533128
 20
276.6951624822
 40
10.262190715
100
AcDbArc
 50
308.2573878137
 51
308.6306762725
  0
ARC
  5
4CC
100
AcDbEntity
  8
DEFAULT_2
100
AcDbCircle
 62
8
  6
HIDDEN
 10
161.6135525885
 20
271.764805865
 40
0.75
100
AcDbArc
 50
90.0
 51
270.0
  0
ARC
  5
4CD
100
AcDbEntity
  8
DEFAULT_2
100
AcDbCircle
 62
8
  6
HIDDEN
 10
161.6135525885
 20
271.764805865
 40
0.6976348052
100
AcDbArc
 50
90.0
 51
270.0
  0
ARC
  5
4CE
100
AcDbEntity
  8
DEFAULT_2
100
AcDbCircle
 62
8
  6
HIDDEN
 10
170.5439092056
 20
264.6605065893
 40
10.262190715
100
AcDbArc
 50
141.3693237275
 51
141.7426121863
  0
ARC
  5
4CF
100
AcDbEntity
  8
DEFAULT_2
100
AcDbCircle
 62
8
  6
HIDDEN
 10
165.6174113331
 20
271.7631454401
 40
3.2164191964
100
AcDbArc
 50
64.8839182188
 51
90.0687378799
  0
ARC
  5
4D0
100
AcDbEntity
  8
DEFAULT_2
100
AcDbCircle
 62
8
  6
HIDDEN
 10
165.6135525885
 20
267.764805865
 40
0.75
100
AcDbArc
 50
180.0
 51
360.0
  0
ARC
  5
4D1
100
AcDbEntity
  8
DEFAULT_2
100
AcDbCircle
 62
8
  6
HIDDEN
 10
165.6135525885
 20
267.764805865
 40
0.6976348052
100
AcDbArc
 50
180.0
 51
360.0
  0
ARC
  5
4D2
100
AcDbEntity
  8
DEFAULT_2
100
AcDbCircle
 62
8
  6
HIDDEN
 10
167.5341698908
 20
273.6854231674
 40
3.5012514116
100
AcDbArc
 50
0.0398536919
 51
89.9601463149
  0
ARC
  5
4D3
100
AcDbEntity
  8
0
100
AcDbCircle
 62
7
  6
CONTINUOUS
 10
168.1135525885
 20
274.264805865
 40
3.5
100
AcDbArc
 50
0.0
 51
90.0
  0
ARC
  5
4D4
100
AcDbEntity
  8
DEFAULT_2
100
AcDbCircle
 62
8
  6
HIDDEN
 10
165.6135525885
 20
271.764805865
 40
3.2165563635
100
AcDbArc
 50
283.483693589
 51
334.8086859386
  0
ARC
  5
4D5
100
AcDbEntity
  8
DEFAULT_2
100
AcDbCircle
 62
8
  6
HIDDEN
 10
165.6135525885
 20
271.764805865
 40
3.2165563635
100
AcDbArc
 50
115.1908717908
 51
166.516306411
  0
ARC
  5
4D6
100
AcDbEntity
  8
DEFAULT_2
100
AcDbCircle
 62
8
  6
HIDDEN
 10
165.6135525885
 20
271.764805865
 40
3.2165563635
100
AcDbArc
 50
193.483693589
 51
256.516306411
  0
ARC
  5
4D7
100
AcDbEntity
  8
DEFAULT_2
100
AcDbCircle
 62
8
  6
HIDDEN
 10
165.6135525885
 20
271.764805865
 40
3.2165563635
100
AcDbArc
 50
25.1905716718
 51
35.0840666716
  0
ARC
  5
4D8
100
AcDbEntity
  8
DEFAULT_2
100
AcDbCircle
 62
8
  6
HIDDEN
 10
165.6135525885
 20
271.764805865
 40
3.2165563635
100
AcDbArc
 50
54.9159333284
 51
64.8091998226
  0
ARC
  5
4D9
100
AcDbEntity
  8
DEFAULT_2
100
AcDbCircle
 62
8
  6
HIDDEN
 10
165.6135525885
 20
271.764805865
 40
3.1641911687
100
AcDbArc
 50
257.2628853092
 51
282.7371146908
  0
ARC
  5
4DA
100
AcDbEntity
  8
DEFAULT_2
100
AcDbCircle
 62
8
  6
HIDDEN
 10
165.6135525885
 20
271.764805865
 40
3.1641911687
100
AcDbArc
 50
167.2628853093
 51
192.7371146907
  0
CIRCLE
  5
4DB
100
AcDbEntity
  8
0
100
AcDbCircle
 62
7
  6
CONTINUOUS
 10
165.6135525885
 20
271.764805865
 40
2.9999999906
  0
ARC
  5
4DC
100
AcDbEntity
  8
DEFAULT_2
100
AcDbCircle
 62
8
  6
HIDDEN
 10
165.6135525885
 20
271.764805865
 40
2.8587275325
100
AcDbArc
 50
37.4623739505
 51
52.5376260495
  0
CIRCLE
  5
4DD
100
AcDbEntity
  8
DEFAULT_2
100
AcDbCircle
 62
8
  6
HIDDEN
 10
165.6135525885
 20
271.764805865
 40
2.85
  0
CIRCLE
  5
4DE
100
AcDbEntity
  8
DEFAULT_2
100
AcDbCircle
 62
8
  6
HIDDEN
 10
165.6135525885
 20
271.764805865
 40
2.5
  0
CIRCLE
  5
4DF
100
AcDbEntity
  8
DEFAULT_2
100
AcDbCircle
 62
8
  6
HIDDEN
 10
165.6135525885
 20
271.764805865
 40
2.4476348052
  0
CIRCLE
  5
4E0
100
AcDbEntity
  8
0
100
AcDbCircle
 62
7
  6
CONTINUOUS
 10
165.6135525885
 20
271.764805865
 40
1.7499999945
  0
CIRCLE
  5
4E1
100
AcDbEntity
  8
0
100
AcDbCircle
 62
7
  6
CONTINUOUS
 10
165.6135525885
 20
271.764805865
 40
1.549999984
  0
ARC
  5
4E2
100
AcDbEntity
  8
DEFAULT_2
100
AcDbCircle
 62
8
  6
HIDDEN
 10
168.1135525885
 20
274.264805865
 40
1.5
100
AcDbArc
 50
0.0
 51
90.0
  0
ARC
  5
4E3
100
AcDbEntity
  8
DEFAULT_2
100
AcDbCircle
 62
8
  6
HIDDEN
 10
168.1135525885
 20
274.264805865
 40
1.4345351961
100
AcDbArc
 50
29.846333358
 51
60.153666642
  0
ARC
  5
4E4
100
AcDbEntity
  8
DEFAULT_2
100
AcDbCircle
 62
8
  6
HIDDEN
 10
168.1135525885
 20
274.264805865
 40
1.4
100
AcDbArc
 50
0.0
 51
90.0
  0
ARC
  5
4E5
100
AcDbEntity
  8
DEFAULT_2
100
AcDbCircle
 62
8
  6
HIDDEN
 10
168.1135525885
 20
274.264805865
 40
1.3610996666
100
AcDbArc
 50
0.0
 51
90.0
  0
CIRCLE
  5
4E6
100
AcDbEntity
  8
0
100
AcDbCircle
 62
7
  6
CONTINUOUS
 10
165.6135525885
 20
271.764805865
 40
1.25
  0
ARC
  5
4E7
100
AcDbEntity
  8
DEFAULT_2
100
AcDbCircle
 62
8
  6
HIDDEN
 10
166.6135525885
 20
272.764805865
 40
1.0
100
AcDbArc
 50
0.0
 51
90.0
  0
ARC
  5
4E8
100
AcDbEntity
  8
DEFAULT_2
100
AcDbCircle
 62
8
  6
HIDDEN
 10
168.1135525885
 20
274.264805865
 40
0.9613433358
100
AcDbArc
 50
0.0
 51
90.0
  0
ARC
  5
4E9
100
AcDbEntity
  8
DEFAULT_2
100
AcDbCircle
 62
8
  6
HIDDEN
 10
168.1135525885
 20
274.264805865
 40
0.9104740309
100
AcDbArc
 50
0.0
 51
7.8647731499
  0
ARC
  5
4EA
100
AcDbEntity
  8
DEFAULT_2
100
AcDbCircle
 62
8
  6
HIDDEN
 10
168.1135525885
 20
274.264805865
 40
0.9104740309
100
AcDbArc
 50
82.1352268501
 51
90.0
  0
ARC
  5
4EB
100
AcDbEntity
  8
DEFAULT_2
100
AcDbCircle
 62
8
  6
HIDDEN
 10
168.1135525885
 20
274.264805865
 40
0.7386566641
100
AcDbArc
 50
0.0
 51
90.0
  0
ARC
  5
4EC
100
AcDbEntity
  8
0
100
AcDbCircle
 62
7
  6
CONTINUOUS
 10
168.1135525885
 20
274.264805865
 40
0.5
100
AcDbArc
 50
0.0
 51
90.0
  0
ARC
  5
4ED
100
AcDbEntity
  8
DEFAULT_2
100
AcDbCircle
 62
8
  6
HIDDEN
 10
167.5366627087
 20
273.687914916
 40
0.4997716672
100
AcDbArc
 50
359.9935380308
 51
90.0065845371
  0
ARC
  5
4EE
100
AcDbEntity
  8
DEFAULT_2
100
AcDbCircle
 62
8
  6
HIDDEN
 10
168.1135525885
 20
274.264805865
 40
0.3389003334
100
AcDbArc
 50
0.0
 51
90.0
  0
ARC
  5
4EF
100
AcDbEntity
  8
DEFAULT_2
100
AcDbCircle
 62
8
  6
HIDDEN
 10
168.1135525885
 20
274.264805865
 40
0.2650792305
100
AcDbArc
 50
0.0
 51
90.0
  0
ARC
  5
4F0
100
AcDbEntity
  8
DEFAULT_2
100
AcDbCircle
 62
8
  6
HIDDEN
 10
170.5439092056
 20
278.8691051407
 40
10.262190715
100
AcDbArc
 50
218.2573878137
 51
218.6306762725
  0
ARC
  5
4F1
100
AcDbEntity
  8
DEFAULT_2
100
AcDbCircle
 62
8
  6
HIDDEN
 10
172.7178518598
 20
276.6951624767
 40
10.2621907079
100
AcDbArc
 50
231.3693237274
 51
231.7426121865
  0
ARC
  5
4F2
100
AcDbEntity
  8
0
100
AcDbCircle
 62
7
  6
CONTINUOUS
 10
278.1343584084
 20
246.3419636251
 40
2.9999930818
100
AcDbArc
 50
180.0007469697
 51
268.5000021233
  0
ARC
  5
4F3
100
AcDbEntity
  8
DEFAULT_2
100
AcDbCircle
 62
8
  6
HIDDEN
 10
277.6343611182
 20
245.8541604966
 40
0.5
100
AcDbArc
 50
180.0
 51
268.5
  0
ARC
  5
4F4
100
AcDbEntity
  8
0
100
AcDbCircle
 62
7
  6
CONTINUOUS
 10
278.1343479341
 20
274.1876691134
 40
2.9999856356
100
AcDbArc
 50
91.4997850222
 51
179.9996542585
  0
ARC
  5
4F5
100
AcDbEntity
  8
DEFAULT_2
100
AcDbCircle
 62
8
  6
HIDDEN
 10
277.6343611182
 20
274.6754512335
 40
0.5
100
AcDbArc
 50
91.5
 51
179.9999999996
  0
ARC
  5
4F6
100
AcDbEntity
  8
DEFAULT_2
100
AcDbCircle
 62
8
  6
HIDDEN
 10
277.6055401855
 20
274.6963477802
 40
0.465752915
100
AcDbArc
 50
113.8118561145
 51
121.0911600902
  0
ARC
  5
4F7
100
AcDbEntity
  8
DEFAULT_2
100
AcDbCircle
 62
8
  6
HIDDEN
 10
277.5910276347
 20
274.7204252539
 40
0.4376399494
100
AcDbArc
 50
121.0919273743
 51
128.7432277064
  0
ARC
  5
4F8
100
AcDbEntity
  8
DEFAULT_2
100
AcDbCircle
 62
8
  6
HIDDEN
 10
277.5747779352
 20
274.7411290914
 40
0.4113223431
100
AcDbArc
 50
128.7826512143
 51
132.1435550559
  0
ARC
  5
4F9
100
AcDbEntity
  8
0
100
AcDbCircle
 62
7
  6
CONTINUOUS
 10
320.1343611182
 20
245.764805865
 40
3.0
100
AcDbArc
 50
270.0
 51
360.0
  0
ARC
  5
4FA
100
AcDbEntity
  8
DEFAULT_2
100
AcDbCircle
 62
8
  6
HIDDEN
 10
319.0343611182
 20
245.5261492008
 40
0.4
100
AcDbArc
 50
92.0000000001
 51
180.0000000003
  0
ARC
  5
4FB
100
AcDbEntity
  8
0
100
AcDbCircle
 62
7
  6
CONTINUOUS
 10
319.0343611182
 20
245.3034625292
 40
0.4
100
AcDbArc
 50
179.9999999999
 51
267.9999999931
  0
ARC
  5
4FC
100
AcDbEntity
  8
0
100
AcDbCircle
 62
7
  6
CONTINUOUS
 10
320.1343611182
 20
274.764805865
 40
3.0
100
AcDbArc
 50
0.0
 51
90.0
  0
ARC
  5
4FD
100
AcDbEntity
  8
DEFAULT_2
100
AcDbCircle
 62
8
  6
HIDDEN
 10
319.0343611182
 20
275.0034625292
 40
0.4
100
AcDbArc
 50
179.9999999997
 51
267.9999999999
  0
ARC
  5
4FE
100
AcDbEntity
  8
0
100
AcDbCircle
 62
7
  6
CONTINUOUS
 10
319.0343611182
 20
275.2261492008
 40
0.4
100
AcDbArc
 50
92.0
 51
180.0
  0
SPLINE
  5
4FF
100
AcDbEntity
  8
DEFAULT_2
100
AcDbSpline
 62
8
  6
HIDDEN
 70
0
 71
3
 72
11
 73
7
 74
5
 42
0.0000001
 43
0.0000001
 44
0.0000000001
 12
-1.2011208499
 22
2.5535676469
 32
0.0
 13
1.2011208499
 23
2.5535676469
 33
0.0
 40
0.0
 40
0.0
 40
0.0
 40
0.0
 40
0.2499450411
 40
0.500000294
 40
0.7500555784
 40
1.0
 40
1.0
 40
1.0
 40
1.0
 10
124.70290722
 20
330.1661638922
 30
0.0
 10
124.6028358199
 20
330.3789144157
 30
0.0
 10
124.4495263417
 20
330.8284206538
 30
0.0
 10
124.373621352
 20
331.5352441285
 30
0.0
 10
124.4495279361
 20
332.2420666114
 30
0.0
 10
124.602836068
 20
332.6915726779
 30
0.0
 10
124.70290722
 20
332.904322674
 30
0.0
 11
124.70290722
 21
330.1661638922
 31
0.0
 11
124.4752262841
 21
330.8337378766
 31
0.0
 11
124.3989270097
 21
331.5352440309
 31
0.0
 11
124.4752274133
 21
332.2367501516
 31
0.0
 11
124.70290722
 21
332.904322674
 31
0.0
  0
SPLINE
  5
500
100
AcDbEntity
  8
DEFAULT_2
100
AcDbSpline
 62
8
  6
HIDDEN
 70
0
 71
3
 72
9
 73
5
 74
3
 42
0.0000001
 43
0.0000001
 44
0.0000000001
 12
0.1088764673
 22
0.3633587657
 32
0.0
 13
0.1112646251
 23
0.3626346108
 33
0.0
 40
0.0
 40
0.0
 40
0.0
 40
0.0
 40
0.2480353472
 40
1.0
 40
1.0
 40
1.0
 40
1.0
 10
125.7647476835
 20
328.9031043691
 30
0.0
 10
125.7737494209
 20
328.9331463083
 30
0.0
 10
125.8096836871
 20
329.0543731295
 30
0.0
 10
125.8468702637
 20
329.1752237578
 30
0.0
 10
125.8747592854
 20
329.2661198942
 30
0.0
 11
125.7647476835
 21
328.9031043691
 31
0.0
 11
125.7916524013
 21
328.9932602377
 31
0.0
 11
125.8747592854
 21
329.2661198942
 31
0.0
  0
SPLINE
  5
501
100
AcDbEntity
  8
DEFAULT_2
100
AcDbSpline
 62
8
  6
HIDDEN
 70
0
 71
3
 72
9
 73
5
 74
3
 42
0.0000001
 43
0.0000001
 44
0.0000000001
 12
-0.3626345659
 22
-0.1112646113
 32
0.0
 13
-0.3633587208
 23
-0.1088764538
 33
0.0
 40
0.0
 40
0.0
 40
0.0
 40
0.0
 40
0.2519361658
 40
1.0
 40
1.0
 40
1.0
 40
1.0
 10
125.3444291995
 20
329.7964499801
 30
0.0
 10
125.3139756122
 20
329.7871061202
 30
0.0
 10
125.1931800267
 20
329.7497481397
 30
0.0
 10
125.0720188471
 20
329.7135872239
 30
0.0
 10
124.9814136744
 20
329.6864383781
 30
0.0
 11
125.3444291995
 21
329.7964499801
 31
0.0
 11
125.2530868539
 21
329.7683584473
 31
0.0
 11
124.9814136744
 21
329.6864383781
 31
0.0
  0
SPLINE
  5
502
100
AcDbEntity
  8
DEFAULT_2
100
AcDbSpline
 62
8
  6
HIDDEN
 70
0
 71
3
 72
9
 73
5
 74
3
 42
0.0000001
 43
0.0000001
 44
0.0000000001
 12
-0.1088764673
 22
-0.3633587657
 32
0.0
 13
-0.1112646251
 23
-0.3626346108
 33
0.0
 40
0.0
 40
0.0
 40
0.0
 40
0.0
 40
0.2480353472
 40
1.0
 40
1.0
 40
1.0
 40
1.0
 10
167.4623574935
 20
357.1673821971
 30
0.0
 10
167.453355756
 20
357.1373402579
 30
0.0
 10
167.4174214898
 20
357.0161134366
 30
0.0
 10
167.3802349132
 20
356.8952628084
 30
0.0
 10
167.3523458915
 20
356.804366672
 30
0.0
 11
167.4623574935
 21
357.1673821971
 31
0.0
 11
167.4354527756
 21
357.0772263285
 31
0.0
 11
167.3523458915
 21
356.804366672
 31
0.0
  0
SPLINE
  5
503
100
AcDbEntity
  8
DEFAULT_2
100
AcDbSpline
 62
8
  6
HIDDEN
 70
0
 71
3
 72
9
 73
5
 74
3
 42
0.0000001
 43
0.0000001
 44
0.0000000001
 12
0.3626345659
 22
0.1112646113
 32
0.0
 13
0.3633587208
 23
0.1088764538
 33
0.0
 40
0.0
 40
0.0
 40
0.0
 40
0.0
 40
0.2519361658
 40
1.0
 40
1.0
 40
1.0
 40
1.0
 10
167.8826759774
 20
356.2740365861
 30
0.0
 10
167.9131295648
 20
356.283380446
 30
0.0
 10
168.0339251502
 20
356.3207384265
 30
0.0
 10
168.1550863299
 20
356.3568993423
 30
0.0
 10
168.2456915025
 20
356.3840481881
 30
0.0
 11
167.8826759774
 21
356.2740365861
 31
0.0
 11
167.974018323
 21
356.3021281189
 31
0.0
 11
168.2456915025
 21
356.3840481881
 31
0.0
  0
SPLINE
  5
504
100
AcDbEntity
  8
DEFAULT_2
100
AcDbSpline
 62
8
  6
HIDDEN
 70
0
 71
3
 72
9
 73
5
 74
3
 42
0.0000001
 43
0.0000001
 44
0.0000000001
 12
1.1938458545
 22
-2.5381010992
 32
0.0
 13
-1.1938458545
 23
-2.5381010992
 33
0.0
 40
0.0
 40
0.0
 40
0.0
 40
0.0
 40
0.49999999
 40
1.0
 40
1.0
 40
1.0
 40
1.0
 10
168.5241979569
 20
355.904322674
 30
0.0
 10
168.723172262
 20
355.4813058326
 30
0.0
 10
168.9332627911
 20
354.5352432943
 30
0.0
 10
168.72317227
 20
353.5891807505
 30
0.0
 10
168.5241979569
 20
353.1661638922
 30
0.0
 11
168.5241979569
 21
355.904322674
 31
0.0
 11
168.8282175285
 21
354.5352433119
 31
0.0
 11
168.5241979569
 21
353.1661638922
 31
0.0
  0
SPLINE
  5
505
100
AcDbEntity
  8
DEFAULT_2
100
AcDbSpline
 62
8
  6
HIDDEN
 70
0
 71
3
 72
9
 73
5
 74
3
 42
0.0000001
 43
0.0000001
 44
0.0000000001
 12
0.5747308529
 22
0.3665378661
 32
0.0
 13
0.5989637812
 23
0.3254350155
 33
0.0
 40
0.0
 40
0.0
 40
0.0
 40
0.0
 40
0.2781839497
 40
1.0
 40
1.0
 40
1.0
 40
1.0
 10
168.2381377856
 20
357.9371531953
 30
0.0
 10
168.2914314185
 20
357.9711415124
 30
0.0
 10
168.4849869641
 20
358.0902241982
 30
0.0
 10
168.683371768
 20
358.201205033
 30
0.0
 10
168.8274856583
 20
358.2795064388
 30
0.0
 11
168.2381377856
 21
357.9371531953
 31
0.0
 11
168.3994932293
 21
358.0367683238
 31
0.0
 11
168.8274856583
 21
358.2795064388
 31
0.0
  0
SPLINE
  5
506
100
AcDbEntity
  8
DEFAULT_2
100
AcDbSpline
 62
8
  6
HIDDEN
 70
0
 71
3
 72
9
 73
5
 74
3
 42
0.0000001
 43
0.0000001
 44
0.0000000001
 12
-0.325417246
 22
-0.5989310764
 32
0.0
 13
-0.3665178523
 23
-0.5746994712
 33
0.0
 40
0.0
 40
0.0
 40
0.0
 40
0.0
 40
0.2294945766
 40
1.0
 40
1.0
 40
1.0
 40
1.0
 10
169.3578157442
 20
357.7491763529
 30
0.0
 10
169.3329219131
 20
357.7033592083
 30
0.0
 10
169.2235428792
 20
357.5042297626
 30
0.0
 10
169.1095971649
 20
357.3074315
 30
0.0
 10
169.0154625006
 20
357.1598284802
 30
0.0
 11
169.3578157442
 21
357.7491763529
 31
0.0
 11
169.2824776062
 21
357.6120837309
 31
0.0
 11
169.0154625006
 21
357.1598284802
 31
0.0
  0
SPLINE
  5
507
100
AcDbEntity
  8
DEFAULT_2
100
AcDbSpline
 62
8
  6
HIDDEN
 70
0
 71
3
 72
11
 73
7
 74
5
 42
0.0000001
 43
0.0000001
 44
0.0000000001
 12
0.1217883905
 22
0.1234485992
 32
0.0
 13
0.0932458549
 23
0.1462093679
 33
0.0
 40
0.0
 40
0.0
 40
0.0
 40
0.0
 40
0.3959381822
 40
0.7080358794
 40
0.9145571231
 40
1.0
 40
1.0
 40
1.0
 40
1.0
 10
168.89485734
 20
357.0352432831
 30
0.0
 10
168.910930898
 20
357.0515359544
 30
0.0
 10
168.9395122854
 20
357.0807948121
 30
0.0
 10
168.9768859182
 20
357.1183064114
 30
0.0
 10
169.0002724563
 20
357.1440432069
 30
0.0
 10
169.0128067693
 20
357.1556642972
 30
0.0
 10
169.0154625006
 20
357.1598284802
 30
0.0
 11
168.89485734
 21
357.0352432831
 31
0.0
 11
168.943006979
 21
357.0841912751
 31
0.0
 11
168.9807965609
 21
357.1229353944
 31
0.0
 11
169.0055758805
 21
357.1487924164
 31
0.0
 11
169.0154625006
 21
357.1598284802
 31
0.0
  0
SPLINE
  5
508
100
AcDbEntity
  8
DEFAULT_2
100
AcDbSpline
 62
8
  6
HIDDEN
 70
0
 71
3
 72
9
 73
5
 74
3
 42
0.0000001
 43
0.0000001
 44
0.0000000001
 12
-0.5747308529
 22
-0.3665378661
 32
0.0
 13
-0.5989637812
 23
-0.3254350155
 33
0.0
 40
0.0
 40
0.0
 40
0.0
 40
0.0
 40
0.2781839497
 40
1.0
 40
1.0
 40
1.0
 40
1.0
 10
124.9889673914
 20
328.1333333709
 30
0.0
 10
124.9356737585
 20
328.0993450538
 30
0.0
 10
124.7421182128
 20
327.9802623679
 30
0.0
 10
124.5437334089
 20
327.8692815332
 30
0.0
 10
124.3996195187
 20
327.7909801274
 30
0.0
 11
124.9889673914
 21
328.1333333709
 31
0.0
 11
124.8276119476
 21
328.0337182424
 31
0.0
 11
124.3996195187
 21
327.7909801274
 31
0.0
  0
SPLINE
  5
509
100
AcDbEntity
  8
DEFAULT_2
100
AcDbSpline
 62
8
  6
HIDDEN
 70
0
 71
3
 72
9
 73
5
 74
3
 42
0.0000001
 43
0.0000001
 44
0.0000000001
 12
0.325417246
 22
0.5989310764
 32
0.0
 13
0.3665178523
 23
0.5746994712
 33
0.0
 40
0.0
 40
0.0
 40
0.0
 40
0.0
 40
0.2294945766
 40
1.0
 40
1.0
 40
1.0
 40
1.0
 10
123.8692894328
 20
328.3213102133
 30
0.0
 10
123.8941832638
 20
328.3671273579
 30
0.0
 10
124.0035622977
 20
328.5662568036
 30
0.0
 10
124.117508012
 20
328.7630550662
 30
0.0
 10
124.2116426763
 20
328.910658086
 30
0.0
 11
123.8692894328
 21
328.3213102133
 31
0.0
 11
123.9446275708
 21
328.4584028353
 31
0.0
 11
124.2116426763
 21
328.910658086
 31
0.0
  0
SPLINE
  5
50A
100
AcDbEntity
  8
DEFAULT_2
100
AcDbSpline
 62
8
  6
HIDDEN
 70
0
 71
3
 72
11
 73
7
 74
5
 42
0.0000001
 43
0.0000001
 44
0.0000000001
 12
0.1462093667
 22
0.0932458541
 32
0.0
 13
0.1234485982
 23
0.1217883895
 33
0.0
 40
0.0
 40
0.0
 40
0.0
 40
0.0
 40
0.0854509255
 40
0.2919696591
 40
0.604061231
 40
1.0
 40
1.0
 40
1.0
 40
1.0
 10
124.9889673914
 20
328.1333333709
 30
0.0
 10
124.9931319666
 20
328.1359893524
 30
0.0
 10
125.0047531679
 20
328.1485240287
 30
0.0
 10
125.0304900293
 20
328.1719104488
 30
0.0
 10
125.0680012623
 20
328.2092837892
 30
0.0
 10
125.0972598931
 20
328.2378649498
 30
0.0
 10
125.1135525885
 20
328.2539385315
 30
0.0
 11
124.9889673914
 21
328.1333333709
 31
0.0
 11
125.0000044491
 21
328.1432209732
 31
0.0
 11
125.0258611698
 21
328.1679999775
 31
0.0
 11
125.0646045318
 21
328.205788814
 31
0.0
 11
125.1135525885
 21
328.2539385315
 31
0.0
  0
SPLINE
  5
50B
100
AcDbEntity
  8
DEFAULT_2
100
AcDbSpline
 62
8
  6
HIDDEN
 70
0
 71
3
 72
11
 73
7
 74
5
 42
0.0000001
 43
0.0000001
 44
0.0000000001
 12
0.0932458529
 22
0.1462093648
 32
0.0
 13
0.121788388
 23
0.1234485966
 33
0.0
 40
0.0
 40
0.0
 40
0.0
 40
0.0
 40
0.0854673572
 40
0.2919447577
 40
0.6040478298
 40
1.0
 40
1.0
 40
1.0
 40
1.0
 10
124.2116426763
 20
328.910658086
 30
0.0
 10
124.2142991685
 20
328.914823462
 30
0.0
 10
124.2268329945
 20
328.926443487
 30
0.0
 10
124.2502187877
 20
328.9521799018
 30
0.0
 10
124.2875917551
 20
328.9896901732
 30
0.0
 10
124.3161737114
 20
329.0189500365
 30
0.0
 10
124.3322478369
 20
329.0352432831
 30
0.0
 11
124.2116426763
 21
328.910658086
 31
0.0
 11
124.2215322555
 21
328.9216971981
 31
0.0
 11
124.2463062709
 21
328.9475487716
 31
0.0
 11
124.2840965867
 21
328.9862934756
 31
0.0
 11
124.3322478369
 21
329.0352432831
 31
0.0
  0
SPLINE
  5
50C
100
AcDbEntity
  8
DEFAULT_2
100
AcDbSpline
 62
8
  6
HIDDEN
 70
0
 71
3
 72
11
 73
7
 74
5
 42
0.0000001
 43
0.0000001
 44
0.0000000001
 12
0.1234485968
 22
0.1217883881
 32
0.0
 13
0.146209365
 23
0.093245853
 33
0.0
 40
0.0
 40
0.0
 40
0.0
 40
0.0
 40
0.3959548603
 40
0.7080596895
 40
0.9145346147
 40
1.0
 40
1.0
 40
1.0
 40
1.0
 10
168.1135525885
 20
357.8165480347
 30
0.0
 10
168.1298459458
 20
357.8326222694
 30
0.0
 10
168.1591059936
 20
357.8612044043
 30
0.0
 10
168.1966163505
 20
357.8985774482
 30
0.0
 10
168.2223526395
 20
357.9219631499
 30
0.0
 10
168.2339725057
 20
357.9344967643
 30
0.0
 10
168.2381377856
 20
357.9371531953
 30
0.0
 11
168.1135525885
 21
357.8165480347
 31
0.0
 11
168.1625027303
 21
357.8646996104
 31
0.0
 11
168.2012476542
 21
357.9024901372
 31
0.0
 11
168.2270989201
 21
357.9272638532
 31
0.0
 11
168.2381377856
 21
357.9371531953
 31
0.0
  0
SPLINE
  5
50D
100
AcDbEntity
  8
DEFAULT_2
100
AcDbSpline
 62
8
  6
HIDDEN
 70
0
 71
3
 72
21
 73
17
 74
15
 42
0.0000001
 43
0.0000001
 44
0.0000000001
 12
3.5008449193
 22
-0.0785371453
 32
0.0
 13
0.0962899772
 23
3.4996683031
 33
0.0
 40
0.0
 40
0.0
 40
0.0
 40
0.0
 40
0.1948774371
 40
0.3822994189
 40
0.5549844812
 40
0.7063726691
 40
0.7722218688
 40
0.8306335545
 40
0.881065378
 40
0.9230221463
 40
0.9561118031
 40
0.9800336193
 40
0.988484861
 40
0.9945881071
 40
0.9983654817
 40
1.0
 40
1.0
 40
1.0
 40
1.0
 10
167.5366052741
 20
430.7672899718
 30
0.0
 10
167.7640171692
 20
430.762188266
 30
0.0
 10
168.2101632502
 20
430.7531545979
 30
0.0
 10
168.8578864061
 20
430.7429355284
 30
0.0
 10
169.4548928412
 20
430.7365422606
 30
0.0
 10
169.9100281391
 20
430.7344436111
 30
0.0
 10
170.2317750186
 20
430.7350962058
 30
0.0
 10
170.4356861067
 20
430.7366088252
 30
0.0
 10
170.6116698272
 20
430.7391252729
 30
0.0
 10
170.7581529915
 20
430.7426129722
 30
0.0
 10
170.8734442112
 20
430.7469638084
 30
0.0
 10
170.9500440184
 20
430.7516370889
 30
0.0
 10
170.9943209913
 20
430.7560203219
 30
0.0
 10
171.0161947339
 20
430.7593921405
 30
0.0
 10
171.0280067008
 20
430.7620074391
 30
0.0
 10
171.0353533398
 20
430.7653791044
 30
0.0
 10
171.0354058024
 20
430.7672858617
 30
0.0
 11
167.5366052741
 21
430.7672899718
 31
0.0
 11
168.2188731988
 21
430.7534966355
 31
0.0
 11
168.8750934452
 21
430.7432410685
 31
0.0
 11
169.4797562501
 21
430.7369309452
 31
0.0
 11
170.0098718865
 21
430.7348008095
 31
0.0
 11
170.2404571095
 21
430.7353333492
 31
0.0
 11
170.444992585
 21
430.7369295922
 31
0.0
 11
170.6215712225
 21
430.7395724901
 31
0.0
 11
170.7684465699
 21
430.7432386593
 31
0.0
 11
170.8842239335
 21
430.7478935798
 31
0.0
 11
170.9678041955
 21
430.7534933383
 31
0.0
 11
170.9972312826
 21
430.7566313765
 31
0.0
 11
171.0183387723
 21
430.7599827533
 31
0.0
 11
171.0310793847
 21
430.763537898
 31
0.0
 11
171.0354058024
 21
430.7672858617
 31
0.0
  0
SPLINE
  5
50E
100
AcDbEntity
  8
DEFAULT_2
100
AcDbSpline
 62
8
  6
HIDDEN
 70
0
 71
3
 72
9
 73
5
 74
3
 42
0.0000001
 43
0.0000001
 44
0.0000000001
 12
-1.3729869368
 22
0.0
 32
0.0
 13
-1.3729869368
 23
-0.0
 33
0.0
 40
0.0
 40
0.0
 40
0.0
 40
0.0
 40
0.5122108778
 40
1.0
 40
1.0
 40
1.0
 40
1.0
 10
127.6135525885
 20
429.9489374007
 30
0.0
 10
127.3791329737
 20
429.9489374007
 30
0.0
 10
126.9227438339
 20
429.9063960793
 30
0.0
 10
126.4677158951
 20
429.8458208168
 30
0.0
 10
126.2444731975
 20
429.8458208168
 30
0.0
 11
127.6135525885
 21
429.9489374007
 31
0.0
 11
126.9119551345
 21
429.900625761
 31
0.0
 11
126.2444731975
 21
429.8458208168
 31
0.0
  0
SPLINE
  5
50F
100
AcDbEntity
  8
DEFAULT_2
100
AcDbSpline
 62
8
  6
HIDDEN
 70
0
 71
3
 72
9
 73
5
 74
3
 42
0.0000001
 43
0.0000001
 44
0.0000000001
 12
-1.3729869375
 22
0.0
 32
0.0
 13
-1.3729869375
 23
-0.0
 33
0.0
 40
0.0
 40
0.0
 40
0.0
 40
0.0
 40
0.4877892737
 40
1.0
 40
1.0
 40
1.0
 40
1.0
 10
128.9826319794
 20
429.8458208168
 30
0.0
 10
128.7593892124
 20
429.8458208168
 30
0.0
 10
128.3043612812
 20
429.906396179
 30
0.0
 10
127.8479721339
 20
429.9489374007
 30
0.0
 10
127.6135525885
 20
429.9489374007
 30
0.0
 11
128.9826319794
 21
429.8458208168
 31
0.0
 11
128.3151498387
 21
429.9006258266
 31
0.0
 11
127.6135525885
 21
429.9489374007
 31
0.0
  0
SPLINE
  5
510
100
AcDbEntity
  8
DEFAULT_2
100
AcDbSpline
 62
8
  6
HIDDEN
 70
0
 71
3
 72
8
 73
4
 74
2
 42
0.0000001
 43
0.0000001
 44
0.0000000001
 12
-0.3649911581
 22
-20.4999649201
 32
0.0
 13
-0.3612484396
 23
-20.5000312155
 33
0.0
 40
0.0
 40
0.0
 40
0.0
 40
0.0
 40
1.0
 40
1.0
 40
1.0
 40
1.0
 10
125.3444291995
 20
450.3458208168
 30
0.0
 10
125.2227654802
 20
443.5124991767
 30
0.0
 10
125.101829821
 20
436.6791645553
 30
0.0
 10
124.9814136744
 20
429.8458208168
 30
0.0
 11
125.3444291995
 21
450.3458208168
 31
0.0
 11
124.9814136744
 21
429.8458208168
 31
0.0
  0
SPLINE
  5
511
100
AcDbEntity
  8
DEFAULT_2
100
AcDbSpline
 62
8
  6
HIDDEN
 70
0
 71
3
 72
9
 73
5
 74
3
 42
0.0000001
 43
0.0000001
 44
0.0000000001
 12
1.3729869375
 22
0.0
 32
0.0
 13
1.3729869375
 23
0.0
 33
0.0
 40
0.0
 40
0.0
 40
0.0
 40
0.0
 40
0.4877892737
 40
1.0
 40
1.0
 40
1.0
 40
1.0
 10
164.2444731975
 20
429.8458208168
 30
0.0
 10
164.4677159646
 20
429.8458208168
 30
0.0
 10
164.9227438957
 20
429.906396179
 30
0.0
 10
165.379133043
 20
429.9489374007
 30
0.0
 10
165.6135525885
 20
429.9489374007
 30
0.0
 11
164.2444731975
 21
429.8458208168
 31
0.0
 11
164.9119553382
 21
429.9006258266
 31
0.0
 11
165.6135525885
 21
429.9489374007
 31
0.0
  0
SPLINE
  5
512
100
AcDbEntity
  8
DEFAULT_2
100
AcDbSpline
 62
8
  6
HIDDEN
 70
0
 71
3
 72
9
 73
5
 74
3
 42
0.0000001
 43
0.0000001
 44
0.0000000001
 12
1.3729869368
 22
0.0
 32
0.0
 13
1.3729869368
 23
-0.0
 33
0.0
 40
0.0
 40
0.0
 40
0.0
 40
0.0
 40
0.5122108778
 40
1.0
 40
1.0
 40
1.0
 40
1.0
 10
165.6135525885
 20
429.9489374007
 30
0.0
 10
165.8479722032
 20
429.9489374007
 30
0.0
 10
166.304361343
 20
429.9063960793
 30
0.0
 10
166.7593892818
 20
429.8458208168
 30
0.0
 10
166.9826319794
 20
429.8458208168
 30
0.0
 11
165.6135525885
 21
429.9489374007
 31
0.0
 11
166.3151500424
 21
429.900625761
 31
0.0
 11
166.9826319794
 21
429.8458208168
 31
0.0
  0
SPLINE
  5
513
100
AcDbEntity
  8
DEFAULT_2
100
AcDbSpline
 62
8
  6
HIDDEN
 70
0
 71
3
 72
8
 73
4
 74
2
 42
0.0000001
 43
0.0000001
 44
0.0000000001
 12
-0.108244016
 22
20.5000094094
 32
0.0
 13
-0.1119878011
 23
20.4999892996
 33
0.0
 40
0.0
 40
0.0
 40
0.0
 40
0.0
 40
1.0
 40
1.0
 40
1.0
 40
1.0
 10
167.4623574935
 20
429.8458208168
 30
0.0
 10
167.4262761548
 20
436.6791572866
 30
0.0
 10
167.3896751585
 20
443.5124910502
 30
0.0
 10
167.3523458915
 20
450.3458208168
 30
0.0
 11
167.4623574935
 21
429.8458208168
 31
0.0
 11
167.3523458915
 21
450.3458208168
 31
0.0
  0
SPLINE
  5
514
100
AcDbEntity
  8
DEFAULT_2
100
AcDbSpline
 62
8
  6
HIDDEN
 70
0
 71
3
 72
8
 73
4
 74
2
 42
0.0000001
 43
0.0000001
 44
0.0000000001
 12
0.3649911581
 22
-20.4999649201
 32
0.0
 13
0.3612484396
 23
-20.5000312155
 33
0.0
 40
0.0
 40
0.0
 40
0.0
 40
0.0
 40
1.0
 40
1.0
 40
1.0
 40
1.0
 10
167.8826759774
 20
450.3458208168
 30
0.0
 10
168.0043396968
 20
443.5124991767
 30
0.0
 10
168.125275356
 20
436.6791645553
 30
0.0
 10
168.2456915025
 20
429.8458208168
 30
0.0
 11
167.8826759774
 21
450.3458208168
 31
0.0
 11
168.2456915025
 21
429.8458208168
 31
0.0
  0
SPLINE
  5
515
100
AcDbEntity
  8
DEFAULT_2
100
AcDbSpline
 62
8
  6
HIDDEN
 70
0
 71
3
 72
21
 73
17
 74
15
 42
0.0000001
 43
0.0000001
 44
0.0000000001
 12
0.0958832722
 22
-3.4999178723
 32
0.0
 13
3.500845257
 23
0.0785355207
 33
0.0
 40
0.0
 40
0.0
 40
0.0
 40
0.0
 40
0.0016347304
 40
0.0054122481
 40
0.0115156598
 40
0.0199670636
 40
0.0438891721
 40
0.0769791111
 40
0.1189360139
 40
0.1693679771
 40
0.2277797195
 40
0.2936289427
 40
0.4450169787
 40
0.6177017773
 40
0.8051231776
 40
1.0
 40
1.0
 40
1.0
 40
1.0
 10
122.191699368
 20
430.7672860914
 30
0.0
 10
122.1917516158
 20
430.7653789507
 30
0.0
 10
122.1990987985
 20
430.7620072947
 30
0.0
 10
122.210911341
 20
430.7593918128
 30
0.0
 10
122.232785651
 20
430.7560201103
 30
0.0
 10
122.2770633768
 20
430.7516370077
 30
0.0
 10
122.3536640817
 20
430.7469643011
 30
0.0
 10
122.4689561656
 20
430.7426141466
 30
0.0
 10
122.6154399924
 20
430.739126635
 30
0.0
 10
122.7914241086
 20
430.7366098104
 30
0.0
 10
122.995335466
 20
430.7350965569
 30
0.0
 10
123.3170822886
 20
430.7344429917
 30
0.0
 10
123.7722171691
 20
430.736542285
 30
0.0
 10
124.3692224865
 20
430.742935221
 30
0.0
 10
125.0169440551
 20
430.7531509374
 30
0.0
 10
125.4630887027
 20
430.7621883876
 30
0.0
 10
125.6904999025
 20
430.7672899718
 30
0.0
 11
122.191699368
 21
430.7672860914
 31
0.0
 11
122.1960261483
 21
430.7635376333
 31
0.0
 11
122.2087672772
 21
430.7599824708
 31
0.0
 11
122.2298753616
 21
430.756631129
 31
0.0
 11
122.259303034
 21
430.753493203
 31
0.0
 11
122.3428843639
 21
430.7478939642
 31
0.0
 11
122.4586627523
 21
430.7432396845
 31
0.0
 11
122.6055385892
 21
430.7395737616
 31
0.0
 11
122.782117727
 21
430.7369305693
 31
0.0
 11
122.9866534139
 21
430.7353337298
 31
0.0
 11
123.2172387378
 21
430.7348005945
 31
0.0
 11
123.7473538875
 21
430.7369307733
 31
0.0
 11
124.3520158268
 21
430.7432403293
 31
0.0
 11
125.0082341155
 21
430.7534944852
 31
0.0
 11
125.6904999025
 21
430.7672899718
 31
0.0
  0
SPLINE
  5
516
100
AcDbEntity
  8
DEFAULT_2
100
AcDbSpline
 62
8
  6
HIDDEN
 70
0
 71
3
 72
9
 73
5
 74
3
 42
0.0000001
 43
0.0000001
 44
0.0000000001
 12
0.6817462825
 22
20.0101787444
 32
0.0
 13
0.5408978925
 23
20.0144812785
 33
0.0
 40
0.0
 40
0.0
 40
0.0
 40
0.0
 40
0.4999863683
 40
1.0
 40
1.0
 40
1.0
 40
1.0
 10
168.2381377856
 20
430.3327323426
 30
0.0
 10
168.3517590682
 20
433.6676712091
 30
0.0
 10
168.55252518
 20
440.3386179393
 30
0.0
 10
168.7373335517
 20
447.0099829932
 30
0.0
 10
168.8274856583
 20
450.3458208168
 30
0.0
 11
168.2381377856
 21
430.3327323426
 31
0.0
 11
168.548530489
 21
440.3385406418
 31
0.0
 11
168.8274856583
 21
450.3458208168
 31
0.0
  0
SPLINE
  5
517
100
AcDbEntity
  8
DEFAULT_2
100
AcDbSpline
 62
8
  6
HIDDEN
 70
0
 71
3
 72
9
 73
5
 74
3
 42
0.0000001
 43
0.0000001
 44
0.0000000001
 12
-0.6817462825
 22
20.0101787444
 32
0.0
 13
-0.5408978925
 23
20.0144812785
 33
0.0
 40
0.0
 40
0.0
 40
0.0
 40
0.0
 40
0.4999863683
 40
1.0
 40
1.0
 40
1.0
 40
1.0
 10
124.9889673914
 20
430.3327323426
 30
0.0
 10
124.8753461087
 20
433.6676712091
 30
0.0
 10
124.6745799969
 20
440.3386179393
 30
0.0
 10
124.4897716252
 20
447.0099829932
 30
0.0
 10
124.3996195187
 20
450.3458208168
 30
0.0
 11
124.9889673914
 21
430.3327323426
 31
0.0
 11
124.678574688
 21
440.3385406418
 31
0.0
 11
124.3996195187
 21
450.3458208168
 31
0.0
  0
SPLINE
  5
518
100
AcDbEntity
  8
DEFAULT_2
100
AcDbSpline
 62
8
  6
HIDDEN
 70
0
 71
3
 72
9
 73
5
 74
3
 42
0.0000001
 43
0.0000001
 44
0.0000000001
 12
0.2938773
 22
-20.0138837532
 32
0.0
 13
0.4348123167
 23
-20.0113179227
 33
0.0
 40
0.0
 40
0.0
 40
0.0
 40
0.0
 40
0.5000233214
 40
1.0
 40
1.0
 40
1.0
 40
1.0
 10
123.8692894328
 20
450.3458208168
 30
0.0
 10
123.9182712673
 20
447.0100179407
 30
0.0
 10
124.0207421316
 20
440.3387964592
 30
0.0
 10
124.139177337
 20
433.6677964324
 30
0.0
 10
124.2116426763
 20
430.3327323426
 30
0.0
 11
123.8692894328
 21
450.3458208168
 31
0.0
 11
124.0247383687
 21
440.3385406636
 31
0.0
 11
124.2116426763
 21
430.3327323426
 31
0.0
  0
SPLINE
  5
519
100
AcDbEntity
  8
DEFAULT_2
100
AcDbSpline
 62
8
  6
HIDDEN
 70
0
 71
3
 72
9
 73
5
 74
3
 42
0.0000001
 43
0.0000001
 44
0.0000000001
 12
0.0119076579
 22
-0.3495059221
 32
0.0
 13
0.23645029
 23
-0.2576576066
 33
0.0
 40
0.0
 40
0.0
 40
0.0
 40
0.0
 40
0.2681887444
 40
1.0
 40
1.0
 40
1.0
 40
1.0
 10
124.9889673914
 20
430.3327323426
 30
0.0
 10
124.9900318913
 20
430.3014878245
 30
0.0
 10
125.0033733401
 20
430.1856623387
 30
0.0
 10
125.0558735939
 20
430.0730965111
 30
0.0
 10
125.1135525885
 20
430.0102442656
 30
0.0
 11
124.9889673914
 21
430.3327323426
 31
0.0
 11
125.0000044491
 21
430.2395960929
 31
0.0
 11
125.1135525885
 21
430.0102442656
 31
0.0
  0
SPLINE
  5
51A
100
AcDbEntity
  8
DEFAULT_2
100
AcDbSpline
 62
8
  6
HIDDEN
 70
0
 71
3
 72
9
 73
5
 74
3
 42
0.0000001
 43
0.0000001
 44
0.0000000001
 12
0.0075979899
 22
-0.3496814258
 32
0.0
 13
0.2347451681
 23
-0.2592865887
 33
0.0
 40
0.0
 40
0.0
 40
0.0
 40
0.0
 40
0.5253609695
 40
1.0
 40
1.0
 40
1.0
 40
1.0
 10
124.2116426763
 20
430.3327323426
 30
0.0
 10
124.2129732387
 20
430.2714960183
 30
0.0
 10
124.2343551893
 20
430.1543292088
 30
0.0
 10
124.2951080972
 20
430.0512667773
 30
0.0
 10
124.3322478369
 20
430.0102442656
 30
0.0
 11
124.2116426763
 21
430.3327323426
 31
0.0
 11
124.2463062709
 21
430.1522791479
 31
0.0
 11
124.3322478369
 21
430.0102442656
 31
0.0
  0
SPLINE
  5
51B
100
AcDbEntity
  8
DEFAULT_2
100
AcDbSpline
 62
8
  6
HIDDEN
 70
0
 71
3
 72
9
 73
5
 74
3
 42
0.0000001
 43
0.0000001
 44
0.0000000001
 12
0.2365016756
 22
0.2577136009
 32
0.0
 13
0.0119102457
 23
0.349581877
 33
0.0
 40
0.0
 40
0.0
 40
0.0
 40
0.0
 40
0.2319562204
 40
1.0
 40
1.0
 40
1.0
 40
1.0
 10
168.1135525885
 20
430.0102442656
 30
0.0
 10
168.1318386001
 20
430.0301703565
 30
0.0
 10
168.2023088305
 20
430.123672328
 30
0.0
 10
168.2350885889
 20
430.2432342806
 30
0.0
 10
168.2381377856
 20
430.3327323426
 30
0.0
 11
168.1135525885
 21
430.0102442656
 31
0.0
 11
168.1625027303
 21
430.0749492075
 31
0.0
 11
168.2381377856
 21
430.3327323426
 31
0.0
  0
SPLINE
  5
51C
100
AcDbEntity
  8
DEFAULT_2
100
AcDbSpline
 62
8
  6
HIDDEN
 70
0
 71
3
 72
9
 73
5
 74
3
 42
0.0000001
 43
0.0000001
 44
0.0000000001
 12
0.086117938
 22
0.1928156152
 32
0.0
 13
0.0045873581
 23
0.2111234636
 33
0.0
 40
0.0
 40
0.0
 40
0.0
 40
0.0
 40
0.2420531599
 40
1.0
 40
1.0
 40
1.0
 40
1.0
 10
168.9704286596
 20
430.1272174922
 30
0.0
 10
168.9773770326
 20
430.1427747019
 30
0.0
 10
169.0026946707
 20
430.208527204
 30
0.0
 10
169.0143035094
 20
430.2793922219
 30
0.0
 10
169.0154625006
 20
430.3327323426
 30
0.0
 11
168.9704286596
 21
430.1272174922
 31
0.0
 11
168.9888302663
 21
430.1749054446
 31
0.0
 11
169.0154625006
 21
430.3327323426
 31
0.0
  0
SPLINE
  5
51D
100
AcDbEntity
  8
DEFAULT_2
100
AcDbSpline
 62
8
  6
HIDDEN
 70
0
 71
3
 72
8
 73
4
 74
2
 42
0.0000001
 43
0.0000001
 44
0.0000000001
 12
0.108244016
 22
20.5000094094
 32
0.0
 13
0.1119878011
 23
20.4999892996
 33
0.0
 40
0.0
 40
0.0
 40
0.0
 40
0.0
 40
1.0
 40
1.0
 40
1.0
 40
1.0
 10
125.7647476835
 20
429.8458208168
 30
0.0
 10
125.8008290221
 20
436.6791572866
 30
0.0
 10
125.8374300184
 20
443.5124910502
 30
0.0
 10
125.8747592854
 20
450.3458208168
 30
0.0
 11
125.7647476835
 21
429.8458208168
 31
0.0
 11
125.8747592854
 21
450.3458208168
 31
0.0
  0
LINE
  5
51E
100
AcDbEntity
  8
DEFAULT_2
100
AcDbLine
 62
8
  6
HIDDEN
 10
162.4856563563
 20
429.8458208168
 11
162.5272260616
 21
432.8458208168
  0
LINE
  5
51F
100
AcDbEntity
  8
DEFAULT_2
100
AcDbLine
 62
8
  6
HIDDEN
 10
130.6998791154
 20
432.8458208168
 11
130.7414488207
 21
429.8458208168
  0
SPLINE
  5
520
100
AcDbEntity
  8
DEFAULT_2
100
AcDbSpline
 62
8
  6
HIDDEN
 70
0
 71
3
 72
9
 73
5
 74
3
 42
0.0000001
 43
0.0000001
 44
0.0000000001
 12
-0.2938773
 22
-20.0138837532
 32
0.0
 13
-0.4348123167
 23
-20.0113179227
 33
0.0
 40
0.0
 40
0.0
 40
0.0
 40
0.0
 40
0.5000233214
 40
1.0
 40
1.0
 40
1.0
 40
1.0
 10
169.3578157442
 20
450.3458208168
 30
0.0
 10
169.3088339096
 20
447.0100179407
 30
0.0
 10
169.2063630453
 20
440.3387964592
 30
0.0
 10
169.0879278399
 20
433.6677964324
 30
0.0
 10
169.0154625006
 20
430.3327323426
 30
0.0
 11
169.3578157442
 21
450.3458208168
 31
0.0
 11
169.2023668082
 21
440.3385406636
 31
0.0
 11
169.0154625006
 21
430.3327323426
 31
0.0
  0
SPLINE
  5
521
100
AcDbEntity
  8
0
100
AcDbSpline
 62
7
  6
CONTINUOUS
 70
0
 71
3
 72
21
 73
17
 74
15
 42
0.0000001
 43
0.0000001
 44
0.0000000001
 12
-3.5008455669
 22
-0.0785471171
 32
0.0
 13
-0.0955049998
 23
3.5004239927
 33
0.0
 40
0.0
 40
0.0
 40
0.0
 40
0.0
 40
0.1948755922
 40
0.3822959424
 40
0.5549797787
 40
0.7063673111
 40
0.7722164485
 40
0.8306282769
 40
0.8810604247
 40
0.9230176721
 40
0.9561080286
 40
0.9800309231
 40
0.9884828322
 40
0.9945867424
 40
0.9983646995
 40
1.0
 40
1.0
 40
1.0
 40
1.0
 10
125.6904999029
 20
430.7672899718
 30
0.0
 10
125.4630901185
 20
430.7621876665
 30
0.0
 10
125.0169479664
 20
430.75315481
 30
0.0
 10
124.3692301412
 20
430.7429357635
 30
0.0
 10
123.7722276595
 20
430.73654233
 30
0.0
 10
123.3170945179
 20
430.7344436768
 30
0.0
 10
122.9953482288
 20
430.7350961353
 30
0.0
 10
122.7914366184
 20
430.7366086175
 30
0.0
 10
122.6154517423
 20
430.7391249368
 30
0.0
 10
122.4689667999
 20
430.7426125561
 30
0.0
 10
122.3536728785
 20
430.7469634464
 30
0.0
 10
122.2770702528
 20
430.7516363707
 30
0.0
 10
122.2327903311
 20
430.756019368
 30
0.0
 10
122.2109143748
 20
430.7593906359
 30
0.0
 10
122.1990999601
 20
430.7620065946
 30
0.0
 10
122.1917514268
 20
430.7653780097
 30
0.0
 10
122.191699367
 20
430.7672860914
 30
0.0
 11
125.6904999029
 21
430.7672899718
 31
0.0
 11
125.0082382695
 21
430.7534966608
 31
0.0
 11
124.3520235709
 21
430.7432412751
 31
0.0
 11
123.7473649103
 21
430.7369310418
 31
0.0
 11
123.2172514379
 21
430.7348008232
 31
0.0
 11
122.9866663751
 21
430.735333263
 31
0.0
 11
122.782130348
 21
430.7369293719
 31
0.0
 11
122.6055505291
 21
430.7395721442
 31
0.0
 11
122.4586734651
 21
430.7432382432
 31
0.0
 11
122.342893616
 21
430.7478930559
 31
0.0
 11
122.2593095251
 21
430.7534924602
 31
0.0
 11
122.2298800527
 21
430.7566302381
 31
0.0
 11
122.2087701712
 21
430.759981415
 31
0.0
 11
122.1960274272
 21
430.7635365223
 31
0.0
 11
122.191699367
 21
430.7672860914
 31
0.0
  0
SPLINE
  5
522
100
AcDbEntity
  8
0
100
AcDbSpline
 62
7
  6
CONTINUOUS
 70
0
 71
3
 72
21
 73
17
 74
15
 42
0.0000001
 43
0.0000001
 44
0.0000000001
 12
-0.0957319366
 22
-3.5004174386
 32
0.0
 13
-3.5008452467
 23
0.0785455698
 33
0.0
 40
0.0
 40
0.0
 40
0.0
 40
0.0
 40
0.0016353557
 40
0.0054134202
 40
0.0115174683
 40
0.0199695261
 40
0.0438927213
 40
0.0769833686
 40
0.1189407935
 40
0.1693731292
 40
0.2277850592
 40
0.2936342654
 40
0.4450217769
 40
0.617705392
 40
0.805125008
 40
1.0
 40
1.0
 40
1.0
 40
1.0
 10
171.0354058039
 20
430.7672858617
 30
0.0
 10
171.0353536186
 20
430.7653777192
 30
0.0
 10
171.0280047293
 20
430.7620066123
 30
0.0
 10
171.0161899325
 20
430.7593908745
 30
0.0
 10
170.9943134337
 20
430.7560200812
 30
0.0
 10
170.9500327851
 20
430.7516376065
 30
0.0
 10
170.8734293114
 20
430.7469646797
 30
0.0
 10
170.7581345185
 20
430.7426133175
 30
0.0
 10
170.6116488306
 20
430.739125433
 30
0.0
 10
170.4356634251
 20
430.7366092121
 30
0.0
 10
170.231751419
 20
430.7350966261
 30
0.0
 10
169.9100049897
 20
430.734443403
 30
0.0
 10
169.4548720924
 20
430.7365416863
 30
0.0
 10
168.8578708112
 20
430.7429349697
 30
0.0
 10
168.210154849
 20
430.753153079
 30
0.0
 10
167.7640143376
 20
430.7621877827
 30
0.0
 10
167.5366052745
 20
430.7672899718
 30
0.0
 11
171.0354058039
 21
430.7672858617
 31
0.0
 11
171.031077402
 21
430.7635363928
 31
0.0
 11
171.0183341781
 21
430.759981611
 31
0.0
 11
170.9972237438
 21
430.7566308507
 31
0.0
 11
170.9677937108
 21
430.7534934462
 31
0.0
 11
170.8842085602
 21
430.7478942334
 31
0.0
 11
170.7684277175
 21
430.7432390775
 31
0.0
 11
170.6215500535
 21
430.7395727092
 31
0.0
 11
170.4449695944
 21
430.7369299304
 31
0.0
 11
170.2404332334
 21
430.7353336978
 31
0.0
 11
170.009847954
 21
430.734800823
 31
0.0
 11
169.4797346063
 21
430.7369304675
 31
0.0
 11
168.8750767783
 21
430.7432403785
 31
0.0
 11
168.2188647138
 21
430.7534955394
 31
0.0
 11
167.5366052745
 21
430.7672899718
 31
0.0
  0
SPLINE
  5
523
100
AcDbEntity
  8
DEFAULT_2
100
AcDbSpline
 62
8
  6
HIDDEN
 70
0
 71
3
 72
11
 73
7
 74
5
 42
0.0000001
 43
0.0000001
 44
0.0000000001
 12
-1.2011208499
 22
2.5535676469
 32
0.0
 13
1.2011208499
 23
2.5535676469
 33
0.0
 40
0.0
 40
0.0
 40
0.0
 40
0.0
 40
0.2499450411
 40
0.500000294
 40
0.7500555784
 40
1.0
 40
1.0
 40
1.0
 40
1.0
 10
124.70290722
 20
247.3957264741
 30
0.0
 10
124.6028358199
 20
247.6084769976
 30
0.0
 10
124.4495263417
 20
248.0579832357
 30
0.0
 10
124.373621352
 20
248.7648067104
 30
0.0
 10
124.4495279361
 20
249.4716291933
 30
0.0
 10
124.602836068
 20
249.9211352598
 30
0.0
 10
124.70290722
 20
250.1338852559
 30
0.0
 11
124.70290722
 21
247.3957264741
 31
0.0
 11
124.4752262841
 21
248.0633004585
 31
0.0
 11
124.3989270097
 21
248.7648066128
 31
0.0
 11
124.4752274133
 21
249.4663127335
 31
0.0
 11
124.70290722
 21
250.1338852559
 31
0.0
  0
SPLINE
  5
524
100
AcDbEntity
  8
DEFAULT_2
100
AcDbSpline
 62
8
  6
HIDDEN
 70
0
 71
3
 72
9
 73
5
 74
3
 42
0.0000001
 43
0.0000001
 44
0.0000000001
 12
0.1088764673
 22
0.3633587657
 32
0.0
 13
0.1112646251
 23
0.3626346108
 33
0.0
 40
0.0
 40
0.0
 40
0.0
 40
0.0
 40
0.2480353472
 40
1.0
 40
1.0
 40
1.0
 40
1.0
 10
125.7647476835
 20
246.132666951
 30
0.0
 10
125.7737494209
 20
246.1627088902
 30
0.0
 10
125.8096836871
 20
246.2839357115
 30
0.0
 10
125.8468702637
 20
246.4047863397
 30
0.0
 10
125.8747592854
 20
246.4956824761
 30
0.0
 11
125.7647476835
 21
246.132666951
 31
0.0
 11
125.7916524013
 21
246.2228228196
 31
0.0
 11
125.8747592854
 21
246.4956824761
 31
0.0
  0
SPLINE
  5
525
100
AcDbEntity
  8
DEFAULT_2
100
AcDbSpline
 62
8
  6
HIDDEN
 70
0
 71
3
 72
9
 73
5
 74
3
 42
0.0000001
 43
0.0000001
 44
0.0000000001
 12
-0.3626345659
 22
-0.1112646113
 32
0.0
 13
-0.3633587208
 23
-0.1088764538
 33
0.0
 40
0.0
 40
0.0
 40
0.0
 40
0.0
 40
0.2519361658
 40
1.0
 40
1.0
 40
1.0
 40
1.0
 10
125.3444291995
 20
247.026012562
 30
0.0
 10
125.3139756122
 20
247.0166687021
 30
0.0
 10
125.1931800267
 20
246.9793107216
 30
0.0
 10
125.0720188471
 20
246.9431498058
 30
0.0
 10
124.9814136744
 20
246.91600096
 30
0.0
 11
125.3444291995
 21
247.026012562
 31
0.0
 11
125.2530868539
 21
246.9979210292
 31
0.0
 11
124.9814136744
 21
246.91600096
 31
0.0
  0
SPLINE
  5
526
100
AcDbEntity
  8
DEFAULT_2
100
AcDbSpline
 62
8
  6
HIDDEN
 70
0
 71
3
 72
9
 73
5
 74
3
 42
0.0000001
 43
0.0000001
 44
0.0000000001
 12
-0.1088764673
 22
-0.3633587657
 32
0.0
 13
-0.1112646251
 23
-0.3626346108
 33
0.0
 40
0.0
 40
0.0
 40
0.0
 40
0.0
 40
0.2480353472
 40
1.0
 40
1.0
 40
1.0
 40
1.0
 10
167.4623574935
 20
274.396944779
 30
0.0
 10
167.453355756
 20
274.3669028398
 30
0.0
 10
167.4174214898
 20
274.2456760186
 30
0.0
 10
167.3802349132
 20
274.1248253903
 30
0.0
 10
167.3523458915
 20
274.0339292539
 30
0.0
 11
167.4623574935
 21
274.396944779
 31
0.0
 11
167.4354527756
 21
274.3067889104
 31
0.0
 11
167.3523458915
 21
274.0339292539
 31
0.0
  0
SPLINE
  5
527
100
AcDbEntity
  8
DEFAULT_2
100
AcDbSpline
 62
8
  6
HIDDEN
 70
0
 71
3
 72
9
 73
5
 74
3
 42
0.0000001
 43
0.0000001
 44
0.0000000001
 12
0.3626345659
 22
0.1112646113
 32
0.0
 13
0.3633587208
 23
0.1088764538
 33
0.0
 40
0.0
 40
0.0
 40
0.0
 40
0.0
 40
0.2519361658
 40
1.0
 40
1.0
 40
1.0
 40
1.0
 10
167.8826759774
 20
273.503599168
 30
0.0
 10
167.9131295648
 20
273.5129430279
 30
0.0
 10
168.0339251502
 20
273.5503010084
 30
0.0
 10
168.1550863299
 20
273.5864619242
 30
0.0
 10
168.2456915025
 20
273.61361077
 30
0.0
 11
167.8826759774
 21
273.503599168
 31
0.0
 11
167.974018323
 21
273.5316907008
 31
0.0
 11
168.2456915025
 21
273.61361077
 31
0.0
  0
SPLINE
  5
528
100
AcDbEntity
  8
DEFAULT_2
100
AcDbSpline
 62
8
  6
HIDDEN
 70
0
 71
3
 72
9
 73
5
 74
3
 42
0.0000001
 43
0.0000001
 44
0.0000000001
 12
1.1938458545
 22
-2.5381010992
 32
0.0
 13
-1.1938458545
 23
-2.5381010992
 33
0.0
 40
0.0
 40
0.0
 40
0.0
 40
0.0
 40
0.49999999
 40
1.0
 40
1.0
 40
1.0
 40
1.0
 10
168.5241979569
 20
273.1338852559
 30
0.0
 10
168.723172262
 20
272.7108684145
 30
0.0
 10
168.9332627911
 20
271.7648058762
 30
0.0
 10
168.72317227
 20
270.8187433324
 30
0.0
 10
168.5241979569
 20
270.3957264741
 30
0.0
 11
168.5241979569
 21
273.1338852559
 31
0.0
 11
168.8282175285
 21
271.7648058938
 31
0.0
 11
168.5241979569
 21
270.3957264741
 31
0.0
  0
SPLINE
  5
529
100
AcDbEntity
  8
DEFAULT_2
100
AcDbSpline
 62
8
  6
HIDDEN
 70
0
 71
3
 72
9
 73
5
 74
3
 42
0.0000001
 43
0.0000001
 44
0.0000000001
 12
0.5747308529
 22
0.3665378661
 32
0.0
 13
0.5989637812
 23
0.3254350155
 33
0.0
 40
0.0
 40
0.0
 40
0.0
 40
0.0
 40
0.2781839497
 40
1.0
 40
1.0
 40
1.0
 40
1.0
 10
168.2381377856
 20
275.1667157772
 30
0.0
 10
168.2914314185
 20
275.2007040943
 30
0.0
 10
168.4849869641
 20
275.3197867802
 30
0.0
 10
168.683371768
 20
275.4307676149
 30
0.0
 10
168.8274856583
 20
275.5090690207
 30
0.0
 11
168.2381377856
 21
275.1667157772
 31
0.0
 11
168.3994932293
 21
275.2663309057
 31
0.0
 11
168.8274856583
 21
275.5090690207
 31
0.0
  0
SPLINE
  5
52A
100
AcDbEntity
  8
DEFAULT_2
100
AcDbSpline
 62
8
  6
HIDDEN
 70
0
 71
3
 72
9
 73
5
 74
3
 42
0.0000001
 43
0.0000001
 44
0.0000000001
 12
-0.325417246
 22
-0.5989310764
 32
0.0
 13
-0.3665178523
 23
-0.5746994712
 33
0.0
 40
0.0
 40
0.0
 40
0.0
 40
0.0
 40
0.2294945766
 40
1.0
 40
1.0
 40
1.0
 40
1.0
 10
169.3578157442
 20
274.9787389348
 30
0.0
 10
169.3329219131
 20
274.9329217902
 30
0.0
 10
169.2235428792
 20
274.7337923445
 30
0.0
 10
169.1095971649
 20
274.5369940819
 30
0.0
 10
169.0154625006
 20
274.3893910621
 30
0.0
 11
169.3578157442
 21
274.9787389348
 31
0.0
 11
169.2824776062
 21
274.8416463128
 31
0.0
 11
169.0154625006
 21
274.3893910621
 31
0.0
  0
SPLINE
  5
52B
100
AcDbEntity
  8
DEFAULT_2
100
AcDbSpline
 62
8
  6
HIDDEN
 70
0
 71
3
 72
11
 73
7
 74
5
 42
0.0000001
 43
0.0000001
 44
0.0000000001
 12
0.1217883905
 22
0.1234485992
 32
0.0
 13
0.0932458549
 23
0.1462093679
 33
0.0
 40
0.0
 40
0.0
 40
0.0
 40
0.0
 40
0.3959381822
 40
0.7080358794
 40
0.9145571231
 40
1.0
 40
1.0
 40
1.0
 40
1.0
 10
168.89485734
 20
274.264805865
 30
0.0
 10
168.910930898
 20
274.2810985363
 30
0.0
 10
168.9395122854
 20
274.310357394
 30
0.0
 10
168.9768859182
 20
274.3478689933
 30
0.0
 10
169.0002724563
 20
274.3736057888
 30
0.0
 10
169.0128067693
 20
274.3852268791
 30
0.0
 10
169.0154625006
 20
274.3893910621
 30
0.0
 11
168.89485734
 21
274.264805865
 31
0.0
 11
168.943006979
 21
274.313753857
 31
0.0
 11
168.9807965609
 21
274.3524979763
 31
0.0
 11
169.0055758805
 21
274.3783549983
 31
0.0
 11
169.0154625006
 21
274.3893910621
 31
0.0
  0
SPLINE
  5
52C
100
AcDbEntity
  8
DEFAULT_2
100
AcDbSpline
 62
8
  6
HIDDEN
 70
0
 71
3
 72
9
 73
5
 74
3
 42
0.0000001
 43
0.0000001
 44
0.0000000001
 12
-0.5747308529
 22
-0.3665378661
 32
0.0
 13
-0.5989637812
 23
-0.3254350155
 33
0.0
 40
0.0
 40
0.0
 40
0.0
 40
0.0
 40
0.2781839497
 40
1.0
 40
1.0
 40
1.0
 40
1.0
 10
124.9889673914
 20
245.3628959528
 30
0.0
 10
124.9356737585
 20
245.3289076357
 30
0.0
 10
124.7421182128
 20
245.2098249499
 30
0.0
 10
124.5437334089
 20
245.0988441151
 30
0.0
 10
124.3996195187
 20
245.0205427093
 30
0.0
 11
124.9889673914
 21
245.3628959528
 31
0.0
 11
124.8276119476
 21
245.2632808243
 31
0.0
 11
124.3996195187
 21
245.0205427093
 31
0.0
  0
SPLINE
  5
52D
100
AcDbEntity
  8
DEFAULT_2
100
AcDbSpline
 62
8
  6
HIDDEN
 70
0
 71
3
 72
9
 73
5
 74
3
 42
0.0000001
 43
0.0000001
 44
0.0000000001
 12
0.325417246
 22
0.5989310764
 32
0.0
 13
0.3665178523
 23
0.5746994712
 33
0.0
 40
0.0
 40
0.0
 40
0.0
 40
0.0
 40
0.2294945766
 40
1.0
 40
1.0
 40
1.0
 40
1.0
 10
123.8692894328
 20
245.5508727952
 30
0.0
 10
123.8941832638
 20
245.5966899398
 30
0.0
 10
124.0035622977
 20
245.7958193855
 30
0.0
 10
124.117508012
 20
245.9926176481
 30
0.0
 10
124.2116426763
 20
246.1402206679
 30
0.0
 11
123.8692894328
 21
245.5508727952
 31
0.0
 11
123.9446275708
 21
245.6879654172
 31
0.0
 11
124.2116426763
 21
246.1402206679
 31
0.0
  0
SPLINE
  5
52E
100
AcDbEntity
  8
DEFAULT_2
100
AcDbSpline
 62
8
  6
HIDDEN
 70
0
 71
3
 72
11
 73
7
 74
5
 42
0.0000001
 43
0.0000001
 44
0.0000000001
 12
0.1462093667
 22
0.0932458541
 32
0.0
 13
0.1234485982
 23
0.1217883895
 33
0.0
 40
0.0
 40
0.0
 40
0.0
 40
0.0
 40
0.0854509255
 40
0.2919696591
 40
0.604061231
 40
1.0
 40
1.0
 40
1.0
 40
1.0
 10
124.9889673914
 20
245.3628959528
 30
0.0
 10
124.9931319666
 20
245.3655519344
 30
0.0
 10
125.0047531679
 20
245.3780866106
 30
0.0
 10
125.0304900293
 20
245.4014730307
 30
0.0
 10
125.0680012623
 20
245.4388463711
 30
0.0
 10
125.0972598931
 20
245.4674275318
 30
0.0
 10
125.1135525885
 20
245.4835011134
 30
0.0
 11
124.9889673914
 21
245.3628959528
 31
0.0
 11
125.0000044491
 21
245.3727835551
 31
0.0
 11
125.0258611698
 21
245.3975625595
 31
0.0
 11
125.0646045318
 21
245.435351396
 31
0.0
 11
125.1135525885
 21
245.4835011134
 31
0.0
  0
SPLINE
  5
52F
100
AcDbEntity
  8
DEFAULT_2
100
AcDbSpline
 62
8
  6
HIDDEN
 70
0
 71
3
 72
11
 73
7
 74
5
 42
0.0000001
 43
0.0000001
 44
0.0000000001
 12
0.0932458529
 22
0.1462093648
 32
0.0
 13
0.121788388
 23
0.1234485966
 33
0.0
 40
0.0
 40
0.0
 40
0.0
 40
0.0
 40
0.0854673572
 40
0.2919447577
 40
0.6040478298
 40
1.0
 40
1.0
 40
1.0
 40
1.0
 10
124.2116426763
 20
246.1402206679
 30
0.0
 10
124.2142991685
 20
246.1443860439
 30
0.0
 10
124.2268329945
 20
246.1560060689
 30
0.0
 10
124.2502187877
 20
246.1817424837
 30
0.0
 10
124.2875917551
 20
246.2192527552
 30
0.0
 10
124.3161737114
 20
246.2485126184
 30
0.0
 10
124.3322478369
 20
246.264805865
 30
0.0
 11
124.2116426763
 21
246.1402206679
 31
0.0
 11
124.2215322555
 21
246.15125978
 31
0.0
 11
124.2463062709
 21
246.1771113535
 31
0.0
 11
124.2840965867
 21
246.2158560575
 31
0.0
 11
124.3322478369
 21
246.264805865
 31
0.0
  0
SPLINE
  5
530
100
AcDbEntity
  8
DEFAULT_2
100
AcDbSpline
 62
8
  6
HIDDEN
 70
0
 71
3
 72
11
 73
7
 74
5
 42
0.0000001
 43
0.0000001
 44
0.0000000001
 12
0.1234485968
 22
0.1217883881
 32
0.0
 13
0.146209365
 23
0.093245853
 33
0.0
 40
0.0
 40
0.0
 40
0.0
 40
0.0
 40
0.3959548603
 40
0.7080596895
 40
0.9145346147
 40
1.0
 40
1.0
 40
1.0
 40
1.0
 10
168.1135525885
 20
275.0461106166
 30
0.0
 10
168.1298459458
 20
275.0621848513
 30
0.0
 10
168.1591059936
 20
275.0907669862
 30
0.0
 10
168.1966163505
 20
275.1281400301
 30
0.0
 10
168.2223526395
 20
275.1515257318
 30
0.0
 10
168.2339725057
 20
275.1640593463
 30
0.0
 10
168.2381377856
 20
275.1667157772
 30
0.0
 11
168.1135525885
 21
275.0461106166
 31
0.0
 11
168.1625027303
 21
275.0942621923
 31
0.0
 11
168.2012476542
 21
275.1320527191
 31
0.0
 11
168.2270989201
 21
275.1568264351
 31
0.0
 11
168.2381377856
 21
275.1667157772
 31
0.0
  0
SPLINE
  5
531
100
AcDbEntity
  8
DEFAULT_2
100
AcDbSpline
 62
8
  6
HIDDEN
 70
0
 71
3
 72
21
 73
17
 74
15
 42
0.0000001
 43
0.0000001
 44
0.0000000001
 12
-0.0785470781
 22
-3.5008453362
 32
0.0
 13
3.5002930955
 23
-0.0958285627
 33
0.0
 40
0.0
 40
0.0
 40
0.0
 40
0.0
 40
0.1948755965
 40
0.3822959515
 40
0.5549797936
 40
0.7063673331
 40
0.7722164746
 40
0.8306283077
 40
0.8810604603
 40
0.9230177129
 40
0.956108075
 40
0.9800309762
 40
0.988482889
 40
0.9945868028
 40
0.998364763
 40
1.0
 40
1.0
 40
1.0
 40
1.0
 10
278.0558302733
 20
246.8417531794
 30
0.0
 10
278.0507279704
 20
246.614343405
 30
0.0
 10
278.0416951117
 20
246.1682012718
 30
0.0
 10
278.0314760655
 20
245.520483472
 30
0.0
 10
278.0250826322
 20
244.9234810091
 30
0.0
 10
278.0229839784
 20
244.4683478778
 30
0.0
 10
278.0236364364
 20
244.1466015915
 30
0.0
 10
278.025148918
 20
243.9426899786
 30
0.0
 10
278.0276652367
 20
243.766705097
 30
0.0
 10
278.0311528556
 20
243.6202201461
 30
0.0
 10
278.035503746
 20
243.5049262118
 30
0.0
 10
278.0401766687
 20
243.4283235727
 30
0.0
 10
278.0445596651
 20
243.384043637
 30
0.0
 10
278.0479309303
 20
243.3621676702
 30
0.0
 10
278.050546877
 20
243.3503533129
 30
0.0
 10
278.0539182221
 20
243.3430048841
 30
0.0
 10
278.0558261584
 20
243.34295265
 30
0.0
 11
278.0558302733
 21
246.8417531794
 31
0.0
 11
278.0420369631
 21
246.1594915761
 31
0.0
 11
278.0317815771
 21
245.5032769039
 31
0.0
 11
278.0254713439
 21
244.8986182631
 31
0.0
 11
278.0233411246
 21
244.368504801
 31
0.0
 11
278.023873564
 21
244.1379197389
 31
0.0
 11
278.0254696723
 21
243.9333837093
 31
0.0
 11
278.028112444
 21
243.7568038847
 31
0.0
 11
278.0317785427
 21
243.6099268125
 31
0.0
 11
278.0364333548
 21
243.4941469515
 31
0.0
 11
278.0420327575
 21
243.4105628424
 31
0.0
 11
278.0451705342
 21
243.3811333587
 31
0.0
 11
278.0485217102
 21
243.3600234658
 31
0.0
 11
278.0520768173
 21
243.3472807116
 31
0.0
 11
278.0558261584
 21
243.34295265
 31
0.0
  0
SPLINE
  5
532
100
AcDbEntity
  8
DEFAULT_2
100
AcDbSpline
 62
8
  6
HIDDEN
 70
0
 71
3
 72
8
 73
4
 74
2
 42
0.0000001
 43
0.0000001
 44
0.0000000001
 12
20.5000312155
 22
0.3612484396
 32
0.0
 13
20.4999649201
 23
0.3649911581
 33
0.0
 40
0.0
 40
0.0
 40
0.0
 40
0.0
 40
1.0
 40
1.0
 40
1.0
 40
1.0
 10
277.1343611182
 20
246.132666951
 30
0.0
 10
283.9677048567
 20
246.2530830975
 30
0.0
 10
290.8010394782
 20
246.3740187567
 30
0.0
 10
297.6343611182
 20
246.4956824761
 30
0.0
 11
277.1343611182
 21
246.132666951
 31
0.0
 11
297.6343611182
 21
246.4956824761
 31
0.0
  0
SPLINE
  5
533
100
AcDbEntity
  8
DEFAULT_2
100
AcDbSpline
 62
8
  6
HIDDEN
 70
0
 71
3
 72
13
 73
9
 74
7
 42
0.0000001
 43
0.0000001
 44
0.0000000001
 12
0.0
 22
-2.7465312011
 32
0.0
 13
0.0
 23
-2.7465312011
 33
0.0
 40
0.0
 40
0.0
 40
0.0
 40
0.0
 40
0.2438849287
 40
0.3711533164
 40
0.4999999818
 40
0.6288465768
 40
0.7561150735
 40
1.0
 40
1.0
 40
1.0
 40
1.0
 10
277.1343611182
 20
273.1338852559
 30
0.0
 10
277.1343611182
 20
272.9106060672
 30
0.0
 10
277.1787914201
 20
272.5723497073
 30
0.0
 10
277.2276248387
 20
272.117379618
 30
0.0
 10
277.241338814
 20
271.7648059736
 30
0.0
 10
277.227625946
 20
271.4122321381
 30
0.0
 10
277.1787910112
 20
270.9572621596
 30
0.0
 10
277.1343611182
 20
270.6190056608
 30
0.0
 10
277.1343611182
 20
270.3957264741
 30
0.0
 11
277.1343611182
 21
273.1338852559
 31
0.0
 11
277.1892190734
 21
272.4662978312
 31
0.0
 11
277.2235469931
 21
272.1184409382
 31
0.0
 11
277.2367489336
 21
271.7648058938
 31
0.0
 11
277.2235477332
 21
271.4111710153
 31
0.0
 11
277.1892191867
 21
271.0633138836
 31
0.0
 11
277.1343611182
 21
270.3957264741
 31
0.0
  0
SPLINE
  5
534
100
AcDbEntity
  8
DEFAULT_2
100
AcDbSpline
 62
8
  6
HIDDEN
 70
0
 71
3
 72
13
 73
9
 74
7
 42
0.0000001
 43
0.0000001
 44
0.0000000001
 12
0.0
 22
2.7465331544
 32
0.0
 13
0.0
 23
2.7465331544
 33
0.0
 40
0.0
 40
0.0
 40
0.0
 40
0.0
 40
0.2438811196
 40
0.3711612219
 40
0.5000002703
 40
0.6288397815
 40
0.7561194074
 40
1.0
 40
1.0
 40
1.0
 40
1.0
 10
277.1343611182
 20
247.3957264741
 30
0.0
 10
277.1343611182
 20
247.6190023343
 30
0.0
 10
277.1788838028
 20
247.9572587562
 30
0.0
 10
277.2275976287
 20
248.4122388488
 30
0.0
 10
277.2414100904
 20
248.7648070349
 30
0.0
 10
277.2275977577
 20
249.1173747957
 30
0.0
 10
277.1788839327
 20
249.5723543905
 30
0.0
 10
277.1343611182
 20
249.9106098782
 30
0.0
 10
277.1343611182
 20
250.1338852559
 30
0.0
 11
277.1343611182
 21
247.3957264741
 31
0.0
 11
277.1892606926
 21
248.0633004585
 31
0.0
 11
277.2235527171
 21
248.4111934721
 31
0.0
 11
277.2367873073
 21
248.7648066128
 31
0.0
 11
277.2235527585
 21
249.1184210272
 31
0.0
 11
277.1892608095
 21
249.4663127335
 31
0.0
 11
277.1343611182
 21
250.1338852559
 31
0.0
  0
SPLINE
  5
535
100
AcDbEntity
  8
DEFAULT_2
100
AcDbSpline
 62
8
  6
HIDDEN
 70
0
 71
3
 72
8
 73
4
 74
2
 42
0.0000001
 43
0.0000001
 44
0.0000000001
 12
20.5000312155
 22
-0.3612484396
 32
0.0
 13
20.4999649201
 23
-0.3649911581
 33
0.0
 40
0.0
 40
0.0
 40
0.0
 40
0.0
 40
1.0
 40
1.0
 40
1.0
 40
1.0
 10
277.1343611182
 20
274.396944779
 30
0.0
 10
283.9677048567
 20
274.2765286325
 30
0.0
 10
290.8010394782
 20
274.1555929733
 30
0.0
 10
297.6343611182
 20
274.0339292539
 30
0.0
 11
277.1343611182
 21
274.396944779
 31
0.0
 11
297.6343611182
 21
274.0339292539
 31
0.0
  0
SPLINE
  5
536
100
AcDbEntity
  8
DEFAULT_2
100
AcDbSpline
 62
8
  6
HIDDEN
 70
0
 71
3
 72
8
 73
4
 74
2
 42
0.0000001
 43
0.0000001
 44
0.0000000001
 12
-20.4999892996
 22
0.1119878011
 32
0.0
 13
-20.5000094094
 23
0.108244016
 33
0.0
 40
0.0
 40
0.0
 40
0.0
 40
0.0
 40
1.0
 40
1.0
 40
1.0
 40
1.0
 10
297.6343611182
 20
273.503599168
 30
0.0
 10
290.8010313517
 20
273.5409284351
 30
0.0
 10
283.967697588
 20
273.5775294313
 30
0.0
 10
277.1343611182
 20
273.61361077
 30
0.0
 11
297.6343611182
 21
273.503599168
 31
0.0
 11
277.1343611182
 21
273.61361077
 31
0.0
  0
SPLINE
  5
537
100
AcDbEntity
  8
DEFAULT_2
100
AcDbSpline
 62
8
  6
HIDDEN
 70
0
 71
3
 72
9
 73
5
 74
3
 42
0.0000001
 43
0.0000001
 44
0.0000000001
 12
-20.014481278
 22
-0.5408978925
 32
0.0
 13
-20.0101787439
 23
-0.6817462825
 33
0.0
 40
0.0
 40
0.0
 40
0.0
 40
0.0
 40
0.5000136309
 40
1.0
 40
1.0
 40
1.0
 40
1.0
 10
297.6343611182
 20
274.9787389348
 30
0.0
 10
294.2985233004
 20
274.8885868284
 30
0.0
 10
287.6271582561
 20
274.7037781284
 30
0.0
 10
280.9562115161
 20
274.5030123449
 30
0.0
 10
277.6212726441
 20
274.3893910621
 30
0.0
 11
297.6343611182
 21
274.9787389348
 31
0.0
 11
287.6270809651
 21
274.6997836018
 31
0.0
 11
277.6212726441
 21
274.3893910621
 31
0.0
  0
SPLINE
  5
538
100
AcDbEntity
  8
DEFAULT_2
100
AcDbSpline
 62
8
  6
HIDDEN
 70
0
 71
3
 72
9
 73
5
 74
3
 42
0.0000001
 43
0.0000001
 44
0.0000000001
 12
0.2577151524
 22
0.2365030994
 32
0.0
 13
0.3495839815
 23
0.0119103174
 33
0.0
 40
0.0
 40
0.0
 40
0.0
 40
0.0
 40
0.2319117648
 40
1.0
 40
1.0
 40
1.0
 40
1.0
 10
277.298784567
 20
274.264805865
 30
0.0
 10
277.318706959
 20
274.2830884821
 30
0.0
 10
277.4121960135
 20
274.3535771289
 30
0.0
 10
277.5317688629
 20
274.3863416706
 30
0.0
 10
277.6212726441
 20
274.3893910621
 30
0.0
 11
277.298784567
 21
274.264805865
 31
0.0
 11
277.3634722487
 21
274.313753857
 31
0.0
 11
277.6212726441
 21
274.3893910621
 31
0.0
  0
SPLINE
  5
539
100
AcDbEntity
  8
DEFAULT_2
100
AcDbSpline
 62
8
  6
HIDDEN
 70
0
 71
3
 72
9
 73
5
 74
3
 42
0.0000001
 43
0.0000001
 44
0.0000000001
 12
20.0113179232
 22
-0.4348123167
 32
0.0
 13
20.0138837537
 23
-0.2938773
 33
0.0
 40
0.0
 40
0.0
 40
0.0
 40
0.0
 40
0.4999766777
 40
1.0
 40
1.0
 40
1.0
 40
1.0
 10
277.6212726441
 20
245.3628959528
 30
0.0
 10
280.9563367276
 20
245.2904306137
 30
0.0
 10
287.6273367487
 20
245.1719950798
 30
0.0
 10
294.2985582357
 20
245.0695245439
 30
0.0
 10
297.6343611182
 20
245.0205427093
 30
0.0
 11
277.6212726441
 21
245.3628959528
 31
0.0
 11
287.6270809433
 21
245.1759914814
 31
0.0
 11
297.6343611182
 21
245.0205427093
 31
0.0
  0
SPLINE
  5
53A
100
AcDbEntity
  8
DEFAULT_2
100
AcDbSpline
 62
8
  6
HIDDEN
 70
0
 71
3
 72
9
 73
5
 74
3
 42
0.0000001
 43
0.0000001
 44
0.0000000001
 12
-20.014481278
 22
0.5408978925
 32
0.0
 13
-20.0101787439
 23
0.6817462825
 33
0.0
 40
0.0
 40
0.0
 40
0.0
 40
0.0
 40
0.5000136309
 40
1.0
 40
1.0
 40
1.0
 40
1.0
 10
297.6343611182
 20
245.5508727952
 30
0.0
 10
294.2985233004
 20
245.6410249016
 30
0.0
 10
287.6271582561
 20
245.8258336016
 30
0.0
 10
280.9562115161
 20
246.0265993851
 30
0.0
 10
277.6212726441
 20
246.1402206679
 30
0.0
 11
297.6343611182
 21
245.5508727952
 31
0.0
 11
287.6270809651
 21
245.8298281282
 31
0.0
 11
277.6212726441
 21
246.1402206679
 31
0.0
  0
SPLINE
  5
53B
100
AcDbEntity
  8
DEFAULT_2
100
AcDbSpline
 62
8
  6
HIDDEN
 70
0
 71
3
 72
9
 73
5
 74
3
 42
0.0000001
 43
0.0000001
 44
0.0000000001
 12
-0.3496812629
 22
0.0075979863
 32
0.0
 13
-0.2592864679
 23
0.2347450587
 33
0.0
 40
0.0
 40
0.0
 40
0.0
 40
0.0
 40
0.5253812232
 40
1.0
 40
1.0
 40
1.0
 40
1.0
 10
277.6212726441
 20
245.3628959528
 30
0.0
 10
277.5600339875
 20
245.364226566
 30
0.0
 10
277.4428673287
 20
245.3856101791
 30
0.0
 10
277.3398053091
 20
245.4463629759
 30
0.0
 10
277.298784567
 20
245.4835011134
 30
0.0
 11
277.6212726441
 21
245.3628959528
 31
0.0
 11
277.4408129016
 21
245.3975625595
 31
0.0
 11
277.298784567
 21
245.4835011134
 31
0.0
  0
SPLINE
  5
53C
100
AcDbEntity
  8
DEFAULT_2
100
AcDbSpline
 62
8
  6
HIDDEN
 70
0
 71
3
 72
9
 73
5
 74
3
 42
0.0000001
 43
0.0000001
 44
0.0000000001
 12
-0.3495058607
 22
0.0119076558
 32
0.0
 13
-0.2576575613
 23
0.2364502485
 33
0.0
 40
0.0
 40
0.0
 40
0.0
 40
0.0
 40
0.2682073143
 40
1.0
 40
1.0
 40
1.0
 40
1.0
 10
277.6212726441
 20
246.1402206679
 30
0.0
 10
277.590025968
 20
246.1412852414
 30
0.0
 10
277.4742007575
 20
246.1546292238
 30
0.0
 10
277.3616352066
 20
246.2071283442
 30
0.0
 10
277.298784567
 20
246.264805865
 30
0.0
 11
277.6212726441
 21
246.1402206679
 31
0.0
 11
277.5281301149
 21
246.15125978
 31
0.0
 11
277.298784567
 21
246.264805865
 31
0.0
  0
SPLINE
  5
53D
100
AcDbEntity
  8
DEFAULT_2
100
AcDbSpline
 62
8
  6
HIDDEN
 70
0
 71
3
 72
8
 73
4
 74
2
 42
0.0000001
 43
0.0000001
 44
0.0000000001
 12
-20.4999892996
 22
-0.1119878011
 32
0.0
 13
-20.5000094094
 23
-0.108244016
 33
0.0
 40
0.0
 40
0.0
 40
0.0
 40
0.0
 40
1.0
 40
1.0
 40
1.0
 40
1.0
 10
297.6343611182
 20
247.026012562
 30
0.0
 10
290.8010313517
 20
246.9886832949
 30
0.0
 10
283.967697588
 20
246.9520822987
 30
0.0
 10
277.1343611182
 20
246.91600096
 30
0.0
 11
297.6343611182
 21
247.026012562
 31
0.0
 11
277.1343611182
 21
246.91600096
 31
0.0
  0
LINE
  5
53E
100
AcDbEntity
  8
DEFAULT_2
100
AcDbLine
 62
8
  6
HIDDEN
 10
280.1343611182
 20
268.6784793381
 11
277.1343611182
 21
268.6369096328
  0
SPLINE
  5
53F
100
AcDbEntity
  8
DEFAULT_2
100
AcDbSpline
 62
8
  6
HIDDEN
 70
0
 71
3
 72
9
 73
5
 74
3
 42
0.0000001
 43
0.0000001
 44
0.0000000001
 12
20.0113179232
 22
0.4348123167
 32
0.0
 13
20.0138837537
 23
0.2938773
 33
0.0
 40
0.0
 40
0.0
 40
0.0
 40
0.0
 40
0.4999766777
 40
1.0
 40
1.0
 40
1.0
 40
1.0
 10
277.6212726441
 20
275.1667157772
 30
0.0
 10
280.9563367276
 20
275.2391811163
 30
0.0
 10
287.6273367487
 20
275.3576166502
 30
0.0
 10
294.2985582357
 20
275.4600871861
 30
0.0
 10
297.6343611182
 20
275.5090690207
 30
0.0
 11
277.6212726441
 21
275.1667157772
 31
0.0
 11
287.6270809433
 21
275.3536202487
 31
0.0
 11
297.6343611182
 21
275.5090690207
 31
0.0
  0
SPLINE
  5
540
100
AcDbEntity
  8
DEFAULT_2
100
AcDbSpline
 62
8
  6
HIDDEN
 70
0
 71
3
 72
9
 73
5
 74
3
 42
0.0000001
 43
0.0000001
 44
0.0000000001
 12
0.1914167124
 22
0.0846163892
 32
0.0
 13
0.2092358045
 23
0.0045463425
 33
0.0
 40
0.0
 40
0.0
 40
0.0
 40
0.0
 40
0.2421221487
 40
1.0
 40
1.0
 40
1.0
 40
1.0
 10
277.41749961
 20
275.1224540108
 30
0.0
 10
277.4329483519
 20
275.1292831781
 30
0.0
 10
277.4981944125
 20
275.1541578452
 30
0.0
 10
277.5684142501
 20
275.1655672531
 30
0.0
 10
277.6212726441
 20
275.1667157772
 30
0.0
 11
277.41749961
 21
275.1224540108
 31
0.0
 11
277.464834963
 21
275.1405392181
 31
0.0
 11
277.6212726441
 21
275.1667157772
 31
0.0
  0
LINE
  5
541
100
AcDbEntity
  8
DEFAULT_2
100
AcDbLine
 62
8
  6
HIDDEN
 10
277.1343611182
 20
251.8927020972
 11
280.1343611182
 21
251.8511323919
  0
SPLINE
  5
542
100
AcDbEntity
  8
0
100
AcDbSpline
 62
7
  6
CONTINUOUS
 70
0
 71
3
 72
21
 73
17
 74
15
 42
0.0000001
 43
0.0000001
 44
0.0000000001
 12
-0.078537073
 22
3.5008464981
 32
0.0
 13
3.500455616
 23
0.0943650134
 33
0.0
 40
0.0
 40
0.0
 40
0.0
 40
0.0
 40
0.1948775233
 40
0.3822994935
 40
0.5549843276
 40
0.7063723435
 40
0.7722214932
 40
0.8306331385
 40
0.8810649359
 40
0.923021681
 40
0.9561113486
 40
0.9800331753
 40
0.9884844212
 40
0.9945876761
 40
0.9983650673
 40
1.0
 40
1.0
 40
1.0
 40
1.0
 10
278.0558302733
 20
273.6878585506
 30
0.0
 10
278.0507285699
 20
273.915270649
 30
0.0
 10
278.0416927812
 20
274.3614169769
 30
0.0
 10
278.0314763982
 20
275.0091402924
 30
0.0
 10
278.0250832427
 20
275.6061465096
 30
0.0
 10
278.022983537
 20
276.0612814841
 30
0.0
 10
278.02363641
 20
276.3830282028
 30
0.0
 10
278.0251495136
 20
276.5869392437
 30
0.0
 10
278.0276663613
 20
276.7629229321
 30
0.0
 10
278.0311536345
 20
276.909406123
 30
0.0
 10
278.035503433
 20
277.0246974308
 30
0.0
 10
278.0401761892
 20
277.1012973358
 30
0.0
 10
278.0445597767
 20
277.1455743418
 30
0.0
 10
278.0479319255
 20
277.1674480567
 30
0.0
 10
278.0505476494
 20
277.1792604613
 30
0.0
 10
278.0539198806
 20
277.1866076899
 30
0.0
 10
278.0558275504
 20
277.1866591167
 30
0.0
 11
278.0558302733
 21
273.6878585506
 31
0.0
 11
278.0420358064
 21
274.3701270618
 31
0.0
 11
278.0317815546
 21
275.026347584
 31
0.0
 11
278.0254716624
 21
275.6310098642
 31
0.0
 11
278.023340896
 21
276.1611251344
 31
0.0
 11
278.0238736224
 21
276.3917102859
 31
0.0
 11
278.0254702988
 21
276.5962457085
 31
0.0
 11
278.0281134343
 21
276.7728243305
 31
0.0
 11
278.0317791238
 21
276.9196996746
 31
0.0
 11
278.0364331555
 21
277.0354771644
 31
0.0
 11
278.0420326188
 21
277.1190575205
 31
0.0
 11
278.0451708944
 21
277.1484846106
 31
0.0
 11
278.0485226179
 21
277.1695920862
 31
0.0
 11
278.0520780748
 21
277.1823326779
 31
0.0
 11
278.0558275504
 21
277.1866591167
 31
0.0
  0
SPLINE
  5
543
100
AcDbEntity
  8
0
100
AcDbSpline
 62
7
  6
CONTINUOUS
 70
0
 71
3
 72
21
 73
17
 74
15
 42
0.0000001
 43
0.0000001
 44
0.0000000001
 12
-3.5004173145
 22
0.0957363948
 32
0.0
 13
0.0785455272
 23
3.5008452455
 33
0.0
 40
0.0
 40
0.0
 40
0.0
 40
0.0
 40
0.0016353572
 40
0.0054134241
 40
0.0115174749
 40
0.0199695354
 40
0.0438927351
 40
0.0769833853
 40
0.1189408122
 40
0.1693731493
 40
0.2277850799
 40
0.293634286
 40
0.4450217951
 40
0.6177054055
 40
0.8051250152
 40
1.0
 40
1.0
 40
1.0
 40
1.0
 10
278.0558261584
 20
243.3429526497
 30
0.0
 10
278.0539180142
 20
243.3430048374
 30
0.0
 10
278.0505469102
 20
243.3503537319
 30
0.0
 10
278.0479311701
 20
243.3621685368
 30
0.0
 10
278.044560379
 20
243.3840450447
 30
0.0
 10
278.040177905
 20
243.4283257053
 30
0.0
 10
278.0355049796
 20
243.5049291904
 30
0.0
 10
278.0311536173
 20
243.6202239943
 30
0.0
 10
278.0276657331
 20
243.7667096895
 30
0.0
 10
278.0251495127
 20
243.9426950997
 30
0.0
 10
278.0236369272
 20
244.1466071079
 30
0.0
 10
278.0229837046
 20
244.4683535348
 30
0.0
 10
278.0250819885
 20
244.9234864233
 30
0.0
 10
278.0314752715
 20
245.5204876884
 30
0.0
 10
278.0416933805
 20
246.168203629
 30
0.0
 10
278.0507280871
 20
246.6143441243
 30
0.0
 10
278.0558302733
 20
246.841753179
 30
0.0
 11
278.0558261584
 21
243.3429526497
 31
0.0
 11
278.0520766888
 21
243.347281058
 31
0.0
 11
278.0485219072
 21
243.3600242906
 31
0.0
 11
278.0451711476
 21
243.3811347346
 31
0.0
 11
278.0420337441
 21
243.4105647773
 31
0.0
 11
278.0364345326
 21
243.4941499435
 31
0.0
 11
278.0317793772
 21
243.6099307964
 31
0.0
 11
278.0281130093
 21
243.7568084673
 31
0.0
 11
278.0254702309
 21
243.9333889312
 31
0.0
 11
278.0238739989
 21
244.1379252944
 31
0.0
 11
278.0233411245
 21
244.3685105732
 31
0.0
 11
278.0254707695
 21
244.8986239121
 31
0.0
 11
278.0317806803
 21
245.5032817232
 31
0.0
 11
278.0420358417
 21
246.1594937653
 31
0.0
 11
278.0558302733
 21
246.841753179
 31
0.0
  0
ELLIPSE
  5
544
100
AcDbEntity
  8
DEFAULT_2
100
AcDbEllipse
 62
8
  6
HIDDEN
 10
124.70290722
 20
329.4017610963
 30
0.0
 11
0.4999904798
 21
0.5000285596
 31
0.0
 40
0.0061705924
 41
1.5646253427
 42
2.3996585008
  0
ELLIPSE
  5
545
100
AcDbEntity
  8
DEFAULT_2
100
AcDbEllipse
 62
8
  6
HIDDEN
 10
167.7470347753
 20
357.4458886515
 30
0.0
 11
0.5000285596
 21
0.4999904798
 31
0.0
 40
0.0061705924
 41
0.7419341528
 42
1.5769673108
  0
ELLIPSE
  5
546
100
AcDbEntity
  8
DEFAULT_2
100
AcDbEllipse
 62
8
  6
HIDDEN
 10
168.5241979569
 20
356.6687254699
 30
0.0
 11
0.4999904798
 21
0.5000285596
 31
0.0
 40
0.0061705924
 41
-1.5769673108
 42
-0.7419341528
  0
ELLIPSE
  5
547
100
AcDbEntity
  8
DEFAULT_2
100
AcDbEllipse
 62
8
  6
HIDDEN
 10
125.4800704016
 20
328.6245979146
 30
0.0
 11
0.5000285596
 21
0.4999904798
 31
0.0
 40
0.0061705924
 41
-2.3996585008
 42
-1.5646253427
  0
ELLIPSE
  5
548
100
AcDbEntity
  8
0
100
AcDbEllipse
 62
7
  6
CONTINUOUS
 10
125.114752362
 20
357.0340435096
 30
0.0
 11
2.4765701796
 21
-2.4765701796
 31
0.0
 40
0.999315002
 41
2.3565371065
 42
3.9266482007
  0
ELLIPSE
  5
549
100
AcDbEntity
  8
0
100
AcDbEllipse
 62
7
  6
CONTINUOUS
 10
168.1123528149
 20
357.0340435096
 30
0.0
 11
-2.4765701796
 21
-2.4765701796
 31
0.0
 40
0.999315002
 41
2.3565371065
 42
3.9266482007
  0
ELLIPSE
  5
54A
100
AcDbEntity
  8
0
100
AcDbEllipse
 62
7
  6
CONTINUOUS
 10
168.1123528149
 20
329.0364430566
 30
0.0
 11
-2.4765701796
 21
2.4765701796
 31
0.0
 40
0.999315002
 41
2.3565371065
 42
3.9266482007
  0
ELLIPSE
  5
54B
100
AcDbEntity
  8
0
100
AcDbEllipse
 62
7
  6
CONTINUOUS
 10
125.114752362
 20
329.0364430566
 30
0.0
 11
2.4765701796
 21
2.4765701796
 31
0.0
 40
0.999315002
 41
2.3565371065
 42
3.9266482007
  0
ELLIPSE
  5
54C
100
AcDbEntity
  8
DEFAULT_2
100
AcDbEllipse
 62
8
  6
HIDDEN
 10
125.4800704016
 20
430.3458208168
 30
0.0
 11
0.3568377408
 21
-0.3546425507
 31
0.0
 40
0.9877342685
 41
-1.6173459468
 42
-0.7823127887
  0
ELLIPSE
  5
54D
100
AcDbEntity
  8
DEFAULT_2
100
AcDbEllipse
 62
8
  6
HIDDEN
 10
167.7470347753
 20
430.3458208168
 30
0.0
 11
0.3568377408
 21
0.3546425507
 31
0.0
 40
0.9877342685
 41
-2.3592798649
 42
-1.5242467068
  0
ELLIPSE
  5
54E
100
AcDbEntity
  8
DEFAULT_2
100
AcDbEllipse
 62
8
  6
HIDDEN
 10
124.70290722
 20
246.6313236782
 30
0.0
 11
0.4999904798
 21
0.5000285596
 31
0.0
 40
0.0061705924
 41
1.5646253427
 42
2.3996585008
  0
ELLIPSE
  5
54F
100
AcDbEntity
  8
DEFAULT_2
100
AcDbEllipse
 62
8
  6
HIDDEN
 10
167.7470347753
 20
274.6754512335
 30
0.0
 11
0.5000285596
 21
0.4999904798
 31
0.0
 40
0.0061705924
 41
0.7419341528
 42
1.5769673108
  0
ELLIPSE
  5
550
100
AcDbEntity
  8
DEFAULT_2
100
AcDbEllipse
 62
8
  6
HIDDEN
 10
168.5241979569
 20
273.8982880518
 30
0.0
 11
0.4999904798
 21
0.5000285596
 31
0.0
 40
0.0061705924
 41
-1.5769673108
 42
-0.7419341528
  0
ELLIPSE
  5
551
100
AcDbEntity
  8
DEFAULT_2
100
AcDbEllipse
 62
8
  6
HIDDEN
 10
125.4800704016
 20
245.8541604966
 30
0.0
 11
0.5000285596
 21
0.4999904798
 31
0.0
 40
0.0061705924
 41
-2.3996585008
 42
-1.5646253427
  0
ELLIPSE
  5
552
100
AcDbEntity
  8
0
100
AcDbEllipse
 62
7
  6
CONTINUOUS
 10
125.114752362
 20
274.2636060915
 30
0.0
 11
2.4765701796
 21
-2.4765701796
 31
0.0
 40
0.999315002
 41
2.3565371065
 42
3.9266482007
  0
ELLIPSE
  5
553
100
AcDbEntity
  8
0
100
AcDbEllipse
 62
7
  6
CONTINUOUS
 10
168.1123528149
 20
274.2636060915
 30
0.0
 11
-2.4765701796
 21
-2.4765701796
 31
0.0
 40
0.999315002
 41
2.3565371065
 42
3.9266482007
  0
ELLIPSE
  5
554
100
AcDbEntity
  8
0
100
AcDbEllipse
 62
7
  6
CONTINUOUS
 10
168.1123528149
 20
246.2660056385
 30
0.0
 11
-2.4765701796
 21
2.4765701796
 31
0.0
 40
0.999315002
 41
2.3565371065
 42
3.9266482007
  0
ELLIPSE
  5
555
100
AcDbEntity
  8
0
100
AcDbEllipse
 62
7
  6
CONTINUOUS
 10
125.114752362
 20
246.2660056385
 30
0.0
 11
2.4765701796
 21
2.4765701796
 31
0.0
 40
0.999315002
 41
2.3565371065
 42
3.9266482007
  0
ELLIPSE
  5
556
100
AcDbEntity
  8
DEFAULT_2
100
AcDbEllipse
 62
8
  6
HIDDEN
 10
277.6343611182
 20
246.6313236782
 30
0.0
 11
-0.3546425507
 21
0.3568377408
 31
0.0
 40
0.9877342685
 41
0.7823127887
 42
1.6173459468
  0
ELLIPSE
  5
557
100
AcDbEntity
  8
DEFAULT_2
100
AcDbEllipse
 62
8
  6
HIDDEN
 10
277.6343611182
 20
273.8982880518
 30
0.0
 11
0.3546425507
 21
0.3568377408
 31
0.0
 40
0.9877342685
 41
1.5242467068
 42
2.3592798649
  0
ENDSEC
  0
SECTION
  2
OBJECTS
  0
DICTIONARY
  5
558
100
AcDbDictionary
  3
ACAD_GROUP
350
559
  3
ACAD_MLINESTYLE
350
55A
  0
DICTIONARY
  5
559
102
{ACAD_REACTORS
330
558
102
}
100
AcDbDictionary
  0
DICTIONARY
  5
55A
102
{ACAD_REACTORS
330
558
102
}
100
AcDbDictionary
  3
STANDARD
350
55B
  0
MLINESTYLE
  5
55B
102
{ACAD_REACTORS
330
55A
102
}
100
AcDbMlineStyle
  2
STANDARD
 70
0
  3

 62
256
 51
90.0
 52
90.0
 71
2
 49
0.5
 62
256
  6
BYLAYER
 49
-0.5
 62
256
  6
BYLAYER
  0
ENDSEC
  0
EOF
