999
DXF file: 58-58.dxf
999
Pro/ENGINEER 2006460 by Parametric Technology Corporation
  0
SECTION
  2
HEADER
  9
$ACADVER
  1
AC1015
  9
$DWGCODEPAGE
  3
ANSI_936
  9
$EXTMAX
 10
594.0
 20
420.0
 30
0.0
  9
$EXTMIN
 10
0.0
 20
0.0
 30
0.0
  9
$LIMMIN
 10
0.0
 20
0.0
  9
$LIMMAX
 10
594.0
 20
420.0
  9
$VIEWCTR
 10
297.0
 20
210.0
  9
$VIEWSIZE
 40
420.0
  9
$CLAYER
  8
0
  9
$LTSCALE
 40
32.67
  9
$CELTYPE
  6
BYLAYER
  9
$DIMSCALE
 40
1.0
  9
$DIMASZ
 40
3.5
  9
$DIMEXO
 40
3.7125
  9
$DIMDLI
 40
22.572
  9
$DIMEXE
 40
10.692
  9
$DIMCEN
 40
5.346
  9
$DIMLFAC
 40
1.0
  9
$DIMBLK
  1
_FILLED
  9
$DIMTXT
 40
3.5
  9
$DIMTOL
 70
1
  9
$DIMLIM
 70
0
  9
$DIMTFAC
 40
1.0
  9
$DIMTP
 40
0.0001
  9
$DIMTM
 40
0.0001
  9
$PDMODE
 70
3
  9
$PDSIZE
 40
8.0
  9
$HANDSEED
  5
39B
  9
$MEASUREMENT
 70
1
  9
$INSUNITS
 70
4
  0
ENDSEC
  0
SECTION
  2
CLASSES
  0
CLASS
  1
ACDBDICTIONARYWDFLT
  2
AcDbDictionaryWithDefault
  3
AutoCAD 2000
 90
0
280
0
281
0
  0
CLASS
  1
ACDBPLACEHOLDER
  2
AcDbPlaceHolder
  3
AutoCAD 2000
 90
0
280
0
281
0
  0
CLASS
  1
LAYOUT
  2
AcDbLayout
  3
AutoCAD 2000
 90
0
280
0
281
0
  0
ENDSEC
  0
SECTION
  2
TABLES
  0
TABLE
  2
VPORT
  5
8
100
AcDbSymbolTable
 70
2
  0
VPORT
  5
1F4
100
AcDbSymbolTableRecord
100
AcDbViewportTableRecord
  2
*ACTIVE
 70
0
 10
0.0
 20
0.0
 11
1.0
 21
1.0
 12
297.0
 22
210.0
 13
0.0
 23
0.0
 14
1.0
 24
1.0
 15
0.0
 25
0.0
 16
0.0
 26
0.0
 36
1.0
 17
0.0
 27
0.0
 37
0.0
 40
420.0
 41
1.4142857143
 42
50.0
 43
0.0
 44
0.0
 50
0.0
 51
0.0
 71
0
 72
100
 73
1
 74
1
 75
0
 76
0
 77
0
 78
0
  0
ENDTAB
  0
TABLE
  2
LTYPE
  5
5
100
AcDbSymbolTable
 70
6
  0
LTYPE
  5
14
100
AcDbSymbolTableRecord
100
AcDbLinetypeTableRecord
  2
BYBLOCK
 70
0
  3

 72
65
 73
0
 40
0.0
  0
LTYPE
  5
15
100
AcDbSymbolTableRecord
100
AcDbLinetypeTableRecord
  2
BYLAYER
 70
0
  3

 72
65
 73
0
 40
0.0
  0
LTYPE
  5
16
100
AcDbSymbolTableRecord
100
AcDbLinetypeTableRecord
  2
CONTINUOUS
 70
64
  3
Solid line
 72
65
 73
0
 40
0.0
  0
LTYPE
  5
1F5
100
AcDbSymbolTableRecord
100
AcDbLinetypeTableRecord
  2
CENTER
 70
64
  3
____ _ ____ _ ____ _ ____ _ ____ _ ____ _ ____
 72
65
 73
4
 40
0.6
 49
0.375
 74
0
 49
-0.075
 74
0
 49
0.075
 74
0
 49
-0.075
 74
0
  0
LTYPE
  5
1F6
100
AcDbSymbolTableRecord
100
AcDbLinetypeTableRecord
  2
HIDDEN
 70
64
  3
- - - - - - - - - - - - - - - - - - - -
 72
65
 73
2
 40
0.2
 49
0.1
 74
0
 49
-0.1
 74
0
  0
LTYPE
  5
1F7
100
AcDbSymbolTableRecord
100
AcDbLinetypeTableRecord
  2
PHANTOM
 70
64
  3
_____ _ _ _____ _ _ _____ _ _ _____
 72
65
 73
6
 40
0.8
 49
0.45
 74
0
 49
-0.05
 74
0
 49
0.1
 74
0
 49
-0.05
 74
0
 49
0.1
 74
0
 49
-0.05
 74
0
  0
LTYPE
  5
1F8
100
AcDbSymbolTableRecord
100
AcDbLinetypeTableRecord
  2
DOT
 70
64
  3
. . . . . . . . . . . . . . . . . . . .
 72
65
 73
2
 40
0.2
 49
0.1
 74
0
 49
-0.1
 74
0
  0
LTYPE
  5
1F9
100
AcDbSymbolTableRecord
100
AcDbLinetypeTableRecord
  2
DASHED
 70
64
  3
- - - - - - - - - - - - - - - - - - - -
 72
65
 73
2
 40
0.2
 49
0.1
 74
0
 49
-0.1
 74
0
  0
ENDTAB
  0
TABLE
  2
LAYER
  5
2
100
AcDbSymbolTable
 70
36
  0
LAYER
  5
10
100
AcDbSymbolTableRecord
100
AcDbLayerTableRecord
  2
0
 70
0
 62
7
  6
CONTINUOUS
370
-3
390
F
  0
LAYER
  5
1FA
100
AcDbSymbolTableRecord
100
AcDbLayerTableRecord
  2
DEFAULT_1
 70
0
 62
7
  6
CENTER
370
-3
390
F
  0
LAYER
  5
1FB
100
AcDbSymbolTableRecord
100
AcDbLayerTableRecord
  2
DEFAULT_2
 70
0
 62
8
  6
HIDDEN
370
-3
390
F
  0
LAYER
  5
1FC
100
AcDbSymbolTableRecord
100
AcDbLayerTableRecord
  2
DEFAULT_3
 70
0
 62
7
  6
PHANTOM
370
-3
390
F
  0
LAYER
  5
1FD
100
AcDbSymbolTableRecord
100
AcDbLayerTableRecord
  2
01_ALL_DTM_PLN
 70
0
 62
7
  6
CONTINUOUS
370
-3
390
F
  0
LAYER
  5
1FE
100
AcDbSymbolTableRecord
100
AcDbLayerTableRecord
  2
01__ASM_ALL_DTM_PLN
 70
0
 62
7
  6
CONTINUOUS
370
-3
390
F
  0
LAYER
  5
1FF
100
AcDbSymbolTableRecord
100
AcDbLayerTableRecord
  2
01__ASM_DEF_DTM_PLN
 70
0
 62
7
  6
CONTINUOUS
370
-3
390
F
  0
LAYER
  5
200
100
AcDbSymbolTableRecord
100
AcDbLayerTableRecord
  2
01___PRT_ALL_DTM_PLN
 70
0
 62
7
  6
CONTINUOUS
370
-3
390
F
  0
LAYER
  5
201
100
AcDbSymbolTableRecord
100
AcDbLayerTableRecord
  2
01___PRT_DEF_DTM_PLN
 70
0
 62
7
  6
CONTINUOUS
370
-3
390
F
  0
LAYER
  5
202
100
AcDbSymbolTableRecord
100
AcDbLayerTableRecord
  2
02_ALL_AXES
 70
0
 62
7
  6
CONTINUOUS
370
-3
390
F
  0
LAYER
  5
203
100
AcDbSymbolTableRecord
100
AcDbLayerTableRecord
  2
02__ASM_ALL_AXES
 70
0
 62
7
  6
CONTINUOUS
370
-3
390
F
  0
LAYER
  5
204
100
AcDbSymbolTableRecord
100
AcDbLayerTableRecord
  2
02___PRT_ALL_AXES
 70
0
 62
7
  6
CONTINUOUS
370
-3
390
F
  0
LAYER
  5
205
100
AcDbSymbolTableRecord
100
AcDbLayerTableRecord
  2
03_ALL_CURVES
 70
0
 62
7
  6
CONTINUOUS
370
-3
390
F
  0
LAYER
  5
206
100
AcDbSymbolTableRecord
100
AcDbLayerTableRecord
  2
03__ASM_ALL_CURVES
 70
0
 62
7
  6
CONTINUOUS
370
-3
390
F
  0
LAYER
  5
207
100
AcDbSymbolTableRecord
100
AcDbLayerTableRecord
  2
03___PRT_ALL_CURVES
 70
0
 62
7
  6
CONTINUOUS
370
-3
390
F
  0
LAYER
  5
208
100
AcDbSymbolTableRecord
100
AcDbLayerTableRecord
  2
04_ALL_DTM_PNT
 70
0
 62
7
  6
CONTINUOUS
370
-3
390
F
  0
LAYER
  5
209
100
AcDbSymbolTableRecord
100
AcDbLayerTableRecord
  2
04__ASM_ALL_DTM_PNT
 70
0
 62
7
  6
CONTINUOUS
370
-3
390
F
  0
LAYER
  5
20A
100
AcDbSymbolTableRecord
100
AcDbLayerTableRecord
  2
04___PRT_ALL_DTM_PNT
 70
0
 62
7
  6
CONTINUOUS
370
-3
390
F
  0
LAYER
  5
20B
100
AcDbSymbolTableRecord
100
AcDbLayerTableRecord
  2
05_ALL_DTM_CSYS
 70
0
 62
7
  6
CONTINUOUS
370
-3
390
F
  0
LAYER
  5
20C
100
AcDbSymbolTableRecord
100
AcDbLayerTableRecord
  2
05__ASM_ALL_DTM_CSYS
 70
0
 62
7
  6
CONTINUOUS
370
-3
390
F
  0
LAYER
  5
20D
100
AcDbSymbolTableRecord
100
AcDbLayerTableRecord
  2
05__ASM_DEF_DTM_CSYS
 70
0
 62
7
  6
CONTINUOUS
370
-3
390
F
  0
LAYER
  5
20E
100
AcDbSymbolTableRecord
100
AcDbLayerTableRecord
  2
05___PRT_ALL_DTM_CSYS
 70
0
 62
7
  6
CONTINUOUS
370
-3
390
F
  0
LAYER
  5
20F
100
AcDbSymbolTableRecord
100
AcDbLayerTableRecord
  2
05___PRT_DEF_DTM_CSYS
 70
0
 62
7
  6
CONTINUOUS
370
-3
390
F
  0
LAYER
  5
210
100
AcDbSymbolTableRecord
100
AcDbLayerTableRecord
  2
06_ALL_SURFS
 70
0
 62
7
  6
CONTINUOUS
370
-3
390
F
  0
LAYER
  5
211
100
AcDbSymbolTableRecord
100
AcDbLayerTableRecord
  2
06__ASM_ALL_SURFS
 70
0
 62
7
  6
CONTINUOUS
370
-3
390
F
  0
LAYER
  5
212
100
AcDbSymbolTableRecord
100
AcDbLayerTableRecord
  2
06___PRT_ALL_SURFS
 70
0
 62
7
  6
CONTINUOUS
370
-3
390
F
  0
LAYER
  5
213
100
AcDbSymbolTableRecord
100
AcDbLayerTableRecord
  2
07__ASM_ALL_SKELETONS
 70
0
 62
7
  6
CONTINUOUS
370
-3
390
F
  0
LAYER
  5
214
100
AcDbSymbolTableRecord
100
AcDbLayerTableRecord
  2
256
 70
0
 62
7
  6
CONTINUOUS
370
-3
390
F
  0
LAYER
  5
215
100
AcDbSymbolTableRecord
100
AcDbLayerTableRecord
  2
3_ALL_SYMBOLS
 70
0
 62
7
  6
CONTINUOUS
370
-3
390
F
  0
LAYER
  5
216
100
AcDbSymbolTableRecord
100
AcDbLayerTableRecord
  2
58-58_DXF_FORMAT
 70
0
 62
7
  6
CONTINUOUS
370
-3
390
F
  0
LAYER
  5
217
100
AcDbSymbolTableRecord
100
AcDbLayerTableRecord
  2
MANIFOLD_SOLDXF_CONTINUOUS_LINE
 70
0
 62
7
  6
CONTINUOUS
370
-3
390
F
  0
LAYER
  5
218
100
AcDbSymbolTableRecord
100
AcDbLayerTableRecord
  2
MANIFOLD_SOLID_BDXF_HIDDEN_LINE
 70
0
 62
7
  6
CONTINUOUS
370
-3
390
F
  0
ENDTAB
  0
TABLE
  2
STYLE
  5
3
100
AcDbSymbolTable
 70
1
  0
STYLE
  5
11
100
AcDbSymbolTableRecord
100
AcDbTextStyleTableRecord
  2
STANDARD
 70
0
 40
0.0
 41
0.85
 50
0.0
 71
0
 42
0.2
  3
txt
  4

  0
ENDTAB
  0
TABLE
  2
VIEW
  5
6
100
AcDbSymbolTable
 70
0
  0
ENDTAB
  0
TABLE
  2
UCS
  5
7
100
AcDbSymbolTable
 70
0
  0
ENDTAB
  0
TABLE
  2
APPID
  5
9
100
AcDbSymbolTable
 70
1
  0
APPID
  5
219
100
AcDbSymbolTableRecord
100
AcDbRegAppTableRecord
  2
ACAD
 70
0
  0
ENDTAB
  0
TABLE
  2
BLOCK_RECORD
  5
1
100
AcDbSymbolTable
 70
0
  0
BLOCK_RECORD
  5
1F
100
AcDbSymbolTableRecord
100
AcDbBlockTableRecord
  2
*MODEL_SPACE
  0
BLOCK_RECORD
  5
1B
100
AcDbSymbolTableRecord
100
AcDbBlockTableRecord
  2
*PAPER_SPACE
  0
ENDTAB
  0
TABLE
  2
DIMSTYLE
  5
A
100
AcDbSymbolTable
 70
1
100
AcDbDimStyleTable
 71
0
  0
DIMSTYLE
105
21A
100
AcDbSymbolTableRecord
100
AcDbDimStyleTableRecord
  2
STANDARD
 70
0
  3

  4

 40
1.0
 41
3.5
 42
0.0625
 43
0.38
 44
0.18
 45
0.0
 46
0.0
 47
0.0001
 48
0.0001
140
3.5
141
0.09
142
0.0
143
25.4
144
1.0
145
0.0
146
1.0
147
0.09
 71
1.0
 72
0.0
 73
0
 74
0
 75
0
 76
0
 77
1
 78
8
170
0
171
2
172
0
173
0
174
0
175
0
176
0
177
0
178
0
270
2
271
4
272
4
273
2
274
2
275
0
280
0
281
0
282
0
283
1
284
8
285
0
286
0
287
3
288
0
340
11
  0
ENDTAB
  0
ENDSEC
  0
SECTION
  2
BLOCKS
  0
BLOCK
  5
20
100
AcDbEntity
  8
0
100
AcDbBlockBegin
  2
*MODEL_SPACE
 70
0
 10
0.0
 20
0.0
 30
0.0
  3
*MODEL_SPACE
  1

  0
ENDBLK
  5
21
100
AcDbEntity
  8
0
100
AcDbBlockEnd
  0
BLOCK
  5
1C
100
AcDbEntity
  8
0
100
AcDbBlockBegin
  2
*PAPER_SPACE
 70
0
 10
0.0
 20
0.0
 30
0.0
  3
*PAPER_SPACE
  1

  0
ENDBLK
  5
1D
100
AcDbEntity
  8
0
100
AcDbBlockEnd
  0
ENDSEC
  0
SECTION
  2
ENTITIES
  0
LINE
  5
21B
100
AcDbEntity
  8
58-58_DXF_FORMAT
100
AcDbLine
 62
7
  6
CONTINUOUS
 10
0.0
 20
0.0
 11
0.0
 21
420.0
  0
LINE
  5
21C
100
AcDbEntity
  8
58-58_DXF_FORMAT
100
AcDbLine
 62
7
  6
CONTINUOUS
 10
0.0
 20
0.0
 11
594.0
 21
0.0
  0
LINE
  5
21D
100
AcDbEntity
  8
58-58_DXF_FORMAT
100
AcDbLine
 62
7
  6
CONTINUOUS
 10
0.0
 20
420.0
 11
594.0
 21
420.0
  0
LINE
  5
21E
100
AcDbEntity
  8
58-58_DXF_FORMAT
100
AcDbLine
 62
7
  6
CONTINUOUS
 10
594.0
 20
0.0
 11
594.0
 21
420.0
  0
LINE
  5
21F
100
AcDbEntity
  8
MANIFOLD_SOLDXF_CONTINUOUS_LINE
100
AcDbLine
 62
7
  6
CONTINUOUS
 10
131.0822463946
 20
136.2529312743
 11
131.0822463946
 21
187.6547285001
  0
LINE
  5
220
100
AcDbEntity
  8
MANIFOLD_SOLDXF_CONTINUOUS_LINE
100
AcDbLine
 62
7
  6
CONTINUOUS
 10
131.0822768652
 20
187.6546980295
 11
131.0822768652
 21
180.3538298872
  0
LINE
  5
221
100
AcDbEntity
  8
MANIFOLD_SOLDXF_CONTINUOUS_LINE
100
AcDbLine
 62
7
  6
CONTINUOUS
 10
131.0822768652
 20
174.4538298872
 11
131.0822768652
 21
149.4538298872
  0
LINE
  5
222
100
AcDbEntity
  8
MANIFOLD_SOLDXF_CONTINUOUS_LINE
100
AcDbLine
 62
7
  6
CONTINUOUS
 10
131.0822768652
 20
143.5538298872
 11
131.0822768652
 21
136.252961745
  0
LINE
  5
223
100
AcDbEntity
  8
MANIFOLD_SOLID_BDXF_HIDDEN_LINE
100
AcDbLine
 62
8
  6
HIDDEN
 10
131.0910043977
 20
144.0538298872
 11
131.0910043977
 21
148.9538298872
  0
LINE
  5
224
100
AcDbEntity
  8
MANIFOLD_SOLID_BDXF_HIDDEN_LINE
100
AcDbLine
 62
8
  6
HIDDEN
 10
131.0910043977
 20
174.9538298872
 11
131.0910043977
 21
179.8538298872
  0
LINE
  5
225
100
AcDbEntity
  8
MANIFOLD_SOLDXF_CONTINUOUS_LINE
100
AcDbLine
 62
7
  6
CONTINUOUS
 10
131.2224961798
 20
187.5144787149
 11
131.2224961798
 21
136.3931810595
  0
LINE
  5
226
100
AcDbEntity
  8
MANIFOLD_SOLID_BDXF_HIDDEN_LINE
100
AcDbLine
 62
8
  6
HIDDEN
 10
131.2225266504
 20
136.3932115302
 11
131.2225266504
 21
187.5144482443
  0
LINE
  5
227
100
AcDbEntity
  8
MANIFOLD_SOLID_BDXF_HIDDEN_LINE
100
AcDbLine
 62
8
  6
HIDDEN
 10
131.8180282468
 20
149.6538298872
 11
131.8180282468
 21
143.3538298872
  0
LINE
  5
228
100
AcDbEntity
  8
MANIFOLD_SOLID_BDXF_HIDDEN_LINE
100
AcDbLine
 62
8
  6
HIDDEN
 10
131.8180282468
 20
174.2538298872
 11
131.8180282468
 21
180.5538298872
  0
LINE
  5
229
100
AcDbEntity
  8
MANIFOLD_SOLID_BDXF_HIDDEN_LINE
100
AcDbLine
 62
8
  6
HIDDEN
 10
131.9180282468
 20
149.4538298872
 11
131.9180282468
 21
143.5538298872
  0
LINE
  5
22A
100
AcDbEntity
  8
MANIFOLD_SOLID_BDXF_HIDDEN_LINE
100
AcDbLine
 62
8
  6
HIDDEN
 10
131.9180282468
 20
174.4538298872
 11
131.9180282468
 21
180.3538298872
  0
LINE
  5
22B
100
AcDbEntity
  8
MANIFOLD_SOLID_BDXF_HIDDEN_LINE
100
AcDbLine
 62
8
  6
HIDDEN
 10
132.4680282468
 20
180.5538298872
 11
132.4680282468
 21
174.2538298872
  0
LINE
  5
22C
100
AcDbEntity
  8
MANIFOLD_SOLID_BDXF_HIDDEN_LINE
100
AcDbLine
 62
8
  6
HIDDEN
 10
132.4680282468
 20
180.3538298872
 11
132.4680282468
 21
174.4538298872
  0
LINE
  5
22D
100
AcDbEntity
  8
MANIFOLD_SOLID_BDXF_HIDDEN_LINE
100
AcDbLine
 62
8
  6
HIDDEN
 10
132.4680282468
 20
149.6538298872
 11
132.4680282468
 21
143.3538298872
  0
LINE
  5
22E
100
AcDbEntity
  8
MANIFOLD_SOLID_BDXF_HIDDEN_LINE
100
AcDbLine
 62
8
  6
HIDDEN
 10
132.4680282468
 20
149.4538298872
 11
132.4680282468
 21
143.5538298872
  0
LINE
  5
22F
100
AcDbEntity
  8
MANIFOLD_SOLID_BDXF_HIDDEN_LINE
100
AcDbLine
 62
8
  6
HIDDEN
 10
132.4826935607
 20
136.2535916672
 11
132.4826935607
 21
187.6540681072
  0
LINE
  5
230
100
AcDbEntity
  8
MANIFOLD_SOLID_BDXF_HIDDEN_LINE
100
AcDbLine
 62
8
  6
HIDDEN
 10
132.5123671711
 20
143.3538298872
 11
132.5123671711
 21
149.6538298872
  0
LINE
  5
231
100
AcDbEntity
  8
MANIFOLD_SOLID_BDXF_HIDDEN_LINE
100
AcDbLine
 62
8
  6
HIDDEN
 10
132.5123671711
 20
174.2538298872
 11
132.5123671711
 21
180.5538298872
  0
LINE
  5
232
100
AcDbEntity
  8
MANIFOLD_SOLID_BDXF_HIDDEN_LINE
100
AcDbLine
 62
8
  6
HIDDEN
 10
132.5350587555
 20
143.3538298872
 11
132.5350587555
 21
149.6538298872
  0
LINE
  5
233
100
AcDbEntity
  8
MANIFOLD_SOLID_BDXF_HIDDEN_LINE
100
AcDbLine
 62
8
  6
HIDDEN
 10
132.5350587555
 20
174.2538298872
 11
132.5350587555
 21
180.5538298872
  0
LINE
  5
234
100
AcDbEntity
  8
MANIFOLD_SOLID_BDXF_HIDDEN_LINE
100
AcDbLine
 62
8
  6
HIDDEN
 10
132.5813639771
 20
179.8538298872
 11
132.5813639771
 21
174.9538298872
  0
LINE
  5
235
100
AcDbEntity
  8
MANIFOLD_SOLID_BDXF_HIDDEN_LINE
100
AcDbLine
 62
8
  6
HIDDEN
 10
132.5813639771
 20
144.0538298872
 11
132.5813639771
 21
148.9538298872
  0
LINE
  5
236
100
AcDbEntity
  8
MANIFOLD_SOLID_BDXF_HIDDEN_LINE
100
AcDbLine
 62
8
  6
HIDDEN
 10
132.585727411
 20
187.6005640186
 11
132.585727411
 21
180.3538298872
  0
LINE
  5
237
100
AcDbEntity
  8
MANIFOLD_SOLID_BDXF_HIDDEN_LINE
100
AcDbLine
 62
8
  6
HIDDEN
 10
132.585727411
 20
174.4538298872
 11
132.585727411
 21
149.4538298872
  0
LINE
  5
238
100
AcDbEntity
  8
MANIFOLD_SOLID_BDXF_HIDDEN_LINE
100
AcDbLine
 62
8
  6
HIDDEN
 10
132.585727411
 20
143.5538298872
 11
132.585727411
 21
136.3070957558
  0
LINE
  5
239
100
AcDbEntity
  8
MANIFOLD_SOLID_BDXF_HIDDEN_LINE
100
AcDbLine
 62
8
  6
HIDDEN
 10
132.6014357731
 20
143.5538298872
 11
132.6014357731
 21
149.4538298872
  0
LINE
  5
23A
100
AcDbEntity
  8
MANIFOLD_SOLID_BDXF_HIDDEN_LINE
100
AcDbLine
 62
8
  6
HIDDEN
 10
132.6014357731
 20
174.4538298872
 11
132.6014357731
 21
180.3538298872
  0
LINE
  5
23B
100
AcDbEntity
  8
MANIFOLD_SOLID_BDXF_HIDDEN_LINE
100
AcDbLine
 62
8
  6
HIDDEN
 10
132.6119080144
 20
187.5743834152
 11
132.6119080144
 21
136.3332763592
  0
LINE
  5
23C
100
AcDbEntity
  8
MANIFOLD_SOLID_BDXF_HIDDEN_LINE
100
AcDbLine
 62
8
  6
HIDDEN
 10
132.6223340801
 20
187.5144275878
 11
132.6223340801
 21
136.3932321867
  0
LINE
  5
23D
100
AcDbEntity
  8
MANIFOLD_SOLID_BDXF_HIDDEN_LINE
100
AcDbLine
 62
8
  6
HIDDEN
 10
133.2216801429
 20
187.5681223001
 11
133.2216801429
 21
136.3395374743
  0
LINE
  5
23E
100
AcDbEntity
  8
MANIFOLD_SOLDXF_CONTINUOUS_LINE
100
AcDbLine
 62
7
  6
CONTINUOUS
 10
133.2221915701
 20
136.3931810595
 11
133.2221915701
 21
187.5144787149
  0
LINE
  5
23F
100
AcDbEntity
  8
MANIFOLD_SOLDXF_CONTINUOUS_LINE
100
AcDbLine
 62
7
  6
CONTINUOUS
 10
136.5814087179
 20
130.753768951
 11
187.9832059437
 21
130.753768951
  0
LINE
  5
240
100
AcDbEntity
  8
MANIFOLD_SOLDXF_CONTINUOUS_LINE
100
AcDbLine
 62
7
  6
CONTINUOUS
 10
187.9831754731
 20
130.7537994216
 11
136.5814391886
 21
130.7537994216
  0
LINE
  5
241
100
AcDbEntity
  8
MANIFOLD_SOLDXF_CONTINUOUS_LINE
100
AcDbLine
 62
7
  6
CONTINUOUS
 10
136.7216585031
 20
130.8940187362
 11
187.8429561585
 21
130.8940187362
  0
LINE
  5
242
100
AcDbEntity
  8
MANIFOLD_SOLID_BDXF_HIDDEN_LINE
100
AcDbLine
 62
8
  6
HIDDEN
 10
187.8429256879
 20
130.8940492068
 11
136.7216889738
 21
130.8940492068
  0
LINE
  5
243
100
AcDbEntity
  8
MANIFOLD_SOLID_BDXF_HIDDEN_LINE
100
AcDbLine
 62
8
  6
HIDDEN
 10
136.5820691108
 20
132.1542161171
 11
187.9825455508
 21
132.1542161171
  0
LINE
  5
244
100
AcDbEntity
  8
MANIFOLD_SOLID_BDXF_HIDDEN_LINE
100
AcDbLine
 62
8
  6
HIDDEN
 10
187.9290414622
 20
132.2572499674
 11
136.6355731994
 21
132.2572499674
  0
LINE
  5
245
100
AcDbEntity
  8
MANIFOLD_SOLID_BDXF_HIDDEN_LINE
100
AcDbLine
 62
8
  6
HIDDEN
 10
187.9028608588
 20
132.2834305708
 11
136.6617538028
 21
132.2834305708
  0
LINE
  5
246
100
AcDbEntity
  8
MANIFOLD_SOLID_BDXF_HIDDEN_LINE
100
AcDbLine
 62
8
  6
HIDDEN
 10
136.7217096303
 20
132.2938566365
 11
187.8429050314
 21
132.2938566365
  0
LINE
  5
247
100
AcDbEntity
  8
MANIFOLD_SOLID_BDXF_HIDDEN_LINE
100
AcDbLine
 62
8
  6
HIDDEN
 10
136.6680149179
 20
132.8932026993
 11
187.8965997437
 21
132.8932026993
  0
LINE
  5
248
100
AcDbEntity
  8
MANIFOLD_SOLDXF_CONTINUOUS_LINE
100
AcDbLine
 62
7
  6
CONTINUOUS
 10
187.8429561585
 20
132.8937141265
 11
136.7216585031
 21
132.8937141265
  0
LINE
  5
249
100
AcDbEntity
  8
MANIFOLD_SOLID_BDXF_HIDDEN_LINE
100
AcDbLine
 62
8
  6
HIDDEN
 10
133.2792765345
 20
187.5681223001
 11
133.2792765345
 21
136.3395374743
  0
LINE
  5
24A
100
AcDbEntity
  8
MANIFOLD_SOLID_BDXF_HIDDEN_LINE
100
AcDbLine
 62
8
  6
HIDDEN
 10
136.6680149179
 20
132.9507990909
 11
187.8965997437
 21
132.9507990909
  0
LINE
  5
24B
100
AcDbEntity
  8
MANIFOLD_SOLID_BDXF_HIDDEN_LINE
100
AcDbLine
 62
8
  6
HIDDEN
 10
136.6680149179
 20
132.8932026993
 11
136.6680149179
 21
132.9507990909
  0
LINE
  5
24C
100
AcDbEntity
  8
MANIFOLD_SOLID_BDXF_HIDDEN_LINE
100
AcDbLine
 62
8
  6
HIDDEN
 10
136.6680149179
 20
190.9568606835
 11
136.6680149179
 21
191.0144570752
  0
LINE
  5
24D
100
AcDbEntity
  8
MANIFOLD_SOLDXF_CONTINUOUS_LINE
100
AcDbLine
 62
7
  6
CONTINUOUS
 10
136.7216585031
 20
130.8940187362
 11
136.7216585031
 21
132.8937141265
  0
LINE
  5
24E
100
AcDbEntity
  8
MANIFOLD_SOLDXF_CONTINUOUS_LINE
100
AcDbLine
 62
7
  6
CONTINUOUS
 10
136.7216585031
 20
191.013945648
 11
136.7216585031
 21
193.0136410383
  0
LINE
  5
24F
100
AcDbEntity
  8
MANIFOLD_SOLID_BDXF_HIDDEN_LINE
100
AcDbLine
 62
8
  6
HIDDEN
 10
136.7216889738
 20
193.0136105676
 11
136.7216889738
 21
191.0139151773
  0
LINE
  5
250
100
AcDbEntity
  8
MANIFOLD_SOLID_BDXF_HIDDEN_LINE
100
AcDbLine
 62
8
  6
HIDDEN
 10
136.7216889738
 20
132.8937445971
 11
136.7216889738
 21
130.8940492068
  0
LINE
  5
251
100
AcDbEntity
  8
MANIFOLD_SOLID_BDXF_HIDDEN_LINE
100
AcDbLine
 62
8
  6
HIDDEN
 10
191.3429345188
 20
136.3395374743
 11
191.2853381271
 21
136.3395374743
  0
LINE
  5
252
100
AcDbEntity
  8
MANIFOLD_SOLID_BDXF_HIDDEN_LINE
100
AcDbLine
 62
8
  6
HIDDEN
 10
133.2792765345
 20
136.3395374743
 11
133.2216801429
 21
136.3395374743
  0
LINE
  5
253
100
AcDbEntity
  8
MANIFOLD_SOLDXF_CONTINUOUS_LINE
100
AcDbLine
 62
7
  6
CONTINUOUS
 10
193.3421184819
 20
136.3931810595
 11
191.3424230916
 21
136.3931810595
  0
LINE
  5
254
100
AcDbEntity
  8
MANIFOLD_SOLDXF_CONTINUOUS_LINE
100
AcDbLine
 62
7
  6
CONTINUOUS
 10
133.2221915701
 20
136.3931810595
 11
131.2224961798
 21
136.3931810595
  0
LINE
  5
255
100
AcDbEntity
  8
MANIFOLD_SOLID_BDXF_HIDDEN_LINE
100
AcDbLine
 62
8
  6
HIDDEN
 10
131.2225266504
 20
136.3932115302
 11
133.2222220407
 21
136.3932115302
  0
LINE
  5
256
100
AcDbEntity
  8
MANIFOLD_SOLID_BDXF_HIDDEN_LINE
100
AcDbLine
 62
8
  6
HIDDEN
 10
191.3423926209
 20
136.3932115302
 11
193.3420880112
 21
136.3932115302
  0
LINE
  5
257
100
AcDbEntity
  8
MANIFOLD_SOLID_BDXF_HIDDEN_LINE
100
AcDbLine
 62
8
  6
HIDDEN
 10
131.8182740362
 20
143.3538298872
 11
132.5350587555
 21
143.3538298872
  0
LINE
  5
258
100
AcDbEntity
  8
MANIFOLD_SOLID_BDXF_HIDDEN_LINE
100
AcDbLine
 62
8
  6
HIDDEN
 10
192.0295559062
 20
143.3538298872
 11
192.7465864148
 21
143.3538298872
  0
LINE
  5
259
100
AcDbEntity
  8
MANIFOLD_SOLID_BDXF_HIDDEN_LINE
100
AcDbLine
 62
8
  6
HIDDEN
 10
131.0822768652
 20
143.5538298872
 11
132.6110353276
 21
143.5538298872
  0
LINE
  5
25A
100
AcDbEntity
  8
MANIFOLD_SOLID_BDXF_HIDDEN_LINE
100
AcDbLine
 62
8
  6
HIDDEN
 10
191.953579334
 20
143.5538298872
 11
193.4823377964
 21
143.5538298872
  0
LINE
  5
25B
100
AcDbEntity
  8
MANIFOLD_SOLID_BDXF_HIDDEN_LINE
100
AcDbLine
 62
8
  6
HIDDEN
 10
193.473610264
 20
144.0538298872
 11
191.9832506845
 21
144.0538298872
  0
LINE
  5
25C
100
AcDbEntity
  8
MANIFOLD_SOLID_BDXF_HIDDEN_LINE
100
AcDbLine
 62
8
  6
HIDDEN
 10
132.5813639771
 20
144.0538298872
 11
131.0910043977
 21
144.0538298872
  0
LINE
  5
25D
100
AcDbEntity
  8
MANIFOLD_SOLID_BDXF_HIDDEN_LINE
100
AcDbLine
 62
8
  6
HIDDEN
 10
131.0910043977
 20
148.9538298872
 11
132.5813639771
 21
148.9538298872
  0
LINE
  5
25E
100
AcDbEntity
  8
MANIFOLD_SOLID_BDXF_HIDDEN_LINE
100
AcDbLine
 62
8
  6
HIDDEN
 10
191.9832506845
 20
148.9538298872
 11
193.473610264
 21
148.9538298872
  0
LINE
  5
25F
100
AcDbEntity
  8
MANIFOLD_SOLID_BDXF_HIDDEN_LINE
100
AcDbLine
 62
8
  6
HIDDEN
 10
132.6110353276
 20
149.4538298872
 11
131.0822768652
 21
149.4538298872
  0
LINE
  5
260
100
AcDbEntity
  8
MANIFOLD_SOLID_BDXF_HIDDEN_LINE
100
AcDbLine
 62
8
  6
HIDDEN
 10
191.953579334
 20
149.4538298872
 11
193.4823377964
 21
149.4538298872
  0
LINE
  5
261
100
AcDbEntity
  8
MANIFOLD_SOLID_BDXF_HIDDEN_LINE
100
AcDbLine
 62
8
  6
HIDDEN
 10
192.7463406255
 20
149.6538298872
 11
192.0295559062
 21
149.6538298872
  0
LINE
  5
262
100
AcDbEntity
  8
MANIFOLD_SOLID_BDXF_HIDDEN_LINE
100
AcDbLine
 62
8
  6
HIDDEN
 10
131.8180282468
 20
149.6538298872
 11
132.5350587555
 21
149.6538298872
  0
LINE
  5
263
100
AcDbEntity
  8
MANIFOLD_SOLID_BDXF_HIDDEN_LINE
100
AcDbLine
 62
8
  6
HIDDEN
 10
187.9831754731
 20
193.1538603528
 11
187.8429256879
 21
193.0136105676
  0
LINE
  5
264
100
AcDbEntity
  8
MANIFOLD_SOLID_BDXF_HIDDEN_LINE
100
AcDbLine
 62
8
  6
HIDDEN
 10
131.2225266504
 20
136.3932115302
 11
131.0822768652
 21
136.252961745
  0
LINE
  5
265
100
AcDbEntity
  8
MANIFOLD_SOLDXF_CONTINUOUS_LINE
100
AcDbLine
 62
7
  6
CONTINUOUS
 10
131.0822463946
 20
136.2529312743
 11
131.2224961798
 21
136.3931810595
  0
LINE
  5
266
100
AcDbEntity
  8
MANIFOLD_SOLDXF_CONTINUOUS_LINE
100
AcDbLine
 62
7
  6
CONTINUOUS
 10
187.8429561585
 20
193.0136410383
 11
187.9832059437
 21
193.1538908235
  0
LINE
  5
267
100
AcDbEntity
  8
MANIFOLD_SOLID_BDXF_HIDDEN_LINE
100
AcDbLine
 62
8
  6
HIDDEN
 10
187.9825455508
 20
191.7534436573
 11
187.8429050314
 21
191.6138031379
  0
LINE
  5
268
100
AcDbEntity
  8
MANIFOLD_SOLID_BDXF_HIDDEN_LINE
100
AcDbLine
 62
8
  6
HIDDEN
 10
132.6223340801
 20
136.3932321867
 11
132.4826935607
 21
136.2535916672
  0
LINE
  5
269
100
AcDbEntity
  8
MANIFOLD_SOLID_BDXF_HIDDEN_LINE
100
AcDbLine
 62
8
  6
HIDDEN
 10
132.585727411
 20
136.3070957558
 11
132.6119080144
 21
136.3332763592
  0
LINE
  5
26A
100
AcDbEntity
  8
MANIFOLD_SOLID_BDXF_HIDDEN_LINE
100
AcDbLine
 62
8
  6
HIDDEN
 10
187.9028608588
 20
191.6242292036
 11
187.9290414622
 21
191.650409807
  0
LINE
  5
26B
100
AcDbEntity
  8
MANIFOLD_SOLID_BDXF_HIDDEN_LINE
100
AcDbLine
 62
8
  6
HIDDEN
 10
131.0822768652
 20
187.6546980295
 11
131.2225266504
 21
187.5144482443
  0
LINE
  5
26C
100
AcDbEntity
  8
MANIFOLD_SOLDXF_CONTINUOUS_LINE
100
AcDbLine
 62
7
  6
CONTINUOUS
 10
187.9832059437
 20
130.753768951
 11
187.8429561585
 21
130.8940187362
  0
LINE
  5
26D
100
AcDbEntity
  8
MANIFOLD_SOLID_BDXF_HIDDEN_LINE
100
AcDbLine
 62
8
  6
HIDDEN
 10
187.8429256879
 20
130.8940492068
 11
187.9831754731
 21
130.7537994216
  0
LINE
  5
26E
100
AcDbEntity
  8
MANIFOLD_SOLDXF_CONTINUOUS_LINE
100
AcDbLine
 62
7
  6
CONTINUOUS
 10
131.2224961798
 20
187.5144787149
 11
131.0822463946
 21
187.6547285001
  0
LINE
  5
26F
100
AcDbEntity
  8
MANIFOLD_SOLID_BDXF_HIDDEN_LINE
100
AcDbLine
 62
8
  6
HIDDEN
 10
132.4826935607
 20
187.6540681072
 11
132.6223340801
 21
187.5144275878
  0
LINE
  5
270
100
AcDbEntity
  8
MANIFOLD_SOLID_BDXF_HIDDEN_LINE
100
AcDbLine
 62
8
  6
HIDDEN
 10
187.8429050314
 20
132.2938566365
 11
187.9825455508
 21
132.1542161171
  0
LINE
  5
271
100
AcDbEntity
  8
MANIFOLD_SOLID_BDXF_HIDDEN_LINE
100
AcDbLine
 62
8
  6
HIDDEN
 10
187.9290414622
 20
132.2572499674
 11
187.9028608588
 21
132.2834305708
  0
LINE
  5
272
100
AcDbEntity
  8
MANIFOLD_SOLID_BDXF_HIDDEN_LINE
100
AcDbLine
 62
8
  6
HIDDEN
 10
132.6119080144
 20
187.5743834152
 11
132.585727411
 21
187.6005640186
  0
LINE
  5
273
100
AcDbEntity
  8
MANIFOLD_SOLID_BDXF_HIDDEN_LINE
100
AcDbLine
 62
8
  6
HIDDEN
 10
191.9788872506
 20
187.6005640186
 11
191.9527066472
 21
187.5743834152
  0
LINE
  5
274
100
AcDbEntity
  8
MANIFOLD_SOLID_BDXF_HIDDEN_LINE
100
AcDbLine
 62
8
  6
HIDDEN
 10
136.6617538028
 20
132.2834305708
 11
136.6355731994
 21
132.2572499674
  0
LINE
  5
275
100
AcDbEntity
  8
MANIFOLD_SOLID_BDXF_HIDDEN_LINE
100
AcDbLine
 62
8
  6
HIDDEN
 10
136.5820691108
 20
132.1542161171
 11
136.7217096303
 21
132.2938566365
  0
LINE
  5
276
100
AcDbEntity
  8
MANIFOLD_SOLID_BDXF_HIDDEN_LINE
100
AcDbLine
 62
8
  6
HIDDEN
 10
191.9422805815
 20
187.5144275878
 11
192.081921101
 21
187.6540681072
  0
LINE
  5
277
100
AcDbEntity
  8
MANIFOLD_SOLID_BDXF_HIDDEN_LINE
100
AcDbLine
 62
8
  6
HIDDEN
 10
136.6355731994
 20
191.650409807
 11
136.6617538028
 21
191.6242292036
  0
LINE
  5
278
100
AcDbEntity
  8
MANIFOLD_SOLID_BDXF_HIDDEN_LINE
100
AcDbLine
 62
8
  6
HIDDEN
 10
191.9527066472
 20
136.3332763592
 11
191.9788872506
 21
136.3070957558
  0
LINE
  5
279
100
AcDbEntity
  8
MANIFOLD_SOLID_BDXF_HIDDEN_LINE
100
AcDbLine
 62
8
  6
HIDDEN
 10
192.081921101
 20
136.2535916672
 11
191.9422805815
 21
136.3932321867
  0
LINE
  5
27A
100
AcDbEntity
  8
MANIFOLD_SOLID_BDXF_HIDDEN_LINE
100
AcDbLine
 62
8
  6
HIDDEN
 10
136.7217096303
 20
191.6138031379
 11
136.5820691108
 21
191.7534436573
  0
LINE
  5
27B
100
AcDbEntity
  8
MANIFOLD_SOLDXF_CONTINUOUS_LINE
100
AcDbLine
 62
7
  6
CONTINUOUS
 10
193.4823682671
 20
187.6547285001
 11
193.3421184819
 21
187.5144787149
  0
LINE
  5
27C
100
AcDbEntity
  8
MANIFOLD_SOLDXF_CONTINUOUS_LINE
100
AcDbLine
 62
7
  6
CONTINUOUS
 10
136.7216585031
 20
130.8940187362
 11
136.5814087179
 21
130.753768951
  0
LINE
  5
27D
100
AcDbEntity
  8
MANIFOLD_SOLID_BDXF_HIDDEN_LINE
100
AcDbLine
 62
8
  6
HIDDEN
 10
136.5814391886
 20
130.7537994216
 11
136.7216889738
 21
130.8940492068
  0
LINE
  5
27E
100
AcDbEntity
  8
MANIFOLD_SOLID_BDXF_HIDDEN_LINE
100
AcDbLine
 62
8
  6
HIDDEN
 10
193.3420880112
 20
187.5144482443
 11
193.4823377964
 21
187.6546980295
  0
LINE
  5
27F
100
AcDbEntity
  8
MANIFOLD_SOLDXF_CONTINUOUS_LINE
100
AcDbLine
 62
7
  6
CONTINUOUS
 10
136.5814087179
 20
193.1538908235
 11
136.7216585031
 21
193.0136410383
  0
LINE
  5
280
100
AcDbEntity
  8
MANIFOLD_SOLID_BDXF_HIDDEN_LINE
100
AcDbLine
 62
8
  6
HIDDEN
 10
193.4823377964
 20
136.252961745
 11
193.3420880112
 21
136.3932115302
  0
LINE
  5
281
100
AcDbEntity
  8
MANIFOLD_SOLDXF_CONTINUOUS_LINE
100
AcDbLine
 62
7
  6
CONTINUOUS
 10
193.3421184819
 20
136.3931810595
 11
193.4823682671
 21
136.2529312743
  0
LINE
  5
282
100
AcDbEntity
  8
MANIFOLD_SOLID_BDXF_HIDDEN_LINE
100
AcDbLine
 62
8
  6
HIDDEN
 10
136.7216889738
 20
193.0136105676
 11
136.5814391886
 21
193.1538603528
  0
LINE
  5
283
100
AcDbEntity
  8
MANIFOLD_SOLID_BDXF_HIDDEN_LINE
100
AcDbLine
 62
8
  6
HIDDEN
 10
131.8182740362
 20
174.2538298872
 11
132.5350587555
 21
174.2538298872
  0
LINE
  5
284
100
AcDbEntity
  8
MANIFOLD_SOLID_BDXF_HIDDEN_LINE
100
AcDbLine
 62
8
  6
HIDDEN
 10
192.0295559062
 20
174.2538298872
 11
192.7463406299
 21
174.2538298872
  0
LINE
  5
285
100
AcDbEntity
  8
MANIFOLD_SOLID_BDXF_HIDDEN_LINE
100
AcDbLine
 62
8
  6
HIDDEN
 10
131.0822768652
 20
174.4538298872
 11
132.6110353276
 21
174.4538298872
  0
LINE
  5
286
100
AcDbEntity
  8
MANIFOLD_SOLID_BDXF_HIDDEN_LINE
100
AcDbLine
 62
8
  6
HIDDEN
 10
191.953579334
 20
174.4538298872
 11
193.4823377964
 21
174.4538298872
  0
LINE
  5
287
100
AcDbEntity
  8
MANIFOLD_SOLID_BDXF_HIDDEN_LINE
100
AcDbLine
 62
8
  6
HIDDEN
 10
193.473610264
 20
174.9538298872
 11
191.9832506845
 21
174.9538298872
  0
LINE
  5
288
100
AcDbEntity
  8
MANIFOLD_SOLID_BDXF_HIDDEN_LINE
100
AcDbLine
 62
8
  6
HIDDEN
 10
132.5813639771
 20
174.9538298872
 11
131.0910043977
 21
174.9538298872
  0
LINE
  5
289
100
AcDbEntity
  8
MANIFOLD_SOLID_BDXF_HIDDEN_LINE
100
AcDbLine
 62
8
  6
HIDDEN
 10
131.0910043977
 20
179.8538298872
 11
132.5813639771
 21
179.8538298872
  0
LINE
  5
28A
100
AcDbEntity
  8
MANIFOLD_SOLID_BDXF_HIDDEN_LINE
100
AcDbLine
 62
8
  6
HIDDEN
 10
191.9832506845
 20
179.8538298872
 11
193.473610264
 21
179.8538298872
  0
LINE
  5
28B
100
AcDbEntity
  8
MANIFOLD_SOLID_BDXF_HIDDEN_LINE
100
AcDbLine
 62
8
  6
HIDDEN
 10
132.6110353276
 20
180.3538298872
 11
131.0822768652
 21
180.3538298872
  0
LINE
  5
28C
100
AcDbEntity
  8
MANIFOLD_SOLID_BDXF_HIDDEN_LINE
100
AcDbLine
 62
8
  6
HIDDEN
 10
191.953579334
 20
180.3538298872
 11
193.4823377964
 21
180.3538298872
  0
LINE
  5
28D
100
AcDbEntity
  8
MANIFOLD_SOLID_BDXF_HIDDEN_LINE
100
AcDbLine
 62
8
  6
HIDDEN
 10
192.7463406299
 20
180.5538298872
 11
192.0295559062
 21
180.5538298872
  0
LINE
  5
28E
100
AcDbEntity
  8
MANIFOLD_SOLID_BDXF_HIDDEN_LINE
100
AcDbLine
 62
8
  6
HIDDEN
 10
131.8180282468
 20
180.5538298872
 11
132.5350587555
 21
180.5538298872
  0
LINE
  5
28F
100
AcDbEntity
  8
MANIFOLD_SOLID_BDXF_HIDDEN_LINE
100
AcDbLine
 62
8
  6
HIDDEN
 10
187.8429256879
 20
130.8940492068
 11
187.8429256879
 21
132.8937445971
  0
LINE
  5
290
100
AcDbEntity
  8
MANIFOLD_SOLID_BDXF_HIDDEN_LINE
100
AcDbLine
 62
8
  6
HIDDEN
 10
187.8429256879
 20
191.0139151773
 11
187.8429256879
 21
193.0136105676
  0
LINE
  5
291
100
AcDbEntity
  8
MANIFOLD_SOLDXF_CONTINUOUS_LINE
100
AcDbLine
 62
7
  6
CONTINUOUS
 10
187.8429561585
 20
193.0136410383
 11
187.8429561585
 21
191.013945648
  0
LINE
  5
292
100
AcDbEntity
  8
MANIFOLD_SOLDXF_CONTINUOUS_LINE
100
AcDbLine
 62
7
  6
CONTINUOUS
 10
187.8429561585
 20
132.8937141265
 11
187.8429561585
 21
130.8940187362
  0
LINE
  5
293
100
AcDbEntity
  8
MANIFOLD_SOLID_BDXF_HIDDEN_LINE
100
AcDbLine
 62
8
  6
HIDDEN
 10
187.8965997437
 20
191.0144570752
 11
187.8965997437
 21
190.9568606835
  0
LINE
  5
294
100
AcDbEntity
  8
MANIFOLD_SOLID_BDXF_HIDDEN_LINE
100
AcDbLine
 62
8
  6
HIDDEN
 10
187.8965997437
 20
132.9507990909
 11
187.8965997437
 21
132.8932026993
  0
LINE
  5
295
100
AcDbEntity
  8
MANIFOLD_SOLID_BDXF_HIDDEN_LINE
100
AcDbLine
 62
8
  6
HIDDEN
 10
193.3420880112
 20
187.5144482443
 11
191.3423926209
 21
187.5144482443
  0
LINE
  5
296
100
AcDbEntity
  8
MANIFOLD_SOLID_BDXF_HIDDEN_LINE
100
AcDbLine
 62
8
  6
HIDDEN
 10
133.2222220407
 20
187.5144482443
 11
131.2225266504
 21
187.5144482443
  0
LINE
  5
297
100
AcDbEntity
  8
MANIFOLD_SOLDXF_CONTINUOUS_LINE
100
AcDbLine
 62
7
  6
CONTINUOUS
 10
131.2224961798
 20
187.5144787149
 11
133.2221915701
 21
187.5144787149
  0
LINE
  5
298
100
AcDbEntity
  8
MANIFOLD_SOLDXF_CONTINUOUS_LINE
100
AcDbLine
 62
7
  6
CONTINUOUS
 10
191.3424230916
 20
187.5144787149
 11
193.3421184819
 21
187.5144787149
  0
LINE
  5
299
100
AcDbEntity
  8
MANIFOLD_SOLID_BDXF_HIDDEN_LINE
100
AcDbLine
 62
8
  6
HIDDEN
 10
133.2216801429
 20
187.5681223001
 11
133.2792765345
 21
187.5681223001
  0
LINE
  5
29A
100
AcDbEntity
  8
MANIFOLD_SOLID_BDXF_HIDDEN_LINE
100
AcDbLine
 62
8
  6
HIDDEN
 10
191.2853381271
 20
187.5681223001
 11
191.3429345188
 21
187.5681223001
  0
LINE
  5
29B
100
AcDbEntity
  8
MANIFOLD_SOLID_BDXF_HIDDEN_LINE
100
AcDbLine
 62
8
  6
HIDDEN
 10
191.2853381271
 20
136.3395374743
 11
191.2853381271
 21
187.5681223001
  0
LINE
  5
29C
100
AcDbEntity
  8
MANIFOLD_SOLDXF_CONTINUOUS_LINE
100
AcDbLine
 62
7
  6
CONTINUOUS
 10
191.3424230916
 20
187.5144787149
 11
191.3424230916
 21
136.3931810595
  0
LINE
  5
29D
100
AcDbEntity
  8
MANIFOLD_SOLID_BDXF_HIDDEN_LINE
100
AcDbLine
 62
8
  6
HIDDEN
 10
191.3429345188
 20
136.3395374743
 11
191.3429345188
 21
187.5681223001
  0
LINE
  5
29E
100
AcDbEntity
  8
MANIFOLD_SOLID_BDXF_HIDDEN_LINE
100
AcDbLine
 62
8
  6
HIDDEN
 10
191.9422805815
 20
187.5144275878
 11
191.9422805815
 21
136.3932321867
  0
LINE
  5
29F
100
AcDbEntity
  8
MANIFOLD_SOLID_BDXF_HIDDEN_LINE
100
AcDbLine
 62
8
  6
HIDDEN
 10
191.9527066472
 20
136.3332763592
 11
191.9527066472
 21
187.5743834152
  0
LINE
  5
2A0
100
AcDbEntity
  8
MANIFOLD_SOLID_BDXF_HIDDEN_LINE
100
AcDbLine
 62
8
  6
HIDDEN
 10
191.9631788886
 20
143.5538298872
 11
191.9631788886
 21
149.4538298872
  0
LINE
  5
2A1
100
AcDbEntity
  8
MANIFOLD_SOLID_BDXF_HIDDEN_LINE
100
AcDbLine
 62
8
  6
HIDDEN
 10
191.9631788886
 20
174.4538298872
 11
191.9631788886
 21
180.3538298872
  0
LINE
  5
2A2
100
AcDbEntity
  8
MANIFOLD_SOLID_BDXF_HIDDEN_LINE
100
AcDbLine
 62
8
  6
HIDDEN
 10
191.9788872506
 20
187.6005640186
 11
191.9788872506
 21
180.3538298872
  0
LINE
  5
2A3
100
AcDbEntity
  8
MANIFOLD_SOLID_BDXF_HIDDEN_LINE
100
AcDbLine
 62
8
  6
HIDDEN
 10
191.9788872506
 20
174.4538298872
 11
191.9788872506
 21
149.4538298872
  0
LINE
  5
2A4
100
AcDbEntity
  8
MANIFOLD_SOLID_BDXF_HIDDEN_LINE
100
AcDbLine
 62
8
  6
HIDDEN
 10
191.9788872506
 20
143.5538298872
 11
191.9788872506
 21
136.3070957558
  0
LINE
  5
2A5
100
AcDbEntity
  8
MANIFOLD_SOLID_BDXF_HIDDEN_LINE
100
AcDbLine
 62
8
  6
HIDDEN
 10
191.9832506845
 20
179.8538298872
 11
191.9832506845
 21
174.9538298872
  0
LINE
  5
2A6
100
AcDbEntity
  8
MANIFOLD_SOLID_BDXF_HIDDEN_LINE
100
AcDbLine
 62
8
  6
HIDDEN
 10
191.9832506845
 20
144.0538298872
 11
191.9832506845
 21
148.9538298872
  0
LINE
  5
2A7
100
AcDbEntity
  8
MANIFOLD_SOLID_BDXF_HIDDEN_LINE
100
AcDbLine
 62
8
  6
HIDDEN
 10
192.0295559062
 20
180.5538298872
 11
192.0295559062
 21
174.2538298872
  0
LINE
  5
2A8
100
AcDbEntity
  8
MANIFOLD_SOLID_BDXF_HIDDEN_LINE
100
AcDbLine
 62
8
  6
HIDDEN
 10
192.0295559062
 20
149.6538298872
 11
192.0295559062
 21
143.3538298872
  0
LINE
  5
2A9
100
AcDbEntity
  8
MANIFOLD_SOLID_BDXF_HIDDEN_LINE
100
AcDbLine
 62
8
  6
HIDDEN
 10
192.0522474906
 20
180.5538298872
 11
192.0522474906
 21
174.2538298872
  0
LINE
  5
2AA
100
AcDbEntity
  8
MANIFOLD_SOLID_BDXF_HIDDEN_LINE
100
AcDbLine
 62
8
  6
HIDDEN
 10
192.0522474906
 20
149.6538298872
 11
192.0522474906
 21
143.3538298872
  0
LINE
  5
2AB
100
AcDbEntity
  8
MANIFOLD_SOLID_BDXF_HIDDEN_LINE
100
AcDbLine
 62
8
  6
HIDDEN
 10
192.081921101
 20
136.2535916672
 11
192.081921101
 21
187.6540681072
  0
LINE
  5
2AC
100
AcDbEntity
  8
MANIFOLD_SOLID_BDXF_HIDDEN_LINE
100
AcDbLine
 62
8
  6
HIDDEN
 10
187.8965997437
 20
190.9568606835
 11
136.6680149179
 21
190.9568606835
  0
LINE
  5
2AD
100
AcDbEntity
  8
MANIFOLD_SOLDXF_CONTINUOUS_LINE
100
AcDbLine
 62
7
  6
CONTINUOUS
 10
136.7216585031
 20
191.013945648
 11
187.8429561585
 21
191.013945648
  0
LINE
  5
2AE
100
AcDbEntity
  8
MANIFOLD_SOLID_BDXF_HIDDEN_LINE
100
AcDbLine
 62
8
  6
HIDDEN
 10
187.8965997437
 20
191.0144570752
 11
136.6680149179
 21
191.0144570752
  0
LINE
  5
2AF
100
AcDbEntity
  8
MANIFOLD_SOLID_BDXF_HIDDEN_LINE
100
AcDbLine
 62
8
  6
HIDDEN
 10
136.7217096303
 20
191.6138031379
 11
187.8429050314
 21
191.6138031379
  0
LINE
  5
2B0
100
AcDbEntity
  8
MANIFOLD_SOLID_BDXF_HIDDEN_LINE
100
AcDbLine
 62
8
  6
HIDDEN
 10
187.9028608588
 20
191.6242292036
 11
136.6617538028
 21
191.6242292036
  0
LINE
  5
2B1
100
AcDbEntity
  8
MANIFOLD_SOLID_BDXF_HIDDEN_LINE
100
AcDbLine
 62
8
  6
HIDDEN
 10
187.9290414622
 20
191.650409807
 11
136.6355731994
 21
191.650409807
  0
LINE
  5
2B2
100
AcDbEntity
  8
MANIFOLD_SOLID_BDXF_HIDDEN_LINE
100
AcDbLine
 62
8
  6
HIDDEN
 10
136.5820691108
 20
191.7534436573
 11
187.9825455508
 21
191.7534436573
  0
LINE
  5
2B3
100
AcDbEntity
  8
MANIFOLD_SOLID_BDXF_HIDDEN_LINE
100
AcDbLine
 62
8
  6
HIDDEN
 10
192.0965864148
 20
180.5538298872
 11
192.0965864148
 21
174.2538298872
  0
LINE
  5
2B4
100
AcDbEntity
  8
MANIFOLD_SOLID_BDXF_HIDDEN_LINE
100
AcDbLine
 62
8
  6
HIDDEN
 10
192.0965864148
 20
180.3538298872
 11
192.0965864148
 21
174.4538298872
  0
LINE
  5
2B5
100
AcDbEntity
  8
MANIFOLD_SOLID_BDXF_HIDDEN_LINE
100
AcDbLine
 62
8
  6
HIDDEN
 10
192.0965864148
 20
149.6538298872
 11
192.0965864148
 21
143.3538298872
  0
LINE
  5
2B6
100
AcDbEntity
  8
MANIFOLD_SOLID_BDXF_HIDDEN_LINE
100
AcDbLine
 62
8
  6
HIDDEN
 10
192.0965864148
 20
149.4538298872
 11
192.0965864148
 21
143.5538298872
  0
LINE
  5
2B7
100
AcDbEntity
  8
MANIFOLD_SOLID_BDXF_HIDDEN_LINE
100
AcDbLine
 62
8
  6
HIDDEN
 10
192.6465864148
 20
180.3538298872
 11
192.6465864148
 21
174.4538298872
  0
LINE
  5
2B8
100
AcDbEntity
  8
MANIFOLD_SOLID_BDXF_HIDDEN_LINE
100
AcDbLine
 62
8
  6
HIDDEN
 10
192.6465864148
 20
143.5538298872
 11
192.6465864148
 21
149.4538298872
  0
LINE
  5
2B9
100
AcDbEntity
  8
MANIFOLD_SOLID_BDXF_HIDDEN_LINE
100
AcDbLine
 62
8
  6
HIDDEN
 10
192.7465864148
 20
180.5538298872
 11
192.7465864148
 21
174.2538298872
  0
LINE
  5
2BA
100
AcDbEntity
  8
MANIFOLD_SOLID_BDXF_HIDDEN_LINE
100
AcDbLine
 62
8
  6
HIDDEN
 10
192.7465864148
 20
143.3538298872
 11
192.7465864148
 21
149.6538298872
  0
LINE
  5
2BB
100
AcDbEntity
  8
MANIFOLD_SOLID_BDXF_HIDDEN_LINE
100
AcDbLine
 62
8
  6
HIDDEN
 10
193.3420880112
 20
187.5144482443
 11
193.3420880112
 21
136.3932115302
  0
LINE
  5
2BC
100
AcDbEntity
  8
MANIFOLD_SOLDXF_CONTINUOUS_LINE
100
AcDbLine
 62
7
  6
CONTINUOUS
 10
193.3421184819
 20
136.3931810595
 11
193.3421184819
 21
187.5144787149
  0
LINE
  5
2BD
100
AcDbEntity
  8
MANIFOLD_SOLID_BDXF_HIDDEN_LINE
100
AcDbLine
 62
8
  6
HIDDEN
 10
193.473610264
 20
179.8538298872
 11
193.473610264
 21
174.9538298872
  0
LINE
  5
2BE
100
AcDbEntity
  8
MANIFOLD_SOLID_BDXF_HIDDEN_LINE
100
AcDbLine
 62
8
  6
HIDDEN
 10
193.473610264
 20
148.9538298872
 11
193.473610264
 21
144.0538298872
  0
LINE
  5
2BF
100
AcDbEntity
  8
MANIFOLD_SOLDXF_CONTINUOUS_LINE
100
AcDbLine
 62
7
  6
CONTINUOUS
 10
193.4823377964
 20
187.6546980295
 11
193.4823377964
 21
180.3538298872
  0
LINE
  5
2C0
100
AcDbEntity
  8
MANIFOLD_SOLDXF_CONTINUOUS_LINE
100
AcDbLine
 62
7
  6
CONTINUOUS
 10
193.4823377964
 20
174.4538298872
 11
193.4823377964
 21
149.4538298872
  0
LINE
  5
2C1
100
AcDbEntity
  8
MANIFOLD_SOLDXF_CONTINUOUS_LINE
100
AcDbLine
 62
7
  6
CONTINUOUS
 10
193.4823377964
 20
143.5538298872
 11
193.4823377964
 21
136.252961745
  0
LINE
  5
2C2
100
AcDbEntity
  8
MANIFOLD_SOLDXF_CONTINUOUS_LINE
100
AcDbLine
 62
7
  6
CONTINUOUS
 10
193.4823682671
 20
136.2529312743
 11
193.4823682671
 21
187.6547285001
  0
LINE
  5
2C3
100
AcDbEntity
  8
MANIFOLD_SOLID_BDXF_HIDDEN_LINE
100
AcDbLine
 62
8
  6
HIDDEN
 10
136.7216889738
 20
193.0136105676
 11
187.8429256879
 21
193.0136105676
  0
LINE
  5
2C4
100
AcDbEntity
  8
MANIFOLD_SOLDXF_CONTINUOUS_LINE
100
AcDbLine
 62
7
  6
CONTINUOUS
 10
187.8429561585
 20
193.0136410383
 11
136.7216585031
 21
193.0136410383
  0
LINE
  5
2C5
100
AcDbEntity
  8
MANIFOLD_SOLDXF_CONTINUOUS_LINE
100
AcDbLine
 62
7
  6
CONTINUOUS
 10
187.9831754731
 20
193.1538603528
 11
136.5814391886
 21
193.1538603528
  0
LINE
  5
2C6
100
AcDbEntity
  8
MANIFOLD_SOLDXF_CONTINUOUS_LINE
100
AcDbLine
 62
7
  6
CONTINUOUS
 10
136.5814087179
 20
193.1538908235
 11
187.9832059437
 21
193.1538908235
  0
LINE
  5
2C7
100
AcDbEntity
  8
MANIFOLD_SOLDXF_CONTINUOUS_LINE
100
AcDbLine
 62
7
  6
CONTINUOUS
 10
131.2225266504
 20
313.1307436834
 11
131.0822768652
 21
321.1656484962
  0
LINE
  5
2C8
100
AcDbEntity
  8
MANIFOLD_SOLDXF_CONTINUOUS_LINE
100
AcDbLine
 62
7
  6
CONTINUOUS
 10
131.0822463946
 20
321.1656484962
 11
131.2224961798
 21
329.2005533091
  0
LINE
  5
2C9
100
AcDbEntity
  8
MANIFOLD_SOLID_BDXF_HIDDEN_LINE
100
AcDbLine
 62
8
  6
HIDDEN
 10
133.2216801429
 20
324.1656484962
 11
133.2792765345
 21
313.1656484962
  0
LINE
  5
2CA
100
AcDbEntity
  8
MANIFOLD_SOLID_BDXF_HIDDEN_LINE
100
AcDbLine
 62
8
  6
HIDDEN
 10
132.6119080144
 20
324.1656484962
 11
132.5813639771
 21
320.6656484962
  0
LINE
  5
2CB
100
AcDbEntity
  8
MANIFOLD_SOLID_BDXF_HIDDEN_LINE
100
AcDbLine
 62
8
  6
HIDDEN
 10
132.6223340801
 20
329.1656484962
 11
132.4826935607
 21
321.1656484962
  0
LINE
  5
2CC
100
AcDbEntity
  8
MANIFOLD_SOLDXF_CONTINUOUS_LINE
100
AcDbLine
 62
7
  6
CONTINUOUS
 10
136.5814391886
 20
321.1656484962
 11
136.7216889738
 21
313.1307436834
  0
LINE
  5
2CD
100
AcDbEntity
  8
MANIFOLD_SOLID_BDXF_HIDDEN_LINE
100
AcDbLine
 62
8
  6
HIDDEN
 10
136.6680149179
 20
324.1656484962
 11
136.6680149179
 21
313.1656484962
  0
LINE
  5
2CE
100
AcDbEntity
  8
MANIFOLD_SOLDXF_CONTINUOUS_LINE
100
AcDbLine
 62
7
  6
CONTINUOUS
 10
136.7216585031
 20
329.2005533091
 11
136.7216585031
 21
331.1656484962
  0
LINE
  5
2CF
100
AcDbEntity
  8
MANIFOLD_SOLDXF_CONTINUOUS_LINE
100
AcDbLine
 62
7
  6
CONTINUOUS
 10
136.7216889738
 20
311.1656484962
 11
136.7216889738
 21
313.1307436834
  0
LINE
  5
2D0
100
AcDbEntity
  8
MANIFOLD_SOLID_BDXF_HIDDEN_LINE
100
AcDbLine
 62
8
  6
HIDDEN
 10
136.6617538028
 20
324.1656484962
 11
136.6355731994
 21
321.1656484962
  0
LINE
  5
2D1
100
AcDbEntity
  8
MANIFOLD_SOLDXF_CONTINUOUS_LINE
100
AcDbLine
 62
7
  6
CONTINUOUS
 10
136.7216585031
 20
329.2005533091
 11
136.5814087179
 21
321.1656484962
  0
LINE
  5
2D2
100
AcDbEntity
  8
MANIFOLD_SOLDXF_CONTINUOUS_LINE
100
AcDbLine
 62
7
  6
CONTINUOUS
 10
191.3423926209
 20
311.1656484962
 11
133.2222220407
 21
311.1656484962
  0
LINE
  5
2D3
100
AcDbEntity
  8
MANIFOLD_SOLDXF_CONTINUOUS_LINE
100
AcDbLine
 62
7
  6
CONTINUOUS
 10
187.8429256879
 20
313.1307436834
 11
136.7216889738
 21
313.1307436834
  0
LINE
  5
2D4
100
AcDbEntity
  8
MANIFOLD_SOLID_BDXF_HIDDEN_LINE
100
AcDbLine
 62
8
  6
HIDDEN
 10
133.2792765345
 20
313.1656484962
 11
191.2853381271
 21
313.1656484962
  0
LINE
  5
2D5
100
AcDbEntity
  8
MANIFOLD_SOLID_BDXF_HIDDEN_LINE
100
AcDbLine
 62
8
  6
HIDDEN
 10
193.473610264
 20
320.6656484962
 11
191.9832506845
 21
320.6656484962
  0
LINE
  5
2D6
100
AcDbEntity
  8
MANIFOLD_SOLID_BDXF_HIDDEN_LINE
100
AcDbLine
 62
8
  6
HIDDEN
 10
132.5813639771
 20
320.6656484962
 11
131.0910043977
 21
320.6656484962
  0
LINE
  5
2D7
100
AcDbEntity
  8
MANIFOLD_SOLDXF_CONTINUOUS_LINE
100
AcDbLine
 62
7
  6
CONTINUOUS
 10
193.4823377964
 20
321.1656484962
 11
131.0822768652
 21
321.1656484962
  0
LINE
  5
2D8
100
AcDbEntity
  8
MANIFOLD_SOLDXF_CONTINUOUS_LINE
100
AcDbLine
 62
7
  6
CONTINUOUS
 10
131.0822463946
 20
321.1656484962
 11
193.4823682671
 21
321.1656484962
  0
LINE
  5
2D9
100
AcDbEntity
  8
MANIFOLD_SOLID_BDXF_HIDDEN_LINE
100
AcDbLine
 62
8
  6
HIDDEN
 10
192.0965864148
 20
322.8656484962
 11
192.0522474906
 21
322.8656484962
  0
LINE
  5
2DA
100
AcDbEntity
  8
MANIFOLD_SOLID_BDXF_HIDDEN_LINE
100
AcDbLine
 62
8
  6
HIDDEN
 10
132.4680282468
 20
322.8656484962
 11
132.5123671711
 21
322.8656484962
  0
LINE
  5
2DB
100
AcDbEntity
  8
MANIFOLD_SOLID_BDXF_HIDDEN_LINE
100
AcDbLine
 62
8
  6
HIDDEN
 10
132.6014357731
 20
322.9656484962
 11
132.4680282468
 21
322.9656484962
  0
LINE
  5
2DC
100
AcDbEntity
  8
MANIFOLD_SOLID_BDXF_HIDDEN_LINE
100
AcDbLine
 62
8
  6
HIDDEN
 10
191.9631788886
 20
322.9656484962
 11
192.0965864148
 21
322.9656484962
  0
LINE
  5
2DD
100
AcDbEntity
  8
MANIFOLD_SOLID_BDXF_HIDDEN_LINE
100
AcDbLine
 62
8
  6
HIDDEN
 10
132.6110353276
 20
324.0656484962
 11
132.4680282468
 21
324.0656484962
  0
LINE
  5
2DE
100
AcDbEntity
  8
MANIFOLD_SOLID_BDXF_HIDDEN_LINE
100
AcDbLine
 62
8
  6
HIDDEN
 10
191.953579334
 20
324.0656484962
 11
192.0965864148
 21
324.0656484962
  0
LINE
  5
2DF
100
AcDbEntity
  8
MANIFOLD_SOLID_BDXF_HIDDEN_LINE
100
AcDbLine
 62
8
  6
HIDDEN
 10
192.0965864148
 20
324.1656484962
 11
192.0295559062
 21
324.1656484962
  0
LINE
  5
2E0
100
AcDbEntity
  8
MANIFOLD_SOLID_BDXF_HIDDEN_LINE
100
AcDbLine
 62
8
  6
HIDDEN
 10
191.9527066472
 20
324.1656484962
 11
132.6119080144
 21
324.1656484962
  0
LINE
  5
2E1
100
AcDbEntity
  8
MANIFOLD_SOLID_BDXF_HIDDEN_LINE
100
AcDbLine
 62
8
  6
HIDDEN
 10
132.4680282468
 20
324.1656484962
 11
132.5350587555
 21
324.1656484962
  0
LINE
  5
2E2
100
AcDbEntity
  8
MANIFOLD_SOLID_BDXF_HIDDEN_LINE
100
AcDbLine
 62
8
  6
HIDDEN
 10
132.6223340801
 20
329.1656484962
 11
191.9422805815
 21
329.1656484962
  0
LINE
  5
2E3
100
AcDbEntity
  8
MANIFOLD_SOLDXF_CONTINUOUS_LINE
100
AcDbLine
 62
7
  6
CONTINUOUS
 10
136.7216585031
 20
329.2005533091
 11
187.8429561585
 21
329.2005533091
  0
LINE
  5
2E4
100
AcDbEntity
  8
MANIFOLD_SOLDXF_CONTINUOUS_LINE
100
AcDbLine
 62
7
  6
CONTINUOUS
 10
191.3424230916
 20
331.1656484962
 11
133.2221915701
 21
331.1656484962
  0
LINE
  5
2E5
100
AcDbEntity
  8
MANIFOLD_SOLDXF_CONTINUOUS_LINE
100
AcDbLine
 62
7
  6
CONTINUOUS
 10
187.9832059437
 20
321.1656484962
 11
187.8429561585
 21
329.2005533091
  0
LINE
  5
2E6
100
AcDbEntity
  8
MANIFOLD_SOLID_BDXF_HIDDEN_LINE
100
AcDbLine
 62
8
  6
HIDDEN
 10
187.9028608588
 20
324.1656484962
 11
187.9290414622
 21
321.1656484962
  0
LINE
  5
2E7
100
AcDbEntity
  8
MANIFOLD_SOLDXF_CONTINUOUS_LINE
100
AcDbLine
 62
7
  6
CONTINUOUS
 10
187.8429256879
 20
313.1307436834
 11
187.8429256879
 21
311.1656484962
  0
LINE
  5
2E8
100
AcDbEntity
  8
MANIFOLD_SOLDXF_CONTINUOUS_LINE
100
AcDbLine
 62
7
  6
CONTINUOUS
 10
187.8429561585
 20
331.1656484962
 11
187.8429561585
 21
329.2005533091
  0
LINE
  5
2E9
100
AcDbEntity
  8
MANIFOLD_SOLID_BDXF_HIDDEN_LINE
100
AcDbLine
 62
8
  6
HIDDEN
 10
187.8965997437
 20
324.1656484962
 11
187.8965997437
 21
313.1656484962
  0
LINE
  5
2EA
100
AcDbEntity
  8
MANIFOLD_SOLDXF_CONTINUOUS_LINE
100
AcDbLine
 62
7
  6
CONTINUOUS
 10
187.8429256879
 20
313.1307436834
 11
187.9831754731
 21
321.1656484962
  0
LINE
  5
2EB
100
AcDbEntity
  8
MANIFOLD_SOLID_BDXF_HIDDEN_LINE
100
AcDbLine
 62
8
  6
HIDDEN
 10
191.9422805815
 20
329.1656484962
 11
192.081921101
 21
321.1656484962
  0
LINE
  5
2EC
100
AcDbEntity
  8
MANIFOLD_SOLDXF_CONTINUOUS_LINE
100
AcDbLine
 62
7
  6
CONTINUOUS
 10
193.3421184819
 20
329.2005533091
 11
193.4823682671
 21
321.1656484962
  0
LINE
  5
2ED
100
AcDbEntity
  8
MANIFOLD_SOLID_BDXF_HIDDEN_LINE
100
AcDbLine
 62
8
  6
HIDDEN
 10
191.9527066472
 20
324.1656484962
 11
191.9832506845
 21
320.6656484962
  0
LINE
  5
2EE
100
AcDbEntity
  8
MANIFOLD_SOLID_BDXF_HIDDEN_LINE
100
AcDbLine
 62
8
  6
HIDDEN
 10
191.3429345188
 20
324.1656484962
 11
191.2853381271
 21
313.1656484962
  0
LINE
  5
2EF
100
AcDbEntity
  8
MANIFOLD_SOLDXF_CONTINUOUS_LINE
100
AcDbLine
 62
7
  6
CONTINUOUS
 10
193.4823377964
 20
321.1656484962
 11
193.3420880112
 21
313.1307436834
  0
LINE
  5
2F0
100
AcDbEntity
  8
MANIFOLD_SOLDXF_CONTINUOUS_LINE
100
AcDbLine
 62
7
  6
CONTINUOUS
 10
386.0539367678
 20
130.8940187362
 11
378.0190319549
 21
130.753768951
  0
LINE
  5
2F1
100
AcDbEntity
  8
MANIFOLD_SOLDXF_CONTINUOUS_LINE
100
AcDbLine
 62
7
  6
CONTINUOUS
 10
378.0190319549
 20
130.7537994216
 11
369.984127142
 21
130.8940492068
  0
LINE
  5
2F2
100
AcDbEntity
  8
MANIFOLD_SOLID_BDXF_HIDDEN_LINE
100
AcDbLine
 62
8
  6
HIDDEN
 10
386.0190319549
 20
132.2938566365
 11
378.0190319549
 21
132.1542161171
  0
LINE
  5
2F3
100
AcDbEntity
  8
MANIFOLD_SOLID_BDXF_HIDDEN_LINE
100
AcDbLine
 62
8
  6
HIDDEN
 10
381.0190319549
 20
132.2834305708
 11
378.0190319549
 21
132.2572499674
  0
LINE
  5
2F4
100
AcDbEntity
  8
MANIFOLD_SOLID_BDXF_HIDDEN_LINE
100
AcDbLine
 62
8
  6
HIDDEN
 10
381.0190319549
 20
132.8932026993
 11
370.0190319549
 21
132.9507990909
  0
LINE
  5
2F5
100
AcDbEntity
  8
MANIFOLD_SOLDXF_CONTINUOUS_LINE
100
AcDbLine
 62
7
  6
CONTINUOUS
 10
378.0190319549
 20
136.2529312743
 11
386.0539367678
 21
136.3931810595
  0
LINE
  5
2F6
100
AcDbEntity
  8
MANIFOLD_SOLID_BDXF_HIDDEN_LINE
100
AcDbLine
 62
8
  6
HIDDEN
 10
381.0190319549
 20
136.3332763592
 11
378.0190319549
 21
136.3070957558
  0
LINE
  5
2F7
100
AcDbEntity
  8
MANIFOLD_SOLID_BDXF_HIDDEN_LINE
100
AcDbLine
 62
8
  6
HIDDEN
 10
381.0190319549
 20
136.3395374743
 11
370.0190319549
 21
136.3395374743
  0
LINE
  5
2F8
100
AcDbEntity
  8
MANIFOLD_SOLDXF_CONTINUOUS_LINE
100
AcDbLine
 62
7
  6
CONTINUOUS
 10
388.0190319549
 20
136.3931810595
 11
386.0539367678
 21
136.3931810595
  0
LINE
  5
2F9
100
AcDbEntity
  8
MANIFOLD_SOLDXF_CONTINUOUS_LINE
100
AcDbLine
 62
7
  6
CONTINUOUS
 10
369.984127142
 20
136.3932115302
 11
368.0190319549
 21
136.3932115302
  0
LINE
  5
2FA
100
AcDbEntity
  8
MANIFOLD_SOLDXF_CONTINUOUS_LINE
100
AcDbLine
 62
7
  6
CONTINUOUS
 10
369.984127142
 20
136.3932115302
 11
378.0190319549
 21
136.252961745
  0
LINE
  5
2FB
100
AcDbEntity
  8
MANIFOLD_SOLID_BDXF_HIDDEN_LINE
100
AcDbLine
 62
8
  6
HIDDEN
 10
379.7190319549
 20
143.3538298872
 11
381.0190319549
 21
143.3538298872
  0
LINE
  5
2FC
100
AcDbEntity
  8
MANIFOLD_SOLID_BDXF_HIDDEN_LINE
100
AcDbLine
 62
8
  6
HIDDEN
 10
380.9190319549
 20
143.5538298872
 11
379.8190319549
 21
143.5538298872
  0
LINE
  5
2FD
100
AcDbEntity
  8
MANIFOLD_SOLID_BDXF_HIDDEN_LINE
100
AcDbLine
 62
8
  6
HIDDEN
 10
379.8190319549
 20
149.4538298872
 11
380.9190319549
 21
149.4538298872
  0
LINE
  5
2FE
100
AcDbEntity
  8
MANIFOLD_SOLID_BDXF_HIDDEN_LINE
100
AcDbLine
 62
8
  6
HIDDEN
 10
381.0190319549
 20
149.6538298872
 11
379.7190319549
 21
149.6538298872
  0
LINE
  5
2FF
100
AcDbEntity
  8
MANIFOLD_SOLDXF_CONTINUOUS_LINE
100
AcDbLine
 62
7
  6
CONTINUOUS
 10
368.0190319549
 20
191.0139151773
 11
368.0190319549
 21
132.8937445971
  0
LINE
  5
300
100
AcDbEntity
  8
MANIFOLD_SOLDXF_CONTINUOUS_LINE
100
AcDbLine
 62
7
  6
CONTINUOUS
 10
369.984127142
 20
136.3932115302
 11
369.984127142
 21
187.5144482443
  0
LINE
  5
301
100
AcDbEntity
  8
MANIFOLD_SOLID_BDXF_HIDDEN_LINE
100
AcDbLine
 62
8
  6
HIDDEN
 10
370.0190319549
 20
190.9568606835
 11
370.0190319549
 21
132.9507990909
  0
LINE
  5
302
100
AcDbEntity
  8
MANIFOLD_SOLDXF_CONTINUOUS_LINE
100
AcDbLine
 62
7
  6
CONTINUOUS
 10
377.5190319549
 20
144.0538298872
 11
377.5190319549
 21
148.9538298872
  0
LINE
  5
303
100
AcDbEntity
  8
MANIFOLD_SOLDXF_CONTINUOUS_LINE
100
AcDbLine
 62
7
  6
CONTINUOUS
 10
377.5190319549
 20
174.9538298872
 11
377.5190319549
 21
179.8538298872
  0
LINE
  5
304
100
AcDbEntity
  8
MANIFOLD_SOLDXF_CONTINUOUS_LINE
100
AcDbLine
 62
7
  6
CONTINUOUS
 10
378.0190319549
 20
174.4538298872
 11
378.0190319549
 21
149.4538298872
  0
LINE
  5
305
100
AcDbEntity
  8
MANIFOLD_SOLDXF_CONTINUOUS_LINE
100
AcDbLine
 62
7
  6
CONTINUOUS
 10
378.0190319549
 20
130.7537994216
 11
378.0190319549
 21
143.5538298872
  0
LINE
  5
306
100
AcDbEntity
  8
MANIFOLD_SOLDXF_CONTINUOUS_LINE
100
AcDbLine
 62
7
  6
CONTINUOUS
 10
378.0190319549
 20
130.753768951
 11
378.0190319549
 21
193.1538908235
  0
LINE
  5
307
100
AcDbEntity
  8
MANIFOLD_SOLDXF_CONTINUOUS_LINE
100
AcDbLine
 62
7
  6
CONTINUOUS
 10
378.0190319549
 20
180.3538298872
 11
378.0190319549
 21
193.1538603528
  0
LINE
  5
308
100
AcDbEntity
  8
MANIFOLD_SOLID_BDXF_HIDDEN_LINE
100
AcDbLine
 62
8
  6
HIDDEN
 10
379.7190319549
 20
180.5538298872
 11
379.7190319549
 21
174.2538298872
  0
LINE
  5
309
100
AcDbEntity
  8
MANIFOLD_SOLID_BDXF_HIDDEN_LINE
100
AcDbLine
 62
8
  6
HIDDEN
 10
379.7190319549
 20
149.6538298872
 11
379.7190319549
 21
143.3538298872
  0
LINE
  5
30A
100
AcDbEntity
  8
MANIFOLD_SOLID_BDXF_HIDDEN_LINE
100
AcDbLine
 62
8
  6
HIDDEN
 10
379.8190319549
 20
180.3538298872
 11
379.8190319549
 21
174.4538298872
  0
LINE
  5
30B
100
AcDbEntity
  8
MANIFOLD_SOLID_BDXF_HIDDEN_LINE
100
AcDbLine
 62
8
  6
HIDDEN
 10
379.8190319549
 20
149.4538298872
 11
379.8190319549
 21
143.5538298872
  0
LINE
  5
30C
100
AcDbEntity
  8
MANIFOLD_SOLID_BDXF_HIDDEN_LINE
100
AcDbLine
 62
8
  6
HIDDEN
 10
380.9190319549
 20
180.3538298872
 11
380.9190319549
 21
174.4538298872
  0
LINE
  5
30D
100
AcDbEntity
  8
MANIFOLD_SOLID_BDXF_HIDDEN_LINE
100
AcDbLine
 62
8
  6
HIDDEN
 10
380.9190319549
 20
149.4538298872
 11
380.9190319549
 21
143.5538298872
  0
LINE
  5
30E
100
AcDbEntity
  8
MANIFOLD_SOLID_BDXF_HIDDEN_LINE
100
AcDbLine
 62
8
  6
HIDDEN
 10
381.0190319549
 20
180.5538298872
 11
381.0190319549
 21
174.2538298872
  0
LINE
  5
30F
100
AcDbEntity
  8
MANIFOLD_SOLID_BDXF_HIDDEN_LINE
100
AcDbLine
 62
8
  6
HIDDEN
 10
381.0190319549
 20
149.6538298872
 11
381.0190319549
 21
143.3538298872
  0
LINE
  5
310
100
AcDbEntity
  8
MANIFOLD_SOLID_BDXF_HIDDEN_LINE
100
AcDbLine
 62
8
  6
HIDDEN
 10
381.0190319549
 20
132.2834305708
 11
381.0190319549
 21
191.6242292036
  0
LINE
  5
311
100
AcDbEntity
  8
MANIFOLD_SOLID_BDXF_HIDDEN_LINE
100
AcDbLine
 62
8
  6
HIDDEN
 10
386.0190319549
 20
191.6138031379
 11
386.0190319549
 21
132.2938566365
  0
LINE
  5
312
100
AcDbEntity
  8
MANIFOLD_SOLDXF_CONTINUOUS_LINE
100
AcDbLine
 62
7
  6
CONTINUOUS
 10
386.0539367678
 20
187.5144787149
 11
386.0539367678
 21
136.3931810595
  0
LINE
  5
313
100
AcDbEntity
  8
MANIFOLD_SOLDXF_CONTINUOUS_LINE
100
AcDbLine
 62
7
  6
CONTINUOUS
 10
388.0190319549
 20
191.013945648
 11
388.0190319549
 21
132.8937141265
  0
LINE
  5
314
100
AcDbEntity
  8
MANIFOLD_SOLID_BDXF_HIDDEN_LINE
100
AcDbLine
 62
8
  6
HIDDEN
 10
379.7190319549
 20
174.2538298872
 11
381.0190319549
 21
174.2538298872
  0
LINE
  5
315
100
AcDbEntity
  8
MANIFOLD_SOLID_BDXF_HIDDEN_LINE
100
AcDbLine
 62
8
  6
HIDDEN
 10
380.9190319549
 20
174.4538298872
 11
379.8190319549
 21
174.4538298872
  0
LINE
  5
316
100
AcDbEntity
  8
MANIFOLD_SOLID_BDXF_HIDDEN_LINE
100
AcDbLine
 62
8
  6
HIDDEN
 10
379.8190319549
 20
180.3538298872
 11
380.9190319549
 21
180.3538298872
  0
LINE
  5
317
100
AcDbEntity
  8
MANIFOLD_SOLID_BDXF_HIDDEN_LINE
100
AcDbLine
 62
8
  6
HIDDEN
 10
381.0190319549
 20
180.5538298872
 11
379.7190319549
 21
180.5538298872
  0
LINE
  5
318
100
AcDbEntity
  8
MANIFOLD_SOLDXF_CONTINUOUS_LINE
100
AcDbLine
 62
7
  6
CONTINUOUS
 10
378.0190319549
 20
187.6546980295
 11
369.984127142
 21
187.5144482443
  0
LINE
  5
319
100
AcDbEntity
  8
MANIFOLD_SOLDXF_CONTINUOUS_LINE
100
AcDbLine
 62
7
  6
CONTINUOUS
 10
368.0190319549
 20
187.5144482443
 11
369.984127142
 21
187.5144482443
  0
LINE
  5
31A
100
AcDbEntity
  8
MANIFOLD_SOLDXF_CONTINUOUS_LINE
100
AcDbLine
 62
7
  6
CONTINUOUS
 10
386.0539367678
 20
187.5144787149
 11
388.0190319549
 21
187.5144787149
  0
LINE
  5
31B
100
AcDbEntity
  8
MANIFOLD_SOLID_BDXF_HIDDEN_LINE
100
AcDbLine
 62
8
  6
HIDDEN
 10
381.0190319549
 20
187.5681223001
 11
370.0190319549
 21
187.5681223001
  0
LINE
  5
31C
100
AcDbEntity
  8
MANIFOLD_SOLID_BDXF_HIDDEN_LINE
100
AcDbLine
 62
8
  6
HIDDEN
 10
381.0190319549
 20
187.5743834152
 11
378.0190319549
 21
187.6005640186
  0
LINE
  5
31D
100
AcDbEntity
  8
MANIFOLD_SOLDXF_CONTINUOUS_LINE
100
AcDbLine
 62
7
  6
CONTINUOUS
 10
386.0539367678
 20
187.5144787149
 11
378.0190319549
 21
187.6547285001
  0
LINE
  5
31E
100
AcDbEntity
  8
MANIFOLD_SOLDXF_CONTINUOUS_LINE
100
AcDbLine
 62
7
  6
CONTINUOUS
 10
378.0190319549
 20
193.1538603528
 11
369.984127142
 21
193.0136105676
  0
LINE
  5
31F
100
AcDbEntity
  8
MANIFOLD_SOLID_BDXF_HIDDEN_LINE
100
AcDbLine
 62
8
  6
HIDDEN
 10
381.0190319549
 20
191.0144570752
 11
370.0190319549
 21
190.9568606835
  0
LINE
  5
320
100
AcDbEntity
  8
MANIFOLD_SOLID_BDXF_HIDDEN_LINE
100
AcDbLine
 62
8
  6
HIDDEN
 10
381.0190319549
 20
191.6242292036
 11
378.0190319549
 21
191.650409807
  0
LINE
  5
321
100
AcDbEntity
  8
MANIFOLD_SOLID_BDXF_HIDDEN_LINE
100
AcDbLine
 62
8
  6
HIDDEN
 10
386.0190319549
 20
191.6138031379
 11
378.0190319549
 21
191.7534436573
  0
LINE
  5
322
100
AcDbEntity
  8
MANIFOLD_SOLDXF_CONTINUOUS_LINE
100
AcDbLine
 62
7
  6
CONTINUOUS
 10
378.0190319549
 20
193.1538908235
 11
386.0539367678
 21
193.0136410383
  0
ARC
  5
323
100
AcDbEntity
  8
MANIFOLD_SOLID_BDXF_HIDDEN_LINE
100
AcDbCircle
 62
8
  6
HIDDEN
 10
136.6680149179
 20
136.3395374743
 40
3.4463347751
100
AcDbArc
 50
180.0
 51
270.0
  0
ARC
  5
324
100
AcDbEntity
  8
MANIFOLD_SOLID_BDXF_HIDDEN_LINE
100
AcDbCircle
 62
8
  6
HIDDEN
 10
187.8965997437
 20
136.3395374743
 40
3.4463347751
100
AcDbArc
 50
270.0
 51
360.0
  0
ARC
  5
325
100
AcDbEntity
  8
MANIFOLD_SOLID_BDXF_HIDDEN_LINE
100
AcDbCircle
 62
8
  6
HIDDEN
 10
187.8965997437
 20
187.5681223001
 40
3.4463347751
100
AcDbArc
 50
0.0
 51
90.0
  0
ARC
  5
326
100
AcDbEntity
  8
MANIFOLD_SOLID_BDXF_HIDDEN_LINE
100
AcDbCircle
 62
8
  6
HIDDEN
 10
136.6680149179
 20
187.5681223001
 40
3.4463347751
100
AcDbArc
 50
90.0
 51
180.0
  0
ARC
  5
327
100
AcDbEntity
  8
MANIFOLD_SOLID_BDXF_HIDDEN_LINE
100
AcDbCircle
 62
8
  6
HIDDEN
 10
187.8965997437
 20
187.5681223001
 40
3.3887383834
100
AcDbArc
 50
0.0
 51
90.0
  0
ARC
  5
328
100
AcDbEntity
  8
MANIFOLD_SOLID_BDXF_HIDDEN_LINE
100
AcDbCircle
 62
8
  6
HIDDEN
 10
187.8965997437
 20
136.3395374743
 40
3.3887383834
100
AcDbArc
 50
270.0
 51
360.0
  0
ARC
  5
329
100
AcDbEntity
  8
MANIFOLD_SOLID_BDXF_HIDDEN_LINE
100
AcDbCircle
 62
8
  6
HIDDEN
 10
136.6680149179
 20
136.3395374743
 40
3.3887383834
100
AcDbArc
 50
180.0
 51
270.0
  0
ARC
  5
32A
100
AcDbEntity
  8
MANIFOLD_SOLID_BDXF_HIDDEN_LINE
100
AcDbCircle
 62
8
  6
HIDDEN
 10
136.6680149179
 20
187.5681223001
 40
3.3887383834
100
AcDbArc
 50
90.0
 51
180.0
  0
ARC
  5
32B
100
AcDbEntity
  8
MANIFOLD_SOLDXF_CONTINUOUS_LINE
100
AcDbCircle
 62
7
  6
CONTINUOUS
 10
133.2222220407
 20
313.1656484962
 40
2.0
100
AcDbArc
 50
181.0
 51
270.0
  0
ARC
  5
32C
100
AcDbEntity
  8
MANIFOLD_SOLDXF_CONTINUOUS_LINE
100
AcDbCircle
 62
7
  6
CONTINUOUS
 10
133.2221915701
 20
329.1656484962
 40
2.0
100
AcDbArc
 50
90.0
 51
179.0
  0
ARC
  5
32D
100
AcDbEntity
  8
MANIFOLD_SOLID_BDXF_HIDDEN_LINE
100
AcDbCircle
 62
8
  6
HIDDEN
 10
132.4680282468
 20
323.5156484962
 40
0.65
100
AcDbArc
 50
90.0
 51
270.0
  0
ARC
  5
32E
100
AcDbEntity
  8
MANIFOLD_SOLID_BDXF_HIDDEN_LINE
100
AcDbCircle
 62
8
  6
HIDDEN
 10
132.4680282468
 20
323.5156484962
 40
0.55
100
AcDbArc
 50
90.0
 51
270.0
  0
ARC
  5
32F
100
AcDbEntity
  8
MANIFOLD_SOLDXF_CONTINUOUS_LINE
100
AcDbCircle
 62
7
  6
CONTINUOUS
 10
191.3423926209
 20
313.1656484962
 40
2.0
100
AcDbArc
 50
270.0
 51
359.0
  0
ARC
  5
330
100
AcDbEntity
  8
MANIFOLD_SOLDXF_CONTINUOUS_LINE
100
AcDbCircle
 62
7
  6
CONTINUOUS
 10
191.3424230916
 20
329.1656484962
 40
2.0
100
AcDbArc
 50
1.0
 51
90.0
  0
ARC
  5
331
100
AcDbEntity
  8
MANIFOLD_SOLID_BDXF_HIDDEN_LINE
100
AcDbCircle
 62
8
  6
HIDDEN
 10
192.0965864148
 20
323.5156484962
 40
0.65
100
AcDbArc
 50
270.0
 51
90.0
  0
ARC
  5
332
100
AcDbEntity
  8
MANIFOLD_SOLID_BDXF_HIDDEN_LINE
100
AcDbCircle
 62
8
  6
HIDDEN
 10
192.0965864148
 20
323.5156484962
 40
0.55
100
AcDbArc
 50
270.0
 51
90.0
  0
ARC
  5
333
100
AcDbEntity
  8
MANIFOLD_SOLDXF_CONTINUOUS_LINE
100
AcDbCircle
 62
7
  6
CONTINUOUS
 10
370.0190319549
 20
132.8937445971
 40
2.0
100
AcDbArc
 50
180.0
 51
269.0
  0
ARC
  5
334
100
AcDbEntity
  8
MANIFOLD_SOLDXF_CONTINUOUS_LINE
100
AcDbCircle
 62
7
  6
CONTINUOUS
 10
370.0190319549
 20
191.0139151773
 40
2.0
100
AcDbArc
 50
91.0
 51
180.0
  0
ARC
  5
335
100
AcDbEntity
  8
MANIFOLD_SOLDXF_CONTINUOUS_LINE
100
AcDbCircle
 62
7
  6
CONTINUOUS
 10
386.0190319549
 20
132.8937141265
 40
2.0
100
AcDbArc
 50
271.0
 51
360.0
  0
ARC
  5
336
100
AcDbEntity
  8
MANIFOLD_SOLDXF_CONTINUOUS_LINE
100
AcDbCircle
 62
7
  6
CONTINUOUS
 10
378.0190319549
 20
148.9538298872
 40
0.5
100
AcDbArc
 50
90.0
 51
180.0
  0
ARC
  5
337
100
AcDbEntity
  8
MANIFOLD_SOLDXF_CONTINUOUS_LINE
100
AcDbCircle
 62
7
  6
CONTINUOUS
 10
378.0190319549
 20
144.0538298872
 40
0.5
100
AcDbArc
 50
180.0
 51
270.0
  0
ARC
  5
338
100
AcDbEntity
  8
MANIFOLD_SOLDXF_CONTINUOUS_LINE
100
AcDbCircle
 62
7
  6
CONTINUOUS
 10
386.0190319549
 20
191.013945648
 40
2.0
100
AcDbArc
 50
0.0
 51
89.0
  0
ARC
  5
339
100
AcDbEntity
  8
MANIFOLD_SOLDXF_CONTINUOUS_LINE
100
AcDbCircle
 62
7
  6
CONTINUOUS
 10
378.0190319549
 20
174.9538298872
 40
0.5
100
AcDbArc
 50
180.0
 51
270.0
  0
ARC
  5
33A
100
AcDbEntity
  8
MANIFOLD_SOLDXF_CONTINUOUS_LINE
100
AcDbCircle
 62
7
  6
CONTINUOUS
 10
378.0190319549
 20
179.8538298872
 40
0.5
100
AcDbArc
 50
90.0
 51
180.0
  0
SPLINE
  5
33B
100
AcDbEntity
  8
MANIFOLD_SOLID_BDXF_HIDDEN_LINE
100
AcDbSpline
 62
8
  6
HIDDEN
 70
0
 71
3
 72
14
 73
10
 74
8
 42
0.0000001
 43
0.0000001
 44
0.0000000001
 12
6.4258598481
 22
0.0
 32
0.0
 13
0.0
 23
-6.4258598481
 33
0.0
 40
0.0
 40
0.0
 40
0.0
 40
0.0
 40
0.143578731
 40
0.2864356197
 40
0.4288641193
 40
0.5711498439
 40
0.713576011
 40
0.8564282416
 40
1.0
 40
1.0
 40
1.0
 40
1.0
 10
187.8429050314
 20
191.6138031379
 30
0.0
 10
188.1504439656
 20
191.6138031379
 30
0.0
 10
188.7662213561
 20
191.5441893982
 30
0.0
 10
189.6398685557
 20
191.2372818381
 30
0.0
 10
190.4215506076
 20
190.7453372326
 30
0.0
 10
191.0738679148
 20
190.093005547
 30
0.0
 10
191.5657885564
 20
189.3113265634
 30
0.0
 10
191.8726731171
 20
188.4377037395
 30
0.0
 10
191.9422805815
 20
187.821951587
 30
0.0
 10
191.9422805815
 20
187.5144275878
 30
0.0
 11
187.8429050314
 21
191.6138031379
 31
0.0
 11
188.7596639556
 21
191.5100012141
 31
0.0
 11
189.625795497
 21
191.2058624392
 31
0.0
 11
190.4003640473
 21
190.7183366271
 31
0.0
 11
191.0468704026
 21
190.0718160324
 31
0.0
 11
191.5343725952
 21
189.297250326
 31
0.0
 11
191.8384887428
 21
188.4311425625
 31
0.0
 11
191.9422805815
 21
187.5144275878
 31
0.0
  0
SPLINE
  5
33C
100
AcDbEntity
  8
MANIFOLD_SOLID_BDXF_HIDDEN_LINE
100
AcDbSpline
 62
8
  6
HIDDEN
 70
0
 71
3
 72
14
 73
10
 74
8
 42
0.0000001
 43
0.0000001
 44
0.0000000001
 12
0.0
 22
-6.4258702562
 32
0.0
 13
-6.4258702562
 23
0.0
 33
0.0
 40
0.0
 40
0.0
 40
0.0
 40
0.0
 40
0.142879126
 40
0.2857361123
 40
0.4285856227
 40
0.571432684
 40
0.7142791426
 40
0.8571300275
 40
1.0
 40
1.0
 40
1.0
 40
1.0
 10
192.081921101
 20
136.2535916672
 30
0.0
 10
192.081921101
 20
135.9475507587
 30
0.0
 10
192.0128263972
 20
135.3333033183
 30
0.0
 10
191.7070890052
 20
134.4598748137
 30
0.0
 10
191.2145963702
 20
133.6759739339
 30
0.0
 10
190.5600745923
 20
133.0214710752
 30
0.0
 10
189.7761777056
 20
132.5290098987
 30
0.0
 10
188.9027811942
 20
132.2233026224
 30
0.0
 10
188.2885668531
 20
132.1542161171
 30
0.0
 10
187.9825455508
 20
132.1542161171
 30
0.0
 11
192.081921101
 21
136.2535916672
 31
0.0
 11
191.9791310623
 21
135.3412411055
 31
0.0
 11
191.6759519074
 21
134.4747709537
 31
0.0
 11
191.1875861039
 21
133.697533043
 31
0.0
 11
190.53851162
 21
133.0484773055
 31
0.0
 11
189.7612773859
 21
132.5601425115
 31
0.0
 11
188.8948384053
 21
132.2569929853
 31
0.0
 11
187.9825455508
 21
132.1542161171
 31
0.0
  0
SPLINE
  5
33D
100
AcDbEntity
  8
MANIFOLD_SOLID_BDXF_HIDDEN_LINE
100
AcDbSpline
 62
8
  6
HIDDEN
 70
0
 71
3
 72
14
 73
10
 74
8
 42
0.0000001
 43
0.0000001
 44
0.0000000001
 12
6.4258702562
 22
0.0
 32
0.0
 13
0.0
 23
6.4258702562
 33
0.0
 40
0.0
 40
0.0
 40
0.0
 40
0.0
 40
0.142879126
 40
0.2857361123
 40
0.4285856227
 40
0.571432684
 40
0.7142791426
 40
0.8571300275
 40
1.0
 40
1.0
 40
1.0
 40
1.0
 10
187.8429050314
 20
132.2938566365
 30
0.0
 10
188.14894594
 20
132.2938566365
 30
0.0
 10
188.7631933804
 20
132.3629513403
 30
0.0
 10
189.6366218849
 20
132.6686887323
 30
0.0
 10
190.4205227647
 20
133.1611813673
 30
0.0
 10
191.0750256235
 20
133.8157031452
 30
0.0
 10
191.5674867999
 20
134.5996000319
 30
0.0
 10
191.8731940762
 20
135.4729965433
 30
0.0
 10
191.9422805815
 20
136.0872108844
 30
0.0
 10
191.9422805815
 20
136.3932321867
 30
0.0
 11
187.8429050314
 21
132.2938566365
 31
0.0
 11
188.7552555931
 21
132.3966466751
 31
0.0
 11
189.6217257449
 21
132.69982583
 31
0.0
 11
190.3989636556
 21
133.1881916336
 31
0.0
 11
191.0480193931
 21
133.8372661174
 31
0.0
 11
191.5363541871
 21
134.6145003516
 31
0.0
 11
191.8395037133
 21
135.4809393322
 31
0.0
 11
191.9422805815
 21
136.3932321867
 31
0.0
  0
SPLINE
  5
33E
100
AcDbEntity
  8
MANIFOLD_SOLID_BDXF_HIDDEN_LINE
100
AcDbSpline
 62
8
  6
HIDDEN
 70
0
 71
3
 72
14
 73
10
 74
8
 42
0.0000001
 43
0.0000001
 44
0.0000000001
 12
-6.4258702562
 22
0.0
 32
0.0
 13
0.0
 23
6.4258702562
 33
0.0
 40
0.0
 40
0.0
 40
0.0
 40
0.0
 40
0.142879126
 40
0.2857361123
 40
0.4285856227
 40
0.571432684
 40
0.7142791426
 40
0.8571300275
 40
1.0
 40
1.0
 40
1.0
 40
1.0
 10
136.5820691108
 20
132.1542161171
 30
0.0
 10
136.2760282023
 20
132.1542161171
 30
0.0
 10
135.6617807619
 20
132.2233108208
 30
0.0
 10
134.7883522573
 20
132.5290482129
 30
0.0
 10
134.0044513775
 20
133.0215408479
 30
0.0
 10
133.3499485188
 20
133.6760626258
 30
0.0
 10
132.8574873423
 20
134.4599595125
 30
0.0
 10
132.551780066
 20
135.3333560238
 30
0.0
 10
132.4826935607
 20
135.947570365
 30
0.0
 10
132.4826935607
 20
136.2535916672
 30
0.0
 11
136.5820691108
 21
132.1542161171
 31
0.0
 11
135.6697185492
 21
132.2570061557
 31
0.0
 11
134.8032483973
 21
132.5601853106
 31
0.0
 11
134.0260104866
 21
133.0485511141
 31
0.0
 11
133.3769547491
 21
133.697625598
 31
0.0
 11
132.8886199551
 21
134.4748598321
 31
0.0
 11
132.5854704289
 21
135.3412988127
 31
0.0
 11
132.4826935607
 21
136.2535916672
 31
0.0
  0
SPLINE
  5
33F
100
AcDbEntity
  8
MANIFOLD_SOLID_BDXF_HIDDEN_LINE
100
AcDbSpline
 62
8
  6
HIDDEN
 70
0
 71
3
 72
14
 73
10
 74
8
 42
0.0000001
 43
0.0000001
 44
0.0000000001
 12
0.0
 22
-6.4258702562
 32
0.0
 13
6.4258702562
 23
-0.0
 33
0.0
 40
0.0
 40
0.0
 40
0.0
 40
0.0
 40
0.142879126
 40
0.2857361123
 40
0.4285856227
 40
0.571432684
 40
0.7142791426
 40
0.8571300275
 40
1.0
 40
1.0
 40
1.0
 40
1.0
 10
132.6223340801
 20
136.3932321867
 30
0.0
 10
132.6223340801
 20
136.0871912781
 30
0.0
 10
132.6914287839
 20
135.4729438377
 30
0.0
 10
132.9971661759
 20
134.5995153331
 30
0.0
 10
133.4896588109
 20
133.8156144533
 30
0.0
 10
134.1441805888
 20
133.1611115946
 30
0.0
 10
134.9280774755
 20
132.6686504181
 30
0.0
 10
135.8014739869
 20
132.3629431419
 30
0.0
 10
136.415688328
 20
132.2938566365
 30
0.0
 10
136.7217096303
 20
132.2938566365
 30
0.0
 11
132.6223340801
 21
136.3932321867
 31
0.0
 11
132.7251241187
 21
135.480881625
 31
0.0
 11
133.0283032736
 21
134.6144114732
 31
0.0
 11
133.5166690772
 21
133.8371735624
 31
0.0
 11
134.165743561
 21
133.188117825
 31
0.0
 11
134.9429777952
 21
132.6997830309
 31
0.0
 11
135.8094167758
 21
132.3966335048
 31
0.0
 11
136.7217096303
 21
132.2938566365
 31
0.0
  0
SPLINE
  5
340
100
AcDbEntity
  8
MANIFOLD_SOLID_BDXF_HIDDEN_LINE
100
AcDbSpline
 62
8
  6
HIDDEN
 70
0
 71
3
 72
14
 73
10
 74
8
 42
0.0000001
 43
0.0000001
 44
0.0000000001
 12
0.0
 22
6.4258702562
 32
0.0
 13
6.4258702562
 23
0.0
 33
0.0
 40
0.0
 40
0.0
 40
0.0
 40
0.0
 40
0.142879126
 40
0.2857361123
 40
0.4285856227
 40
0.571432684
 40
0.7142791426
 40
0.8571300275
 40
1.0
 40
1.0
 40
1.0
 40
1.0
 10
132.4826935607
 20
187.6540681072
 30
0.0
 10
132.4826935607
 20
187.9601090158
 30
0.0
 10
132.5517882645
 20
188.5743564562
 30
0.0
 10
132.8575256565
 20
189.4477849607
 30
0.0
 10
133.3500182915
 20
190.2316858406
 30
0.0
 10
134.0045400694
 20
190.8861886993
 30
0.0
 10
134.7884369561
 20
191.3786498757
 30
0.0
 10
135.6618334674
 20
191.684357152
 30
0.0
 10
136.2760478086
 20
191.7534436573
 30
0.0
 10
136.5820691108
 20
191.7534436573
 30
0.0
 11
132.4826935607
 21
187.6540681072
 31
0.0
 11
132.5854835993
 21
188.5664186689
 31
0.0
 11
132.8886627542
 21
189.4328888207
 31
0.0
 11
133.3770285577
 21
190.2101267315
 31
0.0
 11
134.0261030416
 21
190.8591824689
 31
0.0
 11
134.8033372757
 21
191.347517263
 31
0.0
 11
135.6697762563
 21
191.6506667891
 31
0.0
 11
136.5820691108
 21
191.7534436573
 31
0.0
  0
SPLINE
  5
341
100
AcDbEntity
  8
MANIFOLD_SOLID_BDXF_HIDDEN_LINE
100
AcDbSpline
 62
8
  6
HIDDEN
 70
0
 71
3
 72
14
 73
10
 74
8
 42
0.0000001
 43
0.0000001
 44
0.0000000001
 12
-6.4258702562
 22
0.0
 32
0.0
 13
0.0
 23
-6.4258702562
 33
0.0
 40
0.0
 40
0.0
 40
0.0
 40
0.0
 40
0.142879126
 40
0.2857361123
 40
0.4285856227
 40
0.571432684
 40
0.7142791426
 40
0.8571300275
 40
1.0
 40
1.0
 40
1.0
 40
1.0
 10
136.7217096303
 20
191.6138031379
 30
0.0
 10
136.4156687217
 20
191.6138031379
 30
0.0
 10
135.8014212813
 20
191.5447084342
 30
0.0
 10
134.9279927767
 20
191.2389710422
 30
0.0
 10
134.1440918969
 20
190.7464784071
 30
0.0
 10
133.4895890382
 20
190.0919566293
 30
0.0
 10
132.9971278617
 20
189.3080597425
 30
0.0
 10
132.6914205855
 20
188.4346632312
 30
0.0
 10
132.6223340801
 20
187.8204488901
 30
0.0
 10
132.6223340801
 20
187.5144275878
 30
0.0
 11
136.7217096303
 21
191.6138031379
 31
0.0
 11
135.8093590686
 21
191.5110130993
 31
0.0
 11
134.9428889168
 21
191.2078339444
 31
0.0
 11
134.165651006
 21
190.7194681409
 31
0.0
 11
133.5165952686
 21
190.070393657
 31
0.0
 11
133.0282604745
 21
189.2931594229
 31
0.0
 11
132.7251109484
 21
188.4267204423
 31
0.0
 11
132.6223340801
 21
187.5144275878
 31
0.0
  0
SPLINE
  5
342
100
AcDbEntity
  8
MANIFOLD_SOLID_BDXF_HIDDEN_LINE
100
AcDbSpline
 62
8
  6
HIDDEN
 70
0
 71
3
 72
14
 73
10
 74
8
 42
0.0000001
 43
0.0000001
 44
0.0000000001
 12
6.4258702562
 22
0.0
 32
0.0
 13
0.0
 23
-6.4258702562
 33
0.0
 40
0.0
 40
0.0
 40
0.0
 40
0.0
 40
0.142879126
 40
0.2857361123
 40
0.4285856227
 40
0.571432684
 40
0.7142791426
 40
0.8571300275
 40
1.0
 40
1.0
 40
1.0
 40
1.0
 10
187.9825455508
 20
191.7534436573
 30
0.0
 10
188.2885864594
 20
191.7534436573
 30
0.0
 10
188.9028338998
 20
191.6843489536
 30
0.0
 10
189.7762624043
 20
191.3786115616
 30
0.0
 10
190.5601632842
 20
190.8861189266
 30
0.0
 10
191.2146661429
 20
190.2315971487
 30
0.0
 10
191.7071273193
 20
189.4477002619
 30
0.0
 10
192.0128345956
 20
188.5743037506
 30
0.0
 10
192.081921101
 20
187.9600894095
 30
0.0
 10
192.081921101
 20
187.6540681072
 30
0.0
 11
187.9825455508
 21
191.7534436573
 31
0.0
 11
188.8948961125
 21
191.6506536187
 31
0.0
 11
189.7613662643
 21
191.3474744638
 31
0.0
 11
190.5386041751
 21
190.8591086603
 31
0.0
 11
191.1876599125
 21
190.2100341764
 31
0.0
 11
191.6759947066
 21
189.4327999423
 31
0.0
 11
191.9791442327
 21
188.5663609617
 31
0.0
 11
192.081921101
 21
187.6540681072
 31
0.0
  0
SPLINE
  5
343
100
AcDbEntity
  8
MANIFOLD_SOLID_BDXF_HIDDEN_LINE
100
AcDbSpline
 62
8
  6
HIDDEN
 70
0
 71
3
 72
17
 73
13
 74
11
 42
0.0000001
 43
0.0000001
 44
0.0000000001
 12
-0.0009537794
 22
8.6225134765
 32
0.0
 13
-8.6225134765
 23
0.0009537794
 33
0.0
 40
0.0
 40
0.0
 40
0.0
 40
0.0
 40
0.1251345437
 40
0.2500918082
 40
0.3126094041
 40
0.3751199121
 40
0.5
 40
0.6248800879
 40
0.6873905959
 40
0.7499081918
 40
0.8748654563
 40
1.0
 40
1.0
 40
1.0
 40
1.0
 10
193.3420886895
 20
187.5144482443
 30
0.0
 10
193.3420489059
 20
187.8741063407
 30
0.0
 10
193.2681054294
 20
188.5946962332
 30
0.0
 10
193.0029688652
 20
189.4591377877
 30
0.0
 10
192.6959340167
 20
190.1098298673
 30
0.0
 10
192.3279509547
 20
190.7277707903
 30
0.0
 10
191.7573749313
 20
191.4288974877
 30
0.0
 10
191.0562482339
 20
191.9994735111
 30
0.0
 10
190.4383073109
 20
192.3674565731
 30
0.0
 10
189.7876152313
 20
192.6744914216
 30
0.0
 10
188.9231736768
 20
192.9396279858
 30
0.0
 10
188.2025837843
 20
193.0135714623
 30
0.0
 10
187.8429256879
 20
193.0136112459
 30
0.0
 11
193.3420886895
 21
187.5144482443
 31
0.0
 11
193.2334616734
 21
188.5879405369
 31
0.0
 11
192.9183560887
 21
189.6182791781
 31
0.0
 11
192.6882895507
 21
190.1057766614
 31
0.0
 11
192.4123918611
 21
190.5688090423
 31
0.0
 11
191.7312706882
 21
191.4027932446
 31
0.0
 11
190.8972864859
 21
192.0839144175
 31
0.0
 11
190.434254105
 21
192.3598121071
 31
0.0
 11
189.9467566217
 21
192.5898786451
 31
0.0
 11
188.9164179805
 21
192.9049842298
 31
0.0
 11
187.8429256879
 21
193.0136112459
 31
0.0
  0
SPLINE
  5
344
100
AcDbEntity
  8
MANIFOLD_SOLID_BDXF_HIDDEN_LINE
100
AcDbSpline
 62
8
  6
HIDDEN
 70
0
 71
3
 72
11
 73
7
 74
5
 42
0.0000001
 43
0.0000001
 44
0.0000000001
 12
-1.9439257318
 22
1.9368044711
 32
0.0
 13
-2.7440902249
 23
0.0052581218
 33
0.0
 40
0.0
 40
0.0
 40
0.0
 40
0.0
 40
0.2499174455
 40
0.4998952988
 40
0.7499157482
 40
1.0
 40
1.0
 40
1.0
 40
1.0
 10
190.3174871349
 20
189.9890096913
 30
0.0
 10
190.1555468172
 20
190.1503567665
 30
0.0
 10
189.7998715375
 20
190.4431270047
 30
0.0
 10
189.1909567352
 20
190.768198681
 30
0.0
 10
188.5303902964
 20
190.9689951323
 30
0.0
 10
188.0716769381
 20
191.0134768528
 30
0.0
 10
187.8429256879
 20
191.0139151773
 30
0.0
 11
190.3174871349
 21
189.9890096913
 31
0.0
 11
189.7873604238
 21
190.424077016
 31
0.0
 11
189.1824077268
 21
190.7474615098
 31
0.0
 11
188.5258746527
 21
190.9466347857
 31
0.0
 11
187.8429256879
 21
191.0139151773
 31
0.0
  0
SPLINE
  5
345
100
AcDbEntity
  8
MANIFOLD_SOLID_BDXF_HIDDEN_LINE
100
AcDbSpline
 62
8
  6
HIDDEN
 70
0
 71
3
 72
11
 73
7
 74
5
 42
0.0000001
 43
0.0000001
 44
0.0000000001
 12
-0.0052609241
 22
2.7440902195
 32
0.0
 13
-1.9368064586
 23
1.9439237516
 33
0.0
 40
0.0
 40
0.0
 40
0.0
 40
0.0
 40
0.2500861976
 40
0.5001072956
 40
0.7500845003
 40
1.0
 40
1.0
 40
1.0
 40
1.0
 10
191.3423926209
 20
187.5144482443
 30
0.0
 10
191.3419540594
 20
187.7432012739
 30
0.0
 10
191.2974720882
 20
188.2019170298
 30
0.0
 10
191.0966738153
 20
188.8624848664
 30
0.0
 10
190.7716018395
 20
189.4713973922
 30
0.0
 10
190.4788331195
 20
189.8270707993
 30
0.0
 10
190.3174871349
 20
189.9890096913
 30
0.0
 11
191.3423926209
 21
187.5144482443
 31
0.0
 11
191.2751111824
 21
188.1974024712
 31
0.0
 11
191.0759362155
 21
188.8539368925
 31
0.0
 11
190.7525514787
 21
189.4588874412
 31
0.0
 11
190.3174871349
 21
189.9890096913
 31
0.0
  0
SPLINE
  5
346
100
AcDbEntity
  8
MANIFOLD_SOLID_BDXF_HIDDEN_LINE
100
AcDbSpline
 62
8
  6
HIDDEN
 70
0
 71
3
 72
11
 73
7
 74
5
 42
0.0000001
 43
0.0000001
 44
0.0000000001
 12
1.9368044711
 22
1.9439257318
 32
0.0
 13
0.0052581218
 23
2.7440902249
 33
0.0
 40
0.0
 40
0.0
 40
0.0
 40
0.0
 40
0.2499174455
 40
0.4998952988
 40
0.7499157482
 40
1.0
 40
1.0
 40
1.0
 40
1.0
 10
190.3174871349
 20
133.9186500832
 30
0.0
 10
190.4788342101
 20
134.0805904009
 30
0.0
 10
190.7716044483
 20
134.4362656805
 30
0.0
 10
191.0966761246
 20
135.0451804829
 30
0.0
 10
191.297472576
 20
135.7057469216
 30
0.0
 10
191.3419542964
 20
136.1644602799
 30
0.0
 10
191.3423926209
 20
136.3932115302
 30
0.0
 11
190.3174871349
 21
133.9186500832
 31
0.0
 11
190.7525544596
 21
134.4487767942
 31
0.0
 11
191.0759389534
 21
135.0537294913
 31
0.0
 11
191.2751122293
 21
135.7102625654
 31
0.0
 11
191.3423926209
 21
136.3932115302
 31
0.0
  0
SPLINE
  5
347
100
AcDbEntity
  8
MANIFOLD_SOLID_BDXF_HIDDEN_LINE
100
AcDbSpline
 62
8
  6
HIDDEN
 70
0
 71
3
 72
11
 73
7
 74
5
 42
0.0000001
 43
0.0000001
 44
0.0000000001
 12
2.7440902195
 22
0.0052609241
 32
0.0
 13
1.9439237516
 23
1.9368064586
 33
0.0
 40
0.0
 40
0.0
 40
0.0
 40
0.0
 40
0.2500861976
 40
0.5001072956
 40
0.7500845003
 40
1.0
 40
1.0
 40
1.0
 40
1.0
 10
187.8429256879
 20
132.8937445971
 30
0.0
 10
188.0716787175
 20
132.8941831586
 30
0.0
 10
188.5303944734
 20
132.9386651298
 30
0.0
 10
189.19096231
 20
133.1394634027
 30
0.0
 10
189.7998748358
 20
133.4645353785
 30
0.0
 10
190.1555482429
 20
133.7573040985
 30
0.0
 10
190.3174871349
 20
133.9186500832
 30
0.0
 11
187.8429256879
 21
132.8937445971
 31
0.0
 11
188.5258799148
 21
132.9610260356
 31
0.0
 11
189.1824143361
 21
133.1602010025
 31
0.0
 11
189.7873648848
 21
133.4835857394
 31
0.0
 11
190.3174871349
 21
133.9186500832
 31
0.0
  0
SPLINE
  5
348
100
AcDbEntity
  8
MANIFOLD_SOLID_BDXF_HIDDEN_LINE
100
AcDbSpline
 62
8
  6
HIDDEN
 70
0
 71
3
 72
17
 73
13
 74
11
 42
0.0000001
 43
0.0000001
 44
0.0000000001
 12
8.6225134765
 22
0.0009537794
 32
0.0
 13
0.0009537794
 23
8.6225134765
 33
0.0
 40
0.0
 40
0.0
 40
0.0
 40
0.0
 40
0.1251345437
 40
0.2500918082
 40
0.3126094041
 40
0.3751199121
 40
0.5
 40
0.6248800879
 40
0.6873905959
 40
0.7499081918
 40
0.8748654563
 40
1.0
 40
1.0
 40
1.0
 40
1.0
 10
187.8429256879
 20
130.8940485286
 30
0.0
 10
188.2025837843
 20
130.8940883121
 30
0.0
 10
188.9231736768
 20
130.9680317886
 30
0.0
 10
189.7876152313
 20
131.2331683528
 30
0.0
 10
190.4383073109
 20
131.5402032014
 30
0.0
 10
191.0562482339
 20
131.9081862634
 30
0.0
 10
191.7573749313
 20
132.4787622868
 30
0.0
 10
192.3279509547
 20
133.1798889842
 30
0.0
 10
192.6959340167
 20
133.7978299071
 30
0.0
 10
193.0029688652
 20
134.4485219867
 30
0.0
 10
193.2681054294
 20
135.3129635413
 30
0.0
 10
193.3420489059
 20
136.0335534337
 30
0.0
 10
193.3420886895
 20
136.3932115301
 30
0.0
 11
187.8429256879
 21
130.8940485286
 31
0.0
 11
188.9164179805
 21
131.0026755447
 31
0.0
 11
189.9467566217
 21
131.3177811294
 31
0.0
 11
190.434254105
 21
131.5478476673
 31
0.0
 11
190.8972864859
 21
131.8237453569
 31
0.0
 11
191.7312706882
 21
132.5048665298
 31
0.0
 11
192.4123918611
 21
133.3388507321
 31
0.0
 11
192.6882895507
 21
133.8018831131
 31
0.0
 11
192.9183560887
 21
134.2893805963
 31
0.0
 11
193.2334616734
 21
135.3197192375
 31
0.0
 11
193.3420886895
 21
136.3932115301
 31
0.0
  0
SPLINE
  5
349
100
AcDbEntity
  8
MANIFOLD_SOLID_BDXF_HIDDEN_LINE
100
AcDbSpline
 62
8
  6
HIDDEN
 70
0
 71
3
 72
17
 73
13
 74
11
 42
0.0000001
 43
0.0000001
 44
0.0000000001
 12
0.0009537794
 22
-8.6225134765
 32
0.0
 13
8.6225134765
 23
-0.0009537794
 33
0.0
 40
0.0
 40
0.0
 40
0.0
 40
0.0
 40
0.1251345437
 40
0.2500918082
 40
0.3126094041
 40
0.3751199121
 40
0.5
 40
0.6248800879
 40
0.6873905959
 40
0.7499081918
 40
0.8748654563
 40
1.0
 40
1.0
 40
1.0
 40
1.0
 10
131.2225259722
 20
136.3932115301
 30
0.0
 10
131.2225657557
 20
136.0335534337
 30
0.0
 10
131.2965092322
 20
135.3129635413
 30
0.0
 10
131.5616457964
 20
134.4485219867
 30
0.0
 10
131.868680645
 20
133.7978299071
 30
0.0
 10
132.236663707
 20
133.1798889842
 30
0.0
 10
132.8072397304
 20
132.4787622868
 30
0.0
 10
133.5083664278
 20
131.9081862634
 30
0.0
 10
134.1263073507
 20
131.5402032014
 30
0.0
 10
134.7769994303
 20
131.2331683528
 30
0.0
 10
135.6414409849
 20
130.9680317886
 30
0.0
 10
136.3620308773
 20
130.8940883121
 30
0.0
 10
136.7216889737
 20
130.8940485286
 30
0.0
 11
131.2225259722
 21
136.3932115301
 31
0.0
 11
131.3311529883
 21
135.3197192375
 31
0.0
 11
131.646258573
 21
134.2893805963
 31
0.0
 11
131.8763251109
 21
133.8018831131
 31
0.0
 11
132.1522228005
 21
133.3388507321
 31
0.0
 11
132.8333439734
 21
132.5048665298
 31
0.0
 11
133.6673281757
 21
131.8237453569
 31
0.0
 11
134.1303605567
 21
131.5478476673
 31
0.0
 11
134.6178580399
 21
131.3177811294
 31
0.0
 11
135.6481966811
 21
131.0026755447
 31
0.0
 11
136.7216889737
 21
130.8940485286
 31
0.0
  0
SPLINE
  5
34A
100
AcDbEntity
  8
MANIFOLD_SOLID_BDXF_HIDDEN_LINE
100
AcDbSpline
 62
8
  6
HIDDEN
 70
0
 71
3
 72
17
 73
13
 74
11
 42
0.0000001
 43
0.0000001
 44
0.0000000001
 12
-8.6225134765
 22
-0.0009537794
 32
0.0
 13
-0.0009537794
 23
-8.6225134765
 33
0.0
 40
0.0
 40
0.0
 40
0.0
 40
0.0
 40
0.1251345437
 40
0.2500918082
 40
0.3126094041
 40
0.3751199121
 40
0.5
 40
0.6248800879
 40
0.6873905959
 40
0.7499081918
 40
0.8748654563
 40
1.0
 40
1.0
 40
1.0
 40
1.0
 10
136.7216889737
 20
193.0136112459
 30
0.0
 10
136.3620308773
 20
193.0135714623
 30
0.0
 10
135.6414409849
 20
192.9396279858
 30
0.0
 10
134.7769994303
 20
192.6744914216
 30
0.0
 10
134.1263073507
 20
192.3674565731
 30
0.0
 10
133.5083664278
 20
191.9994735111
 30
0.0
 10
132.8072397304
 20
191.4288974877
 30
0.0
 10
132.236663707
 20
190.7277707903
 30
0.0
 10
131.868680645
 20
190.1098298673
 30
0.0
 10
131.5616457964
 20
189.4591377877
 30
0.0
 10
131.2965092322
 20
188.5946962332
 30
0.0
 10
131.2225657557
 20
187.8741063407
 30
0.0
 10
131.2225259722
 20
187.5144482443
 30
0.0
 11
136.7216889737
 21
193.0136112459
 31
0.0
 11
135.6481966811
 21
192.9049842298
 31
0.0
 11
134.6178580399
 21
192.5898786451
 31
0.0
 11
134.1303605567
 21
192.3598121071
 31
0.0
 11
133.6673281757
 21
192.0839144175
 31
0.0
 11
132.8333439734
 21
191.4027932446
 31
0.0
 11
132.1522228005
 21
190.5688090423
 31
0.0
 11
131.8763251109
 21
190.1057766614
 31
0.0
 11
131.646258573
 21
189.6182791781
 31
0.0
 11
131.3311529883
 21
188.5879405369
 31
0.0
 11
131.2225259722
 21
187.5144482443
 31
0.0
  0
SPLINE
  5
34B
100
AcDbEntity
  8
MANIFOLD_SOLID_BDXF_HIDDEN_LINE
100
AcDbSpline
 62
8
  6
HIDDEN
 70
0
 71
3
 72
11
 73
7
 74
5
 42
0.0000001
 43
0.0000001
 44
0.0000000001
 12
-2.7440902195
 22
-0.0052609241
 32
0.0
 13
-1.9439237516
 23
-1.9368064586
 33
0.0
 40
0.0
 40
0.0
 40
0.0
 40
0.0
 40
0.2500861976
 40
0.5001072956
 40
0.7500845003
 40
1.0
 40
1.0
 40
1.0
 40
1.0
 10
136.7216889738
 20
191.0139151773
 30
0.0
 10
136.4929359442
 20
191.0134766158
 30
0.0
 10
136.0342201883
 20
190.9689946446
 30
0.0
 10
135.3736523516
 20
190.7681963717
 30
0.0
 10
134.7647398258
 20
190.4431243959
 30
0.0
 10
134.4090664187
 20
190.1503556759
 30
0.0
 10
134.2471275268
 20
189.9890096913
 30
0.0
 11
136.7216889738
 21
191.0139151773
 31
0.0
 11
136.0387347468
 21
190.9466337388
 31
0.0
 11
135.3822003256
 21
190.7474587719
 31
0.0
 11
134.7772497769
 21
190.4240740351
 31
0.0
 11
134.2471275268
 21
189.9890096913
 31
0.0
  0
SPLINE
  5
34C
100
AcDbEntity
  8
MANIFOLD_SOLID_BDXF_HIDDEN_LINE
100
AcDbSpline
 62
8
  6
HIDDEN
 70
0
 71
3
 72
11
 73
7
 74
5
 42
0.0000001
 43
0.0000001
 44
0.0000000001
 12
-1.9368044711
 22
-1.9439257318
 32
0.0
 13
-0.0052581218
 23
-2.7440902249
 33
0.0
 40
0.0
 40
0.0
 40
0.0
 40
0.0
 40
0.2499174455
 40
0.4998952988
 40
0.7499157482
 40
1.0
 40
1.0
 40
1.0
 40
1.0
 10
134.2471275268
 20
189.9890096913
 30
0.0
 10
134.0857804515
 20
189.8270693735
 30
0.0
 10
133.7930102134
 20
189.4713940939
 30
0.0
 10
133.4679385371
 20
188.8624792916
 30
0.0
 10
133.2671420857
 20
188.2019128528
 30
0.0
 10
133.2226603652
 20
187.7431994945
 30
0.0
 10
133.2222220407
 20
187.5144482443
 30
0.0
 11
134.2471275268
 21
189.9890096913
 31
0.0
 11
133.812060202
 21
189.4588829802
 31
0.0
 11
133.4886757082
 21
188.8539302832
 31
0.0
 11
133.2895024324
 21
188.1973972091
 31
0.0
 11
133.2222220407
 21
187.5144482443
 31
0.0
  0
SPLINE
  5
34D
100
AcDbEntity
  8
MANIFOLD_SOLID_BDXF_HIDDEN_LINE
100
AcDbSpline
 62
8
  6
HIDDEN
 70
0
 71
3
 72
11
 73
7
 74
5
 42
0.0000001
 43
0.0000001
 44
0.0000000001
 12
0.0052609241
 22
-2.7440902195
 32
0.0
 13
1.9368064586
 23
-1.9439237516
 33
0.0
 40
0.0
 40
0.0
 40
0.0
 40
0.0
 40
0.2500861976
 40
0.5001072956
 40
0.7500845003
 40
1.0
 40
1.0
 40
1.0
 40
1.0
 10
133.2222220407
 20
136.3932115302
 30
0.0
 10
133.2226606022
 20
136.1644585006
 30
0.0
 10
133.2671425734
 20
135.7057427447
 30
0.0
 10
133.4679408463
 20
135.045174908
 30
0.0
 10
133.7930128221
 20
134.4362623822
 30
0.0
 10
134.0857815422
 20
134.0805889751
 30
0.0
 10
134.2471275268
 20
133.9186500832
 30
0.0
 11
133.2222220407
 21
136.3932115302
 31
0.0
 11
133.2895034792
 21
135.7102573032
 31
0.0
 11
133.4886784462
 21
135.053722882
 31
0.0
 11
133.812063183
 21
134.4487723333
 31
0.0
 11
134.2471275268
 21
133.9186500832
 31
0.0
  0
SPLINE
  5
34E
100
AcDbEntity
  8
MANIFOLD_SOLID_BDXF_HIDDEN_LINE
100
AcDbSpline
 62
8
  6
HIDDEN
 70
0
 71
3
 72
11
 73
7
 74
5
 42
0.0000001
 43
0.0000001
 44
0.0000000001
 12
1.9439257318
 22
-1.9368044711
 32
0.0
 13
2.7440902249
 23
-0.0052581218
 33
0.0
 40
0.0
 40
0.0
 40
0.0
 40
0.0
 40
0.2499174455
 40
0.4998952988
 40
0.7499157482
 40
1.0
 40
1.0
 40
1.0
 40
1.0
 10
134.2471275268
 20
133.9186500832
 30
0.0
 10
134.4090678445
 20
133.7573030079
 30
0.0
 10
134.7647431241
 20
133.4645327698
 30
0.0
 10
135.3736579265
 20
133.1394610935
 30
0.0
 10
136.0342243652
 20
132.9386646421
 30
0.0
 10
136.4929377235
 20
132.8941829216
 30
0.0
 10
136.7216889738
 20
132.8937445971
 30
0.0
 11
134.2471275268
 21
133.9186500832
 31
0.0
 11
134.7772542378
 21
133.4835827584
 31
0.0
 11
135.3822069349
 21
133.1601982646
 31
0.0
 11
136.038740009
 21
132.9610249888
 31
0.0
 11
136.7216889738
 21
132.8937445971
 31
0.0
  0
SPLINE
  5
34F
100
AcDbEntity
  8
MANIFOLD_SOLID_BDXF_HIDDEN_LINE
100
AcDbSpline
 62
8
  6
HIDDEN
 70
0
 71
3
 72
12
 73
8
 74
6
 42
0.0000001
 43
0.0000001
 44
0.0000000001
 12
0.5002127727
 22
0.0
 32
0.0
 13
0.0
 23
-0.5002127727
 33
0.0
 40
0.0
 40
0.0
 40
0.0
 40
0.0
 40
0.0492250035
 40
0.1912989013
 40
0.412479844
 40
0.6911391661
 40
1.0
 40
1.0
 40
1.0
 40
1.0
 10
131.0822768652
 20
149.4538298872
 30
0.0
 10
131.0904845237
 20
149.4538298872
 30
0.0
 10
131.07709806
 20
149.4027426641
 30
0.0
 10
131.0931296373
 20
149.3517479084
 30
0.0
 10
131.0874880885
 20
149.2354409032
 30
0.0
 10
131.0914900853
 20
149.1042298504
 30
0.0
 10
131.0910043977
 20
149.0053285986
 30
0.0
 10
131.0910043977
 20
148.9538298872
 30
0.0
 11
131.0822768652
 21
149.4538298872
 31
0.0
 11
131.0849739859
 21
149.4293550744
 31
0.0
 11
131.0874069921
 21
149.3583295556
 31
0.0
 11
131.0893377603
 21
149.2477088715
 31
0.0
 11
131.0905773153
 21
149.108325431
 31
0.0
 11
131.0910043977
 21
148.9538298872
 31
0.0
  0
SPLINE
  5
350
100
AcDbEntity
  8
MANIFOLD_SOLID_BDXF_HIDDEN_LINE
100
AcDbSpline
 62
8
  6
HIDDEN
 70
0
 71
3
 72
12
 73
8
 74
6
 42
0.0000001
 43
0.0000001
 44
0.0000000001
 12
0.5002127727
 22
0.0
 32
0.0
 13
0.0
 23
-0.5002127727
 33
0.0
 40
0.0
 40
0.0
 40
0.0
 40
0.0
 40
0.0492250035
 40
0.1912989013
 40
0.412479844
 40
0.6911391661
 40
1.0
 40
1.0
 40
1.0
 40
1.0
 10
131.0822768652
 20
180.3538298872
 30
0.0
 10
131.0904845237
 20
180.3538298872
 30
0.0
 10
131.07709806
 20
180.3027426641
 30
0.0
 10
131.0931296373
 20
180.2517479084
 30
0.0
 10
131.0874880885
 20
180.1354409032
 30
0.0
 10
131.0914900853
 20
180.0042298504
 30
0.0
 10
131.0910043977
 20
179.9053285986
 30
0.0
 10
131.0910043977
 20
179.8538298872
 30
0.0
 11
131.0822768652
 21
180.3538298872
 31
0.0
 11
131.0849739859
 21
180.3293550744
 31
0.0
 11
131.0874069921
 21
180.2583295556
 31
0.0
 11
131.0893377603
 21
180.1477088715
 31
0.0
 11
131.0905773153
 21
180.008325431
 31
0.0
 11
131.0910043977
 21
179.8538298872
 31
0.0
  0
SPLINE
  5
351
100
AcDbEntity
  8
MANIFOLD_SOLID_BDXF_HIDDEN_LINE
100
AcDbSpline
 62
8
  6
HIDDEN
 70
0
 71
3
 72
12
 73
8
 74
6
 42
0.0000001
 43
0.0000001
 44
0.0000000001
 12
-0.5002127727
 22
0.0
 32
0.0
 13
-0.0
 23
0.5002127727
 33
0.0
 40
0.0
 40
0.0
 40
0.0
 40
0.0
 40
0.0492250035
 40
0.1912989013
 40
0.412479844
 40
0.6911391661
 40
1.0
 40
1.0
 40
1.0
 40
1.0
 10
193.4823377964
 20
143.5538298872
 30
0.0
 10
193.4741301379
 20
143.5538298872
 30
0.0
 10
193.4875166017
 20
143.6049171103
 30
0.0
 10
193.4714850243
 20
143.6559118661
 30
0.0
 10
193.4771265731
 20
143.7722188712
 30
0.0
 10
193.4731245764
 20
143.903429924
 30
0.0
 10
193.473610264
 20
144.0023311759
 30
0.0
 10
193.473610264
 20
144.0538298872
 30
0.0
 11
193.4823377964
 21
143.5538298872
 31
0.0
 11
193.4796406757
 21
143.5783047
 31
0.0
 11
193.4772076695
 21
143.6493302188
 31
0.0
 11
193.4752769013
 21
143.7599509029
 31
0.0
 11
193.4740373463
 21
143.8993343434
 31
0.0
 11
193.473610264
 21
144.0538298872
 31
0.0
  0
SPLINE
  5
352
100
AcDbEntity
  8
MANIFOLD_SOLID_BDXF_HIDDEN_LINE
100
AcDbSpline
 62
8
  6
HIDDEN
 70
0
 71
3
 72
12
 73
8
 74
6
 42
0.0000001
 43
0.0000001
 44
0.0000000001
 12
-0.5002127727
 22
0.0
 32
0.0
 13
0.0
 23
0.5002127727
 33
0.0
 40
0.0
 40
0.0
 40
0.0
 40
0.0
 40
0.0492250035
 40
0.1912989013
 40
0.412479844
 40
0.6911391661
 40
1.0
 40
1.0
 40
1.0
 40
1.0
 10
193.4823377964
 20
174.4538298872
 30
0.0
 10
193.4741301379
 20
174.4538298872
 30
0.0
 10
193.4875166017
 20
174.5049171103
 30
0.0
 10
193.4714850243
 20
174.5559118661
 30
0.0
 10
193.4771265731
 20
174.6722188712
 30
0.0
 10
193.4731245764
 20
174.803429924
 30
0.0
 10
193.473610264
 20
174.9023311759
 30
0.0
 10
193.473610264
 20
174.9538298872
 30
0.0
 11
193.4823377964
 21
174.4538298872
 31
0.0
 11
193.4796406757
 21
174.4783047
 31
0.0
 11
193.4772076695
 21
174.5493302188
 31
0.0
 11
193.4752769013
 21
174.6599509029
 31
0.0
 11
193.4740373463
 21
174.7993343434
 31
0.0
 11
193.473610264
 21
174.9538298872
 31
0.0
  0
SPLINE
  5
353
100
AcDbEntity
  8
MANIFOLD_SOLID_BDXF_HIDDEN_LINE
100
AcDbSpline
 62
8
  6
HIDDEN
 70
0
 71
3
 72
12
 73
8
 74
6
 42
0.0000001
 43
0.0000001
 44
0.0000000001
 12
0.0
 22
0.5002127711
 32
0.0
 13
0.5002127711
 23
0.0
 33
0.0
 40
0.0
 40
0.0
 40
0.0
 40
0.0
 40
0.3088679329
 40
0.5875231817
 40
0.8086989143
 40
0.9507726941
 40
1.0
 40
1.0
 40
1.0
 40
1.0
 10
193.473610264
 20
179.8538298872
 30
0.0
 10
193.473610264
 20
179.9053297821
 30
0.0
 10
193.4731245711
 20
180.0042315473
 30
0.0
 10
193.477126536
 20
180.1354423163
 30
0.0
 10
193.4714851748
 20
180.2517474316
 30
0.0
 10
193.4875166218
 20
180.3027419299
 30
0.0
 10
193.4741297541
 20
180.3538298872
 30
0.0
 10
193.4823377964
 20
180.3538298872
 30
0.0
 11
193.473610264
 21
179.8538298872
 31
0.0
 11
193.4740373665
 21
180.0083289815
 31
0.0
 11
193.4752769205
 21
180.1477103839
 31
0.0
 11
193.4772076433
 21
180.258328462
 31
0.0
 11
193.4796406139
 21
180.3293539227
 31
0.0
 11
193.4823377964
 21
180.3538298872
 31
0.0
  0
SPLINE
  5
354
100
AcDbEntity
  8
MANIFOLD_SOLID_BDXF_HIDDEN_LINE
100
AcDbSpline
 62
8
  6
HIDDEN
 70
0
 71
3
 72
12
 73
8
 74
6
 42
0.0000001
 43
0.0000001
 44
0.0000000001
 12
0.0
 22
0.5002127711
 32
0.0
 13
0.5002127711
 23
0.0
 33
0.0
 40
0.0
 40
0.0
 40
0.0
 40
0.0
 40
0.3088679329
 40
0.5875231817
 40
0.8086989143
 40
0.9507726941
 40
1.0
 40
1.0
 40
1.0
 40
1.0
 10
193.473610264
 20
148.9538298872
 30
0.0
 10
193.473610264
 20
149.0053297821
 30
0.0
 10
193.4731245711
 20
149.1042315473
 30
0.0
 10
193.477126536
 20
149.2354423163
 30
0.0
 10
193.4714851748
 20
149.3517474316
 30
0.0
 10
193.4875166218
 20
149.4027419299
 30
0.0
 10
193.4741297541
 20
149.4538298872
 30
0.0
 10
193.4823377964
 20
149.4538298872
 30
0.0
 11
193.473610264
 21
148.9538298872
 31
0.0
 11
193.4740373665
 21
149.1083289815
 31
0.0
 11
193.4752769205
 21
149.2477103839
 31
0.0
 11
193.4772076433
 21
149.358328462
 31
0.0
 11
193.4796406139
 21
149.4293539227
 31
0.0
 11
193.4823377964
 21
149.4538298872
 31
0.0
  0
SPLINE
  5
355
100
AcDbEntity
  8
MANIFOLD_SOLID_BDXF_HIDDEN_LINE
100
AcDbSpline
 62
8
  6
HIDDEN
 70
0
 71
3
 72
12
 73
8
 74
6
 42
0.0000001
 43
0.0000001
 44
0.0000000001
 12
0.0
 22
-0.5002127711
 32
0.0
 13
-0.5002127711
 23
0.0
 33
0.0
 40
0.0
 40
0.0
 40
0.0
 40
0.0
 40
0.3088679329
 40
0.5875231817
 40
0.8086989143
 40
0.9507726941
 40
1.0
 40
1.0
 40
1.0
 40
1.0
 10
131.0910043977
 20
144.0538298872
 30
0.0
 10
131.0910043977
 20
144.0023299923
 30
0.0
 10
131.0914900906
 20
143.9034282272
 30
0.0
 10
131.0874881257
 20
143.7722174582
 30
0.0
 10
131.0931294869
 20
143.6559123428
 30
0.0
 10
131.0770980399
 20
143.6049178445
 30
0.0
 10
131.0904849076
 20
143.5538298872
 30
0.0
 10
131.0822768652
 20
143.5538298872
 30
0.0
 11
131.0910043977
 21
144.0538298872
 31
0.0
 11
131.0905772952
 21
143.8993307929
 31
0.0
 11
131.0893377411
 21
143.7599493905
 31
0.0
 11
131.0874070184
 21
143.6493313125
 31
0.0
 11
131.0849740478
 21
143.5783058518
 31
0.0
 11
131.0822768652
 21
143.5538298872
 31
0.0
  0
SPLINE
  5
356
100
AcDbEntity
  8
MANIFOLD_SOLID_BDXF_HIDDEN_LINE
100
AcDbSpline
 62
8
  6
HIDDEN
 70
0
 71
3
 72
12
 73
8
 74
6
 42
0.0000001
 43
0.0000001
 44
0.0000000001
 12
0.0
 22
-0.5002127711
 32
0.0
 13
-0.5002127711
 23
0.0
 33
0.0
 40
0.0
 40
0.0
 40
0.0
 40
0.0
 40
0.3088679329
 40
0.5875231817
 40
0.8086989143
 40
0.9507726941
 40
1.0
 40
1.0
 40
1.0
 40
1.0
 10
131.0910043977
 20
174.9538298872
 30
0.0
 10
131.0910043977
 20
174.9023299923
 30
0.0
 10
131.0914900906
 20
174.8034282272
 30
0.0
 10
131.0874881257
 20
174.6722174582
 30
0.0
 10
131.0931294869
 20
174.5559123428
 30
0.0
 10
131.0770980399
 20
174.5049178445
 30
0.0
 10
131.0904849076
 20
174.4538298872
 30
0.0
 10
131.0822768652
 20
174.4538298872
 30
0.0
 11
131.0910043977
 21
174.9538298872
 31
0.0
 11
131.0905772952
 21
174.7993307929
 31
0.0
 11
131.0893377411
 21
174.6599493905
 31
0.0
 11
131.0874070184
 21
174.5493313125
 31
0.0
 11
131.0849740478
 21
174.4783058518
 31
0.0
 11
131.0822768652
 21
174.4538298872
 31
0.0
  0
SPLINE
  5
357
100
AcDbEntity
  8
MANIFOLD_SOLID_BDXF_HIDDEN_LINE
100
AcDbSpline
 62
8
  6
HIDDEN
 70
0
 71
3
 72
14
 73
10
 74
8
 42
0.0000001
 43
0.0000001
 44
0.0000000001
 12
-6.3481658439
 22
0.0
 32
0.0
 13
0.0
 23
6.3481658439
 33
0.0
 40
0.0
 40
0.0
 40
0.0
 40
0.0
 40
0.1428626397
 40
0.2857197436
 40
0.4285749779
 40
0.5714295999
 40
0.7142840712
 40
0.8571396492
 40
1.0
 40
1.0
 40
1.0
 40
1.0
 10
136.6617538028
 20
132.2834305708
 30
0.0
 10
136.3594485596
 20
132.2834305708
 30
0.0
 10
135.7526641128
 20
132.3516927826
 30
0.0
 10
134.8898230361
 20
132.653737448
 30
0.0
 10
134.1153809256
 20
133.1402941249
 30
0.0
 10
133.4687543318
 20
133.786925392
 30
0.0
 10
132.982205426
 20
134.5613665161
 30
0.0
 10
132.6801682005
 20
135.4241996895
 30
0.0
 10
132.6119080144
 20
136.0309759594
 30
0.0
 10
132.6119080144
 20
136.3332763592
 30
0.0
 11
136.6617538028
 21
132.2834305708
 31
0.0
 11
135.7605403715
 21
132.3849711639
 31
0.0
 11
134.9045499888
 21
132.6844922228
 31
0.0
 11
134.1366817264
 21
133.1669745594
 31
0.0
 11
133.4954337695
 21
133.808227147
 31
0.0
 11
133.0129590928
 21
134.5760945019
 31
0.0
 11
132.7134453539
 21
135.4320771835
 31
0.0
 11
132.6119080144
 21
136.3332763592
 31
0.0
  0
SPLINE
  5
358
100
AcDbEntity
  8
MANIFOLD_SOLID_BDXF_HIDDEN_LINE
100
AcDbSpline
 62
8
  6
HIDDEN
 70
0
 71
3
 72
14
 73
10
 74
8
 42
0.0000001
 43
0.0000001
 44
0.0000000001
 12
0.0
 22
-6.3481658439
 32
0.0
 13
6.3481658439
 23
0.0
 33
0.0
 40
0.0
 40
0.0
 40
0.0
 40
0.0
 40
0.1428626397
 40
0.2857197436
 40
0.4285749779
 40
0.5714295999
 40
0.7142840712
 40
0.8571396492
 40
1.0
 40
1.0
 40
1.0
 40
1.0
 10
132.585727411
 20
136.3070957558
 30
0.0
 10
132.585727411
 20
136.0047905126
 30
0.0
 10
132.6539896228
 20
135.3980060658
 30
0.0
 10
132.9560342882
 20
134.5351649891
 30
0.0
 10
133.4425909652
 20
133.7607228786
 30
0.0
 10
134.0892222323
 20
133.1140962848
 30
0.0
 10
134.8636633564
 20
132.627547379
 30
0.0
 10
135.7264965298
 20
132.3255101536
 30
0.0
 10
136.3332727996
 20
132.2572499674
 30
0.0
 10
136.6355731994
 20
132.2572499674
 30
0.0
 11
132.585727411
 21
136.3070957558
 31
0.0
 11
132.6872680042
 21
135.4058823245
 31
0.0
 11
132.986789063
 21
134.5498919418
 31
0.0
 11
133.4692713996
 21
133.7820236794
 31
0.0
 11
134.1105239873
 21
133.1407757225
 31
0.0
 11
134.8783913421
 21
132.6583010458
 31
0.0
 11
135.7343740237
 21
132.3587873069
 31
0.0
 11
136.6355731994
 21
132.2572499674
 31
0.0
  0
SPLINE
  5
359
100
AcDbEntity
  8
MANIFOLD_SOLID_BDXF_HIDDEN_LINE
100
AcDbSpline
 62
8
  6
HIDDEN
 70
0
 71
3
 72
12
 73
8
 74
6
 42
0.0000001
 43
0.0000001
 44
0.0000000001
 12
0.0
 22
-0.5000532138
 32
0.0
 13
0.5000532138
 23
0.0
 33
0.0
 40
0.0
 40
0.0
 40
0.0
 40
0.0
 40
0.3099645547
 40
0.5881413326
 40
0.8086534801
 40
0.9506722641
 40
1.0
 40
1.0
 40
1.0
 40
1.0
 10
132.5813639771
 20
174.9538298872
 30
0.0
 10
132.5813639771
 20
174.90216363
 30
0.0
 10
132.5806427733
 20
174.8031768245
 30
0.0
 10
132.5844783585
 20
174.672049112
 30
0.0
 10
132.5769751681
 20
174.5558956048
 30
0.0
 10
132.5939689431
 20
174.5051817325
 30
0.0
 10
132.5775052467
 20
174.4538298872
 30
0.0
 10
132.585727411
 20
174.4538298872
 30
0.0
 11
132.5813639771
 21
174.9538298872
 31
0.0
 11
132.5815789503
 21
174.7988312645
 31
0.0
 11
132.5821986858
 21
174.6597294533
 31
0.0
 11
132.5831609816
 21
174.5494658442
 31
0.0
 11
132.5843748683
 21
174.4784592701
 31
0.0
 11
132.585727411
 21
174.4538298872
 31
0.0
  0
SPLINE
  5
35A
100
AcDbEntity
  8
MANIFOLD_SOLID_BDXF_HIDDEN_LINE
100
AcDbSpline
 62
8
  6
HIDDEN
 70
0
 71
3
 72
12
 73
8
 74
6
 42
0.0000001
 43
0.0000001
 44
0.0000000001
 12
-0.5000532117
 22
0.0
 32
0.0
 13
0.0
 23
-0.5000532117
 33
0.0
 40
0.0
 40
0.0
 40
0.0
 40
0.0
 40
0.0493391918
 40
0.1913802549
 40
0.411906537
 40
0.6900740679
 40
1.0
 40
1.0
 40
1.0
 40
1.0
 10
132.585727411
 20
180.3538298872
 30
0.0
 10
132.5775033373
 20
180.3538298872
 30
0.0
 10
132.5939705034
 20
180.3024687399
 30
0.0
 10
132.5769746456
 20
180.2517489598
 30
0.0
 10
132.5844780681
 20
180.1355908573
 30
0.0
 10
132.5806429228
 20
180.0044683227
 30
0.0
 10
132.5813639771
 20
179.9054897065
 30
0.0
 10
132.5813639771
 20
179.8538298872
 30
0.0
 11
132.585727411
 21
180.3538298872
 31
0.0
 11
132.5843747151
 21
180.3291947757
 31
0.0
 11
132.5831607793
 21
180.2581770603
 31
0.0
 11
132.5821985339
 21
180.147906383
 31
0.0
 11
132.5815788953
 21
180.0088091959
 31
0.0
 11
132.5813639771
 21
179.8538298872
 31
0.0
  0
SPLINE
  5
35B
100
AcDbEntity
  8
MANIFOLD_SOLID_BDXF_HIDDEN_LINE
100
AcDbSpline
 62
8
  6
HIDDEN
 70
0
 71
3
 72
12
 73
8
 74
6
 42
0.0000001
 43
0.0000001
 44
0.0000000001
 12
0.5000532724
 22
0.0
 32
0.0
 13
0.0
 23
-0.5000532724
 33
0.0
 40
0.0
 40
0.0
 40
0.0
 40
0.0
 40
0.049014035
 40
0.1910621329
 40
0.412281136
 40
0.6910221069
 40
1.0
 40
1.0
 40
1.0
 40
1.0
 10
191.9788872506
 20
180.3538298872
 30
0.0
 10
191.9870571268
 20
180.3538298872
 30
0.0
 10
191.9706447123
 20
180.3025736909
 30
0.0
 10
191.9876661435
 20
180.2518259663
 30
0.0
 10
191.9801274779
 20
180.1354105367
 30
0.0
 10
191.9839709106
 20
180.0042468489
 30
0.0
 10
191.9832506845
 20
179.9053316894
 30
0.0
 10
191.9832506845
 20
179.8538298872
 30
0.0
 11
191.9788872506
 21
180.3538298872
 31
0.0
 11
191.9802356464
 21
180.3293573777
 31
0.0
 11
191.9814520392
 21
180.2583361774
 31
0.0
 11
191.9824173644
 21
180.147719103
 31
0.0
 11
191.983037132
 21
180.0083351462
 31
0.0
 11
191.9832506845
 21
179.8538298872
 31
0.0
  0
SPLINE
  5
35C
100
AcDbEntity
  8
MANIFOLD_SOLID_BDXF_HIDDEN_LINE
100
AcDbSpline
 62
8
  6
HIDDEN
 70
0
 71
3
 72
12
 73
8
 74
6
 42
0.0000001
 43
0.0000001
 44
0.0000000001
 12
0.0
 22
0.5000532723
 32
0.0
 13
0.5000532723
 23
0.0
 33
0.0
 40
0.0
 40
0.0
 40
0.0
 40
0.0
 40
0.308979668
 40
0.5877196203
 40
0.8089373205
 40
0.9509853893
 40
1.0
 40
1.0
 40
1.0
 40
1.0
 10
132.5813639771
 20
148.9538298872
 30
0.0
 10
132.5813639771
 20
149.0053319852
 30
0.0
 10
132.5806437493
 20
149.1042472729
 30
0.0
 10
132.5844871674
 20
149.2354108907
 30
0.0
 10
132.576948567
 20
149.3518258455
 30
0.0
 10
132.593969949
 20
149.4025735092
 30
0.0
 10
132.5775574389
 20
149.4538298872
 30
0.0
 10
132.585727411
 20
149.4538298872
 30
0.0
 11
132.5813639771
 21
148.9538298872
 31
0.0
 11
132.5815775321
 21
149.1083360337
 31
0.0
 11
132.5821972996
 21
149.2477194811
 31
0.0
 11
132.5831626192
 21
149.358335904
 31
0.0
 11
132.5843790075
 21
149.4293570898
 31
0.0
 11
132.585727411
 21
149.4538298872
 31
0.0
  0
SPLINE
  5
35D
100
AcDbEntity
  8
MANIFOLD_SOLID_BDXF_HIDDEN_LINE
100
AcDbSpline
 62
8
  6
HIDDEN
 70
0
 71
3
 72
14
 73
10
 74
8
 42
0.0000001
 43
0.0000001
 44
0.0000000001
 12
0.0
 22
6.3481658439
 32
0.0
 13
6.3481658439
 23
-0.0
 33
0.0
 40
0.0
 40
0.0
 40
0.0
 40
0.0
 40
0.1428626397
 40
0.2857197436
 40
0.4285749779
 40
0.5714295999
 40
0.7142840712
 40
0.8571396492
 40
1.0
 40
1.0
 40
1.0
 40
1.0
 10
132.6119080144
 20
187.5743834152
 30
0.0
 10
132.6119080144
 20
187.8766886585
 30
0.0
 10
132.6801702262
 20
188.4834731053
 30
0.0
 10
132.9822148916
 20
189.3463141819
 30
0.0
 10
133.4687715685
 20
190.1207562924
 30
0.0
 10
134.1154028357
 20
190.7673828862
 30
0.0
 10
134.8898439597
 20
191.253931792
 30
0.0
 10
135.7526771331
 20
191.5559690175
 30
0.0
 10
136.359453403
 20
191.6242292036
 30
0.0
 10
136.6617538028
 20
191.6242292036
 30
0.0
 11
132.6119080144
 21
187.5743834152
 31
0.0
 11
132.7134486075
 21
188.4755968466
 31
0.0
 11
133.0129696664
 21
189.3315872293
 31
0.0
 11
133.495452003
 21
190.0994554916
 31
0.0
 11
134.1367045906
 21
190.7407034486
 31
0.0
 11
134.9045719455
 21
191.2231781253
 31
0.0
 11
135.7605546271
 21
191.5226918642
 31
0.0
 11
136.6617538028
 21
191.6242292036
 31
0.0
  0
SPLINE
  5
35E
100
AcDbEntity
  8
MANIFOLD_SOLID_BDXF_HIDDEN_LINE
100
AcDbSpline
 62
8
  6
HIDDEN
 70
0
 71
3
 72
14
 73
10
 74
8
 42
0.0000001
 43
0.0000001
 44
0.0000000001
 12
-6.3481658439
 22
0.0
 32
0.0
 13
0.0
 23
-6.3481658439
 33
0.0
 40
0.0
 40
0.0
 40
0.0
 40
0.0
 40
0.1428626397
 40
0.2857197436
 40
0.4285749779
 40
0.5714295999
 40
0.7142840712
 40
0.8571396492
 40
1.0
 40
1.0
 40
1.0
 40
1.0
 10
136.6355731994
 20
191.650409807
 30
0.0
 10
136.3332679562
 20
191.650409807
 30
0.0
 10
135.7264835094
 20
191.5821475952
 30
0.0
 10
134.8636424327
 20
191.2801029298
 30
0.0
 10
134.0892003223
 20
190.7935462529
 30
0.0
 10
133.4425737284
 20
190.1469149858
 30
0.0
 10
132.9560248226
 20
189.3724738617
 30
0.0
 10
132.6539875972
 20
188.5096406883
 30
0.0
 10
132.585727411
 20
187.9028644184
 30
0.0
 10
132.585727411
 20
187.6005640186
 30
0.0
 11
136.6355731994
 21
191.650409807
 31
0.0
 11
135.7343597681
 21
191.5488692139
 31
0.0
 11
134.8783693854
 21
191.249348155
 31
0.0
 11
134.110501123
 21
190.7668658184
 31
0.0
 11
133.4692531661
 21
190.1256132308
 31
0.0
 11
132.9867784894
 21
189.357745876
 31
0.0
 11
132.6872647505
 21
188.5017631943
 31
0.0
 11
132.585727411
 21
187.6005640186
 31
0.0
  0
SPLINE
  5
35F
100
AcDbEntity
  8
MANIFOLD_SOLID_BDXF_HIDDEN_LINE
100
AcDbSpline
 62
8
  6
HIDDEN
 70
0
 71
3
 72
14
 73
10
 74
8
 42
0.0000001
 43
0.0000001
 44
0.0000000001
 12
6.3481658439
 22
0.0
 32
0.0
 13
0.0
 23
-6.3481658439
 33
0.0
 40
0.0
 40
0.0
 40
0.0
 40
0.0
 40
0.1428626397
 40
0.2857197436
 40
0.4285749779
 40
0.5714295999
 40
0.7142840712
 40
0.8571396492
 40
1.0
 40
1.0
 40
1.0
 40
1.0
 10
187.9028608588
 20
191.6242292036
 30
0.0
 10
188.2051661021
 20
191.6242292036
 30
0.0
 10
188.8119505489
 20
191.5559669919
 30
0.0
 10
189.6747916255
 20
191.2539223265
 30
0.0
 10
190.449233736
 20
190.7673656495
 30
0.0
 10
191.0958603298
 20
190.1207343824
 30
0.0
 10
191.5824092356
 20
189.3462932583
 30
0.0
 10
191.8844464611
 20
188.4834600849
 30
0.0
 10
191.9527066472
 20
187.8766838151
 30
0.0
 10
191.9527066472
 20
187.5743834152
 30
0.0
 11
187.9028608588
 21
191.6242292036
 31
0.0
 11
188.8040742902
 21
191.5226886105
 31
0.0
 11
189.6600646729
 21
191.2231675517
 31
0.0
 11
190.4279329353
 21
190.740685215
 31
0.0
 11
191.0691808922
 21
190.0994326274
 31
0.0
 11
191.5516555689
 21
189.3315652726
 31
0.0
 11
191.8511693078
 21
188.4755825909
 31
0.0
 11
191.9527066472
 21
187.5743834152
 31
0.0
  0
SPLINE
  5
360
100
AcDbEntity
  8
MANIFOLD_SOLID_BDXF_HIDDEN_LINE
100
AcDbSpline
 62
8
  6
HIDDEN
 70
0
 71
3
 72
14
 73
10
 74
8
 42
0.0000001
 43
0.0000001
 44
0.0000000001
 12
0.0
 22
6.3481658439
 32
0.0
 13
-6.3481658439
 23
0.0
 33
0.0
 40
0.0
 40
0.0
 40
0.0
 40
0.0
 40
0.1428626397
 40
0.2857197436
 40
0.4285749779
 40
0.5714295999
 40
0.7142840712
 40
0.8571396492
 40
1.0
 40
1.0
 40
1.0
 40
1.0
 10
191.9788872506
 20
187.6005640186
 30
0.0
 10
191.9788872506
 20
187.9028692618
 30
0.0
 10
191.9106250388
 20
188.5096537086
 30
0.0
 10
191.6085803735
 20
189.3724947853
 30
0.0
 10
191.1220236965
 20
190.1469368958
 30
0.0
 10
190.4753924294
 20
190.7935634896
 30
0.0
 10
189.7009513053
 20
191.2801123954
 30
0.0
 10
188.8381181319
 20
191.5821496209
 30
0.0
 10
188.231341862
 20
191.650409807
 30
0.0
 10
187.9290414622
 20
191.650409807
 30
0.0
 11
191.9788872506
 21
187.6005640186
 31
0.0
 11
191.8773466575
 21
188.5017774499
 31
0.0
 11
191.5778255986
 21
189.3577678327
 31
0.0
 11
191.095343262
 21
190.125636095
 31
0.0
 11
190.4540906744
 21
190.7668840519
 31
0.0
 11
189.6862233196
 21
191.2493587287
 31
0.0
 11
188.8302406379
 21
191.5488724676
 31
0.0
 11
187.9290414622
 21
191.650409807
 31
0.0
  0
SPLINE
  5
361
100
AcDbEntity
  8
MANIFOLD_SOLID_BDXF_HIDDEN_LINE
100
AcDbSpline
 62
8
  6
HIDDEN
 70
0
 71
3
 72
12
 73
8
 74
6
 42
0.0000001
 43
0.0000001
 44
0.0000000001
 12
0.5000532117
 22
0.0
 32
0.0
 13
-0.0
 23
0.5000532117
 33
0.0
 40
0.0
 40
0.0
 40
0.0
 40
0.0
 40
0.0493391918
 40
0.1913802549
 40
0.411906537
 40
0.6900740679
 40
1.0
 40
1.0
 40
1.0
 40
1.0
 10
191.9788872506
 20
143.5538298872
 30
0.0
 10
191.9871113244
 20
143.5538298872
 30
0.0
 10
191.9706441582
 20
143.6051910345
 30
0.0
 10
191.9876400161
 20
143.6559108147
 30
0.0
 10
191.9801365936
 20
143.7720689171
 30
0.0
 10
191.9839717389
 20
143.9031914517
 30
0.0
 10
191.9832506845
 20
144.002170068
 30
0.0
 10
191.9832506845
 20
144.0538298872
 30
0.0
 11
191.9788872506
 21
143.5538298872
 31
0.0
 11
191.9802399466
 21
143.5784649987
 31
0.0
 11
191.9814538824
 21
143.6494827141
 31
0.0
 11
191.9824161278
 21
143.7597533914
 31
0.0
 11
191.9830357663
 21
143.8988505785
 31
0.0
 11
191.9832506845
 21
144.0538298872
 31
0.0
  0
SPLINE
  5
362
100
AcDbEntity
  8
MANIFOLD_SOLID_BDXF_HIDDEN_LINE
100
AcDbSpline
 62
8
  6
HIDDEN
 70
0
 71
3
 72
12
 73
8
 74
6
 42
0.0000001
 43
0.0000001
 44
0.0000000001
 12
0.0
 22
-0.5000532723
 32
0.0
 13
-0.5000532723
 23
0.0
 33
0.0
 40
0.0
 40
0.0
 40
0.0
 40
0.0
 40
0.308979668
 40
0.5877196203
 40
0.8089373205
 40
0.9509853893
 40
1.0
 40
1.0
 40
1.0
 40
1.0
 10
191.9832506845
 20
174.9538298872
 30
0.0
 10
191.9832506845
 20
174.9023277892
 30
0.0
 10
191.9839709123
 20
174.8034125015
 30
0.0
 10
191.9801274942
 20
174.6722488837
 30
0.0
 10
191.9876660947
 20
174.555833929
 30
0.0
 10
191.9706447126
 20
174.5050862653
 30
0.0
 10
191.9870572228
 20
174.4538298872
 30
0.0
 10
191.9788872506
 20
174.4538298872
 30
0.0
 11
191.9832506845
 21
174.9538298872
 31
0.0
 11
191.9830371295
 21
174.7993237407
 31
0.0
 11
191.982417362
 21
174.6599402934
 31
0.0
 11
191.9814520425
 21
174.5493238704
 31
0.0
 11
191.9802356542
 21
174.4783026847
 31
0.0
 11
191.9788872506
 21
174.4538298872
 31
0.0
  0
SPLINE
  5
363
100
AcDbEntity
  8
MANIFOLD_SOLID_BDXF_HIDDEN_LINE
100
AcDbSpline
 62
8
  6
HIDDEN
 70
0
 71
3
 72
12
 73
8
 74
6
 42
0.0000001
 43
0.0000001
 44
0.0000000001
 12
-0.5000532724
 22
0.0
 32
0.0
 13
-0.0
 23
0.5000532724
 33
0.0
 40
0.0
 40
0.0
 40
0.0
 40
0.0
 40
0.049014035
 40
0.1910621329
 40
0.412281136
 40
0.6910221069
 40
1.0
 40
1.0
 40
1.0
 40
1.0
 10
132.585727411
 20
143.5538298872
 30
0.0
 10
132.5775575348
 20
143.5538298872
 30
0.0
 10
132.5939699494
 20
143.6050860836
 30
0.0
 10
132.5769485182
 20
143.6558338082
 30
0.0
 10
132.5844871837
 20
143.7722492377
 30
0.0
 10
132.5806437511
 20
143.9034129256
 30
0.0
 10
132.5813639771
 20
144.002328085
 30
0.0
 10
132.5813639771
 20
144.0538298872
 30
0.0
 11
132.585727411
 21
143.5538298872
 31
0.0
 11
132.5843790152
 21
143.5783023967
 31
0.0
 11
132.5831626224
 21
143.649323597
 31
0.0
 11
132.5821972972
 21
143.7599406714
 31
0.0
 11
132.5815775296
 21
143.8993246283
 31
0.0
 11
132.5813639771
 21
144.0538298872
 31
0.0
  0
SPLINE
  5
364
100
AcDbEntity
  8
MANIFOLD_SOLID_BDXF_HIDDEN_LINE
100
AcDbSpline
 62
8
  6
HIDDEN
 70
0
 71
3
 72
12
 73
8
 74
6
 42
0.0000001
 43
0.0000001
 44
0.0000000001
 12
0.0
 22
0.5000532138
 32
0.0
 13
-0.5000532138
 23
0.0
 33
0.0
 40
0.0
 40
0.0
 40
0.0
 40
0.0
 40
0.3099645547
 40
0.5881413326
 40
0.8086534801
 40
0.9506722641
 40
1.0
 40
1.0
 40
1.0
 40
1.0
 10
191.9832506845
 20
148.9538298872
 30
0.0
 10
191.9832506845
 20
149.0054961445
 30
0.0
 10
191.9839718883
 20
149.1044829499
 30
0.0
 10
191.9801363032
 20
149.2356106624
 30
0.0
 10
191.9876394935
 20
149.3517641697
 30
0.0
 10
191.9706457185
 20
149.4024780419
 30
0.0
 10
191.9871094149
 20
149.4538298872
 30
0.0
 10
191.9788872506
 20
149.4538298872
 30
0.0
 11
191.9832506845
 21
148.9538298872
 31
0.0
 11
191.9830357113
 21
149.1088285099
 31
0.0
 11
191.9824159758
 21
149.2479303212
 31
0.0
 11
191.98145368
 21
149.3581939302
 31
0.0
 11
191.9802397934
 21
149.4292005044
 31
0.0
 11
191.9788872506
 21
149.4538298872
 31
0.0
  0
SPLINE
  5
365
100
AcDbEntity
  8
MANIFOLD_SOLID_BDXF_HIDDEN_LINE
100
AcDbSpline
 62
8
  6
HIDDEN
 70
0
 71
3
 72
14
 73
10
 74
8
 42
0.0000001
 43
0.0000001
 44
0.0000000001
 12
0.0
 22
-6.3481658439
 32
0.0
 13
-6.3481658439
 23
-0.0
 33
0.0
 40
0.0
 40
0.0
 40
0.0
 40
0.0
 40
0.1428626397
 40
0.2857197436
 40
0.4285749779
 40
0.5714295999
 40
0.7142840712
 40
0.8571396492
 40
1.0
 40
1.0
 40
1.0
 40
1.0
 10
191.9527066472
 20
136.3332763592
 30
0.0
 10
191.9527066472
 20
136.030971116
 30
0.0
 10
191.8844444355
 20
135.4241866692
 30
0.0
 10
191.5823997701
 20
134.5613455925
 30
0.0
 10
191.0958430931
 20
133.786903482
 30
0.0
 10
190.449211826
 20
133.1402768882
 30
0.0
 10
189.6747707019
 20
132.6537279824
 30
0.0
 10
188.8119375285
 20
132.3516907569
 30
0.0
 10
188.2051612587
 20
132.2834305708
 30
0.0
 10
187.9028608588
 20
132.2834305708
 30
0.0
 11
191.9527066472
 21
136.3332763592
 31
0.0
 11
191.8511660541
 21
135.4320629279
 31
0.0
 11
191.5516449953
 21
134.5760725452
 31
0.0
 11
191.0691626587
 21
133.8082042828
 31
0.0
 11
190.427910071
 21
133.1669563259
 31
0.0
 11
189.6600427162
 21
132.6844816491
 31
0.0
 11
188.8040600345
 21
132.3849679102
 31
0.0
 11
187.9028608588
 21
132.2834305708
 31
0.0
  0
SPLINE
  5
366
100
AcDbEntity
  8
MANIFOLD_SOLID_BDXF_HIDDEN_LINE
100
AcDbSpline
 62
8
  6
HIDDEN
 70
0
 71
3
 72
14
 73
10
 74
8
 42
0.0000001
 43
0.0000001
 44
0.0000000001
 12
6.3481658439
 22
0.0
 32
0.0
 13
0.0
 23
6.3481658439
 33
0.0
 40
0.0
 40
0.0
 40
0.0
 40
0.0
 40
0.1428626397
 40
0.2857197436
 40
0.4285749779
 40
0.5714295999
 40
0.7142840712
 40
0.8571396492
 40
1.0
 40
1.0
 40
1.0
 40
1.0
 10
187.9290414622
 20
132.2572499674
 30
0.0
 10
188.2313467055
 20
132.2572499674
 30
0.0
 10
188.8381311523
 20
132.3255121792
 30
0.0
 10
189.7009722289
 20
132.6275568446
 30
0.0
 10
190.4754143394
 20
133.1141135216
 30
0.0
 10
191.1220409332
 20
133.7607447887
 30
0.0
 10
191.608589839
 20
134.5351859128
 30
0.0
 10
191.9106270645
 20
135.3980190862
 30
0.0
 10
191.9788872506
 20
136.004795356
 30
0.0
 10
191.9788872506
 20
136.3070957558
 30
0.0
 11
187.9290414622
 21
132.2572499674
 31
0.0
 11
188.8302548935
 21
132.3587905606
 31
0.0
 11
189.6862452763
 21
132.6583116194
 31
0.0
 11
190.4541135386
 21
133.140793956
 31
0.0
 11
191.0953614955
 21
133.7820465436
 31
0.0
 11
191.5778361723
 21
134.5499138985
 31
0.0
 11
191.8773499112
 21
135.4058965801
 31
0.0
 11
191.9788872506
 21
136.3070957558
 31
0.0
  0
SPLINE
  5
367
100
AcDbEntity
  8
MANIFOLD_SOLDXF_CONTINUOUS_LINE
100
AcDbSpline
 62
7
  6
CONTINUOUS
 70
0
 71
3
 72
11
 73
7
 74
5
 42
0.0000001
 43
0.0000001
 44
0.0000000001
 12
3.0491550999
 22
-3.0491550999
 32
0.0
 13
0.0
 23
-4.3121564961
 33
0.0
 40
0.0
 40
0.0
 40
0.0
 40
0.0
 40
0.2499738276
 40
0.4999690031
 40
0.7499698111
 40
1.0
 40
1.0
 40
1.0
 40
1.0
 10
191.8717720326
 20
191.543294589
 30
0.0
 10
192.1258416898
 20
191.2892249319
 30
0.0
 10
192.5852780313
 20
190.729543221
 30
0.0
 10
193.096457985
 20
189.7728426578
 30
0.0
 10
193.4114616484
 20
188.7348026578
 30
0.0
 10
193.4823377964
 20
188.0140877972
 30
0.0
 10
193.4823377964
 20
187.6546980295
 30
0.0
 11
191.8717720326
 21
191.543294589
 31
0.0
 11
192.5555966685
 21
190.7100425866
 31
0.0
 11
193.0637538354
 21
189.7593061398
 31
0.0
 11
193.3766704
 21
188.7276768026
 31
0.0
 11
193.4823377964
 21
187.6546980295
 31
0.0
  0
SPLINE
  5
368
100
AcDbEntity
  8
MANIFOLD_SOLDXF_CONTINUOUS_LINE
100
AcDbSpline
 62
7
  6
CONTINUOUS
 70
0
 71
3
 72
11
 73
7
 74
5
 42
0.0000001
 43
0.0000001
 44
0.0000000001
 12
4.3121564961
 22
0.0
 32
0.0
 13
3.0491550999
 23
-3.0491550999
 33
0.0
 40
0.0
 40
0.0
 40
0.0
 40
0.0
 40
0.2500301898
 40
0.5000309982
 40
0.7500261733
 40
1.0
 40
1.0
 40
1.0
 40
1.0
 10
187.9831754731
 20
193.1538603528
 30
0.0
 10
188.3425652422
 20
193.1538603528
 30
0.0
 10
189.0632801047
 20
193.0829842043
 30
0.0
 10
190.1013201058
 20
192.7679805396
 30
0.0
 10
191.0580206673
 20
192.2568005857
 30
0.0
 10
191.6177023765
 20
191.7973642452
 30
0.0
 10
191.8717720326
 20
191.543294589
 30
0.0
 11
187.9831754731
 21
193.1538603528
 31
0.0
 11
189.0561542504
 21
193.0481929556
 31
0.0
 11
190.0877835886
 21
192.7352763896
 31
0.0
 11
191.0385200337
 21
192.2271192226
 31
0.0
 11
191.8717720326
 21
191.543294589
 31
0.0
  0
SPLINE
  5
369
100
AcDbEntity
  8
MANIFOLD_SOLDXF_CONTINUOUS_LINE
100
AcDbSpline
 62
7
  6
CONTINUOUS
 70
0
 71
3
 72
11
 73
7
 74
5
 42
0.0000001
 43
0.0000001
 44
0.0000000001
 12
0.0
 22
-4.3121564961
 32
0.0
 13
-3.0491550999
 23
-3.0491550999
 33
0.0
 40
0.0
 40
0.0
 40
0.0
 40
0.0
 40
0.2500301898
 40
0.5000309982
 40
0.7500261733
 40
1.0
 40
1.0
 40
1.0
 40
1.0
 10
193.4823377964
 20
136.252961745
 30
0.0
 10
193.4823377964
 20
135.8935719758
 30
0.0
 10
193.4114616479
 20
135.1728571134
 30
0.0
 10
193.0964579832
 20
134.1348171122
 30
0.0
 10
192.5852780293
 20
133.1781165508
 30
0.0
 10
192.1258416888
 20
132.6184348416
 30
0.0
 10
191.8717720326
 20
132.3643651854
 30
0.0
 11
193.4823377964
 21
136.252961745
 31
0.0
 11
193.3766703992
 21
135.1799829677
 31
0.0
 11
193.0637538332
 21
134.1483536295
 31
0.0
 11
192.5555966662
 21
133.1976171843
 31
0.0
 11
191.8717720326
 21
132.3643651854
 31
0.0
  0
SPLINE
  5
36A
100
AcDbEntity
  8
MANIFOLD_SOLDXF_CONTINUOUS_LINE
100
AcDbSpline
 62
7
  6
CONTINUOUS
 70
0
 71
3
 72
11
 73
7
 74
5
 42
0.0000001
 43
0.0000001
 44
0.0000000001
 12
-3.0491550999
 22
-3.0491550999
 32
0.0
 13
-4.3121564961
 23
0.0
 33
0.0
 40
0.0
 40
0.0
 40
0.0
 40
0.0
 40
0.2499738276
 40
0.4999690031
 40
0.7499698111
 40
1.0
 40
1.0
 40
1.0
 40
1.0
 10
191.8717720326
 20
132.3643651854
 30
0.0
 10
191.6177023755
 20
132.1102955283
 30
0.0
 10
191.0580206647
 20
131.6508591867
 30
0.0
 10
190.1013201015
 20
131.1396792331
 30
0.0
 10
189.0632801014
 20
130.8246755697
 30
0.0
 10
188.3425652408
 20
130.7537994216
 30
0.0
 10
187.9831754731
 20
130.7537994216
 30
0.0
 11
191.8717720326
 21
132.3643651854
 31
0.0
 11
191.0385200303
 21
131.6805405495
 31
0.0
 11
190.0877835834
 21
131.1723833827
 31
0.0
 11
189.0561542463
 21
130.859466818
 31
0.0
 11
187.9831754731
 21
130.7537994216
 31
0.0
  0
SPLINE
  5
36B
100
AcDbEntity
  8
MANIFOLD_SOLDXF_CONTINUOUS_LINE
100
AcDbSpline
 62
7
  6
CONTINUOUS
 70
0
 71
3
 72
11
 73
7
 74
5
 42
0.0000001
 43
0.0000001
 44
0.0000000001
 12
-4.3121564961
 22
0.0
 32
0.0
 13
-3.0491550999
 23
3.0491550999
 33
0.0
 40
0.0
 40
0.0
 40
0.0
 40
0.0
 40
0.2500301898
 40
0.5000309982
 40
0.7500261733
 40
1.0
 40
1.0
 40
1.0
 40
1.0
 10
136.5814391886
 20
130.7537994216
 30
0.0
 10
136.2220494195
 20
130.7537994216
 30
0.0
 10
135.501334557
 20
130.8246755701
 30
0.0
 10
134.4632945559
 20
131.1396792349
 30
0.0
 10
133.5065939944
 20
131.6508591887
 30
0.0
 10
132.9469122852
 20
132.1102955293
 30
0.0
 10
132.692842629
 20
132.3643651854
 30
0.0
 11
136.5814391886
 21
130.7537994216
 31
0.0
 11
135.5084604113
 21
130.8594668188
 31
0.0
 11
134.4768310731
 21
131.1723833848
 31
0.0
 11
133.5260946279
 21
131.6805405519
 31
0.0
 11
132.692842629
 21
132.3643651854
 31
0.0
  0
SPLINE
  5
36C
100
AcDbEntity
  8
MANIFOLD_SOLDXF_CONTINUOUS_LINE
100
AcDbSpline
 62
7
  6
CONTINUOUS
 70
0
 71
3
 72
11
 73
7
 74
5
 42
0.0000001
 43
0.0000001
 44
0.0000000001
 12
-3.0491550999
 22
3.0491550999
 32
0.0
 13
0.0
 23
4.3121564961
 33
0.0
 40
0.0
 40
0.0
 40
0.0
 40
0.0
 40
0.2499738276
 40
0.4999690031
 40
0.7499698111
 40
1.0
 40
1.0
 40
1.0
 40
1.0
 10
132.692842629
 20
132.3643651854
 30
0.0
 10
132.4387729719
 20
132.6184348425
 30
0.0
 10
131.9793366303
 20
133.1781165534
 30
0.0
 10
131.4681566767
 20
134.1348171166
 30
0.0
 10
131.1531530133
 20
135.1728571166
 30
0.0
 10
131.0822768652
 20
135.8935719772
 30
0.0
 10
131.0822768652
 20
136.252961745
 30
0.0
 11
132.692842629
 21
132.3643651854
 31
0.0
 11
132.0090179931
 21
133.1976171878
 31
0.0
 11
131.5008608263
 21
134.1483536346
 31
0.0
 11
131.1879442616
 21
135.1799829718
 31
0.0
 11
131.0822768652
 21
136.252961745
 31
0.0
  0
SPLINE
  5
36D
100
AcDbEntity
  8
MANIFOLD_SOLDXF_CONTINUOUS_LINE
100
AcDbSpline
 62
7
  6
CONTINUOUS
 70
0
 71
3
 72
11
 73
7
 74
5
 42
0.0000001
 43
0.0000001
 44
0.0000000001
 12
0.0
 22
4.3121564961
 32
0.0
 13
3.0491550999
 23
3.0491550999
 33
0.0
 40
0.0
 40
0.0
 40
0.0
 40
0.0
 40
0.2500301898
 40
0.5000309982
 40
0.7500261733
 40
1.0
 40
1.0
 40
1.0
 40
1.0
 10
131.0822768652
 20
187.6546980295
 30
0.0
 10
131.0822768652
 20
188.0140877986
 30
0.0
 10
131.1531530137
 20
188.7348026611
 30
0.0
 10
131.4681566785
 20
189.7728426622
 30
0.0
 10
131.9793366323
 20
190.7295432237
 30
0.0
 10
132.4387729729
 20
191.2892249329
 30
0.0
 10
132.692842629
 20
191.543294589
 30
0.0
 11
131.0822768652
 21
187.6546980295
 31
0.0
 11
131.1879442625
 21
188.7276768068
 31
0.0
 11
131.5008608284
 21
189.759306145
 31
0.0
 11
132.0090179955
 21
190.7100425901
 31
0.0
 11
132.692842629
 21
191.543294589
 31
0.0
  0
SPLINE
  5
36E
100
AcDbEntity
  8
MANIFOLD_SOLDXF_CONTINUOUS_LINE
100
AcDbSpline
 62
7
  6
CONTINUOUS
 70
0
 71
3
 72
11
 73
7
 74
5
 42
0.0000001
 43
0.0000001
 44
0.0000000001
 12
3.0491550999
 22
3.0491550999
 32
0.0
 13
4.3121564961
 23
-0.0
 33
0.0
 40
0.0
 40
0.0
 40
0.0
 40
0.0
 40
0.2499738276
 40
0.4999690031
 40
0.7499698111
 40
1.0
 40
1.0
 40
1.0
 40
1.0
 10
132.692842629
 20
191.543294589
 30
0.0
 10
132.9469122862
 20
191.7973642461
 30
0.0
 10
133.506593997
 20
192.2568005877
 30
0.0
 10
134.4632945602
 20
192.7679805414
 30
0.0
 10
135.5013345603
 20
193.0829842048
 30
0.0
 10
136.2220494208
 20
193.1538603528
 30
0.0
 10
136.5814391886
 20
193.1538603528
 30
0.0
 11
132.692842629
 21
191.543294589
 31
0.0
 11
133.5260946314
 21
192.2271192249
 31
0.0
 11
134.4768310782
 21
192.7352763918
 31
0.0
 11
135.5084604154
 21
193.0481929564
 31
0.0
 11
136.5814391886
 21
193.1538603528
 31
0.0
  0
SPLINE
  5
36F
100
AcDbEntity
  8
MANIFOLD_SOLDXF_CONTINUOUS_LINE
100
AcDbSpline
 62
7
  6
CONTINUOUS
 70
0
 71
3
 72
11
 73
7
 74
5
 42
0.0000001
 43
0.0000001
 44
0.0000000001
 12
0.0
 22
-4.3121564961
 32
0.0
 13
3.0491550999
 23
-3.0491550999
 33
0.0
 40
0.0
 40
0.0
 40
0.0
 40
0.0
 40
0.2500301898
 40
0.5000309982
 40
0.7500261733
 40
1.0
 40
1.0
 40
1.0
 40
1.0
 10
131.0822463946
 20
136.2529312743
 30
0.0
 10
131.0822463946
 20
135.8935415052
 30
0.0
 10
131.1531225431
 20
135.1728266427
 30
0.0
 10
131.4681262078
 20
134.1347866416
 30
0.0
 10
131.9793061617
 20
133.1780860801
 30
0.0
 10
132.4387425022
 20
132.6184043709
 30
0.0
 10
132.6928121584
 20
132.3643347148
 30
0.0
 11
131.0822463946
 21
136.2529312743
 31
0.0
 11
131.1879137918
 21
135.179952497
 31
0.0
 11
131.5008303578
 21
134.1483231588
 31
0.0
 11
132.0089875248
 21
133.1975867137
 31
0.0
 11
132.6928121584
 21
132.3643347148
 31
0.0
  0
SPLINE
  5
370
100
AcDbEntity
  8
MANIFOLD_SOLDXF_CONTINUOUS_LINE
100
AcDbSpline
 62
7
  6
CONTINUOUS
 70
0
 71
3
 72
11
 73
7
 74
5
 42
0.0000001
 43
0.0000001
 44
0.0000000001
 12
3.0491550999
 22
-3.0491550999
 32
0.0
 13
4.3121564961
 23
0.0
 33
0.0
 40
0.0
 40
0.0
 40
0.0
 40
0.0
 40
0.2499738276
 40
0.4999690031
 40
0.7499698111
 40
1.0
 40
1.0
 40
1.0
 40
1.0
 10
132.6928121584
 20
132.3643347148
 30
0.0
 10
132.9468818155
 20
132.1102650577
 30
0.0
 10
133.5065635264
 20
131.6508287161
 30
0.0
 10
134.4632640896
 20
131.1396487624
 30
0.0
 10
135.5013040896
 20
130.824645099
 30
0.0
 10
136.2220189502
 20
130.753768951
 30
0.0
 10
136.5814087179
 20
130.753768951
 30
0.0
 11
132.6928121584
 21
132.3643347148
 31
0.0
 11
133.5260641608
 21
131.6805100789
 31
0.0
 11
134.4768006076
 21
131.172352912
 31
0.0
 11
135.5084299448
 21
130.8594363474
 31
0.0
 11
136.5814087179
 21
130.753768951
 31
0.0
  0
SPLINE
  5
371
100
AcDbEntity
  8
MANIFOLD_SOLDXF_CONTINUOUS_LINE
100
AcDbSpline
 62
7
  6
CONTINUOUS
 70
0
 71
3
 72
11
 73
7
 74
5
 42
0.0000001
 43
0.0000001
 44
0.0000000001
 12
-4.3121564961
 22
0.0
 32
0.0
 13
-3.0491550999
 23
-3.0491550999
 33
0.0
 40
0.0
 40
0.0
 40
0.0
 40
0.0
 40
0.2500301898
 40
0.5000309982
 40
0.7500261733
 40
1.0
 40
1.0
 40
1.0
 40
1.0
 10
136.5814087179
 20
193.1538908235
 30
0.0
 10
136.2220189488
 20
193.1538908235
 30
0.0
 10
135.5013040863
 20
193.0830146749
 30
0.0
 10
134.4632640852
 20
192.7680110102
 30
0.0
 10
133.5065635237
 20
192.2568310564
 30
0.0
 10
132.9468818145
 20
191.7973947158
 30
0.0
 10
132.6928121584
 20
191.5433250597
 30
0.0
 11
136.5814087179
 21
193.1538908235
 31
0.0
 11
135.5084299406
 21
193.0482234262
 31
0.0
 11
134.4768006024
 21
192.7353068603
 31
0.0
 11
133.5260641573
 21
192.2271496932
 31
0.0
 11
132.6928121584
 21
191.5433250597
 31
0.0
  0
SPLINE
  5
372
100
AcDbEntity
  8
MANIFOLD_SOLDXF_CONTINUOUS_LINE
100
AcDbSpline
 62
7
  6
CONTINUOUS
 70
0
 71
3
 72
11
 73
7
 74
5
 42
0.0000001
 43
0.0000001
 44
0.0000000001
 12
-3.0491550999
 22
-3.0491550999
 32
0.0
 13
0.0
 23
-4.3121564961
 33
0.0
 40
0.0
 40
0.0
 40
0.0
 40
0.0
 40
0.2499738276
 40
0.4999690031
 40
0.7499698111
 40
1.0
 40
1.0
 40
1.0
 40
1.0
 10
132.6928121584
 20
191.5433250597
 30
0.0
 10
132.4387425013
 20
191.2892554025
 30
0.0
 10
131.9793061597
 20
190.7295736917
 30
0.0
 10
131.468126206
 20
189.7728731285
 30
0.0
 10
131.1531225426
 20
188.7348331284
 30
0.0
 10
131.0822463946
 20
188.0141182678
 30
0.0
 10
131.0822463946
 20
187.6547285001
 30
0.0
 11
132.6928121584
 21
191.5433250597
 31
0.0
 11
132.0089875225
 21
190.7100730573
 31
0.0
 11
131.5008303556
 21
189.7593366105
 31
0.0
 11
131.187913791
 21
188.7277072733
 31
0.0
 11
131.0822463946
 21
187.6547285001
 31
0.0
  0
SPLINE
  5
373
100
AcDbEntity
  8
MANIFOLD_SOLDXF_CONTINUOUS_LINE
100
AcDbSpline
 62
7
  6
CONTINUOUS
 70
0
 71
3
 72
11
 73
7
 74
5
 42
0.0000001
 43
0.0000001
 44
0.0000000001
 12
0.0
 22
4.3121564961
 32
0.0
 13
-3.0491550999
 23
3.0491550999
 33
0.0
 40
0.0
 40
0.0
 40
0.0
 40
0.0
 40
0.2500301898
 40
0.5000309982
 40
0.7500261733
 40
1.0
 40
1.0
 40
1.0
 40
1.0
 10
193.4823682671
 20
187.6547285001
 30
0.0
 10
193.4823682671
 20
188.0141182692
 30
0.0
 10
193.4114921186
 20
188.7348331317
 30
0.0
 10
193.0964884538
 20
189.7728731328
 30
0.0
 10
192.5853085
 20
190.7295736943
 30
0.0
 10
192.1258721594
 20
191.2892554035
 30
0.0
 10
191.8718025033
 20
191.5433250597
 30
0.0
 11
193.4823682671
 21
187.6547285001
 31
0.0
 11
193.3767008698
 21
188.7277072774
 31
0.0
 11
193.0637843039
 21
189.7593366156
 31
0.0
 11
192.5556271368
 21
190.7100730608
 31
0.0
 11
191.8718025033
 21
191.5433250597
 31
0.0
  0
SPLINE
  5
374
100
AcDbEntity
  8
MANIFOLD_SOLDXF_CONTINUOUS_LINE
100
AcDbSpline
 62
7
  6
CONTINUOUS
 70
0
 71
3
 72
11
 73
7
 74
5
 42
0.0000001
 43
0.0000001
 44
0.0000000001
 12
-3.0491550999
 22
3.0491550999
 32
0.0
 13
-4.3121564961
 23
0.0
 33
0.0
 40
0.0
 40
0.0
 40
0.0
 40
0.0
 40
0.2499738276
 40
0.4999690031
 40
0.7499698111
 40
1.0
 40
1.0
 40
1.0
 40
1.0
 10
191.8718025033
 20
191.5433250597
 30
0.0
 10
191.6177328461
 20
191.7973947168
 30
0.0
 10
191.0580511353
 20
192.2568310584
 30
0.0
 10
190.1013505721
 20
192.768011012
 30
0.0
 10
189.063310572
 20
193.0830146754
 30
0.0
 10
188.3425957114
 20
193.1538908235
 30
0.0
 10
187.9832059437
 20
193.1538908235
 30
0.0
 11
191.8718025033
 21
191.5433250597
 31
0.0
 11
191.0385505009
 21
192.2271496955
 31
0.0
 11
190.0878140541
 21
192.7353068624
 31
0.0
 11
189.0561847169
 21
193.0482234271
 31
0.0
 11
187.9832059437
 21
193.1538908235
 31
0.0
  0
SPLINE
  5
375
100
AcDbEntity
  8
MANIFOLD_SOLDXF_CONTINUOUS_LINE
100
AcDbSpline
 62
7
  6
CONTINUOUS
 70
0
 71
3
 72
11
 73
7
 74
5
 42
0.0000001
 43
0.0000001
 44
0.0000000001
 12
4.3121564961
 22
0.0
 32
0.0
 13
3.0491550999
 23
3.0491550999
 33
0.0
 40
0.0
 40
0.0
 40
0.0
 40
0.0
 40
0.2500301898
 40
0.5000309982
 40
0.7500261733
 40
1.0
 40
1.0
 40
1.0
 40
1.0
 10
187.9832059437
 20
130.753768951
 30
0.0
 10
188.3425957128
 20
130.753768951
 30
0.0
 10
189.0633105753
 20
130.8246450995
 30
0.0
 10
190.1013505764
 20
131.1396487642
 30
0.0
 10
191.0580511379
 20
131.6508287181
 30
0.0
 10
191.6177328471
 20
132.1102650586
 30
0.0
 10
191.8718025033
 20
132.3643347148
 30
0.0
 11
187.9832059437
 21
130.753768951
 31
0.0
 11
189.056184721
 21
130.8594363482
 31
0.0
 11
190.0878140592
 21
131.1723529142
 31
0.0
 11
191.0385505044
 21
131.6805100812
 31
0.0
 11
191.8718025033
 21
132.3643347148
 31
0.0
  0
SPLINE
  5
376
100
AcDbEntity
  8
MANIFOLD_SOLDXF_CONTINUOUS_LINE
100
AcDbSpline
 62
7
  6
CONTINUOUS
 70
0
 71
3
 72
11
 73
7
 74
5
 42
0.0000001
 43
0.0000001
 44
0.0000000001
 12
3.0491550999
 22
3.0491550999
 32
0.0
 13
0.0
 23
4.3121564961
 33
0.0
 40
0.0
 40
0.0
 40
0.0
 40
0.0
 40
0.2499738276
 40
0.4999690031
 40
0.7499698111
 40
1.0
 40
1.0
 40
1.0
 40
1.0
 10
191.8718025033
 20
132.3643347148
 30
0.0
 10
192.1258721604
 20
132.6184043719
 30
0.0
 10
192.585308502
 20
133.1780860828
 30
0.0
 10
193.0964884556
 20
134.1347866459
 30
0.0
 10
193.411492119
 20
135.172826646
 30
0.0
 10
193.4823682671
 20
135.8935415066
 30
0.0
 10
193.4823682671
 20
136.2529312743
 30
0.0
 11
191.8718025033
 21
132.3643347148
 31
0.0
 11
192.5556271392
 21
133.1975867172
 31
0.0
 11
193.063784306
 21
134.148323164
 31
0.0
 11
193.3767008707
 21
135.1799525012
 31
0.0
 11
193.4823682671
 21
136.2529312743
 31
0.0
  0
SPLINE
  5
377
100
AcDbEntity
  8
MANIFOLD_SOLDXF_CONTINUOUS_LINE
100
AcDbSpline
 62
7
  6
CONTINUOUS
 70
0
 71
3
 72
11
 73
7
 74
5
 42
0.0000001
 43
0.0000001
 44
0.0000000001
 12
0.0052581264
 22
2.7440902249
 32
0.0
 13
1.9368044744
 23
1.9439257285
 33
0.0
 40
0.0
 40
0.0
 40
0.0
 40
0.0
 40
0.250084255
 40
0.5001047054
 40
0.7500825577
 40
1.0
 40
1.0
 40
1.0
 40
1.0
 10
133.2221915701
 20
187.5144787149
 30
0.0
 10
133.222629895
 20
187.7432299681
 30
0.0
 10
133.2671116159
 20
188.2019433304
 30
0.0
 10
133.4679080703
 20
188.8625097714
 30
0.0
 10
133.792979747
 20
189.47142457
 30
0.0
 10
134.0857499827
 20
189.8270998465
 30
0.0
 10
134.2470970562
 20
189.9890401619
 30
0.0
 11
133.2221915701
 21
187.5144787149
 31
0.0
 11
133.2894719634
 21
188.1974276884
 31
0.0
 11
133.4886452421
 21
188.8539607647
 31
0.0
 11
133.8120297363
 21
189.4589134582
 31
0.0
 11
134.2470970562
 21
189.9890401619
 31
0.0
  0
SPLINE
  5
378
100
AcDbEntity
  8
MANIFOLD_SOLDXF_CONTINUOUS_LINE
100
AcDbSpline
 62
7
  6
CONTINUOUS
 70
0
 71
3
 72
11
 73
7
 74
5
 42
0.0000001
 43
0.0000001
 44
0.0000000001
 12
1.9439237549
 22
1.9368064552
 32
0.0
 13
2.7440902195
 23
0.0052609193
 33
0.0
 40
0.0
 40
0.0
 40
0.0
 40
0.0
 40
0.249915503
 40
0.4998927087
 40
0.7499138057
 40
1.0
 40
1.0
 40
1.0
 40
1.0
 10
134.2470970562
 20
189.9890401619
 30
0.0
 10
134.4090359505
 20
190.1503861484
 30
0.0
 10
134.7647093607
 20
190.443154871
 30
0.0
 10
135.3736218904
 20
190.7682268463
 30
0.0
 10
136.0341897247
 20
190.9690251161
 30
0.0
 10
136.4929054765
 20
191.0135070869
 30
0.0
 10
136.7216585031
 20
191.013945648
 30
0.0
 11
134.2470970562
 21
189.9890401619
 31
0.0
 11
134.7772193138
 21
190.4241045108
 31
0.0
 11
135.3821698661
 21
190.7474892472
 31
0.0
 11
136.0387042851
 21
190.9466642112
 31
0.0
 11
136.7216585031
 21
191.013945648
 31
0.0
  0
SPLINE
  5
379
100
AcDbEntity
  8
MANIFOLD_SOLDXF_CONTINUOUS_LINE
100
AcDbSpline
 62
7
  6
CONTINUOUS
 70
0
 71
3
 72
11
 73
7
 74
5
 42
0.0000001
 43
0.0000001
 44
0.0000000001
 12
-2.7440902249
 22
0.0052581264
 32
0.0
 13
-1.9439257285
 23
1.9368044744
 33
0.0
 40
0.0
 40
0.0
 40
0.0
 40
0.0
 40
0.250084255
 40
0.5001047054
 40
0.7500825577
 40
1.0
 40
1.0
 40
1.0
 40
1.0
 10
136.7216585031
 20
132.8937141265
 30
0.0
 10
136.4929072499
 20
132.8941524514
 30
0.0
 10
136.0341938877
 20
132.9386341723
 30
0.0
 10
135.3736274466
 20
133.1394306267
 30
0.0
 10
134.7647126481
 20
133.4645023034
 30
0.0
 10
134.4090373715
 20
133.7572725391
 30
0.0
 10
134.2470970562
 20
133.9186196125
 30
0.0
 11
136.7216585031
 21
132.8937141265
 31
0.0
 11
136.0387095297
 21
132.9609945198
 31
0.0
 11
135.3821764533
 21
133.1601677985
 31
0.0
 11
134.7772237598
 21
133.4835522927
 31
0.0
 11
134.2470970562
 21
133.9186196125
 31
0.0
  0
SPLINE
  5
37A
100
AcDbEntity
  8
MANIFOLD_SOLDXF_CONTINUOUS_LINE
100
AcDbSpline
 62
7
  6
CONTINUOUS
 70
0
 71
3
 72
11
 73
7
 74
5
 42
0.0000001
 43
0.0000001
 44
0.0000000001
 12
-1.9368064552
 22
1.9439237549
 32
0.0
 13
-0.0052609193
 23
2.7440902195
 33
0.0
 40
0.0
 40
0.0
 40
0.0
 40
0.0
 40
0.249915503
 40
0.4998927087
 40
0.7499138057
 40
1.0
 40
1.0
 40
1.0
 40
1.0
 10
134.2470970562
 20
133.9186196125
 30
0.0
 10
134.0857510697
 20
134.0805585069
 30
0.0
 10
133.7929823471
 20
134.4362319171
 30
0.0
 10
133.4679103718
 20
135.0451444468
 30
0.0
 10
133.267112102
 20
135.7057122811
 30
0.0
 10
133.2226301312
 20
136.1644280329
 30
0.0
 10
133.2221915701
 20
136.3931810595
 30
0.0
 11
134.2470970562
 21
133.9186196125
 31
0.0
 11
133.8120327073
 21
134.4487418701
 31
0.0
 11
133.4886479709
 21
135.0536924225
 31
0.0
 11
133.2894730068
 21
135.7102268415
 31
0.0
 11
133.2221915701
 21
136.3931810595
 31
0.0
  0
SPLINE
  5
37B
100
AcDbEntity
  8
MANIFOLD_SOLDXF_CONTINUOUS_LINE
100
AcDbSpline
 62
7
  6
CONTINUOUS
 70
0
 71
3
 72
17
 73
13
 74
11
 42
0.0000001
 43
0.0000001
 44
0.0000000001
 12
-8.6225134765
 22
0.0009537794
 32
0.0
 13
-0.0009537794
 23
8.6225134765
 33
0.0
 40
0.0
 40
0.0
 40
0.0
 40
0.0
 40
0.1251345437
 40
0.2500918082
 40
0.3126094041
 40
0.3751199121
 40
0.5
 40
0.6248800879
 40
0.6873905959
 40
0.7499081918
 40
0.8748654563
 40
1.0
 40
1.0
 40
1.0
 40
1.0
 10
136.7216585031
 20
130.8940180579
 30
0.0
 10
136.3620004067
 20
130.8940578415
 30
0.0
 10
135.6414105142
 20
130.968001318
 30
0.0
 10
134.7769689597
 20
131.2331378822
 30
0.0
 10
134.1262768801
 20
131.5401727307
 30
0.0
 10
133.5083359571
 20
131.9081557927
 30
0.0
 10
132.8072092597
 20
132.4787318161
 30
0.0
 10
132.2366332364
 20
133.1798585135
 30
0.0
 10
131.8686501743
 20
133.7977994365
 30
0.0
 10
131.5616153258
 20
134.4484915161
 30
0.0
 10
131.2964787616
 20
135.3129330706
 30
0.0
 10
131.2225352851
 20
136.0335229631
 30
0.0
 10
131.2224955015
 20
136.3931810595
 30
0.0
 11
136.7216585031
 21
130.8940180579
 31
0.0
 11
135.6481662105
 21
131.002645074
 31
0.0
 11
134.6178275693
 21
131.3177506587
 31
0.0
 11
134.130330086
 21
131.5478171967
 31
0.0
 11
133.6672977051
 21
131.8237148863
 31
0.0
 11
132.8333135028
 21
132.5048360592
 31
0.0
 11
132.1521923299
 21
133.3388202615
 31
0.0
 11
131.8762946403
 21
133.8018526424
 31
0.0
 11
131.6462281024
 21
134.2893501257
 31
0.0
 11
131.3311225176
 21
135.3196887669
 31
0.0
 11
131.2224955015
 21
136.3931810595
 31
0.0
  0
SPLINE
  5
37C
100
AcDbEntity
  8
MANIFOLD_SOLDXF_CONTINUOUS_LINE
100
AcDbSpline
 62
7
  6
CONTINUOUS
 70
0
 71
3
 72
17
 73
13
 74
11
 42
0.0000001
 43
0.0000001
 44
0.0000000001
 12
0.0009537794
 22
8.6225134765
 32
0.0
 13
8.6225134765
 23
0.0009537794
 33
0.0
 40
0.0
 40
0.0
 40
0.0
 40
0.0
 40
0.1251345437
 40
0.2500918082
 40
0.3126094041
 40
0.3751199121
 40
0.5
 40
0.6248800879
 40
0.6873905959
 40
0.7499081918
 40
0.8748654563
 40
1.0
 40
1.0
 40
1.0
 40
1.0
 10
131.2224955015
 20
187.514478715
 30
0.0
 10
131.2225352851
 20
187.8741368114
 30
0.0
 10
131.2964787616
 20
188.5947267038
 30
0.0
 10
131.5616153258
 20
189.4591682583
 30
0.0
 10
131.8686501743
 20
190.1098603379
 30
0.0
 10
132.2366332364
 20
190.7278012609
 30
0.0
 10
132.8072092597
 20
191.4289279583
 30
0.0
 10
133.5083359571
 20
191.9995039817
 30
0.0
 10
134.1262768801
 20
192.3674870437
 30
0.0
 10
134.7769689597
 20
192.6745218923
 30
0.0
 10
135.6414105142
 20
192.9396584565
 30
0.0
 10
136.3620004067
 20
193.0136019329
 30
0.0
 10
136.7216585031
 20
193.0136417165
 30
0.0
 11
131.2224955015
 21
187.514478715
 31
0.0
 11
131.3311225176
 21
188.5879710075
 31
0.0
 11
131.6462281024
 21
189.6183096488
 31
0.0
 11
131.8762946403
 21
190.105807132
 31
0.0
 11
132.1521923299
 21
190.568839513
 31
0.0
 11
132.8333135028
 21
191.4028237153
 31
0.0
 11
133.6672977051
 21
192.0839448881
 31
0.0
 11
134.130330086
 21
192.3598425778
 31
0.0
 11
134.6178275693
 21
192.5899091157
 31
0.0
 11
135.6481662105
 21
192.9050147004
 31
0.0
 11
136.7216585031
 21
193.0136417165
 31
0.0
  0
SPLINE
  5
37D
100
AcDbEntity
  8
MANIFOLD_SOLDXF_CONTINUOUS_LINE
100
AcDbSpline
 62
7
  6
CONTINUOUS
 70
0
 71
3
 72
11
 73
7
 74
5
 42
0.0000001
 43
0.0000001
 44
0.0000000001
 12
-0.0052581264
 22
-2.7440902249
 32
0.0
 13
-1.9368044744
 23
-1.9439257285
 33
0.0
 40
0.0
 40
0.0
 40
0.0
 40
0.0
 40
0.250084255
 40
0.5001047054
 40
0.7500825577
 40
1.0
 40
1.0
 40
1.0
 40
1.0
 10
191.3424230916
 20
136.3931810595
 30
0.0
 10
191.3419847667
 20
136.1644298063
 30
0.0
 10
191.2975030458
 20
135.7057164441
 30
0.0
 10
191.0967065914
 20
135.045150003
 30
0.0
 10
190.7716349146
 20
134.4362352044
 30
0.0
 10
190.478864679
 20
134.0805599279
 30
0.0
 10
190.3175176055
 20
133.9186196125
 30
0.0
 11
191.3424230916
 21
136.3931810595
 31
0.0
 11
191.2751426982
 21
135.7102320861
 31
0.0
 11
191.0759694196
 21
135.0536990097
 31
0.0
 11
190.7525849253
 21
134.4487463162
 31
0.0
 11
190.3175176055
 21
133.9186196125
 31
0.0
  0
SPLINE
  5
37E
100
AcDbEntity
  8
MANIFOLD_SOLDXF_CONTINUOUS_LINE
100
AcDbSpline
 62
7
  6
CONTINUOUS
 70
0
 71
3
 72
11
 73
7
 74
5
 42
0.0000001
 43
0.0000001
 44
0.0000000001
 12
-1.9439237549
 22
-1.9368064552
 32
0.0
 13
-2.7440902195
 23
-0.0052609193
 33
0.0
 40
0.0
 40
0.0
 40
0.0
 40
0.0
 40
0.249915503
 40
0.4998927087
 40
0.7499138057
 40
1.0
 40
1.0
 40
1.0
 40
1.0
 10
190.3175176055
 20
133.9186196125
 30
0.0
 10
190.1555787112
 20
133.7572736261
 30
0.0
 10
189.7999053009
 20
133.4645049035
 30
0.0
 10
189.1909927712
 20
133.1394329282
 30
0.0
 10
188.530424937
 20
132.9386346584
 30
0.0
 10
188.0717091851
 20
132.8941526876
 30
0.0
 10
187.8429561585
 20
132.8937141265
 30
0.0
 11
190.3175176055
 21
133.9186196125
 31
0.0
 11
189.7873953479
 21
133.4835552637
 31
0.0
 11
189.1824447955
 21
133.1601705273
 31
0.0
 11
188.5259103766
 21
132.9609955632
 31
0.0
 11
187.8429561585
 21
132.8937141265
 31
0.0
  0
SPLINE
  5
37F
100
AcDbEntity
  8
MANIFOLD_SOLDXF_CONTINUOUS_LINE
100
AcDbSpline
 62
7
  6
CONTINUOUS
 70
0
 71
3
 72
17
 73
13
 74
11
 42
0.0000001
 43
0.0000001
 44
0.0000000001
 12
8.6225134765
 22
-0.0009537794
 32
0.0
 13
0.0009537794
 23
-8.6225134765
 33
0.0
 40
0.0
 40
0.0
 40
0.0
 40
0.0
 40
0.1251345437
 40
0.2500918082
 40
0.3126094041
 40
0.3751199121
 40
0.5
 40
0.6248800879
 40
0.6873905959
 40
0.7499081918
 40
0.8748654563
 40
1.0
 40
1.0
 40
1.0
 40
1.0
 10
187.8429561586
 20
193.0136417165
 30
0.0
 10
188.202614255
 20
193.0136019329
 30
0.0
 10
188.9232041474
 20
192.9396584565
 30
0.0
 10
189.787645702
 20
192.6745218923
 30
0.0
 10
190.4383377815
 20
192.3674870437
 30
0.0
 10
191.0562787045
 20
191.9995039817
 30
0.0
 10
191.7574054019
 20
191.4289279583
 30
0.0
 10
192.3279814253
 20
190.7278012609
 30
0.0
 10
192.6959644873
 20
190.1098603379
 30
0.0
 10
193.0029993359
 20
189.4591682583
 30
0.0
 10
193.2681359001
 20
188.5947267038
 30
0.0
 10
193.3420793766
 20
187.8741368114
 30
0.0
 10
193.3421191601
 20
187.514478715
 30
0.0
 11
187.8429561586
 21
193.0136417165
 31
0.0
 11
188.9164484511
 21
192.9050147004
 31
0.0
 11
189.9467870924
 21
192.5899091157
 31
0.0
 11
190.4342845756
 21
192.3598425778
 31
0.0
 11
190.8973169566
 21
192.0839448881
 31
0.0
 11
191.7313011589
 21
191.4028237153
 31
0.0
 11
192.4124223318
 21
190.568839513
 31
0.0
 11
192.6883200214
 21
190.105807132
 31
0.0
 11
192.9183865593
 21
189.6183096488
 31
0.0
 11
193.233492144
 21
188.5879710075
 31
0.0
 11
193.3421191601
 21
187.514478715
 31
0.0
  0
SPLINE
  5
380
100
AcDbEntity
  8
MANIFOLD_SOLDXF_CONTINUOUS_LINE
100
AcDbSpline
 62
7
  6
CONTINUOUS
 70
0
 71
3
 72
17
 73
13
 74
11
 42
0.0000001
 43
0.0000001
 44
0.0000000001
 12
-0.0009537794
 22
-8.6225134765
 32
0.0
 13
-8.6225134765
 23
-0.0009537794
 33
0.0
 40
0.0
 40
0.0
 40
0.0
 40
0.0
 40
0.1251345437
 40
0.2500918082
 40
0.3126094041
 40
0.3751199121
 40
0.5
 40
0.6248800879
 40
0.6873905959
 40
0.7499081918
 40
0.8748654563
 40
1.0
 40
1.0
 40
1.0
 40
1.0
 10
193.3421191601
 20
136.3931810595
 30
0.0
 10
193.3420793766
 20
136.0335229631
 30
0.0
 10
193.2681359001
 20
135.3129330706
 30
0.0
 10
193.0029993359
 20
134.4484915161
 30
0.0
 10
192.6959644873
 20
133.7977994365
 30
0.0
 10
192.3279814253
 20
133.1798585135
 30
0.0
 10
191.7574054019
 20
132.4787318161
 30
0.0
 10
191.0562787045
 20
131.9081557927
 30
0.0
 10
190.4383377815
 20
131.5401727307
 30
0.0
 10
189.787645702
 20
131.2331378822
 30
0.0
 10
188.9232041474
 20
130.968001318
 30
0.0
 10
188.202614255
 20
130.8940578415
 30
0.0
 10
187.8429561586
 20
130.8940180579
 30
0.0
 11
193.3421191601
 21
136.3931810595
 31
0.0
 11
193.233492144
 21
135.3196887669
 31
0.0
 11
192.9183865593
 21
134.2893501257
 31
0.0
 11
192.6883200214
 21
133.8018526424
 31
0.0
 11
192.4124223318
 21
133.3388202615
 31
0.0
 11
191.7313011589
 21
132.5048360592
 31
0.0
 11
190.8973169566
 21
131.8237148863
 31
0.0
 11
190.4342845756
 21
131.5478171967
 31
0.0
 11
189.9467870924
 21
131.3177506587
 31
0.0
 11
188.9164484511
 21
131.002645074
 31
0.0
 11
187.8429561586
 21
130.8940180579
 31
0.0
  0
SPLINE
  5
381
100
AcDbEntity
  8
MANIFOLD_SOLDXF_CONTINUOUS_LINE
100
AcDbSpline
 62
7
  6
CONTINUOUS
 70
0
 71
3
 72
11
 73
7
 74
5
 42
0.0000001
 43
0.0000001
 44
0.0000000001
 12
2.7440902249
 22
-0.0052581264
 32
0.0
 13
1.9439257285
 23
-1.9368044744
 33
0.0
 40
0.0
 40
0.0
 40
0.0
 40
0.0
 40
0.250084255
 40
0.5001047054
 40
0.7500825577
 40
1.0
 40
1.0
 40
1.0
 40
1.0
 10
187.8429561585
 20
191.013945648
 30
0.0
 10
188.0717074117
 20
191.0135073231
 30
0.0
 10
188.530420774
 20
190.9690256022
 30
0.0
 10
189.190987215
 20
190.7682291478
 30
0.0
 10
189.7999020136
 20
190.443157471
 30
0.0
 10
190.1555772901
 20
190.1503872354
 30
0.0
 10
190.3175176055
 20
189.9890401619
 30
0.0
 11
187.8429561585
 21
191.013945648
 31
0.0
 11
188.525905132
 21
190.9466652546
 31
0.0
 11
189.1824382083
 21
190.7474919759
 31
0.0
 11
189.7873909018
 21
190.4241074817
 31
0.0
 11
190.3175176055
 21
189.9890401619
 31
0.0
  0
SPLINE
  5
382
100
AcDbEntity
  8
MANIFOLD_SOLDXF_CONTINUOUS_LINE
100
AcDbSpline
 62
7
  6
CONTINUOUS
 70
0
 71
3
 72
11
 73
7
 74
5
 42
0.0000001
 43
0.0000001
 44
0.0000000001
 12
1.9368064552
 22
-1.9439237549
 32
0.0
 13
0.0052609193
 23
-2.7440902195
 33
0.0
 40
0.0
 40
0.0
 40
0.0
 40
0.0
 40
0.249915503
 40
0.4998927087
 40
0.7499138057
 40
1.0
 40
1.0
 40
1.0
 40
1.0
 10
190.3175176055
 20
189.9890401619
 30
0.0
 10
190.478863592
 20
189.8271012676
 30
0.0
 10
190.7716323146
 20
189.4714278573
 30
0.0
 10
191.0967042899
 20
188.8625153276
 30
0.0
 10
191.2975025597
 20
188.2019474934
 30
0.0
 10
191.3419845305
 20
187.7432317415
 30
0.0
 10
191.3424230916
 20
187.5144787149
 30
0.0
 11
190.3175176055
 21
189.9890401619
 31
0.0
 11
190.7525819544
 21
189.4589179043
 31
0.0
 11
191.0759666908
 21
188.8539673519
 31
0.0
 11
191.2751416548
 21
188.197432933
 31
0.0
 11
191.3424230916
 21
187.5144787149
 31
0.0
  0
SPLINE
  5
383
100
AcDbEntity
  8
MANIFOLD_SOLID_BDXF_HIDDEN_LINE
100
AcDbSpline
 62
8
  6
HIDDEN
 70
0
 71
3
 72
25
 73
21
 74
19
 42
0.0000001
 43
0.0000001
 44
0.0000000001
 12
0.1036244096
 22
1.352124354
 32
0.0
 13
1.4001508659
 23
0.0010953612
 33
0.0
 40
0.0
 40
0.0
 40
0.0
 40
0.0
 40
0.0013581568
 40
0.0051104555
 40
0.0112793421
 40
0.0198540695
 40
0.0308164038
 40
0.0441460399
 40
0.07782231
 40
0.1207106707
 40
0.1726365186
 40
0.2334244449
 40
0.3028986652
 40
0.3808852489
 40
0.4672183618
 40
0.5617341517
 40
0.6642687207
 40
0.7746490162
 40
0.8926654687
 40
1.0
 40
1.0
 40
1.0
 40
1.0
 10
131.2224973106
 20
329.2005532224
 30
0.0
 10
131.2225442234
 20
329.2011653547
 30
0.0
 10
131.2259336619
 20
329.2015271177
 30
0.0
 10
131.2301686292
 20
329.2024535261
 30
0.0
 10
131.2393199407
 20
329.2030742925
 30
0.0
 10
131.2510542126
 20
329.2038749333
 30
0.0
 10
131.2664688282
 20
329.2045885105
 30
0.0
 10
131.2934602984
 20
329.2056360759
 30
0.0
 10
131.3354282679
 20
329.2068040152
 30
0.0
 10
131.3953718567
 20
329.2080576765
 30
0.0
 10
131.4679893951
 20
329.2092159564
 30
0.0
 10
131.5530115924
 20
329.2102810807
 30
0.0
 10
131.6502006231
 20
329.2112449639
 30
0.0
 10
131.7593127454
 20
329.2121050937
 30
0.0
 10
131.8801134299
 20
329.2128580127
 30
0.0
 10
132.0123717865
 20
329.2135011441
 30
0.0
 10
132.1558539679
 20
329.2140319198
 30
0.0
 10
132.3103047202
 20
329.2144480197
 30
0.0
 10
132.4669959958
 20
329.2147316626
 30
0.0
 10
132.5721710925
 20
329.2148460917
 30
0.0
 10
132.6222659381
 20
329.2148852817
 30
0.0
 11
131.2224973106
 21
329.2005532224
 31
0.0
 11
131.2242419102
 21
329.201361734
 31
0.0
 11
131.2294306152
 21
329.2021861142
 31
0.0
 11
131.2380307495
 21
329.2029873102
 31
0.0
 11
131.2500114462
 21
329.2037650613
 31
0.0
 11
131.2653418383
 21
329.2045191068
 31
0.0
 11
131.2839910588
 21
329.2052491861
 31
0.0
 11
131.3311225176
 21
329.2066364031
 31
0.0
 11
131.3911588869
 21
329.2079246269
 31
0.0
 11
131.4638532312
 21
329.2091117721
 31
0.0
 11
131.5489586149
 21
329.2101957532
 31
0.0
 11
131.6462281024
 21
329.211174485
 31
0.0
 11
131.7554176323
 21
329.2120458819
 31
0.0
 11
131.8762946403
 21
329.2128078586
 31
0.0
 11
132.0086294362
 21
329.2134583296
 31
0.0
 11
132.1521923299
 21
329.2139952095
 31
0.0
 11
132.3067408566
 21
329.214416413
 31
0.0
 11
132.471981453
 21
329.2147198545
 31
0.0
 11
132.6222659381
 21
329.2148852817
 31
0.0
  0
SPLINE
  5
384
100
AcDbEntity
  8
MANIFOLD_SOLID_BDXF_HIDDEN_LINE
100
AcDbSpline
 62
8
  6
HIDDEN
 70
0
 71
3
 72
25
 73
21
 74
19
 42
0.0000001
 43
0.0000001
 44
0.0000000001
 12
1.4001508727
 22
-0.0010953612
 32
0.0
 13
0.1036244101
 23
-1.3521243606
 33
0.0
 40
0.0
 40
0.0
 40
0.0
 40
0.0
 40
0.1073345357
 40
0.2253509876
 40
0.3357312825
 40
0.438265851
 40
0.5327816405
 40
0.6191147529
 40
0.6971013362
 40
0.7665755562
 40
0.8273634823
 40
0.8792893299
 40
0.9221776903
 40
0.9558539603
 40
0.9691835963
 40
0.9801459306
 40
0.988720658
 40
0.9948895445
 40
0.9986418432
 40
1.0
 40
1.0
 40
1.0
 40
1.0
 10
191.9423487167
 20
329.2148852817
 30
0.0
 10
191.9924435647
 20
329.2148460917
 30
0.0
 10
192.0976186636
 20
329.2147316626
 30
0.0
 10
192.2543099415
 20
329.2144480197
 30
0.0
 10
192.4087606937
 20
329.2140319198
 30
0.0
 10
192.5522428751
 20
329.2135011441
 30
0.0
 10
192.6845012317
 20
329.2128580127
 30
0.0
 10
192.8053019163
 20
329.2121050937
 30
0.0
 10
192.9144140386
 20
329.2112449639
 30
0.0
 10
193.0116030693
 20
329.2102810807
 30
0.0
 10
193.0966252665
 20
329.2092159564
 30
0.0
 10
193.169242805
 20
329.2080576765
 30
0.0
 10
193.2291863937
 20
329.2068040152
 30
0.0
 10
193.2711543633
 20
329.2056360759
 30
0.0
 10
193.2981458335
 20
329.2045885105
 30
0.0
 10
193.313560449
 20
329.2038749333
 30
0.0
 10
193.325294721
 20
329.2030742925
 30
0.0
 10
193.3344460325
 20
329.2024535261
 30
0.0
 10
193.3386809998
 20
329.2015271177
 30
0.0
 10
193.3420704383
 20
329.2011653547
 30
0.0
 10
193.342117351
 20
329.2005532224
 30
0.0
 11
191.9423487167
 21
329.2148852817
 31
0.0
 11
192.0926332087
 21
329.2147198545
 31
0.0
 11
192.2578738051
 21
329.214416413
 31
0.0
 11
192.4124223318
 21
329.2139952095
 31
0.0
 11
192.5559852255
 21
329.2134583296
 31
0.0
 11
192.6883200214
 21
329.2128078586
 31
0.0
 11
192.8091970294
 21
329.2120458819
 31
0.0
 11
192.9183865593
 21
329.211174485
 31
0.0
 11
193.0156560468
 21
329.2101957532
 31
0.0
 11
193.1007614304
 21
329.2091117721
 31
0.0
 11
193.1734557747
 21
329.2079246269
 31
0.0
 11
193.233492144
 21
329.2066364031
 31
0.0
 11
193.2806236028
 21
329.2052491861
 31
0.0
 11
193.2992728234
 21
329.2045191068
 31
0.0
 11
193.3146032155
 21
329.2037650613
 31
0.0
 11
193.3265839122
 21
329.2029873102
 31
0.0
 11
193.3351840464
 21
329.2021861142
 31
0.0
 11
193.3403727514
 21
329.201361734
 31
0.0
 11
193.342117351
 21
329.2005532224
 31
0.0
  0
SPLINE
  5
385
100
AcDbEntity
  8
MANIFOLD_SOLID_BDXF_HIDDEN_LINE
100
AcDbSpline
 62
8
  6
HIDDEN
 70
0
 71
3
 72
27
 73
23
 74
21
 42
0.0000001
 43
0.0000001
 44
0.0000000001
 12
-0.1522512803
 22
-1.9866232577
 32
0.0
 13
-2.0571855781
 23
0.0026351655
 33
0.0
 40
0.0
 40
0.0
 40
0.0
 40
0.0
 40
0.000924381
 40
0.0034782495
 40
0.0076768824
 40
0.0135129652
 40
0.0209740875
 40
0.0300464295
 40
0.0529669832
 40
0.0821574181
 40
0.1174988968
 40
0.1588720335
 40
0.2061571867
 40
0.2592359769
 40
0.3179955348
 40
0.3823243404
 40
0.4521108424
 40
0.5272372586
 40
0.607560953
 40
0.7832047328
 40
0.9776382379
 40
1.0
 40
1.0
 40
1.0
 40
1.0
 10
193.3420868804
 20
313.13074377
 30
0.0
 10
193.3420399676
 20
313.1301316377
 30
0.0
 10
193.3386505291
 20
313.1297698748
 30
0.0
 10
193.3344155618
 20
313.1288434664
 30
0.0
 10
193.3252642503
 20
313.1282227
 30
0.0
 10
193.3135299784
 20
313.1274220591
 30
0.0
 10
193.2981153628
 20
313.126708482
 30
0.0
 10
193.2711238926
 20
313.1256609166
 30
0.0
 10
193.2291559231
 20
313.1244929773
 30
0.0
 10
193.1692123344
 20
313.123239316
 30
0.0
 10
193.0965947959
 20
313.1220810361
 30
0.0
 10
193.0115725986
 20
313.1210159118
 30
0.0
 10
192.9143835679
 20
313.1200520286
 30
0.0
 10
192.8052714456
 20
313.1191918987
 30
0.0
 10
192.6844707611
 20
313.1184389798
 30
0.0
 10
192.5522124045
 20
313.1177958484
 30
0.0
 10
192.4087302231
 20
313.1172650727
 30
0.0
 10
192.2542794708
 20
313.1168489728
 30
0.0
 10
192.0272391153
 20
313.1164379838
 30
0.0
 10
191.7183860122
 20
313.1162511542
 30
0.0
 10
191.4492791586
 20
313.1164317108
 30
0.0
 10
191.3006164486
 20
313.116613832
 30
0.0
 10
191.2852823504
 20
313.1166334743
 30
0.0
 11
193.3420868804
 21
313.13074377
 31
0.0
 11
193.3403422808
 21
313.1299352585
 31
0.0
 11
193.3351535758
 21
313.1291108783
 31
0.0
 11
193.3265534415
 21
313.1283096823
 31
0.0
 11
193.3145727448
 21
313.1275319312
 31
0.0
 11
193.2992423527
 21
313.1267778856
 31
0.0
 11
193.2805931322
 21
313.1260478064
 31
0.0
 11
193.2334616734
 21
313.1246605894
 31
0.0
 11
193.1734253041
 21
313.1233723656
 31
0.0
 11
193.1007309598
 21
313.1221852204
 31
0.0
 11
193.0156255761
 21
313.1211012392
 31
0.0
 11
192.9183560887
 21
313.1201225075
 31
0.0
 11
192.8091665587
 21
313.1192511105
 31
0.0
 11
192.6882895507
 21
313.1184891339
 31
0.0
 11
192.5559547548
 21
313.1178386629
 31
0.0
 11
192.4123918611
 21
313.1173017829
 31
0.0
 11
192.2578433344
 21
313.1168805795
 31
0.0
 11
192.092602738
 21
313.116577138
 31
0.0
 11
191.7312706882
 21
313.1163318822
 31
0.0
 11
191.3312846483
 21
313.116577138
 31
0.0
 11
191.2852823504
 21
313.1166334743
 31
0.0
  0
SPLINE
  5
386
100
AcDbEntity
  8
MANIFOLD_SOLID_BDXF_HIDDEN_LINE
100
AcDbSpline
 62
8
  6
HIDDEN
 70
0
 71
3
 72
27
 73
23
 74
21
 42
0.0000001
 43
0.0000001
 44
0.0000000001
 12
-2.0571855826
 22
-0.0026351655
 32
0.0
 13
-0.1522512808
 23
1.986623262
 33
0.0
 40
0.0
 40
0.0
 40
0.0
 40
0.0
 40
0.0223617643
 40
0.2167952689
 40
0.3924390483
 40
0.4727627426
 40
0.5478891586
 40
0.6176756604
 40
0.6820044659
 40
0.7407640237
 40
0.7938428137
 40
0.8411279669
 40
0.8825011035
 40
0.9178425821
 40
0.9470330169
 40
0.9699535706
 40
0.9790259125
 40
0.9864870348
 40
0.9923231176
 40
0.9965217505
 40
0.999075619
 40
1.0
 40
1.0
 40
1.0
 40
1.0
 10
133.2793323158
 20
313.1166334743
 30
0.0
 10
133.2639982161
 20
313.116613832
 30
0.0
 10
133.1153355046
 20
313.1164317108
 30
0.0
 10
132.8462286494
 20
313.1162511542
 30
0.0
 10
132.5373755464
 20
313.1164379838
 30
0.0
 10
132.3103351908
 20
313.1168489728
 30
0.0
 10
132.1558844386
 20
313.1172650727
 30
0.0
 10
132.0124022572
 20
313.1177958484
 30
0.0
 10
131.8801439006
 20
313.1184389798
 30
0.0
 10
131.759343216
 20
313.1191918987
 30
0.0
 10
131.6502310937
 20
313.1200520286
 30
0.0
 10
131.553042063
 20
313.1210159118
 30
0.0
 10
131.4680198658
 20
313.1220810361
 30
0.0
 10
131.3954023273
 20
313.123239316
 30
0.0
 10
131.3354587386
 20
313.1244929773
 30
0.0
 10
131.293490769
 20
313.1256609166
 30
0.0
 10
131.2664992988
 20
313.126708482
 30
0.0
 10
131.2510846833
 20
313.1274220591
 30
0.0
 10
131.2393504113
 20
313.1282227
 30
0.0
 10
131.2301990998
 20
313.1288434664
 30
0.0
 10
131.2259641325
 20
313.1297698748
 30
0.0
 10
131.222574694
 20
313.1301316377
 30
0.0
 10
131.2225277813
 20
313.13074377
 30
0.0
 11
133.2793323158
 21
313.1166334743
 31
0.0
 11
133.2333300134
 21
313.116577138
 31
0.0
 11
132.8333439734
 21
313.1163318822
 31
0.0
 11
132.4720119236
 21
313.116577138
 31
0.0
 11
132.3067713272
 21
313.1168805795
 31
0.0
 11
132.1522228005
 21
313.1173017829
 31
0.0
 11
132.0086599068
 21
313.1178386629
 31
0.0
 11
131.8763251109
 21
313.1184891339
 31
0.0
 11
131.7554481029
 21
313.1192511105
 31
0.0
 11
131.646258573
 21
313.1201225075
 31
0.0
 11
131.5489890855
 21
313.1211012392
 31
0.0
 11
131.4638837019
 21
313.1221852204
 31
0.0
 11
131.3911893576
 21
313.1233723656
 31
0.0
 11
131.3311529883
 21
313.1246605894
 31
0.0
 11
131.2840215295
 21
313.1260478064
 31
0.0
 11
131.2653723089
 21
313.1267778856
 31
0.0
 11
131.2500419168
 21
313.1275319312
 31
0.0
 11
131.2380612201
 21
313.1283096823
 31
0.0
 11
131.2294610858
 21
313.1291108783
 31
0.0
 11
131.2242723809
 21
313.1299352585
 31
0.0
 11
131.2225277813
 21
313.13074377
 31
0.0
  0
SPLINE
  5
387
100
AcDbEntity
  8
MANIFOLD_SOLDXF_CONTINUOUS_LINE
100
AcDbSpline
 62
7
  6
CONTINUOUS
 70
0
 71
3
 72
14
 73
10
 74
8
 42
0.0000001
 43
0.0000001
 44
0.0000000001
 12
-4.0993422092
 22
0.0260070337
 32
0.0
 13
-4.0994237923
 23
-0.003207047
 33
0.0
 40
0.0
 40
0.0
 40
0.0
 40
0.0
 40
0.2618683302
 40
0.5132081423
 40
0.6321273211
 40
0.7450782682
 40
0.8509464811
 40
0.948517761
 40
1.0
 40
1.0
 40
1.0
 40
1.0
 10
136.7216582565
 20
329.2005144317
 30
0.0
 10
136.3638289568
 20
329.2027845712
 30
0.0
 10
135.6625541091
 20
329.2067851528
 30
0.0
 10
134.7987762356
 20
329.2106207713
 30
0.0
 10
134.1384856754
 20
329.21284535
 30
0.0
 10
133.6769762065
 20
329.2140404489
 30
0.0
 10
133.2446371752
 20
329.2147785066
 30
0.0
 10
132.8962930345
 20
329.2150122272
 30
0.0
 10
132.69261511
 20
329.214940317
 30
0.0
 10
132.6222659381
 20
329.2148852817
 30
0.0
 11
136.7216582565
 21
329.2005144317
 31
0.0
 11
135.6481662105
 21
329.2066364031
 31
0.0
 11
134.6178275693
 21
329.211174485
 31
0.0
 11
134.130330086
 21
329.2128078586
 31
0.0
 11
133.6672977051
 21
329.2139952095
 31
0.0
 11
133.2332995428
 21
329.2147198545
 31
0.0
 11
132.8333135028
 21
329.2149651102
 31
0.0
 11
132.6222659381
 21
329.2148852817
 31
0.0
  0
SPLINE
  5
388
100
AcDbEntity
  8
MANIFOLD_SOLDXF_CONTINUOUS_LINE
100
AcDbSpline
 62
7
  6
CONTINUOUS
 70
0
 71
3
 72
25
 73
21
 74
19
 42
0.0000001
 43
0.0000001
 44
0.0000000001
 12
-1.4001508659
 22
-0.0010953612
 32
0.0
 13
-0.1036244095
 23
-1.3521243541
 33
0.0
 40
0.0
 40
0.0
 40
0.0
 40
0.0
 40
0.1073345313
 40
0.2253509838
 40
0.3357312793
 40
0.4382658483
 40
0.5327816382
 40
0.6191147511
 40
0.6971013348
 40
0.7665755551
 40
0.8273634814
 40
0.8792893293
 40
0.92217769
 40
0.9558539601
 40
0.9691835962
 40
0.9801459305
 40
0.9887206579
 40
0.9948895445
 40
0.9986418432
 40
1.0
 40
1.0
 40
1.0
 40
1.0
 10
132.6222659381
 20
329.2148852817
 30
0.0
 10
132.5721710925
 20
329.2148460917
 30
0.0
 10
132.4669959958
 20
329.2147316626
 30
0.0
 10
132.3103047202
 20
329.2144480197
 30
0.0
 10
132.1558539679
 20
329.2140319198
 30
0.0
 10
132.0123717865
 20
329.2135011441
 30
0.0
 10
131.8801134299
 20
329.2128580127
 30
0.0
 10
131.7593127454
 20
329.2121050937
 30
0.0
 10
131.6502006231
 20
329.2112449639
 30
0.0
 10
131.5530115924
 20
329.2102810807
 30
0.0
 10
131.4679893951
 20
329.2092159564
 30
0.0
 10
131.3953718567
 20
329.2080576765
 30
0.0
 10
131.3354282679
 20
329.2068040152
 30
0.0
 10
131.2934602984
 20
329.2056360759
 30
0.0
 10
131.2664688282
 20
329.2045885105
 30
0.0
 10
131.2510542126
 20
329.2038749333
 30
0.0
 10
131.2393199407
 20
329.2030742925
 30
0.0
 10
131.2301686292
 20
329.2024535261
 30
0.0
 10
131.2259336619
 20
329.2015271177
 30
0.0
 10
131.2225442234
 20
329.2011653547
 30
0.0
 10
131.2224973106
 20
329.2005532224
 30
0.0
 11
132.6222659381
 21
329.2148852817
 31
0.0
 11
132.471981453
 21
329.2147198545
 31
0.0
 11
132.3067408566
 21
329.214416413
 31
0.0
 11
132.1521923299
 21
329.2139952095
 31
0.0
 11
132.0086294362
 21
329.2134583296
 31
0.0
 11
131.8762946403
 21
329.2128078586
 31
0.0
 11
131.7554176323
 21
329.2120458819
 31
0.0
 11
131.6462281024
 21
329.211174485
 31
0.0
 11
131.5489586149
 21
329.2101957532
 31
0.0
 11
131.4638532312
 21
329.2091117721
 31
0.0
 11
131.3911588869
 21
329.2079246269
 31
0.0
 11
131.3311225176
 21
329.2066364031
 31
0.0
 11
131.2839910588
 21
329.2052491861
 31
0.0
 11
131.2653418383
 21
329.2045191068
 31
0.0
 11
131.2500114462
 21
329.2037650613
 31
0.0
 11
131.2380307495
 21
329.2029873102
 31
0.0
 11
131.2294306152
 21
329.2021861142
 31
0.0
 11
131.2242419102
 21
329.201361734
 31
0.0
 11
131.2224973106
 21
329.2005532224
 31
0.0
  0
SPLINE
  5
389
100
AcDbEntity
  8
MANIFOLD_SOLDXF_CONTINUOUS_LINE
100
AcDbSpline
 62
7
  6
CONTINUOUS
 70
0
 71
3
 72
25
 73
21
 74
19
 42
0.0000001
 43
0.0000001
 44
0.0000000001
 12
-0.1036244104
 22
1.3521243605
 32
0.0
 13
-1.4001508727
 23
0.0010953612
 33
0.0
 40
0.0
 40
0.0
 40
0.0
 40
0.0
 40
0.0013581568
 40
0.0051104555
 40
0.011279342
 40
0.0198540694
 40
0.0308164037
 40
0.0441460397
 40
0.0778223097
 40
0.1207106701
 40
0.1726365177
 40
0.2334244438
 40
0.3028986638
 40
0.3808852471
 40
0.4672183595
 40
0.561734149
 40
0.6642687175
 40
0.7746490124
 40
0.8926654643
 40
1.0
 40
1.0
 40
1.0
 40
1.0
 10
193.342117351
 20
329.2005532224
 30
0.0
 10
193.3420704383
 20
329.2011653547
 30
0.0
 10
193.3386809998
 20
329.2015271177
 30
0.0
 10
193.3344460325
 20
329.2024535261
 30
0.0
 10
193.325294721
 20
329.2030742925
 30
0.0
 10
193.313560449
 20
329.2038749333
 30
0.0
 10
193.2981458335
 20
329.2045885105
 30
0.0
 10
193.2711543633
 20
329.2056360759
 30
0.0
 10
193.2291863937
 20
329.2068040152
 30
0.0
 10
193.169242805
 20
329.2080576765
 30
0.0
 10
193.0966252665
 20
329.2092159564
 30
0.0
 10
193.0116030693
 20
329.2102810807
 30
0.0
 10
192.9144140386
 20
329.2112449639
 30
0.0
 10
192.8053019163
 20
329.2121050937
 30
0.0
 10
192.6845012317
 20
329.2128580127
 30
0.0
 10
192.5522428751
 20
329.2135011441
 30
0.0
 10
192.4087606937
 20
329.2140319198
 30
0.0
 10
192.2543099415
 20
329.2144480197
 30
0.0
 10
192.0976186636
 20
329.2147316626
 30
0.0
 10
191.9924435647
 20
329.2148460917
 30
0.0
 10
191.9423487167
 20
329.2148852817
 30
0.0
 11
193.342117351
 21
329.2005532224
 31
0.0
 11
193.3403727514
 21
329.201361734
 31
0.0
 11
193.3351840464
 21
329.2021861142
 31
0.0
 11
193.3265839122
 21
329.2029873102
 31
0.0
 11
193.3146032155
 21
329.2037650613
 31
0.0
 11
193.2992728234
 21
329.2045191068
 31
0.0
 11
193.2806236028
 21
329.2052491861
 31
0.0
 11
193.233492144
 21
329.2066364031
 31
0.0
 11
193.1734557747
 21
329.2079246269
 31
0.0
 11
193.1007614304
 21
329.2091117721
 31
0.0
 11
193.0156560468
 21
329.2101957532
 31
0.0
 11
192.9183865593
 21
329.211174485
 31
0.0
 11
192.8091970294
 21
329.2120458819
 31
0.0
 11
192.6883200214
 21
329.2128078586
 31
0.0
 11
192.5559852255
 21
329.2134583296
 31
0.0
 11
192.4124223318
 21
329.2139952095
 31
0.0
 11
192.2578738051
 21
329.214416413
 31
0.0
 11
192.0926332087
 21
329.2147198545
 31
0.0
 11
191.9423487167
 21
329.2148852817
 31
0.0
  0
SPLINE
  5
38A
100
AcDbEntity
  8
MANIFOLD_SOLDXF_CONTINUOUS_LINE
100
AcDbSpline
 62
7
  6
CONTINUOUS
 70
0
 71
3
 72
14
 73
10
 74
8
 42
0.0000001
 43
0.0000001
 44
0.0000000001
 12
-4.0994237855
 22
0.0032070469
 32
0.0
 13
-4.0993422024
 23
-0.0260070337
 33
0.0
 40
0.0
 40
0.0
 40
0.0
 40
0.0
 40
0.0514822375
 40
0.1490535175
 40
0.2549217305
 40
0.3678726779
 40
0.4867918569
 40
0.7381316694
 40
1.0
 40
1.0
 40
1.0
 40
1.0
 10
191.9423487167
 20
329.2148852817
 30
0.0
 10
191.8719995471
 20
329.214940317
 30
0.0
 10
191.6683216249
 20
329.2150122272
 30
0.0
 10
191.3199774864
 20
329.2147785066
 30
0.0
 10
190.8876384552
 20
329.2140404489
 30
0.0
 10
190.4261289863
 20
329.21284535
 30
0.0
 10
189.7658384261
 20
329.2106207713
 30
0.0
 10
188.9020605525
 20
329.2067851528
 30
0.0
 10
188.2007857049
 20
329.2027845712
 30
0.0
 10
187.8429564052
 20
329.2005144317
 30
0.0
 11
191.9423487167
 21
329.2148852817
 31
0.0
 11
191.7313011589
 21
329.2149651102
 31
0.0
 11
191.3313151189
 21
329.2147198545
 31
0.0
 11
190.8973169566
 21
329.2139952095
 31
0.0
 11
190.4342845756
 21
329.2128078586
 31
0.0
 11
189.9467870924
 21
329.211174485
 31
0.0
 11
188.9164484511
 21
329.2066364031
 31
0.0
 11
187.8429564052
 21
329.2005144317
 31
0.0
  0
SPLINE
  5
38B
100
AcDbEntity
  8
MANIFOLD_SOLDXF_CONTINUOUS_LINE
100
AcDbSpline
 62
7
  6
CONTINUOUS
 70
0
 71
3
 72
27
 73
23
 74
21
 42
0.0000001
 43
0.0000001
 44
0.0000000001
 12
0.1522512805
 22
-1.9866232624
 32
0.0
 13
2.0571855826
 23
0.0026351655
 33
0.0
 40
0.0
 40
0.0
 40
0.0
 40
0.0
 40
0.000924381
 40
0.0034782495
 40
0.0076768824
 40
0.0135129652
 40
0.0209740875
 40
0.0300464294
 40
0.0529669831
 40
0.0821574179
 40
0.1174988965
 40
0.1588720331
 40
0.2061571863
 40
0.2592359763
 40
0.3179955341
 40
0.3823243396
 40
0.4521108414
 40
0.5272372574
 40
0.6075609517
 40
0.7832047311
 40
0.9776382357
 40
1.0
 40
1.0
 40
1.0
 40
1.0
 10
131.2225277813
 20
313.13074377
 30
0.0
 10
131.222574694
 20
313.1301316377
 30
0.0
 10
131.2259641325
 20
313.1297698748
 30
0.0
 10
131.2301990998
 20
313.1288434664
 30
0.0
 10
131.2393504113
 20
313.1282227
 30
0.0
 10
131.2510846833
 20
313.1274220591
 30
0.0
 10
131.2664992988
 20
313.126708482
 30
0.0
 10
131.293490769
 20
313.1256609166
 30
0.0
 10
131.3354587386
 20
313.1244929773
 30
0.0
 10
131.3954023273
 20
313.123239316
 30
0.0
 10
131.4680198658
 20
313.1220810361
 30
0.0
 10
131.553042063
 20
313.1210159118
 30
0.0
 10
131.6502310937
 20
313.1200520286
 30
0.0
 10
131.759343216
 20
313.1191918987
 30
0.0
 10
131.8801439006
 20
313.1184389798
 30
0.0
 10
132.0124022572
 20
313.1177958484
 30
0.0
 10
132.1558844386
 20
313.1172650727
 30
0.0
 10
132.3103351908
 20
313.1168489728
 30
0.0
 10
132.5373755464
 20
313.1164379839
 30
0.0
 10
132.8462286494
 20
313.1162511542
 30
0.0
 10
133.1153355046
 20
313.1164317108
 30
0.0
 10
133.2639982161
 20
313.116613832
 30
0.0
 10
133.2793323158
 20
313.1166334743
 30
0.0
 11
131.2225277813
 21
313.13074377
 31
0.0
 11
131.2242723809
 21
313.1299352585
 31
0.0
 11
131.2294610858
 21
313.1291108783
 31
0.0
 11
131.2380612201
 21
313.1283096823
 31
0.0
 11
131.2500419168
 21
313.1275319312
 31
0.0
 11
131.2653723089
 21
313.1267778856
 31
0.0
 11
131.2840215295
 21
313.1260478064
 31
0.0
 11
131.3311529883
 21
313.1246605894
 31
0.0
 11
131.3911893576
 21
313.1233723656
 31
0.0
 11
131.4638837019
 21
313.1221852204
 31
0.0
 11
131.5489890855
 21
313.1211012392
 31
0.0
 11
131.646258573
 21
313.1201225075
 31
0.0
 11
131.7554481029
 21
313.1192511105
 31
0.0
 11
131.8763251109
 21
313.1184891339
 31
0.0
 11
132.0086599068
 21
313.1178386629
 31
0.0
 11
132.1522228005
 21
313.1173017829
 31
0.0
 11
132.3067713272
 21
313.1168805795
 31
0.0
 11
132.4720119236
 21
313.116577138
 31
0.0
 11
132.8333439734
 21
313.1163318822
 31
0.0
 11
133.2333300134
 21
313.116577138
 31
0.0
 11
133.2793323158
 21
313.1166334743
 31
0.0
  0
SPLINE
  5
38C
100
AcDbEntity
  8
MANIFOLD_SOLDXF_CONTINUOUS_LINE
100
AcDbSpline
 62
7
  6
CONTINUOUS
 70
0
 71
3
 72
12
 73
8
 74
6
 42
0.0000001
 43
0.0000001
 44
0.0000000001
 12
3.4423860018
 22
0.0044095472
 32
0.0
 13
3.4423194184
 23
0.0218387518
 33
0.0
 40
0.0
 40
0.0
 40
0.0
 40
0.0
 40
0.1127113952
 40
0.2472208724
 40
0.3888377155
 40
0.688149829
 40
1.0
 40
1.0
 40
1.0
 40
1.0
 10
133.2793323158
 20
313.1166334743
 30
0.0
 10
133.4086643588
 20
313.1167991431
 30
0.0
 10
133.6923407391
 20
313.1172962518
 30
0.0
 10
134.138516146
 20
313.1184516425
 30
0.0
 10
134.7988067062
 20
313.1206762212
 30
0.0
 10
135.6625845798
 20
313.1245118397
 30
0.0
 10
136.3638594274
 20
313.1285124213
 30
0.0
 10
136.7216887271
 20
313.1307825607
 30
0.0
 11
133.2793323158
 21
313.1166334743
 31
0.0
 11
133.6673281757
 21
313.1173017829
 31
0.0
 11
134.1303605567
 21
313.1184891339
 31
0.0
 11
134.6178580399
 21
313.1201225075
 31
0.0
 11
135.6481966811
 21
313.1246605894
 31
0.0
 11
136.7216887271
 21
313.1307825607
 31
0.0
  0
SPLINE
  5
38D
100
AcDbEntity
  8
MANIFOLD_SOLDXF_CONTINUOUS_LINE
100
AcDbSpline
 62
7
  6
CONTINUOUS
 70
0
 71
3
 72
12
 73
8
 74
6
 42
0.0000001
 43
0.0000001
 44
0.0000000001
 12
3.442319423
 22
-0.0218387518
 32
0.0
 13
3.4423860064
 23
-0.0044095472
 33
0.0
 40
0.0
 40
0.0
 40
0.0
 40
0.0
 40
0.3118501705
 40
0.6111622837
 40
0.7527791266
 40
0.8872886036
 40
1.0
 40
1.0
 40
1.0
 40
1.0
 10
187.8429259345
 20
313.1307825607
 30
0.0
 10
188.2007552342
 20
313.1285124213
 30
0.0
 10
188.9020300819
 20
313.1245118397
 30
0.0
 10
189.7658079554
 20
313.1206762212
 30
0.0
 10
190.4260985157
 20
313.1184516425
 30
0.0
 10
190.872273924
 20
313.1172962518
 30
0.0
 10
191.1559503059
 20
313.1167991431
 30
0.0
 10
191.2852823504
 20
313.1166334743
 30
0.0
 11
187.8429259345
 21
313.1307825607
 31
0.0
 11
188.9164179805
 21
313.1246605894
 31
0.0
 11
189.9467566217
 21
313.1201225075
 31
0.0
 11
190.434254105
 21
313.1184891339
 31
0.0
 11
190.8972864859
 21
313.1173017829
 31
0.0
 11
191.2852823504
 21
313.1166334743
 31
0.0
  0
SPLINE
  5
38E
100
AcDbEntity
  8
MANIFOLD_SOLDXF_CONTINUOUS_LINE
100
AcDbSpline
 62
7
  6
CONTINUOUS
 70
0
 71
3
 72
27
 73
23
 74
21
 42
0.0000001
 43
0.0000001
 44
0.0000000001
 12
2.0571855781
 22
-0.0026351655
 32
0.0
 13
0.1522512803
 23
1.9866232577
 33
0.0
 40
0.0
 40
0.0
 40
0.0
 40
0.0
 40
0.0223617621
 40
0.2167952672
 40
0.392439047
 40
0.4727627414
 40
0.5478891576
 40
0.6176756596
 40
0.6820044652
 40
0.7407640231
 40
0.7938428133
 40
0.8411279665
 40
0.8825011032
 40
0.9178425819
 40
0.9470330168
 40
0.9699535705
 40
0.9790259125
 40
0.9864870348
 40
0.9923231176
 40
0.9965217505
 40
0.999075619
 40
1.0
 40
1.0
 40
1.0
 40
1.0
 10
191.2852823504
 20
313.1166334743
 30
0.0
 10
191.3006164486
 20
313.116613832
 30
0.0
 10
191.4492791586
 20
313.1164317108
 30
0.0
 10
191.7183860122
 20
313.1162511542
 30
0.0
 10
192.0272391153
 20
313.1164379838
 30
0.0
 10
192.2542794708
 20
313.1168489728
 30
0.0
 10
192.4087302231
 20
313.1172650727
 30
0.0
 10
192.5522124045
 20
313.1177958484
 30
0.0
 10
192.6844707611
 20
313.1184389798
 30
0.0
 10
192.8052714456
 20
313.1191918987
 30
0.0
 10
192.9143835679
 20
313.1200520286
 30
0.0
 10
193.0115725986
 20
313.1210159118
 30
0.0
 10
193.0965947959
 20
313.1220810361
 30
0.0
 10
193.1692123344
 20
313.123239316
 30
0.0
 10
193.2291559231
 20
313.1244929773
 30
0.0
 10
193.2711238926
 20
313.1256609166
 30
0.0
 10
193.2981153628
 20
313.126708482
 30
0.0
 10
193.3135299784
 20
313.1274220591
 30
0.0
 10
193.3252642503
 20
313.1282227
 30
0.0
 10
193.3344155618
 20
313.1288434664
 30
0.0
 10
193.3386505291
 20
313.1297698748
 30
0.0
 10
193.3420399676
 20
313.1301316377
 30
0.0
 10
193.3420868804
 20
313.13074377
 30
0.0
 11
191.2852823504
 21
313.1166334743
 31
0.0
 11
191.3312846483
 21
313.116577138
 31
0.0
 11
191.7312706882
 21
313.1163318822
 31
0.0
 11
192.092602738
 21
313.116577138
 31
0.0
 11
192.2578433344
 21
313.1168805795
 31
0.0
 11
192.4123918611
 21
313.1173017829
 31
0.0
 11
192.5559547548
 21
313.1178386629
 31
0.0
 11
192.6882895507
 21
313.1184891339
 31
0.0
 11
192.8091665587
 21
313.1192511105
 31
0.0
 11
192.9183560887
 21
313.1201225075
 31
0.0
 11
193.0156255761
 21
313.1211012392
 31
0.0
 11
193.1007309598
 21
313.1221852204
 31
0.0
 11
193.1734253041
 21
313.1233723656
 31
0.0
 11
193.2334616734
 21
313.1246605894
 31
0.0
 11
193.2805931322
 21
313.1260478064
 31
0.0
 11
193.2992423527
 21
313.1267778856
 31
0.0
 11
193.3145727448
 21
313.1275319312
 31
0.0
 11
193.3265534415
 21
313.1283096823
 31
0.0
 11
193.3351535758
 21
313.1291108783
 31
0.0
 11
193.3403422808
 21
313.1299352585
 31
0.0
 11
193.3420868804
 21
313.13074377
 31
0.0
  0
SPLINE
  5
38F
100
AcDbEntity
  8
MANIFOLD_SOLID_BDXF_HIDDEN_LINE
100
AcDbSpline
 62
8
  6
HIDDEN
 70
0
 71
3
 72
25
 73
21
 74
19
 42
0.0000001
 43
0.0000001
 44
0.0000000001
 12
1.3521243541
 22
-0.1036244095
 32
0.0
 13
0.0010953612
 23
-1.4001508659
 33
0.0
 40
0.0
 40
0.0
 40
0.0
 40
0.0
 40
0.0013581568
 40
0.0051104555
 40
0.0112793421
 40
0.0198540695
 40
0.0308164038
 40
0.0441460399
 40
0.07782231
 40
0.1207106707
 40
0.1726365186
 40
0.2334244449
 40
0.3028986652
 40
0.3808852489
 40
0.4672183618
 40
0.5617341517
 40
0.6642687207
 40
0.7746490162
 40
0.8926654687
 40
1.0
 40
1.0
 40
1.0
 40
1.0
 10
386.0539366811
 20
193.0136399074
 30
0.0
 10
386.0545488134
 20
193.0135929947
 30
0.0
 10
386.0549105763
 20
193.0102035562
 30
0.0
 10
386.0558369847
 20
193.0059685889
 30
0.0
 10
386.0564577512
 20
192.9968172774
 30
0.0
 10
386.057258392
 20
192.9850830054
 30
0.0
 10
386.0579719691
 20
192.9696683899
 30
0.0
 10
386.0590195345
 20
192.9426769197
 30
0.0
 10
386.0601874738
 20
192.9007089501
 30
0.0
 10
386.0614411352
 20
192.8407653614
 30
0.0
 10
386.062599415
 20
192.7681478229
 30
0.0
 10
386.0636645393
 20
192.6831256256
 30
0.0
 10
386.0646284225
 20
192.585936595
 30
0.0
 10
386.0654885524
 20
192.4768244727
 30
0.0
 10
386.0662414713
 20
192.3560237881
 30
0.0
 10
386.0668846028
 20
192.2237654315
 30
0.0
 10
386.0674153785
 20
192.0802832501
 30
0.0
 10
386.0678314783
 20
191.9258324979
 30
0.0
 10
386.0681151212
 20
191.7691412222
 30
0.0
 10
386.0682295503
 20
191.6639661256
 30
0.0
 10
386.0682687403
 20
191.6138712799
 30
0.0
 11
386.0539366811
 21
193.0136399074
 31
0.0
 11
386.0547451926
 21
193.0118953078
 31
0.0
 11
386.0555695729
 21
193.0067066028
 31
0.0
 11
386.0563707689
 21
192.9981064685
 31
0.0
 11
386.05714852
 21
192.9861257719
 31
0.0
 11
386.0579025655
 21
192.9707953798
 31
0.0
 11
386.0586326447
 21
192.9521461592
 31
0.0
 11
386.0600198617
 21
192.9050147004
 31
0.0
 11
386.0613080855
 21
192.8449783311
 31
0.0
 11
386.0624952307
 21
192.7722839868
 31
0.0
 11
386.0635792119
 21
192.6871786032
 31
0.0
 11
386.0645579437
 21
192.5899091157
 31
0.0
 11
386.0654293406
 21
192.4807195858
 31
0.0
 11
386.0661913173
 21
192.3598425778
 31
0.0
 11
386.0668417883
 21
192.2275077818
 31
0.0
 11
386.0673786682
 21
192.0839448881
 31
0.0
 11
386.0677998716
 21
191.9293963614
 31
0.0
 11
386.0681033132
 21
191.7641557651
 31
0.0
 11
386.0682687403
 21
191.6138712799
 31
0.0
  0
SPLINE
  5
390
100
AcDbEntity
  8
MANIFOLD_SOLID_BDXF_HIDDEN_LINE
100
AcDbSpline
 62
8
  6
HIDDEN
 70
0
 71
3
 72
25
 73
21
 74
19
 42
0.0000001
 43
0.0000001
 44
0.0000000001
 12
-0.0010953612
 22
-1.4001508727
 32
0.0
 13
-1.3521243605
 23
-0.1036244103
 33
0.0
 40
0.0
 40
0.0
 40
0.0
 40
0.0
 40
0.1073345357
 40
0.2253509876
 40
0.3357312825
 40
0.438265851
 40
0.5327816405
 40
0.6191147529
 40
0.6971013362
 40
0.7665755562
 40
0.8273634823
 40
0.8792893299
 40
0.9221776903
 40
0.9558539603
 40
0.9691835963
 40
0.9801459306
 40
0.988720658
 40
0.9948895445
 40
0.9986418432
 40
1.0
 40
1.0
 40
1.0
 40
1.0
 10
386.0682687403
 20
132.2937885013
 30
0.0
 10
386.0682295503
 20
132.2436936534
 30
0.0
 10
386.0681151212
 20
132.1385185545
 30
0.0
 10
386.0678314783
 20
131.9818272766
 30
0.0
 10
386.0674153785
 20
131.8273765243
 30
0.0
 10
386.0668846028
 20
131.6838943429
 30
0.0
 10
386.0662414713
 20
131.5516359863
 30
0.0
 10
386.0654885524
 20
131.4308353018
 30
0.0
 10
386.0646284225
 20
131.3217231795
 30
0.0
 10
386.0636645393
 20
131.2245341488
 30
0.0
 10
386.062599415
 20
131.1395119515
 30
0.0
 10
386.0614411352
 20
131.066894413
 30
0.0
 10
386.0601874738
 20
131.0069508243
 30
0.0
 10
386.0590195345
 20
130.9649828548
 30
0.0
 10
386.0579719691
 20
130.9379913846
 30
0.0
 10
386.057258392
 20
130.922576769
 30
0.0
 10
386.0564577512
 20
130.9108424971
 30
0.0
 10
386.0558369847
 20
130.9016911856
 30
0.0
 10
386.0549105763
 20
130.8974562183
 30
0.0
 10
386.0545488134
 20
130.8940667798
 30
0.0
 10
386.0539366811
 20
130.894019867
 30
0.0
 11
386.0682687403
 21
132.2937885013
 31
0.0
 11
386.0681033132
 21
132.1435040094
 31
0.0
 11
386.0677998716
 21
131.978263413
 31
0.0
 11
386.0673786682
 21
131.8237148863
 31
0.0
 11
386.0668417883
 21
131.6801519926
 31
0.0
 11
386.0661913173
 21
131.5478171967
 31
0.0
 11
386.0654293406
 21
131.4269401887
 31
0.0
 11
386.0645579437
 21
131.3177506587
 31
0.0
 11
386.0635792119
 21
131.2204811713
 31
0.0
 11
386.0624952307
 21
131.1353757876
 31
0.0
 11
386.0613080855
 21
131.0626814433
 31
0.0
 11
386.0600198617
 21
131.002645074
 31
0.0
 11
386.0586326447
 21
130.9555136152
 31
0.0
 11
386.0579025655
 21
130.9368643947
 31
0.0
 11
386.05714852
 21
130.9215340026
 31
0.0
 11
386.0563707689
 21
130.9095533059
 31
0.0
 11
386.0555695729
 21
130.9009531716
 31
0.0
 11
386.0547451926
 21
130.8957644666
 31
0.0
 11
386.0539366811
 21
130.894019867
 31
0.0
  0
SPLINE
  5
391
100
AcDbEntity
  8
MANIFOLD_SOLID_BDXF_HIDDEN_LINE
100
AcDbSpline
 62
8
  6
HIDDEN
 70
0
 71
3
 72
27
 73
23
 74
21
 42
0.0000001
 43
0.0000001
 44
0.0000000001
 12
-0.0026351655
 22
2.0571855826
 32
0.0
 13
1.9866232619
 23
0.1522512809
 33
0.0
 40
0.0
 40
0.0
 40
0.0
 40
0.0
 40
0.0223617643
 40
0.2167952689
 40
0.3924390483
 40
0.4727627426
 40
0.5478891586
 40
0.6176756604
 40
0.6820044659
 40
0.7407640237
 40
0.7938428137
 40
0.8411279669
 40
0.8825011035
 40
0.9178425821
 40
0.9470330169
 40
0.9699535706
 40
0.9790259125
 40
0.9864870348
 40
0.9923231176
 40
0.9965217505
 40
0.999075619
 40
1.0
 40
1.0
 40
1.0
 40
1.0
 10
369.970016933
 20
190.9568049022
 30
0.0
 10
369.9699972907
 20
190.9721390019
 30
0.0
 10
369.9698151695
 20
191.1208017134
 30
0.0
 10
369.9696346129
 20
191.3899085686
 30
0.0
 10
369.9698214425
 20
191.6987616716
 30
0.0
 10
369.9702324315
 20
191.9258020272
 30
0.0
 10
369.9706485313
 20
192.0802527795
 30
0.0
 10
369.971179307
 20
192.2237349609
 30
0.0
 10
369.9718224384
 20
192.3559933175
 30
0.0
 10
369.9725753574
 20
192.476794002
 30
0.0
 10
369.9734354872
 20
192.5859061243
 30
0.0
 10
369.9743993704
 20
192.683095155
 30
0.0
 10
369.9754644948
 20
192.7681173523
 30
0.0
 10
369.9766227746
 20
192.8407348907
 30
0.0
 10
369.9778764359
 20
192.9006784795
 30
0.0
 10
369.9790443753
 20
192.942646449
 30
0.0
 10
369.9800919406
 20
192.9696379192
 30
0.0
 10
369.9808055178
 20
192.9850525348
 30
0.0
 10
369.9816061586
 20
192.9967868067
 30
0.0
 10
369.9822269251
 20
193.0059381182
 30
0.0
 10
369.9831533335
 20
193.0101730855
 30
0.0
 10
369.9835150964
 20
193.013562524
 30
0.0
 10
369.9841272287
 20
193.0136094368
 30
0.0
 11
369.970016933
 21
190.9568049022
 31
0.0
 11
369.9699605966
 21
191.0028072047
 31
0.0
 11
369.9697153409
 21
191.4027932446
 31
0.0
 11
369.9699605966
 21
191.7641252944
 31
0.0
 11
369.9702640381
 21
191.9293658908
 31
0.0
 11
369.9706852416
 21
192.0839144175
 31
0.0
 11
369.9712221215
 21
192.2274773112
 31
0.0
 11
369.9718725925
 21
192.3598121071
 31
0.0
 11
369.9726345692
 21
192.4806891151
 31
0.0
 11
369.9735059661
 21
192.5898786451
 31
0.0
 11
369.9744846979
 21
192.6871481325
 31
0.0
 11
369.9755686791
 21
192.7722535162
 31
0.0
 11
369.9767558243
 21
192.8449478605
 31
0.0
 11
369.9780440481
 21
192.9049842298
 31
0.0
 11
369.9794312651
 21
192.9521156886
 31
0.0
 11
369.9801613443
 21
192.9707649091
 31
0.0
 11
369.9809153898
 21
192.9860953012
 31
0.0
 11
369.9816931409
 21
192.9980759979
 31
0.0
 11
369.9824943369
 21
193.0066761322
 31
0.0
 11
369.9833187172
 21
193.0118648372
 31
0.0
 11
369.9841272287
 21
193.0136094368
 31
0.0
  0
SPLINE
  5
392
100
AcDbEntity
  8
MANIFOLD_SOLID_BDXF_HIDDEN_LINE
100
AcDbSpline
 62
8
  6
HIDDEN
 70
0
 71
3
 72
27
 73
23
 74
21
 42
0.0000001
 43
0.0000001
 44
0.0000000001
 12
-1.9866232576
 22
0.1522512802
 32
0.0
 13
0.0026351655
 23
2.0571855781
 33
0.0
 40
0.0
 40
0.0
 40
0.0
 40
0.0
 40
0.000924381
 40
0.0034782495
 40
0.0076768824
 40
0.0135129652
 40
0.0209740875
 40
0.0300464295
 40
0.0529669832
 40
0.0821574181
 40
0.1174988968
 40
0.1588720335
 40
0.2061571867
 40
0.2592359769
 40
0.3179955348
 40
0.3823243404
 40
0.4521108424
 40
0.5272372586
 40
0.607560953
 40
0.7832047328
 40
0.9776382379
 40
1.0
 40
1.0
 40
1.0
 40
1.0
 10
369.9841272287
 20
130.8940503377
 30
0.0
 10
369.9835150964
 20
130.8940972504
 30
0.0
 10
369.9831533335
 20
130.8974866889
 30
0.0
 10
369.9822269251
 20
130.9017216562
 30
0.0
 10
369.9816061586
 20
130.9108729677
 30
0.0
 10
369.9808055178
 20
130.9226072396
 30
0.0
 10
369.9800919406
 20
130.9380218552
 30
0.0
 10
369.9790443753
 20
130.9650133254
 30
0.0
 10
369.9778764359
 20
131.006981295
 30
0.0
 10
369.9766227746
 20
131.0669248837
 30
0.0
 10
369.9754644948
 20
131.1395424222
 30
0.0
 10
369.9743993704
 20
131.2245646194
 30
0.0
 10
369.9734354872
 20
131.3217536501
 30
0.0
 10
369.9725753574
 20
131.4308657724
 30
0.0
 10
369.9718224384
 20
131.551666457
 30
0.0
 10
369.971179307
 20
131.6839248136
 30
0.0
 10
369.9706485313
 20
131.8274069949
 30
0.0
 10
369.9702324315
 20
131.9818577472
 30
0.0
 10
369.9698214425
 20
132.2088981028
 30
0.0
 10
369.9696346129
 20
132.5177512058
 30
0.0
 10
369.9698151695
 20
132.7868580595
 30
0.0
 10
369.9699972907
 20
132.9355207695
 30
0.0
 10
369.970016933
 20
132.9508548677
 30
0.0
 11
369.9841272287
 21
130.8940503377
 31
0.0
 11
369.9833187172
 21
130.8957949373
 31
0.0
 11
369.9824943369
 21
130.9009836422
 31
0.0
 11
369.9816931409
 21
130.9095837765
 31
0.0
 11
369.9809153898
 21
130.9215644732
 31
0.0
 11
369.9801613443
 21
130.9368948653
 31
0.0
 11
369.9794312651
 21
130.9555440859
 31
0.0
 11
369.9780440481
 21
131.0026755447
 31
0.0
 11
369.9767558243
 21
131.062711914
 31
0.0
 11
369.9755686791
 21
131.1354062583
 31
0.0
 11
369.9744846979
 21
131.2205116419
 31
0.0
 11
369.9735059661
 21
131.3177811294
 31
0.0
 11
369.9726345692
 21
131.4269706593
 31
0.0
 11
369.9718725925
 21
131.5478476673
 31
0.0
 11
369.9712221215
 21
131.6801824632
 31
0.0
 11
369.9706852416
 21
131.8237453569
 31
0.0
 11
369.9702640381
 21
131.9782938836
 31
0.0
 11
369.9699605966
 21
132.14353448
 31
0.0
 11
369.9697153409
 21
132.5048665298
 31
0.0
 11
369.9699605966
 21
132.9048525698
 31
0.0
 11
369.970016933
 21
132.9508548677
 31
0.0
  0
SPLINE
  5
393
100
AcDbEntity
  8
MANIFOLD_SOLDXF_CONTINUOUS_LINE
100
AcDbSpline
 62
7
  6
CONTINUOUS
 70
0
 71
3
 72
25
 73
21
 74
19
 42
0.0000001
 43
0.0000001
 44
0.0000000001
 12
1.3521243606
 22
0.10362441
 32
0.0
 13
0.0010953612
 23
1.4001508727
 33
0.0
 40
0.0
 40
0.0
 40
0.0
 40
0.0
 40
0.0013581568
 40
0.0051104555
 40
0.011279342
 40
0.0198540694
 40
0.0308164037
 40
0.0441460397
 40
0.0778223097
 40
0.1207106701
 40
0.1726365177
 40
0.2334244438
 40
0.3028986638
 40
0.3808852471
 40
0.4672183595
 40
0.561734149
 40
0.6642687175
 40
0.7746490124
 40
0.8926654643
 40
1.0
 40
1.0
 40
1.0
 40
1.0
 10
386.0539366811
 20
130.894019867
 30
0.0
 10
386.0545488134
 20
130.8940667798
 30
0.0
 10
386.0549105763
 20
130.8974562183
 30
0.0
 10
386.0558369847
 20
130.9016911856
 30
0.0
 10
386.0564577512
 20
130.9108424971
 30
0.0
 10
386.057258392
 20
130.922576769
 30
0.0
 10
386.0579719691
 20
130.9379913846
 30
0.0
 10
386.0590195345
 20
130.9649828548
 30
0.0
 10
386.0601874738
 20
131.0069508243
 30
0.0
 10
386.0614411352
 20
131.066894413
 30
0.0
 10
386.062599415
 20
131.1395119515
 30
0.0
 10
386.0636645393
 20
131.2245341488
 30
0.0
 10
386.0646284225
 20
131.3217231795
 30
0.0
 10
386.0654885524
 20
131.4308353018
 30
0.0
 10
386.0662414713
 20
131.5516359863
 30
0.0
 10
386.0668846028
 20
131.6838943429
 30
0.0
 10
386.0674153785
 20
131.8273765243
 30
0.0
 10
386.0678314783
 20
131.9818272766
 30
0.0
 10
386.0681151212
 20
132.1385185545
 30
0.0
 10
386.0682295503
 20
132.2436936534
 30
0.0
 10
386.0682687403
 20
132.2937885013
 30
0.0
 11
386.0539366811
 21
130.894019867
 31
0.0
 11
386.0547451926
 21
130.8957644666
 31
0.0
 11
386.0555695729
 21
130.9009531716
 31
0.0
 11
386.0563707689
 21
130.9095533059
 31
0.0
 11
386.05714852
 21
130.9215340026
 31
0.0
 11
386.0579025655
 21
130.9368643947
 31
0.0
 11
386.0586326447
 21
130.9555136152
 31
0.0
 11
386.0600198617
 21
131.002645074
 31
0.0
 11
386.0613080855
 21
131.0626814433
 31
0.0
 11
386.0624952307
 21
131.1353757876
 31
0.0
 11
386.0635792119
 21
131.2204811713
 31
0.0
 11
386.0645579437
 21
131.3177506587
 31
0.0
 11
386.0654293406
 21
131.4269401887
 31
0.0
 11
386.0661913173
 21
131.5478171967
 31
0.0
 11
386.0668417883
 21
131.6801519926
 31
0.0
 11
386.0673786682
 21
131.8237148863
 31
0.0
 11
386.0677998716
 21
131.978263413
 31
0.0
 11
386.0681033132
 21
132.1435040094
 31
0.0
 11
386.0682687403
 21
132.2937885013
 31
0.0
  0
SPLINE
  5
394
100
AcDbEntity
  8
MANIFOLD_SOLDXF_CONTINUOUS_LINE
100
AcDbSpline
 62
7
  6
CONTINUOUS
 70
0
 71
3
 72
14
 73
10
 74
8
 42
0.0000001
 43
0.0000001
 44
0.0000000001
 12
0.0032070469
 22
4.0994237855
 32
0.0
 13
-0.0260070337
 23
4.0993422024
 33
0.0
 40
0.0
 40
0.0
 40
0.0
 40
0.0
 40
0.0514822375
 40
0.1490535175
 40
0.2549217305
 40
0.3678726779
 40
0.4867918569
 40
0.7381316694
 40
1.0
 40
1.0
 40
1.0
 40
1.0
 10
386.0682687403
 20
132.2937885013
 30
0.0
 10
386.0683237756
 20
132.3641376709
 30
0.0
 10
386.0683956859
 20
132.5678155932
 30
0.0
 10
386.0681619652
 20
132.9161597316
 30
0.0
 10
386.0674239075
 20
133.3484987629
 30
0.0
 10
386.0662288087
 20
133.8100082317
 30
0.0
 10
386.0640042299
 20
134.470298792
 30
0.0
 10
386.0601686114
 20
135.3340766655
 30
0.0
 10
386.0561680299
 20
136.0353515132
 30
0.0
 10
386.0538978904
 20
136.3931808129
 30
0.0
 11
386.0682687403
 21
132.2937885013
 31
0.0
 11
386.0683485689
 21
132.5048360592
 31
0.0
 11
386.0681033132
 21
132.9048220991
 31
0.0
 11
386.0673786682
 21
133.3388202615
 31
0.0
 11
386.0661913173
 21
133.8018526424
 31
0.0
 11
386.0645579437
 21
134.2893501257
 31
0.0
 11
386.0600198617
 21
135.3196887669
 31
0.0
 11
386.0538978904
 21
136.3931808129
 31
0.0
  0
SPLINE
  5
395
100
AcDbEntity
  8
MANIFOLD_SOLDXF_CONTINUOUS_LINE
100
AcDbSpline
 62
7
  6
CONTINUOUS
 70
0
 71
3
 72
14
 73
10
 74
8
 42
0.0000001
 43
0.0000001
 44
0.0000000001
 12
0.0260070337
 22
4.0993422092
 32
0.0
 13
-0.003207047
 23
4.0994237923
 33
0.0
 40
0.0
 40
0.0
 40
0.0
 40
0.0
 40
0.2618683302
 40
0.5132081423
 40
0.6321273211
 40
0.7450782682
 40
0.8509464811
 40
0.948517761
 40
1.0
 40
1.0
 40
1.0
 40
1.0
 10
386.0538978904
 20
187.5144789616
 30
0.0
 10
386.0561680299
 20
187.8723082613
 30
0.0
 10
386.0601686114
 20
188.5735831089
 30
0.0
 10
386.0640042299
 20
189.4373609825
 30
0.0
 10
386.0662288087
 20
190.0976515427
 30
0.0
 10
386.0674239075
 20
190.5591610116
 30
0.0
 10
386.0681619652
 20
190.9915000428
 30
0.0
 10
386.0683956859
 20
191.3398441835
 30
0.0
 10
386.0683237756
 20
191.5435221081
 30
0.0
 10
386.0682687403
 20
191.6138712799
 30
0.0
 11
386.0538978904
 21
187.5144789616
 31
0.0
 11
386.0600198617
 21
188.5879710075
 31
0.0
 11
386.0645579437
 21
189.6183096488
 31
0.0
 11
386.0661913173
 21
190.105807132
 31
0.0
 11
386.0673786682
 21
190.568839513
 31
0.0
 11
386.0681033132
 21
191.0028376753
 31
0.0
 11
386.0683485689
 21
191.4028237153
 31
0.0
 11
386.0682687403
 21
191.6138712799
 31
0.0
  0
SPLINE
  5
396
100
AcDbEntity
  8
MANIFOLD_SOLDXF_CONTINUOUS_LINE
100
AcDbSpline
 62
7
  6
CONTINUOUS
 70
0
 71
3
 72
25
 73
21
 74
19
 42
0.0000001
 43
0.0000001
 44
0.0000000001
 12
-0.0010953612
 22
1.4001508659
 32
0.0
 13
-1.3521243542
 23
0.1036244095
 33
0.0
 40
0.0
 40
0.0
 40
0.0
 40
0.0
 40
0.1073345313
 40
0.2253509838
 40
0.3357312793
 40
0.4382658483
 40
0.5327816382
 40
0.6191147511
 40
0.6971013348
 40
0.7665755551
 40
0.8273634814
 40
0.8792893293
 40
0.92217769
 40
0.9558539601
 40
0.9691835962
 40
0.9801459305
 40
0.9887206579
 40
0.9948895445
 40
0.9986418432
 40
1.0
 40
1.0
 40
1.0
 40
1.0
 10
386.0682687403
 20
191.6138712799
 30
0.0
 10
386.0682295503
 20
191.6639661256
 30
0.0
 10
386.0681151212
 20
191.7691412222
 30
0.0
 10
386.0678314783
 20
191.9258324979
 30
0.0
 10
386.0674153785
 20
192.0802832501
 30
0.0
 10
386.0668846028
 20
192.2237654315
 30
0.0
 10
386.0662414713
 20
192.3560237881
 30
0.0
 10
386.0654885524
 20
192.4768244727
 30
0.0
 10
386.0646284225
 20
192.585936595
 30
0.0
 10
386.0636645393
 20
192.6831256256
 30
0.0
 10
386.062599415
 20
192.7681478229
 30
0.0
 10
386.0614411352
 20
192.8407653614
 30
0.0
 10
386.0601874738
 20
192.9007089501
 30
0.0
 10
386.0590195345
 20
192.9426769197
 30
0.0
 10
386.0579719691
 20
192.9696683899
 30
0.0
 10
386.057258392
 20
192.9850830054
 30
0.0
 10
386.0564577512
 20
192.9968172774
 30
0.0
 10
386.0558369847
 20
193.0059685889
 30
0.0
 10
386.0549105763
 20
193.0102035562
 30
0.0
 10
386.0545488134
 20
193.0135929947
 30
0.0
 10
386.0539366811
 20
193.0136399074
 30
0.0
 11
386.0682687403
 21
191.6138712799
 31
0.0
 11
386.0681033132
 21
191.7641557651
 31
0.0
 11
386.0677998716
 21
191.9293963614
 31
0.0
 11
386.0673786682
 21
192.0839448881
 31
0.0
 11
386.0668417883
 21
192.2275077818
 31
0.0
 11
386.0661913173
 21
192.3598425778
 31
0.0
 11
386.0654293406
 21
192.4807195858
 31
0.0
 11
386.0645579437
 21
192.5899091157
 31
0.0
 11
386.0635792119
 21
192.6871786032
 31
0.0
 11
386.0624952307
 21
192.7722839868
 31
0.0
 11
386.0613080855
 21
192.8449783311
 31
0.0
 11
386.0600198617
 21
192.9050147004
 31
0.0
 11
386.0586326447
 21
192.9521461592
 31
0.0
 11
386.0579025655
 21
192.9707953798
 31
0.0
 11
386.05714852
 21
192.9861257719
 31
0.0
 11
386.0563707689
 21
192.9981064685
 31
0.0
 11
386.0555695729
 21
193.0067066028
 31
0.0
 11
386.0547451926
 21
193.0118953078
 31
0.0
 11
386.0539366811
 21
193.0136399074
 31
0.0
  0
SPLINE
  5
397
100
AcDbEntity
  8
MANIFOLD_SOLDXF_CONTINUOUS_LINE
100
AcDbSpline
 62
7
  6
CONTINUOUS
 70
0
 71
3
 72
27
 73
23
 74
21
 42
0.0000001
 43
0.0000001
 44
0.0000000001
 12
-1.986623262
 22
-0.1522512809
 32
0.0
 13
0.0026351655
 23
-2.0571855826
 33
0.0
 40
0.0
 40
0.0
 40
0.0
 40
0.0
 40
0.000924381
 40
0.0034782495
 40
0.0076768824
 40
0.0135129652
 40
0.0209740875
 40
0.0300464294
 40
0.0529669831
 40
0.0821574179
 40
0.1174988965
 40
0.1588720331
 40
0.2061571863
 40
0.2592359763
 40
0.3179955341
 40
0.3823243396
 40
0.4521108414
 40
0.5272372574
 40
0.6075609517
 40
0.7832047311
 40
0.9776382357
 40
1.0
 40
1.0
 40
1.0
 40
1.0
 10
369.9841272287
 20
193.0136094368
 30
0.0
 10
369.9835150964
 20
193.013562524
 30
0.0
 10
369.9831533335
 20
193.0101730855
 30
0.0
 10
369.9822269251
 20
193.0059381182
 30
0.0
 10
369.9816061586
 20
192.9967868067
 30
0.0
 10
369.9808055178
 20
192.9850525348
 30
0.0
 10
369.9800919406
 20
192.9696379192
 30
0.0
 10
369.9790443753
 20
192.942646449
 30
0.0
 10
369.9778764359
 20
192.9006784795
 30
0.0
 10
369.9766227746
 20
192.8407348907
 30
0.0
 10
369.9754644948
 20
192.7681173523
 30
0.0
 10
369.9743993704
 20
192.683095155
 30
0.0
 10
369.9734354872
 20
192.5859061243
 30
0.0
 10
369.9725753574
 20
192.476794002
 30
0.0
 10
369.9718224384
 20
192.3559933175
 30
0.0
 10
369.971179307
 20
192.2237349609
 30
0.0
 10
369.9706485313
 20
192.0802527795
 30
0.0
 10
369.9702324315
 20
191.9258020272
 30
0.0
 10
369.9698214425
 20
191.6987616716
 30
0.0
 10
369.9696346129
 20
191.3899085686
 30
0.0
 10
369.9698151695
 20
191.1208017134
 30
0.0
 10
369.9699972907
 20
190.9721390019
 30
0.0
 10
369.970016933
 20
190.9568049022
 30
0.0
 11
369.9841272287
 21
193.0136094368
 31
0.0
 11
369.9833187172
 21
193.0118648372
 31
0.0
 11
369.9824943369
 21
193.0066761322
 31
0.0
 11
369.9816931409
 21
192.9980759979
 31
0.0
 11
369.9809153898
 21
192.9860953012
 31
0.0
 11
369.9801613443
 21
192.9707649091
 31
0.0
 11
369.9794312651
 21
192.9521156886
 31
0.0
 11
369.9780440481
 21
192.9049842298
 31
0.0
 11
369.9767558243
 21
192.8449478605
 31
0.0
 11
369.9755686791
 21
192.7722535162
 31
0.0
 11
369.9744846979
 21
192.6871481325
 31
0.0
 11
369.9735059661
 21
192.5898786451
 31
0.0
 11
369.9726345692
 21
192.4806891151
 31
0.0
 11
369.9718725925
 21
192.3598121071
 31
0.0
 11
369.9712221215
 21
192.2274773112
 31
0.0
 11
369.9706852416
 21
192.0839144175
 31
0.0
 11
369.9702640381
 21
191.9293658908
 31
0.0
 11
369.9699605966
 21
191.7641252944
 31
0.0
 11
369.9697153409
 21
191.4027932446
 31
0.0
 11
369.9699605966
 21
191.0028072047
 31
0.0
 11
369.970016933
 21
190.9568049022
 31
0.0
  0
SPLINE
  5
398
100
AcDbEntity
  8
MANIFOLD_SOLDXF_CONTINUOUS_LINE
100
AcDbSpline
 62
7
  6
CONTINUOUS
 70
0
 71
3
 72
12
 73
8
 74
6
 42
0.0000001
 43
0.0000001
 44
0.0000000001
 12
0.0044095472
 22
-3.4423860018
 32
0.0
 13
0.0218387518
 23
-3.4423194184
 33
0.0
 40
0.0
 40
0.0
 40
0.0
 40
0.0
 40
0.1127113952
 40
0.2472208724
 40
0.3888377155
 40
0.688149829
 40
1.0
 40
1.0
 40
1.0
 40
1.0
 10
369.970016933
 20
190.9568049022
 30
0.0
 10
369.9701826017
 20
190.8274728592
 30
0.0
 10
369.9706797105
 20
190.5437964789
 30
0.0
 10
369.9718351011
 20
190.097621072
 30
0.0
 10
369.9740596799
 20
189.4373305118
 30
0.0
 10
369.9778952984
 20
188.5735526383
 30
0.0
 10
369.9818958799
 20
187.8722777906
 30
0.0
 10
369.9841660194
 20
187.5144484909
 30
0.0
 11
369.970016933
 21
190.9568049022
 31
0.0
 11
369.9706852416
 21
190.5688090423
 31
0.0
 11
369.9718725925
 21
190.1057766614
 31
0.0
 11
369.9735059661
 21
189.6182791781
 31
0.0
 11
369.9780440481
 21
188.5879405369
 31
0.0
 11
369.9841660194
 21
187.5144484909
 31
0.0
  0
SPLINE
  5
399
100
AcDbEntity
  8
MANIFOLD_SOLDXF_CONTINUOUS_LINE
100
AcDbSpline
 62
7
  6
CONTINUOUS
 70
0
 71
3
 72
12
 73
8
 74
6
 42
0.0000001
 43
0.0000001
 44
0.0000000001
 12
-0.0218387518
 22
-3.442319423
 32
0.0
 13
-0.0044095472
 23
-3.4423860064
 33
0.0
 40
0.0
 40
0.0
 40
0.0
 40
0.0
 40
0.3118501705
 40
0.6111622837
 40
0.7527791266
 40
0.8872886036
 40
1.0
 40
1.0
 40
1.0
 40
1.0
 10
369.9841660194
 20
136.3932112835
 30
0.0
 10
369.9818958799
 20
136.0353819838
 30
0.0
 10
369.9778952984
 20
135.3341071362
 30
0.0
 10
369.9740596799
 20
134.4703292626
 30
0.0
 10
369.9718351011
 20
133.8100387024
 30
0.0
 10
369.9706797105
 20
133.363863294
 30
0.0
 10
369.9701826017
 20
133.0801869122
 30
0.0
 10
369.970016933
 20
132.9508548677
 30
0.0
 11
369.9841660194
 21
136.3932112835
 31
0.0
 11
369.9780440481
 21
135.3197192375
 31
0.0
 11
369.9735059661
 21
134.2893805963
 31
0.0
 11
369.9718725925
 21
133.8018831131
 31
0.0
 11
369.9706852416
 21
133.3388507321
 31
0.0
 11
369.970016933
 21
132.9508548677
 31
0.0
  0
SPLINE
  5
39A
100
AcDbEntity
  8
MANIFOLD_SOLDXF_CONTINUOUS_LINE
100
AcDbSpline
 62
7
  6
CONTINUOUS
 70
0
 71
3
 72
27
 73
23
 74
21
 42
0.0000001
 43
0.0000001
 44
0.0000000001
 12
-0.0026351655
 22
-2.0571855781
 32
0.0
 13
1.9866232577
 23
-0.1522512802
 33
0.0
 40
0.0
 40
0.0
 40
0.0
 40
0.0
 40
0.0223617621
 40
0.2167952672
 40
0.392439047
 40
0.4727627414
 40
0.5478891576
 40
0.6176756596
 40
0.6820044652
 40
0.7407640231
 40
0.7938428133
 40
0.8411279665
 40
0.8825011032
 40
0.9178425819
 40
0.9470330168
 40
0.9699535705
 40
0.9790259125
 40
0.9864870348
 40
0.9923231176
 40
0.9965217505
 40
0.999075619
 40
1.0
 40
1.0
 40
1.0
 40
1.0
 10
369.970016933
 20
132.9508548677
 30
0.0
 10
369.9699972907
 20
132.9355207695
 30
0.0
 10
369.9698151695
 20
132.7868580595
 30
0.0
 10
369.9696346129
 20
132.5177512058
 30
0.0
 10
369.9698214425
 20
132.2088981028
 30
0.0
 10
369.9702324315
 20
131.9818577472
 30
0.0
 10
369.9706485313
 20
131.8274069949
 30
0.0
 10
369.971179307
 20
131.6839248136
 30
0.0
 10
369.9718224384
 20
131.551666457
 30
0.0
 10
369.9725753574
 20
131.4308657724
 30
0.0
 10
369.9734354872
 20
131.3217536501
 30
0.0
 10
369.9743993704
 20
131.2245646194
 30
0.0
 10
369.9754644948
 20
131.1395424222
 30
0.0
 10
369.9766227746
 20
131.0669248837
 30
0.0
 10
369.9778764359
 20
131.006981295
 30
0.0
 10
369.9790443753
 20
130.9650133254
 30
0.0
 10
369.9800919406
 20
130.9380218552
 30
0.0
 10
369.9808055178
 20
130.9226072396
 30
0.0
 10
369.9816061586
 20
130.9108729677
 30
0.0
 10
369.9822269251
 20
130.9017216562
 30
0.0
 10
369.9831533335
 20
130.8974866889
 30
0.0
 10
369.9835150964
 20
130.8940972504
 30
0.0
 10
369.9841272287
 20
130.8940503377
 30
0.0
 11
369.970016933
 21
132.9508548677
 31
0.0
 11
369.9699605966
 21
132.9048525698
 31
0.0
 11
369.9697153409
 21
132.5048665298
 31
0.0
 11
369.9699605966
 21
132.14353448
 31
0.0
 11
369.9702640381
 21
131.9782938836
 31
0.0
 11
369.9706852416
 21
131.8237453569
 31
0.0
 11
369.9712221215
 21
131.6801824632
 31
0.0
 11
369.9718725925
 21
131.5478476673
 31
0.0
 11
369.9726345692
 21
131.4269706593
 31
0.0
 11
369.9735059661
 21
131.3177811294
 31
0.0
 11
369.9744846979
 21
131.2205116419
 31
0.0
 11
369.9755686791
 21
131.1354062583
 31
0.0
 11
369.9767558243
 21
131.062711914
 31
0.0
 11
369.9780440481
 21
131.0026755447
 31
0.0
 11
369.9794312651
 21
130.9555440859
 31
0.0
 11
369.9801613443
 21
130.9368948653
 31
0.0
 11
369.9809153898
 21
130.9215644732
 31
0.0
 11
369.9816931409
 21
130.9095837765
 31
0.0
 11
369.9824943369
 21
130.9009836422
 31
0.0
 11
369.9833187172
 21
130.8957949373
 31
0.0
 11
369.9841272287
 21
130.8940503377
 31
0.0
  0
ENDSEC
  0
SECTION
  2
OBJECTS
  0
DICTIONARY
  5
C
100
AcDbDictionary
280
0
281
1
  3
ACAD_GROUP
350
D
  3
ACAD_MLINESTYLE
350
17
  3
ACAD_LAYOUT
350
1A
  3
ACAD_PLOTSETTINGS
350
19
  3
ACAD_PLOTSTYLENAME
350
E
  0
DICTIONARY
  5
D
102
{ACAD_REACTORS
330
C
102
}
100
AcDbDictionary
280
0
281
1
  0
ACDBDICTIONARYWDFLT
  5
E
102
{ACAD_REACTORS
330
C
102
}
100
AcDbDictionary
281
1
  3
Normal
350
F
100
AcDbDictionaryWithDefault
340
F
  0
DICTIONARY
  5
17
102
{ACAD_REACTORS
330
C
102
}
100
AcDbDictionary
280
0
281
1
  3
Standard
350
18
  0
DICTIONARY
  5
19
102
{ACAD_REACTORS
330
C
102
}
100
AcDbDictionary
281
1
  0
DICTIONARY
  5
1A
102
{ACAD_REACTORS
330
C
102
}
100
AcDbDictionary
281
1
  3
Layout1
350
1E
  3
Model
350
22
  0
ACDBPLACEHOLDER
  5
F
102
{ACAD_REACTORS
330
E
102
}
  0
MLINESTYLE
  5
18
102
{ACAD_REACTORS
330
17
102
}
100
AcDbMlineStyle
  2
STANDARD
 70
0
  3

 62
256
 51
90.0
 52
90.0
 71
2
 49
0.5
 62
256
  6
BYLAYER
 49
-0.5
 62
256
  6
BYLAYER
  0
LAYOUT
  5
1E
102
{ACAD_REACTORS
330
1A
102
}
100
AcDbPlotSettings
  1

  2

  4

  6

 40
0.0
 41
0.0
 42
0.0
 43
0.0
 44
0.0
 45
0.0
 46
0.0
 47
0.0
 48
0.0
 49
0.0
140
0.0
141
0.0
142
1.0
143
1.0
 70
0
 72
0
 73
0
 74
0
  7

 75
0
147
1.0
148
0.0
149
0.0
100
AcDbLayout
  1
Layout1
 70
0
 71
0
 10
0.0
 20
0.0
 11
0.0
 21
0.0
 12
0.0
 22
0.0
 32
0.0
 14
0.0
 24
0.0
 34
0.0
 15
0.0
 25
0.0
 35
0.0
146
0.0
 13
0.0
 23
0.0
 33
0.0
 16
0.0
 26
0.0
 36
0.0
 17
0.0
 27
0.0
 37
0.0
 76
0
330
1B
331
0
345
0
346
0
  0
LAYOUT
  5
22
102
{ACAD_REACTORS
330
1A
102
}
100
AcDbPlotSettings
  1

  2

  4

  6

 40
0.0
 41
0.0
 42
0.0
 43
0.0
 44
0.0
 45
0.0
 46
0.0
 47
0.0
 48
0.0
 49
0.0
140
0.0
141
0.0
142
1.0
143
1.0
 70
0
 72
0
 73
0
 74
0
  7

 75
0
147
1.0
148
0.0
149
0.0
100
AcDbLayout
  1
Model
 70
0
 71
0
 10
0.0
 20
0.0
 11
0.0
 21
0.0
 12
0.0
 22
0.0
 32
0.0
 14
0.0
 24
0.0
 34
0.0
 15
0.0
 25
0.0
 35
0.0
146
0.0
 13
0.0
 23
0.0
 33
0.0
 16
0.0
 26
0.0
 36
0.0
 17
0.0
 27
0.0
 37
0.0
 76
0
330
1F
331
0
345
0
346
0
  0
ENDSEC
  0
EOF
