  0
SECTION
  2
HEADER
  9
$ACADVER
  1
AC1009
  9
$INSBASE
 10
0.0
 20
0.0
 30
0.0
  9
$EXTMIN
 10
0.0
 20
0.0
 30
0.0
  9
$EXTMAX
 10
2369.1220575122811
 20
1000.0
 30
0.0
  9
$LIMMIN
 10
0.0
 20
0.0
  9
$LIMMAX
 10
2000.0
 20
1000.0
  9
$ORTHOMODE
 70
     0
  9
$REGENMODE
 70
     1
  9
$FILLMODE
 70
     1
  9
$QTEXTMODE
 70
     0
  9
$MIRRTEXT
 70
     1
  9
$DRAGMODE
 70
     2
  9
$LTSCALE
 40
1.0
  9
$OSMODE
 70
    37
  9
$ATTMODE
 70
     1
  9
$TEXTSIZE
 40
2.5
  9
$TRACEWID
 40
1.0
  9
$TEXTSTYLE
  7
STANDARD
  9
$CLAYER
  8
0
  9
$CELTYPE
  6
BYLAYER
  9
$CECOLOR
 62
     1
  9
$DIMSCALE
 40
1.0
  9
$DIMASZ
 40
2.5
  9
$DIMEXO
 40
0.0
  9
$DIMDLI
 40
3.75
  9
$DIMRND
 40
0.0
  9
$DIMDLE
 40
0.0
  9
$DIMEXE
 40
0.0
  9
$DIMTP
 40
0.0
  9
$DIMTM
 40
0.0
  9
$DIMTXT
 40
2.5
  9
$DIMCEN
 40
2.5
  9
$DIMTSZ
 40
0.0
  9
$DIMTOL
 70
     0
  9
$DIMLIM
 70
     0
  9
$DIMTIH
 70
     1
  9
$DIMTOH
 70
     1
  9
$DIMSE1
 70
     0
  9
$DIMSE2
 70
     0
  9
$DIMTAD
 70
     1
  9
$DIMZIN
 70
     8
  9
$DIMBLK
  1

  9
$DIMASO
 70
     1
  9
$DIMSHO
 70
     1
  9
$DIMPOST
  1

  9
$DIMAPOST
  1

  9
$DIMALT
 70
     0
  9
$DIMALTD
 70
     3
  9
$DIMALTF
 40
0.03937007874016
  9
$DIMLFAC
 40
1.0
  9
$DIMTOFL
 70
     1
  9
$DIMTVP
 40
0.0
  9
$DIMTIX
 70
     0
  9
$DIMSOXD
 70
     0
  9
$DIMSAH
 70
     0
  9
$DIMBLK1
  1

  9
$DIMBLK2
  1

  9
$DIMSTYLE
  2
ISO-25
  9
$DIMCLRD
 70
   256
  9
$DIMCLRE
 70
   256
  9
$DIMCLRT
 70
   256
  9
$DIMTFAC
 40
1.0
  9
$DIMGAP
 40
0.0
  9
$LUNITS
 70
     2
  9
$LUPREC
 70
     4
  9
$SKETCHINC
 40
1.0
  9
$FILLETRAD
 40
10.0
  9
$AUNITS
 70
     0
  9
$AUPREC
 70
     0
  9
$MENU
  1
.
  9
$ELEVATION
 40
0.0
  9
$PELEVATION
 40
0.0
  9
$THICKNESS
 40
0.0
  9
$LIMCHECK
 70
     0
  9
$BLIPMODE
 70
     0
  9
$CHAMFERA
 40
10.0
  9
$CHAMFERB
 40
10.0
  9
$SKPOLY
 70
     0
  9
$TDCREATE
 40
2454906.6052316548
  9
$TDUPDATE
 40
2457829.5213245829
  9
$TDINDWG
 40
0.061336331
  9
$TDUSRTIMER
 40
0.061336331
  9
$USRTIMER
 70
     1
  9
$ANGBASE
 50
0.0
  9
$ANGDIR
 70
     0
  9
$PDMODE
 70
     2
  9
$PDSIZE
 40
3.0
  9
$PLINEWID
 40
0.0
  9
$COORDS
 70
     1
  9
$SPLFRAME
 70
     0
  9
$SPLINETYPE
 70
     6
  9
$SPLINESEGS
 70
     8
  9
$ATTDIA
 70
     0
  9
$ATTREQ
 70
     1
  9
$HANDLING
 70
     1
  9
$HANDSEED
  5
247B6
  9
$SURFTAB1
 70
     6
  9
$SURFTAB2
 70
     6
  9
$SURFTYPE
 70
     6
  9
$SURFU
 70
     6
  9
$SURFV
 70
     6
  9
$UCSNAME
  2

  9
$UCSORG
 10
0.0
 20
0.0
 30
0.0
  9
$UCSXDIR
 10
1.0
 20
0.0
 30
0.0
  9
$UCSYDIR
 10
0.0
 20
1.0
 30
0.0
  9
$PUCSNAME
  2

  9
$PUCSORG
 10
0.0
 20
0.0
 30
0.0
  9
$PUCSXDIR
 10
1.0
 20
0.0
 30
0.0
  9
$PUCSYDIR
 10
0.0
 20
1.0
 30
0.0
  9
$USERI1
 70
     0
  9
$USERI2
 70
     0
  9
$USERI3
 70
     0
  9
$USERI4
 70
     0
  9
$USERI5
 70
     0
  9
$USERR1
 40
0.0
  9
$USERR2
 40
0.0
  9
$USERR3
 40
0.0
  9
$USERR4
 40
40.0
  9
$USERR5
 40
1361.45
  9
$WORLDVIEW
 70
     1
  9
$SHADEDGE
 70
     3
  9
$SHADEDIF
 70
    70
  9
$TILEMODE
 70
     1
  9
$MAXACTVP
 70
    64
  9
$PLIMCHECK
 70
     0
  9
$PEXTMIN
 10
25.699999999999989
 20
19.5
 30
0.0
  9
$PEXTMAX
 10
231.30000000000001
 20
175.5
 30
0.0
  9
$PLIMMIN
 10
-20.0
 20
-7.5
  9
$PLIMMAX
 10
277.0
 20
202.5
  9
$UNITMODE
 70
     0
  9
$VISRETAIN
 70
     1
  9
$PLINEGEN
 70
     0
  9
$PSLTSCALE
 70
     1
  0
ENDSEC
  0
SECTION
  2
TABLES
  0
TABLE
  2
VPORT
 70
     1
  0
VPORT
  2
*ACTIVE
 70
     0
 10
0.0
 20
0.0
 11
1.0
 21
1.0
 12
2535.0815840961009
 22
-70.688474499636641
 13
0.0
 23
0.0
 14
10.0
 24
10.0
 15
10.0
 25
10.0
 16
0.0
 26
0.0
 36
1.0
 17
0.0
 27
0.0
 37
0.0
 40
2778.9358700088578
 41
2.3142857142857141
 42
50.0
 43
0.0
 44
0.0
 50
0.0
 51
0.0
 71
     0
 72
   100
 73
     1
 74
     3
 75
     0
 76
     0
 77
     0
 78
     0
  0
ENDTAB
  0
TABLE
  2
LTYPE
 70
     1
  0
LTYPE
  2
CONTINUOUS
 70
     0
  3
Solid line
 72
    65
 73
     0
 40
0.0
  0
ENDTAB
  0
TABLE
  2
LAYER
 70
     5
  0
LAYER
  2
0
 70
     0
 62
     7
  6
CONTINUOUS
  0
LAYER
  2
DEFPOINTS
 70
     0
 62
     7
  6
CONTINUOUS
  0
LAYER
  2
PROPRO
 70
     0
 62
     1
  6
CONTINUOUS
  0
LAYER
  2
POINT
 70
     0
 62
     2
  6
CONTINUOUS
  0
LAYER
  2
BORDERLINE
 70
     0
 62
     7
  6
CONTINUOUS
  0
ENDTAB
  0
TABLE
  2
STYLE
 70
     1
  0
STYLE
  2
STANDARD
 70
     0
 40
2.0
 41
1.0
 50
0.0
 71
     0
 42
2.5
  3
txt.shx
  4

  0
ENDTAB
  0
TABLE
  2
VIEW
 70
     1
  0
ENDTAB
  0
TABLE
  2
UCS
 70
     0
  0
ENDTAB
  0
TABLE
  2
APPID
 70
     5
  0
APPID
  2
ACAD
 70
     0
  0
APPID
  2
ACAD_DSTYLE_DIMJAG
 70
     0
  0
APPID
  2
ACAD_DSTYLE_DIMTALN
 70
     0
  0
APPID
  2
PROPRO
 70
     0
  0
APPID
  2
ACAD_PSEXT
 70
     0
  0
ENDTAB
  0
TABLE
  2
DIMSTYLE
 70
     3
  0
DIMSTYLE
  2
ISO-25
 70
     0
  3

  4

  5

  6

  7

 40
1.0
 41
2.5
 42
0.0
 43
3.75
 44
0.0
 45
0.0
 46
0.0
 47
0.0
 48
0.0
140
2.5
141
2.5
142
0.0
143
0.03937007874016
144
1.0
145
0.0
146
1.0
147
0.0
 71
     0
 72
     0
 73
     1
 74
     1
 75
     0
 76
     0
 77
     1
 78
     8
170
     0
171
     3
172
     1
173
     0
174
     0
175
     0
176
   256
177
   256
178
   256
  0
DIMSTYLE
  2
ISO-25$0
 70
     0
  3

  4

  5

  6

  7

 40
1.0
 41
1.5
 42
1.0
 43
1.0
 44
0.6
 45
0.0
 46
0.0
 47
0.0
 48
0.0
140
3.5
141
0.0
142
0.0
143
0.03937007874016
144
1.0
145
0.0
146
1.0
147
0.3
 71
     0
 72
     0
 73
     1
 74
     1
 75
     0
 76
     0
 77
     1
 78
     8
170
     0
171
     3
172
     0
173
     0
174
     0
175
     0
176
   256
177
   256
178
   256
  0
DIMSTYLE
  2
ISO-25$3
 70
     0
  3

  4

  5

  6

  7

 40
1.0
 41
1.5
 42
1.0
 43
2.0
 44
1.0
 45
0.0
 46
0.0
 47
0.0
 48
0.0
140
3.5
141
0.0
142
0.0
143
0.03937007874016
144
1.0
145
0.0
146
1.0
147
0.3
 71
     0
 72
     0
 73
     1
 74
     1
 75
     0
 76
     0
 77
     1
 78
     8
170
     0
171
     3
172
     0
173
     0
174
     0
175
     0
176
   256
177
   256
178
   256
  0
ENDTAB
  0
ENDSEC
  0
SECTION
  2
BLOCKS
  0
BLOCK
  8
0
  2
$MODEL_SPACE
 70
     0
 10
0.0
 20
0.0
 30
0.0
  3
$MODEL_SPACE
  1

  0
ENDBLK
  5
21
  8
0
  0
BLOCK
 67
     1
  8
0
  2
$PAPER_SPACE
 70
     0
 10
0.0
 20
0.0
 30
0.0
  3
$PAPER_SPACE
  1

  0
ENDBLK
  5
53
 67
     1
  8
0
  0
BLOCK
  8
0
  2
*D1
 70
     1
 10
0.0
 20
0.0
 30
0.0
  3
*D1
  1

  0
LINE
  5
244C1
  8
0
 10
2123.0184111126941
 20
626.49664793929855
 30
0.0
 11
2123.0184111126941
 21
637.98264800778588
 31
0.0
  0
LINE
  5
244C2
  8
0
 10
2198.4184111126938
 20
626.49664793929855
 30
0.0
 11
2198.4184111126938
 21
637.98264800778588
 31
0.0
  0
LINE
  5
244C3
  8
0
 10
2124.5184111126941
 20
637.38264800778586
 30
0.0
 11
2196.9184111126938
 21
637.38264800778586
 31
0.0
  0
SOLID
  5
244C4
  8
0
 10
2124.5184111126941
 20
637.63264800778586
 30
0.0
 11
2124.5184111126941
 21
637.13264800778586
 31
0.0
 12
2123.0184111126941
 22
637.38264800778586
 32
0.0
 13
2123.0184111126941
 23
637.38264800778586
 33
0.0
  0
SOLID
  5
244C5
  8
0
 10
2196.9184111126938
 20
637.63264800778586
 30
0.0
 11
2196.9184111126938
 21
637.13264800778586
 31
0.0
 12
2198.4184111126938
 22
637.38264800778586
 32
0.0
 13
2198.4184111126938
 23
637.38264800778586
 33
0.0
  0
INSERT
  5
244C6
  8
0
 62
     1
  2
*U81
 10
0.0
 20
0.0
 30
0.0
  0
POINT
  5
244C7
  8
DEFPOINTS
 62
     0
 10
2123.0184111126941
 20
625.49664793929855
 30
0.0
  0
POINT
  5
244C8
  8
DEFPOINTS
 62
     0
 10
2198.4184111126938
 20
625.49664793929855
 30
0.0
  0
POINT
  5
244C9
  8
DEFPOINTS
 62
     0
 10
2198.4184111126938
 20
637.38264800778586
 30
0.0
  0
ENDBLK
  5
493
  8
0
  0
BLOCK
  8
0
  2
*D2
 70
     1
 10
0.0
 20
0.0
 30
0.0
  3
*D2
  1

  0
LINE
  5
244D4
  8
0
 10
2116.1184111126931
 20
589.79664793929783
 30
0.0
 11
2116.1184111126931
 21
583.56253275840061
 31
0.0
  0
LINE
  5
244D5
  8
0
 10
2205.3184111126939
 20
589.19664793929917
 30
0.0
 11
2205.3184111126939
 21
583.56253275840061
 31
0.0
  0
LINE
  5
244D6
  8
0
 10
2117.6184111126931
 20
584.16253275840063
 30
0.0
 11
2203.8184111126939
 21
584.16253275840063
 31
0.0
  0
SOLID
  5
244D7
  8
0
 10
2117.6184111126931
 20
584.41253275840063
 30
0.0
 11
2117.6184111126931
 21
583.91253275840063
 31
0.0
 12
2116.1184111126931
 22
584.16253275840063
 32
0.0
 13
2116.1184111126931
 23
584.16253275840063
 33
0.0
  0
SOLID
  5
244D8
  8
0
 10
2203.8184111126939
 20
584.41253275840063
 30
0.0
 11
2203.8184111126939
 21
583.91253275840063
 31
0.0
 12
2205.3184111126939
 22
584.16253275840063
 32
0.0
 13
2205.3184111126939
 23
584.16253275840063
 33
0.0
  0
INSERT
  5
244D9
  8
0
 62
     1
  2
*U83
 10
0.0
 20
0.0
 30
0.0
  0
POINT
  5
244DA
  8
DEFPOINTS
 62
     0
 10
2116.1184111126931
 20
590.79664793929783
 30
0.0
  0
POINT
  5
244DB
  8
DEFPOINTS
 62
     0
 10
2205.3184111126939
 20
590.19664793929917
 30
0.0
  0
POINT
  5
244DC
  8
DEFPOINTS
 62
     0
 10
2205.3184111126939
 20
584.16253275840063
 30
0.0
  0
ENDBLK
  5
49F
  8
0
  0
BLOCK
  8
0
  2
*D3
 70
     1
 10
0.0
 20
0.0
 30
0.0
  3
*D3
  1

  0
LINE
  5
244CA
  8
0
 10
2159.718411112693
 20
629.19664793929735
 30
0.0
 11
2111.8590829368832
 21
629.19664793929735
 31
0.0
  0
LINE
  5
244CB
  8
0
 10
2159.738356841327
 20
589.89664793929808
 30
0.0
 11
2111.8590829368832
 21
589.89664793929808
 31
0.0
  0
LINE
  5
244CC
  8
0
 10
2112.4590829368831
 20
627.69664793929735
 30
0.0
 11
2112.4590829368831
 21
612.97570968175569
 31
0.0
  0
LINE
  5
244CD
  8
0
 10
2112.4590829368831
 20
591.39664793929808
 30
0.0
 11
2112.4590829368831
 21
610.33367578345064
 31
0.0
  0
SOLID
  5
244CE
  8
0
 10
2112.2090829368831
 20
627.69664793929735
 30
0.0
 11
2112.7090829368822
 21
627.69664793929735
 31
0.0
 12
2112.4590829368831
 22
629.19664793929735
 32
0.0
 13
2112.4590829368831
 23
629.19664793929735
 33
0.0
  0
SOLID
  5
244CF
  8
0
 10
2112.2090829368831
 20
591.39664793929808
 30
0.0
 11
2112.7090829368822
 21
591.39664793929808
 31
0.0
 12
2112.4590829368831
 22
589.89664793929808
 32
0.0
 13
2112.4590829368831
 23
589.89664793929808
 33
0.0
  0
INSERT
  5
244D0
  8
0
 62
     1
  2
*U82
 10
0.0
 20
0.0
 30
0.0
  0
POINT
  5
244D1
  8
DEFPOINTS
 62
     0
 10
2160.718411112694
 20
629.19664793929735
 30
0.0
  0
POINT
  5
244D2
  8
DEFPOINTS
 62
     0
 10
2160.738356841327
 20
589.89664793929808
 30
0.0
  0
POINT
  5
244D3
  8
DEFPOINTS
 62
     0
 10
2112.4590829368831
 20
589.89664793929808
 30
0.0
  0
ENDBLK
  5
4AB
  8
0
  0
BLOCK
  8
0
  2
*D4
 70
     1
 10
0.0
 20
0.0
 30
0.0
  3
*D4
  1

  0
LINE
  5
24584
  8
0
 10
2110.4529188382171
 20
637.92342532054249
 30
0.0
 11
2125.301546131253
 21
627.02391855418114
 31
0.0
  0
INSERT
  5
24585
  8
0
 62
     1
  2
*U100
 10
0.0
 20
0.0
 30
0.0
  0
SOLID
  5
24586
  8
0
 10
2125.449479823515
 20
627.22545173431206
 30
0.0
 11
2125.1536124389909
 21
626.82238537405033
 31
0.0
 12
2126.5107452120378
 22
626.13631640060805
 32
0.0
 13
2126.5107452120378
 23
626.13631640060805
 33
0.0
  0
POINT
  5
24587
  8
DEFPOINTS
 62
     0
 10
2126.5107452120378
 20
626.13631640060805
 30
0.0
  0
POINT
  5
24588
  8
DEFPOINTS
 62
     0
 10
2128.5260770133491
 20
624.65697947798549
 30
0.0
  0
ENDBLK
  5
4B4
  8
0
  0
BLOCK
  8
0
  2
*D5
 70
     1
 10
0.0
 20
0.0
 30
0.0
  3
*D5
  1

  0
LINE
  5
246C6
  8
0
 10
2305.447788657651
 20
624.54312386726974
 30
0.0
 11
2318.5484541688129
 21
624.54312386726974
 31
0.0
  0
LINE
  5
246C7
  8
0
 10
2305.4477886576519
 20
593.54312386726974
 30
0.0
 11
2318.5484541688129
 21
593.54312386726974
 31
0.0
  0
LINE
  5
246C8
  8
0
 10
2317.948454168813
 20
623.04312386726974
 30
0.0
 11
2317.948454168813
 21
610.29666122930576
 31
0.0
  0
LINE
  5
246C9
  8
0
 10
2317.948454168813
 20
595.04312386726974
 30
0.0
 11
2317.948454168813
 21
607.69666122930585
 31
0.0
  0
TEXT
  8
0
  40
2
  5
247B2
  72
0
  71
0
 10
2317.95
 20
606.397
 30
0.000000
  1
31
  0
SOLID
  5
246CB
  8
0
 10
2317.6984541688121
 20
623.04312386726974
 30
0.0
 11
2318.198454168813
 21
623.04312386726974
 31
0.0
 12
2317.948454168813
 22
624.54312386726974
 32
0.0
 13
2317.948454168813
 23
624.54312386726974
 33
0.0
  0
SOLID
  5
246CC
  8
0
 10
2317.6984541688121
 20
595.04312386726974
 30
0.0
 11
2318.198454168813
 21
595.04312386726974
 31
0.0
 12
2317.948454168813
 22
593.54312386726974
 32
0.0
 13
2317.948454168813
 23
593.54312386726974
 33
0.0
  0
POINT
  5
246CD
  8
DEFPOINTS
 62
     0
 10
2304.4477886576501
 20
624.54312386726974
 30
0.0
  0
POINT
  5
246CE
  8
DEFPOINTS
 62
     0
 10
2304.4477886576519
 20
593.54312386726974
 30
0.0
  0
POINT
  5
246CF
  8
DEFPOINTS
 62
     0
 10
2317.948454168813
 20
593.54312386726974
 30
0.0
  0
ENDBLK
  5
4C0
  8
0
  0
BLOCK
  8
0
  2
*D6
 70
     1
 10
0.0
 20
0.0
 30
0.0
  3
*D6
  1

  0
LINE
  5
246D0
  8
0
 10
2238.0477886576509
 20
625.54312386726974
 30
0.0
 11
2238.0477886576509
 21
641.74607653527835
 31
0.0
  0
LINE
  5
246D1
  8
0
 10
2304.4477886576501
 20
625.54312386726974
 30
0.0
 11
2304.4477886576501
 21
641.74607653527835
 31
0.0
  0
LINE
  5
246D2
  8
0
 10
2239.5477886576509
 20
641.14607653527833
 30
0.0
 11
2302.9477886576501
 21
641.14607653527833
 31
0.0
  0
TEXT
  8
0
  40
2
  5
247B3
  72
0
  71
0
 10
2271.62
 20
639.846
 30
0.000000
  1
66.4
  0
SOLID
  5
246D4
  8
0
 10
2239.5477886576509
 20
641.39607653527833
 30
0.0
 11
2239.5477886576509
 21
640.89607653527833
 31
0.0
 12
2238.0477886576509
 22
641.14607653527833
 32
0.0
 13
2238.0477886576509
 23
641.14607653527833
 33
0.0
  0
SOLID
  5
246D5
  8
0
 10
2302.9477886576501
 20
641.39607653527833
 30
0.0
 11
2302.9477886576501
 21
640.89607653527833
 31
0.0
 12
2304.4477886576501
 22
641.14607653527833
 32
0.0
 13
2304.4477886576501
 23
641.14607653527833
 33
0.0
  0
POINT
  5
246D6
  8
DEFPOINTS
 62
     0
 10
2238.0477886576509
 20
624.54312386726974
 30
0.0
  0
POINT
  5
246D7
  8
DEFPOINTS
 62
     0
 10
2304.4477886576501
 20
624.54312386726974
 30
0.0
  0
POINT
  5
246D8
  8
DEFPOINTS
 62
     0
 10
2304.4477886576501
 20
641.14607653527833
 30
0.0
  0
ENDBLK
  5
4CC
  8
0
  0
BLOCK
  8
0
  2
*D7
 70
     1
 10
0.0
 20
0.0
 30
0.0
  3
*D7
  1

  0
LINE
  5
246D9
  8
0
 10
2234.447788657651
 20
606.64312386726999
 30
0.0
 11
2234.447788657651
 21
574.60680867931035
 31
0.0
  0
LINE
  5
246DA
  8
0
 10
2308.0477886576532
 20
607.59312386726992
 30
0.0
 11
2308.0477886576532
 21
574.60680867931035
 31
0.0
  0
LINE
  5
246DB
  8
0
 10
2235.947788657651
 20
575.20680867931026
 30
0.0
 11
2306.5477886576532
 21
575.20680867931026
 31
0.0
  0
SOLID
  5
246DC
  8
0
 10
2235.947788657651
 20
575.45680867931037
 30
0.0
 11
2235.947788657651
 21
574.95680867931026
 31
0.0
 12
2234.447788657651
 22
575.20680867931026
 32
0.0
 13
2234.447788657651
 23
575.20680867931026
 33
0.0
  0
SOLID
  5
246DD
  8
0
 10
2306.5477886576532
 20
575.45680867931037
 30
0.0
 11
2306.5477886576532
 21
574.95680867931026
 31
0.0
 12
2308.0477886576532
 22
575.20680867931026
 32
0.0
 13
2308.0477886576532
 23
575.20680867931026
 33
0.0
  0
TEXT
  8
0
  40
2
  5
247B4
  72
0
  71
0
 10
2271.25
 20
573.907
 30
0.000000
  1
73.6
  0
POINT
  5
246DF
  8
DEFPOINTS
 62
     0
 10
2234.447788657651
 20
607.64312386727011
 30
0.0
  0
POINT
  5
246E0
  8
DEFPOINTS
 62
     0
 10
2308.0477886576532
 20
608.59312386726992
 30
0.0
  0
POINT
  5
246E1
  8
DEFPOINTS
 62
     0
 10
2308.0477886576532
 20
575.20680867931026
 30
0.0
  0
ENDBLK
  5
4D8
  8
0
  0
BLOCK
  8
0
  2
*D8
 70
     1
 10
0.0
 20
0.0
 30
0.0
  3
*D8
  1

  0
LINE
  5
246E2
  8
0
 10
2272.2477886576521
 20
628.34312386726992
 30
0.0
 11
2275.3477886576552
 21
628.34312386726992
 31
0.0
  0
LINE
  5
246E3
  8
0
 10
2272.267734386282
 20
589.04312386726974
 30
0.0
 11
2275.3477886576552
 21
589.04312386726974
 31
0.0
  0
LINE
  5
246E4
  8
0
 10
2274.7477886576562
 20
626.84312386726992
 30
0.0
 11
2274.7477886576562
 21
609.99312386726979
 31
0.0
  0
LINE
  5
246E5
  8
0
 10
2274.7477886576562
 20
590.54312386726974
 30
0.0
 11
2274.7477886576562
 21
607.39312386726988
 31
0.0
  0
SOLID
  5
246E6
  8
0
 10
2274.4977886576548
 20
626.84312386726992
 30
0.0
 11
2274.9977886576548
 21
626.84312386726992
 31
0.0
 12
2274.7477886576562
 22
628.34312386726992
 32
0.0
 13
2274.7477886576562
 23
628.34312386726992
 33
0.0
  0
SOLID
  5
246E7
  8
0
 10
2274.4977886576548
 20
590.54312386726974
 30
0.0
 11
2274.9977886576548
 21
590.54312386726974
 31
0.0
 12
2274.7477886576562
 22
589.04312386726974
 32
0.0
 13
2274.7477886576562
 23
589.04312386726974
 33
0.0
  0
TEXT
  8
0
  40
2
  5
247B5
  72
0
  71
0
 10
2274.75
 20
606.093
 30
0.000000
  1
39.3
  0
POINT
  5
246E9
  8
DEFPOINTS
 62
     0
 10
2271.2477886576521
 20
628.34312386726992
 30
0.0
  0
POINT
  5
246EA
  8
DEFPOINTS
 62
     0
 10
2271.2677343862811
 20
589.04312386726974
 30
0.0
  0
POINT
  5
246EB
  8
DEFPOINTS
 62
     0
 10
2274.7477886576562
 20
589.04312386726974
 30
0.0
  0
ENDBLK
  5
4E4
  8
0
  0
BLOCK
  8
0
 62
     1
  2
*D9
 70
     1
 10
0.0
 20
0.0
 30
0.0
  3
*D9
  1

  0
LINE
  5
2457E
  8
0
 10
2249.301890225569
 20
594.94808629400643
 30
0.0
 11
2242.5852527709471
 21
594.9480862940062
 31
0.0
  0
LINE
  5
2457F
  8
0
 10
2242.5852527709471
 20
594.9480862940062
 30
0.0
 11
2241.1523693667482
 21
594.50441394872109
 31
0.0
  0
INSERT
  5
24580
  8
0
 62
     1
  2
*U99
 10
0.0
 20
0.0
 30
0.0
  0
SOLID
  5
24581
  8
0
 10
2241.0784239758668
 20
594.74322784942092
 30
0.0
 11
2241.2263147576291
 21
594.26560004802116
 31
0.0
 12
2239.7194859625488
 22
594.06074160343576
 32
0.0
 13
2239.7194859625488
 23
594.06074160343576
 33
0.0
  0
POINT
  5
24582
  8
DEFPOINTS
 62
     0
 10
2239.7194859625488
 20
594.06074160343576
 30
0.0
  0
POINT
  5
24583
  8
DEFPOINTS
 62
     0
 10
2236.3760913527522
 20
593.02550613110361
 30
0.0
  0
ENDBLK
  5
EB3F
  8
0
 62
     1
  0
BLOCK
  8
0
 62
     1
  2
*D10
 70
     1
 10
0.0
 20
0.0
 30
0.0
  3
*D10
  1

  0
LINE
  5
24493
  8
0
 10
2184.0248223952672
 20
348.9978494152337
 30
0.0
 11
2184.0248223952672
 21
355.93988041939031
 31
0.0
  0
LINE
  5
24494
  8
0
 10
2264.4248223952659
 20
348.9978494152333
 30
0.0
 11
2264.4248223952659
 21
355.93988041939031
 31
0.0
  0
LINE
  5
24495
  8
0
 10
2185.5248223952672
 20
355.33988041939028
 30
0.0
 11
2262.9248223952659
 21
355.33988041939028
 31
0.0
  0
SOLID
  5
24496
  8
0
 10
2185.5248223952672
 20
355.58988041939028
 30
0.0
 11
2185.5248223952672
 21
355.08988041939028
 31
0.0
 12
2184.0248223952672
 22
355.33988041939028
 32
0.0
 13
2184.0248223952672
 23
355.33988041939028
 33
0.0
  0
SOLID
  5
24497
  8
0
 10
2262.9248223952659
 20
355.58988041939028
 30
0.0
 11
2262.9248223952659
 21
355.08988041939028
 31
0.0
 12
2264.4248223952659
 22
355.33988041939028
 32
0.0
 13
2264.4248223952659
 23
355.33988041939028
 33
0.0
  0
INSERT
  5
24498
  8
0
 62
     1
  2
*U78
 10
0.0
 20
0.0
 30
0.0
  0
POINT
  5
24499
  8
DEFPOINTS
 62
     0
 10
2184.0248223952672
 20
347.99784941523382
 30
0.0
  0
POINT
  5
2449A
  8
DEFPOINTS
 62
     0
 10
2264.4248223952659
 20
347.9978494152333
 30
0.0
  0
POINT
  5
2449B
  8
DEFPOINTS
 62
     0
 10
2264.4248223952659
 20
355.33988041939028
 30
0.0
  0
ENDBLK
  5
ED3B
  8
0
 62
     1
  0
BLOCK
  8
0
 62
     1
  2
*D11
 70
     1
 10
0.0
 20
0.0
 30
0.0
  3
*D11
  1

  0
LINE
  5
2447F
  8
0
 10
2302.2248223952679
 20
328.2478494152333
 30
0.0
 11
2312.1514827589781
 21
328.2478494152333
 31
0.0
  0
LINE
  5
24480
  8
0
 10
2302.2248223952679
 20
286.14784941523379
 30
0.0
 11
2312.1514827589781
 21
286.14784941523379
 31
0.0
  0
LINE
  5
24481
  8
0
 10
2311.5514827589782
 20
326.7478494152333
 30
0.0
 11
2311.5514827589782
 21
308.01568076833939
 31
0.0
  0
LINE
  5
24482
  8
0
 10
2311.5514827589782
 20
287.64784941523391
 30
0.0
 11
2311.5514827589782
 21
305.32890110732239
 31
0.0
  0
SOLID
  5
24483
  8
0
 10
2311.3014827589768
 20
326.7478494152333
 30
0.0
 11
2311.8014827589782
 21
326.7478494152333
 31
0.0
 12
2311.5514827589782
 22
328.2478494152333
 32
0.0
 13
2311.5514827589782
 23
328.2478494152333
 33
0.0
  0
SOLID
  5
24484
  8
0
 10
2311.3014827589768
 20
287.64784941523391
 30
0.0
 11
2311.8014827589782
 21
287.64784941523391
 31
0.0
 12
2311.5514827589782
 22
286.14784941523379
 32
0.0
 13
2311.5514827589782
 23
286.14784941523379
 33
0.0
  0
INSERT
  5
24485
  8
0
 62
     1
  2
*U76
 10
0.0
 20
0.0
 30
0.0
  0
POINT
  5
24486
  8
DEFPOINTS
 62
     0
 10
2301.224822395267
 20
328.2478494152333
 30
0.0
  0
POINT
  5
24487
  8
DEFPOINTS
 62
     0
 10
2301.224822395267
 20
286.14784941523379
 30
0.0
  0
POINT
  5
24488
  8
DEFPOINTS
 62
     0
 10
2311.5514827589782
 20
286.14784941523379
 30
0.0
  0
ENDBLK
  5
ED48
  8
0
 62
     1
  0
BLOCK
  8
0
 62
     1
  2
*D12
 70
     1
 10
0.0
 20
0.0
 30
0.0
  3
*D12
  1

  0
LINE
  5
2449C
  8
0
 10
2184.0248223952672
 20
306.89784941523288
 30
0.0
 11
2184.0248223952672
 21
319.28929314103573
 31
0.0
  0
LINE
  5
2449D
  8
0
 10
2264.4248223952659
 20
306.89784941523288
 30
0.0
 11
2264.4248223952659
 21
319.28929314103573
 31
0.0
  0
LINE
  5
2449E
  8
0
 10
2185.5248223952672
 20
318.68929314103571
 30
0.0
 11
2262.9248223952659
 21
318.68929314103571
 31
0.0
  0
SOLID
  5
2449F
  8
0
 10
2185.5248223952672
 20
318.93929314103571
 30
0.0
 11
2185.5248223952672
 21
318.43929314103571
 31
0.0
 12
2184.0248223952672
 22
318.68929314103571
 32
0.0
 13
2184.0248223952672
 23
318.68929314103571
 33
0.0
  0
SOLID
  5
244A0
  8
0
 10
2262.9248223952659
 20
318.93929314103571
 30
0.0
 11
2262.9248223952659
 21
318.43929314103571
 31
0.0
 12
2264.4248223952659
 22
318.68929314103571
 32
0.0
 13
2264.4248223952659
 23
318.68929314103571
 33
0.0
  0
INSERT
  5
244A1
  8
0
 62
     1
  2
*U79
 10
0.0
 20
0.0
 30
0.0
  0
POINT
  5
244A2
  8
DEFPOINTS
 62
     0
 10
2184.0248223952672
 20
305.89784941523288
 30
0.0
  0
POINT
  5
244A3
  8
DEFPOINTS
 62
     0
 10
2264.4248223952659
 20
305.89784941523288
 30
0.0
  0
POINT
  5
244A4
  8
DEFPOINTS
 62
     0
 10
2264.4248223952659
 20
318.68929314103571
 30
0.0
  0
ENDBLK
  5
ED55
  8
0
 62
     1
  0
BLOCK
  8
0
 62
     1
  2
*D13
 70
     1
 10
0.0
 20
0.0
 30
0.0
  3
*D13
  1

  0
LINE
  5
24489
  8
0
 10
2228.6248223952662
 20
327.29784941523349
 30
0.0
 11
2243.2760586329641
 21
327.29784941523349
 31
0.0
  0
LINE
  5
2448A
  8
0
 10
2228.6248223952662
 20
285.19784941523397
 30
0.0
 11
2243.2760586329641
 21
285.19784941523397
 31
0.0
  0
LINE
  5
2448B
  8
0
 10
2242.6760586329642
 20
325.79784941523349
 30
0.0
 11
2242.6760586329642
 21
301.22214427607707
 31
0.0
  0
LINE
  5
2448C
  8
0
 10
2242.6760586329642
 20
286.69784941523397
 30
0.0
 11
2242.6760586329642
 21
298.53536461506008
 31
0.0
  0
SOLID
  5
2448D
  8
0
 10
2242.4260586329642
 20
325.79784941523349
 30
0.0
 11
2242.9260586329642
 21
325.79784941523349
 31
0.0
 12
2242.6760586329642
 22
327.29784941523349
 32
0.0
 13
2242.6760586329642
 23
327.29784941523349
 33
0.0
  0
SOLID
  5
2448E
  8
0
 10
2242.4260586329642
 20
286.69784941523397
 30
0.0
 11
2242.9260586329642
 21
286.69784941523397
 31
0.0
 12
2242.6760586329642
 22
285.19784941523397
 32
0.0
 13
2242.6760586329642
 23
285.19784941523397
 33
0.0
  0
INSERT
  5
2448F
  8
0
 62
     1
  2
*U77
 10
0.0
 20
0.0
 30
0.0
  0
POINT
  5
24490
  8
DEFPOINTS
 62
     0
 10
2227.6248223952648
 20
327.29784941523349
 30
0.0
  0
POINT
  5
24491
  8
DEFPOINTS
 62
     0
 10
2227.6248223952648
 20
285.19784941523397
 30
0.0
  0
POINT
  5
24492
  8
DEFPOINTS
 62
     0
 10
2242.6760586329642
 20
285.19784941523397
 30
0.0
  0
ENDBLK
  5
ED62
  8
0
 62
     1
  0
BLOCK
  8
0
 62
     1
  2
*D14
 70
     1
 10
0.0
 20
0.0
 30
0.0
  3
*D14
  1

  0
LINE
  5
244B8
  8
0
 10
2127.5184111126928
 20
626.39664793929819
 30
0.0
 11
2127.5184111126928
 21
632.6520369444803
 31
0.0
  0
LINE
  5
244B9
  8
0
 10
2193.9184111126938
 20
626.39664793929819
 30
0.0
 11
2193.9184111126938
 21
632.6520369444803
 31
0.0
  0
LINE
  5
244BA
  8
0
 10
2129.0184111126928
 20
632.05203694448016
 30
0.0
 11
2192.4184111126938
 21
632.05203694448016
 31
0.0
  0
SOLID
  5
244BB
  8
0
 10
2129.0184111126928
 20
632.30203694448028
 30
0.0
 11
2129.0184111126928
 21
631.80203694448016
 31
0.0
 12
2127.5184111126928
 22
632.05203694448016
 32
0.0
 13
2127.5184111126928
 23
632.05203694448016
 33
0.0
  0
SOLID
  5
244BC
  8
0
 10
2192.4184111126938
 20
632.30203694448028
 30
0.0
 11
2192.4184111126938
 21
631.80203694448016
 31
0.0
 12
2193.9184111126938
 22
632.05203694448016
 32
0.0
 13
2193.9184111126938
 23
632.05203694448016
 33
0.0
  0
INSERT
  5
244BD
  8
0
 62
     1
  2
*U80
 10
0.0
 20
0.0
 30
0.0
  0
POINT
  5
244BE
  8
DEFPOINTS
 62
     0
 10
2127.5184111126928
 20
625.39664793929819
 30
0.0
  0
POINT
  5
244BF
  8
DEFPOINTS
 62
     0
 10
2193.9184111126938
 20
625.39664793929819
 30
0.0
  0
POINT
  5
244C0
  8
DEFPOINTS
 62
     0
 10
2193.9184111126938
 20
632.05203694448016
 30
0.0
  0
ENDBLK
  5
2413A
  8
0
 62
     1
  0
BLOCK
  8
0
 62
     1
  2
*D15
 70
     1
 10
0.0
 20
0.0
 30
0.0
  3
*D15
  1

  0
LINE
  5
244DD
  8
0
 10
2126.5184111126928
 20
594.39664793929808
 30
0.0
 11
2117.7014940343561
 21
594.39664793929808
 31
0.0
  0
LINE
  5
244DE
  8
0
 10
2126.5184111126928
 20
625.39664793929819
 30
0.0
 11
2117.7014940343561
 21
625.39664793929819
 31
0.0
  0
LINE
  5
244DF
  8
0
 10
2118.3014940343569
 20
595.89664793929819
 30
0.0
 11
2118.3014940343569
 21
610.18814184637927
 31
0.0
  0
LINE
  5
244E0
  8
0
 10
2118.3014940343569
 20
623.89664793929808
 30
0.0
 11
2118.3014940343569
 21
612.83017574468431
 31
0.0
  0
SOLID
  5
244E1
  8
0
 10
2118.051494034356
 20
595.89664793929819
 30
0.0
 11
2118.5514940343569
 21
595.89664793929819
 31
0.0
 12
2118.3014940343569
 22
594.39664793929808
 32
0.0
 13
2118.3014940343569
 23
594.39664793929808
 33
0.0
  0
SOLID
  5
244E2
  8
0
 10
2118.051494034356
 20
623.89664793929808
 30
0.0
 11
2118.5514940343569
 21
623.89664793929808
 31
0.0
 12
2118.3014940343569
 22
625.39664793929819
 32
0.0
 13
2118.3014940343569
 23
625.39664793929819
 33
0.0
  0
INSERT
  5
244E3
  8
0
 62
     1
  2
*U84
 10
0.0
 20
0.0
 30
0.0
  0
POINT
  5
244E4
  8
DEFPOINTS
 62
     0
 10
2127.5184111126928
 20
594.39664793929808
 30
0.0
  0
POINT
  5
244E5
  8
DEFPOINTS
 62
     0
 10
2127.5184111126928
 20
625.39664793929819
 30
0.0
  0
POINT
  5
244E6
  8
DEFPOINTS
 62
     0
 10
2118.3014940343569
 20
625.39664793929819
 30
0.0
  0
ENDBLK
  5
2417B
  8
0
 62
     1
  0
BLOCK
  8
0
 62
     1
  2
*D16
 70
     1
 10
0.0
 20
0.0
 30
0.0
  3
*D16
  1

  0
LINE
  5
244E7
  8
0
 10
2140.8600542427739
 20
592.39664793929819
 30
0.0
 11
2137.605005435069
 21
592.39664793929819
 31
0.0
  0
LINE
  5
244E8
  8
0
 10
2140.4429818090912
 20
590.59664793929699
 30
0.0
 11
2137.605005435069
 21
590.59664793929699
 31
0.0
  0
LINE
  5
244E9
  8
0
 10
2138.205005435068
 20
589.0966479392971
 30
0.0
 11
2138.205005435068
 21
587.59664793929699
 31
0.0
  0
LINE
  5
244EA
  8
0
 10
2138.205005435068
 20
593.89664793929808
 30
0.0
 11
2138.205005435068
 21
599.75434209402886
 31
0.0
  0
LINE
  5
244EB
  8
0
 10
2138.205005435068
 20
599.75434209402886
 30
0.0
 11
2141.8785647571021
 21
599.75434209402886
 31
0.0
  0
SOLID
  5
244EC
  8
0
 10
2137.9550054350689
 20
589.0966479392971
 30
0.0
 11
2138.455005435068
 21
589.0966479392971
 31
0.0
 12
2138.205005435068
 22
590.59664793929699
 32
0.0
 13
2138.205005435068
 23
590.59664793929699
 33
0.0
  0
SOLID
  5
244ED
  8
0
 10
2137.9550054350689
 20
593.89664793929808
 30
0.0
 11
2138.455005435068
 21
593.89664793929808
 31
0.0
 12
2138.205005435068
 22
592.39664793929819
 32
0.0
 13
2138.205005435068
 23
592.39664793929819
 33
0.0
  0
INSERT
  5
244EE
  8
0
 62
     1
  2
*U85
 10
0.0
 20
0.0
 30
0.0
  0
POINT
  5
244EF
  8
DEFPOINTS
 62
     0
 10
2141.8600542427739
 20
592.39664793929819
 30
0.0
  0
POINT
  5
244F0
  8
DEFPOINTS
 62
     0
 10
2141.4429818090898
 20
590.59664793929699
 30
0.0
  0
POINT
  5
244F1
  8
DEFPOINTS
 62
     0
 10
2138.205005435068
 20
590.59664793929699
 30
0.0
  0
ENDBLK
  5
241B3
  8
0
 62
     1
  0
BLOCK
  8
0
 62
     1
  2
*D17
 70
     1
 10
0.0
 20
0.0
 30
0.0
  3
*D17
  1

  0
LINE
  5
244F2
  8
0
 10
2125.718411112694
 20
614.48416290772184
 30
0.0
 11
2125.718411112694
 21
605.17330089787754
 31
0.0
  0
LINE
  5
244F3
  8
0
 10
2195.7184111126949
 20
612.37819921873768
 30
0.0
 11
2195.7184111126949
 21
605.17330089787754
 31
0.0
  0
LINE
  5
244F4
  8
0
 10
2127.218411112694
 20
605.77330089787745
 30
0.0
 11
2194.2184111126949
 21
605.77330089787745
 31
0.0
  0
SOLID
  5
244F5
  8
0
 10
2127.218411112694
 20
606.02330089787756
 30
0.0
 11
2127.218411112694
 21
605.52330089787745
 31
0.0
 12
2125.718411112694
 22
605.77330089787745
 32
0.0
 13
2125.718411112694
 23
605.77330089787745
 33
0.0
  0
SOLID
  5
244F6
  8
0
 10
2194.2184111126949
 20
606.02330089787756
 30
0.0
 11
2194.2184111126949
 21
605.52330089787745
 31
0.0
 12
2195.7184111126949
 22
605.77330089787745
 32
0.0
 13
2195.7184111126949
 23
605.77330089787745
 33
0.0
  0
INSERT
  5
244F7
  8
0
 62
     1
  2
*U86
 10
0.0
 20
0.0
 30
0.0
  0
POINT
  5
244F8
  8
DEFPOINTS
 62
     0
 10
2125.718411112694
 20
615.48416290772184
 30
0.0
  0
POINT
  5
244F9
  8
DEFPOINTS
 62
     0
 10
2195.7184111126949
 20
613.37819921873779
 30
0.0
  0
POINT
  5
244FA
  8
DEFPOINTS
 62
     0
 10
2195.7184111126949
 20
605.77330089787745
 30
0.0
  0
ENDBLK
  5
241CC
  8
0
 62
     1
  0
BLOCK
  8
0
 62
     1
  2
*D18
 70
     1
 10
0.0
 20
0.0
 30
0.0
  3
*D18
  1

  0
LINE
  5
244FB
  8
0
 10
2159.5184111126928
 20
592.39664793929819
 30
0.0
 11
2157.884069806993
 21
592.39664793929819
 31
0.0
  0
LINE
  5
244FC
  8
0
 10
2159.5184111126928
 20
627.39664793929728
 30
0.0
 11
2157.884069806993
 21
627.39664793929728
 31
0.0
  0
LINE
  5
244FD
  8
0
 10
2158.4840698069929
 20
593.89664793929808
 30
0.0
 11
2158.4840698069929
 21
611.58918274025496
 31
0.0
  0
LINE
  5
244FE
  8
0
 10
2158.4840698069929
 20
625.89664793929728
 30
0.0
 11
2158.4840698069929
 21
614.23121663855989
 31
0.0
  0
SOLID
  5
244FF
  8
0
 10
2158.2340698069929
 20
593.89664793929808
 30
0.0
 11
2158.7340698069929
 21
593.89664793929808
 31
0.0
 12
2158.4840698069929
 22
592.39664793929819
 32
0.0
 13
2158.4840698069929
 23
592.39664793929819
 33
0.0
  0
SOLID
  5
24500
  8
0
 10
2158.2340698069929
 20
625.89664793929728
 30
0.0
 11
2158.7340698069929
 21
625.89664793929728
 31
0.0
 12
2158.4840698069929
 22
627.39664793929728
 32
0.0
 13
2158.4840698069929
 23
627.39664793929728
 33
0.0
  0
INSERT
  5
24501
  8
0
 62
     1
  2
*U87
 10
0.0
 20
0.0
 30
0.0
  0
POINT
  5
24502
  8
DEFPOINTS
 62
     0
 10
2160.5184111126928
 20
592.39664793929819
 30
0.0
  0
POINT
  5
24503
  8
DEFPOINTS
 62
     0
 10
2160.5184111126928
 20
627.39664793929728
 30
0.0
  0
POINT
  5
24504
  8
DEFPOINTS
 62
     0
 10
2158.4840698069929
 20
627.39664793929728
 30
0.0
  0
ENDBLK
  5
241E4
  8
0
 62
     1
  0
BLOCK
  8
0
 62
     1
  2
*D19
 70
     1
 10
0.0
 20
0.0
 30
0.0
  3
*D19
  1

  0
LINE
  5
24505
  8
0
 10
2194.718411112694
 20
620.59664793929699
 30
0.0
 11
2186.6078707975139
 21
620.59664793929699
 31
0.0
  0
LINE
  5
24506
  8
0
 10
2194.718411112694
 20
622.5966479392971
 30
0.0
 11
2186.6078707975139
 21
622.5966479392971
 31
0.0
  0
LINE
  5
24507
  8
0
 10
2187.2078707975129
 20
624.09664793929699
 30
0.0
 11
2187.2078707975129
 21
625.5966479392971
 31
0.0
  0
LINE
  5
24508
  8
0
 10
2187.2078707975129
 20
619.0966479392971
 30
0.0
 11
2187.2078707975129
 21
616.6299812726304
 31
0.0
  0
LINE
  5
24509
  8
0
 10
2187.2078707975129
 20
616.6299812726304
 30
0.0
 11
2185.5302436788688
 21
616.6299812726304
 31
0.0
  0
SOLID
  5
2450A
  8
0
 10
2186.9578707975129
 20
624.09664793929699
 30
0.0
 11
2187.4578707975129
 21
624.09664793929699
 31
0.0
 12
2187.2078707975129
 22
622.5966479392971
 32
0.0
 13
2187.2078707975129
 23
622.5966479392971
 33
0.0
  0
SOLID
  5
2450B
  8
0
 10
2186.9578707975129
 20
619.0966479392971
 30
0.0
 11
2187.4578707975129
 21
619.0966479392971
 31
0.0
 12
2187.2078707975129
 22
620.59664793929699
 32
0.0
 13
2187.2078707975129
 23
620.59664793929699
 33
0.0
  0
INSERT
  5
2450C
  8
0
 62
     1
  2
*U88
 10
0.0
 20
0.0
 30
0.0
  0
POINT
  5
2450D
  8
DEFPOINTS
 62
     0
 10
2195.7184111126949
 20
620.59664793929699
 30
0.0
  0
POINT
  5
2450E
  8
DEFPOINTS
 62
     0
 10
2195.7184111126949
 20
622.5966479392971
 30
0.0
  0
POINT
  5
2450F
  8
DEFPOINTS
 62
     0
 10
2187.2078707975129
 20
622.5966479392971
 30
0.0
  0
ENDBLK
  5
241FD
  8
0
 62
     1
  0
BLOCK
  8
0
 62
     1
  2
*D20
 70
     1
 10
0.0
 20
0.0
 30
0.0
  3
*D20
  1

  0
LINE
  5
24510
  8
0
 10
2199.9171855610148
 20
591.89664793929705
 30
0.0
 11
2199.8925766638531
 21
591.89664793929705
 31
0.0
  0
LINE
  5
24511
  8
0
 10
2196.718411112694
 20
597.19589737828369
 30
0.0
 11
2201.0925766638529
 21
597.19589737828369
 31
0.0
  0
LINE
  5
24512
  8
0
 10
2200.492576663853
 20
593.39664793929705
 30
0.0
 11
2200.492576663853
 21
595.69589737828358
 31
0.0
  0
LINE
  5
24513
  8
0
 10
2200.492576663853
 20
597.19589737828369
 30
0.0
 11
2200.492576663853
 21
600.99589737828364
 31
0.0
  0
LINE
  5
24514
  8
0
 10
2200.492576663853
 20
600.99589737828364
 30
0.0
 11
2204.8373224265638
 21
600.99589737828364
 31
0.0
  0
SOLID
  5
24515
  8
0
 10
2200.242576663853
 20
593.39664793929705
 30
0.0
 11
2200.742576663853
 21
593.39664793929705
 31
0.0
 12
2200.492576663853
 22
591.89664793929705
 32
0.0
 13
2200.492576663853
 23
591.89664793929705
 33
0.0
  0
SOLID
  5
24516
  8
0
 10
2200.242576663853
 20
595.69589737828358
 30
0.0
 11
2200.742576663853
 21
595.69589737828358
 31
0.0
 12
2200.492576663853
 22
597.19589737828369
 32
0.0
 13
2200.492576663853
 23
597.19589737828369
 33
0.0
  0
INSERT
  5
24517
  8
0
 62
     1
  2
*U89
 10
0.0
 20
0.0
 30
0.0
  0
POINT
  5
24518
  8
DEFPOINTS
 62
     0
 10
2200.9171855610148
 20
591.89664793929705
 30
0.0
  0
POINT
  5
24519
  8
DEFPOINTS
 62
     0
 10
2195.7184111126949
 20
597.19589737828369
 30
0.0
  0
POINT
  5
2451A
  8
DEFPOINTS
 62
     0
 10
2200.492576663853
 20
597.19589737828369
 30
0.0
  0
ENDBLK
  5
24217
  8
0
 62
     1
  0
BLOCK
  8
0
 62
     1
  2
*D21
 70
     1
 10
0.0
 20
0.0
 30
0.0
  3
*D21
  1

  0
LINE
  5
24562
  8
0
 10
2123.0184111126941
 20
744.03063883616733
 30
0.0
 11
2123.0184111126941
 21
755.51663890465466
 31
0.0
  0
LINE
  5
24563
  8
0
 10
2198.4184111126938
 20
744.03063883616733
 30
0.0
 11
2198.4184111126938
 21
755.51663890465466
 31
0.0
  0
LINE
  5
24564
  8
0
 10
2124.5184111126941
 20
754.91663890465475
 30
0.0
 11
2196.9184111126938
 21
754.91663890465475
 31
0.0
  0
SOLID
  5
24565
  8
0
 10
2124.5184111126941
 20
755.16663890465475
 30
0.0
 11
2124.5184111126941
 21
754.66663890465475
 31
0.0
 12
2123.0184111126941
 22
754.91663890465475
 32
0.0
 13
2123.0184111126941
 23
754.91663890465475
 33
0.0
  0
SOLID
  5
24566
  8
0
 10
2196.9184111126938
 20
755.16663890465475
 30
0.0
 11
2196.9184111126938
 21
754.66663890465475
 31
0.0
 12
2198.4184111126938
 22
754.91663890465475
 32
0.0
 13
2198.4184111126938
 23
754.91663890465475
 33
0.0
  0
INSERT
  5
24567
  8
0
 62
     1
  2
*U96
 10
0.0
 20
0.0
 30
0.0
  0
POINT
  5
24568
  8
DEFPOINTS
 62
     0
 10
2123.0184111126941
 20
743.03063883616733
 30
0.0
  0
POINT
  5
24569
  8
DEFPOINTS
 62
     0
 10
2198.4184111126938
 20
743.03063883616733
 30
0.0
  0
POINT
  5
2456A
  8
DEFPOINTS
 62
     0
 10
2198.4184111126938
 20
754.91663890465475
 30
0.0
  0
ENDBLK
  5
243D4
  8
0
 62
     1
  0
BLOCK
  8
0
 62
     1
  2
*D22
 70
     1
 10
0.0
 20
0.0
 30
0.0
  3
*D22
  1

  0
LINE
  5
2456B
  8
0
 10
2116.1184111126931
 20
707.3306388361666
 30
0.0
 11
2116.1184111126931
 21
701.09652365526927
 31
0.0
  0
LINE
  5
2456C
  8
0
 10
2205.3184111126939
 20
706.73063883616805
 30
0.0
 11
2205.3184111126939
 21
701.09652365526927
 31
0.0
  0
LINE
  5
2456D
  8
0
 10
2117.6184111126931
 20
701.69652365526929
 30
0.0
 11
2203.8184111126939
 21
701.69652365526929
 31
0.0
  0
SOLID
  5
2456E
  8
0
 10
2117.6184111126931
 20
701.9465236552694
 30
0.0
 11
2117.6184111126931
 21
701.4465236552694
 31
0.0
 12
2116.1184111126931
 22
701.69652365526929
 32
0.0
 13
2116.1184111126931
 23
701.69652365526929
 33
0.0
  0
SOLID
  5
2456F
  8
0
 10
2203.8184111126939
 20
701.9465236552694
 30
0.0
 11
2203.8184111126939
 21
701.4465236552694
 31
0.0
 12
2205.3184111126939
 22
701.69652365526929
 32
0.0
 13
2205.3184111126939
 23
701.69652365526929
 33
0.0
  0
INSERT
  5
24570
  8
0
 62
     1
  2
*U97
 10
0.0
 20
0.0
 30
0.0
  0
POINT
  5
24571
  8
DEFPOINTS
 62
     0
 10
2116.1184111126931
 20
708.33063883616649
 30
0.0
  0
POINT
  5
24572
  8
DEFPOINTS
 62
     0
 10
2205.3184111126939
 20
707.73063883616805
 30
0.0
  0
POINT
  5
24573
  8
DEFPOINTS
 62
     0
 10
2205.3184111126939
 20
701.69652365526929
 30
0.0
  0
ENDBLK
  5
243E0
  8
0
 62
     1
  0
BLOCK
  8
0
 62
     1
  2
*D23
 70
     1
 10
0.0
 20
0.0
 30
0.0
  3
*D23
  1

  0
LINE
  5
24574
  8
0
 10
2159.718411112693
 20
746.73063883616624
 30
0.0
 11
2111.8590829368832
 21
746.73063883616624
 31
0.0
  0
LINE
  5
24575
  8
0
 10
2159.738356841327
 20
707.43063883616685
 30
0.0
 11
2111.8590829368832
 21
707.43063883616685
 31
0.0
  0
LINE
  5
24576
  8
0
 10
2112.4590829368831
 20
745.23063883616624
 30
0.0
 11
2112.4590829368831
 21
730.50970057862435
 31
0.0
  0
LINE
  5
24577
  8
0
 10
2112.4590829368831
 20
708.93063883616685
 30
0.0
 11
2112.4590829368831
 21
727.8676666803193
 31
0.0
  0
SOLID
  5
24578
  8
0
 10
2112.2090829368831
 20
745.23063883616624
 30
0.0
 11
2112.7090829368822
 21
745.23063883616624
 31
0.0
 12
2112.4590829368831
 22
746.73063883616624
 32
0.0
 13
2112.4590829368831
 23
746.73063883616624
 33
0.0
  0
SOLID
  5
24579
  8
0
 10
2112.2090829368831
 20
708.93063883616685
 30
0.0
 11
2112.7090829368822
 21
708.93063883616685
 31
0.0
 12
2112.4590829368831
 22
707.43063883616685
 32
0.0
 13
2112.4590829368831
 23
707.43063883616685
 33
0.0
  0
INSERT
  5
2457A
  8
0
 62
     1
  2
*U98
 10
0.0
 20
0.0
 30
0.0
  0
POINT
  5
2457B
  8
DEFPOINTS
 62
     0
 10
2160.718411112694
 20
746.73063883616624
 30
0.0
  0
POINT
  5
2457C
  8
DEFPOINTS
 62
     0
 10
2160.738356841327
 20
707.43063883616685
 30
0.0
  0
POINT
  5
2457D
  8
DEFPOINTS
 62
     0
 10
2112.4590829368831
 20
707.43063883616685
 30
0.0
  0
ENDBLK
  5
243EC
  8
0
 62
     1
  0
BLOCK
  8
0
 62
     1
  2
*D25
 70
     1
 10
0.0
 20
0.0
 30
0.0
  3
*D25
  1

  0
LINE
  5
2451B
  8
0
 10
2127.5184111126928
 20
743.93063883616696
 30
0.0
 11
2127.5184111126928
 21
750.18602784134907
 31
0.0
  0
LINE
  5
2451C
  8
0
 10
2193.9184111126938
 20
743.93063883616696
 30
0.0
 11
2193.9184111126938
 21
750.18602784134907
 31
0.0
  0
LINE
  5
2451D
  8
0
 10
2129.0184111126928
 20
749.58602784134905
 30
0.0
 11
2192.4184111126938
 21
749.58602784134905
 31
0.0
  0
SOLID
  5
2451E
  8
0
 10
2129.0184111126928
 20
749.83602784134905
 30
0.0
 11
2129.0184111126928
 21
749.33602784134905
 31
0.0
 12
2127.5184111126928
 22
749.58602784134905
 32
0.0
 13
2127.5184111126928
 23
749.58602784134905
 33
0.0
  0
SOLID
  5
2451F
  8
0
 10
2192.4184111126938
 20
749.83602784134905
 30
0.0
 11
2192.4184111126938
 21
749.33602784134905
 31
0.0
 12
2193.9184111126938
 22
749.58602784134905
 32
0.0
 13
2193.9184111126938
 23
749.58602784134905
 33
0.0
  0
INSERT
  5
24520
  8
0
 62
     1
  2
*U90
 10
0.0
 20
0.0
 30
0.0
  0
POINT
  5
24521
  8
DEFPOINTS
 62
     0
 10
2127.5184111126928
 20
742.93063883616685
 30
0.0
  0
POINT
  5
24522
  8
DEFPOINTS
 62
     0
 10
2193.9184111126938
 20
742.93063883616685
 30
0.0
  0
POINT
  5
24523
  8
DEFPOINTS
 62
     0
 10
2193.9184111126938
 20
749.58602784134905
 30
0.0
  0
ENDBLK
  5
24400
  8
0
 62
     1
  0
BLOCK
  8
0
 62
     1
  2
*D26
 70
     1
 10
0.0
 20
0.0
 30
0.0
  3
*D26
  1

  0
LINE
  5
24524
  8
0
 10
2126.5184111126928
 20
711.93063883616685
 30
0.0
 11
2117.7014940343561
 21
711.93063883616685
 31
0.0
  0
LINE
  5
24525
  8
0
 10
2126.5184111126928
 20
742.93063883616685
 30
0.0
 11
2117.7014940343561
 21
742.93063883616685
 31
0.0
  0
LINE
  5
24526
  8
0
 10
2118.3014940343569
 20
713.43063883616685
 30
0.0
 11
2118.3014940343569
 21
727.72213274324804
 31
0.0
  0
LINE
  5
24527
  8
0
 10
2118.3014940343569
 20
741.43063883616685
 30
0.0
 11
2118.3014940343569
 21
730.36416664155297
 31
0.0
  0
SOLID
  5
24528
  8
0
 10
2118.051494034356
 20
713.43063883616685
 30
0.0
 11
2118.5514940343569
 21
713.43063883616685
 31
0.0
 12
2118.3014940343569
 22
711.93063883616685
 32
0.0
 13
2118.3014940343569
 23
711.93063883616685
 33
0.0
  0
SOLID
  5
24529
  8
0
 10
2118.051494034356
 20
741.43063883616685
 30
0.0
 11
2118.5514940343569
 21
741.43063883616685
 31
0.0
 12
2118.3014940343569
 22
742.93063883616685
 32
0.0
 13
2118.3014940343569
 23
742.93063883616685
 33
0.0
  0
INSERT
  5
2452A
  8
0
 62
     1
  2
*U91
 10
0.0
 20
0.0
 30
0.0
  0
POINT
  5
2452B
  8
DEFPOINTS
 62
     0
 10
2127.5184111126928
 20
711.93063883616685
 30
0.0
  0
POINT
  5
2452C
  8
DEFPOINTS
 62
     0
 10
2127.5184111126928
 20
742.93063883616685
 30
0.0
  0
POINT
  5
2452D
  8
DEFPOINTS
 62
     0
 10
2118.3014940343569
 20
742.93063883616685
 30
0.0
  0
ENDBLK
  5
2440C
  8
0
 62
     1
  0
BLOCK
  8
0
 62
     1
  2
*D28
 70
     1
 10
0.0
 20
0.0
 30
0.0
  3
*D28
  1

  0
LINE
  5
24604
  8
0
 10
2125.718411112694
 20
732.01815380459061
 30
0.0
 11
2125.718411112694
 21
724.6416372999937
 31
0.0
  0
LINE
  5
24605
  8
0
 10
2195.7184111126949
 20
729.91219011560645
 30
0.0
 11
2195.7184111126949
 21
724.6416372999937
 31
0.0
  0
LINE
  5
24606
  8
0
 10
2127.218411112694
 20
725.24163729999373
 30
0.0
 11
2194.2184111126949
 21
725.24163729999373
 31
0.0
  0
SOLID
  5
24607
  8
0
 10
2127.218411112694
 20
725.49163729999373
 30
0.0
 11
2127.218411112694
 21
724.99163729999373
 31
0.0
 12
2125.718411112694
 22
725.24163729999373
 32
0.0
 13
2125.718411112694
 23
725.24163729999373
 33
0.0
  0
SOLID
  5
24608
  8
0
 10
2194.2184111126949
 20
725.49163729999373
 30
0.0
 11
2194.2184111126949
 21
724.99163729999373
 31
0.0
 12
2195.7184111126949
 22
725.24163729999373
 32
0.0
 13
2195.7184111126949
 23
725.24163729999373
 33
0.0
  0
INSERT
  5
24609
  8
0
 62
     1
  2
*U106
 10
0.0
 20
0.0
 30
0.0
  0
POINT
  5
2460A
  8
DEFPOINTS
 62
     0
 10
2125.718411112694
 20
733.01815380459061
 30
0.0
  0
POINT
  5
2460B
  8
DEFPOINTS
 62
     0
 10
2195.7184111126949
 20
730.91219011560645
 30
0.0
  0
POINT
  5
2460C
  8
DEFPOINTS
 62
     0
 10
2195.7184111126949
 20
725.24163729999373
 30
0.0
  0
ENDBLK
  5
24425
  8
0
 62
     1
  0
BLOCK
  8
0
 62
     1
  2
*D29
 70
     1
 10
0.0
 20
0.0
 30
0.0
  3
*D29
  1

  0
LINE
  5
24542
  8
0
 10
2159.5184111126928
 20
709.93063883616685
 30
0.0
 11
2157.884069806993
 21
709.93063883616685
 31
0.0
  0
LINE
  5
24543
  8
0
 10
2159.5184111126928
 20
744.93063883616605
 30
0.0
 11
2157.884069806993
 21
744.93063883616605
 31
0.0
  0
LINE
  5
24544
  8
0
 10
2158.4840698069929
 20
711.43063883616685
 30
0.0
 11
2158.4840698069929
 21
729.12317363712373
 31
0.0
  0
LINE
  5
24545
  8
0
 10
2158.4840698069929
 20
743.43063883616605
 30
0.0
 11
2158.4840698069929
 21
731.76520753542866
 31
0.0
  0
SOLID
  5
24546
  8
0
 10
2158.2340698069929
 20
711.43063883616685
 30
0.0
 11
2158.7340698069929
 21
711.43063883616685
 31
0.0
 12
2158.4840698069929
 22
709.93063883616685
 32
0.0
 13
2158.4840698069929
 23
709.93063883616685
 33
0.0
  0
SOLID
  5
24547
  8
0
 10
2158.2340698069929
 20
743.43063883616605
 30
0.0
 11
2158.7340698069929
 21
743.43063883616605
 31
0.0
 12
2158.4840698069929
 22
744.93063883616605
 32
0.0
 13
2158.4840698069929
 23
744.93063883616605
 33
0.0
  0
INSERT
  5
24548
  8
0
 62
     1
  2
*U93
 10
0.0
 20
0.0
 30
0.0
  0
POINT
  5
24549
  8
DEFPOINTS
 62
     0
 10
2160.5184111126928
 20
709.93063883616685
 30
0.0
  0
POINT
  5
2454A
  8
DEFPOINTS
 62
     0
 10
2160.5184111126928
 20
744.93063883616605
 30
0.0
  0
POINT
  5
2454B
  8
DEFPOINTS
 62
     0
 10
2158.4840698069929
 20
744.93063883616605
 30
0.0
  0
ENDBLK
  5
24431
  8
0
 62
     1
  0
BLOCK
  8
0
 62
     1
  2
*D31
 70
     1
 10
0.0
 20
0.0
 30
0.0
  3
*D31
  1

  0
LINE
  5
24557
  8
0
 10
2199.9171855610148
 20
709.43063883616583
 30
0.0
 11
2199.8925766638531
 21
709.43063883616583
 31
0.0
  0
LINE
  5
24558
  8
0
 10
2196.718411112694
 20
714.72988827515235
 30
0.0
 11
2201.0925766638529
 21
714.72988827515235
 31
0.0
  0
LINE
  5
24559
  8
0
 10
2200.492576663853
 20
710.93063883616583
 30
0.0
 11
2200.492576663853
 21
713.22988827515235
 31
0.0
  0
LINE
  5
2455A
  8
0
 10
2200.492576663853
 20
714.72988827515235
 30
0.0
 11
2200.492576663853
 21
718.55226115650828
 31
0.0
  0
LINE
  5
2455B
  8
0
 10
2200.492576663853
 20
718.55226115650828
 30
0.0
 11
2204.8373224265638
 21
718.55226115650828
 31
0.0
  0
SOLID
  5
2455C
  8
0
 10
2200.242576663853
 20
710.93063883616583
 30
0.0
 11
2200.742576663853
 21
710.93063883616583
 31
0.0
 12
2200.492576663853
 22
709.43063883616583
 32
0.0
 13
2200.492576663853
 23
709.43063883616583
 33
0.0
  0
SOLID
  5
2455D
  8
0
 10
2200.242576663853
 20
713.22988827515235
 30
0.0
 11
2200.742576663853
 21
713.22988827515235
 31
0.0
 12
2200.492576663853
 22
714.72988827515235
 32
0.0
 13
2200.492576663853
 23
714.72988827515235
 33
0.0
  0
INSERT
  5
2455E
  8
0
 62
     1
  2
*U95
 10
0.0
 20
0.0
 30
0.0
  0
POINT
  5
2455F
  8
DEFPOINTS
 62
     0
 10
2200.9171855610148
 20
709.43063883616583
 30
0.0
  0
POINT
  5
24560
  8
DEFPOINTS
 62
     0
 10
2195.7184111126949
 20
714.72988827515235
 30
0.0
  0
POINT
  5
24561
  8
DEFPOINTS
 62
     0
 10
2200.492576663853
 20
714.72988827515235
 30
0.0
  0
ENDBLK
  5
2444B
  8
0
 62
     1
  0
BLOCK
  8
0
 62
     1
  2
*D32
 70
     1
 10
0.0
 20
0.0
 30
0.0
  3
*D32
  1

  0
LINE
  5
245A5
  8
0
 10
2145.950125380039
 20
738.20600378160009
 30
0.0
 11
2132.0165683703049
 21
738.20600378160009
 31
0.0
  0
LINE
  5
245A6
  8
0
 10
2132.0165683703049
 20
738.20600378160009
 30
0.0
 11
2127.6907948567491
 21
742.74957574002281
 31
0.0
  0
INSERT
  5
245A7
  8
0
 62
     1
  2
*U102
 10
0.0
 20
0.0
 30
0.0
  0
SOLID
  5
245A8
  8
0
 10
2127.8718579528932
 20
742.9219594840788
 30
0.0
 11
2127.5097317606051
 21
742.57719199596647
 31
0.0
 12
2126.6564923924129
 22
743.83595431688582
 32
0.0
 13
2126.6564923924129
 23
743.83595431688582
 33
0.0
  0
POINT
  5
245A9
  8
DEFPOINTS
 62
     0
 10
2126.6564923924129
 20
743.83595431688582
 30
0.0
  0
POINT
  5
245AA
  8
DEFPOINTS
 62
     0
 10
2128.3803298329731
 20
742.02532335544731
 30
0.0
  0
ENDBLK
  5
2459C
  8
0
 62
     1
  0
BLOCK
  8
0
 62
     1
  2
*D33
 70
     1
 10
0.0
 20
0.0
 30
0.0
  3
*D33
  1

  0
LINE
  5
245BB
  8
0
 10
2127.5264051970039
 20
716.93063883616685
 30
0.0
 11
2131.3919751651329
 21
716.93063883616685
 31
0.0
  0
LINE
  5
245BC
  8
0
 10
2128.4535838164402
 20
714.72988827515235
 30
0.0
 11
2131.3919751651329
 21
714.72988827515235
 31
0.0
  0
LINE
  5
245BD
  8
0
 10
2130.791975165133
 20
713.22988827515235
 30
0.0
 11
2130.791975165133
 21
711.72988827515246
 31
0.0
  0
LINE
  5
245BE
  8
0
 10
2130.791975165133
 20
718.43063883616685
 30
0.0
 11
2130.791975165133
 21
719.93063883616685
 31
0.0
  0
LINE
  5
245BF
  8
0
 10
2130.791975165133
 20
719.93063883616685
 30
0.0
 11
2135.1367209278451
 21
719.93063883616685
 31
0.0
  0
SOLID
  5
245C0
  8
0
 10
2130.541975165133
 20
713.22988827515235
 30
0.0
 11
2131.041975165133
 21
713.22988827515235
 31
0.0
 12
2130.791975165133
 22
714.72988827515235
 32
0.0
 13
2130.791975165133
 23
714.72988827515235
 33
0.0
  0
SOLID
  5
245C1
  8
0
 10
2130.541975165133
 20
718.43063883616685
 30
0.0
 11
2131.041975165133
 21
718.43063883616685
 31
0.0
 12
2130.791975165133
 22
716.93063883616685
 32
0.0
 13
2130.791975165133
 23
716.93063883616685
 33
0.0
  0
INSERT
  5
245C2
  8
0
 62
     1
  2
*U103
 10
0.0
 20
0.0
 30
0.0
  0
POINT
  5
245C3
  8
DEFPOINTS
 62
     0
 10
2126.5264051970039
 20
716.93063883616685
 30
0.0
  0
POINT
  5
245C4
  8
DEFPOINTS
 62
     0
 10
2127.4535838164411
 20
714.72988827515235
 30
0.0
  0
POINT
  5
245C5
  8
DEFPOINTS
 62
     0
 10
2130.791975165133
 20
714.72988827515235
 30
0.0
  0
ENDBLK
  5
245B9
  8
0
 62
     1
  0
BLOCK
  8
0
 62
     1
  2
*D34
 70
     1
 10
0.0
 20
0.0
 30
0.0
  3
*D34
  1

  0
LINE
  5
245D6
  8
0
 10
2128.4535838164402
 20
714.72988827515235
 30
0.0
 11
2139.99058182319
 21
714.72988827515235
 31
0.0
  0
LINE
  5
245D7
  8
0
 10
2130.718411112693
 20
709.93063883616685
 30
0.0
 11
2139.99058182319
 21
709.93063883616685
 31
0.0
  0
LINE
  5
245D8
  8
0
 10
2139.3905818231901
 20
716.22988827515246
 30
0.0
 11
2139.3905818231901
 21
717.72988827515235
 31
0.0
  0
LINE
  5
245D9
  8
0
 10
2139.3905818231901
 20
708.43063883616685
 30
0.0
 11
2139.3905818231901
 21
706.93063883616696
 31
0.0
  0
SOLID
  5
245DA
  8
0
 10
2139.1405818231901
 20
716.22988827515246
 30
0.0
 11
2139.6405818231901
 21
716.22988827515246
 31
0.0
 12
2139.3905818231901
 22
714.72988827515235
 32
0.0
 13
2139.3905818231901
 23
714.72988827515235
 33
0.0
  0
SOLID
  5
245DB
  8
0
 10
2139.1405818231901
 20
708.43063883616685
 30
0.0
 11
2139.6405818231901
 21
708.43063883616685
 31
0.0
 12
2139.3905818231901
 22
709.93063883616685
 32
0.0
 13
2139.3905818231901
 23
709.93063883616685
 33
0.0
  0
INSERT
  5
245DC
  8
0
 62
     1
  2
*U104
 10
0.0
 20
0.0
 30
0.0
  0
POINT
  5
245DD
  8
DEFPOINTS
 62
     0
 10
2127.4535838164411
 20
714.72988827515235
 30
0.0
  0
POINT
  5
245DE
  8
DEFPOINTS
 62
     0
 10
2129.718411112694
 20
709.93063883616685
 30
0.0
  0
POINT
  5
245DF
  8
DEFPOINTS
 62
     0
 10
2139.3905818231901
 20
709.93063883616685
 30
0.0
  0
ENDBLK
  5
245D4
  8
0
 62
     1
  0
BLOCK
  8
0
 62
     1
  2
*U36
 70
     1
 10
0.0
 20
0.0
 30
0.0
  3
*U36
  1

  0
TEXT
  5
24656
  8
0
 10
2125.5146121001462
 20
516.29251678158812
 30
0.0
 40
3.0
  1
技术要求:
  0
TEXT
  5
24657
  8
0
 10
2125.214612100147
 20
510.79251678158812
 30
0.0
 40
3.0
  1
1.未注圆角R=0.5
  0
TEXT
  5
24658
  8
0
 10
2157.214612100147
 20
510.79251678158812
 30
0.0
 40
3.0
  1
mm
  0
TEXT
  5
24659
  8
0
 10
2125.4812787668129
 20
505.27585011492141
 30
0.0
 40
3.0
  1
2.未注壁厚T=   
  0
TEXT
  5
2465A
  8
0
 10
2157.4812787668129
 20
505.27585011492141
 30
0.0
 40
3.0
  1
mm
  0
ENDBLK
  5
2465C
  8
0
 62
     1
  0
BLOCK
  8
0
 62
     1
  2
*U37
 70
     1
 10
0.0
 20
0.0
 30
0.0
  3
*U37
  1

  0
TEXT
  5
2465E
  8
0
 10
2107.2157589080821
 20
484.7605463489196
 30
0.0
 40
3.0
  1
%%P0.85
  0
ENDBLK
  5
24660
  8
0
 62
     1
  0
BLOCK
  8
0
 62
     1
  2
*U38
 70
     1
 10
0.0
 20
0.0
 30
0.0
  3
*U38
  1

  0
TEXT
  5
24662
  8
0
 10
2107.2157589080821
 20
504.54257734558331
 30
0.0
 40
3.0
  1
%%P0.25
  0
ENDBLK
  5
24664
  8
0
 62
     1
  0
BLOCK
  8
0
 62
     1
  2
*U39
 70
     1
 10
0.0
 20
0.0
 30
0.0
  3
*U39
  1

  0
TEXT
  5
24666
  8
0
 10
2107.2157589080821
 20
499.48551672245389
 30
0.0
 40
3.0
  1
%%P0.30
  0
ENDBLK
  5
24668
  8
0
 62
     1
  0
BLOCK
  8
0
 62
     1
  2
*U40
 70
     1
 10
0.0
 20
0.0
 30
0.0
  3
*U40
  1

  0
TEXT
  5
2466A
  8
0
 10
2107.2157589080821
 20
494.87466759517679
 30
0.0
 40
3.0
  1
%%P0.40
  0
ENDBLK
  5
2466C
  8
0
 62
     1
  0
BLOCK
  8
0
 62
     1
  2
*U41
 70
     1
 10
0.0
 20
0.0
 30
0.0
  3
*U41
  1

  0
TEXT
  5
2466E
  8
0
 10
2107.2157589080821
 20
489.66887003726669
 30
0.0
 40
3.0
  1
%%P0.60
  0
ENDBLK
  5
24670
  8
0
 62
     1
  0
BLOCK
  8
0
 62
     1
  2
*U42
 70
     1
 10
0.0
 20
0.0
 30
0.0
  3
*U42
  1

  0
TEXT
  5
24672
  8
0
 10
2107.2157589080821
 20
509.302164099148
 30
0.0
 40
3.0
  1
%%P0.20
  0
ENDBLK
  5
24674
  8
0
 62
     1
  0
BLOCK
  8
0
 62
     1
  2
*U43
 70
     1
 10
0.0
 20
0.0
 30
0.0
  3
*U43
  1

  0
TEXT
  5
24676
  8
0
 10
2107.2157589080821
 20
514.6566985918414
 30
0.0
 40
3.0
  1
%%P0.18
  0
ENDBLK
  5
24678
  8
0
 62
     1
  0
BLOCK
  8
0
 62
     1
  2
*U44
 70
     1
 10
0.0
 20
0.0
 30
0.0
  3
*U44
  1

  0
TEXT
  5
2467A
  8
0
 10
2107.2157589080821
 20
519.416285345407
 30
0.0
 40
3.0
  1
%%P0.15
  0
ENDBLK
  5
2467C
  8
0
 62
     1
  0
BLOCK
  8
0
 62
     1
  2
*U45
 70
     1
 10
0.0
 20
0.0
 30
0.0
  3
*U45
  1

  0
TEXT
  5
2467E
  8
0
 10
2107.2157589080821
 20
524.77081983809853
 30
0.0
 40
3.0
  1
%%P0.13
  0
ENDBLK
  5
24680
  8
0
 62
     1
  0
BLOCK
  8
0
 62
     1
  2
*U46
 70
     1
 10
0.0
 20
0.0
 30
0.0
  3
*U46
  1

  0
TEXT
  5
24682
  8
0
 10
2083.3011937217429
 20
484.72800328453121
 30
0.0
 40
3.0
  1
＞
  0
TEXT
  5
24683
  8
0
 10
2087.5678603884089
 20
484.72800328453121
 30
0.0
 40
3.0
  1
100-180
  0
ENDBLK
  5
24685
  8
0
 62
     1
  0
BLOCK
  8
0
 62
     1
  2
*U47
 70
     1
 10
0.0
 20
0.0
 30
0.0
  3
*U47
  1

  0
TEXT
  5
24687
  8
0
 10
2083.3011937217429
 20
489.93380084244131
 30
0.0
 40
3.0
  1
＞
  0
TEXT
  5
24688
  8
0
 10
2087.5678603884089
 20
489.93380084244131
 30
0.0
 40
3.0
  1
50-100
  0
ENDBLK
  5
2468A
  8
0
 62
     1
  0
BLOCK
  8
0
 62
     1
  2
*U48
 70
     1
 10
0.0
 20
0.0
 30
0.0
  3
*U48
  1

  0
TEXT
  5
2468C
  8
0
 10
2083.3011937217429
 20
494.6933869044999
 30
0.0
 40
3.0
  1
＞
  0
TEXT
  5
2468D
  8
0
 10
2087.5678603884089
 20
494.6933869044999
 30
0.0
 40
3.0
  1
38-50
  0
ENDBLK
  5
2468F
  8
0
 62
     1
  0
BLOCK
  8
0
 62
     1
  2
*U49
 70
     1
 10
0.0
 20
0.0
 30
0.0
  3
*U49
  1

  0
TEXT
  5
24691
  8
0
 10
2083.3011937217429
 20
499.89918446241171
 30
0.0
 40
3.0
  1
＞
  0
TEXT
  5
24692
  8
0
 10
2087.5678603884089
 20
499.89918446241171
 30
0.0
 40
3.0
  1
25-38
  0
ENDBLK
  5
24694
  8
0
 62
     1
  0
BLOCK
  8
0
 62
     1
  2
*U50
 70
     1
 10
0.0
 20
0.0
 30
0.0
  3
*U50
  1

  0
TEXT
  5
24696
  8
0
 10
2083.3011937217429
 20
504.65877121597731
 30
0.0
 40
3.0
  1
＞
  0
TEXT
  5
24697
  8
0
 10
2087.5678603884089
 20
504.65877121597731
 30
0.0
 40
3.0
  1
10-25
  0
ENDBLK
  5
24699
  8
0
 62
     1
  0
BLOCK
  8
0
 62
     1
  2
*U51
 70
     1
 10
0.0
 20
0.0
 30
0.0
  3
*U51
  1

  0
TEXT
  5
2469B
  8
0
 10
2083.3011937217429
 20
509.56709490432451
 30
0.0
 40
3.0
  1
＞
  0
TEXT
  5
2469C
  8
0
 10
2087.5678603884089
 20
509.56709490432451
 30
0.0
 40
3.0
  1
3-10
  0
ENDBLK
  5
2469E
  8
0
 62
     1
  0
BLOCK
  8
0
 62
     1
  2
*U52
 70
     1
 10
0.0
 20
0.0
 30
0.0
  3
*U52
  1

  0
TEXT
  5
246A0
  8
0
 10
2083.3011937217429
 20
514.77289246223438
 30
0.0
 40
3.0
  1
＞
  0
TEXT
  5
246A1
  8
0
 10
2087.5678603884089
 20
514.77289246223438
 30
0.0
 40
3.0
  1
2-3
  0
ENDBLK
  5
246A3
  8
0
 62
     1
  0
BLOCK
  8
0
 62
     1
  2
*U53
 70
     1
 10
0.0
 20
0.0
 30
0.0
  3
*U53
  1

  0
TEXT
  5
246A5
  8
0
 10
2083.3011937217429
 20
519.53247921579998
 30
0.0
 40
3.0
  1
＞
  0
TEXT
  5
246A6
  8
0
 10
2087.5678603884089
 20
519.53247921579998
 30
0.0
 40
3.0
  1
1-2
  0
ENDBLK
  5
246A8
  8
0
 62
     1
  0
BLOCK
  8
0
 62
     1
  2
*U54
 70
     1
 10
0.0
 20
0.0
 30
0.0
  3
*U54
  1

  0
TEXT
  5
246AA
  8
0
 10
2083.5750213308552
 20
524.73827677371014
 30
0.0
 40
3.0
  1
≤1
  0
ENDBLK
  5
246AC
  8
0
 62
     1
  0
BLOCK
  8
0
 62
     1
  2
*U55
 70
     1
 10
0.0
 20
0.0
 30
0.0
  3
*U55
  1

  0
TEXT
  5
246AE
  8
0
 10
2083.2944417858612
 20
479.03408598937551
 30
0.0
 40
2.7000000000000002
  1
未注尺寸允许偏差按上表
  0
ENDBLK
  5
246B0
  8
0
 62
     1
  0
BLOCK
  8
0
 62
     1
  2
*U56
 70
     1
 10
0.0
 20
0.0
 30
0.0
  3
*U56
  1

  0
TEXT
  5
246B2
  8
0
 10
2103.9696079212272
 20
529.79312088238794
 30
0.0
 40
3.0
  1
允许偏差
  0
ENDBLK
  5
246B4
  8
0
 62
     1
  0
BLOCK
  8
0
 62
     1
  2
*U57
 70
     1
 10
0.0
 20
0.0
 30
0.0
  3
*U57
  1

  0
TEXT
  5
246B6
  8
0
 10
2083.4113195611262
 20
529.82645421572124
 30
0.0
 40
3.0
  1
尺寸范围
  0
ENDBLK
  5
246B8
  8
0
 62
     1
  0
BLOCK
  8
0
 62
     1
  2
*U58
 70
     1
 10
0.0
 20
0.0
 30
0.0
  3
*U58
  1

  0
TEXT
  5
246BA
  8
0
 10
2251.6481824613152
 20
606.95523229603714
 30
0.0
 40
2.5
  1
22
  0
TEXT
  5
246BB
  8
0
 10
2256.6481824613152
 20
606.95523229603714
 30
0.0
 40
2.5
  1
号
  0
ENDBLK
  5
246BD
  8
0
 62
     1
  0
BLOCK
  8
0
 62
     1
  2
*U59
 70
     1
 10
0.0
 20
0.0
 30
0.0
  3
*U59
  1

  0
TEXT
  5
246BF
  8
0
 62
     0
 10
2181.1768377993171
 20
490.76048472718031
 30
0.0
 40
3.0
  1
材   料
  0
ENDBLK
  5
246C1
  8
0
 62
     1
  0
BLOCK
  8
0
 62
     1
  2
*U60
 70
     1
 10
0.0
 20
0.0
 30
0.0
  3
*U60
  1

  0
TEXT
  5
246C3
  8
0
 10
2258.9791841931469
 20
522.50288357508157
 30
0.0
 40
2.5
  1
RUYE-22
  0
ENDBLK
  5
246C5
  8
0
 62
     1
  0
BLOCK
  8
0
 62
     1
  2
*U61
 70
     1
 10
0.0
 20
0.0
 30
0.0
  3
*U61
  1

  0
TEXT
  5
246ED
  8
0
 10
2233.6373726212391
 20
523.1339033097039
 30
0.0
 40
3.25
  1
本厂型号
  0
ENDBLK
  5
246EF
  8
0
 62
     1
  0
BLOCK
  8
0
 62
     1
  2
*U62
 70
     1
 10
0.0
 20
0.0
 30
0.0
  3
*U62
  1

  0
TEXT
  5
246F1
  8
0
 10
2181.079461369799
 20
515.79825727748562
 30
0.0
 40
2.5
  1
线 密 度
  0
ENDBLK
  5
246F3
  8
0
 62
     1
  0
BLOCK
  8
0
 62
     1
  2
*U63
 70
     1
 10
0.0
 20
0.0
 30
0.0
  3
*U63
  1

  0
TEXT
  5
246F5
  8
0
 10
2181.5556714281752
 20
523.326330423282
 30
0.0
 40
2.5
  1
截 面 积
  0
ENDBLK
  5
246F7
  8
0
 62
     1
  0
BLOCK
  8
0
 62
     1
  2
*U64
 70
     1
 10
0.0
 20
0.0
 30
0.0
  3
*U64
  1

  0
TEXT
  5
246F9
  8
0
 10
2231.929295326514
 20
507.02040948741859
 30
0.0
 40
3.0
  1
 客    户：
  0
ENDBLK
  5
246FB
  8
0
 62
     1
  0
BLOCK
  8
0
 62
     1
  2
*U65
 70
     1
 10
0.0
 20
0.0
 30
0.0
  3
*U65
  1

  0
TEXT
  5
246FD
  8
0
 10
2289.642229320677
 20
515.56266899114598
 30
0.0
 40
3.0
  1
制  图
  0
ENDBLK
  5
246FF
  8
0
 62
     1
  0
BLOCK
  8
0
 62
     1
  2
*U66
 70
     1
 10
0.0
 20
0.0
 30
0.0
  3
*U66
  1

  0
TEXT
  5
24701
  8
0
 10
2287.8339725471869
 20
499.13347247798288
 30
0.0
 40
3.0
  1
比    例:
  0
ENDBLK
  5
24703
  8
0
 62
     1
  0
BLOCK
  8
0
 62
     1
  2
*U67
 70
     1
 10
0.0
 20
0.0
 30
0.0
  3
*U67
  1

  0
TEXT
  5
24705
  8
0
 10
2181.0076728947179
 20
498.29663966422908
 30
0.0
 40
3.0
  1
单    位        mm
  0
ENDBLK
  5
24707
  8
0
 62
     1
  0
BLOCK
  8
0
 62
     1
  2
*U68
 70
     1
 10
0.0
 20
0.0
 30
0.0
  3
*U68
  1

  0
TEXT
  5
24709
  8
0
 10
2225.2526630088232
 20
507.09837987136387
 30
0.0
 40
2.5
  1
mm
  0
ENDBLK
  5
2470B
  8
0
 62
     1
  0
BLOCK
  8
0
 62
     1
  2
*U69
 70
     1
 10
0.0
 20
0.0
 30
0.0
  3
*U69
  1

  0
TEXT
  5
2470D
  8
0
 10
2222.6372309967492
 20
514.99227715964798
 30
0.0
 40
2.5
  1
kg/m
  0
ENDBLK
  5
2470F
  8
0
 62
     1
  0
BLOCK
  8
0
 62
     1
  2
*U70
 70
     1
 10
0.0
 20
0.0
 30
0.0
  3
*U70
  1

  0
TEXT
  5
24711
  8
0
 10
2228.9194078645742
 20
524.74839809710807
 30
0.0
 40
1.25
  1
2
  0
ENDBLK
  5
24713
  8
0
 62
     1
  0
BLOCK
  8
0
 62
     1
  2
*U71
 70
     1
 10
0.0
 20
0.0
 30
0.0
  3
*U71
  1

  0
TEXT
  5
24715
  8
0
 10
2225.2526630088232
 20
522.90345013552337
 30
0.0
 40
2.5
  1
mm
  0
ENDBLK
  5
24717
  8
0
 62
     1
  0
BLOCK
  8
0
 62
     1
  2
*U72
 70
     1
 10
0.0
 20
0.0
 30
0.0
  3
*U72
  1

  0
TEXT
  5
24719
  8
0
 10
2286.988666625618
 20
491.25347682668212
 30
0.0
 40
3.0
  1
客户签认
  0
ENDBLK
  5
2471B
  8
0
 62
     1
  0
BLOCK
  8
0
 62
     1
  2
*U73
 70
     1
 10
0.0
 20
0.0
 30
0.0
  3
*U73
  1

  0
TEXT
  5
2471D
  8
0
 10
2287.5646007356818
 20
507.24861020944797
 30
0.0
 40
3.0
  1
校    对
  0
ENDBLK
  5
2471F
  8
0
 62
     1
  0
BLOCK
  8
0
 62
     1
  2
*U74
 70
     1
 10
0.0
 20
0.0
 30
0.0
  3
*U74
  1

  0
TEXT
  5
24721
  8
0
 10
2288.8550258293221
 20
522.96149925581199
 30
0.0
 40
3.0
  1
设    计
  0
ENDBLK
  5
24723
  8
0
 62
     1
  0
BLOCK
  8
0
 62
     1
  2
*U75
 70
     1
 10
0.0
 20
0.0
 30
0.0
  3
*U75
  1

  0
TEXT
  5
24725
  8
0
 10
2181.6696512013291
 20
506.61774414006732
 30
0.0
 40
3.0
  1
周    长     *
  0
ENDBLK
  5
24727
  8
0
 62
     1
  0
BLOCK
  8
0
 62
     1
  2
*U76
 70
     1
 10
0.0
 20
0.0
 30
0.0
  3
*U76
  1

  0
TEXT
  5
24735
  8
0
 10
2308.8848160923112
 20
305.67229093783141
 30
0.0
 40
2.0
  1
42.1
  0
ENDBLK
  5
24737
  8
0
 62
     1
  0
BLOCK
  8
0
 62
     1
  2
*U77
 70
     1
 10
0.0
 20
0.0
 30
0.0
  3
*U77
  1

  0
TEXT
  5
24739
  8
0
 10
2240.0093919662968
 20
298.87875444556897
 30
0.0
 40
2.0
  1
42.1
  0
ENDBLK
  5
2473B
  8
0
 62
     1
  0
BLOCK
  8
0
 62
     1
  2
*U78
 70
     1
 10
0.0
 20
0.0
 30
0.0
  3
*U78
  1

  0
TEXT
  5
2473D
  8
0
 10
2220.7306634932329
 20
355.68327024989878
 30
0.0
 40
2.0
  1
80.4
  0
ENDBLK
  5
2473F
  8
0
 62
     1
  0
BLOCK
  8
0
 62
     1
  2
*U79
 70
     1
 10
0.0
 20
0.0
 30
0.0
  3
*U79
  1

  0
TEXT
  5
24741
  8
0
 10
2241.7463499458522
 20
319.0326829715442
 30
0.0
 40
2.0
  1
80.4
  0
ENDBLK
  5
24743
  8
0
 62
     1
  0
BLOCK
  8
0
 62
     1
  2
*U80
 70
     1
 10
0.0
 20
0.0
 30
0.0
  3
*U80
  1

  0
TEXT
  5
24745
  8
0
 10
2157.718411112694
 20
632.39542677498866
 30
0.0
 40
2.0
  1
66.4
  0
ENDBLK
  5
24747
  8
0
 62
     1
  0
BLOCK
  8
0
 62
     1
  2
*U81
 70
     1
 10
0.0
 20
0.0
 30
0.0
  3
*U81
  1

  0
TEXT
  5
24749
  8
0
 10
2157.718411112694
 20
637.72603783829447
 30
0.0
 40
2.0
  1
75.4
  0
ENDBLK
  5
2474B
  8
0
 62
     1
  0
BLOCK
  8
0
 62
     1
  2
*U82
 70
     1
 10
0.0
 20
0.0
 30
0.0
  3
*U82
  1

  0
TEXT
  5
2474D
  8
0
 10
2109.4590829368831
 20
610.65469273260351
 30
0.0
 40
2.0
  1
39.3
  0
ENDBLK
  5
2474F
  8
0
 62
     1
  0
BLOCK
  8
0
 62
     1
  2
*U83
 70
     1
 10
0.0
 20
0.0
 30
0.0
  3
*U83
  1

  0
TEXT
  5
24751
  8
0
 10
2157.718411112694
 20
584.48354970755315
 30
0.0
 40
2.0
  1
89.2
  0
ENDBLK
  5
24753
  8
0
 62
     1
  0
BLOCK
  8
0
 62
     1
  2
*U84
 70
     1
 10
0.0
 20
0.0
 30
0.0
  3
*U84
  1

  0
TEXT
  5
24755
  8
0
 10
2116.968160701023
 20
610.50915879553213
 30
0.0
 40
2.0
  1
31
  0
ENDBLK
  5
24757
  8
0
 62
     1
  0
BLOCK
  8
0
 62
     1
  2
*U85
 70
     1
 10
0.0
 20
0.0
 30
0.0
  3
*U85
  1

  0
TEXT
  5
24759
  8
0
 10
2138.5251184294189
 20
600.07535904318172
 30
0.0
 40
2.0
  1
1.8
  0
ENDBLK
  5
2475B
  8
0
 62
     1
  0
BLOCK
  8
0
 62
     1
  2
*U86
 70
     1
 10
0.0
 20
0.0
 30
0.0
  3
*U86
  1

  0
TEXT
  5
2475D
  8
0
 10
2168.9319247501262
 20
606.09431784702997
 30
0.0
 40
2.0
  1
70
  0
ENDBLK
  5
2475F
  8
0
 62
     1
  0
BLOCK
  8
0
 62
     1
  2
*U87
 70
     1
 10
0.0
 20
0.0
 30
0.0
  3
*U87
  1

  0
TEXT
  5
24761
  8
0
 10
2156.817403140326
 20
611.91019968940782
 30
0.0
 40
2.0
  1
35
  0
ENDBLK
  5
24763
  8
0
 62
     1
  0
BLOCK
  8
0
 62
     1
  2
*U88
 70
     1
 10
0.0
 20
0.0
 30
0.0
  3
*U88
  1

  0
TEXT
  5
24765
  8
0
 10
2185.5523905715249
 20
616.95099822178315
 30
0.0
 40
2.0
  1
2
  0
ENDBLK
  5
24767
  8
0
 62
     1
  0
BLOCK
  8
0
 62
     1
  2
*U89
 70
     1
 10
0.0
 20
0.0
 30
0.0
  3
*U89
  1

  0
TEXT
  5
24769
  8
0
 10
2200.8149495452089
 20
601.31691432743651
 30
0.0
 40
2.0
  1
5.3
  0
ENDBLK
  5
2476B
  8
0
 62
     1
  0
BLOCK
  8
0
 62
     1
  2
*U90
 70
     1
 10
0.0
 20
0.0
 30
0.0
  3
*U90
  1

  0
TEXT
  5
2476D
  8
0
 10
2157.718411112694
 20
749.92941767185755
 30
0.0
 40
2.0
  1
66.4
  0
ENDBLK
  5
2476F
  8
0
 62
     1
  0
BLOCK
  8
0
 62
     1
  2
*U91
 70
     1
 10
0.0
 20
0.0
 30
0.0
  3
*U91
  1

  0
TEXT
  5
24771
  8
0
 10
2116.968160701023
 20
728.0431496924009
 30
0.0
 40
2.0
  1
31
  0
ENDBLK
  5
24773
  8
0
 62
     1
  0
BLOCK
  8
0
 62
     1
  2
*U92
 70
     1
 10
0.0
 20
0.0
 30
0.0
  3
*U92
  1

  0
TEXT
  5
24775
  8
0
 10
2138.5251184294189
 20
717.60934994005038
 30
0.0
 40
2.0
  1
1.8
  0
ENDBLK
  5
24777
  8
0
 62
     1
  0
BLOCK
  8
0
 62
     1
  2
*U93
 70
     1
 10
0.0
 20
0.0
 30
0.0
  3
*U93
  1

  0
TEXT
  5
24779
  8
0
 10
2156.817403140326
 20
729.44419058627659
 30
0.0
 40
2.0
  1
35
  0
ENDBLK
  5
2477B
  8
0
 62
     1
  0
BLOCK
  8
0
 62
     1
  2
*U94
 70
     1
 10
0.0
 20
0.0
 30
0.0
  3
*U94
  1

  0
TEXT
  5
2477D
  8
0
 10
2185.5523905715249
 20
734.46284222599672
 30
0.0
 40
2.0
  1
2
  0
ENDBLK
  5
2477F
  8
0
 62
     1
  0
BLOCK
  8
0
 62
     1
  2
*U95
 70
     1
 10
0.0
 20
0.0
 30
0.0
  3
*U95
  1

  0
TEXT
  5
24781
  8
0
 10
2200.8149495452089
 20
718.87327810566126
 30
0.0
 40
2.0
  1
5.3
  0
ENDBLK
  5
24783
  8
0
 62
     1
  0
BLOCK
  8
0
 62
     1
  2
*U96
 70
     1
 10
0.0
 20
0.0
 30
0.0
  3
*U96
  1

  0
TEXT
  5
24785
  8
0
 10
2157.718411112694
 20
755.26002873516325
 30
0.0
 40
2.0
  1
75.4
  0
ENDBLK
  5
24787
  8
0
 62
     1
  0
BLOCK
  8
0
 62
     1
  2
*U97
 70
     1
 10
0.0
 20
0.0
 30
0.0
  3
*U97
  1

  0
TEXT
  5
24789
  8
0
 10
2157.718411112694
 20
702.01754060442192
 30
0.0
 40
2.0
  1
89.2
  0
ENDBLK
  5
2478B
  8
0
 62
     1
  0
BLOCK
  8
0
 62
     1
  2
*U98
 70
     1
 10
0.0
 20
0.0
 30
0.0
  3
*U98
  1

  0
TEXT
  5
2478D
  8
0
 10
2109.4590829368831
 20
728.18868362947228
 30
0.0
 40
2.0
  1
39.3
  0
ENDBLK
  5
2478F
  8
0
 62
     1
  0
BLOCK
  8
0
 62
     1
  2
*U99
 70
     1
 10
0.0
 20
0.0
 30
0.0
  3
*U99
  1

  0
TEXT
  5
24791
  8
0
 10
2243.0935714982579
 20
595.32516678513878
 30
0.0
 40
2.0
  1
\U+22053.5
  0
ENDBLK
  5
24793
  8
0
 62
     1
  0
BLOCK
  8
0
 62
     1
  2
*U100
 70
     1
 10
0.0
 20
0.0
 30
0.0
  3
*U100
  1

  0
TEXT
  5
24795
  8
0
 10
2111.0858228340899
 20
637.92661237800735
 30
0.0
 40
2.0
  1
\U+22052.5-4M3
 50
323.7197904465134
  0
ENDBLK
  5
24797
  8
0
 62
     1
  0
BLOCK
  8
0
 62
     1
  2
*U101
 70
     1
 10
0.0
 20
0.0
 30
0.0
  3
*U101
  1

  0
TEXT
  5
24799
  8
0
 10
2131.27220207351
 20
739.98227653991239
 30
0.0
 40
2.0
  1
\U+22052.5-4M3
 50
317.32161020209361
  0
ENDBLK
  5
2479B
  8
0
 62
     1
  0
BLOCK
  8
0
 62
     1
  2
*U102
 70
     1
 10
0.0
 20
0.0
 30
0.0
  3
*U102
  1

  0
TEXT
  5
2479D
  8
0
 10
2132.5246611089151
 20
738.59604470929446
 30
0.0
 40
2.0
  1
\U+2205
  0
TEXT
  5
2479E
  8
0
 10
2134.5246611089151
 20
738.59604470929446
 30
0.0
 40
2.0
  1
2.5
  0
TEXT
  5
2479F
  8
0
 10
2138.4086993080959
 20
738.59604470929446
 30
0.0
 40
2.0
  1
-4M3
  0
ENDBLK
  5
247A1
  8
0
 62
     1
  0
BLOCK
  8
0
 62
     1
  2
*U103
 70
     1
 10
0.0
 20
0.0
 30
0.0
  3
*U103
  1

  0
TEXT
  5
247A3
  8
0
 10
2131.1143480464889
 20
720.25165578531983
 30
0.0
 40
2.0
  1
2.2
  0
ENDBLK
  5
247A5
  8
0
 62
     1
  0
BLOCK
  8
0
 62
     1
  2
*U104
 70
     1
 10
0.0
 20
0.0
 30
0.0
  3
*U104
  1

  0
TEXT
  5
247A7
  8
0
 10
2137.3905818231901
 20
711.95698263026486
 30
0.0
 40
2.0
  1
4.8
  0
ENDBLK
  5
247A9
  8
0
 62
     1
  0
BLOCK
  8
0
 62
     1
  2
*U105
 70
     1
 10
0.0
 20
0.0
 30
0.0
  3
*U105
  1

  0
TEXT
  5
247AB
  8
0
 10
2179.005447515065
 20
741.39613580740649
 30
0.0
 40
2.0
  1
4.8
  0
ENDBLK
  5
247AD
  8
0
 62
     1
  0
BLOCK
  8
0
 62
     1
  2
*U106
 70
     1
 10
0.0
 20
0.0
 30
0.0
  3
*U106
  1

  0
TEXT
  5
247AF
  8
0
 10
2168.9319247501262
 20
725.56265424914625
 30
0.0
 40
2.0
  1
70
  0
ENDBLK
  5
247B1
  8
0
 62
     1
  0
ENDSEC
  0
SECTION
  2
ENTITIES
  0
LINE
  5
2B4
  8
0
 10
2169.1220575122802
 20
496.57062127790027
 30
0.0
 11
2359.1220575122811
 21
496.57062127789931
 31
0.0
  0
LINE
  5
2B5
  8
0
 10
2169.1220575122788
 20
504.57062127790022
 30
0.0
 11
2359.1220575122811
 21
504.57062127790022
 31
0.0
  0
LINE
  5
2B6
  8
0
 10
2169.1220575122788
 20
512.57062127790016
 30
0.0
 11
2359.1220575122811
 21
512.57062127789925
 31
0.0
  0
LINE
  5
2B7
  8
0
 10
2169.1220575122788
 20
520.57062127790016
 30
0.0
 11
2359.1220575122811
 21
520.57062127789925
 31
0.0
  0
LINE
  5
2B8
  8
0
 10
2359.1220575122811
 20
528.57062127790016
 30
0.0
 11
2169.1220575122802
 21
528.57062127790016
 31
0.0
  0
LINE
  5
2B9
  8
0
 10
2359.1220575122811
 20
488.57062127790027
 30
0.0
 11
2169.1220575122802
 21
488.57062127790027
 31
0.0
  0
POLYLINE
  5
2BA
  8
0
 66
     1
 10
0.0
 20
0.0
 30
0.0
 70
     1
  0
VERTEX
  5
2464B
  8
0
 10
2082.1220575122811
 20
475.5189590649203
 30
0.0
  0
VERTEX
  5
2464C
  8
0
 10
2359.1220575122811
 20
475.5189590649203
 30
0.0
  0
VERTEX
  5
2464D
  8
0
 10
2359.1220575122811
 20
665.51895906492041
 30
0.0
  0
VERTEX
  5
2464E
  8
0
 10
2082.1220575122811
 20
665.51895906492041
 30
0.0
  0
SEQEND
  5
2464F
  8
0
  0
POLYLINE
  5
2BB
  8
0
 66
     1
 10
0.0
 20
0.0
 30
0.0
 70
     1
  0
VERTEX
  5
24650
  8
0
 10
2369.1220575122811
 20
465.51895906492041
 30
0.0
  0
VERTEX
  5
24651
  8
0
 10
2369.1220575122811
 20
675.5189590649203
 30
0.0
  0
VERTEX
  5
24652
  8
0
 10
2072.1220575122811
 20
675.5189590649203
 30
0.0
  0
VERTEX
  5
24653
  8
0
 10
2072.1220575122811
 20
465.51895906492041
 30
0.0
  0
SEQEND
  5
24654
  8
0
  0
DIMENSION
  5
2BC
  8
0
 62
     1
  2
*D1
 10
2198.4184111126938
 20
637.38264800778586
 30
0.0
 11
2160.718411112694
 21
637.38264800778586
 31
0.0
 70
   128
 13
2123.0184111126941
 23
625.49664793929855
 33
0.0
 14
2198.4184111126938
 24
625.49664793929855
 34
0.0
  0
DIMENSION
  5
2BD
  8
0
 62
     1
  2
*D2
 10
2205.3184111126939
 20
584.16253275840063
 30
0.0
 11
2160.718411112694
 21
584.16253275840063
 31
0.0
 70
   128
 13
2116.1184111126931
 23
590.79664793929783
 33
0.0
 14
2205.3184111126939
 24
590.19664793929917
 34
0.0
  0
DIMENSION
  5
2BE
  8
0
 62
     1
  2
*D3
 10
2112.4590829368831
 20
589.89664793929808
 30
0.0
 11
2112.4590829368831
 21
611.65469273260351
 31
0.0
 70
   128
 13
2160.718411112694
 23
629.19664793929735
 33
0.0
 14
2160.738356841327
 24
589.89664793929808
 34
0.0
 50
90.0
  0
LINE
  5
2BF
  8
0
 10
2126.018411112691
 20
590.59664793929699
 30
0.0
 11
2154.218411112694
 21
590.59664793929699
 31
0.0
  0
LINE
  5
2C0
  8
0
 10
2132.1266873663249
 20
629.19664793929735
 30
0.0
 11
2189.310134859064
 21
629.19664793929735
 31
0.0
  0
LINE
  5
2C1
  8
0
 10
2129.718411112694
 20
592.39664793929819
 30
0.0
 11
2191.718411112694
 21
592.39664793929819
 31
0.0
  0
LINE
  5
2C2
  8
0
 10
2189.310134859064
 20
629.19664793929735
 30
0.0
 11
2132.1266873663249
 21
629.19664793929735
 31
0.0
  0
LINE
  5
2C3
  8
0
 10
2191.718411112694
 20
592.39664793929819
 30
0.0
 11
2129.718411112694
 21
592.39664793929819
 31
0.0
  0
LINE
  5
2C4
  8
0
 10
2129.718411112694
 20
592.39664793929819
 30
0.0
 11
2160.5184111126928
 21
592.39664793929819
 31
0.0
  0
LINE
  5
2C5
  8
0
 10
2129.718411112694
 20
627.39664793929808
 30
0.0
 11
2191.718411112694
 21
627.39664793929637
 31
0.0
  0
LINE
  5
2C6
  8
0
 10
2126.018411112691
 20
590.59664793929699
 30
0.0
 11
2154.218411112694
 21
590.59664793929699
 31
0.0
  0
LINE
  5
2C7
  8
0
 10
2132.1266873663249
 20
629.19664793929735
 30
0.0
 11
2189.310134859064
 21
629.19664793929735
 31
0.0
  0
INSERT
  5
2C8
  8
0
 62
     1
  2
*U36
 10
0.0
 20
0.0
 30
0.0
  0
DIMENSION
  5
2C9
  8
0
 62
     1
  2
*D4
 10
2128.5260770133491
 20
624.65697947798549
 30
0.0
 11
2116.505620240423
 21
633.48049207249403
 31
0.0
 70
   131
  1
<>-4M3
 15
2126.5107452120378
 25
626.13631640060805
 35
0.0
 40
0.0
1001
ACAD
1000
DSTYLE
1002
{
1070
    43
1040
1.0
1070
    44
1040
0.6
1070
    73
1070
     0
1070
    74
1070
     0
1002
}
  0
ARC
  5
2CA
  8
0
 10
2123.3184111126939
 20
623.99664793929855
 30
0.0
 40
0.3
 50
180.0
 51
270.0
  0
LINE
  5
2CB
  8
0
 10
2123.9184111126929
 20
618.52664793929728
 30
0.0
 11
2123.9184111126929
 21
616.59664793929892
 31
0.0
  0
LINE
  5
2CC
  8
0
 10
2123.9184111126929
 20
621.2266479392963
 30
0.0
 11
2123.9184111126929
 21
619.32664793929848
 31
0.0
  0
LINE
  5
2CD
  8
0
 10
2123.0184111126941
 20
623.99664793929855
 30
0.0
 11
2123.0184111126941
 21
626.99664793929855
 31
0.0
  0
LINE
  5
2CE
  8
0
 10
2123.9184111126929
 20
623.69664793929917
 30
0.0
 11
2123.3184111126939
 21
623.69664793929917
 31
0.0
  0
ARC
  5
2CF
  8
0
 10
2125.5184111126941
 20
626.99664793929855
 30
0.0
 40
2.5
 50
61.642363423643928
 51
180.0
  0
LINE
  5
2D0
  8
0
 10
2116.618411112694
 20
589.69664793929746
 30
0.0
 11
2123.503705230341
 21
589.69664793929746
 31
0.0
  0
ARC
  5
2D1
  8
0
 10
2126.7470662072701
 20
585.54685389304871
 30
0.0
 40
5.0
 50
104.07957244197971
 51
109.6920212386941
  0
LINE
  5
2D2
  8
0
 10
2123.5037052303419
 20
589.69664793929746
 30
0.0
 11
2126.01841111269
 21
590.59664793929699
 31
0.0
  0
ARC
  5
2D3
  8
0
 10
2123.1184111126931
 20
592.69664793929735
 30
0.0
 40
0.8
 50
270.0
 51
0.0
  0
LINE
  5
2D4
  8
0
 10
2129.6266873663221
 20
629.19664793929735
 30
0.0
 11
2130.9101348590648
 21
629.19664793929735
 31
0.0
  0
LINE
  5
2D5
  8
0
 10
2126.7058453213981
 20
629.19664793929735
 30
0.0
 11
2128.4101348590648
 21
629.19664793929735
 31
0.0
  0
ARC
  5
2D6
  8
0
 10
2116.6184111126931
 20
591.39664793929808
 30
0.0
 40
0.5
 50
90.0
 51
180.0
  0
ARC
  5
2D7
  8
0
 10
2116.618411112694
 20
590.19664793929917
 30
0.0
 40
0.5
 50
180.0000000000521
 51
269.99999999994787
  0
LINE
  5
2D8
  8
0
 10
2116.1184111126931
 20
591.39664793929808
 30
0.0
 11
2116.118411112694
 21
590.19664793929917
 31
0.0
  0
LINE
  5
2D9
  8
0
 10
2116.6184111126931
 20
591.89664793929819
 30
0.0
 11
2123.1184111126931
 21
591.89664793929626
 31
0.0
  0
LINE
  5
2DA
  8
0
 10
2123.9184111126929
 20
599.59664793929892
 30
0.0
 11
2123.9184111126929
 21
597.69664793929917
 31
0.0
  0
LINE
  5
2DB
  8
0
 10
2123.918411112692
 20
602.29664793929965
 30
0.0
 11
2123.9184111126929
 21
600.39664793930001
 31
0.0
  0
LINE
  5
2DC
  8
0
 10
2123.918411112692
 20
604.99664793929855
 30
0.0
 11
2123.918411112692
 21
603.09664793929892
 31
0.0
  0
LINE
  5
2DD
  8
0
 10
2123.9184111126929
 20
607.69664793929928
 30
0.0
 11
2123.918411112692
 21
605.79664793929965
 31
0.0
  0
LINE
  5
2DE
  8
0
 10
2123.9184111126929
 20
610.39664793929808
 30
0.0
 11
2123.9184111126929
 21
608.49664793929855
 31
0.0
  0
LINE
  5
2DF
  8
0
 10
2123.9184111126929
 20
613.09664793929892
 30
0.0
 11
2123.9184111126929
 21
611.19664793929917
 31
0.0
  0
LINE
  5
2E0
  8
0
 10
2123.9184111126929
 20
615.79664793929783
 30
0.0
 11
2123.9184111126929
 21
613.89664793929819
 31
0.0
  0
LINE
  5
2E1
  8
0
 10
2123.9184111126929
 20
623.69664793929917
 30
0.0
 11
2123.9184111126929
 21
622.02664793929728
 31
0.0
  0
ARC
  5
2E2
  8
0
 10
2123.3184111126939
 20
623.99664793929855
 30
0.0
 40
0.3
 50
180.0
 51
270.0
  0
LINE
  5
2E3
  8
0
 10
2129.718411112694
 20
627.39664793929808
 30
0.0
 11
2129.718411112714
 21
627.12869874684088
 31
0.0
  0
ARC
  5
2E4
  8
0
 10
2127.5184111126928
 20
625.39664793929819
 30
0.0
 40
2.7999999999999989
 50
346.44898139233243
 51
38.213210701027208
  0
LINE
  5
2E5
  8
0
 10
2130.3176605516801
 20
625.33182064308471
 30
0.0
 11
2130.3176605516801
 21
625.46147523551338
 31
0.0
  0
ARC
  5
2E6
  8
0
 10
2128.0573266676602
 20
623.16067610948426
 30
0.0
 40
0.5
 50
283.55101860766922
 51
44.999999999917087
  0
ARC
  5
2E7
  8
0
 10
2129.7543829425072
 20
624.85773238433262
 30
0.0
 40
0.5
 50
224.99999999999079
 51
346.44898139233243
  0
ARC
  5
2E8
  8
0
 10
2127.5184111126928
 20
625.39664793929819
 30
0.0
 40
2.7999999999999989
 50
269.99999999994787
 51
283.55101860766922
  0
ARC
  5
2E9
  8
0
 10
2127.5184111126928
 20
625.39664793929819
 30
0.0
 40
2.7999999999999989
 50
346.44898139233243
 51
1.3266651394949709
  0
LINE
  5
2EA
  8
0
 10
2127.7557272916561
 20
624.16938226667276
 30
0.0
 11
2128.410880058253
 21
623.51422950007657
 31
0.0
  0
LINE
  5
2EB
  8
0
 10
2128.7456767853182
 20
625.15933176033445
 30
0.0
 11
2129.4008295519152
 21
624.50417899373826
 31
0.0
  0
ARC
  5
2EC
  8
0
 10
2127.5184111126928
 20
625.39664793929819
 30
0.0
 40
1.25
 50
349.05579774260713
 51
280.94420225745449
  0
LINE
  5
2ED
  8
0
 10
2129.718411112694
 20
592.66459713172821
 30
0.0
 11
2129.718411112694
 21
592.39664793929819
 31
0.0
  0
LINE
  5
2EE
  8
0
 10
2127.5832384089058
 20
597.19589737828369
 30
0.0
 11
2125.718411112694
 21
597.19589737828369
 31
0.0
  0
ARC
  5
2EF
  8
0
 10
2129.7543829425072
 20
594.93556349426365
 30
0.0
 40
0.5
 50
13.551018607667601
 51
135.00000000000921
  0
ARC
  5
2F0
  8
0
 10
2128.0573266676602
 20
596.63261976911213
 30
0.0
 40
0.5
 50
315.00000000000921
 51
76.448981392330822
  0
ARC
  5
2F1
  8
0
 10
2127.5184111126928
 20
594.39664793929808
 30
0.0
 40
2.7999999999999989
 50
321.78678929822217
 51
13.551018607667601
  0
ARC
  5
2F2
  8
0
 10
2127.5184111126928
 20
594.39664793929808
 30
0.0
 40
2.7999999999999989
 50
76.448981392330822
 51
91.326665139442838
  0
LINE
  5
2F3
  8
0
 10
2128.7456767853182
 20
594.63396411826193
 30
0.0
 11
2129.4008295519152
 21
595.28911688485789
 31
0.0
  0
LINE
  5
2F4
  8
0
 10
2127.7557272916561
 20
595.62391361192181
 30
0.0
 11
2128.410880058253
 21
596.27906637851777
 31
0.0
  0
LINE
  5
2F5
  8
0
 10
2123.9184111126929
 20
618.52664793929728
 30
0.0
 11
2123.9184111126929
 21
616.59664793929892
 31
0.0
  0
LINE
  5
2F6
  8
0
 10
2123.9184111126929
 20
621.2266479392963
 30
0.0
 11
2123.9184111126929
 21
619.32664793929848
 31
0.0
  0
LINE
  5
2F7
  8
0
 10
2123.0184111126941
 20
623.99664793929855
 30
0.0
 11
2123.0184111126941
 21
626.99664793929855
 31
0.0
  0
LINE
  5
2F8
  8
0
 10
2123.9184111126929
 20
623.69664793929917
 30
0.0
 11
2123.3184111126939
 21
623.69664793929917
 31
0.0
  0
ARC
  5
2F9
  8
0
 10
2125.5184111126941
 20
626.99664793929855
 30
0.0
 40
2.5
 50
61.642363423643928
 51
180.0
  0
LINE
  5
2FA
  8
0
 10
2123.0184111126941
 20
621.62664793929775
 30
0.0
 11
2123.0184111126941
 21
621.7266479392963
 31
0.0
  0
ARC
  5
2FB
  8
0
 10
2123.318411112693
 20
621.52664793929728
 30
0.0
 40
0.3
 50
180.0
 51
270.0
  0
ARC
  5
2FC
  8
0
 10
2123.318411112693
 20
621.7266479392963
 30
0.0
 40
0.3
 50
90.0
 51
180.0
  0
LINE
  5
2FD
  8
0
 10
2123.318411112693
 20
621.2266479392963
 30
0.0
 11
2123.9184111126929
 21
621.2266479392963
 31
0.0
  0
LINE
  5
2FE
  8
0
 10
2123.0184111126941
 20
621.7266479392963
 30
0.0
 11
2123.0184111126941
 21
621.52664793929728
 31
0.0
  0
LINE
  5
2FF
  8
0
 10
2123.9184111126929
 20
622.02664793929728
 30
0.0
 11
2123.318411112693
 21
622.02664793929728
 31
0.0
  0
LINE
  5
300
  8
0
 10
2123.9184111126929
 20
616.59664793929699
 30
0.0
 11
2123.318411112693
 21
616.59664793929699
 31
0.0
  0
LINE
  5
301
  8
0
 10
2123.0184111126941
 20
616.29664793929783
 30
0.0
 11
2123.0184111126941
 21
616.09664793929699
 31
0.0
  0
LINE
  5
302
  8
0
 10
2123.318411112693
 20
615.79664793929783
 30
0.0
 11
2123.9184111126929
 21
615.79664793929783
 31
0.0
  0
ARC
  5
303
  8
0
 10
2123.318411112693
 20
616.29664793929783
 30
0.0
 40
0.3
 50
90.0
 51
180.0
  0
ARC
  5
304
  8
0
 10
2123.318411112693
 20
616.09664793929699
 30
0.0
 40
0.3
 50
180.0
 51
270.0
  0
LINE
  5
305
  8
0
 10
2123.9184111126929
 20
597.69664793929917
 30
0.0
 11
2123.318411112693
 21
597.69664793929917
 31
0.0
  0
LINE
  5
306
  8
0
 10
2123.0184111126941
 20
597.39664793929819
 30
0.0
 11
2123.0184111126941
 21
597.19664793929917
 31
0.0
  0
LINE
  5
307
  8
0
 10
2123.318411112693
 20
596.89664793929819
 30
0.0
 11
2123.9184111126929
 21
596.89664793929819
 31
0.0
  0
ARC
  5
308
  8
0
 10
2123.318411112693
 20
597.39664793929819
 30
0.0
 40
0.3
 50
90.0
 51
180.0
  0
ARC
  5
309
  8
0
 10
2123.318411112693
 20
597.19664793929917
 30
0.0
 40
0.3
 50
180.0
 51
270.0
  0
LINE
  5
30A
  8
0
 10
2116.618411112694
 20
589.69664793929746
 30
0.0
 11
2123.503705230341
 21
589.69664793929746
 31
0.0
  0
ARC
  5
30B
  8
0
 10
2127.3343992813152
 20
599.59664793929699
 30
0.0
 40
0.2
 50
270.0
 51
0.0600633506919411
  0
ARC
  5
30C
  8
0
 10
2127.3339799598712
 20
599.99664793929855
 30
0.0
 40
0.2
 50
0.0600633506919411
 51
90.0
  0
ARC
  5
30D
  8
0
 10
2126.7339799598708
 20
619.99664793929674
 30
0.0
 40
0.2
 50
270.0
 51
359.93993664930798
  0
ARC
  5
30E
  8
0
 10
2126.7343992813162
 20
620.39664793929626
 30
0.0
 40
0.2
 50
359.93993664930798
 51
90.0
  0
LINE
  5
30F
  8
0
 10
2125.718411112694
 20
599.39664793929808
 30
0.0
 11
2125.718411112694
 21
597.19589737828369
 31
0.0
  0
LINE
  5
310
  8
0
 10
2125.718411112694
 20
619.79664793929601
 30
0.0
 11
2125.718411112694
 21
600.19664793929735
 31
0.0
  0
LINE
  5
311
  8
0
 10
2125.718411112694
 20
620.59664793929699
 30
0.0
 11
2125.718411112694
 21
622.5966479392971
 31
0.0
  0
ARC
  5
312
  8
0
 10
2127.5184111126928
 20
625.39664793929819
 30
0.0
 40
1.25
 50
0.0
 51
279.20689622133739
  0
LINE
  5
313
  8
0
 10
2125.718411112694
 20
622.5966479392988
 30
0.0
 11
2127.5184111126928
 21
622.5966479392971
 31
0.0
  0
LINE
  5
314
  8
0
 10
2125.718411112694
 20
620.59664793929699
 30
0.0
 11
2126.7343992813162
 21
620.59664793929699
 31
0.0
  0
LINE
  5
315
  8
0
 10
2125.718411112694
 20
619.79664793929601
 30
0.0
 11
2126.7339799598708
 21
619.79664793929601
 31
0.0
  0
LINE
  5
316
  8
0
 10
2126.9343991714218
 20
620.39643827868872
 30
0.0
 11
2126.9339798499759
 21
619.99643827868897
 31
0.0
  0
LINE
  5
317
  8
0
 10
2127.5343991714208
 20
599.59685759990475
 30
0.0
 11
2127.5339798499749
 21
599.99685759990621
 31
0.0
  0
LINE
  5
318
  8
0
 10
2125.718411112694
 20
600.19664793929564
 30
0.0
 11
2127.3339799598712
 21
600.19664793929735
 31
0.0
  0
LINE
  5
319
  8
0
 10
2125.718411112694
 20
599.39664793929808
 30
0.0
 11
2127.3343992813152
 21
599.39664793929808
 31
0.0
  0
ARC
  5
31A
  8
0
 10
2127.5184111126928
 20
594.39664793929808
 30
0.0
 40
1.25
 50
79.055797742598443
 51
10.944202257449771
  0
ARC
  5
31B
  8
0
 10
2126.7470662072701
 20
585.54685389304871
 30
0.0
 40
5.0
 50
104.07957244197971
 51
109.6920212386941
  0
LINE
  5
31C
  8
0
 10
2123.5037052303419
 20
589.69664793929746
 30
0.0
 11
2126.01841111269
 21
590.59664793929699
 31
0.0
  0
ARC
  5
31D
  8
0
 10
2123.1184111126931
 20
592.69664793929735
 30
0.0
 40
0.8
 50
270.0
 51
0.0
  0
ARC
  5
31E
  8
0
 10
2132.1266873663249
 20
629.39664793929626
 30
0.0
 40
0.2
 50
217.4952497371884
 51
270.00000000010419
  0
ARC
  5
31F
  8
0
 10
2130.9101348590648
 20
629.39664793929626
 30
0.0
 40
0.2
 50
270.0
 51
322.50475026281151
  0
ARC
  5
320
  8
0
 10
2129.6266873663221
 20
629.39664793929626
 30
0.0
 40
0.2
 50
217.4952497371884
 51
269.99999999979161
  0
ARC
  5
321
  8
0
 10
2128.4101348590648
 20
629.39664793929626
 30
0.0
 40
0.2
 50
270.0
 51
322.50475026281151
  0
LINE
  5
322
  8
0
 10
2129.6266873663221
 20
629.19664793929735
 30
0.0
 11
2130.9101348590648
 21
629.19664793929735
 31
0.0
  0
ARC
  5
323
  8
0
 10
2131.518411112695
 20
628.92998127263104
 30
0.0
 40
0.5666666666667397
 50
37.495249737188459
 51
142.50475026281151
  0
ARC
  5
324
  8
0
 10
2129.018411112695
 20
628.92998127263104
 30
0.0
 40
0.5666666666665391
 50
37.49524973726988
 51
142.50475026281151
  0
LINE
  5
325
  8
0
 10
2126.7058453213981
 20
629.19664793929735
 30
0.0
 11
2128.4101348590648
 21
629.19664793929735
 31
0.0
  0
ARC
  5
326
  8
0
 10
2116.6184111126931
 20
591.39664793929808
 30
0.0
 40
0.5
 50
90.0
 51
180.0
  0
ARC
  5
327
  8
0
 10
2116.618411112694
 20
590.19664793929917
 30
0.0
 40
0.5
 50
180.0000000000521
 51
269.99999999994787
  0
LINE
  5
328
  8
0
 10
2116.1184111126931
 20
591.39664793929808
 30
0.0
 11
2116.118411112694
 21
590.19664793929917
 31
0.0
  0
LINE
  5
329
  8
0
 10
2116.6184111126931
 20
591.89664793929819
 30
0.0
 11
2123.1184111126931
 21
591.89664793929626
 31
0.0
  0
LINE
  5
32A
  8
0
 10
2123.9184111126929
 20
596.8966479392999
 30
0.0
 11
2123.9184111126929
 21
592.69664793929735
 31
0.0
  0
LINE
  5
32B
  8
0
 10
2123.9184111126929
 20
599.59664793929892
 30
0.0
 11
2123.9184111126929
 21
597.69664793929917
 31
0.0
  0
LINE
  5
32C
  8
0
 10
2123.918411112692
 20
602.29664793929965
 30
0.0
 11
2123.9184111126929
 21
600.39664793930001
 31
0.0
  0
LINE
  5
32D
  8
0
 10
2123.918411112692
 20
604.99664793929855
 30
0.0
 11
2123.918411112692
 21
603.09664793929892
 31
0.0
  0
LINE
  5
32E
  8
0
 10
2123.9184111126929
 20
607.69664793929928
 30
0.0
 11
2123.918411112692
 21
605.79664793929965
 31
0.0
  0
LINE
  5
32F
  8
0
 10
2123.9184111126929
 20
610.39664793929808
 30
0.0
 11
2123.9184111126929
 21
608.49664793929855
 31
0.0
  0
LINE
  5
330
  8
0
 10
2123.9184111126929
 20
613.09664793929892
 30
0.0
 11
2123.9184111126929
 21
611.19664793929917
 31
0.0
  0
LINE
  5
331
  8
0
 10
2123.9184111126929
 20
615.79664793929783
 30
0.0
 11
2123.9184111126929
 21
613.89664793929819
 31
0.0
  0
LINE
  5
332
  8
0
 10
2123.9184111126929
 20
623.69664793929917
 30
0.0
 11
2123.9184111126929
 21
622.02664793929728
 31
0.0
  0
LINE
  5
333
  8
0
 10
2123.9184111126929
 20
600.39664793930001
 30
0.0
 11
2123.318411112693
 21
600.39664793930001
 31
0.0
  0
LINE
  5
334
  8
0
 10
2123.0184111126941
 20
600.09664793929892
 30
0.0
 11
2123.0184111126941
 21
599.89664793930001
 31
0.0
  0
LINE
  5
335
  8
0
 10
2123.318411112693
 20
599.59664793929892
 30
0.0
 11
2123.9184111126929
 21
599.59664793929892
 31
0.0
  0
ARC
  5
336
  8
0
 10
2123.318411112693
 20
600.09664793929892
 30
0.0
 40
0.3
 50
90.0
 51
180.0
  0
ARC
  5
337
  8
0
 10
2123.318411112693
 20
599.89664793930001
 30
0.0
 40
0.3
 50
180.0
 51
270.0
  0
LINE
  5
338
  8
0
 10
2123.718411112694
 20
596.8966479392999
 30
0.0
 11
2123.9184111126929
 21
596.8966479392999
 31
0.0
  0
LINE
  5
339
  8
0
 10
2123.9184111126929
 20
597.69664793929917
 30
0.0
 11
2123.718411112694
 21
597.69664793929917
 31
0.0
  0
LINE
  5
33A
  8
0
 10
2123.9184111126929
 20
603.09664793929892
 30
0.0
 11
2123.318411112693
 21
603.09664793929892
 31
0.0
  0
LINE
  5
33B
  8
0
 10
2123.0184111126941
 20
602.79664793929965
 30
0.0
 11
2123.0184111126941
 21
602.59664793929892
 31
0.0
  0
LINE
  5
33C
  8
0
 10
2123.318411112693
 20
602.29664793929965
 30
0.0
 11
2123.9184111126929
 21
602.29664793929965
 31
0.0
  0
ARC
  5
33D
  8
0
 10
2123.318411112693
 20
602.79664793929965
 30
0.0
 40
0.3
 50
90.0
 51
180.0
  0
ARC
  5
33E
  8
0
 10
2123.318411112693
 20
602.59664793929892
 30
0.0
 40
0.3
 50
180.0
 51
270.0
  0
ARC
  5
33F
  8
0
 10
2123.318411112693
 20
605.29664793929965
 30
0.0
 40
0.3
 50
180.0
 51
270.0
  0
ARC
  5
340
  8
0
 10
2123.318411112693
 20
605.49664793929855
 30
0.0
 40
0.3
 50
90.0
 51
180.0
  0
LINE
  5
341
  8
0
 10
2123.318411112693
 20
604.99664793929855
 30
0.0
 11
2123.9184111126929
 21
604.99664793929855
 31
0.0
  0
LINE
  5
342
  8
0
 10
2123.0184111126941
 20
605.49664793929855
 30
0.0
 11
2123.0184111126941
 21
605.29664793929965
 31
0.0
  0
LINE
  5
343
  8
0
 10
2123.9184111126929
 20
605.79664793929965
 30
0.0
 11
2123.318411112693
 21
605.79664793929965
 31
0.0
  0
LINE
  5
344
  8
0
 10
2123.9184111126929
 20
611.19664793929917
 30
0.0
 11
2123.318411112693
 21
611.19664793929917
 31
0.0
  0
LINE
  5
345
  8
0
 10
2123.0184111126941
 20
610.89664793929808
 30
0.0
 11
2123.0184111126941
 21
610.69664793929917
 31
0.0
  0
LINE
  5
346
  8
0
 10
2123.318411112693
 20
610.39664793929808
 30
0.0
 11
2123.9184111126929
 21
610.39664793929808
 31
0.0
  0
ARC
  5
347
  8
0
 10
2123.318411112693
 20
610.89664793929808
 30
0.0
 40
0.3
 50
90.0
 51
180.0
  0
ARC
  5
348
  8
0
 10
2123.318411112693
 20
610.69664793929917
 30
0.0
 40
0.3
 50
180.0
 51
270.0
  0
ARC
  5
349
  8
0
 10
2123.318411112693
 20
607.99664793929855
 30
0.0
 40
0.3
 50
180.0
 51
270.0
  0
ARC
  5
34A
  8
0
 10
2123.318411112693
 20
608.19664793929928
 30
0.0
 40
0.3
 50
90.0
 51
180.0
  0
LINE
  5
34B
  8
0
 10
2123.318411112693
 20
607.69664793929928
 30
0.0
 11
2123.9184111126929
 21
607.69664793929928
 31
0.0
  0
LINE
  5
34C
  8
0
 10
2123.0184111126941
 20
608.19664793929928
 30
0.0
 11
2123.0184111126941
 21
607.99664793929855
 31
0.0
  0
LINE
  5
34D
  8
0
 10
2123.9184111126929
 20
608.49664793929855
 30
0.0
 11
2123.318411112693
 21
608.49664793929855
 31
0.0
  0
LINE
  5
34E
  8
0
 10
2123.9184111126929
 20
613.89664793929819
 30
0.0
 11
2123.318411112693
 21
613.89664793929819
 31
0.0
  0
LINE
  5
34F
  8
0
 10
2123.0184111126941
 20
613.59664793929892
 30
0.0
 11
2123.0184111126941
 21
613.39664793929819
 31
0.0
  0
LINE
  5
350
  8
0
 10
2123.318411112693
 20
613.09664793929892
 30
0.0
 11
2123.9184111126929
 21
613.09664793929892
 31
0.0
  0
ARC
  5
351
  8
0
 10
2123.318411112693
 20
613.59664793929892
 30
0.0
 40
0.3
 50
90.0
 51
180.0
  0
ARC
  5
352
  8
0
 10
2123.318411112693
 20
613.39664793929819
 30
0.0
 40
0.3
 50
180.0
 51
270.0
  0
ARC
  5
353
  8
0
 10
2123.318411112693
 20
618.82664793929848
 30
0.0
 40
0.3
 50
180.0
 51
270.0
  0
ARC
  5
354
  8
0
 10
2123.318411112693
 20
619.02664793929739
 30
0.0
 40
0.3
 50
90.0
 51
180.0
  0
LINE
  5
355
  8
0
 10
2123.318411112693
 20
618.52664793929728
 30
0.0
 11
2123.9184111126929
 21
618.52664793929728
 31
0.0
  0
LINE
  5
356
  8
0
 10
2123.0184111126941
 20
619.02664793929739
 30
0.0
 11
2123.0184111126941
 21
618.82664793929848
 31
0.0
  0
LINE
  5
357
  8
0
 10
2123.9184111126929
 20
619.32664793929848
 30
0.0
 11
2123.318411112693
 21
619.32664793929848
 31
0.0
  0
INSERT
  5
358
  8
0
 62
     1
  2
*U37
 10
0.0
 20
0.0
 30
0.0
  0
INSERT
  5
359
  8
0
 62
     1
  2
*U38
 10
0.0
 20
0.0
 30
0.0
  0
INSERT
  5
35A
  8
0
 62
     1
  2
*U39
 10
0.0
 20
0.0
 30
0.0
  0
INSERT
  5
35B
  8
0
 62
     1
  2
*U40
 10
0.0
 20
0.0
 30
0.0
  0
INSERT
  5
35C
  8
0
 62
     1
  2
*U41
 10
0.0
 20
0.0
 30
0.0
  0
INSERT
  5
35D
  8
0
 62
     1
  2
*U42
 10
0.0
 20
0.0
 30
0.0
  0
INSERT
  5
35E
  8
0
 62
     1
  2
*U43
 10
0.0
 20
0.0
 30
0.0
  0
INSERT
  5
35F
  8
0
 62
     1
  2
*U44
 10
0.0
 20
0.0
 30
0.0
  0
INSERT
  5
360
  8
0
 62
     1
  2
*U45
 10
0.0
 20
0.0
 30
0.0
  0
INSERT
  5
361
  8
0
 62
     1
  2
*U46
 10
0.0
 20
0.0
 30
0.0
  0
INSERT
  5
362
  8
0
 62
     1
  2
*U47
 10
0.0
 20
0.0
 30
0.0
  0
INSERT
  5
363
  8
0
 62
     1
  2
*U48
 10
0.0
 20
0.0
 30
0.0
  0
INSERT
  5
364
  8
0
 62
     1
  2
*U49
 10
0.0
 20
0.0
 30
0.0
  0
INSERT
  5
365
  8
0
 62
     1
  2
*U50
 10
0.0
 20
0.0
 30
0.0
  0
INSERT
  5
366
  8
0
 62
     1
  2
*U51
 10
0.0
 20
0.0
 30
0.0
  0
INSERT
  5
367
  8
0
 62
     1
  2
*U52
 10
0.0
 20
0.0
 30
0.0
  0
INSERT
  5
368
  8
0
 62
     1
  2
*U53
 10
0.0
 20
0.0
 30
0.0
  0
INSERT
  5
369
  8
0
 62
     1
  2
*U54
 10
0.0
 20
0.0
 30
0.0
  0
INSERT
  5
36A
  8
0
 62
     1
  2
*U55
 10
0.0
 20
0.0
 30
0.0
  0
LINE
  5
36B
  8
0
 10
2082.1220575122811
 20
483.75058961605259
 30
0.0
 11
2122.5308231376798
 21
483.75058961605259
 31
0.0
  0
LINE
  5
36C
  8
0
 10
2082.1220575122811
 20
488.75058961605259
 30
0.0
 11
2122.5308231376798
 21
488.75058961605259
 31
0.0
  0
LINE
  5
36D
  8
0
 10
2082.1220575122811
 20
493.75058961605259
 30
0.0
 11
2122.5308231376798
 21
493.75058961605259
 31
0.0
  0
LINE
  5
36E
  8
0
 10
2082.1220575122811
 20
498.75058961605248
 30
0.0
 11
2122.5308231376798
 21
498.75058961605248
 31
0.0
  0
LINE
  5
36F
  8
0
 10
2082.1220575122811
 20
503.75058961605248
 30
0.0
 11
2122.5308231376798
 21
503.75058961605248
 31
0.0
  0
LINE
  5
370
  8
0
 10
2082.1220575122811
 20
508.75058961605259
 30
0.0
 11
2122.5308231376798
 21
508.75058961605259
 31
0.0
  0
LINE
  5
371
  8
0
 10
2082.1220575122811
 20
513.75058961605259
 30
0.0
 11
2122.5308231376798
 21
513.75058961605259
 31
0.0
  0
LINE
  5
372
  8
0
 10
2082.1220575122811
 20
518.75058961605259
 30
0.0
 11
2122.5308231376798
 21
518.75058961605259
 31
0.0
  0
INSERT
  5
373
  8
0
 62
     1
  2
*U56
 10
0.0
 20
0.0
 30
0.0
  0
INSERT
  5
374
  8
0
 62
     1
  2
*U57
 10
0.0
 20
0.0
 30
0.0
  0
LINE
  5
375
  8
0
 10
2102.9879048737312
 20
483.75058961605259
 30
0.0
 11
2102.9879048737312
 21
533.75058961605259
 31
0.0
  0
LINE
  5
376
  8
0
 10
2082.1220575122811
 20
523.75058961605248
 30
0.0
 11
2122.5308231376798
 21
523.75058961605248
 31
0.0
  0
LINE
  5
377
  8
0
 10
2082.1220575122811
 20
528.75058961605248
 30
0.0
 11
2122.5308231376798
 21
528.75058961605248
 31
0.0
  0
LINE
  5
378
  8
0
 10
2082.1220575122811
 20
533.75058961605259
 30
0.0
 11
2122.5308231376798
 21
533.75058961605259
 31
0.0
  0
LINE
  5
379
  8
0
 10
2082.1220575122811
 20
483.75058961605259
 30
0.0
 11
2082.1220575122811
 21
538.75058961605259
 31
0.0
  0
LINE
  5
37A
  8
0
 10
2122.5308231376798
 20
538.75058961605259
 30
0.0
 11
2122.5308231376798
 21
483.75058961605259
 31
0.0
  0
LINE
  5
37B
  8
0
 10
2082.1220575122811
 20
538.75058961605259
 30
0.0
 11
2122.5308231376798
 21
538.75058961605259
 31
0.0
  0
INSERT
  5
37C
  8
0
 62
     1
  2
*U58
 10
0.0
 20
0.0
 30
0.0
  0
INSERT
  5
37D
  8
0
 62
     1
  2
*U59
 10
0.0
 20
0.0
 30
0.0
  0
INSERT
  5
37F
  8
0
 62
     1
  2
*U60
 10
0.0
 20
0.0
 30
0.0
  0
DIMENSION
  5
380
  8
0
  2
*D5
 10
2317.948454168813
 20
593.54312386726974
 30
0.0
 11
2317.948454168813
 21
608.99666122930626
 31
0.0
 70
   128
 13
2304.4477886576501
 23
624.54312386726974
 33
0.0
 14
2304.4477886576519
 24
593.54312386726974
 34
0.0
 50
90.0
1001
ACAD
1000
DSTYLE
1002
{
1070
   287
1070
     4
1070
   140
1040
5.0
1070
   279
1070
     1
1002
}
  0
DIMENSION
  5
381
  8
0
  2
*D6
 10
2304.4477886576501
 20
641.14607653527833
 30
0.0
 11
2271.6164388974812
 21
641.14607653527833
 31
0.0
 70
   128
 13
2238.0477886576509
 23
624.54312386726974
 33
0.0
 14
2304.4477886576501
 24
624.54312386726974
 34
0.0
1001
ACAD
1000
DSTYLE
1002
{
1070
   287
1070
     4
1070
   140
1040
5.0
1070
   279
1070
     1
1002
}
  0
DIMENSION
  5
383
  8
0
  2
*D7
 10
2308.0477886576532
 20
575.20680867931026
 30
0.0
 11
2271.2477886576521
 21
576.50680867931032
 31
0.0
 70
     0
 13
2234.447788657651
 23
607.64312386727011
 33
0.0
 14
2308.0477886576532
 24
608.59312386726992
 34
0.0
1001
ACAD
1000
DSTYLE
1002
{
1070
   287
1070
     4
1070
   140
1040
5.0
1070
   279
1070
     1
1002
}
  0
DIMENSION
  5
384
  8
0
  2
*D8
 10
2274.7477886576562
 20
589.04312386726974
 30
0.0
 11
2274.7477886576562
 21
608.69312386727006
 31
0.0
 70
     0
 13
2271.2477886576521
 23
628.34312386726992
 33
0.0
 14
2271.2677343862811
 24
589.04312386726974
 34
0.0
 50
90.0
1001
ACAD
1000
DSTYLE
1002
{
1070
   287
1070
     4
1070
   140
1040
5.0
1070
   279
1070
     1
1002
}
  0
LINE
  5
385
  8
0
 10
2302.339512404023
 20
628.34312386726992
 30
0.0
 11
2301.0560649112799
 21
628.34312386726992
 31
0.0
  0
LINE
  5
386
  8
0
 10
2305.2603544489461
 20
628.34312386726992
 30
0.0
 11
2303.5560649112799
 21
628.34312386726992
 31
0.0
  0
LINE
  5
387
  8
0
 10
2301.0560649112799
 20
628.34312386726992
 30
0.0
 11
2302.3395124040212
 21
628.34312386726992
 31
0.0
  0
LINE
  5
388
  8
0
 10
2303.5560649112799
 20
628.34312386726992
 30
0.0
 11
2305.2603544489461
 21
628.34312386726992
 31
0.0
  0
LINE
  5
389
  8
0
 10
2308.0477886576532
 20
622.34312386727174
 30
0.0
 11
2308.0477886576532
 21
621.17312386726985
 31
0.0
  0
LINE
  5
38A
  8
0
 10
2305.260354448948
 20
628.34312386726992
 30
0.0
 11
2303.5560649112799
 21
628.34312386726992
 31
0.0
  0
LINE
  5
38B
  8
0
 10
2302.339512404023
 20
628.34312386726992
 30
0.0
 11
2301.0560649112799
 21
628.34312386726992
 31
0.0
  0
ARC
  5
38C
  8
0
 10
2306.4477886576519
 20
626.14312386727102
 30
0.0
 40
2.5
 50
0.0
 51
118.357636576356
  0
LINE
  5
38D
  8
0
 10
2308.5477886576532
 20
622.84312386727174
 30
0.0
 11
2308.6477886576508
 21
622.84312386727083
 31
0.0
  0
LINE
  5
38E
  8
0
 10
2308.9477886576519
 20
623.14312386727102
 30
0.0
 11
2308.9477886576519
 21
626.14312386727102
 31
0.0
  0
LINE
  5
38F
  8
0
 10
2308.0477886576532
 20
620.37312386726876
 30
0.0
 11
2308.0477886576532
 21
618.47312386727003
 31
0.0
  0
ARC
  5
390
  8
0
 10
2308.6477886576508
 20
623.14312386727102
 30
0.0
 40
0.3
 50
270.0
 51
0.0
  0
CIRCLE
  5
391
  8
0
 10
2304.4477886576501
 20
624.54312386726974
 30
0.0
 40
1.75
  0
ARC
  5
392
  8
0
 10
2308.5477886576532
 20
622.34312386727174
 30
0.0
 40
0.5
 50
90.0
 51
180.0
  0
LINE
  5
393
  8
0
 10
2308.0477886576532
 20
614.94312386726926
 30
0.0
 11
2308.0477886576532
 21
613.04312386727065
 31
0.0
  0
LINE
  5
394
  8
0
 10
2308.0477886576532
 20
612.24312386727036
 30
0.0
 11
2308.0477886576532
 21
610.34312386727083
 31
0.0
  0
LINE
  5
395
  8
0
 10
2308.0477886576532
 20
609.54312386726974
 30
0.0
 11
2308.0477886576532
 21
607.64312386727011
 31
0.0
  0
LINE
  5
396
  8
0
 10
2308.0477886576532
 20
606.84312386727083
 30
0.0
 11
2308.0477886576532
 21
604.9431238672712
 31
0.0
  0
LINE
  5
397
  8
0
 10
2308.0477886576532
 20
601.44312386727108
 30
0.0
 11
2308.0477886576532
 21
599.54312386727145
 31
0.0
  0
LINE
  5
398
  8
0
 10
2308.0477886576532
 20
598.74312386727036
 30
0.0
 11
2308.0477886576532
 21
596.84312386727083
 31
0.0
  0
LINE
  5
399
  8
0
 10
2307.3793065826239
 20
589.23079113622748
 30
0.0
 11
2305.9477886576519
 21
589.74312386726945
 31
0.0
  0
CIRCLE
  5
39A
  8
0
 10
2304.4477886576519
 20
593.54312386726974
 30
0.0
 40
1.75
  0
LINE
  5
39B
  8
0
 10
2308.0477886576532
 20
604.14312386727011
 30
0.0
 11
2308.0477886576532
 21
602.24312386727127
 31
0.0
  0
LINE
  5
39C
  8
0
 10
2305.9477886576542
 20
589.74312386727036
 30
0.0
 11
2277.7477886576521
 21
589.74312386726945
 31
0.0
  0
LINE
  5
39D
  8
0
 10
2267.7876801149132
 20
589.04312386726974
 30
0.0
 11
2274.7477886576498
 21
589.04312386726974
 31
0.0
  0
LINE
  5
39E
  8
0
 10
2267.7876801149132
 20
589.04312386727065
 30
0.0
 11
2274.7477886576562
 21
589.04312386727065
 31
0.0
  0
LINE
  5
39F
  8
0
 10
2267.7477886576521
 20
589.04312386726974
 30
0.0
 11
2274.7078972003901
 21
589.04312386726974
 31
0.0
  0
LINE
  5
3A0
  8
0
 10
2264.7477886576521
 20
589.74312386726945
 30
0.0
 11
2267.7876801149132
 21
589.04312386727065
 31
0.0
  0
LINE
  5
3A1
  8
0
 10
2274.7477886576521
 20
589.04312386726974
 30
0.0
 11
2277.7477886576521
 21
589.74312386726945
 31
0.0
  0
ARC
  5
3A2
  8
0
 10
2307.5477886576532
 20
589.70154987527962
 30
0.0
 40
0.5
 50
250.3079787611951
 51
0.0
  0
LINE
  5
3A3
  8
0
 10
2308.0477886576532
 20
622.34312386727174
 30
0.0
 11
2308.0477886576532
 21
589.70154987527962
 31
0.0
  0
LINE
  5
3A4
  8
0
 10
2308.0477886576532
 20
617.67312386726894
 30
0.0
 11
2308.0477886576532
 21
615.74312386727036
 31
0.0
  0
LINE
  5
3A5
  8
0
 10
2234.447788657651
 20
622.34312386727174
 30
0.0
 11
2234.447788657651
 21
621.17312386726985
 31
0.0
  0
LINE
  5
3A6
  8
0
 10
2237.2352228663558
 20
628.34312386726992
 30
0.0
 11
2238.9395124040229
 21
628.34312386726992
 31
0.0
  0
LINE
  5
3A7
  8
0
 10
2240.1560649112812
 20
628.34312386726992
 30
0.0
 11
2241.4395124040229
 21
628.34312386726992
 31
0.0
  0
ARC
  5
3A8
  8
0
 10
2236.0477886576509
 20
626.14312386727102
 30
0.0
 40
2.5
 50
61.642363423643928
 51
180.0
  0
LINE
  5
3A9
  8
0
 10
2233.947788657651
 20
622.84312386727174
 30
0.0
 11
2233.847788657652
 21
622.84312386727083
 31
0.0
  0
LINE
  5
3AA
  8
0
 10
2233.5477886576509
 20
623.14312386727102
 30
0.0
 11
2233.5477886576509
 21
626.14312386727102
 31
0.0
  0
LINE
  5
3AB
  8
0
 10
2234.447788657651
 20
620.37312386726876
 30
0.0
 11
2234.447788657651
 21
618.47312386727003
 31
0.0
  0
ARC
  5
3AC
  8
0
 10
2233.847788657652
 20
623.14312386727102
 30
0.0
 40
0.3
 50
180.0
 51
270.0
  0
CIRCLE
  5
3AD
  8
0
 10
2238.0477886576509
 20
624.54312386726974
 30
0.0
 40
1.75
  0
ARC
  5
3AE
  8
0
 10
2233.947788657651
 20
622.34312386727174
 30
0.0
 40
0.5
 50
0.0
 51
90.0
  0
LINE
  5
3AF
  8
0
 10
2234.447788657651
 20
614.94312386726926
 30
0.0
 11
2234.447788657651
 21
613.04312386727065
 31
0.0
  0
LINE
  5
3B0
  8
0
 10
2234.447788657651
 20
612.24312386727036
 30
0.0
 11
2234.447788657651
 21
610.34312386727083
 31
0.0
  0
LINE
  5
3B1
  8
0
 10
2234.447788657651
 20
609.54312386726974
 30
0.0
 11
2234.447788657651
 21
607.64312386727011
 31
0.0
  0
LINE
  5
3B2
  8
0
 10
2234.447788657651
 20
606.84312386727083
 30
0.0
 11
2234.447788657651
 21
604.9431238672712
 31
0.0
  0
LINE
  5
3B3
  8
0
 10
2234.447788657651
 20
601.44312386727108
 30
0.0
 11
2234.447788657651
 21
599.54312386727145
 31
0.0
  0
LINE
  5
3B4
  8
0
 10
2234.447788657651
 20
598.74312386727036
 30
0.0
 11
2234.447788657651
 21
596.84312386727083
 31
0.0
  0
LINE
  5
3B5
  8
0
 10
2235.1162707326812
 20
589.23079113622839
 30
0.0
 11
2236.5477886576468
 21
589.74312386726945
 31
0.0
  0
ARC
  5
3B6
  8
0
 10
2237.2764437522278
 20
584.69332982102037
 30
0.0
 40
5.0
 50
104.07957244197971
 51
109.6920212386941
  0
CIRCLE
  5
3B7
  8
0
 10
2238.0477886576509
 20
593.54312386726974
 30
0.0
 40
1.75
  0
LINE
  5
3B8
  8
0
 10
2234.447788657651
 20
604.14312386727011
 30
0.0
 11
2234.447788657651
 21
602.24312386727127
 31
0.0
  0
ARC
  5
3B9
  8
0
 10
2234.947788657651
 20
589.70154987528053
 30
0.0
 40
0.5
 50
180.0
 51
289.6920212388049
  0
LINE
  5
3BA
  8
0
 10
2234.447788657651
 20
622.34312386727174
 30
0.0
 11
2234.447788657651
 21
589.70154987528053
 31
0.0
  0
LINE
  5
3BB
  8
0
 10
2234.447788657651
 20
617.67312386726894
 30
0.0
 11
2234.447788657651
 21
615.74312386727036
 31
0.0
  0
LINE
  5
3BC
  8
0
 10
2242.656064911283
 20
628.34312386726992
 30
0.0
 11
2299.8395124040212
 21
628.34312386726992
 31
0.0
  0
LINE
  5
3BD
  8
0
 10
2236.5477886576491
 20
589.74312386726945
 30
0.0
 11
2264.7477886576521
 21
589.74312386726945
 31
0.0
  0
LINE
  5
3BE
  8
0
 10
2303.5560649112799
 20
628.34312386727083
 30
0.0
 11
2238.9395124040229
 21
628.34312386726992
 31
0.0
  0
LINE
  5
3BF
  8
0
 10
2164.218411112694
 20
589.89664793929808
 30
0.0
 11
2167.218411112694
 21
590.59664793929699
 31
0.0
  0
LINE
  5
3C0
  8
0
 10
2154.218411112694
 20
590.59664793929699
 30
0.0
 11
2157.258302569956
 21
589.89664793929808
 31
0.0
  0
ARC
  5
3C1
  8
0
 10
2198.118411112694
 20
623.99664793929855
 30
0.0
 40
0.3
 50
270.0
 51
0.0
  0
LINE
  5
3C2
  8
0
 10
2197.518411112695
 20
618.52664793929728
 30
0.0
 11
2197.518411112695
 21
616.59664793929892
 31
0.0
  0
LINE
  5
3C3
  8
0
 10
2197.518411112695
 20
621.2266479392963
 30
0.0
 11
2197.518411112695
 21
619.32664793929848
 31
0.0
  0
LINE
  5
3C4
  8
0
 10
2198.4184111126938
 20
623.99664793929855
 30
0.0
 11
2198.4184111126938
 21
626.99664793929855
 31
0.0
  0
LINE
  5
3C5
  8
0
 10
2197.518411112695
 20
623.69664793929917
 30
0.0
 11
2198.118411112694
 21
623.69664793929917
 31
0.0
  0
ARC
  5
3C6
  8
0
 10
2195.9184111126938
 20
626.99664793929855
 30
0.0
 40
2.5
 50
0.0
 51
118.357636576356
  0
LINE
  5
3C7
  8
0
 10
2204.8184111126939
 20
589.69664793929746
 30
0.0
 11
2197.9331169950469
 21
589.69664793929746
 31
0.0
  0
LINE
  5
3C8
  8
0
 10
2195.418411112696
 20
590.59664793929892
 30
0.0
 11
2167.218411112694
 21
590.59664793929699
 31
0.0
  0
LINE
  5
3C9
  8
0
 10
2197.933116995046
 20
589.69664793929746
 30
0.0
 11
2195.4184111126951
 21
590.59664793929699
 31
0.0
  0
ARC
  5
3CA
  8
0
 10
2198.3184111126948
 20
592.69664793929735
 30
0.0
 40
0.8
 50
180.0
 51
270.0
  0
LINE
  5
3CB
  8
0
 10
2191.8101348590649
 20
629.19664793929735
 30
0.0
 11
2190.526687366324
 21
629.19664793929735
 31
0.0
  0
LINE
  5
3CC
  8
0
 10
2194.7309769039889
 20
629.19664793929735
 30
0.0
 11
2193.0266873663231
 21
629.19664793929735
 31
0.0
  0
ARC
  5
3CD
  8
0
 10
2204.8184111126948
 20
591.39664793929808
 30
0.0
 40
0.5
 50
0.0
 51
90.0
  0
ARC
  5
3CE
  8
0
 10
2204.8184111126939
 20
590.19664793929917
 30
0.0
 40
0.5
 50
270.0
 51
359.99999999994787
  0
LINE
  5
3CF
  8
0
 10
2205.3184111126948
 20
591.39664793929808
 30
0.0
 11
2205.3184111126939
 21
590.19664793929917
 31
0.0
  0
LINE
  5
3D0
  8
0
 10
2204.8184111126948
 20
591.89664793929819
 30
0.0
 11
2198.3184111126948
 21
591.89664793929626
 31
0.0
  0
LINE
  5
3D1
  8
0
 10
2197.518411112695
 20
599.59664793929892
 30
0.0
 11
2197.518411112695
 21
597.69664793929917
 31
0.0
  0
LINE
  5
3D2
  8
0
 10
2197.518411112696
 20
602.29664793929965
 30
0.0
 11
2197.518411112695
 21
600.39664793930001
 31
0.0
  0
LINE
  5
3D3
  8
0
 10
2197.518411112696
 20
604.99664793929855
 30
0.0
 11
2197.518411112696
 21
603.09664793929892
 31
0.0
  0
LINE
  5
3D4
  8
0
 10
2197.518411112695
 20
607.69664793929928
 30
0.0
 11
2197.518411112696
 21
605.79664793929965
 31
0.0
  0
LINE
  5
3D5
  8
0
 10
2197.518411112695
 20
610.39664793929808
 30
0.0
 11
2197.518411112695
 21
608.49664793929855
 31
0.0
  0
LINE
  5
3D6
  8
0
 10
2197.518411112695
 20
613.09664793929892
 30
0.0
 11
2197.518411112695
 21
611.19664793929917
 31
0.0
  0
LINE
  5
3D7
  8
0
 10
2197.518411112695
 20
615.79664793929783
 30
0.0
 11
2197.518411112695
 21
613.89664793929819
 31
0.0
  0
LINE
  5
3D8
  8
0
 10
2197.518411112695
 20
623.69664793929917
 30
0.0
 11
2197.518411112695
 21
622.02664793929728
 31
0.0
  0
LINE
  5
3D9
  8
0
 10
2157.218411112694
 20
589.89664793929808
 30
0.0
 11
2164.178519655432
 21
589.89664793929808
 31
0.0
  0
LINE
  5
3DA
  8
0
 10
2193.0266873663231
 20
629.19664793929735
 30
0.0
 11
2194.7309769039889
 21
629.19664793929735
 31
0.0
  0
LINE
  5
3DB
  8
0
 10
2190.526687366324
 20
629.19664793929735
 30
0.0
 11
2191.810134859064
 21
629.19664793929735
 31
0.0
  0
LINE
  5
3DC
  8
0
 10
2157.258302569956
 20
589.89664793929808
 30
0.0
 11
2164.218411112698
 21
589.89664793929808
 31
0.0
  0
LINE
  5
3DD
  8
0
 10
2194.7309769039889
 20
629.19664793929735
 30
0.0
 11
2193.0266873663231
 21
629.19664793929735
 31
0.0
  0
LINE
  5
3DE
  8
0
 10
2191.8101348590649
 20
629.19664793929735
 30
0.0
 11
2190.526687366324
 21
629.19664793929735
 31
0.0
  0
LINE
  5
3DF
  8
0
 10
2157.258302569956
 20
589.89664793929808
 30
0.0
 11
2164.218411112693
 21
589.89664793929808
 31
0.0
  0
LINE
  5
3E0
  8
0
 10
2164.218411112694
 20
589.89664793929808
 30
0.0
 11
2167.218411112694
 21
590.59664793929699
 31
0.0
  0
LINE
  5
3E1
  8
0
 10
2154.218411112694
 20
590.59664793929699
 30
0.0
 11
2157.258302569956
 21
589.89664793929808
 31
0.0
  0
ARC
  5
3E2
  8
0
 10
2198.118411112694
 20
623.99664793929855
 30
0.0
 40
0.3
 50
270.0
 51
0.0
  0
LINE
  5
3E3
  8
0
 10
2191.718411112694
 20
627.39664793929808
 30
0.0
 11
2191.7184111126739
 21
627.12869874684088
 31
0.0
  0
ARC
  5
3E4
  8
0
 10
2193.9184111126938
 20
625.39664793929819
 30
0.0
 40
2.7999999999999989
 50
141.78678929897279
 51
193.5510186076676
  0
LINE
  5
3E5
  8
0
 10
2191.1191616737078
 20
625.33182064308471
 30
0.0
 11
2191.1191616737078
 21
625.46147523551338
 31
0.0
  0
ARC
  5
3E6
  8
0
 10
2193.3794955577282
 20
623.16067610948426
 30
0.0
 40
0.5
 50
135.00000000008291
 51
256.44898139233078
  0
ARC
  5
3E7
  8
0
 10
2191.6824392828798
 20
624.85773238433262
 30
0.0
 40
0.5
 50
193.5510186076676
 51
315.00000000000921
  0
ARC
  5
3E8
  8
0
 10
2193.9184111126938
 20
625.39664793929819
 30
0.0
 40
2.7999999999999989
 50
256.44898139233078
 51
270.0
  0
ARC
  5
3E9
  8
0
 10
2193.9184111126938
 20
625.39664793929819
 30
0.0
 40
2.7999999999999989
 50
178.67333486050501
 51
193.5510186076676
  0
LINE
  5
3EA
  8
0
 10
2193.6810949337309
 20
624.16938226667276
 30
0.0
 11
2193.025942167134
 21
623.51422950007657
 31
0.0
  0
LINE
  5
3EB
  8
0
 10
2192.6911454400702
 20
625.15933176033445
 30
0.0
 11
2192.0359926734741
 21
624.50417899373826
 31
0.0
  0
ARC
  5
3EC
  8
0
 10
2193.9184111126938
 20
625.39664793929819
 30
0.0
 40
1.25
 50
259.05579774254539
 51
190.9442022573929
  0
LINE
  5
3ED
  8
0
 10
2191.718411112694
 20
592.66459713172821
 30
0.0
 11
2191.718411112694
 21
592.39664793929819
 31
0.0
  0
LINE
  5
3EE
  8
0
 10
2193.8535838164812
 20
597.19589737828369
 30
0.0
 11
2195.7184111126949
 21
597.19589737828369
 31
0.0
  0
ARC
  5
3EF
  8
0
 10
2191.6824392828798
 20
594.93556349426365
 30
0.0
 40
0.5
 50
44.999999999990777
 51
166.4489813923324
  0
ARC
  5
3F0
  8
0
 10
2193.3794955577291
 20
596.63261976911213
 30
0.0
 40
0.5
 50
103.55101860766921
 51
224.99999999999079
  0
ARC
  5
3F1
  8
0
 10
2193.9184111126938
 20
594.39664793929808
 30
0.0
 40
2.7999999999999989
 50
166.4489813923324
 51
218.21321070177649
  0
ARC
  5
3F2
  8
0
 10
2193.9184111126938
 20
594.39664793929808
 30
0.0
 40
2.7999999999999989
 50
88.673334860505037
 51
103.55101860766921
  0
LINE
  5
3F3
  8
0
 10
2192.6911454400688
 20
594.63396411826193
 30
0.0
 11
2192.0359926734741
 21
595.28911688485789
 31
0.0
  0
LINE
  5
3F4
  8
0
 10
2193.6810949337309
 20
595.62391361192181
 30
0.0
 11
2193.0259421671349
 21
596.27906637851777
 31
0.0
  0
LINE
  5
3F5
  8
0
 10
2197.518411112695
 20
618.52664793929728
 30
0.0
 11
2197.518411112695
 21
616.59664793929892
 31
0.0
  0
LINE
  5
3F6
  8
0
 10
2197.518411112695
 20
621.2266479392963
 30
0.0
 11
2197.518411112695
 21
619.32664793929848
 31
0.0
  0
LINE
  5
3F7
  8
0
 10
2198.4184111126938
 20
623.99664793929855
 30
0.0
 11
2198.4184111126938
 21
626.99664793929855
 31
0.0
  0
LINE
  5
3F8
  8
0
 10
2197.518411112695
 20
623.69664793929917
 30
0.0
 11
2198.118411112694
 21
623.69664793929917
 31
0.0
  0
ARC
  5
3F9
  8
0
 10
2195.9184111126938
 20
626.99664793929855
 30
0.0
 40
2.5
 50
0.0
 51
118.357636576356
  0
LINE
  5
3FA
  8
0
 10
2198.4184111126938
 20
621.62664793929775
 30
0.0
 11
2198.4184111126938
 21
621.7266479392963
 31
0.0
  0
ARC
  5
3FB
  8
0
 10
2198.118411112695
 20
621.52664793929728
 30
0.0
 40
0.3
 50
270.0
 51
0.0
  0
ARC
  5
3FC
  8
0
 10
2198.118411112695
 20
621.7266479392963
 30
0.0
 40
0.3
 50
0.0
 51
90.0
  0
LINE
  5
3FD
  8
0
 10
2198.118411112695
 20
621.2266479392963
 30
0.0
 11
2197.518411112695
 21
621.2266479392963
 31
0.0
  0
LINE
  5
3FE
  8
0
 10
2198.4184111126938
 20
621.7266479392963
 30
0.0
 11
2198.4184111126938
 21
621.52664793929728
 31
0.0
  0
LINE
  5
3FF
  8
0
 10
2197.518411112695
 20
622.02664793929728
 30
0.0
 11
2198.118411112695
 21
622.02664793929728
 31
0.0
  0
LINE
  5
400
  8
0
 10
2197.518411112695
 20
616.59664793929699
 30
0.0
 11
2198.118411112695
 21
616.59664793929699
 31
0.0
  0
LINE
  5
401
  8
0
 10
2198.4184111126938
 20
616.29664793929783
 30
0.0
 11
2198.4184111126938
 21
616.09664793929699
 31
0.0
  0
LINE
  5
402
  8
0
 10
2198.118411112695
 20
615.79664793929783
 30
0.0
 11
2197.518411112695
 21
615.79664793929783
 31
0.0
  0
ARC
  5
403
  8
0
 10
2198.118411112695
 20
616.29664793929783
 30
0.0
 40
0.3
 50
0.0
 51
90.0
  0
ARC
  5
404
  8
0
 10
2198.118411112695
 20
616.09664793929699
 30
0.0
 40
0.3
 50
270.0
 51
0.0
  0
LINE
  5
405
  8
0
 10
2197.518411112695
 20
597.69664793929917
 30
0.0
 11
2198.118411112695
 21
597.69664793929917
 31
0.0
  0
LINE
  5
406
  8
0
 10
2198.4184111126938
 20
597.39664793929819
 30
0.0
 11
2198.4184111126938
 21
597.19664793929917
 31
0.0
  0
LINE
  5
407
  8
0
 10
2198.118411112695
 20
596.89664793929819
 30
0.0
 11
2197.518411112695
 21
596.89664793929819
 31
0.0
  0
ARC
  5
408
  8
0
 10
2198.118411112695
 20
597.39664793929819
 30
0.0
 40
0.3
 50
0.0
 51
90.0
  0
ARC
  5
409
  8
0
 10
2198.118411112695
 20
597.19664793929917
 30
0.0
 40
0.3
 50
270.0
 51
0.0
  0
LINE
  5
40A
  8
0
 10
2204.8184111126939
 20
589.69664793929746
 30
0.0
 11
2197.9331169950469
 21
589.69664793929746
 31
0.0
  0
ARC
  5
40B
  8
0
 10
2194.1024229440718
 20
599.59664793929699
 30
0.0
 40
0.2
 50
179.93993664930801
 51
270.0
  0
ARC
  5
40C
  8
0
 10
2194.1028422655172
 20
599.99664793929855
 30
0.0
 40
0.2
 50
90.0
 51
179.93993664930801
  0
ARC
  5
40D
  8
0
 10
2194.702842265518
 20
619.99664793929674
 30
0.0
 40
0.2
 50
180.06006335069191
 51
270.0
  0
ARC
  5
40E
  8
0
 10
2194.7024229440722
 20
620.39664793929626
 30
0.0
 40
0.2
 50
90.0
 51
180.06006335069191
  0
LINE
  5
40F
  8
0
 10
2195.7184111126949
 20
599.39664793929808
 30
0.0
 11
2195.7184111126949
 21
597.19589737828369
 31
0.0
  0
LINE
  5
410
  8
0
 10
2195.7184111126949
 20
619.79664793929601
 30
0.0
 11
2195.7184111126949
 21
600.19664793929735
 31
0.0
  0
LINE
  5
411
  8
0
 10
2195.7184111126949
 20
620.59664793929699
 30
0.0
 11
2195.7184111126949
 21
622.5966479392971
 31
0.0
  0
ARC
  5
412
  8
0
 10
2193.9184111126938
 20
625.39664793929819
 30
0.0
 40
1.25
 50
260.79310377866261
 51
180.0
  0
LINE
  5
413
  8
0
 10
2195.7184111126949
 20
622.5966479392988
 30
0.0
 11
2193.9184111126938
 21
622.5966479392971
 31
0.0
  0
LINE
  5
414
  8
0
 10
2195.7184111126949
 20
620.59664793929699
 30
0.0
 11
2194.7024229440722
 21
620.59664793929699
 31
0.0
  0
LINE
  5
415
  8
0
 10
2195.7184111126949
 20
619.79664793929601
 30
0.0
 11
2194.702842265518
 21
619.79664793929601
 31
0.0
  0
LINE
  5
416
  8
0
 10
2194.5024230539661
 20
620.39643827868872
 30
0.0
 11
2194.502842375412
 21
619.99643827868897
 31
0.0
  0
LINE
  5
417
  8
0
 10
2193.9024230539658
 20
599.59685759990475
 30
0.0
 11
2193.9028423754121
 21
599.99685759990621
 31
0.0
  0
LINE
  5
418
  8
0
 10
2195.7184111126949
 20
600.19664793929564
 30
0.0
 11
2194.1028422655172
 21
600.19664793929735
 31
0.0
  0
LINE
  5
419
  8
0
 10
2195.7184111126949
 20
599.39664793929808
 30
0.0
 11
2194.1024229440718
 21
599.39664793929808
 31
0.0
  0
ARC
  5
41A
  8
0
 10
2193.9184111126938
 20
594.39664793929808
 30
0.0
 40
1.25
 50
169.0557977425502
 51
100.9442022574015
  0
LINE
  5
41B
  8
0
 10
2191.718411112694
 20
592.39664793929819
 30
0.0
 11
2160.9184111126938
 21
592.39664793929819
 31
0.0
  0
LINE
  5
41C
  8
0
 10
2191.718411112694
 20
627.39664793929808
 30
0.0
 11
2160.9184111126938
 21
627.39664793929808
 31
0.0
  0
LINE
  5
41D
  8
0
 10
2195.418411112696
 20
590.59664793929892
 30
0.0
 11
2167.218411112694
 21
590.59664793929699
 31
0.0
  0
LINE
  5
41E
  8
0
 10
2197.933116995046
 20
589.69664793929746
 30
0.0
 11
2195.4184111126951
 21
590.59664793929699
 31
0.0
  0
ARC
  5
41F
  8
0
 10
2198.3184111126948
 20
592.69664793929735
 30
0.0
 40
0.8
 50
180.0
 51
270.0
  0
ARC
  5
420
  8
0
 10
2189.310134859064
 20
629.39664793929626
 30
0.0
 40
0.2
 50
269.99999999989581
 51
322.50475026281151
  0
ARC
  5
421
  8
0
 10
2190.526687366324
 20
629.39664793929626
 30
0.0
 40
0.2
 50
217.4952497371884
 51
270.0
  0
ARC
  5
422
  8
0
 10
2191.8101348590649
 20
629.39664793929626
 30
0.0
 40
0.2
 50
270.00000000020839
 51
322.50475026281151
  0
ARC
  5
423
  8
0
 10
2193.0266873663231
 20
629.39664793929626
 30
0.0
 40
0.2
 50
217.4952497371884
 51
270.0
  0
LINE
  5
424
  8
0
 10
2191.8101348590649
 20
629.19664793929735
 30
0.0
 11
2190.526687366324
 21
629.19664793929735
 31
0.0
  0
ARC
  5
425
  8
0
 10
2189.9184111126938
 20
628.92998127263104
 30
0.0
 40
0.5666666666667397
 50
37.495249737188459
 51
142.50475026281151
  0
ARC
  5
426
  8
0
 10
2192.4184111126938
 20
628.92998127263104
 30
0.0
 40
0.5666666666665391
 50
37.495249737188459
 51
142.50475026273011
  0
LINE
  5
427
  8
0
 10
2194.7309769039889
 20
629.19664793929735
 30
0.0
 11
2193.0266873663231
 21
629.19664793929735
 31
0.0
  0
ARC
  5
428
  8
0
 10
2204.8184111126948
 20
591.39664793929808
 30
0.0
 40
0.5
 50
0.0
 51
90.0
  0
ARC
  5
429
  8
0
 10
2204.8184111126939
 20
590.19664793929917
 30
0.0
 40
0.5
 50
270.0
 51
359.99999999994787
  0
LINE
  5
42A
  8
0
 10
2205.3184111126948
 20
591.39664793929808
 30
0.0
 11
2205.3184111126939
 21
590.19664793929917
 31
0.0
  0
LINE
  5
42B
  8
0
 10
2204.8184111126948
 20
591.89664793929819
 30
0.0
 11
2198.3184111126948
 21
591.89664793929626
 31
0.0
  0
LINE
  5
42C
  8
0
 10
2197.518411112695
 20
596.8966479392999
 30
0.0
 11
2197.518411112695
 21
592.69664793929735
 31
0.0
  0
LINE
  5
42D
  8
0
 10
2197.518411112695
 20
599.59664793929892
 30
0.0
 11
2197.518411112695
 21
597.69664793929917
 31
0.0
  0
LINE
  5
42E
  8
0
 10
2197.518411112696
 20
602.29664793929965
 30
0.0
 11
2197.518411112695
 21
600.39664793930001
 31
0.0
  0
LINE
  5
42F
  8
0
 10
2197.518411112696
 20
604.99664793929855
 30
0.0
 11
2197.518411112696
 21
603.09664793929892
 31
0.0
  0
LINE
  5
430
  8
0
 10
2197.518411112695
 20
607.69664793929928
 30
0.0
 11
2197.518411112696
 21
605.79664793929965
 31
0.0
  0
LINE
  5
431
  8
0
 10
2197.518411112695
 20
610.39664793929808
 30
0.0
 11
2197.518411112695
 21
608.49664793929855
 31
0.0
  0
LINE
  5
432
  8
0
 10
2197.518411112695
 20
613.09664793929892
 30
0.0
 11
2197.518411112695
 21
611.19664793929917
 31
0.0
  0
LINE
  5
433
  8
0
 10
2197.518411112695
 20
615.79664793929783
 30
0.0
 11
2197.518411112695
 21
613.89664793929819
 31
0.0
  0
LINE
  5
434
  8
0
 10
2197.518411112695
 20
623.69664793929917
 30
0.0
 11
2197.518411112695
 21
622.02664793929728
 31
0.0
  0
LINE
  5
435
  8
0
 10
2197.518411112695
 20
600.39664793930001
 30
0.0
 11
2198.118411112695
 21
600.39664793930001
 31
0.0
  0
LINE
  5
436
  8
0
 10
2198.4184111126938
 20
600.09664793929892
 30
0.0
 11
2198.4184111126938
 21
599.89664793930001
 31
0.0
  0
LINE
  5
437
  8
0
 10
2198.118411112695
 20
599.59664793929892
 30
0.0
 11
2197.518411112695
 21
599.59664793929892
 31
0.0
  0
ARC
  5
438
  8
0
 10
2198.118411112695
 20
600.09664793929892
 30
0.0
 40
0.3
 50
0.0
 51
90.0
  0
ARC
  5
439
  8
0
 10
2198.118411112695
 20
599.89664793930001
 30
0.0
 40
0.3
 50
270.0
 51
0.0
  0
LINE
  5
43A
  8
0
 10
2197.7184111126949
 20
596.8966479392999
 30
0.0
 11
2197.518411112695
 21
596.8966479392999
 31
0.0
  0
LINE
  5
43B
  8
0
 10
2197.518411112695
 20
597.69664793929917
 30
0.0
 11
2197.7184111126949
 21
597.69664793929917
 31
0.0
  0
LINE
  5
43C
  8
0
 10
2197.518411112695
 20
603.09664793929892
 30
0.0
 11
2198.118411112695
 21
603.09664793929892
 31
0.0
  0
LINE
  5
43D
  8
0
 10
2198.4184111126938
 20
602.79664793929965
 30
0.0
 11
2198.4184111126938
 21
602.59664793929892
 31
0.0
  0
LINE
  5
43E
  8
0
 10
2198.118411112695
 20
602.29664793929965
 30
0.0
 11
2197.518411112695
 21
602.29664793929965
 31
0.0
  0
ARC
  5
43F
  8
0
 10
2198.118411112695
 20
602.79664793929965
 30
0.0
 40
0.3
 50
0.0
 51
90.0
  0
ARC
  5
440
  8
0
 10
2198.118411112695
 20
602.59664793929892
 30
0.0
 40
0.3
 50
270.0
 51
0.0
  0
ARC
  5
441
  8
0
 10
2198.118411112695
 20
605.29664793929965
 30
0.0
 40
0.3
 50
270.0
 51
0.0
  0
ARC
  5
442
  8
0
 10
2198.118411112695
 20
605.49664793929855
 30
0.0
 40
0.3
 50
0.0
 51
90.0
  0
LINE
  5
443
  8
0
 10
2198.118411112695
 20
604.99664793929855
 30
0.0
 11
2197.518411112695
 21
604.99664793929855
 31
0.0
  0
LINE
  5
444
  8
0
 10
2198.4184111126938
 20
605.49664793929855
 30
0.0
 11
2198.4184111126938
 21
605.29664793929965
 31
0.0
  0
LINE
  5
445
  8
0
 10
2197.518411112695
 20
605.79664793929965
 30
0.0
 11
2198.118411112695
 21
605.79664793929965
 31
0.0
  0
LINE
  5
446
  8
0
 10
2197.518411112695
 20
611.19664793929917
 30
0.0
 11
2198.118411112695
 21
611.19664793929917
 31
0.0
  0
LINE
  5
447
  8
0
 10
2198.4184111126938
 20
610.89664793929808
 30
0.0
 11
2198.4184111126938
 21
610.69664793929917
 31
0.0
  0
LINE
  5
448
  8
0
 10
2198.118411112695
 20
610.39664793929808
 30
0.0
 11
2197.518411112695
 21
610.39664793929808
 31
0.0
  0
ARC
  5
449
  8
0
 10
2198.118411112695
 20
610.89664793929808
 30
0.0
 40
0.3
 50
0.0
 51
90.0
  0
ARC
  5
44A
  8
0
 10
2198.118411112695
 20
610.69664793929917
 30
0.0
 40
0.3
 50
270.0
 51
0.0
  0
ARC
  5
44B
  8
0
 10
2198.118411112695
 20
607.99664793929855
 30
0.0
 40
0.3
 50
270.0
 51
0.0
  0
ARC
  5
44C
  8
0
 10
2198.118411112695
 20
608.19664793929928
 30
0.0
 40
0.3
 50
0.0
 51
90.0
  0
LINE
  5
44D
  8
0
 10
2198.118411112695
 20
607.69664793929928
 30
0.0
 11
2197.518411112695
 21
607.69664793929928
 31
0.0
  0
LINE
  5
44E
  8
0
 10
2198.4184111126938
 20
608.19664793929928
 30
0.0
 11
2198.4184111126938
 21
607.99664793929855
 31
0.0
  0
LINE
  5
44F
  8
0
 10
2197.518411112695
 20
608.49664793929855
 30
0.0
 11
2198.118411112695
 21
608.49664793929855
 31
0.0
  0
LINE
  5
450
  8
0
 10
2197.518411112695
 20
613.89664793929819
 30
0.0
 11
2198.118411112695
 21
613.89664793929819
 31
0.0
  0
LINE
  5
451
  8
0
 10
2198.4184111126938
 20
613.59664793929892
 30
0.0
 11
2198.4184111126938
 21
613.39664793929819
 31
0.0
  0
LINE
  5
452
  8
0
 10
2198.118411112695
 20
613.09664793929892
 30
0.0
 11
2197.518411112695
 21
613.09664793929892
 31
0.0
  0
ARC
  5
453
  8
0
 10
2198.118411112695
 20
613.59664793929892
 30
0.0
 40
0.3
 50
0.0
 51
90.0
  0
ARC
  5
454
  8
0
 10
2198.118411112695
 20
613.39664793929819
 30
0.0
 40
0.3
 50
270.0
 51
0.0
  0
ARC
  5
455
  8
0
 10
2198.118411112695
 20
618.82664793929848
 30
0.0
 40
0.3
 50
270.0
 51
0.0
  0
ARC
  5
456
  8
0
 10
2198.118411112695
 20
619.02664793929739
 30
0.0
 40
0.3
 50
0.0
 51
90.0
  0
LINE
  5
457
  8
0
 10
2198.118411112695
 20
618.52664793929728
 30
0.0
 11
2197.518411112695
 21
618.52664793929728
 31
0.0
  0
LINE
  5
458
  8
0
 10
2198.4184111126938
 20
619.02664793929739
 30
0.0
 11
2198.4184111126938
 21
618.82664793929848
 31
0.0
  0
LINE
  5
459
  8
0
 10
2197.518411112695
 20
619.32664793929848
 30
0.0
 11
2198.118411112695
 21
619.32664793929848
 31
0.0
  0
LINE
  5
45A
  8
0
 10
2157.218411112694
 20
589.89664793929808
 30
0.0
 11
2164.178519655432
 21
589.89664793929808
 31
0.0
  0
LINE
  5
45B
  8
0
 10
2193.0266873663231
 20
629.19664793929735
 30
0.0
 11
2194.7309769039889
 21
629.19664793929735
 31
0.0
  0
LINE
  5
45C
  8
0
 10
2190.526687366324
 20
629.19664793929735
 30
0.0
 11
2191.810134859064
 21
629.19664793929735
 31
0.0
  0
LINE
  5
45D
  8
0
 10
2191.718411112694
 20
627.39664793929808
 30
0.0
 11
2160.9184111126929
 21
627.39664793929808
 31
0.0
  0
ARC
  5
45E
  8
0
 10
2193.9184111126938
 20
594.39664793929808
 30
0.0
 40
1.25
 50
180.0
 51
99.206896221337431
  0
LINE
  5
45F
  8
0
 10
2195.7184111126949
 20
599.39664793929808
 30
0.0
 11
2194.902422944072
 21
599.39664793929808
 31
0.0
  0
LINE
  5
460
  8
0
 10
2195.7184111126949
 20
600.19664793929735
 30
0.0
 11
2194.902842265516
 21
600.19664793929735
 31
0.0
  0
ARC
  5
461
  8
0
 10
2193.9184111126938
 20
625.39664793929819
 30
0.0
 40
1.25
 50
260.79310377866261
 51
180.0
  0
LINE
  5
462
  8
0
 10
2195.7184111126949
 20
619.59664793929699
 30
0.0
 11
2195.7184111126949
 21
600.19664793929735
 31
0.0
  0
LINE
  5
463
  8
0
 10
2195.7184111126949
 20
599.39664793929808
 30
0.0
 11
2195.7184111126949
 21
597.39664793929819
 31
0.0
  0
LINE
  5
464
  8
0
 10
2157.258302569956
 20
589.89664793929808
 30
0.0
 11
2164.218411112698
 21
589.89664793929808
 31
0.0
  0
LINE
  5
465
  8
0
 10
2194.7309769039889
 20
629.19664793929735
 30
0.0
 11
2193.0266873663231
 21
629.19664793929735
 31
0.0
  0
ARC
  5
466
  8
0
 10
2192.4184111126938
 20
628.92998127263104
 30
0.0
 40
0.5666666666665391
 50
37.495249737188459
 51
142.50475026273011
  0
ARC
  5
467
  8
0
 10
2189.9184111126938
 20
628.92998127263104
 30
0.0
 40
0.5666666666667397
 50
37.495249737188459
 51
142.50475026281151
  0
LINE
  5
468
  8
0
 10
2191.8101348590649
 20
629.19664793929735
 30
0.0
 11
2190.526687366324
 21
629.19664793929735
 31
0.0
  0
ARC
  5
469
  8
0
 10
2193.0266873663231
 20
629.39664793929626
 30
0.0
 40
0.2
 50
217.4952497371884
 51
270.0
  0
ARC
  5
46A
  8
0
 10
2191.810134859064
 20
629.39664793929626
 30
0.0
 40
0.2
 50
270.00000000010419
 51
322.50475026281151
  0
ARC
  5
46B
  8
0
 10
2190.526687366324
 20
629.39664793929626
 30
0.0
 40
0.2
 50
217.4952497371884
 51
270.0
  0
ARC
  5
46C
  8
0
 10
2189.310134859064
 20
629.39664793929626
 30
0.0
 40
0.2
 50
269.99999999979161
 51
322.50475026281151
  0
LINE
  5
46D
  8
0
 10
2157.258302569956
 20
589.89664793929808
 30
0.0
 11
2164.218411112693
 21
589.89664793929808
 31
0.0
  0
INSERT
  5
46E
  8
0
 62
     1
  2
*U61
 10
0.0
 20
0.0
 30
0.0
  0
INSERT
  5
46F
  8
0
 62
     1
  2
*U62
 10
0.0
 20
0.0
 30
0.0
  0
INSERT
  5
470
  8
0
 62
     1
  2
*U63
 10
0.0
 20
0.0
 30
0.0
  0
INSERT
  5
473
  8
0
 62
     1
  2
*U64
 10
0.0
 20
0.0
 30
0.0
  0
LINE
  5
474
  8
0
 10
2328.900958998051
 20
520.57062127789925
 30
0.0
 11
2328.900958998051
 21
512.57062127789925
 31
0.0
  0
LINE
  5
475
  8
0
 10
2309.262063474544
 20
528.57062127790016
 30
0.0
 11
2309.262063474544
 21
488.57062127790027
 31
0.0
  0
LINE
  5
476
  8
0
 10
2169.1220575122802
 20
528.57062127790016
 30
0.0
 11
2169.1220575122802
 21
475.5189590649203
 31
0.0
  0
INSERT
  5
477
  8
0
 62
     1
  2
*U65
 10
0.0
 20
0.0
 30
0.0
  0
INSERT
  5
478
  8
0
 62
     1
  2
*U66
 10
0.0
 20
0.0
 30
0.0
  0
INSERT
  5
479
  8
0
 62
     1
  2
*U67
 10
0.0
 20
0.0
 30
0.0
  0
INSERT
  5
47A
  8
0
 62
     1
  2
*U68
 10
0.0
 20
0.0
 30
0.0
  0
INSERT
  5
47C
  8
0
 62
     1
  2
*U69
 10
0.0
 20
0.0
 30
0.0
  0
INSERT
  5
47D
  8
0
 62
     1
  2
*U70
 10
0.0
 20
0.0
 30
0.0
  0
INSERT
  5
47E
  8
0
 62
     1
  2
*U71
 10
0.0
 20
0.0
 30
0.0
  0
INSERT
  5
480
  8
0
 62
     1
  2
*U72
 10
0.0
 20
0.0
 30
0.0
  0
INSERT
  5
481
  8
0
 62
     1
  2
*U73
 10
0.0
 20
0.0
 30
0.0
  0
INSERT
  5
482
  8
0
 62
     1
  2
*U74
 10
0.0
 20
0.0
 30
0.0
  0
INSERT
  5
483
  8
0
 62
     1
  2
*U75
 10
0.0
 20
0.0
 30
0.0
  0
LINE
  5
484
  8
0
 10
2285.9155335165979
 20
528.57062127790016
 30
0.0
 11
2285.9155335165979
 21
488.57062127790027
 31
0.0
  0
LINE
  5
485
  8
0
 10
2256.264914655138
 20
528.57062127790016
 30
0.0
 11
2256.264914655138
 21
488.57062127790027
 31
0.0
  0
LINE
  5
486
  8
0
 10
2230.5506289408509
 20
528.57062127790016
 30
0.0
 11
2230.5506289408509
 21
488.57062127790027
 31
0.0
  0
LINE
  5
487
  8
0
 10
2204.8363432265651
 20
528.57062127790016
 30
0.0
 11
2204.8363432265651
 21
488.57062127790027
 31
0.0
  0
DIMENSION
  5
EB36
  8
0
 62
     1
  2
*D9
 10
2236.3760913527522
 20
593.02550613110361
 30
0.0
 11
2246.0935714982579
 21
596.32516678513878
 31
0.0
 70
     3
 15
2239.7194859625488
 25
594.06074160343576
 35
0.0
 40
0.0
  0
DIMENSION
  5
2412E
  8
0
 62
     1
  2
*D14
 10
2193.9184111126938
 20
632.05203694448016
 30
0.0
 11
2160.718411112694
 21
632.05203694448016
 31
0.0
 70
   128
 13
2127.5184111126928
 23
625.39664793929819
 33
0.0
 14
2193.9184111126938
 24
625.39664793929819
 34
0.0
  0
DIMENSION
  5
2416F
  8
0
 62
     1
  2
*D15
 10
2118.3014940343569
 20
625.39664793929819
 30
0.0
 11
2118.3014940343569
 21
611.50915879553213
 31
0.0
 70
   128
 13
2127.5184111126928
 23
594.39664793929808
 33
0.0
 14
2127.5184111126928
 24
625.39664793929819
 34
0.0
 50
90.0
  0
DIMENSION
  5
241A6
  8
0
 62
     1
  2
*D16
 10
2138.205005435068
 20
590.59664793929699
 30
0.0
 11
2140.1917850960849
 21
599.75434209402908
 31
0.0
 70
   128
 13
2141.8600542427739
 23
592.39664793929819
 33
0.0
 14
2141.4429818090898
 24
590.59664793929699
 34
0.0
 50
90.0
  0
DIMENSION
  5
241C0
  8
0
 62
     1
  2
*D17
 10
2195.7184111126949
 20
605.77330089787745
 30
0.0
 11
2170.4319247501262
 21
605.77330089787745
 31
0.0
 70
   128
 13
2125.718411112694
 23
615.48416290772184
 33
0.0
 14
2195.7184111126949
 24
613.37819921873779
 34
0.0
  0
DIMENSION
  5
241D8
  8
0
 62
     1
  2
*D18
 10
2158.4840698069929
 20
627.39664793929728
 30
0.0
 11
2158.4840698069929
 21
612.91019968940782
 31
0.0
 70
   128
 13
2160.5184111126928
 23
592.39664793929819
 33
0.0
 14
2160.5184111126928
 24
627.39664793929728
 34
0.0
 50
90.0
  0
DIMENSION
  5
241F0
  8
0
 62
     1
  2
*D19
 10
2187.2078707975129
 20
622.5966479392971
 30
0.0
 11
2186.2190572381919
 21
616.62998127263074
 31
0.0
 70
   128
 13
2195.7184111126949
 23
620.59664793929699
 33
0.0
 14
2195.7184111126949
 24
622.5966479392971
 34
0.0
 50
90.0
  0
DIMENSION
  5
2420A
  8
0
 62
     1
  2
*D20
 10
2200.492576663853
 20
597.19589737828369
 30
0.0
 11
2202.8149495452089
 21
600.99589737828398
 31
0.0
 70
   128
 13
2200.9171855610148
 23
591.89664793929705
 33
0.0
 14
2195.7184111126949
 24
597.19589737828369
 34
0.0
 50
90.0
  0
VIEWPORT
  5
2423D
 67
     1
  8
0
 62
     1
 10
271.12360930500893
 20
104.8947098361279
 30
0.0
 40
637.88665091022949
 41
275.63003434392641
 68
     1
 69
     1
1001
ACAD
1000
MVIEW
1002
{
1070
    16
1010
0.0
1020
0.0
1030
0.0
1010
0.0
1020
0.0
1030
1.0
1040
0.0
1040
275.63003434392641
1040
271.12360930500893
1040
104.8947098361279
1040
50.0
1040
0.0
1040
0.0
1070
     0
1070
   100
1070
     1
1070
     1
1070
     0
1070
     0
1070
     0
1070
     0
1040
0.0
1040
0.0
1040
0.0
1040
10.0
1040
10.0
1040
10.0
1040
10.0
1070
     0
1002
{
1002
}
1002
}
  0
VIEWPORT
  5
24240
 67
     1
  8
0
 62
     1
 10
128.5
 20
97.5
 30
0.0
 40
205.59999999999999
 41
156.0
 68
     2
 69
     2
1001
ACAD
1000
MVIEW
1002
{
1070
    16
1010
0.0
1020
0.0
1030
0.0
1010
0.0
1020
0.0
1030
1.0
1040
0.0
1040
1821.132004857111
1040
1184.5610287561401
1040
500.0
1040
50.0
1040
0.0
1040
0.0
1070
     0
1070
   100
1070
     1
1070
     3
1070
     0
1070
     0
1070
     0
1070
     0
1040
0.0
1040
0.0
1040
0.0
1040
10.0
1040
10.0
1040
10.0
1040
10.0
1070
     0
1002
{
1002
}
1002
}
  0
ENDSEC
  0
EOF
