  0
SECTION
  2
HEADER
  9
$ACADVER
  1
AC1015
  9
$ACADMAINTVER
 70
     6
  9
$DWGCODEPAGE
  3
ANSI_1252
  9
$INSBASE
 10
0.0
 20
0.0
 30
0.0
  9
$EXTMIN
 10
179.3517519679044
 20
234.7352363252878
 30
0.0
  9
$EXTMAX
 10
277.8764334791447
 20
368.2499916442583
 30
0.0
  9
$LIMMIN
 10
0.0
 20
0.0
  9
$LIMMAX
 10
420.0
 20
297.0
  9
$ORTHOMODE
 70
     0
  9
$REGENMODE
 70
     1
  9
$FILLMODE
 70
     1
  9
$QTEXTMODE
 70
     0
  9
$MIRRTEXT
 70
     1
  9
$LTSCALE
 40
1.0
  9
$ATTMODE
 70
     1
  9
$TEXTSIZE
 40
2.5
  9
$TRACEWID
 40
1.0
  9
$TEXTSTYLE
  7
Standard
  9
$CLAYER
  8
0
  9
$CELTYPE
  6
ByLayer
  9
$CECOLOR
 62
   256
  9
$CELTSCALE
 40
1.0
  9
$DISPSILH
 70
     0
  9
$DIMSCALE
 40
1.0
  9
$DIMASZ
 40
2.5
  9
$DIMEXO
 40
0.625
  9
$DIMDLI
 40
3.75
  9
$DIMRND
 40
0.0
  9
$DIMDLE
 40
0.0
  9
$DIMEXE
 40
1.25
  9
$DIMTP
 40
0.0
  9
$DIMTM
 40
0.0
  9
$DIMTXT
 40
2.5
  9
$DIMCEN
 40
2.5
  9
$DIMTSZ
 40
0.0
  9
$DIMTOL
 70
     0
  9
$DIMLIM
 70
     0
  9
$DIMTIH
 70
     0
  9
$DIMTOH
 70
     0
  9
$DIMSE1
 70
     0
  9
$DIMSE2
 70
     0
  9
$DIMTAD
 70
     1
  9
$DIMZIN
 70
     8
  9
$DIMBLK
  1

  9
$DIMASO
 70
     1
  9
$DIMSHO
 70
     1
  9
$DIMPOST
  1

  9
$DIMAPOST
  1

  9
$DIMALT
 70
     0
  9
$DIMALTD
 70
     3
  9
$DIMALTF
 40
0.03937007874016
  9
$DIMLFAC
 40
1.0
  9
$DIMTOFL
 70
     1
  9
$DIMTVP
 40
0.0
  9
$DIMTIX
 70
     0
  9
$DIMSOXD
 70
     0
  9
$DIMSAH
 70
     0
  9
$DIMBLK1
  1

  9
$DIMBLK2
  1

  9
$DIMSTYLE
  2
ISO-25
  9
$DIMCLRD
 70
     0
  9
$DIMCLRE
 70
     0
  9
$DIMCLRT
 70
     0
  9
$DIMTFAC
 40
1.0
  9
$DIMGAP
 40
0.625
  9
$DIMJUST
 70
     0
  9
$DIMSD1
 70
     0
  9
$DIMSD2
 70
     0
  9
$DIMTOLJ
 70
     0
  9
$DIMTZIN
 70
     8
  9
$DIMALTZ
 70
     0
  9
$DIMALTTZ
 70
     0
  9
$DIMUPT
 70
     0
  9
$DIMDEC
 70
     2
  9
$DIMTDEC
 70
     2
  9
$DIMALTU
 70
     2
  9
$DIMALTTD
 70
     3
  9
$DIMTXSTY
  7
Standard
  9
$DIMAUNIT
 70
     0
  9
$DIMADEC
 70
     0
  9
$DIMALTRND
 40
0.0
  9
$DIMAZIN
 70
     0
  9
$DIMDSEP
 70
    44
  9
$DIMATFIT
 70
     3
  9
$DIMFRAC
 70
     0
  9
$DIMLDRBLK
  1

  9
$DIMLUNIT
 70
     2
  9
$DIMLWD
 70
    -2
  9
$DIMLWE
 70
    -2
  9
$DIMTMOVE
 70
     0
  9
$LUNITS
 70
     2
  9
$LUPREC
 70
     4
  9
$SKETCHINC
 40
1.0
  9
$FILLETRAD
 40
10.0
  9
$AUNITS
 70
     0
  9
$AUPREC
 70
     0
  9
$MENU
  1
.
  9
$ELEVATION
 40
0.0
  9
$PELEVATION
 40
0.0
  9
$THICKNESS
 40
0.0
  9
$LIMCHECK
 70
     0
  9
$CHAMFERA
 40
10.0
  9
$CHAMFERB
 40
10.0
  9
$CHAMFERC
 40
20.0
  9
$CHAMFERD
 40
0.0
  9
$SKPOLY
 70
     0
  9
$TDCREATE
 40
2453447.447222858
  9
$TDUCREATE
 40
2453447.405556192
  9
$TDUPDATE
 40
2453447.448083495
  9
$TDUUPDATE
 40
2453447.406416828
  9
$TDINDWG
 40
0.0008609954
  9
$TDUSRTIMER
 40
0.0008609954
  9
$USRTIMER
 70
     1
  9
$ANGBASE
 50
0.0
  9
$ANGDIR
 70
     0
  9
$PDMODE
 70
     0
  9
$PDSIZE
 40
0.0
  9
$PLINEWID
 40
0.0
  9
$SPLFRAME
 70
     0
  9
$SPLINETYPE
 70
     6
  9
$SPLINESEGS
 70
     8
  9
$HANDSEED
  5
1fffff
  9
$SURFTAB1
 70
     6
  9
$SURFTAB2
 70
     6
  9
$SURFTYPE
 70
     6
  9
$SURFU
 70
     6
  9
$SURFV
 70
     6
  9
$UCSBASE
  2

  9
$UCSNAME
  2

  9
$UCSORG
 10
0.0
 20
0.0
 30
0.0
  9
$UCSXDIR
 10
1.0
 20
0.0
 30
0.0
  9
$UCSYDIR
 10
0.0
 20
1.0
 30
0.0
  9
$UCSORTHOREF
  2

  9
$UCSORTHOVIEW
 70
     0
  9
$UCSORGTOP
 10
0.0
 20
0.0
 30
0.0
  9
$UCSORGBOTTOM
 10
0.0
 20
0.0
 30
0.0
  9
$UCSORGLEFT
 10
0.0
 20
0.0
 30
0.0
  9
$UCSORGRIGHT
 10
0.0
 20
0.0
 30
0.0
  9
$UCSORGFRONT
 10
0.0
 20
0.0
 30
0.0
  9
$UCSORGBACK
 10
0.0
 20
0.0
 30
0.0
  9
$PUCSBASE
  2

  9
$PUCSNAME
  2

  9
$PUCSORG
 10
0.0
 20
0.0
 30
0.0
  9
$PUCSXDIR
 10
1.0
 20
0.0
 30
0.0
  9
$PUCSYDIR
 10
0.0
 20
1.0
 30
0.0
  9
$PUCSORTHOREF
  2

  9
$PUCSORTHOVIEW
 70
     0
  9
$PUCSORGTOP
 10
0.0
 20
0.0
 30
0.0
  9
$PUCSORGBOTTOM
 10
0.0
 20
0.0
 30
0.0
  9
$PUCSORGLEFT
 10
0.0
 20
0.0
 30
0.0
  9
$PUCSORGRIGHT
 10
0.0
 20
0.0
 30
0.0
  9
$PUCSORGFRONT
 10
0.0
 20
0.0
 30
0.0
  9
$PUCSORGBACK
 10
0.0
 20
0.0
 30
0.0
  9
$USERI1
 70
     0
  9
$USERI2
 70
     0
  9
$USERI3
 70
     0
  9
$USERI4
 70
     0
  9
$USERI5
 70
     0
  9
$USERR1
 40
0.0
  9
$USERR2
 40
0.0
  9
$USERR3
 40
0.0
  9
$USERR4
 40
0.0
  9
$USERR5
 40
0.0
  9
$WORLDVIEW
 70
     1
  9
$SHADEDGE
 70
     3
  9
$SHADEDIF
 70
    70
  9
$TILEMODE
 70
     1
  9
$MAXACTVP
 70
    64
  9
$PINSBASE
 10
0.0
 20
0.0
 30
0.0
  9
$PLIMCHECK
 70
     0
  9
$PEXTMIN
 10
1.000000000000000E+20
 20
1.000000000000000E+20
 30
1.000000000000000E+20
  9
$PEXTMAX
 10
-1.000000000000000E+20
 20
-1.000000000000000E+20
 30
-1.000000000000000E+20
  9
$PLIMMIN
 10
0.0
 20
0.0
  9
$PLIMMAX
 10
420.0
 20
297.0
  9
$UNITMODE
 70
     0
  9
$VISRETAIN
 70
     1
  9
$PLINEGEN
 70
     0
  9
$PSLTSCALE
 70
     1
  9
$TREEDEPTH
 70
  3020
  9
$CMLSTYLE
  2
Standard
  9
$CMLJUST
 70
     0
  9
$CMLSCALE
 40
20.0
  9
$PROXYGRAPHICS
 70
     1
  9
$MEASUREMENT
 70
     1
  9
$CELWEIGHT
370
    -1
  9
$ENDCAPS
280
     0
  9
$JOINSTYLE
280
     0
  9
$LWDISPLAY
290
     0
  9
$INSUNITS
 70
     4
  9
$HYPERLINKBASE
  1

  9
$STYLESHEET
  1

  9
$XEDIT
290
     1
  9
$CEPSNTYPE
380
     0
  9
$PSTYLEMODE
290
     1
  9
$FINGERPRINTGUID
  2
{263749A0-F7E4-4E00-99C4-5223964DCB80}
  9
$VERSIONGUID
  2
{FD2825F6-CB40-4E95-8D6E-D4AFC8C62ADF}
  9
$EXTNAMES
290
     1
  9
$PSVPSCALE
 40
0.0
  9
$OLESTARTUP
290
     0
  0
ENDSEC
  0
SECTION
  2
CLASSES
  0
CLASS
  1
ACDBDICTIONARYWDFLT
  2
AcDbDictionaryWithDefault
  3
AutoCAD 2000
 90
        0
280
     0
281
     0
  0
CLASS
  1
ACDBPLACEHOLDER
  2
AcDbPlaceHolder
  3
AutoCAD 2000
 90
        0
280
     0
281
     0
  0
CLASS
  1
LAYOUT
  2
AcDbLayout
  3
AutoCAD 2000
 90
        0
280
     0
281
     0
  0
CLASS
  1
RASTERVARIABLES
  2
AcDbRasterVariables
  3
ISM
 90
        0
280
     0
281
     0
  0
CLASS
  1
IMAGEDEF
  2
AcDbRasterImageDef
  3
ISM
 90
        0
280
     0
281
     0
  0
CLASS
  1
IMAGEDEF_REACTOR
  2
AcDbRasterImageDefReactor
  3
ISM
 90
        1
280
     0
281
     0
  0
CLASS
  1
IMAGE
  2
AcDbRasterImage
  3
ISM
 90
      127
280
     0
281
     1
  0
ENDSEC
  0
SECTION
  2
TABLES
  0
TABLE
  2
VPORT
  5
8
330
0
100
AcDbSymbolTable
 70
     3
  0
VPORT
  5
34
330
8
100
AcDbSymbolTableRecord
100
AcDbViewportTableRecord
  2
*Active
 70
     0
 10
0.0
 20
0.0
 11
1.0
 21
1.0
 12
98.633139
 22
118.840248
 13
0.0
 23
0.0
 14
10.0
 24
10.0
 15
10.0
 25
10.0
 16
0.0
 26
0.0
 36
1.0
 17
0.0
 27
0.0
 37
0.0
 40
237.680497
 41
1.000000
 42
50.0
 43
0.0
 44
0.0
 50
0.0
 51
0.0
 71
     0
 72
   100
 73
     1
 74
     3
 75
     0
 76
     0
 77
     0
 78
     0
281
     0
 65
     1
110
0.0
120
0.0
130
0.0
111
1.0
121
0.0
131
0.0
112
0.0
122
1.0
132
0.0
 79
     0
146
0.0
  0
ENDTAB
  0
TABLE
  2
LTYPE
  5
5
330
0
100
AcDbSymbolTable
 70
     1
  0
LTYPE
  5
14
330
5
100
AcDbSymbolTableRecord
100
AcDbLinetypeTableRecord
  2
ByBlock
 70
     0
  3

 72
    65
 73
     0
 40
0.0
  0
LTYPE
  5
15
330
5
100
AcDbSymbolTableRecord
100
AcDbLinetypeTableRecord
  2
ByLayer
 70
     0
  3

 72
    65
 73
     0
 40
0.0
  0
LTYPE
  5
16
330
5
100
AcDbSymbolTableRecord
100
AcDbLinetypeTableRecord
  2
Continuous
 70
     0
  3
Solid line
 72
    65
 73
     0
 40
0.0
  0
LTYPE
  5
2E
330
5
100
AcDbSymbolTableRecord
100
AcDbLinetypeTableRecord
  2
ACAD_ISO02W100
 70
     0
  3
ISO dash __ __ __ __ __ __ __ __ __ __ __ __ __
 72
    65
 73
     2
 40
15.0
 49
12.0
 74
     0
 49
-3.0
 74
     0
  0
LTYPE
   5
30
330
5
100
AcDbSymbolTableRecord
100
AcDbLinetypeTableRecord
  2
ACAD_ISO07W100
 70
     0
  3
ISO dot . . . . . . . . . . . . . . . . . . . .
 72
    65
 73
     2
 40
3.0
 49
0.0
 74
     0
 49
-3.0
 74
     0
  0
LTYPE
  5
31
330
5
100
AcDbSymbolTableRecord
100
AcDbLinetypeTableRecord
  2
ACAD_ISO10W100
 70
     0
  3
ISO dash dot __ . __ . __ . __ . __ . __ . __ .
 72
    65
 73
     4
 40
18.0
 49
12.0
 74
     0
 49
-3.0
 74
     0
 49
0.0
 74
     0
 49
-3.0
 74
     0
  0
LTYPE
  5
32
330
5
100
AcDbSymbolTableRecord
100
AcDbLinetypeTableRecord
  2
ACAD_ISO12W100
 70
     0
  3
ISO dash double-dot __ . . __ . . __ . . __ . .
 72
    65
 73
     6
 40
21.0
 49
12.0
 74
     0
 49
-3.0
 74
     0
 49
0.0
 74
     0
 49
-3.0
 74
     0
 49
0.0
 74
     0
 49
-3.0
 74
     0
0
ENDTAB
  0
TABLE
  2
LAYER
5
b0
330
0
100
AcDbSymbolTable
 70
 1
  0
LAYER
5
b1
330
2
100
AcDbSymbolTableRecord
100
AcDbLayerTableRecord
  2
0
 70
     0
 62
  0
  6
Continuous
370
    -3
  2
0
 70
     0
 62
  0
  6
Continuous
370
    -3
390
F
  0
ENDTAB
  0
TABLE
  2
STYLE
  5
3
330
0
100
AcDbSymbolTable
 70
     1
  0
STYLE
  5
11
330
3
100
AcDbSymbolTableRecord
100
AcDbTextStyleTableRecord
  2
Standard
 70
     0
 40
0.0
 41
1.0
 50
0.0
 71
     0
 42
2.5
  3
txt
  4

  0
STYLE
  5
1b0
330
3
100
AcDbSymbolTableRecord
100
AcDbTextStyleTableRecord
  2
Helvetica
 70
     0
 40
0.0
 41
1.0
 50
0.0
 71
     0
 42
0.2
  3
ARIAL.TTF
  4

1001
ACAD
1000
Arial
1071
       34
 0
STYLE
  5
1b1
330
3
100
AcDbSymbolTableRecord
100
AcDbTextStyleTableRecord
  2
Times-Roman
 70
     0
 40
0.0
 41
1.0
 50
0.0
 71
     0
 42
0.2
  3
TIMES.TTF
  4

1001
ACAD
1000
Times New Roman
1071
       34
 0
ENDTAB
  0
TABLE
  2
VIEW
  5
6
330
0
100
AcDbSymbolTable
 70
     0
  0
ENDTAB
  0
TABLE
  2
UCS
  5
7
330
0
100
AcDbSymbolTable
 70
     0
  0
ENDTAB
  0
TABLE
  2
APPID
  5
9
330
0
100
AcDbSymbolTable
 70
     1
  0
APPID
  5
12
330
9
100
AcDbSymbolTableRecord
100
AcDbRegAppTableRecord
  2
ACAD
 70
     0
  0
ENDTAB
  0
TABLE
  2
DIMSTYLE
  5
A
330
0
100
AcDbSymbolTable
 70
     1
100
AcDbDimStyleTable
 71
     0
  0
DIMSTYLE
105
27
330
A
100
AcDbSymbolTableRecord
100
AcDbDimStyleTableRecord
  2
ISO-25
 70
     0
 41
2.5
 42
0.625
 43
3.75
 44
1.25
 73
     0
 74
     0
 77
     1
 78
     8
140
2.5
141
2.5
143
0.03937007874016
147
0.625
171
     3
172
     1
271
     2
272
     2
274
     3
278
    44
283
     0
284
     8
340
11
  0
ENDTAB
  0
TABLE
  2
BLOCK_RECORD
  5
1
330
0
100
AcDbSymbolTable
 70
     1
  0
BLOCK_RECORD
  5
1F
330
1
100
AcDbSymbolTableRecord
100
AcDbBlockTableRecord
  2
*Model_Space
340
22
  0
BLOCK_RECORD
  5
1B
330
1
100
AcDbSymbolTableRecord
100
AcDbBlockTableRecord
  2
*Paper_Space
340
1E
  0
BLOCK_RECORD
  5
23
330
1
100
AcDbSymbolTableRecord
100
AcDbBlockTableRecord
  2
*Paper_Space0
340
26
  0
ENDTAB
  0
ENDSEC
  0
SECTION
  2
BLOCKS
  0
BLOCK
  5
20
330
1F
100
AcDbEntity
  8
0
100
AcDbBlockBegin
  2
*Model_Space
 70
     0
 10
0.0
 20
0.0
 30
0.0
  3
*Model_Space
  1

  0
ENDBLK
  5
21
330
1F
100
AcDbEntity
  8
0
100
AcDbBlockEnd
  0
BLOCK
  5
1C
330
1B
100
AcDbEntity
 67
     1
  8
0
100
AcDbBlockBegin
  2
*Paper_Space
 70
     0
 10
0.0
 20
0.0
 30
0.0
  3
*Paper_Space
  1

  0
ENDBLK
  5
1D
330
1B
100
AcDbEntity
 67
     1
  8
0
100
AcDbBlockEnd
  0
BLOCK
  5
24
330
23
100
AcDbEntity
  8
0
100
AcDbBlockBegin
  2
*Paper_Space0
 70
     0
 10
0.0
 20
0.0
 30
0.0
  3
*Paper_Space0
  1

  0
ENDBLK
  5
25
330
23
100
AcDbEntity
  8
0
100
AcDbBlockEnd
  0
ENDSEC
  0
SECTION
  2
ENTITIES
0
LWPOLYLINE
5
1f0
100
AcDbEntity
8
0
62
0
370
0
100
AcDbPolyline
66
1
90
3
70
0
39
0.000000
 10
71.437503
 20
209.931006
 10
26.479499
 20
209.931006
 10
26.479499
 20
193.230497
0
LWPOLYLINE
5
1f1
100
AcDbEntity
8
0
62
0
370
0
100
AcDbPolyline
66
1
90
4
70
0
39
0.000000
 10
26.479499
 20
189.865004
 10
26.479499
 20
173.164495
 10
71.437503
 20
173.164495
 10
71.437503
 20
189.865004
0
LWPOLYLINE
5
1f2
100
AcDbEntity
8
0
62
0
370
0
100
AcDbPolyline
66
1
90
2
70
0
39
0.000000
 10
71.437503
 20
193.230497
 10
71.437503
 20
209.931006
0
LWPOLYLINE
5
1f3
100
AcDbEntity
8
0
62
0
370
0
100
AcDbPolyline
66
1
90
2
70
0
39
0.000000
 10
27.432001
 20
208.978502
 10
27.432001
 20
174.116999
0
LWPOLYLINE
5
1f4
100
AcDbEntity
8
0
62
0
370
0
100
AcDbPolyline
66
1
90
2
70
0
39
0.000000
 10
28.066999
 20
193.230497
 10
28.066999
 20
189.865004
0
LWPOLYLINE
5
1f5
100
AcDbEntity
8
0
62
0
370
0
100
AcDbPolyline
66
1
90
2
70
0
39
0.000000
 10
28.257499
 20
199.072496
 10
28.257499
 20
197.548493
0
LWPOLYLINE
5
1f6
100
AcDbEntity
8
0
62
0
370
0
100
AcDbPolyline
66
1
90
2
70
0
39
0.000000
 10
28.702000
 20
199.072496
 10
28.702000
 20
197.929499
0
LWPOLYLINE
5
1f7
100
AcDbEntity
8
0
62
0
370
0
100
AcDbPolyline
66
1
90
2
70
0
39
0.000000
 10
43.370498
 20
199.072496
 10
43.370498
 20
197.548493
0
LWPOLYLINE
5
1f8
100
AcDbEntity
8
0
62
0
370
0
100
AcDbPolyline
66
1
90
2
70
0
39
0.000000
 10
42.989498
 20
199.072496
 10
42.989498
 20
197.929499
0
LWPOLYLINE
5
1f9
100
AcDbEntity
8
0
62
0
370
0
100
AcDbPolyline
66
1
90
2
70
0
39
0.000000
 10
70.548501
 20
208.978502
 10
70.548501
 20
174.116999
0
LWPOLYLINE
5
1fa
100
AcDbEntity
8
0
62
0
370
0
100
AcDbPolyline
66
1
90
2
70
0
39
0.000000
 10
69.913500
 20
193.230497
 10
69.913500
 20
189.865004
0
LWPOLYLINE
5
1fb
100
AcDbEntity
8
0
62
0
370
0
100
AcDbPolyline
66
1
90
2
70
0
39
0.000000
 10
69.723002
 20
199.072496
 10
69.723002
 20
197.548493
0
LWPOLYLINE
5
1fc
100
AcDbEntity
8
0
62
0
370
0
100
AcDbPolyline
66
1
90
2
70
0
39
0.000000
 10
69.278499
 20
199.072496
 10
69.278499
 20
197.929499
0
LWPOLYLINE
5
1fd
100
AcDbEntity
8
0
62
0
370
0
100
AcDbPolyline
66
1
90
2
70
0
39
0.000000
 10
54.546501
 20
199.072496
 10
54.546501
 20
197.548493
0
LWPOLYLINE
5
1fe
100
AcDbEntity
8
0
62
0
370
0
100
AcDbPolyline
66
1
90
2
70
0
39
0.000000
 10
54.990999
 20
199.072496
 10
54.990999
 20
197.929499
0
HATCH
5
1ff
100
AcDbEntity
8
0
62
0
100
AcDbHatch
10
0.0
20
0.0
30
0.0
210
0.0
220
0.0
230
1.0
2
SOLID
70
1
71
1
91
1
92
1
93
1
72
2
 10
70.548501
 20
179.832003
40
0.127000
50
0.0
51
360.0
73
1
97
0
75
0
76
1
98
1
10
0.0
20
0.0
0
HATCH
5
200
100
AcDbEntity
8
0
62
0
100
AcDbHatch
10
0.0
20
0.0
30
0.0
210
0.0
220
0.0
230
1.0
2
SOLID
70
1
71
1
91
1
92
1
93
1
72
2
 10
70.548501
 20
181.927504
40
0.127000
50
0.0
51
360.0
73
1
97
0
75
0
76
1
98
1
10
0.0
20
0.0
0
LWPOLYLINE
5
201
100
AcDbEntity
8
0
62
0
370
0
100
AcDbPolyline
66
1
90
2
70
0
39
0.000000
 10
27.432001
 20
208.978502
 10
70.548501
 20
208.978502
0
CIRCLE
5
202
100
AcDbEntity
8
0
62
0
370
0
100
AcDbCircle
39
0.000000
 10
30.924500
 20
202.247496
40
1.016001
0
CIRCLE
5
203
100
AcDbEntity
8
0
62
0
370
0
100
AcDbCircle
39
0.000000
 10
67.056001
 20
202.247496
40
1.016000
0
CIRCLE
5
204
100
AcDbEntity
8
0
62
0
370
0
100
AcDbCircle
39
0.000000
 10
67.056001
 20
180.848005
40
1.016000
0
CIRCLE
5
205
100
AcDbEntity
8
0
62
0
370
0
100
AcDbCircle
39
0.000000
 10
30.924500
 20
180.911503
40
1.016001
0
LWPOLYLINE
5
206
100
AcDbEntity
8
0
62
0
370
0
100
AcDbPolyline
66
1
90
11
70
1
39
0.000000
 10
30.924501
 20
202.755497
 10
30.670501
 20
202.691999
 10
30.480001
 20
202.438009
 10
30.416500
 20
202.183998
 10
30.543501
 20
201.930009
 10
30.797501
 20
201.739495
 10
31.051499
 20
201.739495
 10
31.305499
 20
201.930009
 10
31.432499
 20
202.183998
 10
31.368999
 20
202.438009
 10
31.178499
 20
202.691999
0
LWPOLYLINE
5
207
100
AcDbEntity
8
0
62
0
370
0
100
AcDbPolyline
66
1
90
11
70
1
39
0.000000
 10
67.055998
 20
202.755497
 10
66.801998
 20
202.691999
 10
66.611500
 20
202.438009
 10
66.548002
 20
202.183998
 10
66.675003
 20
201.930009
 10
66.928998
 20
201.739495
 10
67.182998
 20
201.739495
 10
67.436999
 20
201.930009
 10
67.563999
 20
202.183998
 10
67.500501
 20
202.438009
 10
67.309998
 20
202.691999
0
LWPOLYLINE
5
208
100
AcDbEntity
8
0
62
0
370
0
100
AcDbPolyline
66
1
90
11
70
1
39
0.000000
 10
67.055998
 20
181.356006
 10
66.801998
 20
181.292509
 10
66.611500
 20
181.038497
 10
66.548002
 20
180.784508
 10
66.675003
 20
180.530497
 10
66.928998
 20
180.340004
 10
67.182998
 20
180.340004
 10
67.436999
 20
180.530497
 10
67.563999
 20
180.784508
 10
67.500501
 20
181.038497
 10
67.309998
 20
181.292509
0
LWPOLYLINE
5
209
100
AcDbEntity
8
0
62
0
370
0
100
AcDbPolyline
66
1
90
11
70
1
39
0.000000
 10
30.924501
 20
181.419503
 10
30.670501
 20
181.356006
 10
30.480001
 20
181.101995
 10
30.416500
 20
180.848005
 10
30.543501
 20
180.593994
 10
30.797501
 20
180.403502
 10
31.051499
 20
180.403502
 10
31.305499
 20
180.593994
 10
31.432499
 20
180.848005
 10
31.368999
 20
181.101995
 10
31.178499
 20
181.356006
0
LWPOLYLINE
5
20a
100
AcDbEntity
8
0
62
0
370
0
100
AcDbPolyline
66
1
90
2
70
0
39
0.000000
 10
28.257499
 20
199.072496
 10
43.370498
 20
199.072496
0
LWPOLYLINE
5
20b
100
AcDbEntity
8
0
62
0
370
0
100
AcDbPolyline
66
1
90
2
70
0
39
0.000000
 10
54.546501
 20
199.072496
 10
69.723002
 20
199.072496
0
LWPOLYLINE
5
20c
100
AcDbEntity
8
0
62
0
370
0
100
AcDbPolyline
66
1
90
2
70
0
39
0.000000
 10
28.257499
 20
197.548493
 10
43.370498
 20
197.548493
0
LWPOLYLINE
5
20d
100
AcDbEntity
8
0
62
0
370
0
100
AcDbPolyline
66
1
90
2
70
0
39
0.000000
 10
28.702000
 20
197.929499
 10
42.989498
 20
197.929499
0
LWPOLYLINE
5
20e
100
AcDbEntity
8
0
62
0
370
0
100
AcDbPolyline
66
1
90
2
70
0
39
0.000000
 10
54.546501
 20
197.548493
 10
69.723002
 20
197.548493
0
LWPOLYLINE
5
20f
100
AcDbEntity
8
0
62
0
370
0
100
AcDbPolyline
66
1
90
2
70
0
39
0.000000
 10
54.990999
 20
197.929499
 10
69.278499
 20
197.929499
0
LWPOLYLINE
5
210
100
AcDbEntity
8
0
62
0
370
0
100
AcDbPolyline
66
1
90
2
70
0
39
0.000000
 10
27.432001
 20
174.116999
 10
70.548501
 20
174.116999
0
LWPOLYLINE
5
211
100
AcDbEntity
8
0
62
0
370
0
100
AcDbPolyline
66
1
90
2
70
0
39
0.000000
 10
45.847000
 20
174.751995
 10
46.482001
 20
174.751995
0
LWPOLYLINE
5
212
100
AcDbEntity
8
0
62
0
370
0
100
AcDbPolyline
66
1
90
2
70
0
39
0.000000
 10
51.434998
 20
174.751995
 10
52.069999
 20
174.751995
0
LWPOLYLINE
5
213
100
AcDbEntity
8
0
62
0
370
0
100
AcDbPolyline
66
1
90
2
70
0
39
0.000000
 10
45.847000
 20
184.213497
 10
46.482001
 20
184.213497
0
LWPOLYLINE
5
214
100
AcDbEntity
8
0
62
0
370
0
100
AcDbPolyline
66
1
90
2
70
0
39
0.000000
 10
51.434998
 20
184.213497
 10
52.069999
 20
184.213497
0
LWPOLYLINE
5
215
100
AcDbEntity
8
0
62
0
370
0
100
AcDbPolyline
66
1
90
2
70
0
39
0.000000
 10
46.926499
 20
175.196498
 10
46.926499
 20
183.768994
0
LWPOLYLINE
5
216
100
AcDbEntity
8
0
62
0
370
0
100
AcDbPolyline
66
1
90
3
70
0
39
0.000000
 10
46.482001
 20
174.815503
 10
46.736001
 20
174.942498
 10
46.863001
 20
175.196498
0
LWPOLYLINE
5
217
100
AcDbEntity
8
0
62
0
370
0
100
AcDbPolyline
66
1
90
3
70
0
39
0.000000
 10
46.863001
 20
183.768994
 10
46.736001
 20
184.023005
 10
46.482001
 20
184.150000
0
LWPOLYLINE
5
218
100
AcDbEntity
8
0
62
0
370
0
100
AcDbPolyline
66
1
90
2
70
0
39
0.000000
 10
45.847000
 20
174.751995
 10
45.847000
 20
184.213497
0
LWPOLYLINE
5
219
100
AcDbEntity
8
0
62
0
370
0
100
AcDbPolyline
66
1
90
2
70
0
39
0.000000
 10
51.053998
 20
175.196498
 10
51.053998
 20
183.768994
0
LWPOLYLINE
5
21a
100
AcDbEntity
8
0
62
0
370
0
100
AcDbPolyline
66
1
90
3
70
0
39
0.000000
 10
51.053998
 20
175.196498
 10
51.180998
 20
174.942498
 10
51.434998
 20
174.815503
0
LWPOLYLINE
5
21b
100
AcDbEntity
8
0
62
0
370
0
100
AcDbPolyline
66
1
90
3
70
0
39
0.000000
 10
51.434998
 20
184.150000
 10
51.180998
 20
184.023005
 10
51.053998
 20
183.768994
0
LWPOLYLINE
5
21c
100
AcDbEntity
8
0
62
0
370
0
100
AcDbPolyline
66
1
90
2
70
0
39
0.000000
 10
52.069999
 20
174.751995
 10
52.069999
 20
184.213497
0
LWPOLYLINE
5
21d
100
AcDbEntity
8
0
62
0
370
0
100
AcDbPolyline
66
1
90
11
70
1
39
0.000000
 10
50.038001
 20
182.117997
 10
49.784001
 20
182.054499
 10
49.593498
 20
181.800509
 10
49.530001
 20
181.546498
 10
49.657001
 20
181.292509
 10
49.911001
 20
181.101995
 10
50.165002
 20
181.101995
 10
50.419002
 20
181.292509
 10
50.546002
 20
181.546498
 10
50.482499
 20
181.800509
 10
50.292002
 20
182.054499
0
LWPOLYLINE
5
21e
100
AcDbEntity
8
0
62
0
370
0
100
AcDbPolyline
66
1
90
2
70
0
39
0.000000
 10
26.479499
 20
189.865004
 10
28.066999
 20
189.865004
0
LWPOLYLINE
5
21f
100
AcDbEntity
8
0
62
0
370
0
100
AcDbPolyline
66
1
90
2
70
0
39
0.000000
 10
26.479499
 20
193.230497
 10
28.066999
 20
193.230497
0
LWPOLYLINE
5
220
100
AcDbEntity
8
0
62
0
370
0
100
AcDbPolyline
66
1
90
2
70
0
39
0.000000
 10
71.437503
 20
189.865004
 10
69.913500
 20
189.865004
0
LWPOLYLINE
5
221
100
AcDbEntity
8
0
62
0
370
0
100
AcDbPolyline
66
1
90
2
70
0
39
0.000000
 10
71.437503
 20
193.230497
 10
69.913500
 20
193.230497
0
LWPOLYLINE
5
222
100
AcDbEntity
8
0
62
0
370
0
100
AcDbPolyline
66
1
90
2
70
0
39
0.000000
 10
26.479499
 20
159.575499
 10
71.437503
 20
159.575499
0
LWPOLYLINE
5
223
100
AcDbEntity
8
0
62
0
370
0
100
AcDbPolyline
66
1
90
2
70
0
39
0.000000
 10
26.479499
 20
156.209996
 10
71.437503
 20
156.209996
0
LWPOLYLINE
5
224
100
AcDbEntity
8
0
62
0
370
0
100
AcDbPolyline
66
1
90
2
70
0
39
0.000000
 10
29.844999
 20
158.750000
 10
31.940500
 20
158.750000
0
LWPOLYLINE
5
225
100
AcDbEntity
8
0
62
0
370
0
100
AcDbPolyline
66
1
90
2
70
0
39
0.000000
 10
65.976499
 20
158.750000
 10
68.135502
 20
158.750000
0
LWPOLYLINE
5
226
100
AcDbEntity
8
0
62
0
370
0
100
AcDbPolyline
66
1
90
4
70
0
39
0.000000
 10
71.437503
 20
159.575499
 10
71.437503
 20
153.670002
 10
26.479499
 20
153.670002
 10
26.479499
 20
159.575499
0
LWPOLYLINE
5
227
100
AcDbEntity
8
0
62
0
370
0
100
AcDbPolyline
66
1
90
2
70
0
39
0.000000
 10
116.014498
 20
193.166999
 10
105.092501
 20
193.166999
0
LWPOLYLINE
5
228
100
AcDbEntity
8
0
62
0
370
0
100
AcDbPolyline
66
1
90
2
70
0
39
0.000000
 10
90.170005
 20
193.166999
 10
79.247997
 20
193.166999
0
LWPOLYLINE
5
229
100
AcDbEntity
8
0
62
0
370
0
100
AcDbPolyline
66
1
90
2
70
0
39
0.000000
 10
105.092501
 20
194.817997
 10
90.170005
 20
194.817997
0
LWPOLYLINE
5
22a
100
AcDbEntity
8
0
62
0
370
0
100
AcDbPolyline
66
1
90
2
70
0
39
0.000000
 10
98.869495
 20
201.104499
 10
96.392999
 20
201.104499
0
LWPOLYLINE
5
22b
100
AcDbEntity
8
0
62
0
370
0
100
AcDbPolyline
66
1
90
2
70
0
39
0.000000
 10
98.869495
 20
200.278990
 10
96.392999
 20
200.278990
0
LWPOLYLINE
5
22c
100
AcDbEntity
8
0
62
0
370
0
100
AcDbPolyline
66
1
90
2
70
0
39
0.000000
 10
116.014498
 20
199.008998
 10
99.313999
 20
199.008998
0
LWPOLYLINE
5
22d
100
AcDbEntity
8
0
62
0
370
0
100
AcDbPolyline
66
1
90
2
70
0
39
0.000000
 10
116.014498
 20
195.643506
 10
99.313999
 20
195.643506
0
LWPOLYLINE
5
22e
100
AcDbEntity
8
0
62
0
370
0
100
AcDbPolyline
66
1
90
2
70
0
39
0.000000
 10
99.313999
 20
197.358001
 10
98.869495
 20
197.358001
0
LWPOLYLINE
5
22f
100
AcDbEntity
8
0
62
0
370
0
100
AcDbPolyline
66
1
90
2
70
0
39
0.000000
 10
96.392999
 20
197.358001
 10
95.948496
 20
197.358001
0
LWPOLYLINE
5
230
100
AcDbEntity
8
0
62
0
370
0
100
AcDbPolyline
66
1
90
2
70
0
39
0.000000
 10
95.948496
 20
199.008998
 10
79.247997
 20
199.008998
0
LWPOLYLINE
5
231
100
AcDbEntity
8
0
62
0
370
0
100
AcDbPolyline
66
1
90
2
70
0
39
0.000000
 10
99.313999
 20
195.643506
 10
79.247997
 20
195.643506
0
LWPOLYLINE
5
232
100
AcDbEntity
8
0
62
0
370
0
100
AcDbPolyline
66
1
90
2
70
0
39
0.000000
 10
79.247997
 20
193.166999
 10
79.247997
 20
199.008998
0
LWPOLYLINE
5
233
100
AcDbEntity
8
0
62
0
370
0
100
AcDbPolyline
66
1
90
2
70
0
39
0.000000
 10
116.014498
 20
193.166999
 10
116.014498
 20
199.008998
0
LWPOLYLINE
5
234
100
AcDbEntity
8
0
62
0
370
0
100
AcDbPolyline
66
1
90
2
70
0
39
0.000000
 10
96.392999
 20
197.358001
 10
96.392999
 20
201.104499
0
LWPOLYLINE
5
235
100
AcDbEntity
8
0
62
0
370
0
100
AcDbPolyline
66
1
90
2
70
0
39
0.000000
 10
98.869495
 20
197.358001
 10
98.869495
 20
201.104499
0
LWPOLYLINE
5
236
100
AcDbEntity
8
0
62
0
370
0
100
AcDbPolyline
66
1
90
2
70
0
39
0.000000
 10
95.948496
 20
197.358001
 10
95.948496
 20
199.008998
0
LWPOLYLINE
5
237
100
AcDbEntity
8
0
62
0
370
0
100
AcDbPolyline
66
1
90
2
70
0
39
0.000000
 10
99.313999
 20
197.358001
 10
99.313999
 20
199.008998
0
LWPOLYLINE
5
238
100
AcDbEntity
8
0
62
0
370
0
100
AcDbPolyline
66
1
90
2
70
0
39
0.000000
 10
90.170005
 20
193.166999
 10
90.170005
 20
194.817997
0
LWPOLYLINE
5
239
100
AcDbEntity
8
0
62
0
370
0
100
AcDbPolyline
66
1
90
2
70
0
39
0.000000
 10
105.092501
 20
193.166999
 10
105.092501
 20
194.817997
0
LWPOLYLINE
5
23a
100
AcDbEntity
8
0
62
0
370
0
100
AcDbPolyline
66
1
90
2
70
0
39
0.000000
 10
30.353000
 20
158.750000
 10
30.353000
 20
156.209996
0
LWPOLYLINE
5
23b
100
AcDbEntity
8
0
62
0
370
0
100
AcDbPolyline
66
1
90
2
70
0
39
0.000000
 10
31.432499
 20
158.750000
 10
31.432499
 20
156.209996
0
LWPOLYLINE
5
23c
100
AcDbEntity
8
0
62
0
370
0
100
AcDbPolyline
66
1
90
2
70
0
39
0.000000
 10
29.844999
 20
158.750000
 10
29.844999
 20
156.209996
0
LWPOLYLINE
5
23d
100
AcDbEntity
8
0
62
0
370
0
100
AcDbPolyline
66
1
90
2
70
0
39
0.000000
 10
31.940500
 20
158.750000
 10
31.940500
 20
156.209996
0
LWPOLYLINE
5
23e
100
AcDbEntity
8
0
62
0
370
0
100
AcDbPolyline
66
1
90
2
70
0
39
0.000000
 10
66.548002
 20
158.750000
 10
66.548002
 20
156.209996
0
LWPOLYLINE
5
23f
100
AcDbEntity
8
0
62
0
370
0
100
AcDbPolyline
66
1
90
2
70
0
39
0.000000
 10
67.563999
 20
158.750000
 10
67.563999
 20
156.209996
0
LWPOLYLINE
5
240
100
AcDbEntity
8
0
62
0
370
0
100
AcDbPolyline
66
1
90
2
70
0
39
0.000000
 10
65.976499
 20
158.750000
 10
65.976499
 20
156.209996
0
LWPOLYLINE
5
241
100
AcDbEntity
8
0
62
0
370
0
100
AcDbPolyline
66
1
90
2
70
0
39
0.000000
 10
68.135502
 20
158.750000
 10
68.135502
 20
156.209996
0
HATCH
5
242
100
AcDbEntity
8
0
62
0
100
AcDbHatch
10
0.0
20
0.0
30
0.0
210
0.0
220
0.0
230
1.0
2
SOLID
70
1
71
1
91
1
92
1
93
1
72
2
 10
67.055998
 20
153.670002
40
0.127000
50
0.0
51
360.0
73
1
97
0
75
0
76
1
98
1
10
0.0
20
0.0
0
LWPOLYLINE
5
243
100
AcDbEntity
8
0
62
0
370
0
100
AcDbPolyline
66
1
90
2
70
0
39
0.000000
 10
85.851998
 20
198.183510
 10
88.010996
 20
198.183510
0
LWPOLYLINE
5
244
100
AcDbEntity
8
0
62
0
370
0
100
AcDbPolyline
66
1
90
2
70
0
39
0.000000
 10
86.423496
 20
198.183510
 10
86.423496
 20
195.643506
0
LWPOLYLINE
5
245
100
AcDbEntity
8
0
62
0
370
0
100
AcDbPolyline
66
1
90
2
70
0
39
0.000000
 10
87.439498
 20
198.183510
 10
87.439498
 20
195.643506
0
LWPOLYLINE
5
246
100
AcDbEntity
8
0
62
0
370
0
100
AcDbPolyline
66
1
90
2
70
0
39
0.000000
 10
85.851998
 20
198.183510
 10
85.851998
 20
195.643506
0
LWPOLYLINE
5
247
100
AcDbEntity
8
0
62
0
370
0
100
AcDbPolyline
66
1
90
2
70
0
39
0.000000
 10
88.010996
 20
198.183510
 10
88.010996
 20
195.643506
0
LWPOLYLINE
5
248
100
AcDbEntity
8
0
62
0
370
0
100
AcDbPolyline
66
1
90
2
70
0
39
0.000000
 10
107.314996
 20
198.183510
 10
109.410497
 20
198.183510
0
LWPOLYLINE
5
249
100
AcDbEntity
8
0
62
0
370
0
100
AcDbPolyline
66
1
90
2
70
0
39
0.000000
 10
107.822997
 20
198.183510
 10
107.822997
 20
195.643506
0
LWPOLYLINE
5
24a
100
AcDbEntity
8
0
62
0
370
0
100
AcDbPolyline
66
1
90
2
70
0
39
0.000000
 10
108.838999
 20
198.183510
 10
108.838999
 20
195.643506
0
LWPOLYLINE
5
24b
100
AcDbEntity
8
0
62
0
370
0
100
AcDbPolyline
66
1
90
2
70
0
39
0.000000
 10
107.314996
 20
198.183510
 10
107.314996
 20
195.643506
0
LWPOLYLINE
5
24c
100
AcDbEntity
8
0
62
0
370
0
100
AcDbPolyline
66
1
90
2
70
0
39
0.000000
 10
109.410497
 20
198.183510
 10
109.410497
 20
195.643506
0
LWPOLYLINE
5
24d
100
AcDbEntity
8
0
62
0
370
0
100
AcDbPolyline
66
1
90
4
70
1
39
0.000000
 10
71.501000
 20
88.074501
 10
26.479499
 20
88.074501
 10
26.479499
 20
51.308001
 10
71.501000
 20
51.308001
0
LWPOLYLINE
5
24e
100
AcDbEntity
8
0
62
0
370
0
100
AcDbPolyline
66
1
90
4
70
0
39
0.000000
 10
70.548501
 20
52.260500
 10
70.548501
 20
87.122002
 10
27.432001
 20
87.122002
 10
27.432001
 20
52.260500
0
LWPOLYLINE
5
24f
100
AcDbEntity
8
0
62
0
370
0
100
AcDbPolyline
66
1
90
2
70
0
39
0.000000
 10
27.432001
 20
81.914999
 10
70.548501
 20
81.914999
0
LWPOLYLINE
5
250
100
AcDbEntity
8
0
62
0
370
0
100
AcDbPolyline
66
1
90
2
70
0
39
0.000000
 10
27.432001
 20
78.993999
 10
70.548501
 20
78.993999
0
LWPOLYLINE
5
251
100
AcDbEntity
8
0
62
0
370
0
100
AcDbPolyline
66
1
90
2
70
0
39
0.000000
 10
27.432001
 20
52.260500
 10
70.548501
 20
52.260500
0
LWPOLYLINE
5
252
100
AcDbEntity
8
0
62
0
370
0
100
AcDbPolyline
66
1
90
2
70
0
39
0.000000
 10
27.432001
 20
57.467498
 10
70.548501
 20
57.467498
0
LWPOLYLINE
5
253
100
AcDbEntity
8
0
62
0
370
0
100
AcDbPolyline
66
1
90
2
70
0
39
0.000000
 10
27.432001
 20
60.388497
 10
70.548501
 20
60.388497
0
LWPOLYLINE
5
254
100
AcDbEntity
8
0
62
0
370
0
100
AcDbPolyline
66
1
90
2
70
0
39
0.000000
 10
26.479499
 20
12.700000
 10
29.844999
 20
12.700000
0
LWPOLYLINE
5
255
100
AcDbEntity
8
0
62
0
370
0
100
AcDbPolyline
66
1
90
2
70
0
39
0.000000
 10
68.135502
 20
12.700000
 10
71.501000
 20
12.700000
0
LWPOLYLINE
5
256
100
AcDbEntity
8
0
62
0
370
0
100
AcDbPolyline
66
1
90
2
70
0
39
0.000000
 10
29.844999
 20
16.891000
 10
68.135502
 20
16.891000
0
LWPOLYLINE
5
257
100
AcDbEntity
8
0
62
0
370
0
100
AcDbPolyline
66
1
90
2
70
0
39
0.000000
 10
26.479499
 20
19.812001
 10
71.501000
 20
19.812001
0
LWPOLYLINE
5
258
100
AcDbEntity
8
0
62
0
370
0
100
AcDbPolyline
66
1
90
2
70
0
39
0.000000
 10
26.479499
 20
27.812999
 10
71.501000
 20
27.812999
0
LWPOLYLINE
5
259
100
AcDbEntity
8
0
62
0
370
0
100
AcDbPolyline
66
1
90
3
70
0
39
0.000000
 10
71.501000
 20
32.004000
 10
26.479499
 20
32.004000
 10
26.479499
 20
12.700000
0
LWPOLYLINE
5
25a
100
AcDbEntity
8
0
62
0
370
0
100
AcDbPolyline
66
1
90
2
70
0
39
0.000000
 10
29.844999
 20
12.700000
 10
29.844999
 20
16.891000
0
LWPOLYLINE
5
25b
100
AcDbEntity
8
0
62
0
370
0
100
AcDbPolyline
66
1
90
2
70
0
39
0.000000
 10
71.501000
 20
32.004000
 10
71.501000
 20
12.700000
0
LWPOLYLINE
5
25c
100
AcDbEntity
8
0
62
0
370
0
100
AcDbPolyline
66
1
90
2
70
0
39
0.000000
 10
68.135502
 20
16.891000
 10
68.135502
 20
12.700000
0
LWPOLYLINE
5
25d
100
AcDbEntity
8
0
62
0
370
0
100
AcDbPolyline
66
1
90
2
70
0
39
0.000000
 10
85.471002
 20
64.008001
 10
122.237503
 20
64.008001
0
LWPOLYLINE
5
25e
100
AcDbEntity
8
0
62
0
370
0
100
AcDbPolyline
66
1
90
2
70
0
39
0.000000
 10
102.171501
 20
65.595501
 10
105.537004
 20
65.595501
0
LWPOLYLINE
5
25f
100
AcDbEntity
8
0
62
0
370
0
100
AcDbPolyline
66
1
90
2
70
0
39
0.000000
 10
102.171501
 20
66.738497
 10
105.537004
 20
66.738497
0
LWPOLYLINE
5
260
100
AcDbEntity
8
0
62
0
370
0
100
AcDbPolyline
66
1
90
2
70
0
39
0.000000
 10
85.471002
 20
71.183500
 10
85.471002
 20
64.008001
0
LWPOLYLINE
5
261
100
AcDbEntity
8
0
62
0
370
0
100
AcDbPolyline
66
1
90
2
70
0
39
0.000000
 10
93.852995
 20
83.375499
 10
113.855499
 20
83.375499
0
LWPOLYLINE
5
262
100
AcDbEntity
8
0
62
0
370
0
100
AcDbPolyline
66
1
90
2
70
0
39
0.000000
 10
90.995504
 20
79.184502
 10
93.852995
 20
79.184502
0
LWPOLYLINE
5
263
100
AcDbEntity
8
0
62
0
370
0
100
AcDbPolyline
66
1
90
2
70
0
39
0.000000
 10
113.855499
 20
79.184502
 10
116.713001
 20
79.184502
0
LWPOLYLINE
5
264
100
AcDbEntity
8
0
62
0
370
0
100
AcDbPolyline
66
1
90
2
70
0
39
0.000000
 10
85.471002
 20
71.183500
 10
90.995504
 20
71.183500
0
LWPOLYLINE
5
265
100
AcDbEntity
8
0
62
0
370
0
100
AcDbPolyline
66
1
90
3
70
0
39
0.000000
 10
116.713001
 20
71.183500
 10
122.237503
 20
71.183500
 10
122.237503
 20
64.008001
0
LWPOLYLINE
5
266
100
AcDbEntity
8
0
62
0
370
0
100
AcDbPolyline
66
1
90
2
70
0
39
0.000000
 10
90.995504
 20
79.184502
 10
90.995504
 20
71.183500
0
LWPOLYLINE
5
267
100
AcDbEntity
8
0
62
0
370
0
100
AcDbPolyline
66
1
90
2
70
0
39
0.000000
 10
116.713001
 20
79.184502
 10
116.713001
 20
71.183500
0
LWPOLYLINE
5
268
100
AcDbEntity
8
0
62
0
370
0
100
AcDbPolyline
66
1
90
2
70
0
39
0.000000
 10
93.852995
 20
83.375499
 10
93.852995
 20
79.184502
0
LWPOLYLINE
5
269
100
AcDbEntity
8
0
62
0
370
0
100
AcDbPolyline
66
1
90
2
70
0
39
0.000000
 10
113.855499
 20
83.375499
 10
113.855499
 20
79.184502
0
LWPOLYLINE
5
26a
100
AcDbEntity
8
0
62
0
370
0
100
AcDbPolyline
66
1
90
2
70
0
39
0.000000
 10
150.558502
 20
26.162001
 10
154.559001
 20
28.511500
0
LWPOLYLINE
5
26b
100
AcDbEntity
8
0
62
0
370
0
100
AcDbPolyline
66
1
90
2
70
0
39
0.000000
 10
188.912503
 20
48.323498
 10
192.595504
 20
50.482502
0
LWPOLYLINE
5
26c
100
AcDbEntity
8
0
62
0
370
0
100
AcDbPolyline
66
1
90
2
70
0
39
0.000000
 10
123.443997
 20
41.846501
 10
150.558502
 20
26.162001
0
LWPOLYLINE
5
26d
100
AcDbEntity
8
0
62
0
370
0
100
AcDbPolyline
66
1
90
6
70
0
39
0.000000
 10
128.206497
 20
50.673000
 10
123.443997
 20
47.942498
 10
150.558502
 20
32.321501
 10
192.595504
 20
56.578502
 10
188.467999
 20
58.991500
 10
146.430998
 20
34.671000
0
LWPOLYLINE
5
26e
100
AcDbEntity
8
0
62
0
370
0
100
AcDbPolyline
66
1
90
2
70
0
39
0.000000
 10
130.746501
 20
57.213497
 10
128.206497
 20
55.752998
0
LWPOLYLINE
5
26f
100
AcDbEntity
8
0
62
0
370
0
100
AcDbPolyline
66
1
90
2
70
0
39
0.000000
 10
146.430998
 20
45.212001
 10
188.467999
 20
69.532502
0
LWPOLYLINE
5
270
100
AcDbEntity
8
0
62
0
370
0
100
AcDbPolyline
66
1
90
2
70
0
39
0.000000
 10
128.206497
 20
55.752998
 10
128.206497
 20
45.212001
0
LWPOLYLINE
5
271
100
AcDbEntity
8
0
62
0
370
0
100
AcDbPolyline
66
1
90
2
70
0
39
0.000000
 10
146.430998
 20
45.212001
 10
146.430998
 20
34.671000
0
LWPOLYLINE
5
272
100
AcDbEntity
8
0
62
0
370
0
100
AcDbPolyline
66
1
90
3
70
0
39
0.000000
 10
188.467999
 20
58.991500
 10
188.467999
 20
69.532502
 10
186.309001
 20
70.802499
0
LWPOLYLINE
5
273
100
AcDbEntity
8
0
62
0
370
0
100
AcDbPolyline
66
1
90
2
70
0
39
0.000000
 10
128.206497
 20
55.752998
 10
146.430998
 20
45.212001
0
LWPOLYLINE
5
274
100
AcDbEntity
8
0
62
0
370
0
100
AcDbPolyline
66
1
90
2
70
0
39
0.000000
 10
144.272000
 20
46.481998
 10
186.309001
 20
70.802499
0
LWPOLYLINE
5
275
100
AcDbEntity
8
0
62
0
370
0
100
AcDbPolyline
66
1
90
2
70
0
39
0.000000
 10
172.847010
 20
82.423000
 10
130.746501
 20
58.166002
0
LWPOLYLINE
5
276
100
AcDbEntity
8
0
62
0
370
0
100
AcDbPolyline
66
1
90
3
70
0
39
0.000000
 10
186.309001
 20
74.612500
 10
144.272000
 20
50.355502
 10
144.272000
 20
46.481998
0
LWPOLYLINE
5
277
100
AcDbEntity
8
0
62
0
370
0
100
AcDbPolyline
66
1
90
2
70
0
39
0.000000
 10
130.746501
 20
58.166002
 10
130.746501
 20
54.292498
0
LWPOLYLINE
5
278
100
AcDbEntity
8
0
62
0
370
0
100
AcDbPolyline
66
1
90
3
70
0
39
0.000000
 10
186.309001
 20
70.802499
 10
186.309001
 20
74.612500
 10
172.847010
 20
82.423000
0
LWPOLYLINE
5
279
100
AcDbEntity
8
0
62
0
370
0
100
AcDbPolyline
66
1
90
2
70
0
39
0.000000
 10
130.746501
 20
58.166002
 10
144.272000
 20
50.355502
0
LWPOLYLINE
5
27a
100
AcDbEntity
8
0
62
0
370
0
100
AcDbPolyline
66
1
90
2
70
0
39
0.000000
 10
123.443997
 20
47.942498
 10
123.443997
 20
41.846501
0
LWPOLYLINE
5
27b
100
AcDbEntity
8
0
62
0
370
0
100
AcDbPolyline
66
1
90
2
70
0
39
0.000000
 10
150.558502
 20
32.321501
 10
150.558502
 20
26.162001
0
LWPOLYLINE
5
27c
100
AcDbEntity
8
0
62
0
370
0
100
AcDbPolyline
66
1
90
2
70
0
39
0.000000
 10
192.595504
 20
56.578502
 10
192.595504
 20
50.482502
0
LWPOLYLINE
5
27d
100
AcDbEntity
8
0
62
0
370
0
100
AcDbPolyline
66
1
90
4
70
0
39
0.000000
 10
154.559001
 20
28.511500
 10
154.559001
 20
31.559500
 10
188.912503
 20
51.435001
 10
188.912503
 20
48.323498
0
LWPOLYLINE
5
27e
100
AcDbEntity
8
0
62
0
370
0
100
AcDbPolyline
66
1
90
2
70
0
39
0.000000
 10
143.001998
 20
155.257502
 10
185.102507
 20
179.514495
0
LWPOLYLINE
5
27f
100
AcDbEntity
8
0
62
0
370
0
100
AcDbPolyline
66
1
90
2
70
0
39
0.000000
 10
115.951000
 20
170.878502
 10
126.110996
 20
165.036503
0
LWPOLYLINE
5
280
100
AcDbEntity
8
0
62
0
370
0
100
AcDbPolyline
66
1
90
2
70
0
39
0.000000
 10
132.968997
 20
161.036004
 10
143.001998
 20
155.257502
0
LWPOLYLINE
5
281
100
AcDbEntity
8
0
62
0
370
0
100
AcDbPolyline
66
1
90
2
70
0
39
0.000000
 10
143.001998
 20
162.559996
 10
185.102507
 20
186.816999
0
LWPOLYLINE
5
282
100
AcDbEntity
8
0
62
0
370
0
100
AcDbPolyline
66
1
90
2
70
0
39
0.000000
 10
115.951000
 20
178.181006
 10
128.460497
 20
170.941999
0
LWPOLYLINE
5
283
100
AcDbEntity
8
0
62
0
370
0
100
AcDbPolyline
66
1
90
2
70
0
39
0.000000
 10
130.746501
 20
169.671997
 10
143.001998
 20
162.559996
0
LWPOLYLINE
5
284
100
AcDbEntity
8
0
62
0
370
0
100
AcDbPolyline
66
1
90
3
70
0
39
0.000000
 10
115.951000
 20
178.181006
 10
157.988001
 20
202.501507
 10
170.497498
 20
195.262500
0
LWPOLYLINE
5
285
100
AcDbEntity
8
0
62
0
370
0
100
AcDbPolyline
66
1
90
2
70
0
39
0.000000
 10
172.783491
 20
193.928990
 10
185.102507
 20
186.816999
0
LWPOLYLINE
5
286
100
AcDbEntity
8
0
62
0
370
0
100
AcDbPolyline
66
1
90
2
70
0
39
0.000000
 10
143.001998
 20
155.257502
 10
143.001998
 20
162.559996
0
LWPOLYLINE
5
287
100
AcDbEntity
8
0
62
0
370
0
100
AcDbPolyline
66
1
90
2
70
0
39
0.000000
 10
115.951000
 20
170.878502
 10
115.951000
 20
178.181006
0
LWPOLYLINE
5
288
100
AcDbEntity
8
0
62
0
370
0
100
AcDbPolyline
66
1
90
2
70
0
39
0.000000
 10
185.102507
 20
179.514495
 10
185.102507
 20
186.816999
0
LWPOLYLINE
5
289
100
AcDbEntity
8
0
62
0
370
0
100
AcDbPolyline
66
1
90
4
70
0
39
0.000000
 10
126.110996
 20
165.036503
 10
126.110996
 20
166.750997
 10
132.968997
 20
162.687001
 10
132.968997
 20
161.036004
0
LWPOLYLINE
5
28a
100
AcDbEntity
8
0
62
0
370
0
100
AcDbPolyline
66
1
90
3
70
0
39
0.000000
 10
119.062503
 20
176.339495
 10
157.988001
 20
198.818506
 10
185.102507
 20
183.197496
0
LWPOLYLINE
5
28b
100
AcDbEntity
8
0
62
0
370
0
100
AcDbPolyline
66
1
90
17
70
0
39
0.000000
 10
177.228504
 20
182.308510
 10
176.847498
 20
182.372008
 10
176.402995
 20
182.372008
 10
175.958491
 20
182.372008
 10
175.577507
 20
182.372008
 10
175.196501
 20
182.308510
 10
174.815495
 20
182.244991
 10
174.498008
 20
182.181494
 10
174.243997
 20
182.054499
 10
174.053504
 20
181.927504
 10
173.990007
 20
181.800509
 10
173.990007
 20
181.609996
 10
174.053504
 20
181.483001
 10
174.243997
 20
181.356006
 10
174.434510
 20
181.228990
 10
174.751998
 20
181.165492
 10
175.069506
 20
181.101995
0
LWPOLYLINE
5
28c
100
AcDbEntity
8
0
62
0
370
0
100
AcDbPolyline
66
1
90
33
70
1
39
0.000000
 10
178.371501
 20
184.467509
 10
178.308004
 20
184.594503
 10
178.181009
 20
184.721498
 10
177.990495
 20
184.848493
 10
177.736505
 20
184.911991
 10
177.418997
 20
185.039007
 10
177.037991
 20
185.102504
 10
176.657006
 20
185.102504
 10
176.276000
 20
185.166002
 10
175.831497
 20
185.166002
 10
175.450491
 20
185.102504
 10
175.069506
 20
185.039007
 10
174.751998
 20
184.975509
 10
174.434510
 20
184.848493
 10
174.243997
 20
184.784996
 10
174.053504
 20
184.658001
 10
173.990007
 20
184.531006
 10
173.990007
 20
184.403990
 10
174.053504
 20
184.213497
 10
174.243997
 20
184.150000
 10
174.434510
 20
184.023005
 10
174.751998
 20
183.896010
 10
175.069506
 20
183.832491
 10
175.450491
 20
183.768994
 10
175.831497
 20
183.768994
 10
176.276000
 20
183.705497
 10
176.657006
 20
183.768994
 10
177.037991
 20
183.768994
 10
177.418997
 20
183.896010
 10
177.736505
 20
183.959508
 10
177.990495
 20
184.086503
 10
178.181009
 20
184.150000
 10
178.308004
 20
184.276995
0
LWPOLYLINE
5
28d
100
AcDbEntity
8
0
62
0
370
0
100
AcDbPolyline
66
1
90
2
70
0
39
0.000000
 10
173.990007
 20
184.467509
 10
173.990007
 20
181.673493
0
LWPOLYLINE
5
28e
100
AcDbEntity
8
0
62
0
370
0
100
AcDbPolyline
66
1
90
2
70
0
39
0.000000
 10
178.371501
 20
184.467509
 10
178.371501
 20
182.943506
0
LWPOLYLINE
5
28f
100
AcDbEntity
8
0
62
0
370
0
100
AcDbPolyline
66
1
90
31
70
1
39
0.000000
 10
177.800003
 20
184.658001
 10
177.673008
 20
184.721498
 10
177.545991
 20
184.784996
 10
177.355499
 20
184.784996
 10
177.101510
 20
184.784996
 10
176.847498
 20
184.848493
 10
176.529990
 20
184.848493
 10
176.212503
 20
184.848493
 10
175.894994
 20
184.848493
 10
175.641004
 20
184.848493
 10
175.323496
 20
184.848493
 10
175.069506
 20
184.784996
 10
174.878992
 20
184.784996
 10
174.688500
 20
184.721498
 10
174.561505
 20
184.721498
 10
174.498008
 20
184.658001
 10
174.561505
 20
184.594503
 10
174.688500
 20
184.531006
 10
174.878992
 20
184.531006
 10
175.069506
 20
184.467509
 10
175.323496
 20
184.467509
 10
175.641004
 20
184.467509
 10
175.894994
 20
184.467509
 10
176.212503
 20
184.467509
 10
176.529990
 20
184.467509
 10
176.847498
 20
184.467509
 10
177.101510
 20
184.467509
 10
177.355499
 20
184.531006
 10
177.545991
 20
184.531006
 10
177.673008
 20
184.594503
 10
177.800003
 20
184.594503
0
LWPOLYLINE
5
290
100
AcDbEntity
8
0
62
0
370
0
100
AcDbPolyline
66
1
90
18
70
0
39
0.000000
 10
124.523496
 20
175.767997
 10
124.587004
 20
175.641002
 10
124.650501
 20
175.513996
 10
124.841004
 20
175.387001
 10
125.095005
 20
175.259996
 10
125.412503
 20
175.196498
 10
125.730001
 20
175.133001
 10
126.110996
 20
175.069503
 10
126.492002
 20
175.069503
 10
126.936505
 20
175.069503
 10
127.317501
 20
175.069503
 10
127.698496
 20
175.133001
 10
128.016004
 20
175.196498
 10
128.333502
 20
175.259996
 10
128.587503
 20
175.387001
 10
128.777995
 20
175.513996
 10
128.841503
 20
175.641002
 10
128.905001
 20
175.767997
0
LWPOLYLINE
5
291
100
AcDbEntity
8
0
62
0
370
0
100
AcDbPolyline
66
1
90
33
70
1
39
0.000000
 10
128.905001
 20
178.498493
 10
128.841503
 20
178.625509
 10
128.714498
 20
178.752504
 10
128.524005
 20
178.879499
 10
128.270005
 20
179.006494
 10
127.952496
 20
179.069991
 10
127.634998
 20
179.133510
 10
127.254003
 20
179.197008
 10
126.809500
 20
179.197008
 10
126.428504
 20
179.197008
 10
125.984001
 20
179.133510
 10
125.602995
 20
179.069991
 10
125.285497
 20
179.006494
 10
124.967999
 20
178.942997
 10
124.777496
 20
178.816002
 10
124.587004
 20
178.689007
 10
124.523496
 20
178.561991
 10
124.523496
 20
178.434996
 10
124.587004
 20
178.308001
 10
124.777496
 20
178.181006
 10
124.967999
 20
178.053990
 10
125.285497
 20
177.926995
 10
125.602995
 20
177.863497
 10
125.984001
 20
177.800000
 10
126.428504
 20
177.800000
 10
126.809500
 20
177.800000
 10
127.254003
 20
177.800000
 10
127.634998
 20
177.863497
 10
127.952496
 20
177.926995
 10
128.270005
 20
177.990492
 10
128.524005
 20
178.117509
 10
128.714498
 20
178.244503
 10
128.841503
 20
178.371498
0
LWPOLYLINE
5
292
100
AcDbEntity
8
0
62
0
370
0
100
AcDbPolyline
66
1
90
2
70
0
39
0.000000
 10
124.523496
 20
178.498493
 10
124.523496
 20
175.767997
0
LWPOLYLINE
5
293
100
AcDbEntity
8
0
62
0
370
0
100
AcDbPolyline
66
1
90
2
70
0
39
0.000000
 10
128.905001
 20
178.498493
 10
128.905001
 20
175.767997
0
LWPOLYLINE
5
294
100
AcDbEntity
8
0
62
0
370
0
100
AcDbPolyline
66
1
90
32
70
1
39
0.000000
 10
128.397000
 20
178.689007
 10
128.333502
 20
178.752504
 10
128.270005
 20
178.752504
 10
128.079502
 20
178.816002
 10
127.888999
 20
178.816002
 10
127.698496
 20
178.879499
 10
127.380998
 20
178.879499
 10
127.126998
 20
178.879499
 10
126.809500
 20
178.879499
 10
126.492002
 20
178.879499
 10
126.174504
 20
178.879499
 10
125.856995
 20
178.879499
 10
125.602995
 20
178.879499
 10
125.412503
 20
178.816002
 10
125.222000
 20
178.816002
 10
125.095005
 20
178.752504
 10
125.095005
 20
178.689007
 10
125.095005
 20
178.625509
 10
125.222000
 20
178.625509
 10
125.412503
 20
178.561991
 10
125.602995
 20
178.561991
 10
125.856995
 20
178.498493
 10
126.174504
 20
178.498493
 10
126.492002
 20
178.498493
 10
126.809500
 20
178.498493
 10
127.126998
 20
178.498493
 10
127.380998
 20
178.498493
 10
127.698496
 20
178.498493
 10
127.888999
 20
178.561991
 10
128.079502
 20
178.561991
 10
128.270005
 20
178.625509
 10
128.333502
 20
178.625509
0
LWPOLYLINE
5
295
100
AcDbEntity
8
0
62
0
370
0
100
AcDbPolyline
66
1
90
7
70
0
39
0.000000
 10
143.319495
 20
164.020501
 10
143.383004
 20
163.893495
 10
143.446501
 20
163.766500
 10
143.637004
 20
163.639495
 10
143.827496
 20
163.512500
 10
144.145005
 20
163.449003
 10
144.462503
 20
163.385505
0
LWPOLYLINE
5
296
100
AcDbEntity
8
0
62
0
370
0
100
AcDbPolyline
66
1
90
33
70
1
39
0.000000
 10
147.701000
 20
166.750997
 10
147.637503
 20
166.878003
 10
147.510497
 20
167.004998
 10
147.320005
 20
167.132003
 10
147.066004
 20
167.258998
 10
146.812004
 20
167.322496
 10
146.430998
 20
167.386004
 10
146.050003
 20
167.449501
 10
145.605499
 20
167.449501
 10
145.224504
 20
167.449501
 10
144.780001
 20
167.386004
 10
144.399005
 20
167.386004
 10
144.081497
 20
167.258998
 10
143.763999
 20
167.195501
 10
143.573496
 20
167.068495
 10
143.446501
 20
166.941500
 10
143.319495
 20
166.814495
 10
143.319495
 20
166.687500
 10
143.446501
 20
166.560505
 10
143.573496
 20
166.433500
 10
143.763999
 20
166.306505
 10
144.081497
 20
166.242997
 10
144.399005
 20
166.116002
 10
144.780001
 20
166.052504
 10
145.224504
 20
166.052504
 10
145.605499
 20
166.052504
 10
146.050003
 20
166.052504
 10
146.430998
 20
166.116002
 10
146.812004
 20
166.179499
 10
147.066004
 20
166.242997
 10
147.320005
 20
166.370002
 10
147.510497
 20
166.496997
 10
147.637503
 20
166.624003
0
LWPOLYLINE
5
297
100
AcDbEntity
8
0
62
0
370
0
100
AcDbPolyline
66
1
90
2
70
0
39
0.000000
 10
143.319495
 20
166.750997
 10
143.319495
 20
164.020501
0
LWPOLYLINE
5
298
100
AcDbEntity
8
0
62
0
370
0
100
AcDbPolyline
66
1
90
2
70
0
39
0.000000
 10
147.701000
 20
166.750997
 10
147.701000
 20
165.290503
0
LWPOLYLINE
5
299
100
AcDbEntity
8
0
62
0
370
0
100
AcDbPolyline
66
1
90
32
70
1
39
0.000000
 10
147.192999
 20
166.941500
 10
147.129502
 20
167.004998
 10
147.066004
 20
167.004998
 10
146.875501
 20
167.068495
 10
146.684998
 20
167.068495
 10
146.494495
 20
167.132003
 10
146.176998
 20
167.132003
 10
145.922997
 20
167.132003
 10
145.605499
 20
167.132003
 10
145.288001
 20
167.132003
 10
144.970504
 20
167.132003
 10
144.716503
 20
167.132003
 10
144.399005
 20
167.132003
 10
144.208502
 20
167.068495
 10
144.017999
 20
167.068495
 10
143.954502
 20
167.004998
 10
143.891004
 20
166.941500
 10
143.954502
 20
166.878003
 10
144.017999
 20
166.878003
 10
144.208502
 20
166.814495
 10
144.399005
 20
166.814495
 10
144.716503
 20
166.750997
 10
144.970504
 20
166.750997
 10
145.288001
 20
166.750997
 10
145.605499
 20
166.750997
 10
145.922997
 20
166.750997
 10
146.176998
 20
166.750997
 10
146.494495
 20
166.814495
 10
146.684998
 20
166.814495
 10
146.875501
 20
166.814495
 10
147.066004
 20
166.878003
 10
147.129502
 20
166.941500
0
LWPOLYLINE
5
29a
100
AcDbEntity
8
0
62
0
370
0
100
AcDbPolyline
66
1
90
2
70
0
39
0.000000
 10
115.951000
 20
174.561503
 10
143.001998
 20
158.876995
0
LWPOLYLINE
5
29b
100
AcDbEntity
8
0
62
0
370
0
100
AcDbPolyline
66
1
90
2
70
0
39
0.000000
 10
125.476000
 20
172.656505
 10
128.079502
 20
174.244005
0
LWPOLYLINE
5
29c
100
AcDbEntity
8
0
62
0
370
0
100
AcDbPolyline
66
1
90
2
70
0
39
0.000000
 10
128.841503
 20
174.625000
 10
132.842002
 20
176.974501
0
LWPOLYLINE
5
29d
100
AcDbEntity
8
0
62
0
370
0
100
AcDbPolyline
66
1
90
2
70
0
39
0.000000
 10
154.305001
 20
189.230009
 10
163.702995
 20
194.691002
0
LWPOLYLINE
5
29e
100
AcDbEntity
8
0
62
0
370
0
100
AcDbPolyline
66
1
90
2
70
0
39
0.000000
 10
126.809500
 20
171.894503
 10
128.587503
 20
172.910505
0
LWPOLYLINE
5
29f
100
AcDbEntity
8
0
62
0
370
0
100
AcDbPolyline
66
1
90
2
70
0
39
0.000000
 10
130.238500
 20
173.862999
 10
134.492999
 20
176.275997
0
LWPOLYLINE
5
2a0
100
AcDbEntity
8
0
62
0
370
0
100
AcDbPolyline
66
1
90
4
70
0
39
0.000000
 10
154.305001
 20
189.230009
 10
155.765495
 20
188.341002
 10
165.226998
 20
193.801995
 10
163.702995
 20
194.691002
0
LWPOLYLINE
5
2a1
100
AcDbEntity
8
0
62
0
370
0
100
AcDbPolyline
66
1
90
2
70
0
39
0.000000
 10
134.492999
 20
176.275997
 10
132.842002
 20
176.974501
0
LWPOLYLINE
5
2a2
100
AcDbEntity
8
0
62
0
370
0
100
AcDbPolyline
66
1
90
2
70
0
39
0.000000
 10
143.001998
 20
158.876995
 10
185.102507
 20
183.197496
0
LWPOLYLINE
5
2a3
100
AcDbEntity
8
0
62
0
370
0
100
AcDbPolyline
66
1
90
2
70
0
39
0.000000
 10
162.369495
 20
173.736004
 10
157.988001
 20
176.275997
0
LWPOLYLINE
5
2a4
100
AcDbEntity
8
0
62
1
370
0
100
AcDbPolyline
66
1
90
2
70
0
39
0.000000
 10
162.496501
 20
173.799501
 10
158.114996
 20
176.275997
0
LWPOLYLINE
5
2a5
100
AcDbEntity
8
0
62
0
370
0
100
AcDbPolyline
66
1
90
2
70
0
39
0.000000
 10
159.321501
 20
171.958001
 10
154.876499
 20
174.498005
0
LWPOLYLINE
5
2a6
100
AcDbEntity
8
0
62
1
370
0
100
AcDbPolyline
66
1
90
2
70
0
39
0.000000
 10
159.194495
 20
171.894503
 10
154.876499
 20
174.434497
0
LWPOLYLINE
5
2a7
100
AcDbEntity
8
0
62
0
370
0
100
AcDbPolyline
66
1
90
2
70
0
39
0.000000
 10
163.004502
 20
174.116999
 10
158.622997
 20
176.657003
0
LWPOLYLINE
5
2a8
100
AcDbEntity
8
0
62
1
370
0
100
AcDbPolyline
66
1
90
2
70
0
39
0.000000
 10
162.941004
 20
174.053502
 10
158.622997
 20
176.593495
0
LWPOLYLINE
5
2a9
100
AcDbEntity
8
0
62
0
370
0
100
AcDbPolyline
66
1
90
2
70
0
39
0.000000
 10
158.622997
 20
171.576995
 10
154.177995
 20
174.116999
0
LWPOLYLINE
5
2aa
100
AcDbEntity
8
0
62
1
370
0
100
AcDbPolyline
66
1
90
2
70
0
39
0.000000
 10
158.686505
 20
171.576995
 10
154.368498
 20
174.116999
0
LWPOLYLINE
5
2ab
100
AcDbEntity
8
0
62
0
370
0
100
AcDbPolyline
66
1
90
2
70
0
39
0.000000
 10
154.177995
 20
174.116999
 10
154.876499
 20
174.498005
0
LWPOLYLINE
5
2ac
100
AcDbEntity
8
0
62
1
370
0
100
AcDbPolyline
66
1
90
2
70
0
39
0.000000
 10
154.368498
 20
174.116999
 10
154.876499
 20
174.434497
0
LWPOLYLINE
5
2ad
100
AcDbEntity
8
0
62
0
370
0
100
AcDbPolyline
66
1
90
2
70
0
39
0.000000
 10
157.988001
 20
176.275997
 10
158.622997
 20
176.657003
0
LWPOLYLINE
5
2ae
100
AcDbEntity
8
0
62
1
370
0
100
AcDbPolyline
66
1
90
2
70
0
39
0.000000
 10
158.114996
 20
176.275997
 10
158.622997
 20
176.593495
0
LWPOLYLINE
5
2af
100
AcDbEntity
8
0
62
0
370
0
100
AcDbPolyline
66
1
90
23
70
1
39
0.000000
 10
159.258004
 20
175.069503
 10
159.258004
 20
175.005995
 10
159.194495
 20
174.942498
 10
159.130998
 20
174.942498
 10
159.067501
 20
174.942498
 10
159.004003
 20
174.942498
 10
158.940495
 20
174.942498
 10
158.876998
 20
174.942498
 10
158.813500
 20
174.942498
 10
158.750003
 20
174.942498
 10
158.686505
 20
175.005995
 10
158.686505
 20
175.069503
 10
158.686505
 20
175.133001
 10
158.750003
 20
175.133001
 10
158.750003
 20
175.196498
 10
158.813500
 20
175.196498
 10
158.876998
 20
175.196498
 10
158.940495
 20
175.196498
 10
159.004003
 20
175.196498
 10
159.067501
 20
175.196498
 10
159.130998
 20
175.196498
 10
159.194495
 20
175.133001
 10
159.258004
 20
175.133001
0
LWPOLYLINE
5
2b0
100
AcDbEntity
8
0
62
0
370
0
100
AcDbPolyline
66
1
90
2
70
0
39
0.000000
 10
172.592999
 20
192.150997
 10
172.592999
 20
197.929499
0
LWPOLYLINE
5
2b1
100
AcDbEntity
8
0
62
0
370
0
100
AcDbPolyline
66
1
90
2
70
0
39
0.000000
 10
170.687991
 20
193.166999
 10
170.687991
 20
199.072496
0
LWPOLYLINE
5
2b2
100
AcDbEntity
8
0
62
0
370
0
100
AcDbPolyline
66
1
90
2
70
0
39
0.000000
 10
130.555998
 20
167.830497
 10
130.555998
 20
173.672496
0
LWPOLYLINE
5
2b3
100
AcDbEntity
8
0
62
0
370
0
100
AcDbPolyline
66
1
90
2
70
0
39
0.000000
 10
128.587503
 20
168.909996
 10
128.587503
 20
173.926496
0
LWPOLYLINE
5
2b4
100
AcDbEntity
8
0
62
0
370
0
100
AcDbPolyline
66
1
90
5
70
0
39
0.000000
 10
172.783491
 20
193.928990
 10
172.783491
 20
192.024003
 10
172.592999
 20
192.150997
 10
170.497498
 20
193.293994
 10
170.497498
 20
195.262500
0
LWPOLYLINE
5
2b5
100
AcDbEntity
8
0
62
0
370
0
100
AcDbPolyline
66
1
90
2
70
0
39
0.000000
 10
170.687991
 20
199.072496
 10
172.592999
 20
197.929499
0
LWPOLYLINE
5
2b6
100
AcDbEntity
8
0
62
0
370
0
100
AcDbPolyline
66
1
90
2
70
0
39
0.000000
 10
130.555998
 20
167.830497
 10
130.555998
 20
173.672496
0
LWPOLYLINE
5
2b7
100
AcDbEntity
8
0
62
0
370
0
100
AcDbPolyline
66
1
90
2
70
0
39
0.000000
 10
128.587503
 20
168.909996
 10
128.587503
 20
173.926496
0
LWPOLYLINE
5
2b8
100
AcDbEntity
8
0
62
0
370
0
100
AcDbPolyline
66
1
90
5
70
0
39
0.000000
 10
130.746501
 20
169.671997
 10
130.746501
 20
167.766999
 10
130.555998
 20
167.830497
 10
128.460497
 20
168.973504
 10
128.460497
 20
170.941999
0
LWPOLYLINE
5
2b9
100
AcDbEntity
8
0
62
0
370
0
100
AcDbPolyline
66
1
90
2
70
0
39
0.000000
 10
128.587503
 20
174.751995
 10
130.555998
 20
173.672496
0
LWPOLYLINE
5
2ba
100
AcDbEntity
8
0
62
0
370
0
100
AcDbPolyline
66
1
90
18
70
0
39
0.000000
 10
155.257505
 20
193.484508
 10
155.321002
 20
193.357491
 10
155.447997
 20
193.230497
 10
155.638500
 20
193.103502
 10
155.829003
 20
193.040004
 10
156.146501
 20
192.913009
 10
156.527496
 20
192.849491
 10
156.845005
 20
192.849491
 10
157.289498
 20
192.785993
 10
157.670504
 20
192.785993
 10
158.051499
 20
192.849491
 10
158.432505
 20
192.849491
 10
158.813500
 20
192.913009
 10
159.067501
 20
193.040004
 10
159.321501
 20
193.103502
 10
159.512004
 20
193.230497
 10
159.638999
 20
193.357491
 10
159.638999
 20
193.484508
0
LWPOLYLINE
5
2bb
100
AcDbEntity
8
0
62
0
370
0
100
AcDbPolyline
66
1
90
33
70
1
39
0.000000
 10
159.638999
 20
196.278502
 10
159.638999
 20
196.405497
 10
159.512004
 20
196.532491
 10
159.321501
 20
196.659508
 10
159.067501
 20
196.723005
 10
158.750003
 20
196.850000
 10
158.368997
 20
196.913497
 10
157.988001
 20
196.913497
 10
157.543498
 20
196.976995
 10
157.162503
 20
196.976995
 10
156.781497
 20
196.913497
 10
156.400501
 20
196.850000
 10
156.019495
 20
196.786503
 10
155.765495
 20
196.659508
 10
155.511505
 20
196.596010
 10
155.384500
 20
196.468994
 10
155.321002
 20
196.341999
 10
155.321002
 20
196.151507
 10
155.384500
 20
196.024491
 10
155.511505
 20
195.897496
 10
155.765495
 20
195.833998
 10
156.019495
 20
195.707003
 10
156.400501
 20
195.643506
 10
156.781497
 20
195.580009
 10
157.162503
 20
195.580009
 10
157.543498
 20
195.516490
 10
157.988001
 20
195.580009
 10
158.368997
 20
195.580009
 10
158.750003
 20
195.643506
 10
159.067501
 20
195.770501
 10
159.321501
 20
195.897496
 10
159.512004
 20
195.960993
 10
159.638999
 20
196.088009
0
LWPOLYLINE
5
2bc
100
AcDbEntity
8
0
62
0
370
0
100
AcDbPolyline
66
1
90
2
70
0
39
0.000000
 10
155.257505
 20
196.278502
 10
155.257505
 20
193.484508
0
LWPOLYLINE
5
2bd
100
AcDbEntity
8
0
62
0
370
0
100
AcDbPolyline
66
1
90
2
70
0
39
0.000000
 10
159.638999
 20
196.278502
 10
159.638999
 20
193.484508
0
LWPOLYLINE
5
2be
100
AcDbEntity
8
0
62
0
370
0
100
AcDbPolyline
66
1
90
33
70
1
39
0.000000
 10
159.130998
 20
196.468994
 10
159.067501
 20
196.468994
 10
159.004003
 20
196.532491
 10
158.876998
 20
196.596010
 10
158.686505
 20
196.596010
 10
158.432505
 20
196.596010
 10
158.178504
 20
196.659508
 10
157.860996
 20
196.659508
 10
157.543498
 20
196.659508
 10
157.226000
 20
196.659508
 10
156.908502
 20
196.659508
 10
156.654502
 20
196.659508
 10
156.400501
 20
196.596010
 10
156.146501
 20
196.596010
 10
156.019495
 20
196.532491
 10
155.892501
 20
196.532491
 10
155.829003
 20
196.468994
 10
155.829003
 20
196.405497
 10
155.892501
 20
196.405497
 10
156.019495
 20
196.341999
 10
156.146501
 20
196.341999
 10
156.400501
 20
196.278502
 10
156.654502
 20
196.278502
 10
156.908502
 20
196.278502
 10
157.226000
 20
196.278502
 10
157.543498
 20
196.278502
 10
157.860996
 20
196.278502
 10
158.178504
 20
196.278502
 10
158.432505
 20
196.278502
 10
158.686505
 20
196.341999
 10
158.876998
 20
196.341999
 10
159.004003
 20
196.405497
 10
159.067501
 20
196.405497
0
LWPOLYLINE
5
2bf
100
AcDbEntity
8
0
62
0
370
0
100
AcDbPolyline
66
1
90
3
70
0
39
0.000000
 10
172.592999
 20
197.358001
 10
172.974005
 20
197.611991
 10
172.592999
 20
197.929499
0
LWPOLYLINE
5
2c0
100
AcDbEntity
8
0
62
0
370
0
100
AcDbPolyline
66
1
90
3
70
0
39
0.000000
 10
130.555998
 20
173.672496
 10
129.793997
 20
173.228003
 10
130.555998
 20
173.228003
0
LWPOLYLINE
5
2c1
100
AcDbEntity
8
0
62
0
370
0
100
AcDbPolyline
66
1
90
3
70
0
39
0.000000
 10
129.793997
 20
173.228003
 10
127.888999
 20
174.307502
 10
128.587503
 20
174.751995
0
LWPOLYLINE
5
2c2
100
AcDbEntity
8
0
62
0
370
0
100
AcDbPolyline
66
1
90
6
70
0
39
0.000000
 10
136.969495
 20
36.322000
 10
138.302995
 20
35.560001
 10
135.826499
 20
37.020501
 10
135.826499
 20
35.877499
 10
138.302995
 20
34.480499
 10
138.302995
 20
35.560001
0
LWPOLYLINE
5
2c3
100
AcDbEntity
8
0
62
0
370
0
100
AcDbPolyline
66
1
90
2
70
0
39
0.000000
 10
26.479499
 20
210.248493
 10
26.479499
 20
220.916490
0
LWPOLYLINE
5
2c4
100
AcDbEntity
8
0
62
0
370
0
100
AcDbPolyline
66
1
90
2
70
0
39
0.000000
 10
71.437503
 20
210.248493
 10
71.437503
 20
220.916490
0
LWPOLYLINE
5
2c5
100
AcDbEntity
8
0
62
0
370
0
100
AcDbPolyline
66
1
90
2
70
0
39
0.000000
 10
27.559001
 20
220.408510
 10
70.421501
 20
220.408510
0
HATCH
5
2c6
100
AcDbEntity
8
0
62
0
100
AcDbHatch
10
0.0
20
0.0
30
0.0
210
0.0
220
0.0
230
1.0
2
SOLID
70
1
71
0
91
1
92
3
72
0
73
1
93
3
 10
27.559001
 20
220.599003
 10
27.559001
 20
220.217997
 10
26.479499
 20
220.408510
97
1
330
30
75
2
76
0
98
1
10
0.0
20
0.0
0
LWPOLYLINE
5
2c7
100
AcDbEntity
8
0
62
0
370
0
100
AcDbPolyline
66
1
90
3
70
1
39
0.000000
 10
27.559001
 20
220.599003
 10
27.559001
 20
220.217997
 10
26.479499
 20
220.408510
0
HATCH
5
2c8
100
AcDbEntity
8
0
62
0
100
AcDbHatch
10
0.0
20
0.0
30
0.0
210
0.0
220
0.0
230
1.0
2
SOLID
70
1
71
0
91
1
92
3
72
0
73
1
93
3
 10
70.421501
 20
220.599003
 10
70.421501
 20
220.217997
 10
71.437503
 20
220.408510
97
1
330
30
75
2
76
0
98
1
10
0.0
20
0.0
0
LWPOLYLINE
5
2c9
100
AcDbEntity
8
0
62
0
370
0
100
AcDbPolyline
66
1
90
3
70
1
39
0.000000
 10
70.421501
 20
220.599003
 10
70.421501
 20
220.217997
 10
71.437503
 20
220.408510
0
LWPOLYLINE
5
2ca
100
AcDbEntity
8
0
62
0
370
0
100
AcDbPolyline
66
1
90
3
70
0
39
0.000000
 10
47.815500
 20
221.551507
 10
48.005998
 20
221.678502
 10
48.005998
 20
220.662500
0
LWPOLYLINE
5
2cb
100
AcDbEntity
8
0
62
0
370
0
100
AcDbPolyline
66
1
90
2
70
0
39
0.000000
 10
47.815500
 20
220.662500
 10
48.196501
 20
220.662500
0
LWPOLYLINE
5
2cc
100
AcDbEntity
8
0
62
0
370
0
100
AcDbPolyline
66
1
90
8
70
1
39
0.000000
 10
48.704502
 20
220.662500
 10
48.577502
 20
220.852992
 10
48.577502
 20
221.551507
 10
48.704502
 20
221.678502
 10
48.894999
 20
221.678502
 10
49.085502
 20
221.551507
 10
49.085502
 20
220.852992
 10
48.894999
 20
220.662500
0
LWPOLYLINE
5
2cd
100
AcDbEntity
8
0
62
0
370
0
100
AcDbPolyline
66
1
90
3
70
0
39
0.000000
 10
49.403000
 20
221.678502
 10
50.101499
 20
221.678502
 10
49.593498
 20
220.662500
0
LWPOLYLINE
5
2ce
100
AcDbEntity
8
0
62
0
370
0
100
AcDbPolyline
66
1
90
2
70
0
39
0.000000
 10
27.432001
 20
209.296010
 10
27.432001
 20
218.058998
0
LWPOLYLINE
5
2cf
100
AcDbEntity
8
0
62
0
370
0
100
AcDbPolyline
66
1
90
2
70
0
39
0.000000
 10
70.548501
 20
209.296010
 10
70.548501
 20
218.058998
0
LWPOLYLINE
5
2d0
100
AcDbEntity
8
0
62
0
370
0
100
AcDbPolyline
66
1
90
2
70
0
39
0.000000
 10
28.448000
 20
217.550997
 10
69.469002
 20
217.550997
0
HATCH
5
2d1
100
AcDbEntity
8
0
62
0
100
AcDbHatch
10
0.0
20
0.0
30
0.0
210
0.0
220
0.0
230
1.0
2
SOLID
70
1
71
0
91
1
92
3
72
0
73
1
93
3
 10
28.448000
 20
217.741490
 10
28.448000
 20
217.360505
 10
27.432001
 20
217.550997
97
1
330
30
75
2
76
0
98
1
10
0.0
20
0.0
0
LWPOLYLINE
5
2d2
100
AcDbEntity
8
0
62
0
370
0
100
AcDbPolyline
66
1
90
3
70
1
39
0.000000
 10
28.448000
 20
217.741490
 10
28.448000
 20
217.360505
 10
27.432001
 20
217.550997
0
HATCH
5
2d3
100
AcDbEntity
8
0
62
0
100
AcDbHatch
10
0.0
20
0.0
30
0.0
210
0.0
220
0.0
230
1.0
2
SOLID
70
1
71
0
91
1
92
3
72
0
73
1
93
3
 10
69.469002
 20
217.741490
 10
69.469002
 20
217.360505
 10
70.548501
 20
217.550997
97
1
330
30
75
2
76
0
98
1
10
0.0
20
0.0
0
LWPOLYLINE
5
2d4
100
AcDbEntity
8
0
62
0
370
0
100
AcDbPolyline
66
1
90
3
70
1
39
0.000000
 10
69.469002
 20
217.741490
 10
69.469002
 20
217.360505
 10
70.548501
 20
217.550997
0
LWPOLYLINE
5
2d5
100
AcDbEntity
8
0
62
0
370
0
100
AcDbPolyline
66
1
90
3
70
0
39
0.000000
 10
47.053499
 20
218.884508
 10
47.244002
 20
219.011503
 10
47.244002
 20
217.995501
0
LWPOLYLINE
5
2d6
100
AcDbEntity
8
0
62
0
370
0
100
AcDbPolyline
66
1
90
2
70
0
39
0.000000
 10
47.053499
 20
217.995501
 10
47.434500
 20
217.995501
0
LWPOLYLINE
5
2d7
100
AcDbEntity
8
0
62
0
370
0
100
AcDbPolyline
66
1
90
8
70
1
39
0.000000
 10
47.942501
 20
217.995501
 10
47.751998
 20
218.122496
 10
47.751998
 20
218.884508
 10
47.942501
 20
219.011503
 10
48.132998
 20
219.011503
 10
48.259998
 20
218.884508
 10
48.259998
 20
218.122496
 10
48.132998
 20
217.995501
0
LWPOLYLINE
5
2d8
100
AcDbEntity
8
0
62
0
370
0
100
AcDbPolyline
66
1
90
10
70
0
39
0.000000
 10
48.640999
 20
218.884508
 10
48.831502
 20
219.011503
 10
49.149000
 20
219.011503
 10
49.339498
 20
218.884508
 10
49.339498
 20
218.693994
 10
49.149000
 20
218.503502
 10
48.831502
 20
218.503502
 10
48.640999
 20
218.313009
 10
48.640999
 20
217.995501
 10
49.339498
 20
217.995501
0
LWPOLYLINE
5
2d9
100
AcDbEntity
8
0
62
0
370
0
100
AcDbPolyline
66
1
90
3
70
0
39
0.000000
 10
49.847498
 20
218.122496
 10
49.847498
 20
217.995501
 10
49.657001
 20
217.805009
0
LWPOLYLINE
5
2da
100
AcDbEntity
8
0
62
0
370
0
100
AcDbPolyline
66
1
90
10
70
0
39
0.000000
 10
50.228499
 20
218.503502
 10
50.736500
 20
218.503502
 10
50.926998
 20
218.313009
 10
50.926998
 20
218.122496
 10
50.736500
 20
217.995501
 10
50.355499
 20
217.995501
 10
50.228499
 20
218.122496
 10
50.228499
 20
218.693994
 10
50.546002
 20
219.011503
 10
50.736500
 20
219.011503
0
LWPOLYLINE
5
2db
100
AcDbEntity
8
0
62
0
370
0
100
AcDbPolyline
66
1
90
2
70
0
39
0.000000
 10
30.924501
 20
202.501507
 10
30.924501
 20
214.883998
0
LWPOLYLINE
5
2dc
100
AcDbEntity
8
0
62
0
370
0
100
AcDbPolyline
66
1
90
2
70
0
39
0.000000
 10
67.055998
 20
202.501507
 10
67.055998
 20
214.883998
0
LWPOLYLINE
5
2dd
100
AcDbEntity
8
0
62
0
370
0
100
AcDbPolyline
66
1
90
2
70
0
39
0.000000
 10
31.940500
 20
214.375997
 10
65.976499
 20
214.375997
0
HATCH
5
2de
100
AcDbEntity
8
0
62
0
100
AcDbHatch
10
0.0
20
0.0
30
0.0
210
0.0
220
0.0
230
1.0
2
SOLID
70
1
71
0
91
1
92
3
72
0
73
1
93
3
 10
31.940500
 20
214.566490
 10
31.940500
 20
214.185505
 10
30.924501
 20
214.375997
97
1
330
30
75
2
76
0
98
1
10
0.0
20
0.0
0
LWPOLYLINE
5
2df
100
AcDbEntity
8
0
62
0
370
0
100
AcDbPolyline
66
1
90
3
70
1
39
0.000000
 10
31.940500
 20
214.566490
 10
31.940500
 20
214.185505
 10
30.924501
 20
214.375997
0
HATCH
5
2e0
100
AcDbEntity
8
0
62
0
100
AcDbHatch
10
0.0
20
0.0
30
0.0
210
0.0
220
0.0
230
1.0
2
SOLID
70
1
71
0
91
1
92
3
72
0
73
1
93
3
 10
65.976499
 20
214.566490
 10
65.976499
 20
214.185505
 10
67.055998
 20
214.375997
97
1
330
30
75
2
76
0
98
1
10
0.0
20
0.0
0
LWPOLYLINE
5
2e1
100
AcDbEntity
8
0
62
0
370
0
100
AcDbPolyline
66
1
90
3
70
1
39
0.000000
 10
65.976499
 20
214.566490
 10
65.976499
 20
214.185505
 10
67.055998
 20
214.375997
0
LWPOLYLINE
5
2e2
100
AcDbEntity
8
0
62
0
370
0
100
AcDbPolyline
66
1
90
16
70
0
39
0.000000
 10
48.640999
 20
215.201507
 10
48.831502
 20
215.010993
 10
48.831502
 20
214.820501
 10
48.640999
 20
214.630009
 10
48.259998
 20
214.630009
 10
48.132998
 20
214.820501
 10
48.132998
 20
215.010993
 10
48.259998
 20
215.201507
 10
48.640999
 20
215.201507
 10
48.831502
 20
215.328502
 10
48.831502
 20
215.518994
 10
48.640999
 20
215.709508
 10
48.259998
 20
215.709508
 10
48.132998
 20
215.518994
 10
48.132998
 20
215.328502
 10
48.259998
 20
215.201507
0
LWPOLYLINE
5
2e3
100
AcDbEntity
8
0
62
0
370
0
100
AcDbPolyline
66
1
90
10
70
0
39
0.000000
 10
49.149000
 20
215.201507
 10
49.657001
 20
215.201507
 10
49.847498
 20
215.010993
 10
49.847498
 20
214.820501
 10
49.657001
 20
214.630009
 10
49.339498
 20
214.630009
 10
49.149000
 20
214.820501
 10
49.149000
 20
215.328502
 10
49.530001
 20
215.709508
 10
49.657001
 20
215.709508
0
LWPOLYLINE
5
2e4
100
AcDbEntity
8
0
62
0
370
0
100
AcDbPolyline
66
1
90
2
70
0
39
0.000000
 10
26.225501
 20
209.931006
 10
19.050000
 20
209.931006
0
LWPOLYLINE
5
2e5
100
AcDbEntity
8
0
62
0
370
0
100
AcDbPolyline
66
1
90
2
70
0
39
0.000000
 10
26.225501
 20
173.164495
 10
19.050000
 20
173.164495
0
LWPOLYLINE
5
2e6
100
AcDbEntity
8
0
62
0
370
0
100
AcDbPolyline
66
1
90
2
70
0
39
0.000000
 10
19.621501
 20
208.915004
 10
19.621501
 20
174.244005
0
HATCH
5
2e7
100
AcDbEntity
8
0
62
0
100
AcDbHatch
10
0.0
20
0.0
30
0.0
210
0.0
220
0.0
230
1.0
2
SOLID
70
1
71
0
91
1
92
3
72
0
73
1
93
3
 10
19.431001
 20
208.915004
 10
19.748501
 20
208.915004
 10
19.621501
 20
209.931006
97
1
330
30
75
2
76
0
98
1
10
0.0
20
0.0
0
LWPOLYLINE
5
2e8
100
AcDbEntity
8
0
62
0
370
0
100
AcDbPolyline
66
1
90
3
70
1
39
0.000000
 10
19.431001
 20
208.915004
 10
19.748501
 20
208.915004
 10
19.621501
 20
209.931006
0
HATCH
5
2e9
100
AcDbEntity
8
0
62
0
100
AcDbHatch
10
0.0
20
0.0
30
0.0
210
0.0
220
0.0
230
1.0
2
SOLID
70
1
71
0
91
1
92
3
72
0
73
1
93
3
 10
19.431001
 20
174.244005
 10
19.748501
 20
174.244005
 10
19.621501
 20
173.164495
97
1
330
30
75
2
76
0
98
1
10
0.0
20
0.0
0
LWPOLYLINE
5
2ea
100
AcDbEntity
8
0
62
0
370
0
100
AcDbPolyline
66
1
90
3
70
1
39
0.000000
 10
19.431001
 20
174.244005
 10
19.748501
 20
174.244005
 10
19.621501
 20
173.164495
0
LWPOLYLINE
5
2eb
100
AcDbEntity
8
0
62
0
370
0
100
AcDbPolyline
66
1
90
16
70
0
39
0.000000
 10
18.605499
 20
190.436503
 10
18.796000
 20
190.626995
 10
18.986500
 20
190.626995
 10
19.177000
 20
190.436503
 10
19.177000
 20
190.055497
 10
18.986500
 20
189.928502
 10
18.796000
 20
189.928502
 10
18.605499
 20
190.055497
 10
18.605499
 20
190.436503
 10
18.478499
 20
190.626995
 10
18.288001
 20
190.626995
 10
18.097501
 20
190.436503
 10
18.097501
 20
190.055497
 10
18.288001
 20
189.928502
 10
18.478499
 20
189.928502
 10
18.605499
 20
190.055497
0
LWPOLYLINE
5
2ec
100
AcDbEntity
8
0
62
0
370
0
100
AcDbPolyline
66
1
90
3
70
0
39
0.000000
 10
18.097501
 20
190.944503
 10
18.097501
 20
191.642997
 10
19.177000
 20
191.134996
0
LWPOLYLINE
5
2ed
100
AcDbEntity
8
0
62
0
370
0
100
AcDbPolyline
66
1
90
3
70
0
39
0.000000
 10
18.986500
 20
192.150997
 10
19.177000
 20
192.150997
 10
19.304000
 20
192.024003
0
LWPOLYLINE
5
2ee
100
AcDbEntity
8
0
62
0
370
0
100
AcDbPolyline
66
1
90
9
70
0
39
0.000000
 10
18.986500
 20
192.532003
 10
19.177000
 20
192.722496
 10
19.177000
 20
193.040004
 10
18.986500
 20
193.230497
 10
18.605499
 20
193.230497
 10
18.478499
 20
193.040004
 10
18.478499
 20
192.532003
 10
18.097501
 20
192.532003
 10
18.097501
 20
193.230497
0
LWPOLYLINE
5
2ef
100
AcDbEntity
8
0
62
0
370
0
100
AcDbPolyline
66
1
90
2
70
0
39
0.000000
 10
27.178000
 20
208.978502
 10
22.606001
 20
208.978502
0
LWPOLYLINE
5
2f0
100
AcDbEntity
8
0
62
0
370
0
100
AcDbPolyline
66
1
90
2
70
0
39
0.000000
 10
27.178000
 20
174.116999
 10
22.606001
 20
174.116999
0
LWPOLYLINE
5
2f1
100
AcDbEntity
8
0
62
0
370
0
100
AcDbPolyline
66
1
90
2
70
0
39
0.000000
 10
23.113999
 20
207.962500
 10
23.113999
 20
175.196498
0
HATCH
5
2f2
100
AcDbEntity
8
0
62
0
100
AcDbHatch
10
0.0
20
0.0
30
0.0
210
0.0
220
0.0
230
1.0
2
SOLID
70
1
71
0
91
1
92
3
72
0
73
1
93
3
 10
22.923501
 20
207.962500
 10
23.304499
 20
207.962500
 10
23.113999
 20
208.978502
97
1
330
30
75
2
76
0
98
1
10
0.0
20
0.0
0
LWPOLYLINE
5
2f3
100
AcDbEntity
8
0
62
0
370
0
100
AcDbPolyline
66
1
90
3
70
1
39
0.000000
 10
22.923501
 20
207.962500
 10
23.304499
 20
207.962500
 10
23.113999
 20
208.978502
0
HATCH
5
2f4
100
AcDbEntity
8
0
62
0
100
AcDbHatch
10
0.0
20
0.0
30
0.0
210
0.0
220
0.0
230
1.0
2
SOLID
70
1
71
0
91
1
92
3
72
0
73
1
93
3
 10
22.923501
 20
175.196498
 10
23.304499
 20
175.196498
 10
23.113999
 20
174.116999
97
1
330
30
75
2
76
0
98
1
10
0.0
20
0.0
0
LWPOLYLINE
5
2f5
100
AcDbEntity
8
0
62
0
370
0
100
AcDbPolyline
66
1
90
3
70
1
39
0.000000
 10
22.923501
 20
175.196498
 10
23.304499
 20
175.196498
 10
23.113999
 20
174.116999
0
LWPOLYLINE
5
2f6
100
AcDbEntity
8
0
62
0
370
0
100
AcDbPolyline
66
1
90
16
70
0
39
0.000000
 10
22.288500
 20
191.198493
 10
22.479000
 20
191.389007
 10
22.669501
 20
191.389007
 10
22.860001
 20
191.198493
 10
22.860001
 20
190.881006
 10
22.669501
 20
190.690492
 10
22.479000
 20
190.690492
 10
22.288500
 20
190.881006
 10
22.288500
 20
191.198493
 10
22.161500
 20
191.389007
 10
21.971000
 20
191.389007
 10
21.780499
 20
191.198493
 10
21.780499
 20
190.881006
 10
21.971000
 20
190.690492
 10
22.161500
 20
190.690492
 10
22.288500
 20
190.881006
0
LWPOLYLINE
5
2f7
100
AcDbEntity
8
0
62
0
370
0
100
AcDbPolyline
66
1
90
7
70
0
39
0.000000
 10
21.971000
 20
191.769991
 10
21.780499
 20
191.897008
 10
21.780499
 20
192.277992
 10
21.971000
 20
192.468506
 10
22.161500
 20
192.468506
 10
22.288500
 20
192.277992
 10
22.288500
 20
192.087500
0
LWPOLYLINE
5
2f8
100
AcDbEntity
8
0
62
0
370
0
100
AcDbPolyline
66
1
90
6
70
0
39
0.000000
 10
22.288500
 20
192.277992
 10
22.479000
 20
192.468506
 10
22.669501
 20
192.468506
 10
22.860001
 20
192.277992
 10
22.860001
 20
191.897008
 10
22.669501
 20
191.769991
0
LWPOLYLINE
5
2f9
100
AcDbEntity
8
0
62
0
370
0
100
AcDbPolyline
66
1
90
2
70
0
39
0.000000
 10
62.547498
 20
186.880497
 10
65.786001
 20
182.562500
0
LWPOLYLINE
5
2fa
100
AcDbEntity
8
0
62
0
370
0
100
AcDbPolyline
66
1
90
2
70
0
39
0.000000
 10
68.326000
 20
179.197008
 10
68.961001
 20
178.371498
0
LWPOLYLINE
5
2fb
100
AcDbEntity
8
0
62
0
370
0
100
AcDbPolyline
66
1
90
4
70
0
39
0.000000
 10
63.563500
 20
186.499491
 10
63.182499
 20
187.007491
 10
64.071501
 20
187.007491
 10
63.182499
 20
186.435993
0
LWPOLYLINE
5
2fc
100
AcDbEntity
8
0
62
0
370
0
100
AcDbPolyline
66
1
90
2
70
0
39
0.000000
 10
63.944501
 20
186.308998
 10
64.388999
 20
185.737500
0
LWPOLYLINE
5
2fd
100
AcDbEntity
8
0
62
0
370
0
100
AcDbPolyline
66
1
90
8
70
1
39
0.000000
 10
64.388999
 20
185.102504
 10
64.452502
 20
185.356494
 10
64.706502
 20
185.547008
 10
64.960502
 20
185.547008
 10
65.151000
 20
185.229499
 10
65.151000
 20
184.975509
 10
64.833502
 20
184.784996
 10
64.642999
 20
184.848493
0
LWPOLYLINE
5
2fe
100
AcDbEntity
8
0
62
0
370
0
100
AcDbPolyline
66
1
90
2
70
0
39
0.000000
 10
64.198501
 20
185.102504
 10
65.341498
 20
185.292997
0
LWPOLYLINE
5
2ff
100
AcDbEntity
8
0
62
0
370
0
100
AcDbPolyline
66
1
90
9
70
0
39
0.000000
 10
64.960502
 20
184.403990
 10
64.897000
 20
184.150000
 10
65.087503
 20
183.896010
 10
65.341498
 20
183.832491
 10
65.659001
 20
184.086503
 10
65.659001
 20
184.276995
 10
65.341498
 20
184.721498
 10
65.659001
 20
184.911991
 10
66.040002
 20
184.403990
0
LWPOLYLINE
5
300
100
AcDbEntity
8
0
62
0
370
0
100
AcDbPolyline
66
1
90
2
70
0
39
0.000000
 10
67.690999
 20
180.022496
 10
66.421002
 20
181.673493
0
HATCH
5
301
100
AcDbEntity
8
0
62
0
100
AcDbHatch
10
0.0
20
0.0
30
0.0
210
0.0
220
0.0
230
1.0
2
SOLID
70
1
71
0
91
1
92
3
72
0
73
1
93
3
 10
68.453000
 20
179.260505
 10
68.199000
 20
179.069991
 10
67.690999
 20
180.022496
97
1
330
30
75
2
76
0
98
1
10
0.0
20
0.0
0
LWPOLYLINE
5
302
100
AcDbEntity
8
0
62
0
370
0
100
AcDbPolyline
66
1
90
3
70
1
39
0.000000
 10
68.453000
 20
179.260505
 10
68.199000
 20
179.069991
 10
67.690999
 20
180.022496
0
HATCH
5
303
100
AcDbEntity
8
0
62
0
100
AcDbHatch
10
0.0
20
0.0
30
0.0
210
0.0
220
0.0
230
1.0
2
SOLID
70
1
71
0
91
1
92
3
72
0
73
1
93
3
 10
65.913001
 20
182.625997
 10
65.659001
 20
182.435505
 10
66.421002
 20
181.673493
97
1
330
30
75
2
76
0
98
1
10
0.0
20
0.0
0
LWPOLYLINE
5
304
100
AcDbEntity
8
0
62
0
370
0
100
AcDbPolyline
66
1
90
3
70
1
39
0.000000
 10
65.913001
 20
182.625997
 10
65.659001
 20
182.435505
 10
66.421002
 20
181.673493
0
LWPOLYLINE
5
305
100
AcDbEntity
8
0
62
0
370
0
100
AcDbPolyline
66
1
90
2
70
0
39
0.000000
 10
58.483502
 20
180.149491
 10
65.468498
 20
180.721010
0
LWPOLYLINE
5
306
100
AcDbEntity
8
0
62
0
370
0
100
AcDbPolyline
66
1
90
2
70
0
39
0.000000
 10
68.643498
 20
180.975000
 10
69.659500
 20
181.038497
0
LWPOLYLINE
5
307
100
AcDbEntity
8
0
62
0
370
0
100
AcDbPolyline
66
1
90
4
70
0
39
0.000000
 10
59.372498
 20
181.038497
 10
58.674000
 20
180.975000
 10
59.118498
 20
181.736991
 10
59.245498
 20
180.657491
0
LWPOLYLINE
5
308
100
AcDbEntity
8
0
62
0
370
0
100
AcDbPolyline
66
1
90
2
70
0
39
0.000000
 10
59.690002
 20
181.228990
 10
60.388500
 20
181.292509
0
LWPOLYLINE
5
309
100
AcDbEntity
8
0
62
0
370
0
100
AcDbPolyline
66
1
90
8
70
1
39
0.000000
 10
60.959998
 20
180.975000
 10
60.769501
 20
181.165492
 10
60.705998
 20
181.483001
 10
60.896501
 20
181.673493
 10
61.213999
 20
181.736991
 10
61.404502
 20
181.546498
 10
61.467999
 20
181.228990
 10
61.277502
 20
181.038497
0
LWPOLYLINE
5
30a
100
AcDbEntity
8
0
62
0
370
0
100
AcDbPolyline
66
1
90
2
70
0
39
0.000000
 10
60.896501
 20
180.784508
 10
61.340999
 20
181.864007
0
LWPOLYLINE
5
30b
100
AcDbEntity
8
0
62
0
370
0
100
AcDbPolyline
66
1
90
10
70
0
39
0.000000
 10
61.785502
 20
181.736991
 10
61.912503
 20
181.927504
 10
62.293498
 20
181.991002
 10
62.484001
 20
181.800509
 10
62.484001
 20
181.609996
 10
62.293498
 20
181.419503
 10
61.976000
 20
181.419503
 10
61.785502
 20
181.228990
 10
61.849000
 20
180.911503
 10
62.547498
 20
180.911503
0
LWPOLYLINE
5
30c
100
AcDbEntity
8
0
62
0
370
0
100
AcDbPolyline
66
1
90
3
70
0
39
0.000000
 10
63.055499
 20
181.165492
 10
63.055499
 20
180.975000
 10
62.865002
 20
180.784508
0
LWPOLYLINE
5
30d
100
AcDbEntity
8
0
62
0
370
0
100
AcDbPolyline
66
1
90
9
70
0
39
0.000000
 10
63.373002
 20
181.165492
 10
63.563500
 20
181.038497
 10
63.944501
 20
181.038497
 10
64.071501
 20
181.228990
 10
64.071501
 20
181.609996
 10
63.880998
 20
181.736991
 10
63.373002
 20
181.736991
 10
63.309500
 20
182.054499
 10
64.007998
 20
182.117997
0
LWPOLYLINE
5
30e
100
AcDbEntity
8
0
62
0
370
0
100
AcDbPolyline
66
1
90
2
70
0
39
0.000000
 10
67.563999
 20
180.911503
 10
66.548002
 20
180.848005
0
HATCH
5
30f
100
AcDbEntity
8
0
62
0
100
AcDbHatch
10
0.0
20
0.0
30
0.0
210
0.0
220
0.0
230
1.0
2
SOLID
70
1
71
0
91
1
92
3
72
0
73
1
93
3
 10
68.643498
 20
181.165492
 10
68.643498
 20
180.784508
 10
67.563999
 20
180.911503
97
1
330
30
75
2
76
0
98
1
10
0.0
20
0.0
0
LWPOLYLINE
5
310
100
AcDbEntity
8
0
62
0
370
0
100
AcDbPolyline
66
1
90
3
70
1
39
0.000000
 10
68.643498
 20
181.165492
 10
68.643498
 20
180.784508
 10
67.563999
 20
180.911503
0
HATCH
5
311
100
AcDbEntity
8
0
62
0
100
AcDbHatch
10
0.0
20
0.0
30
0.0
210
0.0
220
0.0
230
1.0
2
SOLID
70
1
71
0
91
1
92
3
72
0
73
1
93
3
 10
65.468498
 20
180.911503
 10
65.468498
 20
180.530497
 10
66.548002
 20
180.848005
97
1
330
30
75
2
76
0
98
1
10
0.0
20
0.0
0
LWPOLYLINE
5
312
100
AcDbEntity
8
0
62
0
370
0
100
AcDbPolyline
66
1
90
3
70
1
39
0.000000
 10
65.468498
 20
180.911503
 10
65.468498
 20
180.530497
 10
66.548002
 20
180.848005
0
LWPOLYLINE
5
313
100
AcDbEntity
8
0
62
0
370
0
100
AcDbPolyline
66
1
90
2
70
0
39
0.000000
 10
26.225501
 20
153.670002
 10
19.431001
 20
153.670002
0
LWPOLYLINE
5
314
100
AcDbEntity
8
0
62
0
370
0
100
AcDbPolyline
66
1
90
2
70
0
39
0.000000
 10
26.225501
 20
159.575499
 10
19.431001
 20
159.575499
0
LWPOLYLINE
5
315
100
AcDbEntity
8
0
62
0
370
0
100
AcDbPolyline
66
1
90
2
70
0
39
0.000000
 10
19.938999
 20
154.749501
 10
19.938999
 20
158.496000
0
HATCH
5
316
100
AcDbEntity
8
0
62
0
100
AcDbHatch
10
0.0
20
0.0
30
0.0
210
0.0
220
0.0
230
1.0
2
SOLID
70
1
71
0
91
1
92
3
72
0
73
1
93
3
 10
19.748501
 20
154.749501
 10
20.129499
 20
154.749501
 10
19.938999
 20
153.670002
97
1
330
30
75
2
76
0
98
1
10
0.0
20
0.0
0
LWPOLYLINE
5
317
100
AcDbEntity
8
0
62
0
370
0
100
AcDbPolyline
66
1
90
3
70
1
39
0.000000
 10
19.748501
 20
154.749501
 10
20.129499
 20
154.749501
 10
19.938999
 20
153.670002
0
HATCH
5
318
100
AcDbEntity
8
0
62
0
100
AcDbHatch
10
0.0
20
0.0
30
0.0
210
0.0
220
0.0
230
1.0
2
SOLID
70
1
71
0
91
1
92
3
72
0
73
1
93
3
 10
19.748501
 20
158.496000
 10
20.129499
 20
158.496000
 10
19.938999
 20
159.575499
97
1
330
30
75
2
76
0
98
1
10
0.0
20
0.0
0
LWPOLYLINE
5
319
100
AcDbEntity
8
0
62
0
370
0
100
AcDbPolyline
66
1
90
3
70
1
39
0.000000
 10
19.748501
 20
158.496000
 10
20.129499
 20
158.496000
 10
19.938999
 20
159.575499
0
LWPOLYLINE
5
31a
100
AcDbEntity
8
0
62
0
370
0
100
AcDbPolyline
66
1
90
3
70
0
39
0.000000
 10
18.796000
 20
155.955995
 10
18.605499
 20
156.083001
 10
19.685001
 20
156.083001
0
LWPOLYLINE
5
31b
100
AcDbEntity
8
0
62
0
370
0
100
AcDbPolyline
66
1
90
2
70
0
39
0.000000
 10
19.685001
 20
155.955995
 10
19.685001
 20
156.273504
0
LWPOLYLINE
5
31c
100
AcDbEntity
8
0
62
0
370
0
100
AcDbPolyline
66
1
90
4
70
0
39
0.000000
 10
19.304000
 20
157.353003
 10
19.304000
 20
156.654499
 10
18.605499
 20
157.162500
 10
19.685001
 20
157.162500
0
LWPOLYLINE
5
31d
100
AcDbEntity
8
0
62
0
370
0
100
AcDbPolyline
66
1
90
2
70
0
39
0.000000
 10
26.225501
 20
159.575499
 10
21.780499
 20
159.575499
0
LWPOLYLINE
5
31e
100
AcDbEntity
8
0
62
0
370
0
100
AcDbPolyline
66
1
90
2
70
0
39
0.000000
 10
26.225501
 20
156.209996
 10
21.780499
 20
156.209996
0
LWPOLYLINE
5
31f
100
AcDbEntity
8
0
62
0
370
0
100
AcDbPolyline
66
1
90
2
70
0
39
0.000000
 10
22.352000
 20
158.496000
 10
22.352000
 20
157.289495
0
HATCH
5
320
100
AcDbEntity
8
0
62
0
100
AcDbHatch
10
0.0
20
0.0
30
0.0
210
0.0
220
0.0
230
1.0
2
SOLID
70
1
71
0
91
1
92
3
72
0
73
1
93
3
 10
22.161500
 20
158.496000
 10
22.479000
 20
158.496000
 10
22.352000
 20
159.575499
97
1
330
30
75
2
76
0
98
1
10
0.0
20
0.0
0
LWPOLYLINE
5
321
100
AcDbEntity
8
0
62
0
370
0
100
AcDbPolyline
66
1
90
3
70
1
39
0.000000
 10
22.161500
 20
158.496000
 10
22.479000
 20
158.496000
 10
22.352000
 20
159.575499
0
HATCH
5
322
100
AcDbEntity
8
0
62
0
100
AcDbHatch
10
0.0
20
0.0
30
0.0
210
0.0
220
0.0
230
1.0
2
SOLID
70
1
71
0
91
1
92
3
72
0
73
1
93
3
 10
22.161500
 20
157.289495
 10
22.479000
 20
157.289495
 10
22.352000
 20
156.209996
97
1
330
30
75
2
76
0
98
1
10
0.0
20
0.0
0
LWPOLYLINE
5
323
100
AcDbEntity
8
0
62
0
370
0
100
AcDbPolyline
66
1
90
3
70
1
39
0.000000
 10
22.161500
 20
157.289495
 10
22.479000
 20
157.289495
 10
22.352000
 20
156.209996
0
LWPOLYLINE
5
324
100
AcDbEntity
8
0
62
0
370
0
100
AcDbPolyline
66
1
90
16
70
0
39
0.000000
 10
21.526499
 20
158.051496
 10
21.716999
 20
158.241999
 10
21.907499
 20
158.241999
 10
22.034500
 20
158.051496
 10
22.034500
 20
157.733998
 10
21.907499
 20
157.543495
 10
21.716999
 20
157.543495
 10
21.526499
 20
157.733998
 10
21.526499
 20
158.051496
 10
21.336001
 20
158.241999
 10
21.209001
 20
158.241999
 10
21.018501
 20
158.051496
 10
21.018501
 20
157.733998
 10
21.209001
 20
157.543495
 10
21.336001
 20
157.543495
 10
21.526499
 20
157.733998
0
LWPOLYLINE
5
325
100
AcDbEntity
8
0
62
0
370
0
100
AcDbPolyline
66
1
90
2
70
0
39
0.000000
 10
29.590999
 20
158.750000
 10
23.939500
 20
158.750000
0
LWPOLYLINE
5
326
100
AcDbEntity
8
0
62
0
370
0
100
AcDbPolyline
66
1
90
2
70
0
39
0.000000
 10
29.590999
 20
156.209996
 10
23.939500
 20
156.209996
0
LWPOLYLINE
5
327
100
AcDbEntity
8
0
62
0
370
0
100
AcDbPolyline
66
1
90
2
70
0
39
0.000000
 10
24.447501
 20
159.766002
 10
24.447501
 20
160.845501
0
LWPOLYLINE
5
328
100
AcDbEntity
8
0
62
0
370
0
100
AcDbPolyline
66
1
90
2
70
0
39
0.000000
 10
24.447501
 20
155.130497
 10
24.447501
 20
154.114495
0
LWPOLYLINE
5
329
100
AcDbEntity
8
0
62
0
370
0
100
AcDbPolyline
66
1
90
2
70
0
39
0.000000
 10
24.447501
 20
158.750000
 10
24.447501
 20
156.209996
0
HATCH
5
32a
100
AcDbEntity
8
0
62
0
100
AcDbHatch
10
0.0
20
0.0
30
0.0
210
0.0
220
0.0
230
1.0
2
SOLID
70
1
71
0
91
1
92
3
72
0
73
1
93
3
 10
24.320501
 20
159.766002
 10
24.638001
 20
159.766002
 10
24.447501
 20
158.750000
97
1
330
30
75
2
76
0
98
1
10
0.0
20
0.0
0
LWPOLYLINE
5
32b
100
AcDbEntity
8
0
62
0
370
0
100
AcDbPolyline
66
1
90
3
70
1
39
0.000000
 10
24.320501
 20
159.766002
 10
24.638001
 20
159.766002
 10
24.447501
 20
158.750000
0
HATCH
5
32c
100
AcDbEntity
8
0
62
0
100
AcDbHatch
10
0.0
20
0.0
30
0.0
210
0.0
220
0.0
230
1.0
2
SOLID
70
1
71
0
91
1
92
3
72
0
73
1
93
3
 10
24.320501
 20
155.130497
 10
24.638001
 20
155.130497
 10
24.447501
 20
156.209996
97
1
330
30
75
2
76
0
98
1
10
0.0
20
0.0
0
LWPOLYLINE
5
32d
100
AcDbEntity
8
0
62
0
370
0
100
AcDbPolyline
66
1
90
3
70
1
39
0.000000
 10
24.320501
 20
155.130497
 10
24.638001
 20
155.130497
 10
24.447501
 20
156.209996
0
LWPOLYLINE
5
32e
100
AcDbEntity
8
0
62
0
370
0
100
AcDbPolyline
66
1
90
10
70
0
39
0.000000
 10
23.685500
 20
157.099003
 10
23.685500
 20
157.670501
 10
23.876000
 20
157.797496
 10
24.066500
 20
157.797496
 10
24.193501
 20
157.670501
 10
24.193501
 20
157.289495
 10
24.066500
 20
157.099003
 10
23.494999
 20
157.099003
 10
23.177499
 20
157.479998
 10
23.177499
 20
157.670501
0
LWPOLYLINE
5
32f
100
AcDbEntity
8
0
62
0
370
0
100
AcDbPolyline
66
1
90
2
70
0
39
0.000000
 10
89.916004
 20
194.817997
 10
88.455499
 20
194.817997
0
LWPOLYLINE
5
330
100
AcDbEntity
8
0
62
0
370
0
100
AcDbPolyline
66
1
90
2
70
0
39
0.000000
 10
89.916004
 20
193.166999
 10
88.455499
 20
193.166999
0
LWPOLYLINE
5
331
100
AcDbEntity
8
0
62
0
370
0
100
AcDbPolyline
66
1
90
2
70
0
39
0.000000
 10
88.963500
 20
195.897496
 10
88.963500
 20
196.913497
0
LWPOLYLINE
5
332
100
AcDbEntity
8
0
62
0
370
0
100
AcDbPolyline
66
1
90
2
70
0
39
0.000000
 10
88.963500
 20
192.087500
 10
88.963500
 20
189.102992
0
LWPOLYLINE
5
333
100
AcDbEntity
8
0
62
0
370
0
100
AcDbPolyline
66
1
90
2
70
0
39
0.000000
 10
88.963500
 20
194.817997
 10
88.963500
 20
193.166999
0
HATCH
5
334
100
AcDbEntity
8
0
62
0
100
AcDbHatch
10
0.0
20
0.0
30
0.0
210
0.0
220
0.0
230
1.0
2
SOLID
70
1
71
0
91
1
92
3
72
0
73
1
93
3
 10
88.772997
 20
195.897496
 10
89.154003
 20
195.897496
 10
88.963500
 20
194.817997
97
1
330
30
75
2
76
0
98
1
10
0.0
20
0.0
0
LWPOLYLINE
5
335
100
AcDbEntity
8
0
62
0
370
0
100
AcDbPolyline
66
1
90
3
70
1
39
0.000000
 10
88.772997
 20
195.897496
 10
89.154003
 20
195.897496
 10
88.963500
 20
194.817997
0
HATCH
5
336
100
AcDbEntity
8
0
62
0
100
AcDbHatch
10
0.0
20
0.0
30
0.0
210
0.0
220
0.0
230
1.0
2
SOLID
70
1
71
0
91
1
92
3
72
0
73
1
93
3
 10
88.772997
 20
192.087500
 10
89.154003
 20
192.087500
 10
88.963500
 20
193.166999
97
1
330
30
75
2
76
0
98
1
10
0.0
20
0.0
0
LWPOLYLINE
5
337
100
AcDbEntity
8
0
62
0
370
0
100
AcDbPolyline
66
1
90
3
70
1
39
0.000000
 10
88.772997
 20
192.087500
 10
89.154003
 20
192.087500
 10
88.963500
 20
193.166999
0
LWPOLYLINE
5
338
100
AcDbEntity
8
0
62
0
370
0
100
AcDbPolyline
66
1
90
4
70
0
39
0.000000
 10
88.328504
 20
190.055497
 10
88.328504
 20
189.357003
 10
87.630001
 20
189.865004
 10
88.709500
 20
189.865004
0
LWPOLYLINE
5
339
100
AcDbEntity
8
0
62
0
370
0
100
AcDbPolyline
66
1
90
2
70
0
39
0.000000
 10
26.479499
 20
88.328502
 10
26.479499
 20
97.790004
0
LWPOLYLINE
5
33a
100
AcDbEntity
8
0
62
0
370
0
100
AcDbPolyline
66
1
90
2
70
0
39
0.000000
 10
71.501000
 20
88.328502
 10
71.501000
 20
97.790004
0
LWPOLYLINE
5
33b
100
AcDbEntity
8
0
62
0
370
0
100
AcDbPolyline
66
1
90
2
70
0
39
0.000000
 10
27.559001
 20
97.218495
 10
70.421501
 20
97.218495
0
HATCH
5
33c
100
AcDbEntity
8
0
62
0
100
AcDbHatch
10
0.0
20
0.0
30
0.0
210
0.0
220
0.0
230
1.0
2
SOLID
70
1
71
0
91
1
92
3
72
0
73
1
93
3
 10
27.559001
 20
97.408998
 10
27.559001
 20
97.091500
 10
26.479499
 20
97.218495
97
1
330
30
75
2
76
0
98
1
10
0.0
20
0.0
0
LWPOLYLINE
5
33d
100
AcDbEntity
8
0
62
0
370
0
100
AcDbPolyline
66
1
90
3
70
1
39
0.000000
 10
27.559001
 20
97.408998
 10
27.559001
 20
97.091500
 10
26.479499
 20
97.218495
0
HATCH
5
33e
100
AcDbEntity
8
0
62
0
100
AcDbHatch
10
0.0
20
0.0
30
0.0
210
0.0
220
0.0
230
1.0
2
SOLID
70
1
71
0
91
1
92
3
72
0
73
1
93
3
 10
70.421501
 20
97.408998
 10
70.421501
 20
97.091500
 10
71.501000
 20
97.218495
97
1
330
30
75
2
76
0
98
1
10
0.0
20
0.0
0
LWPOLYLINE
5
33f
100
AcDbEntity
8
0
62
0
370
0
100
AcDbPolyline
66
1
90
3
70
1
39
0.000000
 10
70.421501
 20
97.408998
 10
70.421501
 20
97.091500
 10
71.501000
 20
97.218495
0
LWPOLYLINE
5
340
100
AcDbEntity
8
0
62
0
370
0
100
AcDbPolyline
66
1
90
3
70
0
39
0.000000
 10
47.878998
 20
98.361503
 10
48.005998
 20
98.551995
 10
48.005998
 20
97.472496
0
LWPOLYLINE
5
341
100
AcDbEntity
8
0
62
0
370
0
100
AcDbPolyline
66
1
90
2
70
0
39
0.000000
 10
47.878998
 20
97.472496
 10
48.196501
 20
97.472496
0
LWPOLYLINE
5
342
100
AcDbEntity
8
0
62
0
370
0
100
AcDbPolyline
66
1
90
8
70
1
39
0.000000
 10
48.704502
 20
97.472496
 10
48.577502
 20
97.662999
 10
48.577502
 20
98.361503
 10
48.704502
 20
98.551995
 10
48.894999
 20
98.551995
 10
49.085502
 20
98.361503
 10
49.085502
 20
97.662999
 10
48.894999
 20
97.472496
0
LWPOLYLINE
5
343
100
AcDbEntity
8
0
62
0
370
0
100
AcDbPolyline
66
1
90
3
70
0
39
0.000000
 10
49.403000
 20
98.551995
 10
50.101499
 20
98.551995
 10
49.593498
 20
97.472496
0
LWPOLYLINE
5
344
100
AcDbEntity
8
0
62
0
370
0
100
AcDbPolyline
66
1
90
2
70
0
39
0.000000
 10
27.432001
 20
87.375997
 10
27.432001
 20
94.805497
0
LWPOLYLINE
5
345
100
AcDbEntity
8
0
62
0
370
0
100
AcDbPolyline
66
1
90
2
70
0
39
0.000000
 10
70.548501
 20
87.375997
 10
70.548501
 20
94.805497
0
LWPOLYLINE
5
346
100
AcDbEntity
8
0
62
0
370
0
100
AcDbPolyline
66
1
90
2
70
0
39
0.000000
 10
28.511500
 20
94.297496
 10
69.469002
 20
94.297496
0
HATCH
5
347
100
AcDbEntity
8
0
62
0
100
AcDbHatch
10
0.0
20
0.0
30
0.0
210
0.0
220
0.0
230
1.0
2
SOLID
70
1
71
0
91
1
92
3
72
0
73
1
93
3
 10
28.511500
 20
94.487999
 10
28.511500
 20
94.107003
 10
27.432001
 20
94.297496
97
1
330
30
75
2
76
0
98
1
10
0.0
20
0.0
0
LWPOLYLINE
5
348
100
AcDbEntity
8
0
62
0
370
0
100
AcDbPolyline
66
1
90
3
70
1
39
0.000000
 10
28.511500
 20
94.487999
 10
28.511500
 20
94.107003
 10
27.432001
 20
94.297496
0
HATCH
5
349
100
AcDbEntity
8
0
62
0
100
AcDbHatch
10
0.0
20
0.0
30
0.0
210
0.0
220
0.0
230
1.0
2
SOLID
70
1
71
0
91
1
92
3
72
0
73
1
93
3
 10
69.469002
 20
94.487999
 10
69.469002
 20
94.107003
 10
70.548501
 20
94.297496
97
1
330
30
75
2
76
0
98
1
10
0.0
20
0.0
0
LWPOLYLINE
5
34a
100
AcDbEntity
8
0
62
0
370
0
100
AcDbPolyline
66
1
90
3
70
1
39
0.000000
 10
69.469002
 20
94.487999
 10
69.469002
 20
94.107003
 10
70.548501
 20
94.297496
0
LWPOLYLINE
5
34b
100
AcDbEntity
8
0
62
0
370
0
100
AcDbPolyline
66
1
90
3
70
0
39
0.000000
 10
47.053499
 20
95.630995
 10
47.244002
 20
95.821498
 10
47.244002
 20
94.741999
0
LWPOLYLINE
5
34c
100
AcDbEntity
8
0
62
0
370
0
100
AcDbPolyline
66
1
90
2
70
0
39
0.000000
 10
47.053499
 20
94.741999
 10
47.434500
 20
94.741999
0
LWPOLYLINE
5
34d
100
AcDbEntity
8
0
62
0
370
0
100
AcDbPolyline
66
1
90
8
70
1
39
0.000000
 10
47.942501
 20
94.741999
 10
47.751998
 20
94.932502
 10
47.751998
 20
95.630995
 10
47.942501
 20
95.821498
 10
48.132998
 20
95.821498
 10
48.259998
 20
95.630995
 10
48.259998
 20
94.932502
 10
48.132998
 20
94.741999
0
LWPOLYLINE
5
34e
100
AcDbEntity
8
0
62
0
370
0
100
AcDbPolyline
66
1
90
10
70
0
39
0.000000
 10
48.640999
 20
95.630995
 10
48.831502
 20
95.821498
 10
49.149000
 20
95.821498
 10
49.339498
 20
95.630995
 10
49.339498
 20
95.440503
 10
49.149000
 20
95.250000
 10
48.831502
 20
95.250000
 10
48.640999
 20
95.059497
 10
48.640999
 20
94.741999
 10
49.339498
 20
94.741999
0
LWPOLYLINE
5
34f
100
AcDbEntity
8
0
62
0
370
0
100
AcDbPolyline
66
1
90
3
70
0
39
0.000000
 10
49.847498
 20
94.932502
 10
49.847498
 20
94.741999
 10
49.720498
 20
94.551496
0
LWPOLYLINE
5
350
100
AcDbEntity
8
0
62
0
370
0
100
AcDbPolyline
66
1
90
10
70
0
39
0.000000
 10
50.228499
 20
95.250000
 10
50.736500
 20
95.250000
 10
50.926998
 20
95.059497
 10
50.926998
 20
94.932502
 10
50.736500
 20
94.741999
 10
50.419002
 20
94.741999
 10
50.228499
 20
94.932502
 10
50.228499
 20
95.440503
 10
50.546002
 20
95.821498
 10
50.736500
 20
95.821498
0
LWPOLYLINE
5
351
100
AcDbEntity
8
0
62
0
370
0
100
AcDbPolyline
66
1
90
2
70
0
39
0.000000
 10
26.225501
 20
88.074501
 10
9.398000
 20
88.074501
0
LWPOLYLINE
5
352
100
AcDbEntity
8
0
62
0
370
0
100
AcDbPolyline
66
1
90
2
70
0
39
0.000000
 10
26.225501
 20
51.308001
 10
9.398000
 20
51.308001
0
LWPOLYLINE
5
353
100
AcDbEntity
8
0
62
0
370
0
100
AcDbPolyline
66
1
90
2
70
0
39
0.000000
 10
9.906001
 20
87.058500
 10
9.906001
 20
52.324003
0
HATCH
5
354
100
AcDbEntity
8
0
62
0
100
AcDbHatch
10
0.0
20
0.0
30
0.0
210
0.0
220
0.0
230
1.0
2
SOLID
70
1
71
0
91
1
92
3
72
0
73
1
93
3
 10
9.779000
 20
87.058500
 10
10.096501
 20
87.058500
 10
9.906001
 20
88.074501
97
1
330
30
75
2
76
0
98
1
10
0.0
20
0.0
0
LWPOLYLINE
5
355
100
AcDbEntity
8
0
62
0
370
0
100
AcDbPolyline
66
1
90
3
70
1
39
0.000000
 10
9.779000
 20
87.058500
 10
10.096501
 20
87.058500
 10
9.906001
 20
88.074501
0
HATCH
5
356
100
AcDbEntity
8
0
62
0
100
AcDbHatch
10
0.0
20
0.0
30
0.0
210
0.0
220
0.0
230
1.0
2
SOLID
70
1
71
0
91
1
92
3
72
0
73
1
93
3
 10
9.779000
 20
52.324003
 10
10.096501
 20
52.324003
 10
9.906001
 20
51.308001
97
1
330
30
75
2
76
0
98
1
10
0.0
20
0.0
0
LWPOLYLINE
5
357
100
AcDbEntity
8
0
62
0
370
0
100
AcDbPolyline
66
1
90
3
70
1
39
0.000000
 10
9.779000
 20
52.324003
 10
10.096501
 20
52.324003
 10
9.906001
 20
51.308001
0
LWPOLYLINE
5
358
100
AcDbEntity
8
0
62
0
370
0
100
AcDbPolyline
66
1
90
16
70
0
39
0.000000
 10
8.953500
 20
68.579998
 10
9.144001
 20
68.706998
 10
9.334500
 20
68.706998
 10
9.461500
 20
68.579998
 10
9.461500
 20
68.199003
 10
9.334500
 20
68.008500
 10
9.144001
 20
68.008500
 10
8.953500
 20
68.199003
 10
8.953500
 20
68.579998
 10
8.763000
 20
68.706998
 10
8.636000
 20
68.706998
 10
8.445500
 20
68.579998
 10
8.445500
 20
68.199003
 10
8.636000
 20
68.008500
 10
8.763000
 20
68.008500
 10
8.953500
 20
68.199003
0
LWPOLYLINE
5
359
100
AcDbEntity
8
0
62
0
370
0
100
AcDbPolyline
66
1
90
3
70
0
39
0.000000
 10
8.445500
 20
69.087999
 10
8.445500
 20
69.786503
 10
9.461500
 20
69.278502
0
LWPOLYLINE
5
35a
100
AcDbEntity
8
0
62
0
370
0
100
AcDbPolyline
66
1
90
3
70
0
39
0.000000
 10
9.334500
 20
70.294498
 10
9.461500
 20
70.294498
 10
9.652000
 20
70.104000
0
LWPOLYLINE
5
35b
100
AcDbEntity
8
0
62
0
370
0
100
AcDbPolyline
66
1
90
9
70
0
39
0.000000
 10
9.334500
 20
70.675499
 10
9.461500
 20
70.802499
 10
9.461500
 20
71.183500
 10
9.334500
 20
71.374003
 10
8.953500
 20
71.374003
 10
8.763000
 20
71.183500
 10
8.763000
 20
70.675499
 10
8.445500
 20
70.675499
 10
8.445500
 20
71.374003
0
LWPOLYLINE
5
35c
100
AcDbEntity
8
0
62
0
370
0
100
AcDbPolyline
66
1
90
2
70
0
39
0.000000
 10
27.178000
 20
87.122002
 10
12.191999
 20
87.122002
0
LWPOLYLINE
5
35d
100
AcDbEntity
8
0
62
0
370
0
100
AcDbPolyline
66
1
90
2
70
0
39
0.000000
 10
27.178000
 20
52.260500
 10
12.191999
 20
52.260500
0
LWPOLYLINE
5
35e
100
AcDbEntity
8
0
62
0
370
0
100
AcDbPolyline
66
1
90
2
70
0
39
0.000000
 10
12.763500
 20
86.106001
 10
12.763500
 20
53.276502
0
HATCH
5
35f
100
AcDbEntity
8
0
62
0
100
AcDbHatch
10
0.0
20
0.0
30
0.0
210
0.0
220
0.0
230
1.0
2
SOLID
70
1
71
0
91
1
92
3
72
0
73
1
93
3
 10
12.573000
 20
86.106001
 10
12.890500
 20
86.106001
 10
12.763500
 20
87.122002
97
1
330
30
75
2
76
0
98
1
10
0.0
20
0.0
0
LWPOLYLINE
5
360
100
AcDbEntity
8
0
62
0
370
0
100
AcDbPolyline
66
1
90
3
70
1
39
0.000000
 10
12.573000
 20
86.106001
 10
12.890500
 20
86.106001
 10
12.763500
 20
87.122002
0
HATCH
5
361
100
AcDbEntity
8
0
62
0
100
AcDbHatch
10
0.0
20
0.0
30
0.0
210
0.0
220
0.0
230
1.0
2
SOLID
70
1
71
0
91
1
92
3
72
0
73
1
93
3
 10
12.573000
 20
53.276502
 10
12.890500
 20
53.276502
 10
12.763500
 20
52.260500
97
1
330
30
75
2
76
0
98
1
10
0.0
20
0.0
0
LWPOLYLINE
5
362
100
AcDbEntity
8
0
62
0
370
0
100
AcDbPolyline
66
1
90
3
70
1
39
0.000000
 10
12.573000
 20
53.276502
 10
12.890500
 20
53.276502
 10
12.763500
 20
52.260500
0
LWPOLYLINE
5
363
100
AcDbEntity
8
0
62
0
370
0
100
AcDbPolyline
66
1
90
16
70
0
39
0.000000
 10
11.938001
 20
69.341999
 10
12.128499
 20
69.532502
 10
12.318999
 20
69.532502
 10
12.509500
 20
69.341999
 10
12.509500
 20
68.960998
 10
12.318999
 20
68.833998
 10
12.128499
 20
68.833998
 10
11.938001
 20
68.960998
 10
11.938001
 20
69.341999
 10
11.811001
 20
69.532502
 10
11.620501
 20
69.532502
 10
11.430001
 20
69.341999
 10
11.430001
 20
68.960998
 10
11.620501
 20
68.833998
 10
11.811001
 20
68.833998
 10
11.938001
 20
68.960998
0
LWPOLYLINE
5
364
100
AcDbEntity
8
0
62
0
370
0
100
AcDbPolyline
66
1
90
7
70
0
39
0.000000
 10
11.620501
 20
69.850000
 10
11.430001
 20
70.040498
 10
11.430001
 20
70.421498
 10
11.620501
 20
70.548498
 10
11.811001
 20
70.548498
 10
11.938001
 20
70.421498
 10
11.938001
 20
70.231001
0
LWPOLYLINE
5
365
100
AcDbEntity
8
0
62
0
370
0
100
AcDbPolyline
66
1
90
6
70
0
39
0.000000
 10
11.938001
 20
70.421498
 10
12.128499
 20
70.548498
 10
12.318999
 20
70.548498
 10
12.509500
 20
70.421498
 10
12.509500
 20
70.040498
 10
12.318999
 20
69.850000
0
LWPOLYLINE
5
366
100
AcDbEntity
8
0
62
0
370
0
100
AcDbPolyline
66
1
90
2
70
0
39
0.000000
 10
27.178000
 20
81.914999
 10
15.239999
 20
81.914999
0
LWPOLYLINE
5
367
100
AcDbEntity
8
0
62
0
370
0
100
AcDbPolyline
66
1
90
2
70
0
39
0.000000
 10
27.178000
 20
57.467498
 10
15.239999
 20
57.467498
0
LWPOLYLINE
5
368
100
AcDbEntity
8
0
62
0
370
0
100
AcDbPolyline
66
1
90
2
70
0
39
0.000000
 10
15.811500
 20
80.899003
 10
15.811500
 20
58.483500
0
HATCH
5
369
100
AcDbEntity
8
0
62
0
100
AcDbHatch
10
0.0
20
0.0
30
0.0
210
0.0
220
0.0
230
1.0
2
SOLID
70
1
71
0
91
1
92
3
72
0
73
1
93
3
 10
15.621000
 20
80.899003
 10
15.938500
 20
80.899003
 10
15.811500
 20
81.914999
97
1
330
30
75
2
76
0
98
1
10
0.0
20
0.0
0
LWPOLYLINE
5
36a
100
AcDbEntity
8
0
62
0
370
0
100
AcDbPolyline
66
1
90
3
70
1
39
0.000000
 10
15.621000
 20
80.899003
 10
15.938500
 20
80.899003
 10
15.811500
 20
81.914999
0
HATCH
5
36b
100
AcDbEntity
8
0
62
0
100
AcDbHatch
10
0.0
20
0.0
30
0.0
210
0.0
220
0.0
230
1.0
2
SOLID
70
1
71
0
91
1
92
3
72
0
73
1
93
3
 10
15.621000
 20
58.483500
 10
15.938500
 20
58.483500
 10
15.811500
 20
57.467498
97
1
330
30
75
2
76
0
98
1
10
0.0
20
0.0
0
LWPOLYLINE
5
36c
100
AcDbEntity
8
0
62
0
370
0
100
AcDbPolyline
66
1
90
3
70
1
39
0.000000
 10
15.621000
 20
58.483500
 10
15.938500
 20
58.483500
 10
15.811500
 20
57.467498
0
LWPOLYLINE
5
36d
100
AcDbEntity
8
0
62
0
370
0
100
AcDbPolyline
66
1
90
9
70
0
39
0.000000
 10
15.176499
 20
68.008500
 10
15.366999
 20
68.199003
 10
15.366999
 20
68.579998
 10
15.176499
 20
68.706998
 10
14.795501
 20
68.706998
 10
14.668501
 20
68.579998
 10
14.668501
 20
68.008500
 10
14.287500
 20
68.008500
 10
14.287500
 20
68.706998
0
LWPOLYLINE
5
36e
100
AcDbEntity
8
0
62
0
370
0
100
AcDbPolyline
66
1
90
16
70
0
39
0.000000
 10
14.795501
 20
69.596000
 10
14.986001
 20
69.786503
 10
15.176499
 20
69.786503
 10
15.366999
 20
69.596000
 10
15.366999
 20
69.278502
 10
15.176499
 20
69.087999
 10
14.986001
 20
69.087999
 10
14.795501
 20
69.278502
 10
14.795501
 20
69.596000
 10
14.668501
 20
69.786503
 10
14.478000
 20
69.786503
 10
14.287500
 20
69.596000
 10
14.287500
 20
69.278502
 10
14.478000
 20
69.087999
 10
14.668501
 20
69.087999
 10
14.795501
 20
69.278502
0
LWPOLYLINE
5
36f
100
AcDbEntity
8
0
62
0
370
0
100
AcDbPolyline
66
1
90
3
70
0
39
0.000000
 10
15.176499
 20
70.294498
 10
15.366999
 20
70.294498
 10
15.493999
 20
70.104000
0
LWPOLYLINE
5
370
100
AcDbEntity
8
0
62
0
370
0
100
AcDbPolyline
66
1
90
10
70
0
39
0.000000
 10
14.478000
 20
70.675499
 10
14.287500
 20
70.802499
 10
14.287500
 20
71.183500
 10
14.478000
 20
71.374003
 10
14.668501
 20
71.374003
 10
14.795501
 20
71.183500
 10
14.795501
 20
70.802499
 10
14.986001
 20
70.675499
 10
15.366999
 20
70.675499
 10
15.366999
 20
71.374003
0
LWPOLYLINE
5
371
100
AcDbEntity
8
0
62
0
370
0
100
AcDbPolyline
66
1
90
2
70
0
39
0.000000
 10
27.178000
 20
78.993999
 10
19.938999
 20
78.993999
0
LWPOLYLINE
5
372
100
AcDbEntity
8
0
62
0
370
0
100
AcDbPolyline
66
1
90
2
70
0
39
0.000000
 10
27.178000
 20
60.388497
 10
19.938999
 20
60.388497
0
LWPOLYLINE
5
373
100
AcDbEntity
8
0
62
0
370
0
100
AcDbPolyline
66
1
90
2
70
0
39
0.000000
 10
20.510500
 20
77.914500
 10
20.510500
 20
61.468002
0
HATCH
5
374
100
AcDbEntity
8
0
62
0
100
AcDbHatch
10
0.0
20
0.0
30
0.0
210
0.0
220
0.0
230
1.0
2
SOLID
70
1
71
0
91
1
92
3
72
0
73
1
93
3
 10
20.319999
 20
77.914500
 10
20.637500
 20
77.914500
 10
20.510500
 20
78.993999
97
1
330
30
75
2
76
0
98
1
10
0.0
20
0.0
0
LWPOLYLINE
5
375
100
AcDbEntity
8
0
62
0
370
0
100
AcDbPolyline
66
1
90
3
70
1
39
0.000000
 10
20.319999
 20
77.914500
 10
20.637500
 20
77.914500
 10
20.510500
 20
78.993999
0
HATCH
5
376
100
AcDbEntity
8
0
62
0
100
AcDbHatch
10
0.0
20
0.0
30
0.0
210
0.0
220
0.0
230
1.0
2
SOLID
70
1
71
0
91
1
92
3
72
0
73
1
93
3
 10
20.319999
 20
61.468002
 10
20.637500
 20
61.468002
 10
20.510500
 20
60.388497
97
1
330
30
75
2
76
0
98
1
10
0.0
20
0.0
0
LWPOLYLINE
5
377
100
AcDbEntity
8
0
62
0
370
0
100
AcDbPolyline
66
1
90
3
70
1
39
0.000000
 10
20.319999
 20
61.468002
 10
20.637500
 20
61.468002
 10
20.510500
 20
60.388497
0
LWPOLYLINE
5
378
100
AcDbEntity
8
0
62
0
370
0
100
AcDbPolyline
66
1
90
4
70
0
39
0.000000
 10
19.685001
 20
68.706998
 10
19.685001
 20
68.008500
 10
18.986500
 20
68.579998
 10
20.065999
 20
68.579998
0
LWPOLYLINE
5
379
100
AcDbEntity
8
0
62
0
370
0
100
AcDbPolyline
66
1
90
4
70
0
39
0.000000
 10
19.685001
 20
69.786503
 10
19.685001
 20
69.087999
 10
18.986500
 20
69.596000
 10
20.065999
 20
69.596000
0
LWPOLYLINE
5
37a
100
AcDbEntity
8
0
62
0
370
0
100
AcDbPolyline
66
1
90
3
70
0
39
0.000000
 10
19.875501
 20
70.294498
 10
20.065999
 20
70.294498
 10
20.192999
 20
70.104000
0
LWPOLYLINE
5
37b
100
AcDbEntity
8
0
62
0
370
0
100
AcDbPolyline
66
1
90
10
70
0
39
0.000000
 10
19.177000
 20
70.675499
 10
18.986500
 20
70.802499
 10
18.986500
 20
71.183500
 10
19.177000
 20
71.374003
 10
19.367501
 20
71.374003
 10
19.494501
 20
71.183500
 10
19.494501
 20
70.802499
 10
19.685001
 20
70.675499
 10
20.065999
 20
70.675499
 10
20.065999
 20
71.374003
0
LWPOLYLINE
5
37c
100
AcDbEntity
8
0
62
0
370
0
100
AcDbPolyline
66
1
90
2
70
0
39
0.000000
 10
93.599005
 20
83.375499
 10
80.137004
 20
83.375499
0
LWPOLYLINE
5
37d
100
AcDbEntity
8
0
62
0
370
0
100
AcDbPolyline
66
1
90
2
70
0
39
0.000000
 10
93.599005
 20
64.008001
 10
80.137004
 20
64.008001
0
LWPOLYLINE
5
37e
100
AcDbEntity
8
0
62
0
370
0
100
AcDbPolyline
66
1
90
2
70
0
39
0.000000
 10
80.708502
 20
82.296000
 10
80.708502
 20
65.087500
0
HATCH
5
37f
100
AcDbEntity
8
0
62
0
100
AcDbHatch
10
0.0
20
0.0
30
0.0
210
0.0
220
0.0
230
1.0
2
SOLID
70
1
71
0
91
1
92
3
72
0
73
1
93
3
 10
80.517999
 20
82.296000
 10
80.835497
 20
82.296000
 10
80.708502
 20
83.375499
97
1
330
30
75
2
76
0
98
1
10
0.0
20
0.0
0
LWPOLYLINE
5
380
100
AcDbEntity
8
0
62
0
370
0
100
AcDbPolyline
66
1
90
3
70
1
39
0.000000
 10
80.517999
 20
82.296000
 10
80.835497
 20
82.296000
 10
80.708502
 20
83.375499
0
HATCH
5
381
100
AcDbEntity
8
0
62
0
100
AcDbHatch
10
0.0
20
0.0
30
0.0
210
0.0
220
0.0
230
1.0
2
SOLID
70
1
71
0
91
1
92
3
72
0
73
1
93
3
 10
80.517999
 20
65.087500
 10
80.835497
 20
65.087500
 10
80.708502
 20
64.008001
97
1
330
30
75
2
76
0
98
1
10
0.0
20
0.0
0
LWPOLYLINE
5
382
100
AcDbEntity
8
0
62
0
370
0
100
AcDbPolyline
66
1
90
3
70
1
39
0.000000
 10
80.517999
 20
65.087500
 10
80.835497
 20
65.087500
 10
80.708502
 20
64.008001
0
LWPOLYLINE
5
383
100
AcDbEntity
8
0
62
0
370
0
100
AcDbPolyline
66
1
90
4
70
0
39
0.000000
 10
80.073496
 20
73.533001
 10
80.073496
 20
72.834502
 10
79.375003
 20
73.342498
 10
80.454502
 20
73.342498
0
LWPOLYLINE
5
384
100
AcDbEntity
8
0
62
0
370
0
100
AcDbPolyline
66
1
90
10
70
0
39
0.000000
 10
79.883004
 20
73.850499
 10
79.883004
 20
74.422002
 10
80.073496
 20
74.549003
 10
80.263999
 20
74.549003
 10
80.454502
 20
74.422002
 10
80.454502
 20
74.041002
 10
80.263999
 20
73.850499
 10
79.755998
 20
73.850499
 10
79.375003
 20
74.231499
 10
79.375003
 20
74.422002
0
LWPOLYLINE
5
385
100
AcDbEntity
8
0
62
0
370
0
100
AcDbPolyline
66
1
90
2
70
0
39
0.000000
 10
85.217002
 20
71.183500
 10
82.867501
 20
71.183500
0
LWPOLYLINE
5
386
100
AcDbEntity
8
0
62
0
370
0
100
AcDbPolyline
66
1
90
2
70
0
39
0.000000
 10
85.217002
 20
64.008001
 10
82.867501
 20
64.008001
0
LWPOLYLINE
5
387
100
AcDbEntity
8
0
62
0
370
0
100
AcDbPolyline
66
1
90
2
70
0
39
0.000000
 10
83.375501
 20
70.104000
 10
83.375501
 20
65.087500
0
HATCH
5
388
100
AcDbEntity
8
0
62
0
100
AcDbHatch
10
0.0
20
0.0
30
0.0
210
0.0
220
0.0
230
1.0
2
SOLID
70
1
71
0
91
1
92
3
72
0
73
1
93
3
 10
83.184998
 20
70.104000
 10
83.566004
 20
70.104000
 10
83.375501
 20
71.183500
97
1
330
30
75
2
76
0
98
1
10
0.0
20
0.0
0
LWPOLYLINE
5
389
100
AcDbEntity
8
0
62
0
370
0
100
AcDbPolyline
66
1
90
3
70
1
39
0.000000
 10
83.184998
 20
70.104000
 10
83.566004
 20
70.104000
 10
83.375501
 20
71.183500
0
HATCH
5
38a
100
AcDbEntity
8
0
62
0
100
AcDbHatch
10
0.0
20
0.0
30
0.0
210
0.0
220
0.0
230
1.0
2
SOLID
70
1
71
0
91
1
92
3
72
0
73
1
93
3
 10
83.184998
 20
65.087500
 10
83.566004
 20
65.087500
 10
83.375501
 20
64.008001
97
1
330
30
75
2
76
0
98
1
10
0.0
20
0.0
0
LWPOLYLINE
5
38b
100
AcDbEntity
8
0
62
0
370
0
100
AcDbPolyline
66
1
90
3
70
1
39
0.000000
 10
83.184998
 20
65.087500
 10
83.566004
 20
65.087500
 10
83.375501
 20
64.008001
0
LWPOLYLINE
5
38c
100
AcDbEntity
8
0
62
0
370
0
100
AcDbPolyline
66
1
90
3
70
0
39
0.000000
 10
82.232505
 20
66.929000
 10
82.042002
 20
67.056001
 10
83.121501
 20
67.056001
0
LWPOLYLINE
5
38d
100
AcDbEntity
8
0
62
0
370
0
100
AcDbPolyline
66
1
90
2
70
0
39
0.000000
 10
83.121501
 20
66.929000
 10
83.121501
 20
67.246498
0
LWPOLYLINE
5
38e
100
AcDbEntity
8
0
62
0
370
0
100
AcDbPolyline
66
1
90
3
70
0
39
0.000000
 10
82.042002
 20
67.627499
 10
82.042002
 20
68.325997
 10
83.121501
 20
67.754499
0
LWPOLYLINE
5
38f
100
AcDbEntity
8
0
62
0
370
0
100
AcDbPolyline
66
1
90
2
70
0
39
0.000000
 10
90.741503
 20
79.184502
 10
87.693498
 20
79.184502
0
LWPOLYLINE
5
390
100
AcDbEntity
8
0
62
0
370
0
100
AcDbPolyline
66
1
90
2
70
0
39
0.000000
 10
90.741503
 20
71.183500
 10
87.693498
 20
71.183500
0
LWPOLYLINE
5
391
100
AcDbEntity
8
0
62
0
370
0
100
AcDbPolyline
66
1
90
2
70
0
39
0.000000
 10
88.201499
 20
78.104998
 10
88.201499
 20
72.199501
0
HATCH
5
392
100
AcDbEntity
8
0
62
0
100
AcDbHatch
10
0.0
20
0.0
30
0.0
210
0.0
220
0.0
230
1.0
2
SOLID
70
1
71
0
91
1
92
3
72
0
73
1
93
3
 10
88.074504
 20
78.104998
 10
88.392002
 20
78.104998
 10
88.201499
 20
79.184502
97
1
330
30
75
2
76
0
98
1
10
0.0
20
0.0
0
LWPOLYLINE
5
393
100
AcDbEntity
8
0
62
0
370
0
100
AcDbPolyline
66
1
90
3
70
1
39
0.000000
 10
88.074504
 20
78.104998
 10
88.392002
 20
78.104998
 10
88.201499
 20
79.184502
0
HATCH
5
394
100
AcDbEntity
8
0
62
0
100
AcDbHatch
10
0.0
20
0.0
30
0.0
210
0.0
220
0.0
230
1.0
2
SOLID
70
1
71
0
91
1
92
3
72
0
73
1
93
3
 10
88.074504
 20
72.199501
 10
88.392002
 20
72.199501
 10
88.201499
 20
71.183500
97
1
330
30
75
2
76
0
98
1
10
0.0
20
0.0
0
LWPOLYLINE
5
395
100
AcDbEntity
8
0
62
0
370
0
100
AcDbPolyline
66
1
90
3
70
1
39
0.000000
 10
88.074504
 20
72.199501
 10
88.392002
 20
72.199501
 10
88.201499
 20
71.183500
0
LWPOLYLINE
5
396
100
AcDbEntity
8
0
62
0
370
0
100
AcDbPolyline
66
1
90
3
70
0
39
0.000000
 10
87.058502
 20
74.485500
 10
86.931497
 20
74.612500
 10
87.947498
 20
74.612500
0
LWPOLYLINE
5
397
100
AcDbEntity
8
0
62
0
370
0
100
AcDbPolyline
66
1
90
2
70
0
39
0.000000
 10
87.947498
 20
74.485500
 10
87.947498
 20
74.802998
0
LWPOLYLINE
5
398
100
AcDbEntity
8
0
62
0
370
0
100
AcDbPolyline
66
1
90
10
70
0
39
0.000000
 10
87.947498
 20
75.374501
 10
87.947498
 20
75.501502
 10
87.630001
 20
75.882502
 10
87.058502
 20
75.882502
 10
86.931497
 20
75.691999
 10
86.931497
 20
75.374501
 10
87.058502
 20
75.183998
 10
87.249005
 20
75.183998
 10
87.439498
 20
75.374501
 10
87.439498
 20
75.882502
0
LWPOLYLINE
5
399
100
AcDbEntity
8
0
62
0
370
0
100
AcDbPolyline
66
1
90
2
70
0
39
0.000000
 10
30.099000
 20
16.891000
 10
39.433502
 20
16.891000
0
LWPOLYLINE
5
39a
100
AcDbEntity
8
0
62
0
370
0
100
AcDbPolyline
66
1
90
2
70
0
39
0.000000
 10
30.099000
 20
12.700000
 10
39.433502
 20
12.700000
0
LWPOLYLINE
5
39b
100
AcDbEntity
8
0
62
0
370
0
100
AcDbPolyline
66
1
90
2
70
0
39
0.000000
 10
38.925501
 20
15.811500
 10
38.925501
 20
13.716000
0
HATCH
5
39c
100
AcDbEntity
8
0
62
0
100
AcDbHatch
10
0.0
20
0.0
30
0.0
210
0.0
220
0.0
230
1.0
2
SOLID
70
1
71
0
91
1
92
3
72
0
73
1
93
3
 10
38.734998
 20
15.811500
 10
39.052502
 20
15.811500
 10
38.925501
 20
16.891000
97
1
330
30
75
2
76
0
98
1
10
0.0
20
0.0
0
LWPOLYLINE
5
39d
100
AcDbEntity
8
0
62
0
370
0
100
AcDbPolyline
66
1
90
3
70
1
39
0.000000
 10
38.734998
 20
15.811500
 10
39.052502
 20
15.811500
 10
38.925501
 20
16.891000
0
HATCH
5
39e
100
AcDbEntity
8
0
62
0
100
AcDbHatch
10
0.0
20
0.0
30
0.0
210
0.0
220
0.0
230
1.0
2
SOLID
70
1
71
0
91
1
92
3
72
0
73
1
93
3
 10
38.734998
 20
13.716000
 10
39.052502
 20
13.716000
 10
38.925501
 20
12.700000
97
1
330
30
75
2
76
0
98
1
10
0.0
20
0.0
0
LWPOLYLINE
5
39f
100
AcDbEntity
8
0
62
0
370
0
100
AcDbPolyline
66
1
90
3
70
1
39
0.000000
 10
38.734998
 20
13.716000
 10
39.052502
 20
13.716000
 10
38.925501
 20
12.700000
0
LWPOLYLINE
5
3a0
100
AcDbEntity
8
0
62
0
370
0
100
AcDbPolyline
66
1
90
3
70
0
39
0.000000
 10
37.782499
 20
14.160500
 10
37.592002
 20
14.351000
 10
38.607998
 20
14.351000
0
LWPOLYLINE
5
3a1
100
AcDbEntity
8
0
62
0
370
0
100
AcDbPolyline
66
1
90
2
70
0
39
0.000000
 10
38.607998
 20
14.160500
 10
38.607998
 20
14.541500
0
LWPOLYLINE
5
3a2
100
AcDbEntity
8
0
62
0
370
0
100
AcDbPolyline
66
1
90
8
70
1
39
0.000000
 10
38.607998
 20
15.049500
 10
38.480998
 20
14.859000
 10
37.782499
 20
14.859000
 10
37.592002
 20
15.049500
 10
37.592002
 20
15.240000
 10
37.782499
 20
15.430501
 10
38.480998
 20
15.430501
 10
38.607998
 20
15.240000
0
LWPOLYLINE
5
3a3
100
AcDbEntity
8
0
62
0
370
0
100
AcDbPolyline
66
1
90
4
70
1
39
0.000000
 10
8.382001
 20
237.680497
 10
192.468509
 20
237.680497
 10
192.468509
 20
123.825000
 10
8.382001
 20
123.825000
0
LWPOLYLINE
5
3a4
100
AcDbEntity
8
0
62
0
370
0
100
AcDbPolyline
66
1
90
4
70
0
39
0.000000
 10
0.000000
 20
0.000000
 10
0.000000
 20
112.966500
 10
198.183491
 20
112.966500
 10
198.183491
 20
0.000000
0
LWPOLYLINE
5
3a5
100
AcDbEntity
8
0
62
6
370
0
100
AcDbPolyline
66
1
90
2
70
0
39
0.000000
 10
48.958502
 20
228.218994
 10
48.958502
 20
166.878003
0
LWPOLYLINE
5
3a6
100
AcDbEntity
8
0
62
6
370
0
100
AcDbPolyline
66
1
90
2
70
0
39
0.000000
 10
14.478000
 20
191.579499
 10
76.009500
 20
191.579499
0
LWPOLYLINE
5
3a7
100
AcDbEntity
8
0
62
6
370
0
100
AcDbPolyline
66
1
90
2
70
0
39
0.000000
 10
97.663001
 20
208.724491
 10
97.663001
 20
185.547008
0
LWPOLYLINE
5
3a8
100
AcDbEntity
8
0
62
6
370
0
100
AcDbPolyline
66
1
90
2
70
0
39
0.000000
 10
86.931497
 20
200.723493
 10
86.931497
 20
191.198493
0
LWPOLYLINE
5
3a9
100
AcDbEntity
8
0
62
6
370
0
100
AcDbPolyline
66
1
90
2
70
0
39
0.000000
 10
108.330998
 20
201.167997
 10
108.330998
 20
190.563497
0
LWPOLYLINE
5
3aa
100
AcDbEntity
8
0
62
6
370
0
100
AcDbPolyline
66
1
90
2
70
0
39
0.000000
 10
48.958502
 20
164.973005
 10
48.958502
 20
147.129499
0
LWPOLYLINE
5
3ab
100
AcDbEntity
8
0
62
6
370
0
100
AcDbPolyline
66
1
90
2
70
0
39
0.000000
 10
30.924501
 20
163.957003
 10
30.924501
 20
148.653502
0
LWPOLYLINE
5
3ac
100
AcDbEntity
8
0
62
6
370
0
100
AcDbPolyline
66
1
90
2
70
0
39
0.000000
 10
67.055998
 20
162.179000
 10
67.055998
 20
149.288497
0
LWPOLYLINE
5
3ad
100
AcDbEntity
8
0
62
6
370
0
100
AcDbPolyline
66
1
90
2
70
0
39
0.000000
 10
48.958502
 20
105.029000
 10
48.958502
 20
43.433998
0
LWPOLYLINE
5
3ae
100
AcDbEntity
8
0
62
6
370
0
100
AcDbPolyline
66
1
90
2
70
0
39
0.000000
 10
4.127500
 20
69.723000
 10
76.263500
 20
69.723000
0
LWPOLYLINE
5
3af
100
AcDbEntity
8
0
62
6
370
0
100
AcDbPolyline
66
1
90
2
70
0
39
0.000000
 10
103.822498
 20
95.948504
 10
103.822498
 20
50.482502
0
LWPOLYLINE
5
3b0
100
AcDbEntity
8
0
62
6
370
0
100
AcDbPolyline
66
1
90
2
70
0
39
0.000000
 10
48.958502
 20
37.973000
 10
48.958502
 20
1.270000
0
LWPOLYLINE
5
3b1
100
AcDbEntity
8
0
62
6
370
0
100
AcDbPolyline
66
1
90
2
70
0
39
0.000000
 10
28.829000
 20
202.247496
 10
33.591498
 20
202.247496
0
LWPOLYLINE
5
3b2
100
AcDbEntity
8
0
62
6
370
0
100
AcDbPolyline
66
1
90
2
70
0
39
0.000000
 10
30.924501
 20
199.707491
 10
30.924501
 20
204.850997
0
LWPOLYLINE
5
3b3
100
AcDbEntity
8
0
62
6
370
0
100
AcDbPolyline
66
1
90
2
70
0
39
0.000000
 10
64.960502
 20
202.247496
 10
69.723002
 20
202.247496
0
LWPOLYLINE
5
3b4
100
AcDbEntity
8
0
62
6
370
0
100
AcDbPolyline
66
1
90
2
70
0
39
0.000000
 10
67.055998
 20
199.707491
 10
67.055998
 20
204.850997
0
LWPOLYLINE
5
3b5
100
AcDbEntity
8
0
62
6
370
0
100
AcDbPolyline
66
1
90
2
70
0
39
0.000000
 10
64.960502
 20
180.848005
 10
69.723002
 20
180.848005
0
LWPOLYLINE
5
3b6
100
AcDbEntity
8
0
62
6
370
0
100
AcDbPolyline
66
1
90
2
70
0
39
0.000000
 10
67.055998
 20
178.371498
 10
67.055998
 20
183.451507
0
LWPOLYLINE
5
3b7
100
AcDbEntity
8
0
62
6
370
0
100
AcDbPolyline
66
1
90
2
70
0
39
0.000000
 10
28.765500
 20
180.911503
 10
33.591498
 20
180.911503
0
LWPOLYLINE
5
3b8
100
AcDbEntity
8
0
62
6
370
0
100
AcDbPolyline
66
1
90
2
70
0
39
0.000000
 10
30.924501
 20
178.371498
 10
30.924501
 20
183.515004
0
LWPOLYLINE
5
3b9
100
AcDbEntity
8
0
62
0
370
0
100
AcDbPolyline
66
1
90
2
70
0
39
0.000000
 10
102.171501
 20
66.738497
 10
102.171501
 20
65.595501
0
LWPOLYLINE
5
3ba
100
AcDbEntity
8
0
62
0
370
0
100
AcDbPolyline
66
1
90
2
70
0
39
0.000000
 10
105.537004
 20
66.738497
 10
105.537004
 20
65.595501
0
LWPOLYLINE
5
3bb
100
AcDbEntity
8
0
62
1
370
0
100
AcDbPolyline
66
1
90
4
70
0
39
0.000000
 10
161.861505
 20
169.799003
 10
162.559998
 20
169.354499
 10
166.814498
 20
171.830995
 10
166.116004
 20
172.212001
0
LWPOLYLINE
5
3bc
100
AcDbEntity
8
0
62
1
370
0
100
AcDbPolyline
66
1
90
4
70
0
39
0.000000
 10
161.988500
 20
169.862500
 10
162.559998
 20
169.481505
 10
166.624005
 20
171.830995
 10
165.988999
 20
172.212001
0
ENDSEC
  0
SECTION
  2
OBJECTS
  0
DICTIONARY
  5
C
330
0
100
AcDbDictionary
281
     1
  3
ACAD_GROUP
350
D
  3
ACAD_PLOTSTYLENAME
350
E
  3
ACAD_MLINESTYLE
350
17
  3
ACAD_PLOTSETTINGS
350
19
  3
ACAD_LAYOUT
350
1A
  3
ACAD_IMAGE_DICT
350
2B
  3
ACAD_IMAGE_VARS
350
2C
  0
DICTIONARY
  5
D
102
{ACAD_REACTORS
330
C
102
}
330
C
100
AcDbDictionary
281
     1
  0
ACDBDICTIONARYWDFLT
  5
E
102
{ACAD_REACTORS
330
C
102
}
330
C
100
AcDbDictionary
281
     1
  3
Normal
350
F
100
AcDbDictionaryWithDefault
340
F
  0
DICTIONARY
  5
17
102
{ACAD_REACTORS
330
C
102
}
330
C
100
AcDbDictionary
281
     1
  3
Standard
350
18
  0
DICTIONARY
  5
19
102
{ACAD_REACTORS
330
C
102
}
330
C
100
AcDbDictionary
281
     1
  0
DICTIONARY
  5
1A
102
{ACAD_REACTORS
330
C
102
}
330
C
100
AcDbDictionary
281
     1
  3
Layout1
350
1E
  3
Model
350
22
  3
Layout2
350
26
  0
DICTIONARY
  5
2B
102
{ACAD_REACTORS
330
C
102
}
330
C
100
AcDbDictionary
281
     1
  0
RASTERVARIABLES
  5
2C
102
{ACAD_REACTORS
330
C
102
}
330
C
100
AcDbRasterVariables
 90
        0
 70
     0
 71
     1
 72
     1
  0
ACDBPLACEHOLDER
  5
F
102
{ACAD_REACTORS
330
E
102
}
330
E
  0
MLINESTYLE
  5
18
102
{ACAD_REACTORS
330
17
102
}
330
17
100
AcDbMlineStyle
  2
STANDARD
 70
     0
  3

 62
   256
 51
90.0
 52
90.0
 71
     2
 49
0.5
 62
   256
  6
BYLAYER
 49
-0.5
 62
   256
  6
BYLAYER
  0
LAYOUT
  5
1E
102
{ACAD_REACTORS
330
1A
102
}
330
1A
100
AcDbPlotSettings
  1

  2
HP LaserJet 4/NT4SERVER/Session 2
  4

  6

 40
0.0
 41
0.0
 42
0.0
 43
0.0
 44
0.0
 45
0.0
 46
0.0
 47
0.0
 48
0.0
 49
0.0
140
0.0
141
0.0
142
1.0
143
1.0
 70
   688
 72
     0
 73
     0
 74
     5
  7

 75
    16
147
1.0
148
0.0
149
0.0
100
AcDbLayout
  1
Layout1
 70
     1
 71
     1
 10
0.0
 20
0.0
 11
420.0
 21
297.0
 12
0.0
 22
0.0
 32
0.0
 14
1.000000000000000E+20
 24
1.000000000000000E+20
 34
1.000000000000000E+20
 15
-1.000000000000000E+20
 25
-1.000000000000000E+20
 35
-1.000000000000000E+20
146
0.0
 13
0.0
 23
0.0
 33
0.0
 16
1.0
 26
0.0
 36
0.0
 17
0.0
 27
1.0
 37
0.0
 76
     0
330
1B
  0
LAYOUT
  5
22
102
{ACAD_REACTORS
330
1A
102
}
330
1A
100
AcDbPlotSettings
  1

  2
HP LaserJet 4/NT4SERVER/Session 2
  4

  6

 40
0.0
 41
0.0
 42
0.0
 43
0.0
 44
0.0
 45
0.0
 46
0.0
 47
0.0
 48
0.0
 49
0.0
140
0.0
141
0.0
142
1.0
143
1.0
 70
  1712
 72
     0
 73
     0
 74
     0
  7

 75
     0
147
1.0
148
0.0
149
0.0
100
AcDbLayout
  1
Model
 70
     1
 71
     0
 10
0.0
 20
0.0
 11
12.0
 21
9.0
 12
0.0
 22
0.0
 32
0.0
 14
0.0
 24
0.0
 34
0.0
 15
0.0
 25
0.0
 35
0.0
146
0.0
 13
0.0
 23
0.0
 33
0.0
 16
1.0
 26
0.0
 36
0.0
 17
0.0
 27
1.0
 37
0.0
 76
     0
330
1F
  0
LAYOUT
  5
26
102
{ACAD_REACTORS
330
1A
102
}
330
1A
100
AcDbPlotSettings
  1

  2
HP LaserJet 4/NT4SERVER/Session 2
  4

  6

 40
0.0
 41
0.0
 42
0.0
 43
0.0
 44
0.0
 45
0.0
 46
0.0
 47
0.0
 48
0.0
 49
0.0
140
0.0
141
0.0
142
1.0
143
1.0
 70
   688
 72
     0
 73
     0
 74
     5
  7

 75
    16
147
1.0
148
0.0
149
0.0
100
AcDbLayout
  1
Layout2
 70
     1
 71
     2
 10
0.0
 20
0.0
 11
12.0
 21
9.0
 12
0.0
 22
0.0
 32
0.0
 14
0.0
 24
0.0
 34
0.0
 15
0.0
 25
0.0
 35
0.0
146
0.0
 13
0.0
 23
0.0
 33
0.0
 16
1.0
 26
0.0
 36
0.0
 17
0.0
 27
1.0
 37
0.0
 76
     0
330
23
  0
ENDSEC
  0
EOF
